<?xml version="1.0" encoding="UTF-8" standalone="no"?>
<!-- Created with Inkscape (http://www.inkscape.org/) -->

<svg
   xmlns:dc="http://purl.org/dc/elements/1.1/"
   xmlns:cc="http://creativecommons.org/ns#"
   xmlns:rdf="http://www.w3.org/1999/02/22-rdf-syntax-ns#"
   xmlns:svg="http://www.w3.org/2000/svg"
   xmlns="http://www.w3.org/2000/svg"
   version="1.1"
   width="239.175"
   height="79.724998"
   id="svg2"
   xml:space="preserve"><metadata
     id="metadata8"><rdf:RDF><cc:Work
         rdf:about=""><dc:format>image/svg+xml</dc:format><dc:type
           rdf:resource="http://purl.org/dc/dcmitype/StillImage" /><dc:title></dc:title></cc:Work></rdf:RDF></metadata><defs
     id="defs6" /><g
     transform="matrix(1.25,0,0,-1.25,0,79.725)"
     id="g10"><g
       transform="scale(0.1,0.1)"
       id="g12"><path
         d="m 480.195,251.676 0,-28.77 7.188,0 c 9.902,0 16.828,0.821 16.828,14.239 0,13.574 -7.055,14.531 -16.828,14.531 l -7.188,0 z m 0,38.789 0,-28.77 4.348,0 c 9.898,0 16.961,0.957 16.961,14.532 0,13.418 -7.063,14.238 -16.961,14.238 l -4.348,0 z m -12.48,10.312 17.226,0 c 17.364,0 29.446,-4.472 29.446,-24.16 0,-10.156 -4.074,-15.996 -9.907,-19.258 7.329,-2.851 12.622,-8.945 12.622,-20.605 0,-19.414 -11.946,-24.16 -29.309,-24.16 l -20.078,0 0,88.183"
         id="path14"
         style="fill:#27abad;fill-opacity:1;fill-rule:nonzero;stroke:none" /><path
         d="m 531.863,212.594 12.4844,0 0,88.1836 -12.4844,0 0,-88.1836 z"
         id="path16"
         style="fill:#27abad;fill-opacity:1;fill-rule:nonzero;stroke:none" /><path
         d="m 601.855,256.676 c 0,27.676 -2.851,34.863 -14.25,34.863 -11.394,0 -14.109,-7.187 -14.109,-34.863 0,-27.656 2.715,-34.844 14.109,-34.844 11.399,0 14.25,7.188 14.25,34.844 z m -41.242,0 c 0,36.504 8.684,45.722 26.992,45.722 18.86,0 27.129,-8.808 27.129,-45.722 0,-36.621 -8.679,-45.703 -27.129,-45.703 -18.718,0 -26.992,8.672 -26.992,45.703"
         id="path18"
         style="fill:#27abad;fill-opacity:1;fill-rule:nonzero;stroke:none" /><path
         d="m 679.551,256.676 c 0,32.969 7.187,45.722 28.613,45.722 6.524,0 12.356,-1.621 15.195,-3.261 l 0,-11.524 c -3.254,1.758 -8.945,3.535 -14.375,3.535 -12.89,0 -16.543,-5.839 -16.543,-34.472 0,-28.887 3.926,-34.59 16.543,-34.59 5.567,0 11.934,1.914 15.196,3.809 l 0,-11.524 c -2.852,-1.641 -9.629,-3.398 -15.742,-3.398 -23.196,-0.137 -28.887,12.754 -28.887,45.703"
         id="path20"
         style="fill:#27abad;fill-opacity:1;fill-rule:nonzero;stroke:none" /><path
         d="m 738.406,212.594 12.4844,0 0,88.1836 -12.4844,0 0,-88.1836 z"
         id="path22"
         style="fill:#27abad;fill-opacity:1;fill-rule:nonzero;stroke:none" /><path
         d="m 770.547,300.777 41.238,0 0,-10.586 -28.758,0 0,-26.992 23.203,0 0,-10.449 -23.203,0 0,-29.57 28.758,0 0,-10.586 -41.238,0 0,88.183"
         id="path24"
         style="fill:#27abad;fill-opacity:1;fill-rule:nonzero;stroke:none" /><path
         d="m 828.184,300.777 14.375,0 27.812,-70.273 c -0.945,7.187 -1.758,15.605 -1.758,23.476 l 0,46.797 11.934,0 0,-88.183 -14.375,0 -28.086,70.547 c 1.086,-7.188 2.031,-15.743 2.031,-23.75 l 0,-46.797 -11.933,0 0,88.183"
         id="path26"
         style="fill:#27abad;fill-opacity:1;fill-rule:nonzero;stroke:none" /><path
         d="m 896.809,256.676 c 0,32.969 7.183,45.722 28.621,45.722 6.504,0 12.343,-1.621 15.195,-3.261 l 0,-11.524 c -3.262,1.758 -8.965,3.535 -14.387,3.535 -12.879,0 -16.55,-5.839 -16.55,-34.472 0,-28.887 3.933,-34.59 16.55,-34.59 5.559,0 11.946,1.914 15.2,3.809 l 0,-11.524 c -2.852,-1.641 -9.641,-3.398 -15.735,-3.398 -23.203,-0.137 -28.894,12.754 -28.894,45.703"
         id="path28"
         style="fill:#27abad;fill-opacity:1;fill-rule:nonzero;stroke:none" /><path
         d="m 955.664,300.777 41.238,0 0,-10.586 -28.757,0 0,-26.992 23.203,0 0,-10.449 -23.203,0 0,-29.57 28.757,0 0,-10.586 -41.238,0 0,88.183"
         id="path30"
         style="fill:#27abad;fill-opacity:1;fill-rule:nonzero;stroke:none" /><path
         d="m 1041.28,300.777 41.24,0 0,-10.586 -28.76,0 0,-26.992 23.19,0 0,-10.449 -23.19,0 0,-29.57 28.76,0 0,-10.586 -41.24,0 0,88.183"
         id="path32"
         style="fill:#27abad;fill-opacity:1;fill-rule:nonzero;stroke:none" /><path
         d="m 1098.92,300.777 14.38,0 27.8,-70.273 c -0.94,7.187 -1.76,15.605 -1.76,23.476 l 0,46.797 11.94,0 0,-88.183 -14.39,0 -28.07,70.547 c 1.08,-7.188 2.04,-15.743 2.04,-23.75 l 0,-46.797 -11.94,0 0,88.183"
         id="path34"
         style="fill:#27abad;fill-opacity:1;fill-rule:nonzero;stroke:none" /><path
         d="m 1167.54,256.676 c 0,34.726 9.22,45.722 32.15,45.722 6.5,0 13.43,-1.757 16.4,-3.515 l 0,-11.543 c -3.24,1.894 -9.49,3.945 -15.46,3.945 -14.64,0 -20.2,-5.43 -20.2,-34.609 0,-28.887 3.92,-34.844 16.68,-34.844 3.93,0 7.19,0.527 9.63,1.211 l 0,29.434 -13.03,0 0,10.586 25.51,0 0,-47.618 c -2.58,-1.621 -12.89,-4.472 -21.97,-4.472 -23.88,0 -29.71,12.48 -29.71,45.703"
         id="path36"
         style="fill:#27abad;fill-opacity:1;fill-rule:nonzero;stroke:none" /><path
         d="m 1237.66,212.594 12.4805,0 0,88.1836 -12.4805,0 0,-88.1836 z"
         id="path38"
         style="fill:#27abad;fill-opacity:1;fill-rule:nonzero;stroke:none" /><path
         d="m 1269.79,300.777 14.38,0 27.8,-70.273 c -0.93,7.187 -1.76,15.605 -1.76,23.476 l 0,46.797 11.94,0 0,-88.183 -14.38,0 -28.08,70.547 c 1.09,-7.188 2.04,-15.743 2.04,-23.75 l 0,-46.797 -11.94,0 0,88.183"
         id="path40"
         style="fill:#27abad;fill-opacity:1;fill-rule:nonzero;stroke:none" /><path
         d="m 1341.8,300.777 41.25,0 0,-10.586 -28.77,0 0,-26.992 23.2,0 0,-10.449 -23.2,0 0,-29.57 28.77,0 0,-10.586 -41.25,0 0,88.183"
         id="path42"
         style="fill:#27abad;fill-opacity:1;fill-rule:nonzero;stroke:none" /><path
         d="m 1399.43,300.777 41.25,0 0,-10.586 -28.77,0 0,-26.992 23.21,0 0,-10.449 -23.21,0 0,-29.57 28.77,0 0,-10.586 -41.25,0 0,88.183"
         id="path44"
         style="fill:#27abad;fill-opacity:1;fill-rule:nonzero;stroke:none" /><path
         d="m 1469.55,290.191 0,-31.074 6.65,0 c 9.78,0 16.28,2.051 16.28,15.606 0,13.437 -6.5,15.468 -16.28,15.468 l -6.65,0 z m -12.48,10.586 20.35,0 c 16.28,0 27.95,-6.113 27.95,-26.054 0,-13.965 -6.79,-20.743 -15.33,-23.868 l 18.72,-38.261 -14.25,0 -16.54,35.957 -8.42,0 0,-35.957 -12.48,0 0,88.183"
         id="path46"
         style="fill:#27abad;fill-opacity:1;fill-rule:nonzero;stroke:none" /><path
         d="m 1522.3,212.594 12.4883,0 0,88.1836 -12.4883,0 0,-88.1836 z"
         id="path48"
         style="fill:#27abad;fill-opacity:1;fill-rule:nonzero;stroke:none" /><path
         d="m 1554.44,300.777 14.39,0 27.8,-70.273 c -0.95,7.187 -1.77,15.605 -1.77,23.476 l 0,46.797 11.95,0 0,-88.183 -14.39,0 -28.07,70.547 c 1.08,-7.188 2.04,-15.743 2.04,-23.75 l 0,-46.797 -11.95,0 0,88.183"
         id="path50"
         style="fill:#27abad;fill-opacity:1;fill-rule:nonzero;stroke:none" /><path
         d="m 1623.07,256.676 c 0,34.726 9.22,45.722 32.14,45.722 6.51,0 13.43,-1.757 16.41,-3.515 l 0,-11.543 c -3.24,1.894 -9.49,3.945 -15.46,3.945 -14.65,0 -20.2,-5.43 -20.2,-34.609 0,-28.887 3.92,-34.844 16.68,-34.844 3.93,0 7.18,0.527 9.63,1.211 l 0,29.434 -13.03,0 0,10.586 25.51,0 0,-47.618 c -2.58,-1.621 -12.89,-4.472 -21.98,-4.472 -23.87,0 -29.7,12.48 -29.7,45.703"
         id="path52"
         style="fill:#27abad;fill-opacity:1;fill-rule:nonzero;stroke:none" /><path
         d="m 467.715,425.191 39.883,0 0,-10.586 -27.403,0 0,-26.972 21.985,0 0,-10.449 -21.985,0 0,-40.157 -12.48,0 0,88.164"
         id="path54"
         style="fill:#27abad;fill-opacity:1;fill-rule:nonzero;stroke:none" /><path
         d="m 526.309,367.555 19.394,0 -3.652,14.648 c -1.906,7.324 -4.348,18.574 -5.84,28.34 -1.621,-9.766 -4.199,-21.016 -6.094,-28.34 l -3.808,-14.648 z m 3.398,57.636 12.883,0 23.465,-88.164 -13.02,0 -5.152,19.942 -24.016,0 -5.019,-19.942 -12.618,0 23.477,88.164"
         id="path56"
         style="fill:#27abad;fill-opacity:1;fill-rule:nonzero;stroke:none" /><path
         d="m 572.422,381.109 c 0,32.969 7.187,45.711 28.613,45.711 6.524,0 12.356,-1.629 15.195,-3.25 l 0,-11.523 c -3.25,1.758 -8.945,3.516 -14.375,3.516 -12.89,0 -16.542,-5.84 -16.542,-34.454 0,-28.886 3.925,-34.589 16.542,-34.589 5.567,0 11.934,1.914 15.196,3.808 l 0,-11.523 c -2.852,-1.641 -9.629,-3.399 -15.742,-3.399 -23.196,-0.136 -28.887,12.754 -28.887,45.703"
         id="path58"
         style="fill:#27abad;fill-opacity:1;fill-rule:nonzero;stroke:none" /><path
         d="m 629.188,363.629 0,61.562 12.484,0 0,-62.109 c 0,-13.027 4.473,-16.816 13.555,-16.816 9.097,0 13.574,3.789 13.574,16.816 l 0,62.109 12.476,0 0,-61.562 c 0,-20.078 -8.418,-28.223 -26.05,-28.223 -17.903,0 -26.039,7.871 -26.039,28.223"
         id="path60"
         style="fill:#27abad;fill-opacity:1;fill-rule:nonzero;stroke:none" /><path
         d="m 700.242,425.191 12.485,0 0,-77.578 27.402,0 0,-10.586 -39.887,0 0,88.164"
         id="path62"
         style="fill:#27abad;fill-opacity:1;fill-rule:nonzero;stroke:none" /><path
         d="m 735.781,425.191 50.598,0 0,-10.586 -19.121,0 0,-77.578 -12.485,0 0,77.578 -18.992,0 0,10.586"
         id="path64"
         style="fill:#27abad;fill-opacity:1;fill-rule:nonzero;stroke:none" /><path
         d="m 815.359,373.648 -24.136,51.543 13.687,0 10.449,-23.73 c 2.446,-5.703 4.746,-11.797 6.243,-17.227 1.628,5.43 4.074,11.524 6.511,17.227 l 10.45,23.73 13.292,0 -24.011,-51.543 0,-36.621 -12.485,0 0,36.621"
         id="path66"
         style="fill:#27abad;fill-opacity:1;fill-rule:nonzero;stroke:none" /><path
         d="m 923.496,381.109 c 0,27.676 -2.844,34.864 -14.25,34.864 -11.387,0 -14.101,-7.188 -14.101,-34.864 0,-27.656 2.714,-34.843 14.101,-34.843 11.406,0 14.25,7.187 14.25,34.843 z m -41.238,0 c 0,36.485 8.687,45.711 26.988,45.711 18.867,0 27.133,-8.816 27.133,-45.711 0,-36.621 -8.676,-45.703 -27.133,-45.703 -18.711,0 -26.988,8.672 -26.988,45.703"
         id="path68"
         style="fill:#27abad;fill-opacity:1;fill-rule:nonzero;stroke:none" /><path
         d="m 952.645,425.191 39.882,0 0,-10.586 -27.398,0 0,-26.972 21.973,0 0,-10.449 -21.973,0 0,-40.157 -12.484,0 0,88.164"
         id="path70"
         style="fill:#27abad;fill-opacity:1;fill-rule:nonzero;stroke:none" /><path
         d="m 653.184,291.695 c 5.507,0.02 10.703,-1.777 13.086,-3.652 l 0,11.23 c -2.383,1.465 -8.243,3.106 -14.18,3.106 -16.555,0 -25.664,-9.414 -25.664,-23.066 0,-11.387 4.824,-16.856 12.59,-23.555 l 7.097,-6.133 c 5.86,-4.902 9.492,-8.691 9.492,-16.016 0,-8.574 -5.664,-11.972 -14.167,-11.972 -6.45,0 -11.797,1.777 -14.883,3.906 l 0,-11.426 c 2.715,-1.562 8.367,-3.183 15.996,-3.164 16.512,0.039 25.625,9.434 25.64,23.067 0.024,11.386 -4.824,16.855 -12.586,23.554 l -7.089,6.133 c -5.879,5.039 -9.524,8.672 -9.5,15.996 0.015,8.613 5.64,11.973 14.168,11.992"
         id="path72"
         style="fill:#27abad;fill-opacity:1;fill-rule:nonzero;stroke:none" /><path
         d="m 318.895,344.625 c -14.207,0 -25.719,-11.523 -25.719,-25.723 0,-14.211 11.512,-25.734 25.719,-25.734 14.21,0 25.722,11.523 25.722,25.734 0,14.2 -11.512,25.723 -25.722,25.723 z m 13.253,-25.723 c 0,-7.324 -5.937,-13.254 -13.253,-13.254 -7.325,0 -13.25,5.93 -13.25,13.254 0,7.313 5.925,13.25 13.25,13.25 7.316,0 13.253,-5.937 13.253,-13.25"
         id="path74"
         style="fill:#27abad;fill-opacity:1;fill-rule:nonzero;stroke:none" /><path
         d="m 372.703,413.598 c -14.195,0 -25.723,-11.524 -25.723,-25.723 0,-14.207 11.528,-25.73 25.723,-25.73 14.211,0 25.735,11.523 25.735,25.73 0,14.199 -11.524,25.723 -25.735,25.723 z m 13.254,-25.723 c 0,-7.324 -5.93,-13.25 -13.254,-13.25 -7.312,0 -13.25,5.926 -13.25,13.25 0,7.316 5.938,13.254 13.25,13.254 7.324,0 13.254,-5.938 13.254,-13.254"
         id="path76"
         style="fill:#27abad;fill-opacity:1;fill-rule:nonzero;stroke:none" /><path
         d="m 318.895,412.719 c 2.89,0 5.734,-0.176 8.554,-0.43 l 1.137,12.414 c -3.195,0.293 -6.418,0.488 -9.691,0.488 -58.707,0 -106.297,-47.589 -106.297,-106.289 0,-58.711 47.59,-106.308 106.297,-106.308 58.703,0 106.3,47.597 106.3,106.308 0,12.293 -2.199,24.063 -6.047,35.047 l -11.753,-4.109 c 3.386,-9.707 5.332,-20.09 5.332,-30.949 0,-51.817 -42.012,-93.817 -93.832,-93.817 -51.817,0 -93.829,42 -93.829,93.817 0,51.828 42.012,93.828 93.829,93.828"
         id="path78"
         style="fill:#27abad;fill-opacity:1;fill-rule:nonzero;stroke:none" /><path
         d="m 318.895,387.777 c 2.121,0 4.21,-0.125 6.281,-0.32 l 1.133,12.422 c -2.442,0.215 -4.914,0.371 -7.414,0.371 -44.93,0 -81.356,-36.426 -81.356,-81.348 0,-44.933 36.426,-81.359 81.356,-81.359 44.933,0 81.359,36.426 81.359,81.359 0,9.414 -1.68,18.418 -4.629,26.825 l -11.77,-4.11 c 2.5,-7.129 3.918,-14.746 3.918,-22.726 0,-38.036 -30.839,-68.875 -68.878,-68.875 -38.043,0 -68.883,30.839 -68.883,68.875 0,38.047 30.84,68.886 68.883,68.886"
         id="path80"
         style="fill:#27abad;fill-opacity:1;fill-rule:nonzero;stroke:none" /></g></g></svg>