<?xml version="1.0" encoding="utf-8"?>
<svg xmlns="http://www.w3.org/2000/svg" xmlns:xlink="http://www.w3.org/1999/xlink" width="600" height="400" viewBox="0 0 2400 1600">
<defs>
  <clipPath id="clip0300">
    <rect x="0" y="0" width="2400" height="1600"/>
  </clipPath>
</defs>
<polygon clip-path="url(#clip0300)" points="
0,1600 2400,1600 2400,0 0,0 
  " fill="#ffffff" fill-rule="evenodd" fill-opacity="1"/>
<defs>
  <clipPath id="clip0301">
    <rect x="480" y="0" width="1681" height="1600"/>
  </clipPath>
</defs>
<polygon clip-path="url(#clip0300)" points="
184.243,1440.48 2321.26,1440.48 2321.26,47.2441 184.243,47.2441 
  " fill="#ffffff" fill-rule="evenodd" fill-opacity="1"/>
<defs>
  <clipPath id="clip0302">
    <rect x="184" y="47" width="2138" height="1394"/>
  </clipPath>
</defs>
<polyline clip-path="url(#clip0302)" style="stroke:#000000; stroke-width:2; stroke-opacity:0.1; fill:none" points="
  184.243,1440.48 184.243,47.2441 
  "/>
<polyline clip-path="url(#clip0302)" style="stroke:#000000; stroke-width:2; stroke-opacity:0.1; fill:none" points="
  611.646,1440.48 611.646,47.2441 
  "/>
<polyline clip-path="url(#clip0302)" style="stroke:#000000; stroke-width:2; stroke-opacity:0.1; fill:none" points="
  1039.05,1440.48 1039.05,47.2441 
  "/>
<polyline clip-path="url(#clip0302)" style="stroke:#000000; stroke-width:2; stroke-opacity:0.1; fill:none" points="
  1466.45,1440.48 1466.45,47.2441 
  "/>
<polyline clip-path="url(#clip0302)" style="stroke:#000000; stroke-width:2; stroke-opacity:0.1; fill:none" points="
  1893.86,1440.48 1893.86,47.2441 
  "/>
<polyline clip-path="url(#clip0302)" style="stroke:#000000; stroke-width:2; stroke-opacity:0.1; fill:none" points="
  2321.26,1440.48 2321.26,47.2441 
  "/>
<polyline clip-path="url(#clip0302)" style="stroke:#000000; stroke-width:2; stroke-opacity:0.1; fill:none" points="
  184.243,1254.05 2321.26,1254.05 
  "/>
<polyline clip-path="url(#clip0302)" style="stroke:#000000; stroke-width:2; stroke-opacity:0.1; fill:none" points="
  184.243,1056.24 2321.26,1056.24 
  "/>
<polyline clip-path="url(#clip0302)" style="stroke:#000000; stroke-width:2; stroke-opacity:0.1; fill:none" points="
  184.243,858.437 2321.26,858.437 
  "/>
<polyline clip-path="url(#clip0302)" style="stroke:#000000; stroke-width:2; stroke-opacity:0.1; fill:none" points="
  184.243,660.63 2321.26,660.63 
  "/>
<polyline clip-path="url(#clip0302)" style="stroke:#000000; stroke-width:2; stroke-opacity:0.1; fill:none" points="
  184.243,462.823 2321.26,462.823 
  "/>
<polyline clip-path="url(#clip0302)" style="stroke:#000000; stroke-width:2; stroke-opacity:0.1; fill:none" points="
  184.243,265.015 2321.26,265.015 
  "/>
<polyline clip-path="url(#clip0302)" style="stroke:#000000; stroke-width:2; stroke-opacity:0.1; fill:none" points="
  184.243,67.208 2321.26,67.208 
  "/>
<polyline clip-path="url(#clip0300)" style="stroke:#000000; stroke-width:4; stroke-opacity:1; fill:none" points="
  184.243,1440.48 2321.26,1440.48 
  "/>
<polyline clip-path="url(#clip0300)" style="stroke:#000000; stroke-width:4; stroke-opacity:1; fill:none" points="
  184.243,1440.48 184.243,47.2441 
  "/>
<polyline clip-path="url(#clip0300)" style="stroke:#000000; stroke-width:4; stroke-opacity:1; fill:none" points="
  184.243,1440.48 184.243,1419.58 
  "/>
<polyline clip-path="url(#clip0300)" style="stroke:#000000; stroke-width:4; stroke-opacity:1; fill:none" points="
  611.646,1440.48 611.646,1419.58 
  "/>
<polyline clip-path="url(#clip0300)" style="stroke:#000000; stroke-width:4; stroke-opacity:1; fill:none" points="
  1039.05,1440.48 1039.05,1419.58 
  "/>
<polyline clip-path="url(#clip0300)" style="stroke:#000000; stroke-width:4; stroke-opacity:1; fill:none" points="
  1466.45,1440.48 1466.45,1419.58 
  "/>
<polyline clip-path="url(#clip0300)" style="stroke:#000000; stroke-width:4; stroke-opacity:1; fill:none" points="
  1893.86,1440.48 1893.86,1419.58 
  "/>
<polyline clip-path="url(#clip0300)" style="stroke:#000000; stroke-width:4; stroke-opacity:1; fill:none" points="
  2321.26,1440.48 2321.26,1419.58 
  "/>
<polyline clip-path="url(#clip0300)" style="stroke:#000000; stroke-width:4; stroke-opacity:1; fill:none" points="
  184.243,1254.05 216.298,1254.05 
  "/>
<polyline clip-path="url(#clip0300)" style="stroke:#000000; stroke-width:4; stroke-opacity:1; fill:none" points="
  184.243,1056.24 216.298,1056.24 
  "/>
<polyline clip-path="url(#clip0300)" style="stroke:#000000; stroke-width:4; stroke-opacity:1; fill:none" points="
  184.243,858.437 216.298,858.437 
  "/>
<polyline clip-path="url(#clip0300)" style="stroke:#000000; stroke-width:4; stroke-opacity:1; fill:none" points="
  184.243,660.63 216.298,660.63 
  "/>
<polyline clip-path="url(#clip0300)" style="stroke:#000000; stroke-width:4; stroke-opacity:1; fill:none" points="
  184.243,462.823 216.298,462.823 
  "/>
<polyline clip-path="url(#clip0300)" style="stroke:#000000; stroke-width:4; stroke-opacity:1; fill:none" points="
  184.243,265.015 216.298,265.015 
  "/>
<polyline clip-path="url(#clip0300)" style="stroke:#000000; stroke-width:4; stroke-opacity:1; fill:none" points="
  184.243,67.208 216.298,67.208 
  "/>
<g clip-path="url(#clip0300)">
<text style="fill:#000000; fill-opacity:1; font-family:Arial,Helvetica Neue,Helvetica,sans-serif; font-size:48px; text-anchor:middle;" transform="rotate(0, 184.243, 1494.48)" x="184.243" y="1494.48">0</text>
</g>
<g clip-path="url(#clip0300)">
<text style="fill:#000000; fill-opacity:1; font-family:Arial,Helvetica Neue,Helvetica,sans-serif; font-size:48px; text-anchor:middle;" transform="rotate(0, 611.646, 1494.48)" x="611.646" y="1494.48">2</text>
</g>
<g clip-path="url(#clip0300)">
<text style="fill:#000000; fill-opacity:1; font-family:Arial,Helvetica Neue,Helvetica,sans-serif; font-size:48px; text-anchor:middle;" transform="rotate(0, 1039.05, 1494.48)" x="1039.05" y="1494.48">4</text>
</g>
<g clip-path="url(#clip0300)">
<text style="fill:#000000; fill-opacity:1; font-family:Arial,Helvetica Neue,Helvetica,sans-serif; font-size:48px; text-anchor:middle;" transform="rotate(0, 1466.45, 1494.48)" x="1466.45" y="1494.48">6</text>
</g>
<g clip-path="url(#clip0300)">
<text style="fill:#000000; fill-opacity:1; font-family:Arial,Helvetica Neue,Helvetica,sans-serif; font-size:48px; text-anchor:middle;" transform="rotate(0, 1893.86, 1494.48)" x="1893.86" y="1494.48">8</text>
</g>
<g clip-path="url(#clip0300)">
<text style="fill:#000000; fill-opacity:1; font-family:Arial,Helvetica Neue,Helvetica,sans-serif; font-size:48px; text-anchor:middle;" transform="rotate(0, 2321.26, 1494.48)" x="2321.26" y="1494.48">10</text>
</g>
<g clip-path="url(#clip0300)">
<text style="fill:#000000; fill-opacity:1; font-family:Arial,Helvetica Neue,Helvetica,sans-serif; font-size:48px; text-anchor:end;" transform="rotate(0, 160.243, 1271.55)" x="160.243" y="1271.55">1</text>
</g>
<g clip-path="url(#clip0300)">
<text style="fill:#000000; fill-opacity:1; font-family:Arial,Helvetica Neue,Helvetica,sans-serif; font-size:48px; text-anchor:end;" transform="rotate(0, 160.243, 1073.74)" x="160.243" y="1073.74">2</text>
</g>
<g clip-path="url(#clip0300)">
<text style="fill:#000000; fill-opacity:1; font-family:Arial,Helvetica Neue,Helvetica,sans-serif; font-size:48px; text-anchor:end;" transform="rotate(0, 160.243, 875.937)" x="160.243" y="875.937">3</text>
</g>
<g clip-path="url(#clip0300)">
<text style="fill:#000000; fill-opacity:1; font-family:Arial,Helvetica Neue,Helvetica,sans-serif; font-size:48px; text-anchor:end;" transform="rotate(0, 160.243, 678.13)" x="160.243" y="678.13">4</text>
</g>
<g clip-path="url(#clip0300)">
<text style="fill:#000000; fill-opacity:1; font-family:Arial,Helvetica Neue,Helvetica,sans-serif; font-size:48px; text-anchor:end;" transform="rotate(0, 160.243, 480.323)" x="160.243" y="480.323">5</text>
</g>
<g clip-path="url(#clip0300)">
<text style="fill:#000000; fill-opacity:1; font-family:Arial,Helvetica Neue,Helvetica,sans-serif; font-size:48px; text-anchor:end;" transform="rotate(0, 160.243, 282.515)" x="160.243" y="282.515">6</text>
</g>
<g clip-path="url(#clip0300)">
<text style="fill:#000000; fill-opacity:1; font-family:Arial,Helvetica Neue,Helvetica,sans-serif; font-size:48px; text-anchor:end;" transform="rotate(0, 160.243, 84.708)" x="160.243" y="84.708">7</text>
</g>
<g clip-path="url(#clip0300)">
<text style="fill:#000000; fill-opacity:1; font-family:Arial,Helvetica Neue,Helvetica,sans-serif; font-size:66px; text-anchor:middle;" transform="rotate(0, 1252.75, 1590.4)" x="1252.75" y="1590.4">time</text>
</g>
<g clip-path="url(#clip0300)">
<text style="fill:#000000; fill-opacity:1; font-family:Arial,Helvetica Neue,Helvetica,sans-serif; font-size:66px; text-anchor:middle;" transform="rotate(-90, 57.6, 743.863)" x="57.6" y="743.863">Number of a species</text>
</g>
<polyline clip-path="url(#clip0302)" style="stroke:#009af9; stroke-width:12; stroke-opacity:1; fill:none" points="
  184.243,1254.05 186.382,1253.04 188.521,1251.98 190.66,1250.88 192.799,1249.74 194.938,1248.55 197.078,1247.32 199.217,1246.04 201.356,1244.72 203.495,1243.36 
  205.634,1241.96 207.773,1240.51 209.913,1239.02 212.052,1237.48 214.191,1235.9 216.33,1234.28 218.469,1232.62 220.608,1230.91 222.747,1229.16 224.887,1227.36 
  227.026,1225.52 229.165,1223.64 231.304,1221.72 233.443,1219.75 235.582,1217.73 237.722,1215.67 239.861,1213.57 242,1211.42 244.139,1209.22 246.278,1206.98 
  248.417,1204.69 250.557,1202.36 252.696,1199.98 254.835,1197.56 256.974,1195.08 259.113,1192.56 261.252,1190 263.391,1187.38 265.531,1184.72 267.67,1182 
  269.809,1179.24 271.948,1176.43 274.087,1173.56 276.226,1170.65 278.366,1167.69 280.505,1164.67 282.644,1161.6 284.783,1158.48 286.922,1155.31 289.061,1152.09 
  291.2,1148.81 293.34,1145.47 295.479,1142.08 297.618,1138.64 299.757,1135.14 301.896,1131.58 304.035,1127.97 306.175,1124.29 308.314,1120.56 310.453,1116.78 
  312.592,1112.93 314.731,1109.02 316.87,1105.05 319.01,1101.02 321.149,1096.93 323.288,1092.78 325.427,1088.56 327.566,1084.28 329.705,1079.93 331.844,1075.52 
  333.984,1071.05 336.123,1066.5 338.262,1061.89 340.401,1057.22 342.54,1052.47 344.679,1047.66 346.819,1042.77 348.958,1037.82 351.097,1032.79 353.236,1027.69 
  355.375,1022.52 357.514,1017.27 359.653,1011.96 361.793,1006.56 363.932,1001.09 366.071,995.545 368.21,989.922 370.349,984.221 372.488,978.442 374.628,972.583 
  376.767,966.644 378.906,960.624 381.045,954.523 383.184,948.339 385.323,942.072 387.463,935.722 389.602,929.287 391.741,922.768 393.88,916.163 396.019,909.472 
  398.158,902.693 400.297,895.826 402.437,888.87 404.576,881.824 406.715,874.689 408.854,867.462 410.993,860.144 413.132,852.734 415.272,845.232 417.411,837.636 
  419.55,829.947 421.689,822.163 423.828,814.286 425.967,806.313 428.106,798.246 430.246,790.083 432.385,781.824 434.524,773.47 436.663,765.019 438.802,756.472 
  440.941,747.829 443.081,739.089 445.22,730.253 447.359,721.32 449.498,712.291 451.637,703.165 453.776,693.942 455.916,684.624 458.055,675.214 460.194,665.712 
  462.333,656.119 464.472,646.433 466.611,636.655 468.75,626.784 470.89,616.821 473.029,606.767 475.168,596.623 477.307,586.39 479.446,576.07 481.585,565.665 
  483.725,555.177 485.864,544.608 488.003,533.962 490.142,523.241 492.281,512.449 494.42,501.59 496.559,490.667 498.699,479.685 500.838,468.649 502.977,457.564 
  505.116,446.434 507.255,435.265 509.394,424.064 511.534,412.835 513.673,401.586 515.812,390.323 517.951,379.053 520.09,367.783 522.229,356.521 524.369,345.275 
  526.508,334.053 528.647,322.864 530.786,311.715 532.925,300.602 535.064,289.536 537.203,278.536 539.343,267.62 541.482,256.807 543.621,246.118 545.76,235.572 
  547.899,225.191 550.038,214.995 552.178,205.006 554.317,195.247 556.456,185.74 558.595,176.51 560.734,167.578 562.873,158.97 565.012,150.711 567.152,142.825 
  569.291,135.338 571.43,128.277 573.569,121.668 575.708,115.539 577.847,109.916 579.987,104.829 582.126,100.306 584.265,96.3755 586.404,93.068 588.543,90.4133 
  590.682,88.4422 592.822,87.1856 594.961,86.6754 597.1,86.9435 599.239,88.0225 601.378,89.9456 603.517,92.7464 605.656,96.4589 607.796,101.118 609.935,106.761 
  612.074,113.428 614.213,121.124 616.352,129.844 618.491,139.583 620.631,150.329 622.77,162.07 624.909,174.789 627.048,188.465 629.187,203.075 631.326,218.592 
  633.465,234.985 635.605,252.221 637.744,270.263 639.883,289.069 642.022,308.597 644.161,328.798 646.3,349.623 648.44,371.017 650.579,392.924 652.718,415.281 
  654.857,438.026 656.996,461.09 659.135,484.403 661.275,507.891 663.414,531.476 665.553,555.076 667.692,578.609 669.831,602.012 671.97,625.263 674.109,648.307 
  676.249,671.089 678.388,693.559 680.527,715.672 682.666,737.386 684.805,758.663 686.944,779.468 689.084,799.773 691.223,819.551 693.362,838.782 695.501,857.446 
  697.64,875.53 699.779,893.024 701.918,909.923 704.058,926.225 706.197,941.932 708.336,957.05 710.475,971.59 712.614,985.566 714.753,998.995 716.893,1011.9 
  719.032,1024.31 721.171,1036.25 723.31,1047.73 725.449,1058.72 727.588,1069.24 729.728,1079.32 731.867,1088.96 734.006,1098.19 736.145,1107.01 738.284,1115.45 
  740.423,1123.52 742.562,1131.23 744.702,1138.59 746.841,1145.63 748.98,1152.34 751.119,1158.75 753.258,1164.87 755.397,1170.7 757.537,1176.26 759.676,1181.56 
  761.815,1186.61 763.954,1191.42 766.093,1196 768.232,1200.36 770.371,1204.5 772.511,1208.43 774.65,1212.18 776.789,1215.74 778.928,1219.12 781.067,1222.34 
  783.206,1225.39 785.346,1228.28 787.485,1231.02 789.624,1233.61 791.763,1236.07 793.902,1238.39 796.041,1240.58 798.181,1242.65 800.32,1244.59 802.459,1246.43 
  804.598,1248.15 806.737,1249.77 808.876,1251.28 811.015,1252.69 813.155,1254.01 815.294,1255.24 817.433,1256.38 819.572,1257.43 821.711,1258.4 823.85,1259.28 
  825.99,1260.09 828.129,1260.82 830.268,1261.47 832.407,1262.05 834.546,1262.55 836.685,1262.99 838.824,1263.36 840.964,1263.66 843.103,1263.9 845.242,1264.08 
  847.381,1264.2 849.52,1264.26 851.659,1264.26 853.799,1264.2 855.938,1264.08 858.077,1263.91 860.216,1263.69 862.355,1263.41 864.494,1263.08 866.634,1262.69 
  868.773,1262.26 870.912,1261.77 873.051,1261.24 875.19,1260.66 877.329,1260.03 879.468,1259.35 881.608,1258.63 883.747,1257.86 885.886,1257.04 888.025,1256.18 
  890.164,1255.27 892.303,1254.32 894.443,1253.33 896.582,1252.29 898.721,1251.2 900.86,1250.07 902.999,1248.9 905.138,1247.69 907.277,1246.43 909.417,1245.13 
  911.556,1243.78 913.695,1242.39 915.834,1240.96 917.973,1239.49 920.112,1237.97 922.252,1236.41 924.391,1234.8 926.53,1233.15 928.669,1231.46 930.808,1229.72 
  932.947,1227.94 935.087,1226.12 937.226,1224.25 939.365,1222.34 941.504,1220.38 943.643,1218.38 945.782,1216.34 947.921,1214.25 950.061,1212.11 952.2,1209.93 
  954.339,1207.71 956.478,1205.44 958.617,1203.12 960.756,1200.76 962.896,1198.35 965.035,1195.89 967.174,1193.38 969.313,1190.83 971.452,1188.23 973.591,1185.59 
  975.731,1182.89 977.87,1180.14 980.009,1177.35 982.148,1174.5 984.287,1171.61 986.426,1168.66 988.565,1165.66 990.705,1162.61 992.844,1159.51 994.983,1156.36 
  997.122,1153.15 999.261,1149.89 1001.4,1146.57 1003.54,1143.2 1005.68,1139.78 1007.82,1136.3 1009.96,1132.76 1012.1,1129.17 1014.24,1125.51 1016.37,1121.8 
  1018.51,1118.04 1020.65,1114.21 1022.79,1110.32 1024.93,1106.38 1027.07,1102.37 1029.21,1098.3 1031.35,1094.17 1033.49,1089.97 1035.63,1085.71 1037.77,1081.39 
  1039.91,1077 1042.04,1072.55 1044.18,1068.03 1046.32,1063.45 1048.46,1058.8 1050.6,1054.07 1052.74,1049.28 1054.88,1044.42 1057.02,1039.49 1059.16,1034.49 
  1061.3,1029.42 1063.44,1024.27 1065.58,1019.06 1067.71,1013.76 1069.85,1008.4 1071.99,1002.96 1074.13,997.437 1076.27,991.842 1078.41,986.169 1080.55,980.418 
  1082.69,974.587 1084.83,968.676 1086.97,962.684 1089.11,956.611 1091.24,950.456 1093.38,944.217 1095.52,937.895 1097.66,931.489 1099.8,924.998 1101.94,918.421 
  1104.08,911.758 1106.22,905.007 1108.36,898.169 1110.5,891.243 1112.64,884.228 1114.78,877.124 1116.91,869.929 1119.05,862.644 1121.19,855.267 1123.33,847.798 
  1125.47,840.237 1127.61,832.584 1129.75,824.836 1131.89,816.994 1134.03,809.058 1136.17,801.027 1138.31,792.9 1140.45,784.677 1142.58,776.362 1144.72,767.959 
  1146.86,759.468 1149,750.885 1151.14,742.21 1153.28,733.439 1155.42,724.572 1157.56,715.608 1159.7,706.545 1161.84,697.383 1163.98,688.121 1166.12,678.76 
  1168.25,669.299 1170.39,659.739 1172.53,650.08 1174.67,640.323 1176.81,630.468 1178.95,620.518 1181.09,610.473 1183.23,600.336 1185.37,590.108 1187.51,579.792 
  1189.65,569.39 1191.79,558.904 1193.92,548.339 1196.06,537.696 1198.2,526.98 1200.34,516.194 1202.48,505.343 1204.62,494.429 1206.76,483.458 1208.9,472.435 
  1211.04,461.364 1213.18,450.25 1215.32,439.1 1217.46,427.918 1219.59,416.71 1221.73,405.483 1223.87,394.243 1226.01,382.996 1228.15,371.75 1230.29,360.512 
  1232.43,349.289 1234.57,338.088 1236.71,326.917 1238.85,315.785 1240.99,304.7 1243.13,293.67 1245.26,282.701 1247.4,271.793 1249.54,260.967 1251.68,250.245 
  1253.82,239.648 1255.96,229.201 1258.1,218.925 1260.24,208.845 1262.38,198.984 1264.52,189.365 1266.66,180.015 1268.79,170.956 1270.93,162.215 1273.07,153.817 
  1275.21,145.787 1277.35,138.151 1279.49,130.937 1281.63,124.171 1283.77,117.879 1285.91,112.09 1288.05,106.831 1290.19,102.13 1292.33,98.0161 1294.46,94.5175 
  1296.6,91.6636 1298.74,89.4837 1300.88,88.0078 1303.02,87.266 1305.16,87.2886 1307.3,88.1067 1309.44,89.7512 1311.58,92.2538 1313.72,95.6462 1315.86,99.9606 
  1318,105.23 1320.13,111.486 1322.27,118.792 1324.41,127.181 1326.55,136.634 1328.69,147.128 1330.83,158.64 1332.97,171.143 1335.11,184.608 1337.25,199.005 
  1339.39,214.301 1341.53,230.461 1343.67,247.449 1345.8,265.224 1347.94,283.747 1350.08,302.973 1352.22,322.857 1354.36,343.352 1356.5,364.407 1358.64,385.971 
  1360.78,407.989 1362.92,430.406 1365.06,453.164 1367.2,476.202 1369.34,499.457 1371.47,522.865 1373.61,546.359 1375.75,569.87 1377.89,593.328 1380.03,616.658 
  1382.17,639.786 1384.31,662.635 1386.45,685.129 1388.59,707.259 1390.73,729.003 1392.87,750.329 1395.01,771.208 1397.14,791.613 1399.28,811.522 1401.42,830.912 
  1403.56,849.767 1405.7,868.071 1407.84,885.812 1409.98,902.979 1412.12,919.567 1414.26,935.57 1416.4,950.989 1418.54,965.823 1420.68,980.078 1422.81,993.761 
  1424.95,1006.88 1427.09,1019.45 1429.23,1031.49 1431.37,1043.01 1433.51,1054.03 1435.65,1064.59 1437.79,1074.7 1439.93,1084.39 1442.07,1093.7 1444.21,1102.66 
  1446.34,1111.25 1448.48,1119.46 1450.62,1127.31 1452.76,1134.8 1454.9,1141.95 1457.04,1148.79 1459.18,1155.31 1461.32,1161.53 1463.46,1167.47 1465.6,1173.13 
  1467.74,1178.54 1469.88,1183.69 1472.01,1188.6 1474.15,1193.28 1476.29,1197.74 1478.43,1201.98 1480.57,1206.02 1482.71,1209.87 1484.85,1213.53 1486.99,1217.01 
  1489.13,1220.31 1491.27,1223.45 1493.41,1226.42 1495.55,1229.24 1497.68,1231.91 1499.82,1234.43 1501.96,1236.81 1504.1,1239.05 1506.24,1241.18 1508.38,1243.18 
  1510.52,1245.07 1512.66,1246.84 1514.8,1248.5 1516.94,1250.06 1519.08,1251.52 1521.22,1252.88 1523.35,1254.14 1525.49,1255.31 1527.63,1256.4 1529.77,1257.39 
  1531.91,1258.31 1534.05,1259.14 1536.19,1259.89 1538.33,1260.57 1540.47,1261.18 1542.61,1261.71 1544.75,1262.17 1546.89,1262.57 1549.02,1262.9 1551.16,1263.17 
  1553.3,1263.37 1555.44,1263.52 1557.58,1263.6 1559.72,1263.62 1561.86,1263.59 1564,1263.5 1566.14,1263.35 1568.28,1263.15 1570.42,1262.89 1572.56,1262.59 
  1574.69,1262.23 1576.83,1261.82 1578.97,1261.36 1581.11,1260.85 1583.25,1260.29 1585.39,1259.68 1587.53,1259.02 1589.67,1258.32 1591.81,1257.57 1593.95,1256.77 
  1596.09,1255.93 1598.22,1255.03 1600.36,1254.1 1602.5,1253.12 1604.64,1252.09 1606.78,1251.02 1608.92,1249.91 1611.06,1248.75 1613.2,1247.55 1615.34,1246.3 
  1617.48,1245.01 1619.62,1243.68 1621.76,1242.31 1623.89,1240.89 1626.03,1239.43 1628.17,1237.92 1630.31,1236.37 1632.45,1234.78 1634.59,1233.15 1636.73,1231.47 
  1638.87,1229.75 1641.01,1227.99 1643.15,1226.18 1645.29,1224.33 1647.43,1222.43 1649.56,1220.49 1651.7,1218.51 1653.84,1216.48 1655.98,1214.41 1658.12,1212.29 
  1660.26,1210.12 1662.4,1207.91 1664.54,1205.66 1666.68,1203.36 1668.82,1201.01 1670.96,1198.62 1673.1,1196.17 1675.23,1193.69 1677.37,1191.15 1679.51,1188.56 
  1681.65,1185.93 1683.79,1183.25 1685.93,1180.52 1688.07,1177.74 1690.21,1174.91 1692.35,1172.03 1694.49,1169.1 1696.63,1166.12 1698.77,1163.08 1700.9,1160 
  1703.04,1156.86 1705.18,1153.67 1707.32,1150.42 1709.46,1147.12 1711.6,1143.77 1713.74,1140.36 1715.88,1136.9 1718.02,1133.38 1720.16,1129.8 1722.3,1126.17 
  1724.44,1122.48 1726.57,1118.73 1728.71,1114.92 1730.85,1111.05 1732.99,1107.12 1735.13,1103.13 1737.27,1099.08 1739.41,1094.96 1741.55,1090.79 1743.69,1086.55 
  1745.83,1082.24 1747.97,1077.88 1750.11,1073.44 1752.24,1068.94 1754.38,1064.38 1756.52,1059.74 1758.66,1055.04 1760.8,1050.27 1762.94,1045.43 1765.08,1040.53 
  1767.22,1035.55 1769.36,1030.49 1771.5,1025.37 1773.64,1020.18 1775.77,1014.91 1777.91,1009.56 1780.05,1004.14 1782.19,998.65 1784.33,993.079 1786.47,987.431 
  1788.61,981.705 1790.75,975.9 1792.89,970.016 1795.03,964.051 1797.17,958.006 1799.31,951.878 1801.44,945.668 1803.58,939.374 1805.72,932.997 1807.86,926.535 
  1810,919.99 1812.14,913.359 1814.28,906.642 1816.42,899.837 1818.56,892.945 1820.7,885.964 1822.84,878.893 1824.98,871.731 1827.11,864.478 1829.25,857.134 
  1831.39,849.696 1833.53,842.166 1835.67,834.543 1837.81,826.825 1839.95,819.013 1842.09,811.106 1844.23,803.104 1846.37,795.007 1848.51,786.814 1850.65,778.525 
  1852.78,770.14 1854.92,761.659 1857.06,753.083 1859.2,744.41 1861.34,735.641 1863.48,726.777 1865.62,717.816 1867.76,708.761 1869.9,699.61 1872.04,690.364 
  1874.18,681.024 1876.32,671.59 1878.45,662.061 1880.59,652.44 1882.73,642.726 1884.87,632.92 1887.01,623.023 1889.15,613.035 1891.29,602.968 1893.43,592.833 
  1895.57,582.626 1897.71,572.345 1899.85,561.988 1901.99,551.554 1904.12,541.042 1906.26,530.453 1908.4,519.787 1910.54,509.046 1912.68,498.232 1914.82,487.347 
  1916.96,476.394 1919.1,465.378 1921.24,454.303 1923.38,443.174 1925.52,431.996 1927.66,420.777 1929.79,409.523 1931.93,398.242 1934.07,386.942 1936.21,375.633 
  1938.35,364.322 1940.49,353.022 1942.63,341.742 1944.77,330.495 1946.91,319.291 1949.05,308.144 1951.19,297.067 1953.32,286.074 1955.46,275.18 1957.6,264.399 
  1959.74,253.748 1961.88,243.243 1964.02,232.901 1966.16,222.74 1968.3,212.779 1970.44,203.035 1972.58,193.529 1974.72,184.281 1976.86,175.311 1978.99,166.642 
  1981.13,158.295 1983.27,150.294 1985.41,142.661 1987.55,135.42 1989.69,128.597 1991.83,122.215 1993.97,116.303 1996.11,110.884 1998.25,105.987 2000.39,101.641 
  2002.53,97.891 2004.66,94.7822 2006.8,92.3563 2008.94,90.6522 2011.08,89.7062 2013.22,89.552 2015.36,90.2206 2017.5,91.7401 2019.64,94.136 2021.78,97.4311 
  2023.92,101.646 2026.06,106.797 2028.2,112.899 2030.33,119.965 2032.47,128.003 2034.61,137.02 2036.75,147.02 2038.89,158.005 2041.03,169.971 2043.17,182.916 
  2045.31,196.832 2047.45,211.709 2049.59,227.546 2051.73,244.314 2053.87,261.953 2056,280.402 2058.14,299.601 2060.28,319.49 2062.42,340.006 2064.56,361.09 
  2066.7,382.68 2068.84,404.714 2070.98,427.133 2073.12,449.872 2075.26,472.872 2077.4,496.069 2079.54,519.402 2081.67,542.808 2083.81,566.225 2085.95,589.59 
  2088.09,612.84 2090.23,635.912 2092.37,658.744 2094.51,681.271 2096.65,703.43 2098.79,725.181 2100.93,746.508 2103.07,767.385 2105.21,787.789 2107.34,807.697 
  2109.48,827.093 2111.62,845.958 2113.76,864.281 2115.9,882.049 2118.04,899.255 2120.18,915.891 2122.32,931.955 2124.46,947.446 2126.6,962.364 2128.74,976.715 
  2130.87,990.504 2133.01,1003.74 2135.15,1016.43 2137.29,1028.6 2139.43,1040.26 2141.57,1051.43 2143.71,1062.12 2145.85,1072.37 2147.99,1082.21 2150.13,1091.65 
  2152.27,1100.71 2154.41,1109.37 2156.54,1117.64 2158.68,1125.55 2160.82,1133.11 2162.96,1140.32 2165.1,1147.21 2167.24,1153.79 2169.38,1160.07 2171.52,1166.06 
  2173.66,1171.78 2175.8,1177.23 2177.94,1182.42 2180.08,1187.38 2182.21,1192.1 2184.35,1196.59 2186.49,1200.88 2188.63,1204.95 2190.77,1208.83 2192.91,1212.51 
  2195.05,1216.02 2197.19,1219.34 2199.33,1222.49 2201.47,1225.48 2203.61,1228.32 2205.75,1231 2207.88,1233.55 2210.02,1235.96 2212.16,1238.23 2214.3,1240.38 
  2216.44,1242.4 2218.58,1244.31 2220.72,1246.1 2222.86,1247.79 2225,1249.36 2227.14,1250.84 2229.28,1252.22 2231.42,1253.5 2233.55,1254.69 2235.69,1255.79 
  2237.83,1256.8 2239.97,1257.73 2242.11,1258.58 2244.25,1259.35 2246.39,1260.05 2248.53,1260.67 2250.67,1261.23 2252.81,1261.71 2254.95,1262.12 2257.09,1262.46 
  2259.22,1262.74 2261.36,1262.96 2263.5,1263.11 2265.64,1263.21 2267.78,1263.24 2269.92,1263.22 2272.06,1263.14 2274.2,1263 2276.34,1262.81 2278.48,1262.57 
  2280.62,1262.27 2282.76,1261.92 2284.89,1261.51 2287.03,1261.06 2289.17,1260.56 2291.31,1260 2293.45,1259.4 2295.59,1258.75 2297.73,1258.06 2299.87,1257.31 
  2302.01,1256.52 2304.15,1255.68 2306.29,1254.8 2308.42,1253.87 2310.56,1252.9 2312.7,1251.88 2314.84,1250.82 2316.98,1249.72 2319.12,1248.57 2321.26,1247.37 
  
  "/>
<polyline clip-path="url(#clip0302)" style="stroke:#e26f46; stroke-width:12; stroke-opacity:1; fill:none" points="
  184.243,1254.05 186.382,1257.97 188.521,1261.8 190.66,1265.54 192.799,1269.2 194.938,1272.77 197.078,1276.27 199.217,1279.68 201.356,1283.02 203.495,1286.29 
  205.634,1289.47 207.773,1292.59 209.913,1295.63 212.052,1298.61 214.191,1301.51 216.33,1304.35 218.469,1307.12 220.608,1309.83 222.747,1312.48 224.887,1315.06 
  227.026,1317.59 229.165,1320.05 231.304,1322.46 233.443,1324.81 235.582,1327.11 237.722,1329.35 239.861,1331.54 242,1333.67 244.139,1335.76 246.278,1337.79 
  248.417,1339.78 250.557,1341.72 252.696,1343.62 254.835,1345.46 256.974,1347.27 259.113,1349.03 261.252,1350.75 263.391,1352.42 265.531,1354.06 267.67,1355.65 
  269.809,1357.21 271.948,1358.73 274.087,1360.21 276.226,1361.65 278.366,1363.06 280.505,1364.43 282.644,1365.77 284.783,1367.07 286.922,1368.34 289.061,1369.58 
  291.2,1370.79 293.34,1371.96 295.479,1373.11 297.618,1374.22 299.757,1375.31 301.896,1376.37 304.035,1377.4 306.175,1378.4 308.314,1379.37 310.453,1380.32 
  312.592,1381.24 314.731,1382.14 316.87,1383.01 319.01,1383.86 321.149,1384.68 323.288,1385.48 325.427,1386.26 327.566,1387.01 329.705,1387.74 331.844,1388.45 
  333.984,1389.13 336.123,1389.8 338.262,1390.44 340.401,1391.06 342.54,1391.66 344.679,1392.24 346.819,1392.8 348.958,1393.35 351.097,1393.87 353.236,1394.37 
  355.375,1394.85 357.514,1395.32 359.653,1395.76 361.793,1396.19 363.932,1396.6 366.071,1396.99 368.21,1397.36 370.349,1397.71 372.488,1398.05 374.628,1398.36 
  376.767,1398.66 378.906,1398.95 381.045,1399.21 383.184,1399.46 385.323,1399.69 387.463,1399.9 389.602,1400.09 391.741,1400.27 393.88,1400.43 396.019,1400.57 
  398.158,1400.69 400.297,1400.8 402.437,1400.89 404.576,1400.95 406.715,1401 408.854,1401.04 410.993,1401.05 413.132,1401.05 415.272,1401.02 417.411,1400.98 
  419.55,1400.92 421.689,1400.83 423.828,1400.73 425.967,1400.61 428.106,1400.46 430.246,1400.29 432.385,1400.11 434.524,1399.89 436.663,1399.66 438.802,1399.4 
  440.941,1399.12 443.081,1398.81 445.22,1398.48 447.359,1398.12 449.498,1397.73 451.637,1397.32 453.776,1396.87 455.916,1396.4 458.055,1395.89 460.194,1395.35 
  462.333,1394.78 464.472,1394.17 466.611,1393.53 468.75,1392.85 470.89,1392.13 473.029,1391.38 475.168,1390.58 477.307,1389.75 479.446,1388.87 481.585,1387.95 
  483.725,1386.98 485.864,1385.96 488.003,1384.89 490.142,1383.77 492.281,1382.59 494.42,1381.36 496.559,1380.06 498.699,1378.7 500.838,1377.27 502.977,1375.77 
  505.116,1374.19 507.255,1372.53 509.394,1370.8 511.534,1368.97 513.673,1367.06 515.812,1365.05 517.951,1362.94 520.09,1360.73 522.229,1358.41 524.369,1355.98 
  526.508,1353.42 528.647,1350.74 530.786,1347.94 532.925,1345.01 535.064,1341.95 537.203,1338.74 539.343,1335.39 541.482,1331.86 543.621,1328.16 545.76,1324.27 
  547.899,1320.17 550.038,1315.87 552.178,1311.33 554.317,1306.56 556.456,1301.54 558.595,1296.26 560.734,1290.71 562.873,1284.88 565.012,1278.75 567.152,1272.33 
  569.291,1265.59 571.43,1258.52 573.569,1251.13 575.708,1243.39 577.847,1235.3 579.987,1226.84 582.126,1218.01 584.265,1208.8 586.404,1199.2 588.543,1189.19 
  590.682,1178.78 592.822,1167.95 594.961,1156.69 597.1,1144.99 599.239,1132.85 601.378,1120.26 603.517,1107.2 605.656,1093.68 607.796,1079.67 609.935,1065.18 
  612.074,1050.16 614.213,1034.66 616.352,1018.71 618.491,1002.35 620.631,985.634 622.77,968.602 624.909,951.3 627.048,933.773 629.187,916.067 631.326,898.231 
  633.465,880.311 635.605,862.358 637.744,844.419 639.883,826.546 642.022,808.788 644.161,791.199 646.3,773.829 648.44,756.733 650.579,739.963 652.718,723.574 
  654.857,707.622 656.996,692.161 659.135,677.25 661.275,662.945 663.414,649.304 665.553,636.385 667.692,624.25 669.831,612.936 671.97,602.449 674.109,592.814 
  676.249,584.052 678.388,576.183 680.527,569.219 682.666,563.17 684.805,558.043 686.944,553.84 689.084,550.557 691.223,548.19 693.362,546.726 695.501,546.153 
  697.64,546.451 699.779,547.598 701.918,549.568 704.058,552.329 706.197,555.847 708.336,560.084 710.475,564.996 712.614,570.537 714.753,576.656 716.893,583.298 
  719.032,590.403 721.171,597.909 723.31,605.806 725.449,614.105 727.588,622.773 729.728,631.779 731.867,641.09 734.006,650.678 736.145,660.513 738.284,670.569 
  740.423,680.818 742.562,691.237 744.702,701.8 746.841,712.486 748.98,723.273 751.119,734.14 753.258,745.068 755.397,756.04 757.537,767.037 759.676,778.046 
  761.815,789.05 763.954,800.038 766.093,810.996 768.232,821.913 770.371,832.781 772.511,843.588 774.65,854.318 776.789,864.964 778.928,875.519 781.067,885.979 
  783.206,896.337 785.346,906.589 787.485,916.729 789.624,926.754 791.763,936.658 793.902,946.439 796.041,956.092 798.181,965.615 800.32,975.005 802.459,984.259 
  804.598,993.375 806.737,1002.35 808.876,1011.19 811.015,1019.88 813.155,1028.43 815.294,1036.83 817.433,1045.1 819.572,1053.21 821.711,1061.19 823.85,1069.02 
  825.99,1076.71 828.129,1084.25 830.268,1091.67 832.407,1098.94 834.546,1106.08 836.685,1113.08 838.824,1119.95 840.964,1126.68 843.103,1133.28 845.242,1139.75 
  847.381,1146.1 849.52,1152.31 851.659,1158.4 853.799,1164.37 855.938,1170.21 858.077,1175.93 860.216,1181.54 862.355,1187.02 864.494,1192.4 866.634,1197.65 
  868.773,1202.8 870.912,1207.84 873.051,1212.76 875.19,1217.59 877.329,1222.3 879.468,1226.92 881.608,1231.43 883.747,1235.85 885.886,1240.17 888.025,1244.39 
  890.164,1248.52 892.303,1252.55 894.443,1256.5 896.582,1260.36 898.721,1264.13 900.86,1267.82 902.999,1271.43 905.138,1274.95 907.277,1278.4 909.417,1281.76 
  911.556,1285.05 913.695,1288.27 915.834,1291.41 917.973,1294.48 920.112,1297.48 922.252,1300.41 924.391,1303.27 926.53,1306.07 928.669,1308.8 930.808,1311.47 
  932.947,1314.08 935.087,1316.63 937.226,1319.11 939.365,1321.54 941.504,1323.91 943.643,1326.23 945.782,1328.49 947.921,1330.7 950.061,1332.86 952.2,1334.96 
  954.339,1337.02 956.478,1339.03 958.617,1340.99 960.756,1342.9 962.896,1344.76 965.035,1346.58 967.174,1348.36 969.313,1350.1 971.452,1351.79 973.591,1353.44 
  975.731,1355.05 977.87,1356.62 980.009,1358.15 982.148,1359.64 984.287,1361.1 986.426,1362.52 988.565,1363.9 990.705,1365.25 992.844,1366.56 994.983,1367.85 
  997.122,1369.1 999.261,1370.31 1001.4,1371.5 1003.54,1372.65 1005.68,1373.78 1007.82,1374.88 1009.96,1375.94 1012.1,1376.98 1014.24,1377.99 1016.37,1378.98 
  1018.51,1379.94 1020.65,1380.87 1022.79,1381.77 1024.93,1382.65 1027.07,1383.51 1029.21,1384.34 1031.35,1385.15 1033.49,1385.94 1035.63,1386.7 1037.77,1387.44 
  1039.91,1388.15 1042.04,1388.85 1044.18,1389.52 1046.32,1390.17 1048.46,1390.8 1050.6,1391.41 1052.74,1392 1054.88,1392.57 1057.02,1393.12 1059.16,1393.65 
  1061.3,1394.16 1063.44,1394.65 1065.58,1395.12 1067.71,1395.57 1069.85,1396 1071.99,1396.42 1074.13,1396.81 1076.27,1397.19 1078.41,1397.55 1080.55,1397.89 
  1082.69,1398.21 1084.83,1398.52 1086.97,1398.81 1089.11,1399.08 1091.24,1399.33 1093.38,1399.57 1095.52,1399.79 1097.66,1399.99 1099.8,1400.17 1101.94,1400.34 
  1104.08,1400.49 1106.22,1400.62 1108.36,1400.73 1110.5,1400.82 1112.64,1400.9 1114.78,1400.96 1116.91,1401 1119.05,1401.02 1121.19,1401.02 1123.33,1401 
  1125.47,1400.96 1127.61,1400.91 1129.75,1400.83 1131.89,1400.73 1134.03,1400.61 1136.17,1400.48 1138.31,1400.32 1140.45,1400.13 1142.58,1399.93 1144.72,1399.69 
  1146.86,1399.43 1149,1399.14 1151.14,1398.82 1153.28,1398.48 1155.42,1398.1 1157.56,1397.71 1159.7,1397.28 1161.84,1396.83 1163.98,1396.35 1166.12,1395.84 
  1168.25,1395.31 1170.39,1394.74 1172.53,1394.15 1174.67,1393.52 1176.81,1392.86 1178.95,1392.16 1181.09,1391.43 1183.23,1390.66 1185.37,1389.85 1187.51,1389 
  1189.65,1388.11 1191.79,1387.17 1193.92,1386.19 1196.06,1385.15 1198.2,1384.06 1200.34,1382.92 1202.48,1381.71 1204.62,1380.45 1206.76,1379.12 1208.9,1377.72 
  1211.04,1376.25 1213.18,1374.71 1215.32,1373.09 1217.46,1371.38 1219.59,1369.59 1221.73,1367.71 1223.87,1365.73 1226.01,1363.66 1228.15,1361.48 1230.29,1359.19 
  1232.43,1356.79 1234.57,1354.27 1236.71,1351.62 1238.85,1348.85 1240.99,1345.95 1243.13,1342.9 1245.26,1339.72 1247.4,1336.4 1249.54,1332.92 1251.68,1329.28 
  1253.82,1325.47 1255.96,1321.46 1258.1,1317.24 1260.24,1312.81 1262.38,1308.14 1264.52,1303.23 1266.66,1298.07 1268.79,1292.63 1270.93,1286.92 1273.07,1280.91 
  1275.21,1274.6 1277.35,1267.98 1279.49,1261.04 1281.63,1253.76 1283.77,1246.13 1285.91,1238.15 1288.05,1229.81 1290.19,1221.09 1292.33,1212 1294.46,1202.51 
  1296.6,1192.62 1298.74,1182.33 1300.88,1171.62 1303.02,1160.49 1305.16,1148.94 1307.3,1136.94 1309.44,1124.5 1311.58,1111.61 1313.72,1098.27 1315.86,1084.47 
  1318,1070.19 1320.13,1055.45 1322.27,1040.19 1324.41,1024.39 1326.55,1008.13 1328.69,991.453 1330.83,974.419 1332.97,957.085 1335.11,939.507 1337.25,921.741 
  1339.39,903.841 1341.53,885.861 1343.67,867.857 1345.8,849.879 1347.94,831.982 1350.08,814.217 1352.22,796.636 1354.36,779.29 1356.5,762.229 1358.64,745.502 
  1360.78,729.159 1362.92,713.249 1365.06,697.819 1367.2,682.917 1369.34,668.591 1371.47,654.885 1373.61,641.847 1375.75,629.521 1377.89,617.952 1380.03,607.183 
  1382.17,597.259 1384.31,588.223 1386.45,580.113 1388.59,572.93 1390.73,566.663 1392.87,561.31 1395.01,556.863 1397.14,553.313 1399.28,550.649 1401.42,548.859 
  1403.56,547.927 1405.7,547.835 1407.84,548.565 1409.98,550.096 1412.12,552.403 1414.26,555.461 1416.4,559.243 1418.54,563.718 1420.68,568.856 1422.81,574.622 
  1424.95,580.98 1427.09,587.893 1429.23,595.319 1431.37,603.217 1433.51,611.542 1435.65,620.249 1437.79,629.288 1439.93,638.61 1442.07,648.16 1444.21,657.887 
  1446.34,667.806 1448.48,677.924 1450.62,688.217 1452.76,698.664 1454.9,709.242 1457.04,719.93 1459.18,730.71 1461.32,741.561 1463.46,752.466 1465.6,763.408 
  1467.74,774.37 1469.88,785.337 1472.01,796.295 1474.15,807.231 1476.29,818.13 1478.43,828.982 1480.57,839.776 1482.71,850.502 1484.85,861.151 1486.99,871.714 
  1489.13,882.185 1491.27,892.556 1493.41,902.824 1495.55,912.982 1497.68,923.027 1499.82,932.957 1501.96,942.766 1504.1,952.447 1506.24,961.996 1508.38,971.412 
  1510.52,980.693 1512.66,989.838 1514.8,998.846 1516.94,1007.72 1519.08,1016.45 1521.22,1025.04 1523.35,1033.49 1525.49,1041.8 1527.63,1049.96 1529.77,1057.99 
  1531.91,1065.88 1534.05,1073.62 1536.19,1081.23 1538.33,1088.69 1540.47,1096.01 1542.61,1103.2 1544.75,1110.25 1546.89,1117.16 1549.02,1123.94 1551.16,1130.58 
  1553.3,1137.1 1555.44,1143.48 1557.58,1149.73 1559.72,1155.86 1561.86,1161.86 1564,1167.75 1566.14,1173.51 1568.28,1179.16 1570.42,1184.68 1572.56,1190.09 
  1574.69,1195.39 1576.83,1200.57 1578.97,1205.65 1581.11,1210.61 1583.25,1215.47 1585.39,1220.23 1587.53,1224.88 1589.67,1229.43 1591.81,1233.89 1593.95,1238.24 
  1596.09,1242.5 1598.22,1246.67 1600.36,1250.74 1602.5,1254.72 1604.64,1258.62 1606.78,1262.43 1608.92,1266.15 1611.06,1269.79 1613.2,1273.34 1615.34,1276.82 
  1617.48,1280.22 1619.62,1283.54 1621.76,1286.78 1623.89,1289.95 1626.03,1293.05 1628.17,1296.07 1630.31,1299.03 1632.45,1301.92 1634.59,1304.74 1636.73,1307.5 
  1638.87,1310.19 1641.01,1312.82 1643.15,1315.39 1645.29,1317.9 1647.43,1320.35 1649.56,1322.74 1651.7,1325.08 1653.84,1327.36 1655.98,1329.59 1658.12,1331.77 
  1660.26,1333.89 1662.4,1335.96 1664.54,1337.99 1666.68,1339.96 1668.82,1341.89 1670.96,1343.78 1673.1,1345.61 1675.23,1347.41 1677.37,1349.16 1679.51,1350.87 
  1681.65,1352.53 1683.79,1354.16 1685.93,1355.75 1688.07,1357.3 1690.21,1358.81 1692.35,1360.28 1694.49,1361.72 1696.63,1363.12 1698.77,1364.48 1700.9,1365.81 
  1703.04,1367.11 1705.18,1368.38 1707.32,1369.61 1709.46,1370.81 1711.6,1371.98 1713.74,1373.12 1715.88,1374.23 1718.02,1375.31 1720.16,1376.36 1722.3,1377.38 
  1724.44,1378.38 1726.57,1379.35 1728.71,1380.29 1730.85,1381.2 1732.99,1382.09 1735.13,1382.96 1737.27,1383.8 1739.41,1384.61 1741.55,1385.41 1743.69,1386.17 
  1745.83,1386.92 1747.97,1387.64 1750.11,1388.34 1752.24,1389.02 1754.38,1389.68 1756.52,1390.32 1758.66,1390.94 1760.8,1391.53 1762.94,1392.11 1765.08,1392.66 
  1767.22,1393.2 1769.36,1393.71 1771.5,1394.21 1773.64,1394.69 1775.77,1395.15 1777.91,1395.59 1780.05,1396.01 1782.19,1396.41 1784.33,1396.8 1786.47,1397.16 
  1788.61,1397.51 1790.75,1397.84 1792.89,1398.16 1795.03,1398.45 1797.17,1398.73 1799.31,1398.99 1801.44,1399.23 1803.58,1399.45 1805.72,1399.66 1807.86,1399.85 
  1810,1400.02 1812.14,1400.17 1814.28,1400.3 1816.42,1400.41 1818.56,1400.51 1820.7,1400.59 1822.84,1400.65 1824.98,1400.69 1827.11,1400.72 1829.25,1400.72 
  1831.39,1400.71 1833.53,1400.67 1835.67,1400.62 1837.81,1400.55 1839.95,1400.46 1842.09,1400.35 1844.23,1400.22 1846.37,1400.06 1848.51,1399.89 1850.65,1399.69 
  1852.78,1399.47 1854.92,1399.23 1857.06,1398.96 1859.2,1398.67 1861.34,1398.35 1863.48,1398 1865.62,1397.63 1867.76,1397.23 1869.9,1396.81 1872.04,1396.35 
  1874.18,1395.86 1876.32,1395.34 1878.45,1394.79 1880.59,1394.21 1882.73,1393.59 1884.87,1392.93 1887.01,1392.24 1889.15,1391.51 1891.29,1390.74 1893.43,1389.91 
  1895.57,1389.03 1897.71,1388.11 1899.85,1387.13 1901.99,1386.11 1904.12,1385.03 1906.26,1383.9 1908.4,1382.71 1910.54,1381.47 1912.68,1380.17 1914.82,1378.82 
  1916.96,1377.4 1919.1,1375.91 1921.24,1374.36 1923.38,1372.73 1925.52,1371.03 1927.66,1369.25 1929.79,1367.39 1931.93,1365.43 1934.07,1363.39 1936.21,1361.25 
  1938.35,1359 1940.49,1356.64 1942.63,1354.17 1944.77,1351.58 1946.91,1348.86 1949.05,1346 1951.19,1343 1953.32,1339.85 1955.46,1336.55 1957.6,1333.08 
  1959.74,1329.43 1961.88,1325.6 1964.02,1321.58 1966.16,1317.36 1968.3,1312.93 1970.44,1308.28 1972.58,1303.4 1974.72,1298.29 1976.86,1292.91 1978.99,1287.28 
  1981.13,1281.38 1983.27,1275.19 1985.41,1268.7 1987.55,1261.9 1989.69,1254.79 1991.83,1247.34 1993.97,1239.54 1996.11,1231.39 1998.25,1222.86 2000.39,1213.96 
  2002.53,1204.66 2004.66,1194.94 2006.8,1184.8 2008.94,1174.23 2011.08,1163.2 2013.22,1151.72 2015.36,1139.78 2017.5,1127.39 2019.64,1114.53 2021.78,1101.21 
  2023.92,1087.45 2026.06,1073.24 2028.2,1058.6 2030.33,1043.54 2032.47,1028.08 2034.61,1012.24 2036.75,996.035 2038.89,979.49 2041.03,962.631 2043.17,945.487 
  2045.31,928.088 2047.45,910.47 2049.59,892.659 2051.73,874.708 2053.87,856.69 2056,838.675 2058.14,820.732 2060.28,802.928 2062.42,785.328 2064.56,767.992 
  2066.7,750.982 2068.84,734.356 2070.98,718.168 2073.12,702.473 2075.26,687.323 2077.4,672.765 2079.54,658.849 2081.67,645.618 2083.81,633.115 2085.95,621.381 
  2088.09,610.455 2090.23,600.373 2092.37,591.168 2094.51,582.874 2096.65,575.519 2098.79,569.113 2100.93,563.638 2103.07,559.082 2105.21,555.431 2107.34,552.671 
  2109.48,550.785 2111.62,549.755 2113.76,549.561 2115.9,550.182 2118.04,551.594 2120.18,553.773 2122.32,556.692 2124.46,560.323 2126.6,564.637 2128.74,569.602 
  2130.87,575.186 2133.01,581.354 2135.15,588.069 2137.29,595.293 2139.43,602.988 2141.57,611.113 2143.71,619.623 2145.85,628.476 2147.99,637.625 2150.13,647.022 
  2152.27,656.646 2154.41,666.505 2156.54,676.571 2158.68,686.82 2160.82,697.229 2162.96,707.775 2165.1,718.436 2167.24,729.192 2169.38,740.022 2171.52,750.909 
  2173.66,761.835 2175.8,772.782 2177.94,783.736 2180.08,794.682 2182.21,805.606 2184.35,816.495 2186.49,827.339 2188.63,838.125 2190.77,848.846 2192.91,859.491 
  2195.05,870.054 2197.19,880.528 2199.33,890.907 2201.47,901.187 2203.61,911.358 2205.75,921.414 2207.88,931.35 2210.02,941.163 2212.16,950.852 2214.3,960.412 
  2216.44,969.842 2218.58,979.139 2220.72,988.302 2222.86,997.328 2225,1006.22 2227.14,1014.97 2229.28,1023.57 2231.42,1032.04 2233.55,1040.37 2235.69,1048.55 
  2237.83,1056.59 2239.97,1064.49 2242.11,1072.25 2244.25,1079.87 2246.39,1087.34 2248.53,1094.68 2250.67,1101.88 2252.81,1108.94 2254.95,1115.87 2257.09,1122.66 
  2259.22,1129.33 2261.36,1135.86 2263.5,1142.26 2265.64,1148.54 2267.78,1154.69 2269.92,1160.71 2272.06,1166.62 2274.2,1172.4 2276.34,1178.06 2278.48,1183.6 
  2280.62,1189.03 2282.76,1194.35 2284.89,1199.55 2287.03,1204.64 2289.17,1209.63 2291.31,1214.51 2293.45,1219.28 2295.59,1223.95 2297.73,1228.52 2299.87,1232.98 
  2302.01,1237.35 2304.15,1241.63 2306.29,1245.81 2308.42,1249.89 2310.56,1253.89 2312.7,1257.8 2314.84,1261.62 2316.98,1265.35 2319.12,1269 2321.26,1272.57 
  
  "/>
<polygon clip-path="url(#clip0300)" points="
1870.15,312.204 2249.26,312.204 2249.26,130.764 1870.15,130.764 
  " fill="#ffffff" fill-rule="evenodd" fill-opacity="1"/>
<polyline clip-path="url(#clip0300)" style="stroke:#000000; stroke-width:4; stroke-opacity:1; fill:none" points="
  1870.15,312.204 2249.26,312.204 2249.26,130.764 1870.15,130.764 1870.15,312.204 
  "/>
<polyline clip-path="url(#clip0300)" style="stroke:#009af9; stroke-width:12; stroke-opacity:1; fill:none" points="
  1894.15,191.244 2038.15,191.244 
  "/>
<g clip-path="url(#clip0300)">
<text style="fill:#000000; fill-opacity:1; font-family:Arial,Helvetica Neue,Helvetica,sans-serif; font-size:48px; text-anchor:start;" transform="rotate(0, 2062.15, 208.744)" x="2062.15" y="208.744">Rabbit</text>
</g>
<polyline clip-path="url(#clip0300)" style="stroke:#e26f46; stroke-width:12; stroke-opacity:1; fill:none" points="
  1894.15,251.724 2038.15,251.724 
  "/>
<g clip-path="url(#clip0300)">
<text style="fill:#000000; fill-opacity:1; font-family:Arial,Helvetica Neue,Helvetica,sans-serif; font-size:48px; text-anchor:start;" transform="rotate(0, 2062.15, 269.224)" x="2062.15" y="269.224">Fox</text>
</g>
</svg>
