<?xml version="1.0" encoding="UTF-8" standalone="no"?>
<!-- Created with Inkscape (http://www.inkscape.org/) -->

<svg
   xmlns:dc="http://purl.org/dc/elements/1.1/"
   xmlns:cc="http://creativecommons.org/ns#"
   xmlns:rdf="http://www.w3.org/1999/02/22-rdf-syntax-ns#"
   xmlns:svg="http://www.w3.org/2000/svg"
   xmlns="http://www.w3.org/2000/svg"
   xmlns:sodipodi="http://sodipodi.sourceforge.net/DTD/sodipodi-0.dtd"
   xmlns:inkscape="http://www.inkscape.org/namespaces/inkscape"
   width="15.078083mm"
   height="23.658226mm"
   viewBox="0 0 53.426279 83.828359"
   id="svg2"
   version="1.1"
   inkscape:version="0.91 r13725"
   sodipodi:docname="pint10.svg">
  <defs
     id="defs4" />
  <sodipodi:namedview
     id="base"
     pagecolor="#ffffff"
     bordercolor="#666666"
     borderopacity="1.0"
     inkscape:pageopacity="0.0"
     inkscape:pageshadow="2"
     inkscape:zoom="4"
     inkscape:cx="95.267529"
     inkscape:cy="6.1932442"
     inkscape:document-units="px"
     inkscape:current-layer="layer1"
     showgrid="false"
     inkscape:window-width="1920"
     inkscape:window-height="1026"
     inkscape:window-x="1920"
     inkscape:window-y="0"
     inkscape:window-maximized="1"
     fit-margin-top="0"
     fit-margin-left="0"
     fit-margin-right="0"
     fit-margin-bottom="0" />
  <metadata
     id="metadata7">
    <rdf:RDF>
      <cc:Work
         rdf:about="">
        <dc:format>image/svg+xml</dc:format>
        <dc:type
           rdf:resource="http://purl.org/dc/dcmitype/StillImage" />
        <dc:title></dc:title>
      </cc:Work>
    </rdf:RDF>
  </metadata>
  <g
     inkscape:label="Layer 1"
     inkscape:groupmode="layer"
     id="layer1"
     transform="translate(-323.1719,-458.52221)">
    <path
       inkscape:connector-curvature="0"
       id="path66"
       style="fill:#ffffff;fill-opacity:1;fill-rule:nonzero;stroke:none"
       d="m 353.6291,461.03742 22.05962,60.81695 c 0.30152,0.83166 -0.1948,1.73771 -1.0574,1.93335 -20.31175,4.60825 -33.16663,8.60357 -37.43591,9.99645 -0.83445,0.27194 -1.71408,-0.25822 -1.86709,-1.12299 l -11.29349,-63.63743 c -0.18933,-1.06746 0.31293,-2.13764 1.25838,-2.66717 3.82666,-2.14252 14.19955,-7.23494 25.98934,-7.00296 1.05376,0.0206 1.98688,0.69279 2.34654,1.68375" />
    <g
       id="g68"
       transform="matrix(-0.47989246,0.1285868,0.1285868,0.47989246,353.6291,461.03742)"
       style="stroke:#4d4d4d">
      <path
         d="m 0,0 -11.206,129.733 c -0.153,1.774 1.284,3.277 3.063,3.208 41.891,-1.622 68.965,-0.551 77.991,-0.067 1.764,0.094 3.198,-1.395 3.045,-3.156 L 61.698,0.11 C 61.51,-2.064 59.976,-3.883 57.862,-4.42 49.306,-6.592 26.486,-11.089 3.685,-4.496 1.647,-3.907 0.183,-2.114 0,0 Z"
         style="fill:none;stroke:#4d4d4d;stroke-width:3.31599998;stroke-linecap:butt;stroke-linejoin:miter;stroke-miterlimit:10;stroke-dasharray:none;stroke-opacity:1"
         id="path70"
         inkscape:connector-curvature="0" />
    </g>
    <g
       id="g88"
       transform="matrix(-0.47989246,0.1285868,0.1285868,0.47989246,370.48293,507.50221)"
       style="fill:#4d4d4d;fill-opacity:1;stroke:#4d4d4d;stroke-opacity:1">
      <path
         d="M 0,0 C 0,0 40.908,-3.777 78.876,0"
         style="fill:#4d4d4d;fill-opacity:1;stroke:#4d4d4d;stroke-width:3.31599998;stroke-linecap:butt;stroke-linejoin:miter;stroke-miterlimit:10;stroke-dasharray:none;stroke-opacity:1"
         id="path90"
         inkscape:connector-curvature="0" />
    </g>
    <g
       id="g92"
       transform="matrix(-0.47989246,0.1285868,0.1285868,0.47989246,338.95142,530.47436)">
      <path
         d="M 0,0 -8.039,-93.073"
         style="fill:#f1e0c2;fill-opacity:1;fill-rule:nonzero;stroke:none"
         id="path94"
         inkscape:connector-curvature="0" />
    </g>
    <g
       id="g100"
       transform="matrix(-0.47989246,0.1285868,0.1285868,0.47989246,341.77222,528.99773)">
      <path
         d="M 0,0 -5.309,-67.828"
         style="fill:#f1e0c2;fill-opacity:1;fill-rule:nonzero;stroke:none"
         id="path102"
         inkscape:connector-curvature="0" />
    </g>
    <g
       id="g108"
       transform="matrix(-0.47989246,0.1285868,0.1285868,0.47989246,357.02849,502.19318)">
      <path
         d="m 0,0 -1.9,-78.206 -9.143,77.693 C -11.4,2.526 -9.226,5.28 -6.187,5.638 -3.148,5.995 -0.394,3.821 -0.036,0.782 -0.007,0.53 0.004,0.247 0,0"
         style="fill:#f7ecda;fill-opacity:1;fill-rule:nonzero;stroke:none"
         id="path110"
         inkscape:connector-curvature="0" />
    </g>
    <path
       style="fill:#e0a328;fill-opacity:1;fill-rule:evenodd;stroke:none;stroke-width:1px;stroke-linecap:butt;stroke-linejoin:miter;stroke-opacity:1"
       d="m 341.64326,533.44328 c 0,0 -3.24726,4.2795 -2.75,6.125 0.49726,1.8455 2.27599,2.90207 3.86244,2.77145 1.58644,-0.13063 3.29003,-1.41496 3.38756,-3.39645 0.0975,-1.98149 -4.5,-5.5 -4.5,-5.5 z"
       id="path3374"
       inkscape:connector-curvature="0"
       sodipodi:nodetypes="czzzc" />
  </g>
</svg>
