<?xml version="1.0" encoding="UTF-8" standalone="no"?>
<!-- Created with Inkscape (http://www.inkscape.org/) -->

<svg
   xmlns:dc="http://purl.org/dc/elements/1.1/"
   xmlns:cc="http://creativecommons.org/ns#"
   xmlns:rdf="http://www.w3.org/1999/02/22-rdf-syntax-ns#"
   xmlns:svg="http://www.w3.org/2000/svg"
   xmlns="http://www.w3.org/2000/svg"
   xmlns:sodipodi="http://sodipodi.sourceforge.net/DTD/sodipodi-0.dtd"
   xmlns:inkscape="http://www.inkscape.org/namespaces/inkscape"
   width="12.76546mm"
   height="24.332907mm"
   viewBox="0 0 45.231945 86.21896"
   id="svg2"
   version="1.1"
   inkscape:version="0.91 r13725"
   sodipodi:docname="pint4.svg">
  <defs
     id="defs4" />
  <sodipodi:namedview
     id="base"
     pagecolor="#ffffff"
     bordercolor="#666666"
     borderopacity="1.0"
     inkscape:pageopacity="0.0"
     inkscape:pageshadow="2"
     inkscape:zoom="16"
     inkscape:cx="19.051686"
     inkscape:cy="53.402152"
     inkscape:document-units="px"
     inkscape:current-layer="layer1"
     showgrid="false"
     inkscape:window-width="2560"
     inkscape:window-height="1386"
     inkscape:window-x="0"
     inkscape:window-y="0"
     inkscape:window-maximized="1"
     fit-margin-top="0"
     fit-margin-left="0"
     fit-margin-right="0"
     fit-margin-bottom="0" />
  <metadata
     id="metadata7">
    <rdf:RDF>
      <cc:Work
         rdf:about="">
        <dc:format>image/svg+xml</dc:format>
        <dc:type
           rdf:resource="http://purl.org/dc/dcmitype/StillImage" />
        <dc:title></dc:title>
      </cc:Work>
    </rdf:RDF>
  </metadata>
  <g
     inkscape:label="Layer 1"
     inkscape:groupmode="layer"
     id="layer1"
     transform="translate(-325.14326,-444.59932)">
    <path
       inkscape:connector-curvature="0"
       id="path66"
       style="fill:#ffffff;fill-opacity:1;fill-rule:nonzero;stroke:none"
       d="m 331.53972,526.04204 -5.56737,-64.45411 c -0.076,-0.88136 0.63791,-1.62808 1.52176,-1.5938 20.81234,0.80584 34.26327,0.27375 38.74758,0.0333 0.8764,-0.0467 1.58884,0.69306 1.51282,1.56796 l -5.56191,64.39201 c -0.0934,1.08009 -0.85553,1.98381 -1.90581,2.2506 -4.2508,1.0791 -15.58826,3.3133 -26.91628,0.0378 -1.01252,-0.29263 -1.73987,-1.18343 -1.83079,-2.23371" />
    <g
       id="g68"
       transform="matrix(0.49682123,0,0,-0.49682123,331.53972,526.04204)"
       style="stroke:#4d4d4d">
      <path
         d="m 0,0 -11.206,129.733 c -0.153,1.774 1.284,3.277 3.063,3.208 41.891,-1.622 68.965,-0.551 77.991,-0.067 1.764,0.094 3.198,-1.395 3.045,-3.156 L 61.698,0.11 C 61.51,-2.064 59.976,-3.883 57.862,-4.42 49.306,-6.592 26.486,-11.089 3.685,-4.496 1.647,-3.907 0.183,-2.114 0,0 Z"
         style="fill:none;stroke:#4d4d4d;stroke-width:3.31599998;stroke-linecap:butt;stroke-linejoin:miter;stroke-miterlimit:10;stroke-dasharray:none;stroke-opacity:1"
         id="path70"
         inkscape:connector-curvature="0" />
    </g>
    <g
       id="g72"
       transform="matrix(0.49682123,0,0,-0.49682123,350.04959,464.53715)"
       style="fill:#ffffff;stroke:#4d4d4d;stroke-opacity:1">
      <path
         d="m 34.875332,8.2396221 c 2.787294,0.7015752 6.85162,9.9537329 -4.26587,16.5187639 -16.213,9.575 -34.8210002,-1.468 -34.8210002,-1.468 -20.6349998,9.212 -28.0049998,-6.632 -28.0049998,-6.632 -17.975406,-1.662595 -16.342585,-9.1891764 -16.342585,-9.1891764"
         style="fill:none;fill-opacity:1;fill-rule:nonzero;stroke:#4d4d4d;stroke-width:3.31599998;stroke-linecap:round;stroke-linejoin:miter;stroke-miterlimit:10;stroke-dasharray:none;stroke-opacity:1"
         id="path74"
         inkscape:connector-curvature="0"
         sodipodi:nodetypes="ccccc" />
    </g>
    <g
       id="g80"
       transform="matrix(0.49682123,0,0,-0.49682123,332.7851,461.62186)"
       style="fill:#000000;fill-opacity:0;stroke:#4d4d4d;stroke-opacity:1">
      <path
         d="m 0,0 c 0,0 -2.516,0.929 -5.339,-2.183 -2.822,-3.112 -0.5,-6.614 -0.5,-6.614"
         style="fill:#000000;fill-opacity:0;stroke:#4d4d4d;stroke-width:3.31599998;stroke-linecap:round;stroke-linejoin:miter;stroke-miterlimit:10;stroke-dasharray:none;stroke-opacity:1"
         id="path82"
         inkscape:connector-curvature="0" />
    </g>
    <g
       id="g84"
       transform="matrix(0.49682123,0,0,-0.43401997,330.04881,483.23875)">
      <path
         d="M 0,-6.7583235 7.886,-91.96784 c 0.375,-4.049774 3.625,-7.330473 7.909,-8.06315 5.275,-0.90254 10.844,-1.35801 16.64,-1.35801 7.488,0 14.215,0.75787 19.42,1.612816 4.327,0.710273 7.601,4.03764 7.979,8.123814 l 7.87,85.0312478 C 36.253,-9.3306159 11.793,-7.8727346 0,-6.7583235"
         style="fill:#e0a328;fill-opacity:1;fill-rule:nonzero;stroke:none"
         id="path86"
         inkscape:connector-curvature="0" />
    </g>
    <g
       id="g88"
       transform="matrix(0.49682123,0,0,-0.49682123,327.28614,476.79841)"
       style="fill:#4d4d4d;fill-opacity:1;stroke:#4d4d4d;stroke-opacity:1">
      <path
         d="M 0,0 C 0,0 40.908,-3.777 78.876,0"
         style="fill:#4d4d4d;fill-opacity:1;stroke:#4d4d4d;stroke-width:3.31599998;stroke-linecap:butt;stroke-linejoin:miter;stroke-miterlimit:10;stroke-dasharray:none;stroke-opacity:1"
         id="path90"
         inkscape:connector-curvature="0" />
    </g>
    <g
       id="g92"
       transform="matrix(0.49682123,0,0,-0.49682123,363.68887,462.76997)">
      <path
         d="M 0,0 -8.039,-93.073"
         style="fill:#f1e0c2;fill-opacity:1;fill-rule:nonzero;stroke:none"
         id="path94"
         inkscape:connector-curvature="0" />
    </g>
    <g
       id="g100"
       transform="matrix(0.49682123,0,0,-0.49682123,360.58201,463.46621)">
      <path
         d="M 0,0 -5.309,-67.828"
         style="fill:#f1e0c2;fill-opacity:1;fill-rule:nonzero;stroke:none"
         id="path102"
         inkscape:connector-curvature="0" />
    </g>
    <g
       id="g108"
       transform="matrix(0.49682123,0,0,-0.49682123,338.90806,485.4088)">
      <path
         d="m 0,0 -1.9,-78.206 -9.143,77.693 C -11.4,2.526 -9.226,5.28 -6.187,5.638 -3.148,5.995 -0.394,3.821 -0.036,0.782 -0.007,0.53 0.004,0.247 0,0"
         style="fill:#f7ecda;fill-opacity:1;fill-rule:nonzero;stroke:none"
         id="path110"
         inkscape:connector-curvature="0" />
    </g>
  </g>
</svg>
