<?xml version="1.0" encoding="UTF-8" standalone="no"?>
<svg
   xmlns:dc="http://purl.org/dc/elements/1.1/"
   xmlns:cc="http://creativecommons.org/ns#"
   xmlns:rdf="http://www.w3.org/1999/02/22-rdf-syntax-ns#"
   xmlns:svg="http://www.w3.org/2000/svg"
   xmlns="http://www.w3.org/2000/svg"
   xmlns:sodipodi="http://sodipodi.sourceforge.net/DTD/sodipodi-0.dtd"
   xmlns:inkscape="http://www.inkscape.org/namespaces/inkscape"
   width="159.0872pt"
   height="34.2401pt"
   viewBox="0 0 159.0872 34.2401"
   version="1.1"
   id="svg2"
   inkscape:version="0.91 r13725"
   sodipodi:docname="logo_FBW.svg">
  <metadata
     id="metadata77">
    <rdf:RDF>
      <cc:Work
         rdf:about="">
        <dc:format>image/svg+xml</dc:format>
        <dc:type
           rdf:resource="http://purl.org/dc/dcmitype/StillImage" />
        <dc:title></dc:title>
      </cc:Work>
    </rdf:RDF>
  </metadata>
  <defs
     id="defs75" />
  <sodipodi:namedview
     pagecolor="#ffffff"
     bordercolor="#666666"
     borderopacity="1"
     objecttolerance="10"
     gridtolerance="10"
     guidetolerance="10"
     inkscape:pageopacity="0"
     inkscape:pageshadow="2"
     inkscape:window-width="2560"
     inkscape:window-height="1386"
     id="namedview73"
     showgrid="false"
     fit-margin-top="0"
     fit-margin-left="0"
     fit-margin-right="0"
     fit-margin-bottom="0"
     inkscape:zoom="4.953257"
     inkscape:cx="98.18745"
     inkscape:cy="22.5002"
     inkscape:window-x="0"
     inkscape:window-y="0"
     inkscape:window-maximized="1"
     inkscape:current-layer="svg2" />
  <g
     id="surface846"
     transform="translate(-17.44306,-15.65006)">
    <path
       style="fill:#26a8ab;fill-opacity:1;fill-rule:nonzero;stroke:none"
       d="M 48.01953,38.61328 48.01953,41.48828 48.73828,41.48828 C 49.72656,41.48828 50.42188,41.40625 50.42188,40.06641 50.42188,38.70703 49.71484,38.61328 48.73828,38.61328 Z M 48.01953,34.73438 48.01953,37.60938 48.45313,37.60938 C 49.44531,37.60938 50.15234,37.51563 50.15234,36.15625 50.15234,34.81641 49.44531,34.73438 48.45313,34.73438 Z M 46.77344,33.70313 48.49219,33.70313 C 50.23047,33.70313 51.4375,34.14844 51.4375,36.11719 51.4375,37.13281 51.03125,37.71875 50.44922,38.04297 51.17969,38.32813 51.71094,38.9375 51.71094,40.10547 51.71094,42.04688 50.51563,42.51953 48.78125,42.51953 L 46.77344,42.51953 46.77344,33.70313"
       id="path5"
       inkscape:connector-curvature="0" />
    <path
       style="fill:#26a8ab;fill-opacity:1;fill-rule:nonzero;stroke:none"
       d="M 53.1875,33.70313 54.43359,33.70313 54.43359,42.51953 53.1875,42.51953 53.1875,33.70313"
       id="path7"
       inkscape:connector-curvature="0" />
    <path
       style="fill:#26a8ab;fill-opacity:1;fill-rule:nonzero;stroke:none"
       d="M 60.18359,38.11328 C 60.18359,35.34375 59.90234,34.625 58.76172,34.625 57.62109,34.625 57.34766,35.34375 57.34766,38.11328 57.34766,40.87891 57.62109,41.59766 58.76172,41.59766 59.90234,41.59766 60.18359,40.87891 60.18359,38.11328 Z M 56.0625,38.11328 C 56.0625,34.46094 56.92969,33.53906 58.76172,33.53906 60.64844,33.53906 61.47266,34.42188 61.47266,38.11328 61.47266,41.77344 60.60547,42.68359 58.76172,42.68359 56.89063,42.68359 56.0625,41.81641 56.0625,38.11328"
       id="path9"
       inkscape:connector-curvature="0" />
    <path
       style="fill:#26a8ab;fill-opacity:1;fill-rule:nonzero;stroke:none"
       d="M 67.95703,38.11328 C 67.95703,34.81641 68.67188,33.53906 70.81641,33.53906 71.46875,33.53906 72.05078,33.70313 72.33594,33.86719 L 72.33594,35.01953 C 72.01172,34.84375 71.44141,34.66406 70.89844,34.66406 69.60938,34.66406 69.24219,35.25 69.24219,38.11328 69.24219,41 69.63672,41.57031 70.89844,41.57031 71.45703,41.57031 72.09375,41.37891 72.41797,41.19141 L 72.41797,42.34375 C 72.13281,42.50781 71.45703,42.68359 70.84375,42.68359 68.52344,42.69531 67.95703,41.40625 67.95703,38.11328"
       id="path11"
       inkscape:connector-curvature="0" />
    <path
       style="fill:#26a8ab;fill-opacity:1;fill-rule:nonzero;stroke:none"
       d="M 73.83984,33.70313 75.08984,33.70313 75.08984,42.51953 73.83984,42.51953 73.83984,33.70313"
       id="path13"
       inkscape:connector-curvature="0" />
    <path
       style="fill:#26a8ab;fill-opacity:1;fill-rule:nonzero;stroke:none"
       d="M 77.05469,33.70313 81.17969,33.70313 81.17969,34.76172 78.30078,34.76172 78.30078,37.46094 80.62109,37.46094 80.62109,38.50391 78.30078,38.50391 78.30078,41.46094 81.17969,41.46094 81.17969,42.51953 77.05469,42.51953 77.05469,33.70313"
       id="path15"
       inkscape:connector-curvature="0" />
    <path
       style="fill:#26a8ab;fill-opacity:1;fill-rule:nonzero;stroke:none"
       d="M 82.82031,33.70313 84.25781,33.70313 87.03516,40.73047 C 86.94141,40.01172 86.85938,39.16797 86.85938,38.38281 L 86.85938,33.70313 88.05469,33.70313 88.05469,42.51953 86.61719,42.51953 83.80859,35.46484 C 83.91797,36.18359 84.01172,37.03906 84.01172,37.83984 L 84.01172,42.51953 82.82031,42.51953 82.82031,33.70313"
       id="path17"
       inkscape:connector-curvature="0" />
    <path
       style="fill:#26a8ab;fill-opacity:1;fill-rule:nonzero;stroke:none"
       d="M 89.67969,38.11328 C 89.67969,34.81641 90.39844,33.53906 92.54297,33.53906 93.19531,33.53906 93.77734,33.70313 94.0625,33.86719 L 94.0625,35.01953 C 93.73438,34.84375 93.16406,34.66406 92.625,34.66406 91.33594,34.66406 90.96875,35.25 90.96875,38.11328 90.96875,41 91.36328,41.57031 92.625,41.57031 93.17969,41.57031 93.82031,41.37891 94.14453,41.19141 L 94.14453,42.34375 C 93.85938,42.50781 93.17969,42.68359 92.57031,42.68359 90.25,42.69531 89.67969,41.40625 89.67969,38.11328"
       id="path19"
       inkscape:connector-curvature="0" />
    <path
       style="fill:#26a8ab;fill-opacity:1;fill-rule:nonzero;stroke:none"
       d="M 95.56641,33.70313 99.69141,33.70313 99.69141,34.76172 96.81641,34.76172 96.81641,37.46094 99.13672,37.46094 99.13672,38.50391 96.81641,38.50391 96.81641,41.46094 99.69141,41.46094 99.69141,42.51953 95.56641,42.51953 95.56641,33.70313"
       id="path21"
       inkscape:connector-curvature="0" />
    <path
       style="fill:#26a8ab;fill-opacity:1;fill-rule:nonzero;stroke:none"
       d="M 104.1289,33.70313 108.2539,33.70313 108.2539,34.76172 105.375,34.76172 105.375,37.46094 107.6953,37.46094 107.6953,38.50391 105.375,38.50391 105.375,41.46094 108.2539,41.46094 108.2539,42.51953 104.1289,42.51953 104.1289,33.70313"
       id="path23"
       inkscape:connector-curvature="0" />
    <path
       style="fill:#26a8ab;fill-opacity:1;fill-rule:nonzero;stroke:none"
       d="M 109.8906,33.70313 111.3281,33.70313 114.1094,40.73047 C 114.0156,40.01172 113.9336,39.16797 113.9336,38.38281 L 113.9336,33.70313 115.1289,33.70313 115.1289,42.51953 113.6875,42.51953 110.8828,35.46484 C 110.9883,36.18359 111.0859,37.03906 111.0859,37.83984 L 111.0859,42.51953 109.8906,42.51953 109.8906,33.70313"
       id="path25"
       inkscape:connector-curvature="0" />
    <path
       style="fill:#26a8ab;fill-opacity:1;fill-rule:nonzero;stroke:none"
       d="M 116.7539,38.11328 C 116.7539,34.64063 117.6758,33.53906 119.9688,33.53906 120.6172,33.53906 121.3125,33.71484 121.6094,33.89063 L 121.6094,35.04688 C 121.2852,34.85547 120.6602,34.65234 120.0625,34.65234 118.5977,34.65234 118.043,35.19531 118.043,38.11328 118.043,41 118.4336,41.59766 119.7109,41.59766 120.1055,41.59766 120.4297,41.54297 120.6758,41.47656 L 120.6758,38.53125 119.3711,38.53125 119.3711,37.47266 121.9219,37.47266 121.9219,42.23438 C 121.6641,42.39844 120.6328,42.68359 119.7266,42.68359 117.3359,42.68359 116.7539,41.43359 116.7539,38.11328"
       id="path27"
       inkscape:connector-curvature="0" />
    <path
       style="fill:#26a8ab;fill-opacity:1;fill-rule:nonzero;stroke:none"
       d="M 123.7656,33.70313 125.0156,33.70313 125.0156,42.51953 123.7656,42.51953 123.7656,33.70313"
       id="path29"
       inkscape:connector-curvature="0" />
    <path
       style="fill:#26a8ab;fill-opacity:1;fill-rule:nonzero;stroke:none"
       d="M 126.9805,33.70313 128.418,33.70313 131.1953,40.73047 C 131.1055,40.01172 131.0195,39.16797 131.0195,38.38281 L 131.0195,33.70313 132.2148,33.70313 132.2148,42.51953 130.7773,42.51953 127.9688,35.46484 C 128.0781,36.18359 128.1719,37.03906 128.1719,37.83984 L 128.1719,42.51953 126.9805,42.51953 126.9805,33.70313"
       id="path31"
       inkscape:connector-curvature="0" />
    <path
       style="fill:#26a8ab;fill-opacity:1;fill-rule:nonzero;stroke:none"
       d="M 134.1797,33.70313 138.3047,33.70313 138.3047,34.76172 135.4297,34.76172 135.4297,37.46094 137.7461,37.46094 137.7461,38.50391 135.4297,38.50391 135.4297,41.46094 138.3047,41.46094 138.3047,42.51953 134.1797,42.51953 134.1797,33.70313"
       id="path33"
       inkscape:connector-curvature="0" />
    <path
       style="fill:#26a8ab;fill-opacity:1;fill-rule:nonzero;stroke:none"
       d="M 139.9414,33.70313 144.0664,33.70313 144.0664,34.76172 141.1914,34.76172 141.1914,37.46094 143.5117,37.46094 143.5117,38.50391 141.1914,38.50391 141.1914,41.46094 144.0664,41.46094 144.0664,42.51953 139.9414,42.51953 139.9414,33.70313"
       id="path35"
       inkscape:connector-curvature="0" />
    <path
       style="fill:#26a8ab;fill-opacity:1;fill-rule:nonzero;stroke:none"
       d="M 146.9531,34.76172 146.9531,37.86719 147.6211,37.86719 C 148.5977,37.86719 149.2461,37.66406 149.2461,36.30859 149.2461,34.96484 148.5977,34.76172 147.6211,34.76172 Z M 145.707,33.70313 147.7422,33.70313 C 149.3711,33.70313 150.5352,34.3125 150.5352,36.30859 150.5352,37.70313 149.8594,38.38281 149.0039,38.69531 L 150.875,42.51953 149.4492,42.51953 147.7969,38.92578 146.9531,38.92578 146.9531,42.51953 145.707,42.51953 145.707,33.70313"
       id="path37"
       inkscape:connector-curvature="0" />
    <path
       style="fill:#26a8ab;fill-opacity:1;fill-rule:nonzero;stroke:none"
       d="M 152.2305,33.70313 153.4805,33.70313 153.4805,42.51953 152.2305,42.51953 152.2305,33.70313"
       id="path39"
       inkscape:connector-curvature="0" />
    <path
       style="fill:#26a8ab;fill-opacity:1;fill-rule:nonzero;stroke:none"
       d="M 155.4453,33.70313 156.8828,33.70313 159.6641,40.73047 C 159.5664,40.01172 159.4844,39.16797 159.4844,38.38281 L 159.4844,33.70313 160.6797,33.70313 160.6797,42.51953 159.2422,42.51953 156.4336,35.46484 C 156.543,36.18359 156.6406,37.03906 156.6406,37.83984 L 156.6406,42.51953 155.4453,42.51953 155.4453,33.70313"
       id="path41"
       inkscape:connector-curvature="0" />
    <path
       style="fill:#26a8ab;fill-opacity:1;fill-rule:nonzero;stroke:none"
       d="M 162.3086,38.11328 C 162.3086,34.64063 163.2305,33.53906 165.5195,33.53906 166.1719,33.53906 166.8633,33.71484 167.1602,33.89063 L 167.1602,35.04688 C 166.8398,34.85547 166.2148,34.65234 165.6172,34.65234 164.1523,34.65234 163.5977,35.19531 163.5977,38.11328 163.5977,41 163.9883,41.59766 165.2656,41.59766 165.6562,41.59766 165.9805,41.54297 166.2266,41.47656 L 166.2266,38.53125 164.9258,38.53125 164.9258,37.47266 167.4766,37.47266 167.4766,42.23438 C 167.2187,42.39844 166.1875,42.68359 165.2773,42.68359 162.8906,42.68359 162.3086,41.43359 162.3086,38.11328"
       id="path43"
       inkscape:connector-curvature="0" />
    <path
       style="fill:#26a8ab;fill-opacity:1;fill-rule:nonzero;stroke:none"
       d="M 46.77344,21.26172 50.76172,21.26172 50.76172,22.32031 48.01953,22.32031 48.01953,25.01563 50.21875,25.01563 50.21875,26.0625 48.01953,26.0625 48.01953,30.07813 46.77344,30.07813 46.77344,21.26172"
       id="path45"
       inkscape:connector-curvature="0" />
    <path
       style="fill:#26a8ab;fill-opacity:1;fill-rule:nonzero;stroke:none"
       d="M 52.63281,27.02344 54.57031,27.02344 54.20703,25.55859 C 54.01563,24.82813 53.76953,23.70313 53.62109,22.72656 53.46094,23.70313 53.20313,24.82813 53.01172,25.55859 Z M 52.96875,21.26172 54.25781,21.26172 56.60547,30.07813 55.30469,30.07813 54.78906,28.08203 52.38672,28.08203 51.88672,30.07813 50.62109,30.07813 52.96875,21.26172"
       id="path47"
       inkscape:connector-curvature="0" />
    <path
       style="fill:#26a8ab;fill-opacity:1;fill-rule:nonzero;stroke:none"
       d="M 57.24219,25.66797 C 57.24219,22.37109 57.96094,21.09766 60.10156,21.09766 60.75781,21.09766 61.33984,21.26172 61.62109,21.42188 L 61.62109,22.57422 C 61.29688,22.39844 60.72656,22.22266 60.18359,22.22266 58.89844,22.22266 58.53125,22.80859 58.53125,25.66797 58.53125,28.55859 58.92188,29.12891 60.18359,29.12891 60.74219,29.12891 61.37891,28.9375 61.70703,28.74609 L 61.70703,29.89844 C 61.41797,30.0625 60.74219,30.23828 60.13281,30.23828 57.8125,30.25391 57.24219,28.96484 57.24219,25.66797"
       id="path49"
       inkscape:connector-curvature="0" />
    <path
       style="fill:#26a8ab;fill-opacity:1;fill-rule:nonzero;stroke:none"
       d="M 62.91797,27.41797 62.91797,21.26172 64.16797,21.26172 64.16797,27.47266 C 64.16797,28.77344 64.61328,29.15234 65.52344,29.15234 66.43359,29.15234 66.87891,28.77344 66.87891,27.47266 L 66.87891,21.26172 68.12891,21.26172 68.12891,27.41797 C 68.12891,29.42578 67.28516,30.23828 65.52344,30.23828 63.73047,30.23828 62.91797,29.45313 62.91797,27.41797"
       id="path51"
       inkscape:connector-curvature="0" />
    <path
       style="fill:#26a8ab;fill-opacity:1;fill-rule:nonzero;stroke:none"
       d="M 70.02344,21.26172 71.27344,21.26172 71.27344,29.01953 74.01172,29.01953 74.01172,30.07813 70.02344,30.07813 70.02344,21.26172"
       id="path53"
       inkscape:connector-curvature="0" />
    <path
       style="fill:#26a8ab;fill-opacity:1;fill-rule:nonzero;stroke:none"
       d="M 73.57813,21.26172 78.63672,21.26172 78.63672,22.32031 76.72656,22.32031 76.72656,30.07813 75.47656,30.07813 75.47656,22.32031 73.57813,22.32031 73.57813,21.26172"
       id="path55"
       inkscape:connector-curvature="0" />
    <path
       style="fill:#26a8ab;fill-opacity:1;fill-rule:nonzero;stroke:none"
       d="M 81.53516,26.41406 79.12109,21.26172 80.49219,21.26172 81.53516,23.63281 C 81.78125,24.20313 82.01172,24.8125 82.16016,25.35547 82.32422,24.8125 82.56641,24.20313 82.8125,23.63281 L 83.85547,21.26172 85.18359,21.26172 82.78516,26.41406 82.78516,30.07813 81.53516,30.07813 81.53516,26.41406"
       id="path57"
       inkscape:connector-curvature="0" />
    <path
       style="fill:#26a8ab;fill-opacity:1;fill-rule:nonzero;stroke:none"
       d="M 92.34766,25.66797 C 92.34766,22.90234 92.06641,22.18359 90.92578,22.18359 89.78516,22.18359 89.51563,22.90234 89.51563,25.66797 89.51563,28.43359 89.78516,29.15234 90.92578,29.15234 92.06641,29.15234 92.34766,28.43359 92.34766,25.66797 Z M 88.22656,25.66797 C 88.22656,22.01953 89.09375,21.09766 90.92578,21.09766 92.8125,21.09766 93.63672,21.98047 93.63672,25.66797 93.63672,29.33203 92.76953,30.23828 90.92578,30.23828 89.05469,30.23828 88.22656,29.37109 88.22656,25.66797"
       id="path59"
       inkscape:connector-curvature="0" />
    <path
       style="fill:#26a8ab;fill-opacity:1;fill-rule:nonzero;stroke:none"
       d="M 95.26563,21.26172 99.25391,21.26172 99.25391,22.32031 96.51172,22.32031 96.51172,25.01563 98.71094,25.01563 98.71094,26.0625 96.51172,26.0625 96.51172,30.07813 95.26563,30.07813 95.26563,21.26172"
       id="path61"
       inkscape:connector-curvature="0" />
    <path
       style="fill:#26a8ab;fill-opacity:1;fill-rule:nonzero;stroke:none"
       d="M 65.32031,34.60938 C 65.86719,34.60938 66.39063,34.78906 66.62891,34.97656 L 66.62891,33.85156 C 66.39063,33.70703 65.80078,33.54297 65.21094,33.54297 63.55469,33.54297 62.64453,34.48438 62.64453,35.84766 62.64453,36.98828 63.125,37.53516 63.90234,38.20313 L 64.60938,38.81641 C 65.19922,39.30859 65.55859,39.6875 65.55859,40.41797 65.55859,41.27734 64.99219,41.61719 64.14453,41.61719 63.5,41.61719 62.96484,41.4375 62.65625,41.22656 L 62.65625,42.36719 C 62.92578,42.52344 63.49219,42.6875 64.25391,42.68359 65.90625,42.67969 66.81641,41.74219 66.82031,40.37891 66.82031,39.23828 66.33594,38.69141 65.55859,38.02344 L 64.85156,37.41016 C 64.26563,36.90625 63.89844,36.54297 63.90234,35.80859 63.90234,34.94922 64.46484,34.61328 65.32031,34.60938"
       id="path63"
       inkscape:connector-curvature="0" />
    <path
       style="fill:#26a8ab;fill-opacity:1;fill-rule:nonzero;stroke:none"
       d="M 31.89063,29.31641 C 30.46875,29.31641 29.31641,30.46875 29.31641,31.89063 29.31641,33.3125 30.46875,34.46484 31.89063,34.46484 33.30859,34.46484 34.46094,33.3125 34.46094,31.89063 34.46094,30.46875 33.30859,29.31641 31.89063,29.31641 Z M 33.21484,31.89063 C 33.21484,32.62109 32.62109,33.21484 31.89063,33.21484 31.15625,33.21484 30.56641,32.62109 30.56641,31.89063 30.56641,31.16016 31.15625,30.56641 31.89063,30.56641 32.62109,30.56641 33.21484,31.16016 33.21484,31.89063"
       id="path65"
       inkscape:connector-curvature="0" />
    <path
       style="fill:#26a8ab;fill-opacity:1;fill-rule:nonzero;stroke:none"
       d="M 37.26953,22.42188 C 35.85156,22.42188 34.69922,23.57422 34.69922,24.99219 34.69922,26.41406 35.85156,27.56641 37.26953,27.56641 38.69141,27.56641 39.84375,26.41406 39.84375,24.99219 39.84375,23.57422 38.69141,22.42188 37.26953,22.42188 Z M 38.59375,24.99219 C 38.59375,25.72656 38.00391,26.31641 37.26953,26.31641 36.53906,26.31641 35.94531,25.72656 35.94531,24.99219 35.94531,24.26172 36.53906,23.66797 37.26953,23.66797 38.00391,23.66797 38.59375,24.26172 38.59375,24.99219"
       id="path67"
       inkscape:connector-curvature="0" />
    <path
       style="fill:#26a8ab;fill-opacity:1;fill-rule:nonzero;stroke:none"
       d="M 31.89063,22.50781 C 32.17969,22.50781 32.46484,22.52734 32.74609,22.55078 L 32.85938,21.30859 C 32.53906,21.28125 32.21875,21.26172 31.89063,21.26172 26.01953,21.26172 21.26172,26.01953 21.26172,31.89063 21.26172,37.76172 26.01953,42.51953 31.89063,42.51953 37.76172,42.51953 42.51953,37.76172 42.51953,31.89063 42.51953,30.66016 42.30078,29.48438 41.91406,28.38672 L 40.73828,28.79688 C 41.07813,29.76563 41.27344,30.80469 41.27344,31.89063 41.27344,37.07422 37.07031,41.27344 31.89063,41.27344 26.70703,41.27344 22.50781,37.07422 22.50781,31.89063 22.50781,26.70703 26.70703,22.50781 31.89063,22.50781"
       id="path69"
       inkscape:connector-curvature="0" />
    <path
       style="fill:#26a8ab;fill-opacity:1;fill-rule:nonzero;stroke:none"
       d="M 31.89063,25.00391 C 32.10156,25.00391 32.30859,25.01563 32.51953,25.03516 L 32.63281,23.79297 C 32.38672,23.76953 32.14063,23.75391 31.89063,23.75391 27.39844,23.75391 23.75391,27.39844 23.75391,31.89063 23.75391,36.38281 27.39844,40.02734 31.89063,40.02734 36.38281,40.02734 40.02734,36.38281 40.02734,31.89063 40.02734,30.94922 39.85547,30.04688 39.5625,29.20703 L 38.38672,29.61719 C 38.63672,30.33203 38.77734,31.09375 38.77734,31.89063 38.77734,35.69531 35.69531,38.77734 31.89063,38.77734 28.08594,38.77734 25,35.69531 25,31.89063 25,28.08594 28.08594,25.00391 31.89063,25.00391"
       id="path71"
       inkscape:connector-curvature="0" />
  </g>
</svg>
