<?xml version="1.0" encoding="UTF-8" standalone="no"?>
<!-- Created with Inkscape (http://www.inkscape.org/) -->

<svg
   xmlns:dc="http://purl.org/dc/elements/1.1/"
   xmlns:cc="http://creativecommons.org/ns#"
   xmlns:rdf="http://www.w3.org/1999/02/22-rdf-syntax-ns#"
   xmlns:svg="http://www.w3.org/2000/svg"
   xmlns="http://www.w3.org/2000/svg"
   xmlns:sodipodi="http://sodipodi.sourceforge.net/DTD/sodipodi-0.dtd"
   xmlns:inkscape="http://www.inkscape.org/namespaces/inkscape"
   width="122.8123mm"
   height="81.98475mm"
   viewBox="0 0 435.1618 290.4971"
   id="svg13805"
   version="1.1"
   inkscape:version="0.91 r13725"
   sodipodi:docname="smoke.svg">
  <defs
     id="defs13807" />
  <sodipodi:namedview
     id="base"
     pagecolor="#ffffff"
     bordercolor="#666666"
     borderopacity="1.0"
     inkscape:pageopacity="0.0"
     inkscape:pageshadow="2"
     inkscape:zoom="0.8326172"
     inkscape:cx="70.92663"
     inkscape:cy="200.306"
     inkscape:document-units="px"
     inkscape:current-layer="layer1"
     showgrid="false"
     fit-margin-top="0"
     fit-margin-left="0"
     fit-margin-right="0"
     fit-margin-bottom="0"
     inkscape:window-width="2560"
     inkscape:window-height="1386"
     inkscape:window-x="0"
     inkscape:window-y="0"
     inkscape:window-maximized="1" />
  <metadata
     id="metadata13810">
    <rdf:RDF>
      <cc:Work
         rdf:about="">
        <dc:format>image/svg+xml</dc:format>
        <dc:type
           rdf:resource="http://purl.org/dc/dcmitype/StillImage" />
        <dc:title></dc:title>
      </cc:Work>
    </rdf:RDF>
  </metadata>
  <g
     inkscape:label="Layer 1"
     inkscape:groupmode="layer"
     id="layer1"
     transform="translate(-127.1153,-414.6905)">
    <g
       style="display:inline"
       id="g12828"
       transform="translate(-602.3746,129.6039)">
      <g
         id="g12456">
        <g
           id="g151980"
           transform="matrix(0.6365362,0,0,-0.6365362,768.963,349.1864)">
          <path
             d="M 0,0 C -1.764,-0.758 -3.375,-1.777 -4.791,-3.022 -10.981,1.981 -19.552,3.299 -27.121,0.048 -38.193,-4.708 -43.332,-17.586 -38.575,-28.658 -37.04,-32.233 -34.645,-35.258 -31.612,-37.519 -35.29,-42.869 -36.104,-49.844 -33.425,-56.081 -29.214,-65.882 -17.814,-70.432 -8.013,-66.221 -3.351,-64.218 0.302,-60.461 2.216,-55.838 4.063,-55.65 5.881,-55.184 7.596,-54.447 16.53,-50.609 20.844,-40.446 17.559,-31.42 24.404,-26.602 27.197,-17.475 23.765,-9.484 19.827,-0.317 9.167,3.938 0,0"
             style="fill:#231c64;fill-opacity:1;fill-rule:nonzero;stroke:none"
             id="path151982"
             inkscape:connector-curvature="0" />
        </g>
        <g
           id="g151984"
           transform="matrix(0.6365362,0,0,-0.6365362,770.042,351.7011)">
          <path
             d="M 0,0 C -2.703,-1.161 -4.835,-3.087 -6.273,-5.411 -11.044,0.819 -19.581,3.287 -27.12,0.048 -36.029,-3.778 -40.149,-14.102 -36.322,-23.011 -34.363,-27.571 -30.698,-30.865 -26.397,-32.491 -31.807,-36.565 -33.963,-43.933 -31.171,-50.433 -27.891,-58.069 -19.042,-61.6 -11.406,-58.32 -6.742,-56.316 -3.62,-52.231 -2.636,-47.618 -0.376,-47.835 1.969,-47.505 4.202,-46.546 11.293,-43.5 14.572,-35.283 11.526,-28.193 11.132,-27.275 10.648,-26.425 10.096,-25.642 10.36,-25.547 10.626,-25.46 10.888,-25.348 17.888,-22.341 21.125,-14.229 18.118,-7.23 15.111,-0.231 7,3.007 0,0"
             style="fill:#ffffff;fill-opacity:1;fill-rule:nonzero;stroke:none"
             id="path151986"
             inkscape:connector-curvature="0" />
        </g>
        <g
           id="g151988"
           transform="matrix(0.6365362,0,0,-0.6365362,773.423,374.2323)">
          <path
             d="M 0,0 C -5.29,-3.003 -10.235,4.085 -10.235,4.085 -10.235,4.085 -12.055,-13.805 -24.397,-5.979 -36.739,1.846 -25.725,12.855 -25.725,12.855 -25.725,12.855 -35.397,10.579 -36.747,20.528 -37.709,27.631 -32.15,33.66 -28.89,36.527 -30.082,36.292 -31.269,35.944 -32.431,35.445 -41.34,31.618 -45.459,21.294 -41.632,12.385 -39.674,7.825 -36.009,4.532 -31.708,2.905 -37.117,-1.168 -39.273,-8.536 -36.481,-15.036 -33.201,-22.673 -24.353,-26.204 -16.716,-22.923 -12.052,-20.92 -8.931,-16.835 -7.947,-12.221 -5.687,-12.438 -3.342,-12.109 -1.108,-11.149 5.982,-8.104 9.261,0.113 6.215,7.204 5.907,7.921 5.531,8.586 5.122,9.222 5.08,7.926 4.623,2.625 0,0"
             style="fill:#cfd2d3;fill-opacity:1;fill-rule:nonzero;stroke:none"
             id="path151990"
             inkscape:connector-curvature="0" />
        </g>
        <g
           id="g151992"
           transform="matrix(0.6365362,0,0,-0.6365362,759.944,359.4816)">
          <path
             d="M 0,0 C 0,0 7.712,10.868 18.879,-0.289 18.879,-0.289 16.113,8.231 8.996,8.501 2.564,8.747 0,0 0,0"
             style="fill:#231c64;fill-opacity:1;fill-rule:nonzero;stroke:none"
             id="path151994"
             inkscape:connector-curvature="0" />
        </g>
        <g
           id="g151996"
           transform="matrix(0.6365362,0,0,-0.6365362,771.945,367.7251)">
          <path
             d="M 0,0 C 0,0 -6.26,-11.765 -18.761,-2.126 -18.761,-2.126 -14.929,-10.224 -7.835,-9.582 -1.425,-9.003 0,0 0,0"
             style="fill:#cfd2d3;fill-opacity:1;fill-rule:nonzero;stroke:none"
             id="path151998"
             inkscape:connector-curvature="0" />
        </g>
        <g
           id="g152000"
           transform="matrix(0.6365362,0,0,-0.6365362,767.874,375.6421)">
          <path
             d="M 0,0 C 0,0 3.656,-12.816 -12.035,-14.549 -12.035,-14.549 -3.657,-17.719 1.006,-12.337 5.22,-7.472 0,0 0,0"
             style="fill:#231c64;fill-opacity:1;fill-rule:nonzero;stroke:none"
             id="path152002"
             inkscape:connector-curvature="0" />
        </g>
        <g
           id="g152004"
           transform="matrix(0.6365362,0,0,-0.6365362,757.893,378.0382)">
          <path
             d="M 0,0 C 0,0 -11.489,6.753 -1.328,18.834 -1.328,18.834 -9.58,15.348 -9.241,8.235 -8.935,1.806 0,0 0,0"
             style="fill:#231c64;fill-opacity:1;fill-rule:nonzero;stroke:none"
             id="path152006"
             inkscape:connector-curvature="0" />
        </g>
      </g>
      <g
         id="g12572">
        <g
           id="g12434">
          <g
             transform="matrix(0.6365362,0,0,-0.6365362,777.287,307.497)"
             id="g151900">
            <path
               inkscape:connector-curvature="0"
               id="path151902"
               style="fill:#231c64;fill-opacity:1;fill-rule:nonzero;stroke:none"
               d="M 0,0 C 4.414,5.062 5.28,11.287 3.267,18.02 0.412,27.566 -9.157,33.615 -18.992,32.091 -19.896,31.951 -20.802,31.747 -21.686,31.482 -22.87,31.127 -24.007,30.669 -25.091,30.111 -29.994,34.113 -36.423,35.931 -42.806,34.942 -43.826,34.784 -44.845,34.554 -45.838,34.256 -51.623,32.528 -56.387,28.648 -59.255,23.336 -62.12,18.022 -62.747,11.912 -61.016,6.129 -60.937,5.86 -60.853,5.595 -60.762,5.33 -62.632,3.899 -64.193,2.076 -65.345,-0.057 -67.483,-4.02 -67.949,-8.576 -66.659,-12.888 -64.496,-20.121 -57.748,-24.966 -50.383,-24.914 -46.965,-34.896 -36.752,-41.135 -26.264,-39.512 -25.272,-39.356 -24.278,-39.131 -23.312,-38.843 -17.902,-37.226 -13.386,-34.693 -10.623,-29.976 L 61.841,-53.305 0,0 Z" />
          </g>
          <g
             transform="matrix(0.6365362,0,0,-0.6365362,810.82,338.148)"
             id="g151904">
            <path
               inkscape:connector-curvature="0"
               id="path151906"
               style="fill:#ffffff;fill-opacity:1;fill-rule:evenodd;stroke:none"
               d="M 0,0 -62.41,47.137 C -55.912,50.167 -52.433,57.564 -54.548,64.637 -56.873,72.408 -65.058,76.824 -72.828,74.501 -74.986,73.854 -76.874,72.745 -78.443,71.33 -82.682,76.78 -89.97,79.372 -96.984,77.274 -106.107,74.545 -111.29,64.939 -108.562,55.816 -108.052,54.109 -107.3,52.541 -106.356,51.137 -106.401,51.125 -106.443,51.118 -106.486,51.104 -112.567,49.286 -116.023,42.881 -114.204,36.8 -112.386,30.719 -105.982,27.264 -99.9,29.082 -99.541,29.189 -99.19,29.316 -98.848,29.456 -98.777,28.172 -98.575,26.878 -98.191,25.593 -95.563,16.809 -86.313,11.816 -77.528,14.444 -71.78,16.163 -67.674,20.722 -66.247,26.125 L 0,0 Z" />
          </g>
          <g
             transform="matrix(0.6365362,0,0,-0.6365362,754.099,298.8379)"
             id="g151908">
            <path
               inkscape:connector-curvature="0"
               id="path151910"
               style="fill:#e4e6e7;fill-opacity:1;fill-rule:nonzero;stroke:none"
               d="M 0,0 C 0.23,0.101 0.358,0.162 0.358,0.162 0.358,0.162 0.228,0.106 0,0" />
          </g>
          <g
             transform="matrix(0.6365362,0,0,-0.6365362,763.421,315.4406)"
             id="g151912">
            <path
               inkscape:connector-curvature="0"
               id="path151914"
               style="fill:#cfd2d3;fill-opacity:1;fill-rule:nonzero;stroke:none"
               d="M 0,0 C 0,0 -4.545,-8.096 -9.684,-7.061 -14.823,-6.026 -13.165,3.533 -13.165,3.533 -13.165,3.533 -24.356,-0.657 -25.596,10.18 -26.711,19.93 -16.672,25.136 -14.646,26.083 -16.884,25.104 -28.868,20.296 -27.801,30.169 -27.039,37.219 -22.287,40.681 -19.025,42.253 -20.187,42.156 -21.357,41.949 -22.521,41.601 -31.644,38.872 -36.827,29.266 -34.099,20.143 -33.589,18.436 -32.836,16.867 -31.893,15.463 -31.937,15.451 -31.98,15.444 -32.022,15.431 -38.104,13.612 -41.56,7.208 -39.74,1.127 -37.922,-4.955 -31.519,-8.41 -25.437,-6.592 -25.077,-6.484 -24.727,-6.357 -24.385,-6.218 -24.314,-7.501 -24.112,-8.795 -23.728,-10.081 -21.1,-18.865 -11.849,-23.857 -3.064,-21.229 2.684,-19.51 6.789,-14.952 8.216,-9.548 L 74.463,-35.673 0,0 Z" />
          </g>
          <g
             transform="matrix(0.6365362,0,0,-0.6365362,746.124,313.0281)"
             id="g151916">
            <path
               inkscape:connector-curvature="0"
               id="path151918"
               style="fill:#231c64;fill-opacity:1;fill-rule:nonzero;stroke:none"
               d="M 0,0 C 0,0 -9.007,11.098 5.736,19.419 5.736,19.419 -3.861,19.014 -6.192,11.742 -8.296,5.168 0,0 0,0" />
          </g>
          <g
             transform="matrix(0.6365362,0,0,-0.6365362,753.927,295.5427)"
             id="g151920">
            <path
               inkscape:connector-curvature="0"
               id="path151922"
               style="fill:#231c64;fill-opacity:1;fill-rule:nonzero;stroke:none"
               d="M 0,0 C 0,0 10.305,9.161 18.965,-4.687 18.965,-4.687 18.159,4.547 11.047,6.476 4.621,8.221 0,0 0,0" />
          </g>
          <g
             transform="matrix(0.6365362,0,0,-0.6365362,755.562,320.4792)"
             id="g151924">
            <path
               inkscape:connector-curvature="0"
               id="path151926"
               style="fill:#231c64;fill-opacity:1;fill-rule:nonzero;stroke:none"
               d="M 0,0 C 0,0 -11.117,-5.43 -15.258,8.627 -15.258,8.627 -16.79,0.454 -11.111,-2.931 -5.979,-5.99 0,0 0,0" />
          </g>
          <g
             transform="matrix(0.6365362,0,0,-0.6365362,750.371,308.6283)"
             id="g151928">
            <path
               inkscape:connector-curvature="0"
               id="path151930"
               style="fill:#231c64;fill-opacity:1;fill-rule:nonzero;stroke:none"
               d="M 0,0 C 0,0 -4.31,13.395 12.19,15.778 12.19,15.778 3.236,18.828 -1.495,12.983 -5.771,7.702 0,0 0,0" />
          </g>
          <g
             transform="matrix(0.6365362,0,0,-0.6365362,771.093,308.1435)"
             id="g151932">
            <path
               inkscape:connector-curvature="0"
               id="path151934"
               style="fill:#231c64;fill-opacity:1;fill-rule:nonzero;stroke:none"
               d="M 0,0 -5.086,3.439 6.672,1.444 6.343,-1.619 0,0 Z" />
          </g>
          <g
             transform="matrix(0.6365362,0,0,-0.6365362,768.651,321.5183)"
             id="g151936">
            <path
               inkscape:connector-curvature="0"
               id="path151938"
               style="fill:#231c64;fill-opacity:1;fill-rule:nonzero;stroke:none"
               d="M 0,0 -10.162,4.189 1.317,-5.08 3.807,-4.293 0,0 Z" />
          </g>
        </g>
        <g
           id="g12512">
          <g
             transform="matrix(0.6365362,0,0,-0.6365362,1124.132,530.8852)"
             id="g151940">
            <path
               inkscape:connector-curvature="0"
               id="path151942"
               style="fill:#231c64;fill-opacity:1;fill-rule:nonzero;stroke:none"
               d="M 0,0 C 2.784,6.61 8.343,10.365 15.748,11.599 26.243,13.346 36.54,7.008 39.697,-3.137 39.987,-4.071 40.217,-5.032 40.379,-6.006 40.596,-7.309 40.688,-8.614 40.664,-9.916 46.805,-12.737 51.566,-18.051 53.619,-24.635 53.947,-25.686 54.202,-26.772 54.384,-27.865 55.445,-34.226 53.962,-40.614 50.215,-45.861 46.467,-51.104 40.9,-54.579 34.54,-55.634 34.246,-55.684 33.952,-55.727 33.656,-55.765 33.163,-58.23 32.145,-60.583 30.643,-62.69 27.845,-66.603 23.695,-69.187 18.955,-69.979 11.001,-71.302 3.187,-67.103 -0.223,-60.021 -11.4,-61.43 -22.184,-54.564 -25.552,-43.746 -25.867,-42.72 -26.121,-41.664 -26.3,-40.601 -27.288,-34.654 -26.981,-29.135 -23.754,-24.267 L -80.166,34.266 0,0 Z" />
          </g>
          <g
             transform="matrix(0.6365362,0,0,-0.6365362,1078.987,513.1256)"
             id="g151944">
            <path
               inkscape:connector-curvature="0"
               id="path151946"
               style="fill:#ffffff;fill-opacity:1;fill-rule:evenodd;stroke:none"
               d="M 0,0 74.521,-37.707 C 74.373,-30.054 79.836,-23.242 87.611,-21.946 96.154,-20.525 104.234,-26.302 105.658,-34.845 106.052,-37.217 105.874,-39.55 105.251,-41.718 112.471,-43.224 118.381,-48.995 119.666,-56.704 121.332,-66.737 114.557,-76.22 104.523,-77.891 102.648,-78.201 100.791,-78.218 99.001,-77.973 99.009,-78.021 99.023,-78.066 99.03,-78.113 100.145,-84.801 95.626,-91.119 88.938,-92.23 82.254,-93.345 75.931,-88.83 74.818,-82.139 74.752,-81.745 74.709,-81.35 74.682,-80.959 73.417,-81.491 72.082,-81.907 70.667,-82.141 61.01,-83.748 51.877,-77.221 50.27,-67.56 49.22,-61.241 51.662,-55.162 56.174,-51.256 L 0,0 Z" />
          </g>
          <g
             transform="matrix(0.6365362,0,0,-0.6365362,1143.33,549.0544)"
             id="g151948">
            <path
               inkscape:connector-curvature="0"
               id="path151950"
               style="fill:#e4e6e7;fill-opacity:1;fill-rule:nonzero;stroke:none"
               d="M 0,0 C -0.013,0.269 -0.014,0.421 -0.014,0.421 -0.014,0.421 -0.004,0.268 0,0" />
          </g>
          <g
             transform="matrix(0.6365362,0,0,-0.6365362,1123.028,547.9131)"
             id="g151952">
            <path
               inkscape:connector-curvature="0"
               id="path151954"
               style="fill:#cfd2d3;fill-opacity:1;fill-rule:nonzero;stroke:none"
               d="M 0,0 C 0,0 -5.628,-8.165 -2.221,-12.604 1.184,-17.048 9.572,-10.964 9.572,-10.964 9.572,-10.964 10.809,-23.664 21.785,-19.765 31.66,-16.254 31.936,-4.182 31.894,-1.793 32.007,-4.397 33.025,-18.15 41.992,-12.488 48.395,-8.449 49.481,-2.263 49.457,1.605 49.91,0.444 50.258,-0.776 50.477,-2.053 52.143,-12.086 45.367,-21.568 35.334,-23.239 33.459,-23.55 31.602,-23.566 29.812,-23.321 29.819,-23.369 29.834,-23.415 29.841,-23.462 30.955,-30.149 26.437,-36.468 19.749,-37.579 13.064,-38.693 6.741,-34.179 5.629,-27.487 5.562,-27.094 5.52,-26.698 5.492,-26.308 4.228,-26.84 2.893,-27.256 1.478,-27.489 -8.18,-29.097 -17.312,-22.569 -18.92,-12.908 -19.97,-6.59 -17.527,-0.511 -13.016,3.396 L -69.189,54.651 0,0 Z" />
          </g>
          <g
             transform="matrix(0.6365362,0,0,-0.6365362,1133.468,563.3672)"
             id="g151956">
            <path
               inkscape:connector-curvature="0"
               id="path151958"
               style="fill:#231c64;fill-opacity:1;fill-rule:nonzero;stroke:none"
               d="M 0,0 C 0,0 14.876,-3.423 15.928,14.622 15.928,14.622 20.049,5.228 14.169,-0.421 8.852,-5.526 0,0 0,0" />
          </g>
          <g
             transform="matrix(0.6365362,0,0,-0.6365362,1146.571,547.6706)"
             id="g151960">
            <path
               inkscape:connector-curvature="0"
               id="path151962"
               style="fill:#231c64;fill-opacity:1;fill-rule:nonzero;stroke:none"
               d="M 0,0 C 0,0 3.942,14.186 -13.403,15.986 -13.403,15.986 -4.171,19.552 1.019,13.637 5.712,8.295 0,0 0,0" />
          </g>
          <g
             transform="matrix(0.6365362,0,0,-0.6365362,1121.889,557.8155)"
             id="g151964">
            <path
               inkscape:connector-curvature="0"
               id="path151966"
               style="fill:#231c64;fill-opacity:1;fill-rule:nonzero;stroke:none"
               d="M 0,0 C 0,0 0.015,-13.211 15.441,-10.583 15.441,-10.583 8.323,-15.891 2.411,-12.032 -2.934,-8.549 0,0 0,0" />
          </g>
          <g
             transform="matrix(0.6365362,0,0,-0.6365362,1135.692,557.2268)"
             id="g151968">
            <path
               inkscape:connector-curvature="0"
               id="path151970"
               style="fill:#231c64;fill-opacity:1;fill-rule:nonzero;stroke:none"
               d="M 0,0 C 0,0 14.867,2.157 9.405,19.101 9.405,19.101 16.534,11.947 13.151,4.665 10.096,-1.917 0,0 0,0" />
          </g>
          <g
             transform="matrix(0.6365362,0,0,-0.6365362,1126.422,537.1275)"
             id="g151972">
            <path
               inkscape:connector-curvature="0"
               id="path151974"
               style="fill:#231c64;fill-opacity:1;fill-rule:nonzero;stroke:none"
               d="M 0,0 5.687,-3.264 -1.75,7.076 -4.532,5.322 0,0 Z" />
          </g>
          <g
             transform="matrix(0.6365362,0,0,-0.6365362,1114.744,545.7518)"
             id="g151976">
            <path
               inkscape:connector-curvature="0"
               id="path151978"
               style="fill:#231c64;fill-opacity:1;fill-rule:nonzero;stroke:none"
               d="M 0,0 8.79,-7.778 -5.489,-1.126 -5.907,1.633 0,0 Z" />
          </g>
          <g
             transform="matrix(0.6365362,0,0,-0.6365362,1140.969,460.9787)"
             id="g152036">
            <path
               inkscape:connector-curvature="0"
               id="path152038"
               style="fill:#231c64;fill-opacity:1;fill-rule:nonzero;stroke:none"
               d="M 0,0 C 0.634,-1.821 0.969,-3.707 1.005,-5.604 8.913,-6.806 15.699,-12.271 18.416,-20.092 22.391,-31.532 16.314,-44.071 4.874,-48.045 1.181,-49.326 -2.686,-49.602 -6.419,-48.882 -7.896,-55.238 -12.523,-60.568 -18.966,-62.806 -29.093,-66.326 -40.195,-60.947 -43.713,-50.819 -45.385,-46.005 -45.07,-40.746 -42.937,-36.194 -44.049,-34.695 -44.937,-33.03 -45.55,-31.258 -48.758,-22.027 -44.138,-11.939 -35.215,-8.259 -36.277,0.083 -31.396,8.344 -23.141,11.21 -13.671,14.5 -3.289,9.474 0,0" />
          </g>
          <g
             transform="matrix(0.6365362,0,0,-0.6365362,1138.371,461.8812)"
             id="g152040">
            <path
               inkscape:connector-curvature="0"
               id="path152042"
               style="fill:#ffffff;fill-opacity:1;fill-rule:nonzero;stroke:none"
               d="M 0,0 C 0.972,-2.791 0.986,-5.679 0.235,-8.32 8.092,-7.64 15.708,-12.304 18.415,-20.09 21.61,-29.298 16.741,-39.349 7.538,-42.548 2.825,-44.183 -2.102,-43.696 -6.224,-41.605 -5.58,-48.38 -9.585,-54.974 -16.302,-57.306 -24.193,-60.048 -32.808,-55.874 -35.549,-47.982 -37.223,-43.165 -36.307,-38.08 -33.549,-34.223 -35.242,-32.691 -36.587,-30.729 -37.389,-28.423 -39.933,-21.097 -36.058,-13.094 -28.731,-10.553 -27.783,-10.222 -26.827,-10.004 -25.871,-9.884 -25.979,-9.623 -26.095,-9.366 -26.187,-9.096 -28.7,-1.865 -24.873,6.034 -17.643,8.549 -10.413,11.059 -2.513,7.232 0,0" />
          </g>
          <g
             transform="matrix(0.6365362,0,0,-0.6365362,1119.361,474.6406)"
             id="g152044">
            <path
               inkscape:connector-curvature="0"
               id="path152046"
               style="fill:#cfd2d3;fill-opacity:1;fill-rule:nonzero;stroke:none"
               d="M 0,0 C 1.355,-5.961 9.968,-4.826 9.968,-4.826 9.968,-4.826 -2.077,-18.301 12.095,-22.156 26.265,-26.012 26.972,-10.379 26.972,-10.379 26.972,-10.379 31.837,-19.099 40.136,-13.359 46.059,-9.258 46.764,-1.049 46.682,3.313 47.316,2.27 47.861,1.154 48.28,-0.045 51.476,-9.253 46.606,-19.304 37.403,-22.503 32.69,-24.138 27.764,-23.651 23.642,-21.561 24.285,-28.335 20.28,-34.929 13.563,-37.261 5.672,-40.003 -2.942,-35.829 -5.684,-27.937 -7.357,-23.12 -6.441,-18.035 -3.684,-14.178 -5.377,-12.646 -6.722,-10.684 -7.523,-8.378 -10.067,-1.052 -6.192,6.951 1.134,9.492 1.875,9.752 2.623,9.922 3.373,10.049 2.44,9.142 -1.184,5.209 0,0" />
          </g>
          <g
             transform="matrix(0.6365362,0,0,-0.6365362,1139.441,474.648)"
             id="g152048">
            <path
               inkscape:connector-curvature="0"
               id="path152050"
               style="fill:#231c64;fill-opacity:1;fill-rule:nonzero;stroke:none"
               d="M 0,0 C 0,0 2.84,13.092 -13.009,13.817 -13.009,13.817 -4.811,17.536 0.211,12.438 4.754,7.83 0,0 0,0" />
          </g>
          <g
             transform="matrix(0.6365362,0,0,-0.6365362,1125.191,471.3268)"
             id="g152052">
            <path
               inkscape:connector-curvature="0"
               id="path152054"
               style="fill:#cfd2d3;fill-opacity:1;fill-rule:nonzero;stroke:none"
               d="M 0,0 C 0,0 -4.488,-12.618 11.137,-15.365 11.137,-15.365 2.531,-18.008 -1.8,-12.309 -5.716,-7.16 0,0 0,0" />
          </g>
          <g
             transform="matrix(0.6365362,0,0,-0.6365362,1122.073,479.713)"
             id="g152056">
            <path
               inkscape:connector-curvature="0"
               id="path152058"
               style="fill:#231c64;fill-opacity:1;fill-rule:nonzero;stroke:none"
               d="M 0,0 C 0,0 -11.986,-5.973 -2.641,-18.791 -2.641,-18.791 -10.669,-14.723 -9.837,-7.615 -9.081,-1.19 0,0 0,0" />
          </g>
          <g
             transform="matrix(0.6365362,0,0,-0.6365362,1127.06,488.7439)"
             id="g152060">
            <path
               inkscape:connector-curvature="0"
               id="path152062"
               style="fill:#231c64;fill-opacity:1;fill-rule:nonzero;stroke:none"
               d="M 0,0 C 0,0 12.799,-3.95 14.877,11.777 14.877,11.777 17.88,3.292 12.374,-1.275 7.396,-5.405 0,0 0,0" />
          </g>
        </g>
        <g
           id="g12472">
          <g
             transform="matrix(0.6365362,0,0,-0.6365362,789.855,571.0746)"
             id="g152064">
            <path
               inkscape:connector-curvature="0"
               id="path152066"
               style="fill:#231c64;fill-opacity:1;fill-rule:nonzero;stroke:none"
               d="M 0,0 C -1.859,0.647 -3.579,1.573 -5.12,2.743 -11.088,-2.821 -19.756,-4.792 -27.733,-2.015 -39.402,2.048 -45.589,14.846 -41.525,26.514 -40.213,30.28 -37.985,33.549 -35.046,36.078 -39.197,41.286 -40.532,48.362 -38.244,54.933 -34.648,65.263 -23.318,70.739 -12.989,67.144 -8.078,65.433 -4.07,61.854 -1.778,57.264 0.125,57.205 2.019,56.862 3.825,56.231 13.241,52.954 18.388,42.873 15.684,33.403 23.031,28.973 26.549,19.839 23.617,11.419 20.255,1.759 9.661,-3.365 0,0" />
          </g>
          <g
             transform="matrix(0.6365362,0,0,-0.6365362,790.777,568.4259)"
             id="g152068">
            <path
               inkscape:connector-curvature="0"
               id="path152070"
               style="fill:#ffffff;fill-opacity:1;fill-rule:nonzero;stroke:none"
               d="M 0,0 C -2.849,0.993 -5.169,2.808 -6.806,5.08 -11.234,-1.635 -19.788,-4.777 -27.731,-2.014 -37.121,1.259 -42.081,11.517 -38.813,20.904 -37.137,25.711 -33.63,29.343 -29.348,31.318 -35.176,35.092 -37.915,42.471 -35.529,49.319 -32.728,57.371 -23.935,61.621 -15.886,58.818 -10.972,57.107 -7.485,53.156 -6.144,48.508 -3.848,48.894 -1.426,48.726 0.927,47.908 8.398,45.306 12.349,37.14 9.745,29.669 9.409,28.7 8.978,27.798 8.469,26.958 8.746,26.878 9.025,26.81 9.299,26.711 16.675,24.146 20.572,16.084 18.007,8.707 15.438,1.333 7.377,-2.565 0,0" />
          </g>
          <g
             transform="matrix(0.6365362,0,0,-0.6365362,792.602,545.1388)"
             id="g152072">
            <path
               inkscape:connector-curvature="0"
               id="path152074"
               style="fill:#cfd2d3;fill-opacity:1;fill-rule:nonzero;stroke:none"
               d="M 0,0 C -5.627,2.689 -10.17,-4.919 -10.17,-4.919 -10.17,-4.919 -13.328,13.246 -25.383,4.349 -37.437,-4.546 -25.378,-15.007 -25.378,-15.007 -25.378,-15.007 -35.434,-13.381 -36.095,-23.653 -36.565,-30.987 -30.441,-36.749 -26.899,-39.446 -28.137,-39.291 -29.374,-39.021 -30.599,-38.598 -39.989,-35.325 -44.948,-25.067 -41.681,-15.68 -40.005,-10.873 -36.498,-7.241 -32.215,-5.266 -38.044,-1.492 -40.782,5.887 -38.397,12.735 -35.596,20.787 -26.802,25.037 -18.754,22.234 -13.84,20.523 -10.353,16.572 -9.012,11.924 -6.715,12.31 -4.293,12.142 -1.941,11.324 5.53,8.722 9.481,0.556 6.877,-6.915 6.615,-7.671 6.278,-8.378 5.905,-9.059 5.77,-7.737 4.917,-2.349 0,0" />
          </g>
          <g
             transform="matrix(0.6365362,0,0,-0.6365362,779.886,561.1983)"
             id="g152076">
            <path
               inkscape:connector-curvature="0"
               id="path152078"
               style="fill:#231c64;fill-opacity:1;fill-rule:nonzero;stroke:none"
               d="M 0,0 C 0,0 8.676,-10.561 19.289,1.661 19.289,1.661 17.075,-7.252 9.817,-8.044 3.255,-8.763 0,0 0,0" />
          </g>
          <g
             transform="matrix(0.6365362,0,0,-0.6365362,791.563,551.9002)"
             id="g152080">
            <path
               inkscape:connector-curvature="0"
               id="path152082"
               style="fill:#cfd2d3;fill-opacity:1;fill-rule:nonzero;stroke:none"
               d="M 0,0 C 0,0 -7.254,11.579 -19.343,0.817 -19.343,0.817 -16.008,9.374 -8.709,9.232 -2.11,9.104 0,0 0,0" />
          </g>
          <g
             transform="matrix(0.6365362,0,0,-0.6365362,786.827,544.0971)"
             id="g152084">
            <path
               inkscape:connector-curvature="0"
               id="path152086"
               style="fill:#231c64;fill-opacity:1;fill-rule:nonzero;stroke:none"
               d="M 0,0 C 0,0 2.81,13.371 -13.363,14.007 -13.363,14.007 -5.025,17.855 0.135,12.689 4.797,8.019 0,0 0,0" />
          </g>
          <g
             transform="matrix(0.6365362,0,0,-0.6365362,776.445,542.3708)"
             id="g152088">
            <path
               inkscape:connector-curvature="0"
               id="path152090"
               style="fill:#231c64;fill-opacity:1;fill-rule:nonzero;stroke:none"
               d="M 0,0 C 0,0 -11.262,-7.738 0.004,-19.355 0.004,-19.355 -8.685,-16.389 -8.853,-9.091 -9.005,-2.494 0,0 0,0" />
          </g>
          <g
             transform="matrix(0.6365362,0,0,-0.6365362,815.998,480.1201)"
             id="g152092">
            <path
               inkscape:connector-curvature="0"
               id="path152094"
               style="fill:#231c64;fill-opacity:1;fill-rule:nonzero;stroke:none"
               d="M 0,0 -40.004,-13.076 C -41.79,-10.615 -43.745,-8.522 -45.841,-6.83 -49.132,-4.177 -52.397,-2.704 -55.546,-2.453 -58.666,-2.203 -61.557,-3.207 -63.688,-5.283 -64.402,-5.976 -65.017,-6.776 -65.527,-7.664 -68.819,-5.579 -72.019,-4.399 -75.063,-4.158 -79.785,-3.78 -83.906,-5.733 -86.372,-9.517 -89.876,-14.892 -89.545,-22.882 -85.544,-31.146 L -86.125,-31.377 C -88.874,-25.565 -94.591,-21.427 -101.261,-20.894 -110.47,-20.157 -118.657,-26.393 -120.618,-35.159 -128.632,-35.991 -135.185,-42.449 -135.85,-50.761 -136.236,-55.598 -134.55,-60.289 -131.326,-63.748 -132.357,-66.277 -132.987,-68.932 -133.207,-71.676 -134.39,-86.482 -123.307,-99.492 -108.5,-100.675 -95.672,-101.699 -83.925,-93.322 -80.462,-81.196 -73.734,-78.962 -68.907,-72.948 -68.324,-65.646 -68.161,-63.616 -68.341,-61.618 -68.831,-59.72 -66.485,-62.626 -63.165,-65.104 -58.808,-65.453 -56.308,-65.652 -53.711,-65.127 -51.091,-63.896 -48.608,-62.729 -44.899,-59.865 -43.837,-53.011 -42.112,-53.049 -40.326,-52.698 -38.52,-51.966 -30.442,-48.695 -30.05,-37.356 -33.167,-27.028 L 0,0 Z" />
          </g>
          <g
             transform="matrix(0.6365362,0,0,-0.6365362,789.285,506.6886)"
             id="g152096">
            <path
               inkscape:connector-curvature="0"
               id="path152098"
               style="fill:#ffffff;fill-opacity:1;fill-rule:nonzero;stroke:none"
               d="M 0,0 C -2.229,-2.858 -4.783,-2.389 -6.724,-1.28 -7.233,1.573 -8.073,4.574 -9.205,7.577 L -1.156,13.275 C 0.922,7.67 1.737,2.227 0,0 M -19.051,24.198 C -18.705,26.545 -17.534,28.777 -14.461,29.339 -11.452,29.889 -7.815,26.106 -4.83,21.04 L -14.017,17.394 C -15.522,19.836 -17.208,22.14 -19.051,24.198 M 28.471,34.253 0.184,23.028 C -1.744,26.278 -4.083,29.188 -6.752,31.343 -15.098,38.075 -21.171,34.042 -20.746,25.967 -21.961,27.165 -23.229,28.263 -24.553,29.216 -39.032,39.646 -47.361,27.157 -38.719,11.157 -38.719,11.157 -43.267,23.963 -34.289,26.113 -30.206,27.09 -24.858,21.768 -20.51,14.818 L -47.101,4.268 C -47.886,10.614 -53.038,15.75 -59.661,16.278 -67.236,16.885 -73.866,11.236 -74.471,3.661 -74.52,3.049 -74.514,2.446 -74.484,1.849 -74.945,1.938 -75.414,2.01 -75.894,2.049 -82.759,2.598 -88.768,-2.523 -89.317,-9.386 -89.694,-14.106 -87.392,-18.42 -83.686,-20.835 -85.326,-23.644 -86.398,-26.842 -86.674,-30.303 -87.658,-42.609 -78.478,-53.385 -66.169,-54.368 -54.474,-55.303 -44.18,-47.054 -42.338,-35.671 -36.295,-34.817 -31.432,-29.88 -30.925,-23.541 -30.541,-18.731 -32.771,-14.326 -36.413,-11.688 L -14.935,3.521 C -12.733,-2.438 -11.927,-7.912 -13.706,-10.468 -18.823,-17.824 -26.349,-9.458 -26.349,-9.458 -26.349,-9.458 -22.054,-23.172 -11.075,-18.013 -7.165,-16.175 -5.756,-11.093 -6.262,-4.807 -4.463,-6.462 -1.877,-7.439 1.727,-5.979 7.239,-3.748 7.13,6.674 3.354,16.469 L 28.471,34.253 Z" />
          </g>
          <g
             transform="matrix(0.6365362,0,0,-0.6365362,790.884,505.6941)"
             id="g152100">
            <path
               inkscape:connector-curvature="0"
               id="path152102"
               style="fill:#cfd2d3;fill-opacity:1;fill-rule:nonzero;stroke:none"
               d="M 0,0 C -1.083,-6.376 -8.58,-4.915 -8.58,-4.915 L -9.236,-2.843 C -9.745,0.011 -10.584,3.012 -11.716,6.015 L -3.667,11.713 -2.398,13.12 C -2.398,13.12 1.084,6.379 0,0 M 25.959,32.69 -53.084,-15.434 C -53.084,-15.434 -43.94,-33.643 -56.286,-39.309 -73.879,-47.383 -83.58,-26.785 -73.077,-17.571 -73.077,-17.571 -85.032,-1.822 -68.386,3.98 -68.386,3.98 -71.952,4.287 -76.724,3.82 -76.841,3.259 -76.936,2.685 -76.983,2.099 -77.032,1.486 -77.026,0.884 -76.996,0.286 -77.457,0.376 -77.926,0.447 -78.405,0.486 -85.271,1.035 -91.279,-4.086 -91.829,-10.948 -92.206,-15.669 -89.903,-19.982 -86.197,-22.397 -87.838,-25.206 -88.91,-28.404 -89.186,-31.865 -90.17,-44.172 -80.989,-54.947 -68.681,-55.931 -56.985,-56.865 -46.692,-48.616 -44.85,-37.233 -38.807,-36.38 -33.944,-31.442 -33.437,-25.104 -33.052,-20.294 -35.283,-15.889 -38.924,-13.251 L -17.447,1.958 -14.934,3.637 C -14.934,3.637 -8.75,-10.646 -16.879,-15.312 -25.009,-19.977 -28.86,-11.021 -28.86,-11.021 -28.86,-11.021 -24.565,-24.734 -13.586,-19.575 -9.676,-17.737 -8.268,-12.655 -8.774,-6.369 -6.975,-8.024 -4.389,-9.002 -0.785,-7.542 4.728,-5.311 4.619,5.111 0.842,14.906 L 25.959,32.69 Z" />
          </g>
          <g
             transform="matrix(0.6365362,0,0,-0.6365362,740.426,526.5711)"
             id="g152104">
            <path
               inkscape:connector-curvature="0"
               id="path152106"
               style="fill:#231c64;fill-opacity:1;fill-rule:nonzero;stroke:none"
               d="M 0,0 C 0,0 -11.242,7.877 0.182,19.446 0.182,19.446 -8.577,16.545 -8.812,9.213 -9.025,2.588 0,0 0,0" />
          </g>
          <g
             transform="matrix(0.6365362,0,0,-0.6365362,763.901,522.5772)"
             id="g152108">
            <path
               inkscape:connector-curvature="0"
               id="path152110"
               style="fill:#231c64;fill-opacity:1;fill-rule:nonzero;stroke:none"
               d="M 0,0 C 0,0 1.697,-13.623 -14.547,-12.908 -14.547,-12.908 -6.521,-17.458 -0.924,-12.717 4.134,-8.433 0,0 0,0" />
          </g>
          <g
             transform="matrix(0.6365362,0,0,-0.6365362,742.334,512.8943)"
             id="g152112">
            <path
               inkscape:connector-curvature="0"
               id="path152114"
               style="fill:#231c64;fill-opacity:1;fill-rule:nonzero;stroke:none"
               d="M 0,0 C 0,0 -4.281,13.043 11.797,15.46 11.797,15.46 3.046,18.386 -1.536,12.656 -5.676,7.479 0,0 0,0" />
          </g>
          <g
             transform="matrix(0.6365362,0,0,-0.6365362,746.825,530.0528)"
             id="g152116">
            <path
               inkscape:connector-curvature="0"
               id="path152118"
               style="fill:#231c64;fill-opacity:1;fill-rule:nonzero;stroke:none"
               d="M 0,0 C 0,0 -13.047,4.267 -5.483,18.658 -5.483,18.658 -13.02,13.334 -11.111,6.251 -9.388,-0.149 0,0 0,0" />
          </g>
          <g
             transform="matrix(0.6365362,0,0,-0.6365362,759.303,503.9722)"
             id="g152120">
            <path
               inkscape:connector-curvature="0"
               id="path152122"
               style="fill:#231c64;fill-opacity:1;fill-rule:nonzero;stroke:none"
               d="M 0,0 -9.257,-4.272 1.177,4.087 0,0 Z" />
          </g>
          <g
             transform="matrix(0.6365362,0,0,-0.6365362,766.107,514.1288)"
             id="g152124">
            <path
               inkscape:connector-curvature="0"
               id="path152126"
               style="fill:#231c64;fill-opacity:1;fill-rule:nonzero;stroke:none"
               d="M 0,0 -10.91,-7.04 3.72,-1.316 0,0 Z" />
          </g>
          <g
             transform="matrix(0.6365362,0,0,-0.6365362,766.674,488.3075)"
             id="g152128">
            <path
               inkscape:connector-curvature="0"
               id="path152130"
               style="fill:#cfd2d3;fill-opacity:1;fill-rule:nonzero;stroke:none"
               d="M 0,0 C -8.86,-3.026 -3.198,-17.72 -3.198,-17.72 -3.198,-17.72 -7.745,-4.914 1.232,-2.764 5.315,-1.787 10.663,-7.109 15.011,-14.059 L 17.31,-13.448 C 17.31,-13.448 8.859,3.027 0,0" />
          </g>
          <g
             transform="matrix(0.6365362,0,0,-0.6365362,777.158,491.2857)"
             id="g152132">
            <path
               inkscape:connector-curvature="0"
               id="path152134"
               style="fill:#cfd2d3;fill-opacity:1;fill-rule:nonzero;stroke:none"
               d="M 0,0 C 0.346,2.347 1.517,4.579 4.589,5.141 7.599,5.69 11.236,1.908 14.221,-3.158 L 16.012,-2.227 C 16.012,-2.227 9.149,8.951 4.126,7.198 -0.898,5.445 0,0 0,0" />
          </g>
          <g
             transform="matrix(0.6365362,0,0,-0.6365362,758.3,509.5811)"
             id="g152136">
            <path
               inkscape:connector-curvature="0"
               id="path152138"
               style="fill:#cfd2d3;fill-opacity:1;fill-rule:nonzero;stroke:none"
               d="M 0,0 C 0,0 -0.068,-11.628 -9.213,-14.632 -9.213,-14.632 -3.246,-16.146 0.662,-9.676 3.642,-4.744 0,0 0,0" />
          </g>
        </g>
        <g
           id="g12548">
          <g
             transform="matrix(0.6365362,0,0,-0.6365362,1150.678,324.7351)"
             id="g152140">
            <path
               inkscape:connector-curvature="0"
               id="path152142"
               style="fill:#231c64;fill-opacity:1;fill-rule:nonzero;stroke:none"
               d="M 0,0 C -1.177,4.467 -4.208,8.187 -8.362,10.248 -15.403,13.742 -23.981,11.563 -28.503,5.195 -36.592,8.083 -45.839,4.476 -49.759,-3.387 -52.57,-9.057 -51.999,-15.945 -48.327,-21.095 L -49.71,-22.15 C -54.399,-14.747 -60.742,-10.366 -66.77,-10.404 -70.801,-10.429 -74.303,-12.501 -76.372,-16.089 -78.166,-19.206 -78.867,-23.284 -78.454,-28.211 -78.31,-29.925 -78.006,-31.715 -77.524,-33.701 L -76.861,-36.126 C -76.323,-37.86 -75.651,-39.634 -74.863,-41.412 L -118.045,-77.444 -65.337,-56.202 C -63.825,-57.918 -62.245,-59.494 -60.62,-60.909 L -57.789,-63.161 -57.643,-63.271 C -50.837,-68.131 -44.505,-69.073 -39.81,-65.923 -37.807,-64.577 -36.255,-62.973 -35.208,-61.158 -31.134,-54.092 -35.928,-46.567 -37.781,-44.091 L -37.234,-43.852 C -35.684,-47.571 -32.849,-50.598 -29.193,-52.41 -22.979,-55.495 -15.707,-54.523 -10.574,-49.951 0.558,-53.076 12.753,-48.14 18.521,-38.131 18.793,-37.665 19.05,-37.189 19.288,-36.703 25.562,-24.057 20.376,-8.666 7.731,-2.395 5.29,-1.185 2.691,-0.379 0,0" />
          </g>
          <g
             transform="matrix(0.6365362,0,0,-0.6365362,1148.534,327.0549)"
             id="g152144">
            <path
               inkscape:connector-curvature="0"
               id="path152146"
               style="fill:#ffffff;fill-opacity:1;fill-rule:nonzero;stroke:none"
               d="M 0,0 C -0.163,4.291 -2.604,8.363 -6.722,10.406 -12.712,13.377 -19.975,10.928 -22.946,4.939 -23.155,4.52 -23.33,4.095 -23.482,3.666 -23.967,3.988 -24.465,4.294 -25,4.559 -31.608,7.838 -39.623,5.138 -42.901,-1.469 -45.768,-7.249 -44.063,-14.104 -39.171,-17.925 L -61.231,-34.796 C -64.849,-27.706 -66.608,-20.595 -63.756,-17.684 -57.485,-11.283 -49.09,-21.464 -49.09,-21.464 -58.099,-6.279 -72.658,-6.98 -71.202,-24.237 -71.071,-25.818 -70.789,-27.425 -70.399,-29.036 L -69.771,-31.329 C -68.979,-33.892 -67.9,-36.445 -66.622,-38.919 L -74.242,-44.747 -78.402,-47.928 -101.875,-65.875 -74.524,-53.843 -69.614,-51.683 -60.85,-47.825 C -58.915,-50.269 -56.834,-52.465 -54.715,-54.314 L -52.009,-56.462 C -47.024,-60.019 -42.093,-61.383 -38.61,-59.046 -28.832,-52.482 -38.105,-42.06 -38.105,-42.06 -38.105,-42.06 -34.897,-52.503 -43.577,-53.09 -46.592,-53.295 -50.748,-49.889 -54.607,-45.082 L -31.222,-34.792 C -30.846,-39.143 -28.292,-43.198 -24.093,-45.278 -18.562,-48.023 -12.026,-46.441 -8.296,-41.835 2.102,-45.983 14.11,-41.533 19.173,-31.328 24.498,-20.588 20.11,-7.564 9.372,-2.238 6.353,-0.741 3.156,-0.035 0,0" />
          </g>
          <g
             transform="matrix(0.6365362,0,0,-0.6365362,1148.534,327.0549)"
             id="g152148">
            <path
               inkscape:connector-curvature="0"
               id="path152150"
               style="fill:#cfd2d3;fill-opacity:1;fill-rule:nonzero;stroke:none"
               d="M 0,0 C -0.163,4.291 -2.604,8.363 -6.722,10.406 -12.712,13.377 -19.975,10.928 -22.946,4.939 -23.155,4.52 -23.33,4.095 -23.482,3.666 -23.967,3.988 -24.465,4.294 -25,4.559 -25.32,4.717 -25.645,4.852 -25.972,4.981 -26.166,5.059 -26.358,5.132 -26.553,5.201 -26.558,5.201 -26.56,5.204 -26.563,5.204 -29.333,1.466 -30.857,-1.658 -30.857,-1.658 -17.717,9.305 -10.573,-8.512 -10.573,-8.512 2.345,-4.371 14.648,-22.731 -0.859,-33.35 -11.738,-40.8 -22.335,-24.093 -22.335,-24.093 L -101.875,-65.875 -74.524,-53.843 -69.614,-51.683 -60.85,-47.825 C -58.915,-50.269 -56.834,-52.465 -54.715,-54.314 L -52.009,-56.462 C -47.024,-60.019 -42.093,-61.383 -38.61,-59.046 -28.832,-52.482 -38.105,-42.06 -38.105,-42.06 -38.105,-42.06 -32.57,-49.736 -40.518,-54.178 -48.457,-58.615 -57.265,-46.333 -57.265,-46.333 L -54.607,-45.082 -31.222,-34.792 C -30.846,-39.143 -28.292,-43.198 -24.093,-45.278 -18.562,-48.023 -12.026,-46.441 -8.296,-41.835 2.102,-45.983 14.11,-41.533 19.173,-31.328 24.498,-20.588 20.11,-7.564 9.372,-2.238 6.353,-0.741 3.156,-0.035 0,0" />
          </g>
          <g
             transform="matrix(0.6365362,0,0,-0.6365362,1151.842,334.0323)"
             id="g152152">
            <path
               inkscape:connector-curvature="0"
               id="path152154"
               style="fill:#231c64;fill-opacity:1;fill-rule:nonzero;stroke:none"
               d="M 0,0 C 0,0 -0.945,13.292 -16.281,9.559 -16.281,9.559 -9.492,15.401 -3.269,11.937 2.354,8.804 0,0 0,0" />
          </g>
          <g
             transform="matrix(0.6365362,0,0,-0.6365362,1136.795,351.5843)"
             id="g152156">
            <path
               inkscape:connector-curvature="0"
               id="path152158"
               style="fill:#231c64;fill-opacity:1;fill-rule:nonzero;stroke:none"
               d="M 0,0 C 0,0 10.495,-8.213 18.012,5.669 18.012,5.669 17.791,-3.289 11.049,-5.58 4.955,-7.65 0,0 0,0" />
          </g>
          <g
             transform="matrix(0.6365362,0,0,-0.6365362,1139.502,328.7917)"
             id="g152160">
            <path
               inkscape:connector-curvature="0"
               id="path152162"
               style="fill:#231c64;fill-opacity:1;fill-rule:nonzero;stroke:none"
               d="M 0,0 C 0,0 -8.723,10.076 -18.765,-2.103 -18.765,-2.103 -16.83,6.648 -9.773,7.601 -3.394,8.461 0,0 0,0" />
          </g>
          <g
             transform="matrix(0.6365362,0,0,-0.6365362,1151.544,341.0979)"
             id="g152164">
            <path
               inkscape:connector-curvature="0"
               id="path152166"
               style="fill:#231c64;fill-opacity:1;fill-rule:nonzero;stroke:none"
               d="M 0,0 C 0,0 2.966,12.995 -12.795,13.88 -12.795,13.88 -4.599,17.498 0.347,12.373 4.813,7.739 0,0 0,0" />
          </g>
          <g
             transform="matrix(0.6365362,0,0,-0.6365362,1123.599,338.465)"
             id="g152168">
            <path
               inkscape:connector-curvature="0"
               id="path152170"
               style="fill:#231c64;fill-opacity:1;fill-rule:nonzero;stroke:none"
               d="M 0,0 8.182,5.575 -3.989,1.061 0,0 Z" />
          </g>
          <g
             transform="matrix(0.6365362,0,0,-0.6365362,1128.66,349.201)"
             id="g152172">
            <path
               inkscape:connector-curvature="0"
               id="path152174"
               style="fill:#231c64;fill-opacity:1;fill-rule:nonzero;stroke:none"
               d="M 0,0 11.309,5.565 -0.766,-3.754 0,0 Z" />
          </g>
          <g
             transform="matrix(0.6365362,0,0,-0.6365362,1106.878,336.7795)"
             id="g152176">
            <path
               inkscape:connector-curvature="0"
               id="path152178"
               style="fill:#cfd2d3;fill-opacity:1;fill-rule:nonzero;stroke:none"
               d="M 0,0 C 6.941,5.866 16.352,-6.187 16.352,-6.187 16.352,-6.187 7.956,3.994 1.686,-2.406 -1.167,-5.318 0.593,-12.428 4.21,-19.519 L 2.552,-21.129 C 2.552,-21.129 -6.946,-5.866 0,0" />
          </g>
          <g
             transform="matrix(0.6365362,0,0,-0.6365362,1128.77,340.4299)"
             id="g152180">
            <path
               inkscape:connector-curvature="0"
               id="path152182"
               style="fill:#cfd2d3;fill-opacity:1;fill-rule:nonzero;stroke:none"
               d="M 0,0 C 0,0 9.718,-5.751 16.784,0.363 16.784,0.363 15.067,-5.36 7.729,-5.382 2.132,-5.401 0,0 0,0" />
          </g>
        </g>
      </g>
    </g>
  </g>
</svg>
