<?xml version="1.0" encoding="utf-8"?>
<svg xmlns="http://www.w3.org/2000/svg" xmlns:xlink="http://www.w3.org/1999/xlink" width="2700" height="1200" viewBox="0 0 10800 4800">
<defs>
  <clipPath id="clip3700">
    <rect x="0" y="0" width="10800" height="4800"/>
  </clipPath>
</defs>
<polygon clip-path="url(#clip3700)" points="
0,4800 10800,4800 10800,0 0,0 
  " fill="#ffffff" fill-rule="evenodd" fill-opacity="1"/>
<defs>
  <clipPath id="clip3701">
    <rect x="2160" y="0" width="7561" height="4800"/>
  </clipPath>
</defs>
<polygon clip-path="url(#clip3700)" points="
555.493,4352.67 3322.25,4352.67 3322.25,377.953 555.493,377.953 
  " fill="#ffffff" fill-rule="evenodd" fill-opacity="1"/>
<defs>
  <clipPath id="clip3702">
    <rect x="555" y="377" width="2768" height="3976"/>
  </clipPath>
</defs>
<polyline clip-path="url(#clip3702)" style="stroke:#000000; stroke-width:6; stroke-opacity:0.1; fill:none" points="
  555.493,4352.67 555.493,377.953 
  "/>
<polyline clip-path="url(#clip3702)" style="stroke:#000000; stroke-width:6; stroke-opacity:0.1; fill:none" points="
  1247.18,4352.67 1247.18,377.953 
  "/>
<polyline clip-path="url(#clip3702)" style="stroke:#000000; stroke-width:6; stroke-opacity:0.1; fill:none" points="
  1938.87,4352.67 1938.87,377.953 
  "/>
<polyline clip-path="url(#clip3702)" style="stroke:#000000; stroke-width:6; stroke-opacity:0.1; fill:none" points="
  2630.56,4352.67 2630.56,377.953 
  "/>
<polyline clip-path="url(#clip3702)" style="stroke:#000000; stroke-width:6; stroke-opacity:0.1; fill:none" points="
  3322.25,4352.67 3322.25,377.953 
  "/>
<polyline clip-path="url(#clip3702)" style="stroke:#000000; stroke-width:6; stroke-opacity:0.1; fill:none" points="
  555.493,4352.67 3322.25,4352.67 
  "/>
<polyline clip-path="url(#clip3702)" style="stroke:#000000; stroke-width:6; stroke-opacity:0.1; fill:none" points="
  555.493,3027.76 3322.25,3027.76 
  "/>
<polyline clip-path="url(#clip3702)" style="stroke:#000000; stroke-width:6; stroke-opacity:0.1; fill:none" points="
  555.493,1702.86 3322.25,1702.86 
  "/>
<polyline clip-path="url(#clip3702)" style="stroke:#000000; stroke-width:6; stroke-opacity:0.1; fill:none" points="
  555.493,377.953 3322.25,377.953 
  "/>
<polyline clip-path="url(#clip3700)" style="stroke:#000000; stroke-width:12; stroke-opacity:1; fill:none" points="
  555.493,4352.67 3322.25,4352.67 
  "/>
<polyline clip-path="url(#clip3700)" style="stroke:#000000; stroke-width:12; stroke-opacity:1; fill:none" points="
  555.493,4352.67 555.493,377.953 
  "/>
<polyline clip-path="url(#clip3700)" style="stroke:#000000; stroke-width:12; stroke-opacity:1; fill:none" points="
  555.493,4352.67 555.493,4293.05 
  "/>
<polyline clip-path="url(#clip3700)" style="stroke:#000000; stroke-width:12; stroke-opacity:1; fill:none" points="
  1247.18,4352.67 1247.18,4293.05 
  "/>
<polyline clip-path="url(#clip3700)" style="stroke:#000000; stroke-width:12; stroke-opacity:1; fill:none" points="
  1938.87,4352.67 1938.87,4293.05 
  "/>
<polyline clip-path="url(#clip3700)" style="stroke:#000000; stroke-width:12; stroke-opacity:1; fill:none" points="
  2630.56,4352.67 2630.56,4293.05 
  "/>
<polyline clip-path="url(#clip3700)" style="stroke:#000000; stroke-width:12; stroke-opacity:1; fill:none" points="
  3322.25,4352.67 3322.25,4293.05 
  "/>
<polyline clip-path="url(#clip3700)" style="stroke:#000000; stroke-width:12; stroke-opacity:1; fill:none" points="
  555.493,4352.67 596.995,4352.67 
  "/>
<polyline clip-path="url(#clip3700)" style="stroke:#000000; stroke-width:12; stroke-opacity:1; fill:none" points="
  555.493,3027.76 596.995,3027.76 
  "/>
<polyline clip-path="url(#clip3700)" style="stroke:#000000; stroke-width:12; stroke-opacity:1; fill:none" points="
  555.493,1702.86 596.995,1702.86 
  "/>
<polyline clip-path="url(#clip3700)" style="stroke:#000000; stroke-width:12; stroke-opacity:1; fill:none" points="
  555.493,377.953 596.995,377.953 
  "/>
<g clip-path="url(#clip3700)">
<text style="fill:#000000; fill-opacity:1; font-family:Arial,Helvetica Neue,Helvetica,sans-serif; font-size:143px; text-anchor:middle;" transform="rotate(0, 555.493, 4531.47)" x="555.493" y="4531.47">0.01</text>
</g>
<g clip-path="url(#clip3700)">
<text style="fill:#000000; fill-opacity:1; font-family:Arial,Helvetica Neue,Helvetica,sans-serif; font-size:143px; text-anchor:middle;" transform="rotate(0, 1247.18, 4531.47)" x="1247.18" y="4531.47">0.1</text>
</g>
<g clip-path="url(#clip3700)">
<text style="fill:#000000; fill-opacity:1; font-family:Arial,Helvetica Neue,Helvetica,sans-serif; font-size:143px; text-anchor:middle;" transform="rotate(0, 1938.87, 4531.47)" x="1938.87" y="4531.47">1.0</text>
</g>
<g clip-path="url(#clip3700)">
<text style="fill:#000000; fill-opacity:1; font-family:Arial,Helvetica Neue,Helvetica,sans-serif; font-size:143px; text-anchor:middle;" transform="rotate(0, 2630.56, 4531.47)" x="2630.56" y="4531.47">10.0</text>
</g>
<g clip-path="url(#clip3700)">
<text style="fill:#000000; fill-opacity:1; font-family:Arial,Helvetica Neue,Helvetica,sans-serif; font-size:143px; text-anchor:middle;" transform="rotate(0, 3322.25, 4531.47)" x="3322.25" y="4531.47">100.0</text>
</g>
<g clip-path="url(#clip3700)">
<text style="fill:#000000; fill-opacity:1; font-family:Arial,Helvetica Neue,Helvetica,sans-serif; font-size:143px; text-anchor:end;" transform="rotate(0, 447.493, 4404.67)" x="447.493" y="4404.67">0</text>
</g>
<g clip-path="url(#clip3700)">
<text style="fill:#000000; fill-opacity:1; font-family:Arial,Helvetica Neue,Helvetica,sans-serif; font-size:143px; text-anchor:end;" transform="rotate(0, 447.493, 3079.76)" x="447.493" y="3079.76">1</text>
</g>
<g clip-path="url(#clip3700)">
<text style="fill:#000000; fill-opacity:1; font-family:Arial,Helvetica Neue,Helvetica,sans-serif; font-size:143px; text-anchor:end;" transform="rotate(0, 447.493, 1754.86)" x="447.493" y="1754.86">2</text>
</g>
<g clip-path="url(#clip3700)">
<text style="fill:#000000; fill-opacity:1; font-family:Arial,Helvetica Neue,Helvetica,sans-serif; font-size:143px; text-anchor:end;" transform="rotate(0, 447.493, 429.953)" x="447.493" y="429.953">3</text>
</g>
<g clip-path="url(#clip3700)">
<text style="fill:#000000; fill-opacity:1; font-family:Arial,Helvetica Neue,Helvetica,sans-serif; font-size:248px; text-anchor:middle;" transform="rotate(0, 1938.87, 217.2)" x="1938.87" y="217.2">Salt conc.</text>
</g>
<g clip-path="url(#clip3700)">
<text style="fill:#000000; fill-opacity:1; font-family:Arial,Helvetica Neue,Helvetica,sans-serif; font-size:196px; text-anchor:middle;" transform="rotate(0, 1938.87, 4771.4)" x="1938.87" y="4771.4">Time (h)</text>
</g>
<g clip-path="url(#clip3700)">
<text style="fill:#000000; fill-opacity:1; font-family:Arial,Helvetica Neue,Helvetica,sans-serif; font-size:196px; text-anchor:middle;" transform="rotate(-90, 171.6, 2365.31)" x="171.6" y="2365.31">Membrane resistance (Ohm)</text>
</g>
<polyline clip-path="url(#clip3702)" style="stroke:#bcd6e7; stroke-width:12; stroke-opacity:0.35; fill:none" points="
  -9.41574e+39,4352.67 1259.37,4175.79 1934.81,2600.66 2101.15,1843.7 2292.85,1293.39 2401.65,982.82 
  "/>
<circle clip-path="url(#clip3702)" style="fill:#000000; stroke:none; fill-opacity:1" cx="1259.37" cy="4175.79" r="53"/>
<circle clip-path="url(#clip3702)" style="fill:#bcd6e7; stroke:none; fill-opacity:1" cx="1259.37" cy="4175.79" r="43"/>
<circle clip-path="url(#clip3702)" style="fill:#000000; stroke:none; fill-opacity:1" cx="1934.81" cy="2600.66" r="53"/>
<circle clip-path="url(#clip3702)" style="fill:#bcd6e7; stroke:none; fill-opacity:1" cx="1934.81" cy="2600.66" r="43"/>
<circle clip-path="url(#clip3702)" style="fill:#000000; stroke:none; fill-opacity:1" cx="2101.15" cy="1843.7" r="53"/>
<circle clip-path="url(#clip3702)" style="fill:#bcd6e7; stroke:none; fill-opacity:1" cx="2101.15" cy="1843.7" r="43"/>
<circle clip-path="url(#clip3702)" style="fill:#000000; stroke:none; fill-opacity:1" cx="2292.85" cy="1293.39" r="53"/>
<circle clip-path="url(#clip3702)" style="fill:#bcd6e7; stroke:none; fill-opacity:1" cx="2292.85" cy="1293.39" r="43"/>
<circle clip-path="url(#clip3702)" style="fill:#000000; stroke:none; fill-opacity:1" cx="2401.65" cy="982.82" r="53"/>
<circle clip-path="url(#clip3702)" style="fill:#bcd6e7; stroke:none; fill-opacity:1" cx="2401.65" cy="982.82" r="43"/>
<polyline clip-path="url(#clip3702)" style="stroke:#6badd5; stroke-width:12; stroke-opacity:0.35; fill:none" points="
  1115.03,4243.32 1943.92,4164.68 2147.4,3944.52 2269.3,3555.2 2391.18,2918.93 2423.79,2718.09 
  "/>
<circle clip-path="url(#clip3702)" style="fill:#000000; stroke:none; fill-opacity:1" cx="1115.03" cy="4243.32" r="53"/>
<circle clip-path="url(#clip3702)" style="fill:#6badd5; stroke:none; fill-opacity:1" cx="1115.03" cy="4243.32" r="43"/>
<circle clip-path="url(#clip3702)" style="fill:#000000; stroke:none; fill-opacity:1" cx="1943.92" cy="4164.68" r="53"/>
<circle clip-path="url(#clip3702)" style="fill:#6badd5; stroke:none; fill-opacity:1" cx="1943.92" cy="4164.68" r="43"/>
<circle clip-path="url(#clip3702)" style="fill:#000000; stroke:none; fill-opacity:1" cx="2147.4" cy="3944.52" r="53"/>
<circle clip-path="url(#clip3702)" style="fill:#6badd5; stroke:none; fill-opacity:1" cx="2147.4" cy="3944.52" r="43"/>
<circle clip-path="url(#clip3702)" style="fill:#000000; stroke:none; fill-opacity:1" cx="2269.3" cy="3555.2" r="53"/>
<circle clip-path="url(#clip3702)" style="fill:#6badd5; stroke:none; fill-opacity:1" cx="2269.3" cy="3555.2" r="43"/>
<circle clip-path="url(#clip3702)" style="fill:#000000; stroke:none; fill-opacity:1" cx="2391.18" cy="2918.93" r="53"/>
<circle clip-path="url(#clip3702)" style="fill:#6badd5; stroke:none; fill-opacity:1" cx="2391.18" cy="2918.93" r="43"/>
<circle clip-path="url(#clip3702)" style="fill:#000000; stroke:none; fill-opacity:1" cx="2423.79" cy="2718.09" r="53"/>
<circle clip-path="url(#clip3702)" style="fill:#6badd5; stroke:none; fill-opacity:1" cx="2423.79" cy="2718.09" r="43"/>
<polyline clip-path="url(#clip3702)" style="stroke:#2070b5; stroke-width:12; stroke-opacity:0.35; fill:none" points="
  -9.41574e+39,4352.67 1307.98,4349.72 2263.74,4340.52 2431.18,4345.3 2887.17,4338.06 2948.99,4343.26 3108.65,3708.75 3143.92,3455.6 3226.18,2220.15 3261.99,1031.13 
  3293.87,530.421 
  "/>
<circle clip-path="url(#clip3702)" style="fill:#000000; stroke:none; fill-opacity:1" cx="1307.98" cy="4349.72" r="53"/>
<circle clip-path="url(#clip3702)" style="fill:#2070b5; stroke:none; fill-opacity:1" cx="1307.98" cy="4349.72" r="43"/>
<circle clip-path="url(#clip3702)" style="fill:#000000; stroke:none; fill-opacity:1" cx="2263.74" cy="4340.52" r="53"/>
<circle clip-path="url(#clip3702)" style="fill:#2070b5; stroke:none; fill-opacity:1" cx="2263.74" cy="4340.52" r="43"/>
<circle clip-path="url(#clip3702)" style="fill:#000000; stroke:none; fill-opacity:1" cx="2431.18" cy="4345.3" r="53"/>
<circle clip-path="url(#clip3702)" style="fill:#2070b5; stroke:none; fill-opacity:1" cx="2431.18" cy="4345.3" r="43"/>
<circle clip-path="url(#clip3702)" style="fill:#000000; stroke:none; fill-opacity:1" cx="2887.17" cy="4338.06" r="53"/>
<circle clip-path="url(#clip3702)" style="fill:#2070b5; stroke:none; fill-opacity:1" cx="2887.17" cy="4338.06" r="43"/>
<circle clip-path="url(#clip3702)" style="fill:#000000; stroke:none; fill-opacity:1" cx="2948.99" cy="4343.26" r="53"/>
<circle clip-path="url(#clip3702)" style="fill:#2070b5; stroke:none; fill-opacity:1" cx="2948.99" cy="4343.26" r="43"/>
<circle clip-path="url(#clip3702)" style="fill:#000000; stroke:none; fill-opacity:1" cx="3108.65" cy="3708.75" r="53"/>
<circle clip-path="url(#clip3702)" style="fill:#2070b5; stroke:none; fill-opacity:1" cx="3108.65" cy="3708.75" r="43"/>
<circle clip-path="url(#clip3702)" style="fill:#000000; stroke:none; fill-opacity:1" cx="3143.92" cy="3455.6" r="53"/>
<circle clip-path="url(#clip3702)" style="fill:#2070b5; stroke:none; fill-opacity:1" cx="3143.92" cy="3455.6" r="43"/>
<circle clip-path="url(#clip3702)" style="fill:#000000; stroke:none; fill-opacity:1" cx="3226.18" cy="2220.15" r="53"/>
<circle clip-path="url(#clip3702)" style="fill:#2070b5; stroke:none; fill-opacity:1" cx="3226.18" cy="2220.15" r="43"/>
<circle clip-path="url(#clip3702)" style="fill:#000000; stroke:none; fill-opacity:1" cx="3261.99" cy="1031.13" r="53"/>
<circle clip-path="url(#clip3702)" style="fill:#2070b5; stroke:none; fill-opacity:1" cx="3261.99" cy="1031.13" r="43"/>
<circle clip-path="url(#clip3702)" style="fill:#000000; stroke:none; fill-opacity:1" cx="3293.87" cy="530.421" r="53"/>
<circle clip-path="url(#clip3702)" style="fill:#2070b5; stroke:none; fill-opacity:1" cx="3293.87" cy="530.421" r="43"/>
<polygon clip-path="url(#clip3700)" points="
879.493,1570.27 2633.56,1570.27 2633.56,844.513 879.493,844.513 
  " fill="#ffffff" fill-rule="evenodd" fill-opacity="1"/>
<polyline clip-path="url(#clip3700)" style="stroke:#000000; stroke-width:12; stroke-opacity:1; fill:none" points="
  879.493,1570.27 2633.56,1570.27 2633.56,844.513 879.493,844.513 879.493,1570.27 
  "/>
<polyline clip-path="url(#clip3700)" style="stroke:#bcd6e7; stroke-width:12; stroke-opacity:0.35; fill:none" points="
  987.493,1025.95 1635.49,1025.95 
  "/>
<circle clip-path="url(#clip3700)" style="fill:#000000; stroke:none; fill-opacity:1" cx="1365.49" cy="1025.95" r="75"/>
<circle clip-path="url(#clip3700)" style="fill:#bcd6e7; stroke:none; fill-opacity:1" cx="1365.49" cy="1025.95" r="64"/>
<g clip-path="url(#clip3700)">
<text style="fill:#000000; fill-opacity:1; font-family:Arial,Helvetica Neue,Helvetica,sans-serif; font-size:143px; text-anchor:start;" transform="rotate(0, 1743.49, 1077.95)" x="1743.49" y="1077.95">0.03M KCl</text>
</g>
<polyline clip-path="url(#clip3700)" style="stroke:#6badd5; stroke-width:12; stroke-opacity:0.35; fill:none" points="
  987.493,1207.39 1635.49,1207.39 
  "/>
<circle clip-path="url(#clip3700)" style="fill:#000000; stroke:none; fill-opacity:1" cx="1365.49" cy="1207.39" r="75"/>
<circle clip-path="url(#clip3700)" style="fill:#6badd5; stroke:none; fill-opacity:1" cx="1365.49" cy="1207.39" r="64"/>
<g clip-path="url(#clip3700)">
<text style="fill:#000000; fill-opacity:1; font-family:Arial,Helvetica Neue,Helvetica,sans-serif; font-size:143px; text-anchor:start;" transform="rotate(0, 1743.49, 1259.39)" x="1743.49" y="1259.39">0.04M KCl</text>
</g>
<polyline clip-path="url(#clip3700)" style="stroke:#2070b5; stroke-width:12; stroke-opacity:0.35; fill:none" points="
  987.493,1388.83 1635.49,1388.83 
  "/>
<circle clip-path="url(#clip3700)" style="fill:#000000; stroke:none; fill-opacity:1" cx="1365.49" cy="1388.83" r="75"/>
<circle clip-path="url(#clip3700)" style="fill:#2070b5; stroke:none; fill-opacity:1" cx="1365.49" cy="1388.83" r="64"/>
<g clip-path="url(#clip3700)">
<text style="fill:#000000; fill-opacity:1; font-family:Arial,Helvetica Neue,Helvetica,sans-serif; font-size:143px; text-anchor:start;" transform="rotate(0, 1743.49, 1440.83)" x="1743.49" y="1440.83">0.1M KCl</text>
</g>
<polygon clip-path="url(#clip3700)" points="
426891,4352.67 487196,4352.67 487196,377.953 426891,377.953 
  " fill="#ffffff" fill-rule="evenodd" fill-opacity="1"/>
<defs>
  <clipPath id="clip3703">
    <rect x="4113" y="377" width="2768" height="3976"/>
  </clipPath>
</defs>
<polyline clip-path="url(#clip3703)" style="stroke:#000000; stroke-width:6; stroke-opacity:0.1; fill:none" points="
  4183.46,4352.67 4183.46,377.953 
  "/>
<polyline clip-path="url(#clip3703)" style="stroke:#000000; stroke-width:6; stroke-opacity:0.1; fill:none" points="
  4582.27,4352.67 4582.27,377.953 
  "/>
<polyline clip-path="url(#clip3703)" style="stroke:#000000; stroke-width:6; stroke-opacity:0.1; fill:none" points="
  4981.08,4352.67 4981.08,377.953 
  "/>
<polyline clip-path="url(#clip3703)" style="stroke:#000000; stroke-width:6; stroke-opacity:0.1; fill:none" points="
  5379.89,4352.67 5379.89,377.953 
  "/>
<polyline clip-path="url(#clip3703)" style="stroke:#000000; stroke-width:6; stroke-opacity:0.1; fill:none" points="
  5778.7,4352.67 5778.7,377.953 
  "/>
<polyline clip-path="url(#clip3703)" style="stroke:#000000; stroke-width:6; stroke-opacity:0.1; fill:none" points="
  6177.51,4352.67 6177.51,377.953 
  "/>
<polyline clip-path="url(#clip3703)" style="stroke:#000000; stroke-width:6; stroke-opacity:0.1; fill:none" points="
  6576.32,4352.67 6576.32,377.953 
  "/>
<polyline clip-path="url(#clip3703)" style="stroke:#000000; stroke-width:6; stroke-opacity:0.1; fill:none" points="
  4113.97,4352.67 6880.73,4352.67 
  "/>
<polyline clip-path="url(#clip3703)" style="stroke:#000000; stroke-width:6; stroke-opacity:0.1; fill:none" points="
  4113.97,3358.99 6880.73,3358.99 
  "/>
<polyline clip-path="url(#clip3703)" style="stroke:#000000; stroke-width:6; stroke-opacity:0.1; fill:none" points="
  4113.97,2365.31 6880.73,2365.31 
  "/>
<polyline clip-path="url(#clip3703)" style="stroke:#000000; stroke-width:6; stroke-opacity:0.1; fill:none" points="
  4113.97,1371.63 6880.73,1371.63 
  "/>
<polyline clip-path="url(#clip3703)" style="stroke:#000000; stroke-width:6; stroke-opacity:0.1; fill:none" points="
  4113.97,377.953 6880.73,377.953 
  "/>
<polyline clip-path="url(#clip3700)" style="stroke:#000000; stroke-width:12; stroke-opacity:1; fill:none" points="
  4113.97,4352.67 6880.73,4352.67 
  "/>
<polyline clip-path="url(#clip3700)" style="stroke:#000000; stroke-width:12; stroke-opacity:1; fill:none" points="
  4113.97,4352.67 4113.97,377.953 
  "/>
<polyline clip-path="url(#clip3700)" style="stroke:#000000; stroke-width:12; stroke-opacity:1; fill:none" points="
  4183.46,4352.67 4183.46,4293.05 
  "/>
<polyline clip-path="url(#clip3700)" style="stroke:#000000; stroke-width:12; stroke-opacity:1; fill:none" points="
  4582.27,4352.67 4582.27,4293.05 
  "/>
<polyline clip-path="url(#clip3700)" style="stroke:#000000; stroke-width:12; stroke-opacity:1; fill:none" points="
  4981.08,4352.67 4981.08,4293.05 
  "/>
<polyline clip-path="url(#clip3700)" style="stroke:#000000; stroke-width:12; stroke-opacity:1; fill:none" points="
  5379.89,4352.67 5379.89,4293.05 
  "/>
<polyline clip-path="url(#clip3700)" style="stroke:#000000; stroke-width:12; stroke-opacity:1; fill:none" points="
  5778.7,4352.67 5778.7,4293.05 
  "/>
<polyline clip-path="url(#clip3700)" style="stroke:#000000; stroke-width:12; stroke-opacity:1; fill:none" points="
  6177.51,4352.67 6177.51,4293.05 
  "/>
<polyline clip-path="url(#clip3700)" style="stroke:#000000; stroke-width:12; stroke-opacity:1; fill:none" points="
  6576.32,4352.67 6576.32,4293.05 
  "/>
<polyline clip-path="url(#clip3700)" style="stroke:#000000; stroke-width:12; stroke-opacity:1; fill:none" points="
  4113.97,4352.67 4155.47,4352.67 
  "/>
<polyline clip-path="url(#clip3700)" style="stroke:#000000; stroke-width:12; stroke-opacity:1; fill:none" points="
  4113.97,3358.99 4155.47,3358.99 
  "/>
<polyline clip-path="url(#clip3700)" style="stroke:#000000; stroke-width:12; stroke-opacity:1; fill:none" points="
  4113.97,2365.31 4155.47,2365.31 
  "/>
<polyline clip-path="url(#clip3700)" style="stroke:#000000; stroke-width:12; stroke-opacity:1; fill:none" points="
  4113.97,1371.63 4155.47,1371.63 
  "/>
<polyline clip-path="url(#clip3700)" style="stroke:#000000; stroke-width:12; stroke-opacity:1; fill:none" points="
  4113.97,377.953 4155.47,377.953 
  "/>
<g clip-path="url(#clip3700)">
<text style="fill:#000000; fill-opacity:1; font-family:Arial,Helvetica Neue,Helvetica,sans-serif; font-size:143px; text-anchor:middle;" transform="rotate(0, 4183.46, 4531.47)" x="4183.46" y="4531.47">0</text>
</g>
<g clip-path="url(#clip3700)">
<text style="fill:#000000; fill-opacity:1; font-family:Arial,Helvetica Neue,Helvetica,sans-serif; font-size:143px; text-anchor:middle;" transform="rotate(0, 4582.27, 4531.47)" x="4582.27" y="4531.47">1</text>
</g>
<g clip-path="url(#clip3700)">
<text style="fill:#000000; fill-opacity:1; font-family:Arial,Helvetica Neue,Helvetica,sans-serif; font-size:143px; text-anchor:middle;" transform="rotate(0, 4981.08, 4531.47)" x="4981.08" y="4531.47">2</text>
</g>
<g clip-path="url(#clip3700)">
<text style="fill:#000000; fill-opacity:1; font-family:Arial,Helvetica Neue,Helvetica,sans-serif; font-size:143px; text-anchor:middle;" transform="rotate(0, 5379.89, 4531.47)" x="5379.89" y="4531.47">3</text>
</g>
<g clip-path="url(#clip3700)">
<text style="fill:#000000; fill-opacity:1; font-family:Arial,Helvetica Neue,Helvetica,sans-serif; font-size:143px; text-anchor:middle;" transform="rotate(0, 5778.7, 4531.47)" x="5778.7" y="4531.47">4</text>
</g>
<g clip-path="url(#clip3700)">
<text style="fill:#000000; fill-opacity:1; font-family:Arial,Helvetica Neue,Helvetica,sans-serif; font-size:143px; text-anchor:middle;" transform="rotate(0, 6177.51, 4531.47)" x="6177.51" y="4531.47">5</text>
</g>
<g clip-path="url(#clip3700)">
<text style="fill:#000000; fill-opacity:1; font-family:Arial,Helvetica Neue,Helvetica,sans-serif; font-size:143px; text-anchor:middle;" transform="rotate(0, 6576.32, 4531.47)" x="6576.32" y="4531.47">6</text>
</g>
<g clip-path="url(#clip3700)">
<text style="fill:#000000; fill-opacity:1; font-family:Arial,Helvetica Neue,Helvetica,sans-serif; font-size:143px; text-anchor:end;" transform="rotate(0, 4005.97, 4404.67)" x="4005.97" y="4404.67">0</text>
</g>
<g clip-path="url(#clip3700)">
<text style="fill:#000000; fill-opacity:1; font-family:Arial,Helvetica Neue,Helvetica,sans-serif; font-size:143px; text-anchor:end;" transform="rotate(0, 4005.97, 3410.99)" x="4005.97" y="3410.99">1</text>
</g>
<g clip-path="url(#clip3700)">
<text style="fill:#000000; fill-opacity:1; font-family:Arial,Helvetica Neue,Helvetica,sans-serif; font-size:143px; text-anchor:end;" transform="rotate(0, 4005.97, 2417.31)" x="4005.97" y="2417.31">2</text>
</g>
<g clip-path="url(#clip3700)">
<text style="fill:#000000; fill-opacity:1; font-family:Arial,Helvetica Neue,Helvetica,sans-serif; font-size:143px; text-anchor:end;" transform="rotate(0, 4005.97, 1423.63)" x="4005.97" y="1423.63">3</text>
</g>
<g clip-path="url(#clip3700)">
<text style="fill:#000000; fill-opacity:1; font-family:Arial,Helvetica Neue,Helvetica,sans-serif; font-size:143px; text-anchor:end;" transform="rotate(0, 4005.97, 429.953)" x="4005.97" y="429.953">4</text>
</g>
<g clip-path="url(#clip3700)">
<text style="fill:#000000; fill-opacity:1; font-family:Arial,Helvetica Neue,Helvetica,sans-serif; font-size:248px; text-anchor:middle;" transform="rotate(0, 5497.35, 217.2)" x="5497.35" y="217.2">Flow</text>
</g>
<g clip-path="url(#clip3700)">
<text style="fill:#000000; fill-opacity:1; font-family:Arial,Helvetica Neue,Helvetica,sans-serif; font-size:196px; text-anchor:middle;" transform="rotate(0, 5497.35, 4771.4)" x="5497.35" y="4771.4">Time (h)</text>
</g>
<g clip-path="url(#clip3700)">
<text style="fill:#000000; fill-opacity:1; font-family:Arial,Helvetica Neue,Helvetica,sans-serif; font-size:196px; text-anchor:middle;" transform="rotate(-90, 3730.07, 2365.31)" x="3730.07" y="2365.31">Membrane resistance (Ohm)</text>
</g>
<polyline clip-path="url(#clip3703)" style="stroke:#fbad91; stroke-width:12; stroke-opacity:0.35; fill:none" points="
  4192.27,4233.81 4490.65,3713.84 4828.11,2854.68 5553.96,1927.29 6173.8,1772.92 6802.42,712.09 
  "/>
<circle clip-path="url(#clip3703)" style="fill:#000000; stroke:none; fill-opacity:1" cx="4192.27" cy="4233.81" r="53"/>
<circle clip-path="url(#clip3703)" style="fill:#fbad91; stroke:none; fill-opacity:1" cx="4192.27" cy="4233.81" r="43"/>
<circle clip-path="url(#clip3703)" style="fill:#000000; stroke:none; fill-opacity:1" cx="4490.65" cy="3713.84" r="53"/>
<circle clip-path="url(#clip3703)" style="fill:#fbad91; stroke:none; fill-opacity:1" cx="4490.65" cy="3713.84" r="43"/>
<circle clip-path="url(#clip3703)" style="fill:#000000; stroke:none; fill-opacity:1" cx="4828.11" cy="2854.68" r="53"/>
<circle clip-path="url(#clip3703)" style="fill:#fbad91; stroke:none; fill-opacity:1" cx="4828.11" cy="2854.68" r="43"/>
<circle clip-path="url(#clip3703)" style="fill:#000000; stroke:none; fill-opacity:1" cx="5553.96" cy="1927.29" r="53"/>
<circle clip-path="url(#clip3703)" style="fill:#fbad91; stroke:none; fill-opacity:1" cx="5553.96" cy="1927.29" r="43"/>
<circle clip-path="url(#clip3703)" style="fill:#000000; stroke:none; fill-opacity:1" cx="6173.8" cy="1772.92" r="53"/>
<circle clip-path="url(#clip3703)" style="fill:#fbad91; stroke:none; fill-opacity:1" cx="6173.8" cy="1772.92" r="43"/>
<circle clip-path="url(#clip3703)" style="fill:#000000; stroke:none; fill-opacity:1" cx="6802.42" cy="712.09" r="53"/>
<circle clip-path="url(#clip3703)" style="fill:#fbad91; stroke:none; fill-opacity:1" cx="6802.42" cy="712.09" r="43"/>
<polyline clip-path="url(#clip3703)" style="stroke:#fa6a49; stroke-width:12; stroke-opacity:0.35; fill:none" points="
  4221.98,4229.1 5129.79,3480.98 5530.17,2893.76 6100.08,2368.23 
  "/>
<circle clip-path="url(#clip3703)" style="fill:#000000; stroke:none; fill-opacity:1" cx="4221.98" cy="4229.1" r="53"/>
<circle clip-path="url(#clip3703)" style="fill:#fa6a49; stroke:none; fill-opacity:1" cx="4221.98" cy="4229.1" r="43"/>
<circle clip-path="url(#clip3703)" style="fill:#000000; stroke:none; fill-opacity:1" cx="5129.79" cy="3480.98" r="53"/>
<circle clip-path="url(#clip3703)" style="fill:#fa6a49; stroke:none; fill-opacity:1" cx="5129.79" cy="3480.98" r="43"/>
<circle clip-path="url(#clip3703)" style="fill:#000000; stroke:none; fill-opacity:1" cx="5530.17" cy="2893.76" r="53"/>
<circle clip-path="url(#clip3703)" style="fill:#fa6a49; stroke:none; fill-opacity:1" cx="5530.17" cy="2893.76" r="43"/>
<circle clip-path="url(#clip3703)" style="fill:#000000; stroke:none; fill-opacity:1" cx="6100.08" cy="2368.23" r="53"/>
<circle clip-path="url(#clip3703)" style="fill:#fa6a49; stroke:none; fill-opacity:1" cx="6100.08" cy="2368.23" r="43"/>
<polyline clip-path="url(#clip3703)" style="stroke:#de2c25; stroke-width:12; stroke-opacity:0.35; fill:none" points="
  4209.14,4270.66 4589.02,4211.68 4981.91,4046.56 5381.5,3754.57 5980.99,3277.37 6187.16,3126.73 
  "/>
<circle clip-path="url(#clip3703)" style="fill:#000000; stroke:none; fill-opacity:1" cx="4209.14" cy="4270.66" r="53"/>
<circle clip-path="url(#clip3703)" style="fill:#de2c25; stroke:none; fill-opacity:1" cx="4209.14" cy="4270.66" r="43"/>
<circle clip-path="url(#clip3703)" style="fill:#000000; stroke:none; fill-opacity:1" cx="4589.02" cy="4211.68" r="53"/>
<circle clip-path="url(#clip3703)" style="fill:#de2c25; stroke:none; fill-opacity:1" cx="4589.02" cy="4211.68" r="43"/>
<circle clip-path="url(#clip3703)" style="fill:#000000; stroke:none; fill-opacity:1" cx="4981.91" cy="4046.56" r="53"/>
<circle clip-path="url(#clip3703)" style="fill:#de2c25; stroke:none; fill-opacity:1" cx="4981.91" cy="4046.56" r="43"/>
<circle clip-path="url(#clip3703)" style="fill:#000000; stroke:none; fill-opacity:1" cx="5381.5" cy="3754.57" r="53"/>
<circle clip-path="url(#clip3703)" style="fill:#de2c25; stroke:none; fill-opacity:1" cx="5381.5" cy="3754.57" r="43"/>
<circle clip-path="url(#clip3703)" style="fill:#000000; stroke:none; fill-opacity:1" cx="5980.99" cy="3277.37" r="53"/>
<circle clip-path="url(#clip3703)" style="fill:#de2c25; stroke:none; fill-opacity:1" cx="5980.99" cy="3277.37" r="43"/>
<circle clip-path="url(#clip3703)" style="fill:#000000; stroke:none; fill-opacity:1" cx="6187.16" cy="3126.73" r="53"/>
<circle clip-path="url(#clip3703)" style="fill:#de2c25; stroke:none; fill-opacity:1" cx="6187.16" cy="3126.73" r="43"/>
<polyline clip-path="url(#clip3703)" style="stroke:#a40f14; stroke-width:12; stroke-opacity:0.35; fill:none" points="
  4204.9,4270.67 4718.55,4162.8 5518.94,3922.46 6181.42,3687.21 6376.72,3635.79 
  "/>
<circle clip-path="url(#clip3703)" style="fill:#000000; stroke:none; fill-opacity:1" cx="4204.9" cy="4270.67" r="53"/>
<circle clip-path="url(#clip3703)" style="fill:#a40f14; stroke:none; fill-opacity:1" cx="4204.9" cy="4270.67" r="43"/>
<circle clip-path="url(#clip3703)" style="fill:#000000; stroke:none; fill-opacity:1" cx="4718.55" cy="4162.8" r="53"/>
<circle clip-path="url(#clip3703)" style="fill:#a40f14; stroke:none; fill-opacity:1" cx="4718.55" cy="4162.8" r="43"/>
<circle clip-path="url(#clip3703)" style="fill:#000000; stroke:none; fill-opacity:1" cx="5518.94" cy="3922.46" r="53"/>
<circle clip-path="url(#clip3703)" style="fill:#a40f14; stroke:none; fill-opacity:1" cx="5518.94" cy="3922.46" r="43"/>
<circle clip-path="url(#clip3703)" style="fill:#000000; stroke:none; fill-opacity:1" cx="6181.42" cy="3687.21" r="53"/>
<circle clip-path="url(#clip3703)" style="fill:#a40f14; stroke:none; fill-opacity:1" cx="6181.42" cy="3687.21" r="43"/>
<circle clip-path="url(#clip3703)" style="fill:#000000; stroke:none; fill-opacity:1" cx="6376.72" cy="3635.79" r="53"/>
<circle clip-path="url(#clip3703)" style="fill:#a40f14; stroke:none; fill-opacity:1" cx="6376.72" cy="3635.79" r="43"/>
<polygon clip-path="url(#clip3700)" points="
4437.97,1751.71 6023.52,1751.71 6023.52,844.513 4437.97,844.513 
  " fill="#ffffff" fill-rule="evenodd" fill-opacity="1"/>
<polyline clip-path="url(#clip3700)" style="stroke:#000000; stroke-width:12; stroke-opacity:1; fill:none" points="
  4437.97,1751.71 6023.52,1751.71 6023.52,844.513 4437.97,844.513 4437.97,1751.71 
  "/>
<polyline clip-path="url(#clip3700)" style="stroke:#fbad91; stroke-width:12; stroke-opacity:0.35; fill:none" points="
  4545.97,1025.95 5193.97,1025.95 
  "/>
<circle clip-path="url(#clip3700)" style="fill:#000000; stroke:none; fill-opacity:1" cx="4923.97" cy="1025.95" r="75"/>
<circle clip-path="url(#clip3700)" style="fill:#fbad91; stroke:none; fill-opacity:1" cx="4923.97" cy="1025.95" r="64"/>
<g clip-path="url(#clip3700)">
<text style="fill:#000000; fill-opacity:1; font-family:Arial,Helvetica Neue,Helvetica,sans-serif; font-size:143px; text-anchor:start;" transform="rotate(0, 5301.97, 1077.95)" x="5301.97" y="1077.95">1.2cm/s</text>
</g>
<polyline clip-path="url(#clip3700)" style="stroke:#fa6a49; stroke-width:12; stroke-opacity:0.35; fill:none" points="
  4545.97,1207.39 5193.97,1207.39 
  "/>
<circle clip-path="url(#clip3700)" style="fill:#000000; stroke:none; fill-opacity:1" cx="4923.97" cy="1207.39" r="75"/>
<circle clip-path="url(#clip3700)" style="fill:#fa6a49; stroke:none; fill-opacity:1" cx="4923.97" cy="1207.39" r="64"/>
<g clip-path="url(#clip3700)">
<text style="fill:#000000; fill-opacity:1; font-family:Arial,Helvetica Neue,Helvetica,sans-serif; font-size:143px; text-anchor:start;" transform="rotate(0, 5301.97, 1259.39)" x="5301.97" y="1259.39">1.4cm/s</text>
</g>
<polyline clip-path="url(#clip3700)" style="stroke:#de2c25; stroke-width:12; stroke-opacity:0.35; fill:none" points="
  4545.97,1388.83 5193.97,1388.83 
  "/>
<circle clip-path="url(#clip3700)" style="fill:#000000; stroke:none; fill-opacity:1" cx="4923.97" cy="1388.83" r="75"/>
<circle clip-path="url(#clip3700)" style="fill:#de2c25; stroke:none; fill-opacity:1" cx="4923.97" cy="1388.83" r="64"/>
<g clip-path="url(#clip3700)">
<text style="fill:#000000; fill-opacity:1; font-family:Arial,Helvetica Neue,Helvetica,sans-serif; font-size:143px; text-anchor:start;" transform="rotate(0, 5301.97, 1440.83)" x="5301.97" y="1440.83">1.8cm/s</text>
</g>
<polyline clip-path="url(#clip3700)" style="stroke:#a40f14; stroke-width:12; stroke-opacity:0.35; fill:none" points="
  4545.97,1570.27 5193.97,1570.27 
  "/>
<circle clip-path="url(#clip3700)" style="fill:#000000; stroke:none; fill-opacity:1" cx="4923.97" cy="1570.27" r="75"/>
<circle clip-path="url(#clip3700)" style="fill:#a40f14; stroke:none; fill-opacity:1" cx="4923.97" cy="1570.27" r="64"/>
<g clip-path="url(#clip3700)">
<text style="fill:#000000; fill-opacity:1; font-family:Arial,Helvetica Neue,Helvetica,sans-serif; font-size:143px; text-anchor:start;" transform="rotate(0, 5301.97, 1622.27)" x="5301.97" y="1622.27">2.5cm/s</text>
</g>
<polygon clip-path="url(#clip3700)" points="
7797.02,4352.67 10563.8,4352.67 10563.8,377.953 7797.02,377.953 
  " fill="#ffffff" fill-rule="evenodd" fill-opacity="1"/>
<defs>
  <clipPath id="clip3704">
    <rect x="7797" y="377" width="2768" height="3976"/>
  </clipPath>
</defs>
<polyline clip-path="url(#clip3704)" style="stroke:#000000; stroke-width:6; stroke-opacity:0.1; fill:none" points="
  8478.28,4352.67 8478.28,377.953 
  "/>
<polyline clip-path="url(#clip3704)" style="stroke:#000000; stroke-width:6; stroke-opacity:0.1; fill:none" points="
  9173.45,4352.67 9173.45,377.953 
  "/>
<polyline clip-path="url(#clip3704)" style="stroke:#000000; stroke-width:6; stroke-opacity:0.1; fill:none" points="
  9868.61,4352.67 9868.61,377.953 
  "/>
<polyline clip-path="url(#clip3704)" style="stroke:#000000; stroke-width:6; stroke-opacity:0.1; fill:none" points="
  10563.8,4352.67 10563.8,377.953 
  "/>
<polyline clip-path="url(#clip3704)" style="stroke:#000000; stroke-width:6; stroke-opacity:0.1; fill:none" points="
  7797.02,4352.67 10563.8,4352.67 
  "/>
<polyline clip-path="url(#clip3704)" style="stroke:#000000; stroke-width:6; stroke-opacity:0.1; fill:none" points="
  7797.02,3358.99 10563.8,3358.99 
  "/>
<polyline clip-path="url(#clip3704)" style="stroke:#000000; stroke-width:6; stroke-opacity:0.1; fill:none" points="
  7797.02,2365.31 10563.8,2365.31 
  "/>
<polyline clip-path="url(#clip3704)" style="stroke:#000000; stroke-width:6; stroke-opacity:0.1; fill:none" points="
  7797.02,1371.63 10563.8,1371.63 
  "/>
<polyline clip-path="url(#clip3704)" style="stroke:#000000; stroke-width:6; stroke-opacity:0.1; fill:none" points="
  7797.02,377.953 10563.8,377.953 
  "/>
<polyline clip-path="url(#clip3700)" style="stroke:#000000; stroke-width:12; stroke-opacity:1; fill:none" points="
  7797.02,4352.67 10563.8,4352.67 
  "/>
<polyline clip-path="url(#clip3700)" style="stroke:#000000; stroke-width:12; stroke-opacity:1; fill:none" points="
  7797.02,4352.67 7797.02,377.953 
  "/>
<polyline clip-path="url(#clip3700)" style="stroke:#000000; stroke-width:12; stroke-opacity:1; fill:none" points="
  8478.28,4352.67 8478.28,4293.05 
  "/>
<polyline clip-path="url(#clip3700)" style="stroke:#000000; stroke-width:12; stroke-opacity:1; fill:none" points="
  9173.45,4352.67 9173.45,4293.05 
  "/>
<polyline clip-path="url(#clip3700)" style="stroke:#000000; stroke-width:12; stroke-opacity:1; fill:none" points="
  9868.61,4352.67 9868.61,4293.05 
  "/>
<polyline clip-path="url(#clip3700)" style="stroke:#000000; stroke-width:12; stroke-opacity:1; fill:none" points="
  10563.8,4352.67 10563.8,4293.05 
  "/>
<polyline clip-path="url(#clip3700)" style="stroke:#000000; stroke-width:12; stroke-opacity:1; fill:none" points="
  7797.02,4352.67 7838.52,4352.67 
  "/>
<polyline clip-path="url(#clip3700)" style="stroke:#000000; stroke-width:12; stroke-opacity:1; fill:none" points="
  7797.02,3358.99 7838.52,3358.99 
  "/>
<polyline clip-path="url(#clip3700)" style="stroke:#000000; stroke-width:12; stroke-opacity:1; fill:none" points="
  7797.02,2365.31 7838.52,2365.31 
  "/>
<polyline clip-path="url(#clip3700)" style="stroke:#000000; stroke-width:12; stroke-opacity:1; fill:none" points="
  7797.02,1371.63 7838.52,1371.63 
  "/>
<polyline clip-path="url(#clip3700)" style="stroke:#000000; stroke-width:12; stroke-opacity:1; fill:none" points="
  7797.02,377.953 7838.52,377.953 
  "/>
<g clip-path="url(#clip3700)">
<text style="fill:#000000; fill-opacity:1; font-family:Arial,Helvetica Neue,Helvetica,sans-serif; font-size:143px; text-anchor:middle;" transform="rotate(0, 8478.28, 4531.47)" x="8478.28" y="4531.47">5.0</text>
</g>
<g clip-path="url(#clip3700)">
<text style="fill:#000000; fill-opacity:1; font-family:Arial,Helvetica Neue,Helvetica,sans-serif; font-size:143px; text-anchor:middle;" transform="rotate(0, 9173.45, 4531.47)" x="9173.45" y="4531.47">10.0</text>
</g>
<g clip-path="url(#clip3700)">
<text style="fill:#000000; fill-opacity:1; font-family:Arial,Helvetica Neue,Helvetica,sans-serif; font-size:143px; text-anchor:middle;" transform="rotate(0, 9868.61, 4531.47)" x="9868.61" y="4531.47">15.0</text>
</g>
<g clip-path="url(#clip3700)">
<text style="fill:#000000; fill-opacity:1; font-family:Arial,Helvetica Neue,Helvetica,sans-serif; font-size:143px; text-anchor:middle;" transform="rotate(0, 10563.8, 4531.47)" x="10563.8" y="4531.47">20.0</text>
</g>
<g clip-path="url(#clip3700)">
<text style="fill:#000000; fill-opacity:1; font-family:Arial,Helvetica Neue,Helvetica,sans-serif; font-size:143px; text-anchor:end;" transform="rotate(0, 7689.02, 4404.67)" x="7689.02" y="4404.67">0.0</text>
</g>
<g clip-path="url(#clip3700)">
<text style="fill:#000000; fill-opacity:1; font-family:Arial,Helvetica Neue,Helvetica,sans-serif; font-size:143px; text-anchor:end;" transform="rotate(0, 7689.02, 3410.99)" x="7689.02" y="3410.99">0.5</text>
</g>
<g clip-path="url(#clip3700)">
<text style="fill:#000000; fill-opacity:1; font-family:Arial,Helvetica Neue,Helvetica,sans-serif; font-size:143px; text-anchor:end;" transform="rotate(0, 7689.02, 2417.31)" x="7689.02" y="2417.31">1.0</text>
</g>
<g clip-path="url(#clip3700)">
<text style="fill:#000000; fill-opacity:1; font-family:Arial,Helvetica Neue,Helvetica,sans-serif; font-size:143px; text-anchor:end;" transform="rotate(0, 7689.02, 1423.63)" x="7689.02" y="1423.63">1.5</text>
</g>
<g clip-path="url(#clip3700)">
<text style="fill:#000000; fill-opacity:1; font-family:Arial,Helvetica Neue,Helvetica,sans-serif; font-size:143px; text-anchor:end;" transform="rotate(0, 7689.02, 429.953)" x="7689.02" y="429.953">2.0</text>
</g>
<g clip-path="url(#clip3700)">
<text style="fill:#000000; fill-opacity:1; font-family:Arial,Helvetica Neue,Helvetica,sans-serif; font-size:248px; text-anchor:middle;" transform="rotate(0, 9180.4, 217.2)" x="9180.4" y="217.2">Current</text>
</g>
<g clip-path="url(#clip3700)">
<text style="fill:#000000; fill-opacity:1; font-family:Arial,Helvetica Neue,Helvetica,sans-serif; font-size:196px; text-anchor:middle;" transform="rotate(0, 9180.4, 4771.4)" x="9180.4" y="4771.4">Time (h)</text>
</g>
<g clip-path="url(#clip3700)">
<text style="fill:#000000; fill-opacity:1; font-family:Arial,Helvetica Neue,Helvetica,sans-serif; font-size:196px; text-anchor:middle;" transform="rotate(-90, 7288.55, 2365.31)" x="7288.55" y="2365.31">Membrane resistance (Ohm)</text>
</g>
<polyline clip-path="url(#clip3704)" style="stroke:#b9e3b3; stroke-width:12; stroke-opacity:0.35; fill:none" points="
  7783.13,4352.63 7807.43,4259.41 7914.75,4111.7 8050.36,3971.19 8849.58,3622.75 10369.6,2846.67 
  "/>
<circle clip-path="url(#clip3704)" style="fill:#000000; stroke:none; fill-opacity:1" cx="7807.43" cy="4259.41" r="53"/>
<circle clip-path="url(#clip3704)" style="fill:#b9e3b3; stroke:none; fill-opacity:1" cx="7807.43" cy="4259.41" r="43"/>
<circle clip-path="url(#clip3704)" style="fill:#000000; stroke:none; fill-opacity:1" cx="7914.75" cy="4111.7" r="53"/>
<circle clip-path="url(#clip3704)" style="fill:#b9e3b3; stroke:none; fill-opacity:1" cx="7914.75" cy="4111.7" r="43"/>
<circle clip-path="url(#clip3704)" style="fill:#000000; stroke:none; fill-opacity:1" cx="8050.36" cy="3971.19" r="53"/>
<circle clip-path="url(#clip3704)" style="fill:#b9e3b3; stroke:none; fill-opacity:1" cx="8050.36" cy="3971.19" r="43"/>
<circle clip-path="url(#clip3704)" style="fill:#000000; stroke:none; fill-opacity:1" cx="8849.58" cy="3622.75" r="53"/>
<circle clip-path="url(#clip3704)" style="fill:#b9e3b3; stroke:none; fill-opacity:1" cx="8849.58" cy="3622.75" r="43"/>
<circle clip-path="url(#clip3704)" style="fill:#000000; stroke:none; fill-opacity:1" cx="10369.6" cy="2846.67" r="53"/>
<circle clip-path="url(#clip3704)" style="fill:#b9e3b3; stroke:none; fill-opacity:1" cx="10369.6" cy="2846.67" r="43"/>
<polyline clip-path="url(#clip3704)" style="stroke:#74c476; stroke-width:12; stroke-opacity:0.35; fill:none" points="
  7792.07,4188.65 7924.5,4070.69 8061.47,3740.45 8200.78,3156.46 8409.77,2202.06 8481.65,1900.8 
  "/>
<circle clip-path="url(#clip3704)" style="fill:#000000; stroke:none; fill-opacity:1" cx="7924.5" cy="4070.69" r="53"/>
<circle clip-path="url(#clip3704)" style="fill:#74c476; stroke:none; fill-opacity:1" cx="7924.5" cy="4070.69" r="43"/>
<circle clip-path="url(#clip3704)" style="fill:#000000; stroke:none; fill-opacity:1" cx="8061.47" cy="3740.45" r="53"/>
<circle clip-path="url(#clip3704)" style="fill:#74c476; stroke:none; fill-opacity:1" cx="8061.47" cy="3740.45" r="43"/>
<circle clip-path="url(#clip3704)" style="fill:#000000; stroke:none; fill-opacity:1" cx="8200.78" cy="3156.46" r="53"/>
<circle clip-path="url(#clip3704)" style="fill:#74c476; stroke:none; fill-opacity:1" cx="8200.78" cy="3156.46" r="43"/>
<circle clip-path="url(#clip3704)" style="fill:#000000; stroke:none; fill-opacity:1" cx="8409.77" cy="2202.06" r="53"/>
<circle clip-path="url(#clip3704)" style="fill:#74c476; stroke:none; fill-opacity:1" cx="8409.77" cy="2202.06" r="43"/>
<circle clip-path="url(#clip3704)" style="fill:#000000; stroke:none; fill-opacity:1" cx="8481.65" cy="1900.8" r="53"/>
<circle clip-path="url(#clip3704)" style="fill:#74c476; stroke:none; fill-opacity:1" cx="8481.65" cy="1900.8" r="43"/>
<polyline clip-path="url(#clip3704)" style="stroke:#30a253; stroke-width:12; stroke-opacity:0.35; fill:none" points="
  7783.13,4352.66 7795.27,4334.43 7803.67,4219.29 7860.34,3804.59 7887.9,3620.1 7959.09,3437.32 8049.34,3356.22 
  "/>
<circle clip-path="url(#clip3704)" style="fill:#000000; stroke:none; fill-opacity:1" cx="7803.67" cy="4219.29" r="53"/>
<circle clip-path="url(#clip3704)" style="fill:#30a253; stroke:none; fill-opacity:1" cx="7803.67" cy="4219.29" r="43"/>
<circle clip-path="url(#clip3704)" style="fill:#000000; stroke:none; fill-opacity:1" cx="7860.34" cy="3804.59" r="53"/>
<circle clip-path="url(#clip3704)" style="fill:#30a253; stroke:none; fill-opacity:1" cx="7860.34" cy="3804.59" r="43"/>
<circle clip-path="url(#clip3704)" style="fill:#000000; stroke:none; fill-opacity:1" cx="7887.9" cy="3620.1" r="53"/>
<circle clip-path="url(#clip3704)" style="fill:#30a253; stroke:none; fill-opacity:1" cx="7887.9" cy="3620.1" r="43"/>
<circle clip-path="url(#clip3704)" style="fill:#000000; stroke:none; fill-opacity:1" cx="7959.09" cy="3437.32" r="53"/>
<circle clip-path="url(#clip3704)" style="fill:#30a253; stroke:none; fill-opacity:1" cx="7959.09" cy="3437.32" r="43"/>
<circle clip-path="url(#clip3704)" style="fill:#000000; stroke:none; fill-opacity:1" cx="8049.34" cy="3356.22" r="53"/>
<circle clip-path="url(#clip3704)" style="fill:#30a253; stroke:none; fill-opacity:1" cx="8049.34" cy="3356.22" r="43"/>
<polygon clip-path="url(#clip3700)" points="
8121.02,1570.27 9931.26,1570.27 9931.26,844.513 8121.02,844.513 
  " fill="#ffffff" fill-rule="evenodd" fill-opacity="1"/>
<polyline clip-path="url(#clip3700)" style="stroke:#000000; stroke-width:12; stroke-opacity:1; fill:none" points="
  8121.02,1570.27 9931.26,1570.27 9931.26,844.513 8121.02,844.513 8121.02,1570.27 
  "/>
<polyline clip-path="url(#clip3700)" style="stroke:#b9e3b3; stroke-width:12; stroke-opacity:0.35; fill:none" points="
  8229.02,1025.95 8877.02,1025.95 
  "/>
<circle clip-path="url(#clip3700)" style="fill:#000000; stroke:none; fill-opacity:1" cx="8607.02" cy="1025.95" r="75"/>
<circle clip-path="url(#clip3700)" style="fill:#b9e3b3; stroke:none; fill-opacity:1" cx="8607.02" cy="1025.95" r="64"/>
<g clip-path="url(#clip3700)">
<text style="fill:#000000; fill-opacity:1; font-family:Arial,Helvetica Neue,Helvetica,sans-serif; font-size:143px; text-anchor:start;" transform="rotate(0, 8985.02, 1077.95)" x="8985.02" y="1077.95">5.0mA/cm</text>
</g>
<polyline clip-path="url(#clip3700)" style="stroke:#74c476; stroke-width:12; stroke-opacity:0.35; fill:none" points="
  8229.02,1207.39 8877.02,1207.39 
  "/>
<circle clip-path="url(#clip3700)" style="fill:#000000; stroke:none; fill-opacity:1" cx="8607.02" cy="1207.39" r="75"/>
<circle clip-path="url(#clip3700)" style="fill:#74c476; stroke:none; fill-opacity:1" cx="8607.02" cy="1207.39" r="64"/>
<g clip-path="url(#clip3700)">
<text style="fill:#000000; fill-opacity:1; font-family:Arial,Helvetica Neue,Helvetica,sans-serif; font-size:143px; text-anchor:start;" transform="rotate(0, 8985.02, 1259.39)" x="8985.02" y="1259.39">10.0mA/cm</text>
</g>
<polyline clip-path="url(#clip3700)" style="stroke:#30a253; stroke-width:12; stroke-opacity:0.35; fill:none" points="
  8229.02,1388.83 8877.02,1388.83 
  "/>
<circle clip-path="url(#clip3700)" style="fill:#000000; stroke:none; fill-opacity:1" cx="8607.02" cy="1388.83" r="75"/>
<circle clip-path="url(#clip3700)" style="fill:#30a253; stroke:none; fill-opacity:1" cx="8607.02" cy="1388.83" r="64"/>
<g clip-path="url(#clip3700)">
<text style="fill:#000000; fill-opacity:1; font-family:Arial,Helvetica Neue,Helvetica,sans-serif; font-size:143px; text-anchor:start;" transform="rotate(0, 8985.02, 1440.83)" x="8985.02" y="1440.83">20.0mA/cm</text>
</g>
</svg>
