<?xml version="1.0" encoding="UTF-8" standalone="no"?>
<svg
   xmlns:dc="http://purl.org/dc/elements/1.1/"
   xmlns:cc="http://creativecommons.org/ns#"
   xmlns:rdf="http://www.w3.org/1999/02/22-rdf-syntax-ns#"
   xmlns:svg="http://www.w3.org/2000/svg"
   xmlns="http://www.w3.org/2000/svg"
   xmlns:sodipodi="http://sodipodi.sourceforge.net/DTD/sodipodi-0.dtd"
   xmlns:inkscape="http://www.inkscape.org/namespaces/inkscape"
   width="602.1458"
   height="400"
   viewBox="0 0 2408.583 1600"
   id="svg2"
   version="1.1"
   inkscape:version="0.91 r13725"
   sodipodi:docname="basicModel3.svg">
  <metadata
     id="metadata173">
    <rdf:RDF>
      <cc:Work
         rdf:about="">
        <dc:format>image/svg+xml</dc:format>
        <dc:type
           rdf:resource="http://purl.org/dc/dcmitype/StillImage" />
        <dc:title></dc:title>
      </cc:Work>
    </rdf:RDF>
  </metadata>
  <sodipodi:namedview
     pagecolor="#ffffff"
     bordercolor="#666666"
     borderopacity="1"
     objecttolerance="10"
     gridtolerance="10"
     guidetolerance="10"
     inkscape:pageopacity="0"
     inkscape:pageshadow="2"
     inkscape:window-width="2560"
     inkscape:window-height="1386"
     id="namedview171"
     showgrid="false"
     inkscape:zoom="2.592725"
     inkscape:cx="432.4286"
     inkscape:cy="211.4168"
     inkscape:window-x="0"
     inkscape:window-y="0"
     inkscape:window-maximized="1"
     inkscape:current-layer="svg2"
     fit-margin-top="0"
     fit-margin-left="0"
     fit-margin-right="0"
     fit-margin-bottom="0" />
  <defs
     id="defs4">
    <marker
       inkscape:stockid="Arrow1Lend"
       orient="auto"
       refY="0"
       refX="0"
       id="Arrow1Lend"
       style="overflow:visible"
       inkscape:isstock="true">
      <path
         id="path4312"
         d="M 0,0 5,-5 -12.5,0 5,5 0,0 Z"
         style="fill:#333333;fill-opacity:1;fill-rule:evenodd;stroke:#333333;stroke-width:1pt;stroke-opacity:1"
         transform="matrix(-0.8,0,0,-0.8,-10,0)"
         inkscape:connector-curvature="0" />
    </marker>
    <clipPath
       id="clip0600">
      <rect
         x="0"
         y="0"
         width="2400"
         height="1600"
         id="rect7" />
    </clipPath>
    <marker
       inkscape:stockid="Arrow1Lend"
       orient="auto"
       refY="0"
       refX="0"
       id="Arrow1Lend-7"
       style="overflow:visible"
       inkscape:isstock="true">
      <path
         inkscape:connector-curvature="0"
         id="path4312-5"
         d="M 0,0 5,-5 -12.5,0 5,5 0,0 Z"
         style="fill:#333333;fill-opacity:1;fill-rule:evenodd;stroke:#333333;stroke-width:1pt;stroke-opacity:1"
         transform="matrix(-0.8,0,0,-0.8,-10,0)" />
    </marker>
  </defs>
  <path
     clip-path="url(#clip0600)"
     d="M 0,1600 2400,1600 2400,0 0,0 Z"
     id="path9"
     inkscape:connector-curvature="0"
     style="fill:#ffffff;fill-opacity:1;fill-rule:evenodd" />
  <defs
     id="defs11">
    <clipPath
       id="clip0601">
      <rect
         x="480"
         y="0"
         width="1681"
         height="1600"
         id="rect14" />
    </clipPath>
  </defs>
  <path
     clip-path="url(#clip0600)"
     d="M 242.516,1425.62 2352.76,1425.62 2352.76,47.2441 242.516,47.2441 Z"
     id="path16"
     inkscape:connector-curvature="0"
     style="fill:#ffffff;fill-opacity:1;fill-rule:evenodd" />
  <defs
     id="defs18">
    <clipPath
       id="clip0602">
      <rect
         x="242"
         y="47"
         width="2111"
         height="1379"
         id="rect21" />
    </clipPath>
  </defs>
  <polyline
     clip-path="url(#clip0602)"
     style="fill:none;stroke:#000000;stroke-width:2;stroke-opacity:0.1"
     points="   302.24,1425.62 302.24,47.2441    "
     id="polyline23" />
  <polyline
     clip-path="url(#clip0602)"
     style="fill:none;stroke:#000000;stroke-width:2;stroke-opacity:0.1"
     points="   700.399,1425.62 700.399,47.2441    "
     id="polyline25" />
  <polyline
     clip-path="url(#clip0602)"
     style="fill:none;stroke:#000000;stroke-width:2;stroke-opacity:0.1"
     points="   1098.56,1425.62 1098.56,47.2441    "
     id="polyline27" />
  <polyline
     clip-path="url(#clip0602)"
     style="fill:none;stroke:#000000;stroke-width:2;stroke-opacity:0.1"
     points="   1496.72,1425.62 1496.72,47.2441    "
     id="polyline29" />
  <polyline
     clip-path="url(#clip0602)"
     style="fill:none;stroke:#000000;stroke-width:2;stroke-opacity:0.1"
     points="   1894.87,1425.62 1894.87,47.2441    "
     id="polyline31" />
  <polyline
     clip-path="url(#clip0602)"
     style="fill:none;stroke:#000000;stroke-width:2;stroke-opacity:0.1"
     points="   2293.03,1425.62 2293.03,47.2441    "
     id="polyline33" />
  <polyline
     clip-path="url(#clip0602)"
     style="fill:none;stroke:#000000;stroke-width:2;stroke-opacity:0.1"
     points="   242.516,1425.62 2352.76,1425.62    "
     id="polyline35" />
  <polyline
     clip-path="url(#clip0602)"
     style="fill:none;stroke:#000000;stroke-width:2;stroke-opacity:0.1"
     points="   242.516,1195.89 2352.76,1195.89    "
     id="polyline37" />
  <polyline
     clip-path="url(#clip0602)"
     style="fill:none;stroke:#000000;stroke-width:2;stroke-opacity:0.1"
     points="   242.516,966.16 2352.76,966.16    "
     id="polyline39" />
  <polyline
     clip-path="url(#clip0602)"
     style="fill:none;stroke:#000000;stroke-width:2;stroke-opacity:0.1"
     points="   242.516,736.431 2352.76,736.431    "
     id="polyline41" />
  <polyline
     clip-path="url(#clip0602)"
     style="fill:none;stroke:#000000;stroke-width:2;stroke-opacity:0.1"
     points="   242.516,506.702 2352.76,506.702    "
     id="polyline43" />
  <polyline
     clip-path="url(#clip0602)"
     style="fill:none;stroke:#000000;stroke-width:2;stroke-opacity:0.1"
     points="   242.516,276.973 2352.76,276.973    "
     id="polyline45" />
  <polyline
     clip-path="url(#clip0600)"
     style="fill:none;stroke:#000000;stroke-width:4;stroke-opacity:1"
     points="   242.516,1425.62 2352.76,1425.62    "
     id="polyline47" />
  <polyline
     clip-path="url(#clip0600)"
     style="fill:none;stroke:#000000;stroke-width:4;stroke-opacity:1"
     points="   242.516,1425.62 242.516,47.2441    "
     id="polyline49" />
  <polyline
     clip-path="url(#clip0600)"
     style="fill:none;stroke:#000000;stroke-width:4;stroke-opacity:1"
     points="   302.24,1425.62 302.24,1409.08    "
     id="polyline51" />
  <polyline
     clip-path="url(#clip0600)"
     style="fill:none;stroke:#000000;stroke-width:4;stroke-opacity:1"
     points="   700.399,1425.62 700.399,1409.08    "
     id="polyline53" />
  <polyline
     clip-path="url(#clip0600)"
     style="fill:none;stroke:#000000;stroke-width:4;stroke-opacity:1"
     points="   1098.56,1425.62 1098.56,1409.08    "
     id="polyline55" />
  <polyline
     clip-path="url(#clip0600)"
     style="fill:none;stroke:#000000;stroke-width:4;stroke-opacity:1"
     points="   1496.72,1425.62 1496.72,1409.08    "
     id="polyline57" />
  <polyline
     clip-path="url(#clip0600)"
     style="fill:none;stroke:#000000;stroke-width:4;stroke-opacity:1"
     points="   1894.87,1425.62 1894.87,1409.08    "
     id="polyline59" />
  <polyline
     clip-path="url(#clip0600)"
     style="fill:none;stroke:#000000;stroke-width:4;stroke-opacity:1"
     points="   2293.03,1425.62 2293.03,1409.08    "
     id="polyline61" />
  <polyline
     clip-path="url(#clip0600)"
     style="fill:none;stroke:#000000;stroke-width:4;stroke-opacity:1"
     points="   242.516,1425.62 267.839,1425.62    "
     id="polyline63" />
  <polyline
     clip-path="url(#clip0600)"
     style="fill:none;stroke:#000000;stroke-width:4;stroke-opacity:1"
     points="   242.516,1195.89 267.839,1195.89    "
     id="polyline65" />
  <polyline
     clip-path="url(#clip0600)"
     style="fill:none;stroke:#000000;stroke-width:4;stroke-opacity:1"
     points="   242.516,966.16 267.839,966.16    "
     id="polyline67" />
  <polyline
     clip-path="url(#clip0600)"
     style="fill:none;stroke:#000000;stroke-width:4;stroke-opacity:1"
     points="   242.516,736.431 267.839,736.431    "
     id="polyline69" />
  <polyline
     clip-path="url(#clip0600)"
     style="fill:none;stroke:#000000;stroke-width:4;stroke-opacity:1"
     points="   242.516,506.702 267.839,506.702    "
     id="polyline71" />
  <polyline
     clip-path="url(#clip0600)"
     style="fill:none;stroke:#000000;stroke-width:4;stroke-opacity:1"
     points="   242.516,276.973 267.839,276.973    "
     id="polyline73" />
  <g
     clip-path="url(#clip0600)"
     id="g75">
    <text
       style="font-size:48px;font-family:Arial, 'Helvetica Neue', Helvetica, sans-serif;text-anchor:middle;fill:#000000;fill-opacity:1"
       x="302.23999"
       y="1479.62"
       id="text77">0.0000</text>
  </g>
  <g
     clip-path="url(#clip0600)"
     id="g79">
    <text
       style="font-size:48px;font-family:Arial, 'Helvetica Neue', Helvetica, sans-serif;text-anchor:middle;fill:#000000;fill-opacity:1"
       x="700.39899"
       y="1479.62"
       id="text81">0.0001</text>
  </g>
  <g
     clip-path="url(#clip0600)"
     id="g83">
    <text
       style="font-size:48px;font-family:Arial, 'Helvetica Neue', Helvetica, sans-serif;text-anchor:middle;fill:#000000;fill-opacity:1"
       x="1098.5601"
       y="1479.62"
       id="text85">0.0002</text>
  </g>
  <g
     clip-path="url(#clip0600)"
     id="g87">
    <text
       style="font-size:48px;font-family:Arial, 'Helvetica Neue', Helvetica, sans-serif;text-anchor:middle;fill:#000000;fill-opacity:1"
       x="1496.72"
       y="1479.62"
       id="text89">0.0003</text>
  </g>
  <g
     clip-path="url(#clip0600)"
     id="g91">
    <text
       style="font-size:48px;font-family:Arial, 'Helvetica Neue', Helvetica, sans-serif;text-anchor:middle;fill:#000000;fill-opacity:1"
       x="1894.87"
       y="1479.62"
       id="text93">0.0004</text>
  </g>
  <g
     clip-path="url(#clip0600)"
     id="g95">
    <text
       style="font-size:48px;font-family:Arial, 'Helvetica Neue', Helvetica, sans-serif;text-anchor:middle;fill:#000000;fill-opacity:1"
       x="2293.03"
       y="1479.62"
       id="text97">0.0005</text>
  </g>
  <g
     clip-path="url(#clip0600)"
     id="g99">
    <text
       style="font-size:48px;font-family:Arial, 'Helvetica Neue', Helvetica, sans-serif;text-anchor:end;fill:#000000;fill-opacity:1"
       x="218.51601"
       y="1443.12"
       id="text101">40.0</text>
  </g>
  <g
     clip-path="url(#clip0600)"
     id="g103">
    <text
       style="font-size:48px;font-family:Arial, 'Helvetica Neue', Helvetica, sans-serif;text-anchor:end;fill:#000000;fill-opacity:1"
       x="218.51601"
       y="1213.39"
       id="text105">42.5</text>
  </g>
  <g
     clip-path="url(#clip0600)"
     id="g107">
    <text
       style="font-size:48px;font-family:Arial, 'Helvetica Neue', Helvetica, sans-serif;text-anchor:end;fill:#000000;fill-opacity:1"
       x="218.51601"
       y="983.65997"
       id="text109">45.0</text>
  </g>
  <g
     clip-path="url(#clip0600)"
     id="g111">
    <text
       style="font-size:48px;font-family:Arial, 'Helvetica Neue', Helvetica, sans-serif;text-anchor:end;fill:#000000;fill-opacity:1"
       x="218.51601"
       y="753.93103"
       id="text113">47.5</text>
  </g>
  <g
     clip-path="url(#clip0600)"
     id="g115">
    <text
       style="font-size:48px;font-family:Arial, 'Helvetica Neue', Helvetica, sans-serif;text-anchor:end;fill:#000000;fill-opacity:1"
       x="218.51601"
       y="524.20203"
       id="text117">50.0</text>
  </g>
  <g
     clip-path="url(#clip0600)"
     id="g119">
    <text
       style="font-size:48px;font-family:Arial, 'Helvetica Neue', Helvetica, sans-serif;text-anchor:end;fill:#000000;fill-opacity:1"
       x="218.51601"
       y="294.47299"
       id="text121">52.5</text>
  </g>
  <g
     clip-path="url(#clip0600)"
     id="g123">
    <text
       style="font-size:66px;font-family:Arial, 'Helvetica Neue', Helvetica, sans-serif;text-anchor:middle;fill:#000000;fill-opacity:1"
       x="1297.64"
       y="1559.48"
       id="text125">distance from middle (m)</text>
  </g>
  <g
     clip-path="url(#clip0600)"
     id="g127">
    <text
       style="font-size:66px;font-family:Arial, 'Helvetica Neue', Helvetica, sans-serif;text-anchor:middle;fill:#000000;fill-opacity:1"
       transform="matrix(0,-1,1,0,-647.1449,825.7171)"
       x="89.286102"
       y="736.43103"
       id="text129">Concentration (mol/m3)</text>
  </g>
  <polyline
     clip-path="url(#clip0602)"
     style="fill:none;stroke:#558cd7;stroke-width:8;stroke-opacity:1"
     points="   302.24,506.702 312.244,506.702 322.248,506.702 332.252,506.702 342.256,506.702 352.26,506.702 362.264,506.702 372.268,506.702 382.272,506.702 392.276,506.702    402.28,506.702 412.284,506.702 422.288,506.702 432.292,506.702 442.296,506.702 452.3,506.702 462.304,506.702 472.308,506.702 482.312,506.702 492.316,506.702    502.32,506.702 512.324,506.702 522.328,506.702 532.332,506.702 542.336,506.702 552.34,506.702 562.344,506.702 572.348,506.702 582.352,506.702 592.356,506.702    602.36,506.702 612.364,506.702 622.368,506.702 632.372,506.702 642.376,506.702 652.379,506.702 662.383,506.702 672.387,506.702 682.391,506.702 692.395,506.702    702.399,506.702 712.403,506.702 722.407,506.702 732.411,506.702 742.415,506.702 752.419,506.702 762.423,506.702 772.427,506.702 782.431,506.702 792.435,506.702    802.439,506.702 812.443,506.702 822.447,506.702 832.451,506.702 842.455,506.702 852.459,506.702 862.463,506.702 872.467,506.702 882.471,506.702 892.475,506.702    902.479,506.702 912.483,506.702 922.487,506.702 932.491,506.702 942.495,506.702 952.499,506.702 962.503,506.702 972.507,506.702 982.511,506.702 992.515,506.702    1002.52,506.702 1012.52,506.702 1022.53,506.702 1032.53,506.702 1042.53,506.702 1052.54,506.702 1062.54,506.702 1072.55,506.702 1082.55,506.702 1092.55,506.702    1102.56,506.702 1112.56,506.702 1122.57,506.702 1132.57,506.702 1142.57,506.702 1152.58,506.702 1162.58,506.702 1172.59,506.702 1182.59,506.702 1192.59,506.702    1202.6,506.702 1212.6,506.702 1222.61,506.702 1232.61,506.702 1242.61,506.702 1252.62,506.702 1262.62,506.702 1272.63,506.702 1282.63,506.702 1292.63,506.702    1302.64,506.702 1312.64,506.702 1322.65,506.702 1332.65,506.702 1342.65,506.702 1352.66,506.702 1362.66,506.702 1372.67,506.702 1382.67,506.702 1392.67,506.702    1402.68,506.702 1412.68,506.702 1422.69,506.702 1432.69,506.702 1442.69,506.702 1452.7,506.702 1462.7,506.702 1472.71,506.702 1482.71,506.702 1492.71,506.702    1502.72,506.702 1512.72,506.702 1522.73,506.702 1532.73,506.702 1542.73,506.702 1552.74,506.702 1562.74,506.702 1572.75,506.702 1582.75,506.702 1592.75,506.702    1602.76,506.702 1612.76,506.702 1622.77,506.702 1632.77,506.702 1642.77,506.702 1652.78,506.702 1662.78,506.702 1672.79,506.702 1682.79,506.702 1692.79,506.702    1702.8,506.702 1712.8,506.702 1722.81,506.702 1732.81,506.702 1742.81,506.702 1752.82,506.702 1762.82,506.702 1772.83,506.702 1782.83,506.702 1792.83,506.702    1802.84,506.702 1812.84,506.702 1822.85,506.702 1832.85,506.702 1842.85,506.702 1852.86,506.702 1862.86,506.702 1872.87,506.702 1882.87,506.702 1892.87,506.702    1902.88,506.702 1912.88,506.702 1922.88,506.702 1932.89,506.702 1942.89,506.702 1952.9,506.702 1962.9,506.702 1972.9,506.702 1982.91,506.702 1992.91,506.702    2002.92,506.702 2012.92,506.702 2022.92,506.702 2032.93,506.702 2042.93,506.702 2052.94,506.702 2062.94,506.702 2072.94,506.702 2082.95,506.702 2092.95,506.702    2102.96,506.702 2112.96,506.702 2122.96,506.702 2132.97,506.702 2142.97,506.702 2152.98,506.702 2162.98,506.702 2172.98,506.702 2182.99,506.702 2192.99,506.702    2203,506.702 2213,506.702 2223,506.702 2233.01,506.702 2243.01,506.702 2253.02,506.702 2263.02,506.702 2273.02,506.702 2283.03,506.702 2293.03,506.702       "
     id="polyline131" />
  <polyline
     clip-path="url(#clip0602)"
     style="fill:none;stroke:#558cd7;stroke-width:8;stroke-opacity:1"
     points="   302.24,506.702 312.244,506.702 322.248,506.702 332.252,506.702 342.256,506.702 352.26,506.702 362.264,506.702 372.268,506.702 382.272,506.702 392.276,506.702    402.28,506.702 412.284,506.702 422.288,506.702 432.292,506.702 442.296,506.702 452.3,506.702 462.304,506.702 472.308,506.702 482.312,506.702 492.316,506.702    502.32,506.702 512.324,506.702 522.328,506.702 532.332,506.702 542.336,506.702 552.34,506.702 562.344,506.702 572.348,506.702 582.352,506.702 592.356,506.702    602.36,506.702 612.364,506.702 622.368,506.702 632.372,506.702 642.376,506.702 652.379,506.702 662.383,506.702 672.387,506.702 682.391,506.702 692.395,506.702    702.399,506.702 712.403,506.702 722.407,506.702 732.411,506.702 742.415,506.702 752.419,506.702 762.423,506.702 772.427,506.702 782.431,506.702 792.435,506.702    802.439,506.702 812.443,506.702 822.447,506.702 832.451,506.702 842.455,506.702 852.459,506.702 862.463,506.702 872.467,506.702 882.471,506.702 892.475,506.702    902.479,506.702 912.483,506.702 922.487,506.702 932.491,506.702 942.495,506.702 952.499,506.702 962.503,506.702 972.507,506.702 982.511,506.702 992.515,506.702    1002.52,506.702 1012.52,506.702 1022.53,506.702 1032.53,506.702 1042.53,506.702 1052.54,506.702 1062.54,506.702 1072.55,506.702 1082.55,506.702 1092.55,506.702    1102.56,506.702 1112.56,506.702 1122.57,506.702 1132.57,506.702 1142.57,506.702 1152.58,506.702 1162.58,506.702 1172.59,506.702 1182.59,506.702 1192.59,506.702    1202.6,506.702 1212.6,506.702 1222.61,506.702 1232.61,506.702 1242.61,506.702 1252.62,506.702 1262.62,506.702 1272.63,506.702 1282.63,506.702 1292.63,506.702    1302.64,506.702 1312.64,506.702 1322.65,506.702 1332.65,506.702 1342.65,506.702 1352.66,506.702 1362.66,506.702 1372.67,506.702 1382.67,506.702 1392.67,506.702    1402.68,506.702 1412.68,506.702 1422.69,506.702 1432.69,506.702 1442.69,506.702 1452.7,506.702 1462.7,506.702 1472.71,506.702 1482.71,506.702 1492.71,506.702    1502.72,506.702 1512.72,506.702 1522.73,506.702 1532.73,506.702 1542.73,506.702 1552.74,506.702 1562.74,506.702 1572.75,506.702 1582.75,506.702 1592.75,506.702    1602.76,506.702 1612.76,506.702 1622.77,506.702 1632.77,506.702 1642.77,506.702 1652.78,506.702 1662.78,506.702 1672.79,506.702 1682.79,506.702 1692.79,506.702    1702.8,506.702 1712.8,506.702 1722.81,506.702 1732.81,506.702 1742.81,506.702 1752.82,506.702 1762.82,506.702 1772.83,506.702 1782.83,506.702 1792.83,506.702    1802.84,506.702 1812.84,506.702 1822.85,506.702 1832.85,506.702 1842.85,506.703 1852.86,506.703 1862.86,506.705 1872.87,506.707 1882.87,506.709 1892.87,506.713    1902.88,506.719 1912.88,506.728 1922.88,506.74 1932.89,506.756 1942.89,506.779 1952.9,506.81 1962.9,506.852 1972.9,506.908 1982.91,506.983 1992.91,507.083    2002.92,507.215 2012.92,507.387 2022.92,507.611 2032.93,507.9 2042.93,508.272 2052.94,508.747 2062.94,509.35 2072.94,510.11 2082.95,511.06 2092.95,512.242    2102.96,513.701 2112.96,515.488 2122.96,517.659 2132.97,520.275 2142.97,523.399 2152.98,527.095 2162.98,531.423 2172.98,536.436 2182.99,542.177 2192.99,548.674    2203,555.94 2213,563.973 2223,572.768 2233.01,582.343 2243.01,592.788 2253.02,604.355 2263.02,617.604 2273.02,633.643 2283.03,654.493 2293.03,696.599       "
     id="polyline133" />
  <polyline
     clip-path="url(#clip0602)"
     style="fill:none;stroke:#558cd7;stroke-width:8;stroke-opacity:1"
     points="   302.24,506.702 312.244,506.702 322.248,506.702 332.252,506.702 342.256,506.702 352.26,506.702 362.264,506.702 372.268,506.702 382.272,506.702 392.276,506.702    402.28,506.702 412.284,506.702 422.288,506.702 432.292,506.702 442.296,506.702 452.3,506.702 462.304,506.702 472.308,506.702 482.312,506.702 492.316,506.702    502.32,506.702 512.324,506.702 522.328,506.702 532.332,506.702 542.336,506.702 552.34,506.702 562.344,506.702 572.348,506.702 582.352,506.702 592.356,506.702    602.36,506.702 612.364,506.702 622.368,506.702 632.372,506.702 642.376,506.702 652.379,506.702 662.383,506.702 672.387,506.702 682.391,506.702 692.395,506.702    702.399,506.702 712.403,506.702 722.407,506.702 732.411,506.702 742.415,506.702 752.419,506.702 762.423,506.702 772.427,506.702 782.431,506.702 792.435,506.702    802.439,506.702 812.443,506.702 822.447,506.702 832.451,506.702 842.455,506.702 852.459,506.702 862.463,506.702 872.467,506.702 882.471,506.702 892.475,506.702    902.479,506.702 912.483,506.702 922.487,506.702 932.491,506.702 942.495,506.702 952.499,506.702 962.503,506.702 972.507,506.702 982.511,506.702 992.515,506.702    1002.52,506.702 1012.52,506.702 1022.53,506.702 1032.53,506.702 1042.53,506.702 1052.54,506.702 1062.54,506.702 1072.55,506.702 1082.55,506.702 1092.55,506.702    1102.56,506.702 1112.56,506.702 1122.57,506.702 1132.57,506.702 1142.57,506.702 1152.58,506.702 1162.58,506.702 1172.59,506.702 1182.59,506.702 1192.59,506.702    1202.6,506.702 1212.6,506.702 1222.61,506.702 1232.61,506.702 1242.61,506.702 1252.62,506.702 1262.62,506.702 1272.63,506.702 1282.63,506.702 1292.63,506.702    1302.64,506.702 1312.64,506.702 1322.65,506.702 1332.65,506.702 1342.65,506.702 1352.66,506.702 1362.66,506.702 1372.67,506.702 1382.67,506.702 1392.67,506.702    1402.68,506.702 1412.68,506.702 1422.69,506.702 1432.69,506.702 1442.69,506.702 1452.7,506.702 1462.7,506.702 1472.71,506.702 1482.71,506.702 1492.71,506.702    1502.72,506.702 1512.72,506.702 1522.73,506.702 1532.73,506.702 1542.73,506.702 1552.74,506.702 1562.74,506.702 1572.75,506.702 1582.75,506.702 1592.75,506.702    1602.76,506.702 1612.76,506.703 1622.77,506.703 1632.77,506.703 1642.77,506.703 1652.78,506.704 1662.78,506.704 1672.79,506.705 1682.79,506.706 1692.79,506.707    1702.8,506.709 1712.8,506.712 1722.81,506.715 1732.81,506.719 1742.81,506.724 1752.82,506.731 1762.82,506.74 1772.83,506.752 1782.83,506.767 1792.83,506.786    1802.84,506.81 1812.84,506.84 1822.85,506.877 1832.85,506.925 1842.85,506.983 1852.86,507.056 1862.86,507.145 1872.87,507.255 1882.87,507.39 1892.87,507.554    1902.88,507.753 1912.88,507.994 1922.88,508.283 1932.89,508.63 1942.89,509.045 1952.9,509.537 1962.9,510.12 1972.9,510.807 1982.91,511.614 1992.91,512.557    2002.92,513.657 2012.92,514.932 2022.92,516.406 2032.93,518.103 2042.93,520.05 2052.94,522.274 2062.94,524.805 2072.94,527.676 2082.95,530.919 2092.95,534.569    2102.96,538.66 2112.96,543.23 2122.96,548.314 2132.97,553.95 2142.97,560.177 2152.98,567.032 2162.98,574.558 2172.98,582.796 2182.99,591.791 2192.99,601.587    2203,612.221 2213,623.719 2223,636.086 2233.01,649.299 2243.01,663.318 2253.02,678.122 2263.02,693.792 2273.02,710.619 2283.03,729.108 2293.03,749.468       "
     id="polyline135" />
  <polyline
     clip-path="url(#clip0602)"
     style="fill:none;stroke:#558cd7;stroke-width:8;stroke-opacity:1"
     points="   302.24,506.702 312.244,506.702 322.248,506.702 332.252,506.702 342.256,506.702 352.26,506.702 362.264,506.702 372.268,506.702 382.272,506.702 392.276,506.702    402.28,506.702 412.284,506.702 422.288,506.702 432.292,506.702 442.296,506.702 452.3,506.702 462.304,506.702 472.308,506.702 482.312,506.702 492.316,506.702    502.32,506.702 512.324,506.702 522.328,506.702 532.332,506.702 542.336,506.702 552.34,506.702 562.344,506.702 572.348,506.702 582.352,506.702 592.356,506.702    602.36,506.702 612.364,506.702 622.368,506.702 632.372,506.702 642.376,506.702 652.379,506.702 662.383,506.702 672.387,506.702 682.391,506.702 692.395,506.702    702.399,506.702 712.403,506.702 722.407,506.702 732.411,506.702 742.415,506.702 752.419,506.702 762.423,506.702 772.427,506.702 782.431,506.702 792.435,506.702    802.439,506.702 812.443,506.702 822.447,506.702 832.451,506.702 842.455,506.702 852.459,506.702 862.463,506.702 872.467,506.702 882.471,506.702 892.475,506.702    902.479,506.702 912.483,506.702 922.487,506.702 932.491,506.702 942.495,506.702 952.499,506.702 962.503,506.702 972.507,506.702 982.511,506.702 992.515,506.702    1002.52,506.702 1012.52,506.702 1022.53,506.702 1032.53,506.702 1042.53,506.702 1052.54,506.702 1062.54,506.702 1072.55,506.702 1082.55,506.702 1092.55,506.702    1102.56,506.702 1112.56,506.702 1122.57,506.702 1132.57,506.702 1142.57,506.702 1152.58,506.702 1162.58,506.702 1172.59,506.702 1182.59,506.702 1192.59,506.702    1202.6,506.702 1212.6,506.702 1222.61,506.702 1232.61,506.702 1242.61,506.702 1252.62,506.702 1262.62,506.702 1272.63,506.702 1282.63,506.702 1292.63,506.702    1302.64,506.702 1312.64,506.702 1322.65,506.702 1332.65,506.702 1342.65,506.702 1352.66,506.702 1362.66,506.702 1372.67,506.702 1382.67,506.702 1392.67,506.702    1402.68,506.702 1412.68,506.702 1422.69,506.702 1432.69,506.702 1442.69,506.703 1452.7,506.703 1462.7,506.703 1472.71,506.703 1482.71,506.703 1492.71,506.703    1502.72,506.704 1512.72,506.704 1522.73,506.705 1532.73,506.705 1542.73,506.706 1552.74,506.707 1562.74,506.709 1572.75,506.71 1582.75,506.713 1592.75,506.715    1602.76,506.719 1612.76,506.723 1622.77,506.729 1632.77,506.735 1642.77,506.744 1652.78,506.754 1662.78,506.767 1672.79,506.782 1682.79,506.801 1692.79,506.824    1702.8,506.852 1712.8,506.885 1722.81,506.926 1732.81,506.974 1742.81,507.033 1752.82,507.102 1762.82,507.185 1772.83,507.284 1782.83,507.401 1792.83,507.539    1802.84,507.701 1812.84,507.891 1822.85,508.114 1832.85,508.375 1842.85,508.678 1852.86,509.03 1862.86,509.437 1872.87,509.906 1882.87,510.447 1892.87,511.067    1902.88,511.777 1912.88,512.587 1922.88,513.509 1932.89,514.555 1942.89,515.739 1952.9,517.076 1962.9,518.581 1972.9,520.27 1982.91,522.162 1992.91,524.275    2002.92,526.628 2012.92,529.243 2022.92,532.14 2032.93,535.343 2042.93,538.874 2052.94,542.758 2062.94,547.018 2072.94,551.68 2082.95,556.769 2092.95,562.311    2102.96,568.332 2112.96,574.858 2122.96,581.914 2132.97,589.528 2142.97,597.723 2152.98,606.525 2162.98,615.956 2172.98,626.04 2182.99,636.795 2192.99,648.241    2203,660.394 2213,673.274 2223,686.901 2233.01,701.296 2243.01,716.482 2253.02,732.471 2263.02,749.256 2273.02,766.8 2283.03,785.066 2293.03,804.081       "
     id="polyline137" />
  <polyline
     clip-path="url(#clip0602)"
     style="fill:none;stroke:#558cd7;stroke-width:8;stroke-opacity:1"
     points="   302.24,506.702 312.244,506.702 322.248,506.702 332.252,506.702 342.256,506.702 352.26,506.702 362.264,506.702 372.268,506.702 382.272,506.702 392.276,506.702    402.28,506.702 412.284,506.702 422.288,506.702 432.292,506.702 442.296,506.702 452.3,506.702 462.304,506.702 472.308,506.702 482.312,506.702 492.316,506.702    502.32,506.702 512.324,506.702 522.328,506.702 532.332,506.702 542.336,506.702 552.34,506.702 562.344,506.702 572.348,506.702 582.352,506.702 592.356,506.702    602.36,506.702 612.364,506.702 622.368,506.702 632.372,506.702 642.376,506.702 652.379,506.702 662.383,506.702 672.387,506.702 682.391,506.702 692.395,506.702    702.399,506.702 712.403,506.702 722.407,506.702 732.411,506.702 742.415,506.702 752.419,506.702 762.423,506.702 772.427,506.702 782.431,506.702 792.435,506.702    802.439,506.702 812.443,506.702 822.447,506.702 832.451,506.702 842.455,506.702 852.459,506.702 862.463,506.702 872.467,506.702 882.471,506.702 892.475,506.702    902.479,506.702 912.483,506.702 922.487,506.702 932.491,506.702 942.495,506.702 952.499,506.702 962.503,506.702 972.507,506.702 982.511,506.702 992.515,506.702    1002.52,506.702 1012.52,506.702 1022.53,506.702 1032.53,506.702 1042.53,506.702 1052.54,506.702 1062.54,506.702 1072.55,506.702 1082.55,506.702 1092.55,506.702    1102.56,506.702 1112.56,506.702 1122.57,506.702 1132.57,506.702 1142.57,506.702 1152.58,506.702 1162.58,506.702 1172.59,506.702 1182.59,506.702 1192.59,506.702    1202.6,506.702 1212.6,506.702 1222.61,506.702 1232.61,506.702 1242.61,506.702 1252.62,506.702 1262.62,506.702 1272.63,506.702 1282.63,506.702 1292.63,506.702    1302.64,506.702 1312.64,506.703 1322.65,506.703 1332.65,506.703 1342.65,506.703 1352.66,506.703 1362.66,506.703 1372.67,506.703 1382.67,506.704 1392.67,506.704    1402.68,506.705 1412.68,506.705 1422.69,506.706 1432.69,506.707 1442.69,506.708 1452.7,506.709 1462.7,506.711 1472.71,506.713 1482.71,506.716 1492.71,506.719    1502.72,506.722 1512.72,506.727 1522.73,506.733 1532.73,506.739 1542.73,506.747 1552.74,506.757 1562.74,506.768 1572.75,506.782 1582.75,506.798 1592.75,506.818    1602.76,506.841 1612.76,506.868 1622.77,506.901 1632.77,506.939 1642.77,506.984 1652.78,507.036 1662.78,507.098 1672.79,507.17 1682.79,507.253 1692.79,507.351    1702.8,507.463 1712.8,507.594 1722.81,507.745 1732.81,507.918 1742.81,508.118 1752.82,508.347 1762.82,508.609 1772.83,508.908 1782.83,509.249 1792.83,509.637    1802.84,510.076 1812.84,510.574 1822.85,511.135 1832.85,511.769 1842.85,512.481 1852.86,513.28 1862.86,514.175 1872.87,515.175 1882.87,516.29 1892.87,517.531    1902.88,518.91 1912.88,520.437 1922.88,522.127 1932.89,523.992 1942.89,526.046 1952.9,528.304 1962.9,530.782 1972.9,533.495 1982.91,536.46 1992.91,539.694    2002.92,543.215 2012.92,547.04 2022.92,551.188 2032.93,555.678 2042.93,560.529 2052.94,565.761 2062.94,571.392 2072.94,577.443 2082.95,583.932 2092.95,590.88    2102.96,598.305 2112.96,606.226 2122.96,614.662 2132.97,623.631 2142.97,633.151 2152.98,643.238 2162.98,653.908 2172.98,665.178 2182.99,677.06 2192.99,689.568    2203,702.715 2213,716.513 2223,730.971 2233.01,746.099 2243.01,761.904 2253.02,778.391 2263.02,795.564 2273.02,813.426 2283.03,831.98 2293.03,851.227       "
     id="polyline139" />
  <polyline
     clip-path="url(#clip0602)"
     style="fill:none;stroke:#d66454;stroke-width:8;stroke-opacity:1"
     points="   302.24,506.702 312.244,506.702 322.248,506.702 332.252,506.702 342.256,506.702 352.26,506.702 362.264,506.702 372.268,506.702 382.272,506.702 392.276,506.702    402.28,506.702 412.284,506.702 422.288,506.702 432.292,506.702 442.296,506.702 452.3,506.702 462.304,506.702 472.308,506.702 482.312,506.702 492.316,506.702    502.32,506.702 512.324,506.702 522.328,506.702 532.332,506.702 542.336,506.702 552.34,506.702 562.344,506.702 572.348,506.702 582.352,506.702 592.356,506.702    602.36,506.702 612.364,506.702 622.368,506.702 632.372,506.702 642.376,506.702 652.379,506.702 662.383,506.702 672.387,506.702 682.391,506.702 692.395,506.702    702.399,506.702 712.403,506.702 722.407,506.702 732.411,506.702 742.415,506.702 752.419,506.702 762.423,506.702 772.427,506.702 782.431,506.702 792.435,506.702    802.439,506.702 812.443,506.702 822.447,506.702 832.451,506.702 842.455,506.702 852.459,506.702 862.463,506.702 872.467,506.702 882.471,506.702 892.475,506.702    902.479,506.702 912.483,506.702 922.487,506.702 932.491,506.702 942.495,506.702 952.499,506.702 962.503,506.702 972.507,506.702 982.511,506.702 992.515,506.702    1002.52,506.702 1012.52,506.702 1022.53,506.702 1032.53,506.702 1042.53,506.702 1052.54,506.702 1062.54,506.702 1072.55,506.702 1082.55,506.702 1092.55,506.702    1102.56,506.702 1112.56,506.702 1122.57,506.702 1132.57,506.702 1142.57,506.702 1152.58,506.702 1162.58,506.702 1172.59,506.702 1182.59,506.702 1192.59,506.702    1202.6,506.702 1212.6,506.702 1222.61,506.702 1232.61,506.702 1242.61,506.702 1252.62,506.702 1262.62,506.702 1272.63,506.702 1282.63,506.702 1292.63,506.702    1302.64,506.702 1312.64,506.702 1322.65,506.702 1332.65,506.702 1342.65,506.702 1352.66,506.702 1362.66,506.702 1372.67,506.702 1382.67,506.702 1392.67,506.702    1402.68,506.702 1412.68,506.702 1422.69,506.702 1432.69,506.702 1442.69,506.702 1452.7,506.702 1462.7,506.702 1472.71,506.702 1482.71,506.702 1492.71,506.702    1502.72,506.702 1512.72,506.702 1522.73,506.702 1532.73,506.702 1542.73,506.702 1552.74,506.702 1562.74,506.702 1572.75,506.702 1582.75,506.702 1592.75,506.702    1602.76,506.702 1612.76,506.702 1622.77,506.702 1632.77,506.702 1642.77,506.702 1652.78,506.702 1662.78,506.702 1672.79,506.702 1682.79,506.702 1692.79,506.702    1702.8,506.702 1712.8,506.702 1722.81,506.702 1732.81,506.702 1742.81,506.702 1752.82,506.702 1762.82,506.702 1772.83,506.702 1782.83,506.702 1792.83,506.702    1802.84,506.702 1812.84,506.702 1822.85,506.702 1832.85,506.702 1842.85,506.702 1852.86,506.702 1862.86,506.702 1872.87,506.702 1882.87,506.702 1892.87,506.702    1902.88,506.702 1912.88,506.702 1922.88,506.702 1932.89,506.702 1942.89,506.702 1952.9,506.702 1962.9,506.702 1972.9,506.702 1982.91,506.702 1992.91,506.702    2002.92,506.702 2012.92,506.702 2022.92,506.702 2032.93,506.702 2042.93,506.702 2052.94,506.702 2062.94,506.702 2072.94,506.702 2082.95,506.702 2092.95,506.702    2102.96,506.702 2112.96,506.702 2122.96,506.702 2132.97,506.702 2142.97,506.702 2152.98,506.702 2162.98,506.702 2172.98,506.702 2182.99,506.702 2192.99,506.702    2203,506.702 2213,506.702 2223,506.702 2233.01,506.702 2243.01,506.702 2253.02,506.702 2263.02,506.702 2273.02,506.702 2283.03,506.702 2293.03,506.702       "
     id="polyline141" />
  <polyline
     clip-path="url(#clip0602)"
     style="fill:none;stroke:#d66454;stroke-width:8;stroke-opacity:1"
     points="   302.24,506.702 312.244,506.702 322.248,506.702 332.252,506.702 342.256,506.702 352.26,506.702 362.264,506.702 372.268,506.702 382.272,506.702 392.276,506.702    402.28,506.702 412.284,506.702 422.288,506.702 432.292,506.702 442.296,506.702 452.3,506.702 462.304,506.702 472.308,506.702 482.312,506.702 492.316,506.702    502.32,506.702 512.324,506.702 522.328,506.702 532.332,506.702 542.336,506.702 552.34,506.702 562.344,506.702 572.348,506.702 582.352,506.702 592.356,506.702    602.36,506.702 612.364,506.702 622.368,506.702 632.372,506.702 642.376,506.702 652.379,506.702 662.383,506.702 672.387,506.702 682.391,506.702 692.395,506.702    702.399,506.702 712.403,506.702 722.407,506.702 732.411,506.702 742.415,506.702 752.419,506.702 762.423,506.702 772.427,506.702 782.431,506.702 792.435,506.702    802.439,506.702 812.443,506.702 822.447,506.702 832.451,506.702 842.455,506.702 852.459,506.702 862.463,506.702 872.467,506.702 882.471,506.702 892.475,506.702    902.479,506.702 912.483,506.702 922.487,506.702 932.491,506.702 942.495,506.702 952.499,506.702 962.503,506.702 972.507,506.702 982.511,506.702 992.515,506.702    1002.52,506.702 1012.52,506.702 1022.53,506.702 1032.53,506.702 1042.53,506.702 1052.54,506.702 1062.54,506.702 1072.55,506.702 1082.55,506.702 1092.55,506.702    1102.56,506.702 1112.56,506.702 1122.57,506.702 1132.57,506.702 1142.57,506.702 1152.58,506.702 1162.58,506.702 1172.59,506.702 1182.59,506.702 1192.59,506.702    1202.6,506.702 1212.6,506.702 1222.61,506.702 1232.61,506.702 1242.61,506.702 1252.62,506.702 1262.62,506.702 1272.63,506.702 1282.63,506.702 1292.63,506.702    1302.64,506.702 1312.64,506.702 1322.65,506.702 1332.65,506.702 1342.65,506.702 1352.66,506.702 1362.66,506.702 1372.67,506.702 1382.67,506.702 1392.67,506.702    1402.68,506.702 1412.68,506.702 1422.69,506.702 1432.69,506.702 1442.69,506.702 1452.7,506.702 1462.7,506.702 1472.71,506.702 1482.71,506.702 1492.71,506.702    1502.72,506.702 1512.72,506.702 1522.73,506.702 1532.73,506.702 1542.73,506.702 1552.74,506.702 1562.74,506.702 1572.75,506.702 1582.75,506.702 1592.75,506.702    1602.76,506.702 1612.76,506.702 1622.77,506.702 1632.77,506.702 1642.77,506.702 1652.78,506.702 1662.78,506.702 1672.79,506.702 1682.79,506.702 1692.79,506.702    1702.8,506.702 1712.8,506.702 1722.81,506.702 1732.81,506.702 1742.81,506.702 1752.82,506.702 1762.82,506.703 1772.83,506.703 1782.83,506.703 1792.83,506.703    1802.84,506.703 1812.84,506.703 1822.85,506.703 1832.85,506.702 1842.85,506.702 1852.86,506.701 1862.86,506.7 1872.87,506.698 1882.87,506.695 1892.87,506.691    1902.88,506.685 1912.88,506.677 1922.88,506.665 1932.89,506.648 1942.89,506.626 1952.9,506.595 1962.9,506.553 1972.9,506.497 1982.91,506.421 1992.91,506.321    2002.92,506.19 2012.92,506.018 2022.92,505.794 2032.93,505.504 2042.93,505.132 2052.94,504.657 2062.94,504.054 2072.94,503.295 2082.95,502.344 2092.95,501.162    2102.96,499.704 2112.96,497.917 2122.96,495.746 2132.97,493.129 2142.97,490.005 2152.98,486.309 2162.98,481.982 2172.98,476.969 2182.99,471.228 2192.99,464.73    2203,457.464 2213,449.431 2223,440.637 2233.01,431.062 2243.01,420.617 2253.02,409.05 2263.02,395.8 2273.02,379.761 2283.03,358.912 2293.03,316.805       "
     id="polyline143" />
  <polyline
     clip-path="url(#clip0602)"
     style="fill:none;stroke:#d66454;stroke-width:8;stroke-opacity:1"
     points="   302.24,506.702 312.244,506.702 322.248,506.702 332.252,506.702 342.256,506.702 352.26,506.702 362.264,506.702 372.268,506.702 382.272,506.702 392.276,506.702    402.28,506.702 412.284,506.702 422.288,506.702 432.292,506.702 442.296,506.702 452.3,506.702 462.304,506.702 472.308,506.702 482.312,506.702 492.316,506.702    502.32,506.702 512.324,506.702 522.328,506.702 532.332,506.702 542.336,506.702 552.34,506.702 562.344,506.702 572.348,506.702 582.352,506.702 592.356,506.702    602.36,506.702 612.364,506.702 622.368,506.702 632.372,506.702 642.376,506.702 652.379,506.702 662.383,506.702 672.387,506.702 682.391,506.702 692.395,506.702    702.399,506.702 712.403,506.702 722.407,506.702 732.411,506.702 742.415,506.702 752.419,506.702 762.423,506.702 772.427,506.702 782.431,506.702 792.435,506.702    802.439,506.702 812.443,506.702 822.447,506.702 832.451,506.702 842.455,506.702 852.459,506.702 862.463,506.702 872.467,506.702 882.471,506.702 892.475,506.702    902.479,506.702 912.483,506.702 922.487,506.702 932.491,506.702 942.495,506.702 952.499,506.702 962.503,506.702 972.507,506.702 982.511,506.702 992.515,506.702    1002.52,506.702 1012.52,506.702 1022.53,506.702 1032.53,506.702 1042.53,506.702 1052.54,506.702 1062.54,506.702 1072.55,506.702 1082.55,506.702 1092.55,506.702    1102.56,506.702 1112.56,506.702 1122.57,506.702 1132.57,506.702 1142.57,506.702 1152.58,506.702 1162.58,506.702 1172.59,506.702 1182.59,506.702 1192.59,506.702    1202.6,506.702 1212.6,506.702 1222.61,506.702 1232.61,506.702 1242.61,506.702 1252.62,506.702 1262.62,506.702 1272.63,506.702 1282.63,506.702 1292.63,506.702    1302.64,506.702 1312.64,506.702 1322.65,506.702 1332.65,506.702 1342.65,506.702 1352.66,506.702 1362.66,506.702 1372.67,506.702 1382.67,506.702 1392.67,506.702    1402.68,506.702 1412.68,506.702 1422.69,506.702 1432.69,506.702 1442.69,506.702 1452.7,506.702 1462.7,506.702 1472.71,506.702 1482.71,506.702 1492.71,506.702    1502.72,506.702 1512.72,506.702 1522.73,506.702 1532.73,506.702 1542.73,506.702 1552.74,506.702 1562.74,506.702 1572.75,506.702 1582.75,506.702 1592.75,506.702    1602.76,506.702 1612.76,506.702 1622.77,506.702 1632.77,506.702 1642.77,506.701 1652.78,506.701 1662.78,506.7 1672.79,506.7 1682.79,506.699 1692.79,506.697    1702.8,506.695 1712.8,506.693 1722.81,506.69 1732.81,506.686 1742.81,506.68 1752.82,506.673 1762.82,506.664 1772.83,506.652 1782.83,506.638 1792.83,506.619    1802.84,506.595 1812.84,506.565 1822.85,506.527 1832.85,506.48 1842.85,506.421 1852.86,506.349 1862.86,506.259 1872.87,506.149 1882.87,506.015 1892.87,505.85    1902.88,505.651 1912.88,505.411 1922.88,505.121 1932.89,504.774 1942.89,504.36 1952.9,503.868 1962.9,503.285 1972.9,502.598 1982.91,501.791 1992.91,500.847    2002.92,499.748 2012.92,498.472 2022.92,496.998 2032.93,495.301 2042.93,493.355 2052.94,491.131 2062.94,488.599 2072.94,485.728 2082.95,482.485 2092.95,478.836    2102.96,474.744 2112.96,470.175 2122.96,465.091 2132.97,459.454 2142.97,453.228 2152.98,446.372 2162.98,438.847 2172.98,430.608 2182.99,421.613 2192.99,411.817    2203,401.183 2213,389.685 2223,377.319 2233.01,364.106 2243.01,350.087 2253.02,335.282 2263.02,319.61 2273.02,302.782 2283.03,284.294 2293.03,263.943       "
     id="polyline145" />
  <polyline
     clip-path="url(#clip0602)"
     style="fill:none;stroke:#d66454;stroke-width:8;stroke-opacity:1"
     points="   302.24,506.702 312.244,506.702 322.248,506.702 332.252,506.702 342.256,506.702 352.26,506.702 362.264,506.702 372.268,506.702 382.272,506.702 392.276,506.702    402.28,506.702 412.284,506.702 422.288,506.702 432.292,506.702 442.296,506.702 452.3,506.702 462.304,506.702 472.308,506.702 482.312,506.702 492.316,506.702    502.32,506.702 512.324,506.702 522.328,506.702 532.332,506.702 542.336,506.702 552.34,506.702 562.344,506.702 572.348,506.702 582.352,506.702 592.356,506.702    602.36,506.702 612.364,506.702 622.368,506.702 632.372,506.702 642.376,506.702 652.379,506.702 662.383,506.702 672.387,506.702 682.391,506.702 692.395,506.702    702.399,506.702 712.403,506.702 722.407,506.702 732.411,506.702 742.415,506.702 752.419,506.702 762.423,506.702 772.427,506.702 782.431,506.702 792.435,506.702    802.439,506.702 812.443,506.702 822.447,506.702 832.451,506.702 842.455,506.702 852.459,506.702 862.463,506.702 872.467,506.702 882.471,506.702 892.475,506.702    902.479,506.702 912.483,506.702 922.487,506.702 932.491,506.702 942.495,506.702 952.499,506.702 962.503,506.702 972.507,506.702 982.511,506.702 992.515,506.702    1002.52,506.702 1012.52,506.702 1022.53,506.702 1032.53,506.702 1042.53,506.702 1052.54,506.702 1062.54,506.702 1072.55,506.702 1082.55,506.702 1092.55,506.702    1102.56,506.702 1112.56,506.702 1122.57,506.702 1132.57,506.702 1142.57,506.702 1152.58,506.702 1162.58,506.702 1172.59,506.702 1182.59,506.702 1192.59,506.702    1202.6,506.702 1212.6,506.702 1222.61,506.702 1232.61,506.702 1242.61,506.702 1252.62,506.702 1262.62,506.702 1272.63,506.702 1282.63,506.702 1292.63,506.702    1302.64,506.702 1312.64,506.702 1322.65,506.702 1332.65,506.702 1342.65,506.702 1352.66,506.702 1362.66,506.702 1372.67,506.702 1382.67,506.702 1392.67,506.702    1402.68,506.702 1412.68,506.702 1422.69,506.702 1432.69,506.702 1442.69,506.702 1452.7,506.702 1462.7,506.702 1472.71,506.702 1482.71,506.701 1492.71,506.701    1502.72,506.701 1512.72,506.701 1522.73,506.7 1532.73,506.699 1542.73,506.698 1552.74,506.697 1562.74,506.696 1572.75,506.694 1582.75,506.692 1592.75,506.689    1602.76,506.686 1612.76,506.681 1622.77,506.676 1632.77,506.669 1642.77,506.661 1652.78,506.65 1662.78,506.638 1672.79,506.622 1682.79,506.604 1692.79,506.581    1702.8,506.553 1712.8,506.519 1722.81,506.479 1732.81,506.43 1742.81,506.372 1752.82,506.302 1762.82,506.219 1772.83,506.121 1782.83,506.004 1792.83,505.866    1802.84,505.704 1812.84,505.513 1822.85,505.29 1832.85,505.03 1842.85,504.727 1852.86,504.375 1862.86,503.968 1872.87,503.498 1882.87,502.958 1892.87,502.337    1902.88,501.627 1912.88,500.817 1922.88,499.896 1932.89,498.849 1942.89,497.665 1952.9,496.328 1962.9,494.824 1972.9,493.134 1982.91,491.242 1992.91,489.13    2002.92,486.776 2012.92,484.162 2022.92,481.264 2032.93,478.061 2042.93,474.53 2052.94,470.647 2062.94,466.386 2072.94,461.724 2082.95,456.635 2092.95,451.093    2102.96,445.072 2112.96,438.546 2122.96,431.49 2132.97,423.877 2142.97,415.682 2152.98,406.88 2162.98,397.449 2172.98,387.365 2182.99,376.61 2192.99,365.164    2203,353.01 2213,340.129 2223,326.502 2233.01,312.106 2243.01,296.922 2253.02,280.937 2263.02,264.156 2273.02,246.612 2283.03,228.34 2293.03,209.313       "
     id="polyline147" />
  <polyline
     clip-path="url(#clip0602)"
     style="fill:none;stroke:#d66454;stroke-width:8;stroke-opacity:1"
     points="   302.24,506.702 312.244,506.702 322.248,506.702 332.252,506.702 342.256,506.702 352.26,506.702 362.264,506.702 372.268,506.702 382.272,506.702 392.276,506.702    402.28,506.702 412.284,506.702 422.288,506.702 432.292,506.702 442.296,506.702 452.3,506.702 462.304,506.702 472.308,506.702 482.312,506.702 492.316,506.702    502.32,506.702 512.324,506.702 522.328,506.702 532.332,506.702 542.336,506.702 552.34,506.702 562.344,506.702 572.348,506.702 582.352,506.702 592.356,506.702    602.36,506.702 612.364,506.702 622.368,506.702 632.372,506.702 642.376,506.702 652.379,506.702 662.383,506.702 672.387,506.702 682.391,506.702 692.395,506.702    702.399,506.702 712.403,506.702 722.407,506.702 732.411,506.702 742.415,506.702 752.419,506.702 762.423,506.702 772.427,506.702 782.431,506.702 792.435,506.702    802.439,506.702 812.443,506.702 822.447,506.702 832.451,506.702 842.455,506.702 852.459,506.702 862.463,506.702 872.467,506.702 882.471,506.702 892.475,506.702    902.479,506.702 912.483,506.702 922.487,506.702 932.491,506.702 942.495,506.702 952.499,506.702 962.503,506.702 972.507,506.702 982.511,506.702 992.515,506.702    1002.52,506.702 1012.52,506.702 1022.53,506.702 1032.53,506.702 1042.53,506.702 1052.54,506.702 1062.54,506.702 1072.55,506.702 1082.55,506.702 1092.55,506.702    1102.56,506.702 1112.56,506.702 1122.57,506.702 1132.57,506.702 1142.57,506.702 1152.58,506.702 1162.58,506.702 1172.59,506.702 1182.59,506.702 1192.59,506.702    1202.6,506.702 1212.6,506.702 1222.61,506.702 1232.61,506.702 1242.61,506.702 1252.62,506.702 1262.62,506.702 1272.63,506.702 1282.63,506.702 1292.63,506.702    1302.64,506.702 1312.64,506.702 1322.65,506.702 1332.65,506.702 1342.65,506.702 1352.66,506.702 1362.66,506.701 1372.67,506.701 1382.67,506.701 1392.67,506.7    1402.68,506.7 1412.68,506.699 1422.69,506.699 1432.69,506.698 1442.69,506.697 1452.7,506.695 1462.7,506.693 1472.71,506.691 1482.71,506.689 1492.71,506.686    1502.72,506.682 1512.72,506.677 1522.73,506.672 1532.73,506.665 1542.73,506.657 1552.74,506.648 1562.74,506.636 1572.75,506.623 1582.75,506.606 1592.75,506.587    1602.76,506.564 1612.76,506.536 1622.77,506.504 1632.77,506.466 1642.77,506.421 1652.78,506.368 1662.78,506.307 1672.79,506.235 1682.79,506.151 1692.79,506.054    1702.8,505.941 1712.8,505.811 1722.81,505.66 1732.81,505.486 1742.81,505.286 1752.82,505.057 1762.82,504.795 1772.83,504.496 1782.83,504.155 1792.83,503.768    1802.84,503.328 1812.84,502.831 1822.85,502.269 1832.85,501.636 1842.85,500.924 1852.86,500.125 1862.86,499.23 1872.87,498.23 1882.87,497.114 1892.87,495.873    1902.88,494.495 1912.88,492.967 1922.88,491.278 1932.89,489.413 1942.89,487.358 1952.9,485.1 1962.9,482.622 1972.9,479.909 1982.91,476.944 1992.91,473.71    2002.92,470.19 2012.92,466.365 2022.92,462.216 2032.93,457.726 2042.93,452.875 2052.94,447.644 2062.94,442.012 2072.94,435.962 2082.95,429.472 2092.95,422.525    2102.96,415.1 2112.96,407.179 2122.96,398.743 2132.97,389.773 2142.97,380.254 2152.98,370.167 2162.98,359.496 2172.98,348.227 2182.99,336.345 2192.99,323.836    2203,310.689 2213,296.892 2223,282.433 2233.01,267.306 2243.01,251.501 2253.02,235.014 2263.02,217.841 2273.02,199.978 2283.03,181.425 2293.03,162.178       "
     id="polyline149" />
  <polyline
     clip-path="url(#clip0602)"
     style="fill:none;stroke:#558cd7;stroke-width:8;stroke-opacity:1"
     points="   302.24,506.702 312.244,506.702 322.248,506.702 332.252,506.702 342.256,506.702 352.26,506.702 362.264,506.702 372.268,506.702 382.272,506.702 392.276,506.702    402.28,506.702 412.284,506.702 422.288,506.702 432.292,506.702 442.296,506.702 452.3,506.702 462.304,506.702 472.308,506.702 482.312,506.702 492.316,506.702    502.32,506.702 512.324,506.702 522.328,506.702 532.332,506.702 542.336,506.702 552.34,506.702 562.344,506.702 572.348,506.702 582.352,506.702 592.356,506.702    602.36,506.702 612.364,506.702 622.368,506.702 632.372,506.702 642.376,506.702 652.379,506.702 662.383,506.702 672.387,506.702 682.391,506.702 692.395,506.702    702.399,506.702 712.403,506.702 722.407,506.702 732.411,506.702 742.415,506.702 752.419,506.702 762.423,506.702 772.427,506.702 782.431,506.702 792.435,506.702    802.439,506.702 812.443,506.702 822.447,506.702 832.451,506.702 842.455,506.702 852.459,506.702 862.463,506.702 872.467,506.702 882.471,506.702 892.475,506.702    902.479,506.702 912.483,506.702 922.487,506.702 932.491,506.702 942.495,506.702 952.499,506.702 962.503,506.702 972.507,506.702 982.511,506.702 992.515,506.702    1002.52,506.702 1012.52,506.702 1022.53,506.702 1032.53,506.702 1042.53,506.702 1052.54,506.702 1062.54,506.702 1072.55,506.702 1082.55,506.702 1092.55,506.702    1102.56,506.702 1112.56,506.702 1122.57,506.702 1132.57,506.702 1142.57,506.702 1152.58,506.702 1162.58,506.702 1172.59,506.702 1182.59,506.702 1192.59,506.702    1202.6,506.702 1212.6,506.702 1222.61,506.702 1232.61,506.702 1242.61,506.702 1252.62,506.702 1262.62,506.702 1272.63,506.702 1282.63,506.702 1292.63,506.702    1302.64,506.702 1312.64,506.702 1322.65,506.702 1332.65,506.702 1342.65,506.702 1352.66,506.702 1362.66,506.701 1372.67,506.701 1382.67,506.701 1392.67,506.7    1402.68,506.7 1412.68,506.699 1422.69,506.699 1432.69,506.698 1442.69,506.697 1452.7,506.695 1462.7,506.693 1472.71,506.691 1482.71,506.689 1492.71,506.686    1502.72,506.682 1512.72,506.677 1522.73,506.672 1532.73,506.665 1542.73,506.657 1552.74,506.648 1562.74,506.636 1572.75,506.623 1582.75,506.606 1592.75,506.587    1602.76,506.564 1612.76,506.536 1622.77,506.504 1632.77,506.466 1642.77,506.421 1652.78,506.368 1662.78,506.307 1672.79,506.235 1682.79,506.151 1692.79,506.054    1702.8,505.941 1712.8,505.811 1722.81,505.66 1732.81,505.486 1742.81,505.286 1752.82,505.057 1762.82,504.795 1772.83,504.496 1782.83,504.155 1792.83,503.768    1802.84,503.328 1812.84,502.831 1822.85,502.269 1832.85,501.636 1842.85,500.924 1852.86,500.125 1862.86,499.23 1872.87,498.23 1882.87,497.114 1892.87,495.873    1902.88,494.495 1912.88,492.967 1922.88,491.278 1932.89,489.413 1942.89,487.358 1952.9,485.1 1962.9,482.622 1972.9,479.909 1982.91,476.944 1992.91,473.71    2002.92,470.19 2012.92,466.365 2022.92,462.216 2032.93,457.726 2042.93,452.875 2052.94,447.644 2062.94,442.012 2072.94,435.962 2082.95,429.472 2092.95,422.525    2102.96,415.1 2112.96,407.179 2122.96,398.743 2132.97,389.773 2142.97,380.254 2152.98,370.167 2162.98,359.496 2172.98,348.227 2182.99,336.345 2192.99,323.836    2203,310.689 2213,296.892 2223,282.433 2233.01,267.306 2243.01,251.501 2253.02,235.014 2263.02,217.841 2273.02,199.978 2283.03,181.425 2293.03,162.178       "
     id="polyline151" />
  <polyline
     clip-path="url(#clip0602)"
     style="fill:none;stroke:#d66454;stroke-width:8;stroke-opacity:1"
     points="   302.24,506.702 312.244,506.702 322.248,506.702 332.252,506.702 342.256,506.702 352.26,506.702 362.264,506.702 372.268,506.702 382.272,506.702 392.276,506.702    402.28,506.702 412.284,506.702 422.288,506.702 432.292,506.702 442.296,506.702 452.3,506.702 462.304,506.702 472.308,506.702 482.312,506.702 492.316,506.702    502.32,506.702 512.324,506.702 522.328,506.702 532.332,506.702 542.336,506.702 552.34,506.702 562.344,506.702 572.348,506.702 582.352,506.702 592.356,506.702    602.36,506.702 612.364,506.702 622.368,506.702 632.372,506.702 642.376,506.702 652.379,506.702 662.383,506.702 672.387,506.702 682.391,506.702 692.395,506.702    702.399,506.702 712.403,506.702 722.407,506.702 732.411,506.702 742.415,506.702 752.419,506.702 762.423,506.702 772.427,506.702 782.431,506.702 792.435,506.702    802.439,506.702 812.443,506.702 822.447,506.702 832.451,506.702 842.455,506.702 852.459,506.702 862.463,506.702 872.467,506.702 882.471,506.702 892.475,506.702    902.479,506.702 912.483,506.702 922.487,506.702 932.491,506.702 942.495,506.702 952.499,506.702 962.503,506.702 972.507,506.702 982.511,506.702 992.515,506.702    1002.52,506.702 1012.52,506.702 1022.53,506.702 1032.53,506.702 1042.53,506.702 1052.54,506.702 1062.54,506.702 1072.55,506.702 1082.55,506.702 1092.55,506.702    1102.56,506.702 1112.56,506.702 1122.57,506.702 1132.57,506.702 1142.57,506.702 1152.58,506.702 1162.58,506.702 1172.59,506.702 1182.59,506.702 1192.59,506.702    1202.6,506.702 1212.6,506.702 1222.61,506.702 1232.61,506.702 1242.61,506.702 1252.62,506.702 1262.62,506.702 1272.63,506.702 1282.63,506.702 1292.63,506.702    1302.64,506.702 1312.64,506.702 1322.65,506.702 1332.65,506.702 1342.65,506.702 1352.66,506.702 1362.66,506.701 1372.67,506.701 1382.67,506.701 1392.67,506.7    1402.68,506.7 1412.68,506.699 1422.69,506.699 1432.69,506.698 1442.69,506.697 1452.7,506.695 1462.7,506.693 1472.71,506.691 1482.71,506.689 1492.71,506.686    1502.72,506.682 1512.72,506.677 1522.73,506.672 1532.73,506.665 1542.73,506.657 1552.74,506.648 1562.74,506.636 1572.75,506.623 1582.75,506.606 1592.75,506.587    1602.76,506.564 1612.76,506.536 1622.77,506.504 1632.77,506.466 1642.77,506.421 1652.78,506.368 1662.78,506.307 1672.79,506.235 1682.79,506.151 1692.79,506.054    1702.8,505.941 1712.8,505.811 1722.81,505.66 1732.81,505.486 1742.81,505.286 1752.82,505.057 1762.82,504.795 1772.83,504.496 1782.83,504.155 1792.83,503.768    1802.84,503.328 1812.84,502.831 1822.85,502.269 1832.85,501.636 1842.85,500.924 1852.86,500.125 1862.86,499.23 1872.87,498.23 1882.87,497.114 1892.87,495.873    1902.88,494.495 1912.88,492.967 1922.88,491.278 1932.89,489.413 1942.89,487.358 1952.9,485.1 1962.9,482.622 1972.9,479.909 1982.91,476.944 1992.91,473.71    2002.92,470.19 2012.92,466.365 2022.92,462.216 2032.93,457.726 2042.93,452.875 2052.94,447.644 2062.94,442.012 2072.94,435.962 2082.95,429.472 2092.95,422.525    2102.96,415.1 2112.96,407.179 2122.96,398.743 2132.97,389.773 2142.97,380.254 2152.98,370.167 2162.98,359.496 2172.98,348.227 2182.99,336.345 2192.99,323.836    2203,310.689 2213,296.892 2223,282.433 2233.01,267.306 2243.01,251.501 2253.02,235.014 2263.02,217.841 2273.02,199.978 2283.03,181.425 2293.03,162.178       "
     id="polyline153" />
  <path
     clip-path="url(#clip0600)"
     d="M 314.516,1281.62 806.015,1281.62 806.015,1100.18 314.516,1100.18 Z"
     id="path155"
     inkscape:connector-curvature="0"
     style="fill:#ffffff;fill-opacity:1;fill-rule:evenodd" />
  <polyline
     clip-path="url(#clip0600)"
     style="fill:none;stroke:#000000;stroke-width:4;stroke-opacity:1"
     points="   314.516,1281.62 806.015,1281.62 806.015,1100.18 314.516,1100.18 314.516,1281.62    "
     id="polyline157" />
  <polyline
     clip-path="url(#clip0600)"
     style="fill:none;stroke:#558cd7;stroke-width:8;stroke-opacity:1"
     points="   338.516,1160.66 482.516,1160.66    "
     id="polyline159" />
  <g
     clip-path="url(#clip0600)"
     id="g161">
    <text
       style="font-size:48px;font-family:Arial, 'Helvetica Neue', Helvetica, sans-serif;text-anchor:start;fill:#000000;fill-opacity:1"
       x="506.51599"
       y="1178.16"
       id="text163">diluate</text>
  </g>
  <polyline
     clip-path="url(#clip0600)"
     style="fill:none;stroke:#d66454;stroke-width:8;stroke-opacity:1"
     points="   338.516,1221.14 482.516,1221.14    "
     id="polyline165" />
  <g
     clip-path="url(#clip0600)"
     id="g167">
    <text
       style="font-size:48px;font-family:Arial, 'Helvetica Neue', Helvetica, sans-serif;text-anchor:start;fill:#000000;fill-opacity:1"
       x="506.51599"
       y="1238.64"
       id="text169">concentrate</text>
  </g>
  <text
     xml:space="preserve"
     style="font-style:normal;font-weight:normal;font-size:40px;line-height:125%;font-family:sans-serif;letter-spacing:0px;word-spacing:0px;fill:#000000;fill-opacity:1;stroke:none;stroke-width:1px;stroke-linecap:butt;stroke-linejoin:miter;stroke-opacity:1"
     x="2328.6797"
     y="860.49347"
     id="text4585-3"
     sodipodi:linespacing="125%"><tspan
       sodipodi:role="line"
       id="tspan4587-6"
       x="2328.6797"
       y="860.49347">Cb</tspan></text>
  <circle
     style="color:#000000;clip-rule:nonzero;display:inline;overflow:visible;visibility:visible;opacity:0.9;isolation:auto;mix-blend-mode:normal;color-interpolation:sRGB;color-interpolation-filters:linearRGB;solid-color:#000000;solid-opacity:1;fill:#558cd7;fill-opacity:1;fill-rule:evenodd;stroke:#558cd7;stroke-width:10.3999996;stroke-miterlimit:4;stroke-dasharray:none;stroke-dashoffset:0;stroke-opacity:1;color-rendering:auto;image-rendering:auto;shape-rendering:auto;text-rendering:auto;enable-background:accumulate"
     id="path5320"
     cx="2289.819"
     cy="846.1819"
     r="17.45454" />
</svg>
