<?xml version="1.0" encoding="utf-8"?>
<svg xmlns="http://www.w3.org/2000/svg" xmlns:xlink="http://www.w3.org/1999/xlink" width="5400" height="3600" viewBox="0 0 21600 14400">
<defs>
  <clipPath id="clip620">
    <rect x="0" y="0" width="21600" height="14400"/>
  </clipPath>
</defs>
<path clip-path="url(#clip620)" d="
M0 14400 L21600 14400 L21600 0 L0 0  Z
  " fill="#ffffff" fill-rule="evenodd" fill-opacity="1"/>
<defs>
  <clipPath id="clip621">
    <rect x="4320" y="0" width="15121" height="14400"/>
  </clipPath>
</defs>
<path clip-path="url(#clip620)" d="
M1938.36 12954.1 L20211 12954.1 L20211 283.465 L1938.36 283.465  Z
  " fill="#ffffff" fill-rule="evenodd" fill-opacity="1"/>
<defs>
  <clipPath id="clip622">
    <rect x="1938" y="283" width="18274" height="12672"/>
  </clipPath>
</defs>
<polyline clip-path="url(#clip620)" style="stroke:#000000; stroke-width:24; stroke-opacity:1; fill:none" points="
  1938.36,12954.1 20211,12954.1 
  "/>
<polyline clip-path="url(#clip620)" style="stroke:#000000; stroke-width:24; stroke-opacity:1; fill:none" points="
  2455.52,12954.1 2455.52,12802.1 
  "/>
<polyline clip-path="url(#clip620)" style="stroke:#000000; stroke-width:24; stroke-opacity:1; fill:none" points="
  5453.49,12954.1 5453.49,12802.1 
  "/>
<polyline clip-path="url(#clip620)" style="stroke:#000000; stroke-width:24; stroke-opacity:1; fill:none" points="
  8451.47,12954.1 8451.47,12802.1 
  "/>
<polyline clip-path="url(#clip620)" style="stroke:#000000; stroke-width:24; stroke-opacity:1; fill:none" points="
  11449.4,12954.1 11449.4,12802.1 
  "/>
<polyline clip-path="url(#clip620)" style="stroke:#000000; stroke-width:24; stroke-opacity:1; fill:none" points="
  14447.4,12954.1 14447.4,12802.1 
  "/>
<polyline clip-path="url(#clip620)" style="stroke:#000000; stroke-width:24; stroke-opacity:1; fill:none" points="
  17445.4,12954.1 17445.4,12802.1 
  "/>
<path clip-path="url(#clip620)" d="M 0 0 M2455.52 13231.8 Q2417.6 13231.8 2398.4 13269.3 Q2379.44 13306.4 2379.44 13381.3 Q2379.44 13455.9 2398.4 13493.3 Q2417.6 13530.5 2455.52 13530.5 Q2493.68 13530.5 2512.63 13493.3 Q2531.83 13455.9 2531.83 13381.3 Q2531.83 13306.4 2512.63 13269.3 Q2493.68 13231.8 2455.52 13231.8 M2455.52 13192.9 Q2516.52 13192.9 2548.61 13241.3 Q2580.93 13289.4 2580.93 13381.3 Q2580.93 13472.9 2548.61 13521.3 Q2516.52 13569.4 2455.52 13569.4 Q2394.51 13569.4 2362.18 13521.3 Q2330.1 13472.9 2330.1 13381.3 Q2330.1 13289.4 2362.18 13241.3 Q2394.51 13192.9 2455.52 13192.9 Z" fill="#000000" fill-rule="evenodd" fill-opacity="1" /><path clip-path="url(#clip620)" d="M 0 0 M5068.86 13521.1 L5149.07 13521.1 L5149.07 13244.2 L5061.81 13261.7 L5061.81 13217 L5148.58 13199.5 L5197.68 13199.5 L5197.68 13521.1 L5277.88 13521.1 L5277.88 13562.4 L5068.86 13562.4 L5068.86 13521.1 Z" fill="#000000" fill-rule="evenodd" fill-opacity="1" /><path clip-path="url(#clip620)" d="M 0 0 M5436.11 13231.8 Q5398.2 13231.8 5378.99 13269.3 Q5360.04 13306.4 5360.04 13381.3 Q5360.04 13455.9 5378.99 13493.3 Q5398.2 13530.5 5436.11 13530.5 Q5474.27 13530.5 5493.23 13493.3 Q5512.43 13455.9 5512.43 13381.3 Q5512.43 13306.4 5493.23 13269.3 Q5474.27 13231.8 5436.11 13231.8 M5436.11 13192.9 Q5497.12 13192.9 5529.2 13241.3 Q5561.53 13289.4 5561.53 13381.3 Q5561.53 13472.9 5529.2 13521.3 Q5497.12 13569.4 5436.11 13569.4 Q5375.11 13569.4 5342.78 13521.3 Q5310.7 13472.9 5310.7 13381.3 Q5310.7 13289.4 5342.78 13241.3 Q5375.11 13192.9 5436.11 13192.9 Z" fill="#000000" fill-rule="evenodd" fill-opacity="1" /><path clip-path="url(#clip620)" d="M 0 0 M5719.76 13231.8 Q5681.84 13231.8 5662.64 13269.3 Q5643.68 13306.4 5643.68 13381.3 Q5643.68 13455.9 5662.64 13493.3 Q5681.84 13530.5 5719.76 13530.5 Q5757.92 13530.5 5776.87 13493.3 Q5796.08 13455.9 5796.08 13381.3 Q5796.08 13306.4 5776.87 13269.3 Q5757.92 13231.8 5719.76 13231.8 M5719.76 13192.9 Q5780.76 13192.9 5812.85 13241.3 Q5845.17 13289.4 5845.17 13381.3 Q5845.17 13472.9 5812.85 13521.3 Q5780.76 13569.4 5719.76 13569.4 Q5658.75 13569.4 5626.42 13521.3 Q5594.34 13472.9 5594.34 13381.3 Q5594.34 13289.4 5626.42 13241.3 Q5658.75 13192.9 5719.76 13192.9 Z" fill="#000000" fill-rule="evenodd" fill-opacity="1" /><path clip-path="url(#clip620)" d="M 0 0 M8111.68 13521.1 L8283.03 13521.1 L8283.03 13562.4 L8052.61 13562.4 L8052.61 13521.1 Q8080.57 13492.1 8128.69 13443.5 Q8177.06 13394.7 8189.45 13380.6 Q8213.03 13354.1 8222.27 13335.8 Q8231.74 13317.4 8231.74 13299.6 Q8231.74 13270.7 8211.33 13252.5 Q8191.15 13234.3 8158.59 13234.3 Q8135.5 13234.3 8109.73 13242.3 Q8084.21 13250.3 8055.04 13266.6 L8055.04 13217 Q8084.7 13205.1 8110.46 13199 Q8136.22 13192.9 8157.61 13192.9 Q8214 13192.9 8247.54 13221.1 Q8281.08 13249.3 8281.08 13296.5 Q8281.08 13318.8 8272.58 13339 Q8264.31 13358.9 8242.2 13386.2 Q8236.12 13393.2 8203.55 13427 Q8170.98 13460.5 8111.68 13521.1 Z" fill="#000000" fill-rule="evenodd" fill-opacity="1" /><path clip-path="url(#clip620)" d="M 0 0 M8441.26 13231.8 Q8403.34 13231.8 8384.14 13269.3 Q8365.18 13306.4 8365.18 13381.3 Q8365.18 13455.9 8384.14 13493.3 Q8403.34 13530.5 8441.26 13530.5 Q8479.42 13530.5 8498.38 13493.3 Q8517.58 13455.9 8517.58 13381.3 Q8517.58 13306.4 8498.38 13269.3 Q8479.42 13231.8 8441.26 13231.8 M8441.26 13192.9 Q8502.26 13192.9 8534.35 13241.3 Q8566.67 13289.4 8566.67 13381.3 Q8566.67 13472.9 8534.35 13521.3 Q8502.26 13569.4 8441.26 13569.4 Q8380.25 13569.4 8347.92 13521.3 Q8315.84 13472.9 8315.84 13381.3 Q8315.84 13289.4 8347.92 13241.3 Q8380.25 13192.9 8441.26 13192.9 Z" fill="#000000" fill-rule="evenodd" fill-opacity="1" /><path clip-path="url(#clip620)" d="M 0 0 M8724.9 13231.8 Q8686.99 13231.8 8667.78 13269.3 Q8648.83 13306.4 8648.83 13381.3 Q8648.83 13455.9 8667.78 13493.3 Q8686.99 13530.5 8724.9 13530.5 Q8763.06 13530.5 8782.02 13493.3 Q8801.22 13455.9 8801.22 13381.3 Q8801.22 13306.4 8782.02 13269.3 Q8763.06 13231.8 8724.9 13231.8 M8724.9 13192.9 Q8785.91 13192.9 8817.99 13241.3 Q8850.32 13289.4 8850.32 13381.3 Q8850.32 13472.9 8817.99 13521.3 Q8785.91 13569.4 8724.9 13569.4 Q8663.9 13569.4 8631.57 13521.3 Q8599.49 13472.9 8599.49 13381.3 Q8599.49 13289.4 8631.57 13241.3 Q8663.9 13192.9 8724.9 13192.9 Z" fill="#000000" fill-rule="evenodd" fill-opacity="1" /><path clip-path="url(#clip620)" d="M 0 0 M11210.4 13366.7 Q11245.6 13374.3 11265.3 13398.1 Q11285.3 13421.9 11285.3 13456.9 Q11285.3 13510.6 11248.3 13540 Q11211.4 13569.4 11143.3 13569.4 Q11120.5 13569.4 11096.2 13564.8 Q11072.1 13560.4 11046.3 13551.4 L11046.3 13504 Q11066.8 13516 11091.1 13522 Q11115.4 13528.1 11141.9 13528.1 Q11188 13528.1 11212.1 13509.9 Q11236.4 13491.6 11236.4 13456.9 Q11236.4 13424.8 11213.8 13406.8 Q11191.4 13388.6 11151.3 13388.6 L11109 13388.6 L11109 13348.2 L11153.3 13348.2 Q11189.5 13348.2 11208.7 13333.9 Q11227.9 13319.3 11227.9 13292.1 Q11227.9 13264.1 11208 13249.3 Q11188.3 13234.3 11151.3 13234.3 Q11131.2 13234.3 11108.1 13238.6 Q11085 13243 11057.3 13252.2 L11057.3 13208.5 Q11085.2 13200.7 11109.5 13196.8 Q11134.1 13192.9 11155.7 13192.9 Q11211.6 13192.9 11244.2 13218.5 Q11276.8 13243.7 11276.8 13287 Q11276.8 13317.1 11259.5 13338 Q11242.2 13358.7 11210.4 13366.7 Z" fill="#000000" fill-rule="evenodd" fill-opacity="1" /><path clip-path="url(#clip620)" d="M 0 0 M11443.5 13231.8 Q11405.6 13231.8 11386.4 13269.3 Q11367.4 13306.4 11367.4 13381.3 Q11367.4 13455.9 11386.4 13493.3 Q11405.6 13530.5 11443.5 13530.5 Q11481.6 13530.5 11500.6 13493.3 Q11519.8 13455.9 11519.8 13381.3 Q11519.8 13306.4 11500.6 13269.3 Q11481.6 13231.8 11443.5 13231.8 M11443.5 13192.9 Q11504.5 13192.9 11536.6 13241.3 Q11568.9 13289.4 11568.9 13381.3 Q11568.9 13472.9 11536.6 13521.3 Q11504.5 13569.4 11443.5 13569.4 Q11382.5 13569.4 11350.2 13521.3 Q11318.1 13472.9 11318.1 13381.3 Q11318.1 13289.4 11350.2 13241.3 Q11382.5 13192.9 11443.5 13192.9 Z" fill="#000000" fill-rule="evenodd" fill-opacity="1" /><path clip-path="url(#clip620)" d="M 0 0 M11727.1 13231.8 Q11689.2 13231.8 11670 13269.3 Q11651.1 13306.4 11651.1 13381.3 Q11651.1 13455.9 11670 13493.3 Q11689.2 13530.5 11727.1 13530.5 Q11765.3 13530.5 11784.2 13493.3 Q11803.4 13455.9 11803.4 13381.3 Q11803.4 13306.4 11784.2 13269.3 Q11765.3 13231.8 11727.1 13231.8 M11727.1 13192.9 Q11788.1 13192.9 11820.2 13241.3 Q11852.5 13289.4 11852.5 13381.3 Q11852.5 13472.9 11820.2 13521.3 Q11788.1 13569.4 11727.1 13569.4 Q11666.1 13569.4 11633.8 13521.3 Q11601.7 13472.9 11601.7 13381.3 Q11601.7 13289.4 11633.8 13241.3 Q11666.1 13192.9 11727.1 13192.9 Z" fill="#000000" fill-rule="evenodd" fill-opacity="1" /><path clip-path="url(#clip620)" d="M 0 0 M14195.4 13242.3 L14071.4 13436 L14195.4 13436 L14195.4 13242.3 M14182.5 13199.5 L14244.2 13199.5 L14244.2 13436 L14296 13436 L14296 13476.8 L14244.2 13476.8 L14244.2 13562.4 L14195.4 13562.4 L14195.4 13476.8 L14031.6 13476.8 L14031.6 13429.4 L14182.5 13199.5 Z" fill="#000000" fill-rule="evenodd" fill-opacity="1" /><path clip-path="url(#clip620)" d="M 0 0 M14454.2 13231.8 Q14416.3 13231.8 14397.1 13269.3 Q14378.1 13306.4 14378.1 13381.3 Q14378.1 13455.9 14397.1 13493.3 Q14416.3 13530.5 14454.2 13530.5 Q14492.4 13530.5 14511.3 13493.3 Q14530.5 13455.9 14530.5 13381.3 Q14530.5 13306.4 14511.3 13269.3 Q14492.4 13231.8 14454.2 13231.8 M14454.2 13192.9 Q14515.2 13192.9 14547.3 13241.3 Q14579.6 13289.4 14579.6 13381.3 Q14579.6 13472.9 14547.3 13521.3 Q14515.2 13569.4 14454.2 13569.4 Q14393.2 13569.4 14360.9 13521.3 Q14328.8 13472.9 14328.8 13381.3 Q14328.8 13289.4 14360.9 13241.3 Q14393.2 13192.9 14454.2 13192.9 Z" fill="#000000" fill-rule="evenodd" fill-opacity="1" /><path clip-path="url(#clip620)" d="M 0 0 M14737.9 13231.8 Q14699.9 13231.8 14680.7 13269.3 Q14661.8 13306.4 14661.8 13381.3 Q14661.8 13455.9 14680.7 13493.3 Q14699.9 13530.5 14737.9 13530.5 Q14776 13530.5 14795 13493.3 Q14814.2 13455.9 14814.2 13381.3 Q14814.2 13306.4 14795 13269.3 Q14776 13231.8 14737.9 13231.8 M14737.9 13192.9 Q14798.9 13192.9 14831 13241.3 Q14863.3 13289.4 14863.3 13381.3 Q14863.3 13472.9 14831 13521.3 Q14798.9 13569.4 14737.9 13569.4 Q14676.9 13569.4 14644.5 13521.3 Q14612.5 13472.9 14612.5 13381.3 Q14612.5 13289.4 14644.5 13241.3 Q14676.9 13192.9 14737.9 13192.9 Z" fill="#000000" fill-rule="evenodd" fill-opacity="1" /><path clip-path="url(#clip620)" d="M 0 0 M17059.7 13199.5 L17252.4 13199.5 L17252.4 13240.8 L17104.6 13240.8 L17104.6 13329.8 Q17115.3 13326.1 17126 13324.4 Q17136.7 13322.5 17147.4 13322.5 Q17208.2 13322.5 17243.7 13355.8 Q17279.1 13389.1 17279.1 13446 Q17279.1 13504.5 17242.7 13537.1 Q17206.2 13569.4 17139.9 13569.4 Q17117 13569.4 17093.2 13565.5 Q17069.6 13561.6 17044.4 13553.9 L17044.4 13504.5 Q17066.2 13516.4 17089.6 13522.3 Q17112.9 13528.1 17138.9 13528.1 Q17180.9 13528.1 17205.5 13506 Q17230 13483.9 17230 13446 Q17230 13408 17205.5 13385.9 Q17180.9 13363.8 17138.9 13363.8 Q17119.2 13363.8 17099.5 13368.2 Q17080.1 13372.5 17059.7 13381.8 L17059.7 13199.5 Z" fill="#000000" fill-rule="evenodd" fill-opacity="1" /><path clip-path="url(#clip620)" d="M 0 0 M17437.4 13231.8 Q17399.5 13231.8 17380.3 13269.3 Q17361.3 13306.4 17361.3 13381.3 Q17361.3 13455.9 17380.3 13493.3 Q17399.5 13530.5 17437.4 13530.5 Q17475.5 13530.5 17494.5 13493.3 Q17513.7 13455.9 17513.7 13381.3 Q17513.7 13306.4 17494.5 13269.3 Q17475.5 13231.8 17437.4 13231.8 M17437.4 13192.9 Q17498.4 13192.9 17530.5 13241.3 Q17562.8 13289.4 17562.8 13381.3 Q17562.8 13472.9 17530.5 13521.3 Q17498.4 13569.4 17437.4 13569.4 Q17376.4 13569.4 17344 13521.3 Q17312 13472.9 17312 13381.3 Q17312 13289.4 17344 13241.3 Q17376.4 13192.9 17437.4 13192.9 Z" fill="#000000" fill-rule="evenodd" fill-opacity="1" /><path clip-path="url(#clip620)" d="M 0 0 M17721 13231.8 Q17683.1 13231.8 17663.9 13269.3 Q17644.9 13306.4 17644.9 13381.3 Q17644.9 13455.9 17663.9 13493.3 Q17683.1 13530.5 17721 13530.5 Q17759.2 13530.5 17778.1 13493.3 Q17797.3 13455.9 17797.3 13381.3 Q17797.3 13306.4 17778.1 13269.3 Q17759.2 13231.8 17721 13231.8 M17721 13192.9 Q17782 13192.9 17814.1 13241.3 Q17846.4 13289.4 17846.4 13381.3 Q17846.4 13472.9 17814.1 13521.3 Q17782 13569.4 17721 13569.4 Q17660 13569.4 17627.7 13521.3 Q17595.6 13472.9 17595.6 13381.3 Q17595.6 13289.4 17627.7 13241.3 Q17660 13192.9 17721 13192.9 Z" fill="#000000" fill-rule="evenodd" fill-opacity="1" /><path clip-path="url(#clip620)" d="M 0 0 M9156.74 13859.6 L9156.74 14222.4 L9232.99 14222.4 Q9329.55 14222.4 9374.23 14178.7 Q9419.23 14134.9 9419.23 14040.6 Q9419.23 13946.8 9374.23 13903.4 Q9329.55 13859.6 9232.99 13859.6 L9156.74 13859.6 M9093.61 13807.8 L9223.3 13807.8 Q9358.92 13807.8 9422.36 13864.3 Q9485.8 13920.6 9485.8 14040.6 Q9485.8 14161.2 9422.05 14217.7 Q9358.3 14274.3 9223.3 14274.3 L9093.61 14274.3 L9093.61 13807.8 Z" fill="#000000" fill-rule="evenodd" fill-opacity="1" /><path clip-path="url(#clip620)" d="M 0 0 M9546.11 13924.3 L9603.61 13924.3 L9603.61 14274.3 L9546.11 14274.3 L9546.11 13924.3 M9546.11 13788.1 L9603.61 13788.1 L9603.61 13860.9 L9546.11 13860.9 L9546.11 13788.1 Z" fill="#000000" fill-rule="evenodd" fill-opacity="1" /><path clip-path="url(#clip620)" d="M 0 0 M9887.04 13934.6 L9887.04 13989 Q9862.67 13976.5 9836.42 13970.3 Q9810.17 13964 9782.04 13964 Q9739.23 13964 9717.67 13977.1 Q9696.42 13990.3 9696.42 14016.5 Q9696.42 14036.5 9711.73 14048.1 Q9727.05 14059.3 9773.29 14069.6 L9792.98 14074 Q9854.23 14087.1 9879.86 14111.2 Q9905.79 14134.9 9905.79 14177.7 Q9905.79 14226.5 9867.04 14254.9 Q9828.61 14283.4 9761.11 14283.4 Q9732.98 14283.4 9702.36 14277.7 Q9672.05 14272.4 9638.3 14261.5 L9638.3 14202.1 Q9670.17 14218.7 9701.11 14227.1 Q9732.05 14235.2 9762.36 14235.2 Q9802.98 14235.2 9824.86 14221.5 Q9846.73 14207.4 9846.73 14182.1 Q9846.73 14158.7 9830.79 14146.2 Q9815.17 14133.7 9761.73 14122.1 L9741.73 14117.4 Q9688.3 14106.2 9664.55 14083.1 Q9640.8 14059.6 9640.8 14019 Q9640.8 13969.6 9675.8 13942.8 Q9710.8 13915.9 9775.17 13915.9 Q9807.04 13915.9 9835.17 13920.6 Q9863.29 13925.3 9887.04 13934.6 Z" fill="#000000" fill-rule="evenodd" fill-opacity="1" /><path clip-path="url(#clip620)" d="M 0 0 M10023 13824.9 L10023 13924.3 L10141.4 13924.3 L10141.4 13969 L10023 13969 L10023 14159 Q10023 14201.8 10034.5 14214 Q10046.4 14226.2 10082.4 14226.2 L10141.4 14226.2 L10141.4 14274.3 L10082.4 14274.3 Q10015.8 14274.3 9990.48 14249.6 Q9965.17 14224.6 9965.17 14159 L9965.17 13969 L9922.98 13969 L9922.98 13924.3 L9965.17 13924.3 L9965.17 13824.9 L10023 13824.9 Z" fill="#000000" fill-rule="evenodd" fill-opacity="1" /><path clip-path="url(#clip620)" d="M 0 0 M10360.8 14098.4 Q10291.1 14098.4 10264.2 14114.3 Q10237.4 14130.2 10237.4 14168.7 Q10237.4 14199.3 10257.4 14217.4 Q10277.7 14235.2 10312.4 14235.2 Q10360.2 14235.2 10388.9 14201.5 Q10418 14167.4 10418 14111.2 L10418 14098.4 L10360.8 14098.4 M10475.5 14074.6 L10475.5 14274.3 L10418 14274.3 L10418 14221.2 Q10398.3 14253.1 10368.9 14268.4 Q10339.5 14283.4 10297 14283.4 Q10243.3 14283.4 10211.4 14253.4 Q10179.9 14223.1 10179.9 14172.4 Q10179.9 14113.4 10219.2 14083.4 Q10258.9 14053.4 10337.4 14053.4 L10418 14053.4 L10418 14047.7 Q10418 14008.1 10391.7 13986.5 Q10365.8 13964.6 10318.6 13964.6 Q10288.6 13964.6 10260.2 13971.8 Q10231.7 13979 10205.5 13993.4 L10205.5 13940.3 Q10237 13928.1 10266.7 13922.1 Q10296.4 13915.9 10324.5 13915.9 Q10400.5 13915.9 10438 13955.3 Q10475.5 13994.6 10475.5 14074.6 Z" fill="#000000" fill-rule="evenodd" fill-opacity="1" /><path clip-path="url(#clip620)" d="M 0 0 M10826.7 14063.1 L10826.7 14274.3 L10769.2 14274.3 L10769.2 14064.9 Q10769.2 14015.2 10749.9 13990.6 Q10730.5 13965.9 10691.7 13965.9 Q10645.2 13965.9 10618.3 13995.6 Q10591.4 14025.2 10591.4 14076.5 L10591.4 14274.3 L10533.6 14274.3 L10533.6 13924.3 L10591.4 13924.3 L10591.4 13978.7 Q10612 13947.1 10639.9 13931.5 Q10668 13915.9 10704.5 13915.9 Q10764.9 13915.9 10795.8 13953.4 Q10826.7 13990.6 10826.7 14063.1 Z" fill="#000000" fill-rule="evenodd" fill-opacity="1" /><path clip-path="url(#clip620)" d="M 0 0 M11138.9 13937.8 L11138.9 13991.5 Q11114.5 13978.1 11089.9 13971.5 Q11065.5 13964.6 11040.5 13964.6 Q10984.5 13964.6 10953.6 14000.3 Q10922.7 14035.6 10922.7 14099.6 Q10922.7 14163.7 10953.6 14199.3 Q10984.5 14234.6 11040.5 14234.6 Q11065.5 14234.6 11089.9 14228.1 Q11114.5 14221.2 11138.9 14207.7 L11138.9 14260.9 Q11114.9 14272.1 11088.9 14277.7 Q11063.3 14283.4 11034.2 14283.4 Q10955.2 14283.4 10908.6 14233.7 Q10862 14184 10862 14099.6 Q10862 14014 10908.9 13964.9 Q10956.1 13915.9 11038 13915.9 Q11064.5 13915.9 11089.9 13921.5 Q11115.2 13926.8 11138.9 13937.8 Z" fill="#000000" fill-rule="evenodd" fill-opacity="1" /><path clip-path="url(#clip620)" d="M 0 0 M11498.6 14084.9 L11498.6 14113.1 L11234.2 14113.1 Q11238 14172.4 11269.8 14203.7 Q11302 14234.6 11359.2 14234.6 Q11392.3 14234.6 11423.3 14226.5 Q11454.5 14218.4 11485.2 14202.1 L11485.2 14256.5 Q11454.2 14269.6 11421.7 14276.5 Q11389.2 14283.4 11355.8 14283.4 Q11272 14283.4 11223 14234.6 Q11174.2 14185.9 11174.2 14102.7 Q11174.2 14016.8 11220.5 13966.5 Q11267 13915.9 11345.8 13915.9 Q11416.4 13915.9 11457.3 13961.5 Q11498.6 14006.8 11498.6 14084.9 M11441.1 14068.1 Q11440.5 14020.9 11414.5 13992.8 Q11388.9 13964.6 11346.4 13964.6 Q11298.3 13964.6 11269.2 13991.8 Q11240.5 14019 11236.1 14068.4 L11441.1 14068.1 Z" fill="#000000" fill-rule="evenodd" fill-opacity="1" /><path clip-path="url(#clip620)" d="M 0 0 M11900.5 13788.7 Q11858.6 13860.6 11838.3 13930.9 Q11818 14001.2 11818 14073.4 Q11818 14145.6 11838.3 14216.5 Q11858.9 14287.1 11900.5 14358.7 L11850.5 14358.7 Q11803.6 14285.2 11780.2 14214.3 Q11757 14143.4 11757 14073.4 Q11757 14003.7 11780.2 13933.1 Q11803.3 13862.4 11850.5 13788.7 L11900.5 13788.7 Z" fill="#000000" fill-rule="evenodd" fill-opacity="1" /><path clip-path="url(#clip620)" d="M 0 0 M11954.8 14407.4 L11954.8 13924.3 L12012.3 13924.3 L12012.3 14141.8 Q12012.3 14187.1 12033.9 14210.2 Q12055.5 14233.4 12097.7 14233.4 Q12143.9 14233.4 12167 14207.1 Q12190.5 14180.9 12190.5 14128.4 L12190.5 13924.3 L12248 13924.3 L12248 14193.7 Q12248 14212.4 12253.3 14221.5 Q12258.9 14230.2 12270.5 14230.2 Q12273.3 14230.2 12278.3 14228.7 Q12283.3 14226.8 12292 14223.1 L12292 14269.3 Q12279.2 14276.5 12267.7 14279.9 Q12256.4 14283.4 12245.5 14283.4 Q12223.9 14283.4 12211.1 14271.2 Q12198.3 14259 12193.6 14234 Q12178 14258.7 12155.2 14271.2 Q12132.7 14283.4 12102 14283.4 Q12070.2 14283.4 12047.7 14271.2 Q12025.5 14259 12012.3 14234.6 L12012.3 14407.4 L11954.8 14407.4 Z" fill="#000000" fill-rule="evenodd" fill-opacity="1" /><path clip-path="url(#clip620)" d="M 0 0 M12624.8 13991.5 Q12646.4 13952.8 12676.4 13934.3 Q12706.4 13915.9 12747 13915.9 Q12801.7 13915.9 12831.4 13954.3 Q12861.1 13992.4 12861.1 14063.1 L12861.1 14274.3 L12803.3 14274.3 L12803.3 14064.9 Q12803.3 14014.6 12785.5 13990.3 Q12767.7 13965.9 12731.1 13965.9 Q12686.4 13965.9 12660.5 13995.6 Q12634.5 14025.2 12634.5 14076.5 L12634.5 14274.3 L12576.7 14274.3 L12576.7 14064.9 Q12576.7 14014.3 12558.9 13990.3 Q12541.1 13965.9 12503.9 13965.9 Q12459.8 13965.9 12433.9 13995.9 Q12408 14025.6 12408 14076.5 L12408 14274.3 L12350.2 14274.3 L12350.2 13924.3 L12408 13924.3 L12408 13978.7 Q12427.7 13946.5 12455.2 13931.2 Q12482.7 13915.9 12520.5 13915.9 Q12558.6 13915.9 12585.2 13935.3 Q12612 13954.6 12624.8 13991.5 Z" fill="#000000" fill-rule="evenodd" fill-opacity="1" /><path clip-path="url(#clip620)" d="M 0 0 M12912.3 13788.7 L12962.3 13788.7 Q13009.2 13862.4 13032.3 13933.1 Q13055.8 14003.7 13055.8 14073.4 Q13055.8 14143.4 13032.3 14214.3 Q13009.2 14285.2 12962.3 14358.7 L12912.3 14358.7 Q12953.9 14287.1 12974.2 14216.5 Q12994.8 14145.6 12994.8 14073.4 Q12994.8 14001.2 12974.2 13930.9 Q12953.9 13860.6 12912.3 13788.7 Z" fill="#000000" fill-rule="evenodd" fill-opacity="1" /><polyline clip-path="url(#clip620)" style="stroke:#000000; stroke-width:24; stroke-opacity:1; fill:none" points="
  1938.36,12954.1 1938.36,283.465 
  "/>
<polyline clip-path="url(#clip620)" style="stroke:#000000; stroke-width:24; stroke-opacity:1; fill:none" points="
  1938.36,12882.5 2157.64,12882.5 
  "/>
<polyline clip-path="url(#clip620)" style="stroke:#000000; stroke-width:24; stroke-opacity:1; fill:none" points="
  1938.36,9379.31 2157.64,9379.31 
  "/>
<polyline clip-path="url(#clip620)" style="stroke:#000000; stroke-width:24; stroke-opacity:1; fill:none" points="
  1938.36,5876.16 2157.64,5876.16 
  "/>
<polyline clip-path="url(#clip620)" style="stroke:#000000; stroke-width:24; stroke-opacity:1; fill:none" points="
  1938.36,2373.01 2157.64,2373.01 
  "/>
<path clip-path="url(#clip620)" d="M 0 0 M1209.68 12862.9 Q1176.62 12862.9 1157.18 12885.5 Q1137.98 12908.1 1137.98 12947.5 Q1137.98 12986.6 1157.18 13009.5 Q1176.62 13032.1 1209.68 13032.1 Q1242.73 13032.1 1261.94 13009.5 Q1281.38 12986.6 1281.38 12947.5 Q1281.38 12908.1 1261.94 12885.5 Q1242.73 12862.9 1209.68 12862.9 M1307.14 12709 L1307.14 12753.8 Q1288.67 12745 1269.71 12740.4 Q1251 12735.8 1232.53 12735.8 Q1183.92 12735.8 1158.15 12768.6 Q1132.63 12801.4 1128.99 12867.8 Q1143.33 12846.6 1164.96 12835.4 Q1186.59 12824 1212.6 12824 Q1267.28 12824 1298.88 12857.3 Q1330.72 12890.4 1330.72 12947.5 Q1330.72 13003.4 1297.67 13037.2 Q1264.61 13071 1209.68 13071 Q1146.73 13071 1113.43 13022.8 Q1080.13 12974.5 1080.13 12882.8 Q1080.13 12796.8 1120.96 12745.7 Q1161.8 12694.5 1230.58 12694.5 Q1249.05 12694.5 1267.77 12698.1 Q1286.73 12701.8 1307.14 12709 Z" fill="#000000" fill-rule="evenodd" fill-opacity="1" /><path clip-path="url(#clip620)" d="M 0 0 M1488.95 12733.4 Q1451.03 12733.4 1431.83 12770.8 Q1412.87 12808 1412.87 12882.8 Q1412.87 12957.4 1431.83 12994.9 Q1451.03 13032.1 1488.95 13032.1 Q1527.11 13032.1 1546.07 12994.9 Q1565.27 12957.4 1565.27 12882.8 Q1565.27 12808 1546.07 12770.8 Q1527.11 12733.4 1488.95 12733.4 M1488.95 12694.5 Q1549.96 12694.5 1582.04 12742.8 Q1614.36 12791 1614.36 12882.8 Q1614.36 12974.5 1582.04 13022.8 Q1549.96 13071 1488.95 13071 Q1427.94 13071 1395.62 13022.8 Q1363.53 12974.5 1363.53 12882.8 Q1363.53 12791 1395.62 12742.8 Q1427.94 12694.5 1488.95 12694.5 Z" fill="#000000" fill-rule="evenodd" fill-opacity="1" /><path clip-path="url(#clip620)" d="M 0 0 M1206.28 9388.43 Q1171.28 9388.43 1151.1 9407.14 Q1131.17 9425.86 1131.17 9458.67 Q1131.17 9491.48 1151.1 9510.2 Q1171.28 9528.91 1206.28 9528.91 Q1241.28 9528.91 1261.45 9510.2 Q1281.62 9491.24 1281.62 9458.67 Q1281.62 9425.86 1261.45 9407.14 Q1241.52 9388.43 1206.28 9388.43 M1157.18 9367.53 Q1125.58 9359.75 1107.84 9338.12 Q1090.34 9316.48 1090.34 9285.37 Q1090.34 9241.87 1121.21 9216.59 Q1152.32 9191.31 1206.28 9191.31 Q1260.48 9191.31 1291.35 9216.59 Q1322.21 9241.87 1322.21 9285.37 Q1322.21 9316.48 1304.47 9338.12 Q1286.97 9359.75 1255.62 9367.53 Q1291.1 9375.79 1310.79 9399.85 Q1330.72 9423.91 1330.72 9458.67 Q1330.72 9511.41 1298.39 9539.61 Q1266.31 9567.8 1206.28 9567.8 Q1146.24 9567.8 1113.92 9539.61 Q1081.83 9511.41 1081.83 9458.67 Q1081.83 9423.91 1101.76 9399.85 Q1121.69 9375.79 1157.18 9367.53 M1139.19 9289.99 Q1139.19 9318.19 1156.69 9333.98 Q1174.44 9349.78 1206.28 9349.78 Q1237.87 9349.78 1255.62 9333.98 Q1273.6 9318.19 1273.6 9289.99 Q1273.6 9261.8 1255.62 9246 Q1237.87 9230.2 1206.28 9230.2 Q1174.44 9230.2 1156.69 9246 Q1139.19 9261.8 1139.19 9289.99 Z" fill="#000000" fill-rule="evenodd" fill-opacity="1" /><path clip-path="url(#clip620)" d="M 0 0 M1488.95 9230.2 Q1451.03 9230.2 1431.83 9267.63 Q1412.87 9304.82 1412.87 9379.68 Q1412.87 9454.3 1431.83 9491.73 Q1451.03 9528.91 1488.95 9528.91 Q1527.11 9528.91 1546.07 9491.73 Q1565.27 9454.3 1565.27 9379.68 Q1565.27 9304.82 1546.07 9267.63 Q1527.11 9230.2 1488.95 9230.2 M1488.95 9191.31 Q1549.96 9191.31 1582.04 9239.68 Q1614.36 9287.8 1614.36 9379.68 Q1614.36 9471.31 1582.04 9519.68 Q1549.96 9567.8 1488.95 9567.8 Q1427.94 9567.8 1395.62 9519.68 Q1363.53 9471.31 1363.53 9379.68 Q1363.53 9287.8 1395.62 9239.68 Q1427.94 9191.31 1488.95 9191.31 Z" fill="#000000" fill-rule="evenodd" fill-opacity="1" /><path clip-path="url(#clip620)" d="M 0 0 M838.05 6016.28 L918.257 6016.28 L918.257 5739.45 L831.001 5756.95 L831.001 5712.22 L917.771 5694.72 L966.868 5694.72 L966.868 6016.28 L1047.08 6016.28 L1047.08 6057.6 L838.05 6057.6 L838.05 6016.28 Z" fill="#000000" fill-rule="evenodd" fill-opacity="1" /><path clip-path="url(#clip620)" d="M 0 0 M1205.3 5727.05 Q1167.39 5727.05 1148.19 5764.48 Q1129.23 5801.67 1129.23 5876.53 Q1129.23 5951.15 1148.19 5988.58 Q1167.39 6025.76 1205.3 6025.76 Q1243.46 6025.76 1262.42 5988.58 Q1281.62 5951.15 1281.62 5876.53 Q1281.62 5801.67 1262.42 5764.48 Q1243.46 5727.05 1205.3 5727.05 M1205.3 5688.16 Q1266.31 5688.16 1298.39 5736.53 Q1330.72 5784.65 1330.72 5876.53 Q1330.72 5968.16 1298.39 6016.53 Q1266.31 6064.65 1205.3 6064.65 Q1144.3 6064.65 1111.97 6016.53 Q1079.89 5968.16 1079.89 5876.53 Q1079.89 5784.65 1111.97 5736.53 Q1144.3 5688.16 1205.3 5688.16 Z" fill="#000000" fill-rule="evenodd" fill-opacity="1" /><path clip-path="url(#clip620)" d="M 0 0 M1488.95 5727.05 Q1451.03 5727.05 1431.83 5764.48 Q1412.87 5801.67 1412.87 5876.53 Q1412.87 5951.15 1431.83 5988.58 Q1451.03 6025.76 1488.95 6025.76 Q1527.11 6025.76 1546.07 5988.58 Q1565.27 5951.15 1565.27 5876.53 Q1565.27 5801.67 1546.07 5764.48 Q1527.11 5727.05 1488.95 5727.05 M1488.95 5688.16 Q1549.96 5688.16 1582.04 5736.53 Q1614.36 5784.65 1614.36 5876.53 Q1614.36 5968.16 1582.04 6016.53 Q1549.96 6064.65 1488.95 6064.65 Q1427.94 6064.65 1395.62 6016.53 Q1363.53 5968.16 1363.53 5876.53 Q1363.53 5784.65 1395.62 5736.53 Q1427.94 5688.16 1488.95 5688.16 Z" fill="#000000" fill-rule="evenodd" fill-opacity="1" /><path clip-path="url(#clip620)" d="M 0 0 M854.82 2513.13 L935.028 2513.13 L935.028 2236.3 L847.772 2253.8 L847.772 2209.07 L934.542 2191.57 L983.639 2191.57 L983.639 2513.13 L1063.85 2513.13 L1063.85 2554.45 L854.82 2554.45 L854.82 2513.13 Z" fill="#000000" fill-rule="evenodd" fill-opacity="1" /><path clip-path="url(#clip620)" d="M 0 0 M1159.37 2513.13 L1330.72 2513.13 L1330.72 2554.45 L1100.31 2554.45 L1100.31 2513.13 Q1128.26 2484.21 1176.38 2435.6 Q1224.75 2386.75 1237.14 2372.65 Q1260.72 2346.16 1269.96 2327.93 Q1279.44 2309.45 1279.44 2291.71 Q1279.44 2262.79 1259.02 2244.56 Q1238.85 2226.33 1206.28 2226.33 Q1183.19 2226.33 1157.42 2234.35 Q1131.9 2242.37 1102.74 2258.66 L1102.74 2209.07 Q1132.39 2197.16 1158.15 2191.09 Q1183.92 2185.01 1205.3 2185.01 Q1261.69 2185.01 1295.23 2213.21 Q1328.78 2241.4 1328.78 2288.55 Q1328.78 2310.91 1320.27 2331.09 Q1312.01 2351.02 1289.89 2378.24 Q1283.81 2385.29 1251.24 2419.07 Q1218.67 2452.61 1159.37 2513.13 Z" fill="#000000" fill-rule="evenodd" fill-opacity="1" /><path clip-path="url(#clip620)" d="M 0 0 M1488.95 2223.9 Q1451.03 2223.9 1431.83 2261.33 Q1412.87 2298.52 1412.87 2373.38 Q1412.87 2448 1431.83 2485.43 Q1451.03 2522.61 1488.95 2522.61 Q1527.11 2522.61 1546.07 2485.43 Q1565.27 2448 1565.27 2373.38 Q1565.27 2298.52 1546.07 2261.33 Q1527.11 2223.9 1488.95 2223.9 M1488.95 2185.01 Q1549.96 2185.01 1582.04 2233.38 Q1614.36 2281.5 1614.36 2373.38 Q1614.36 2465.01 1582.04 2513.38 Q1549.96 2561.5 1488.95 2561.5 Q1427.94 2561.5 1395.62 2513.38 Q1363.53 2465.01 1363.53 2373.38 Q1363.53 2281.5 1395.62 2233.38 Q1427.94 2185.01 1488.95 2185.01 Z" fill="#000000" fill-rule="evenodd" fill-opacity="1" /><path clip-path="url(#clip620)" d="M 0 0 M116.473 10622.1 L116.473 10537.1 L506.783 10330.2 L116.473 10330.2 L116.473 10268.9 L583.033 10268.9 L583.033 10353.9 L192.723 10560.8 L583.033 10560.8 L583.033 10622.1 L116.473 10622.1 Z" fill="#000000" fill-rule="evenodd" fill-opacity="1" /><path clip-path="url(#clip620)" d="M 0 0 M407.096 10049.6 Q407.096 10119.2 423.034 10146.1 Q438.971 10173 477.409 10173 Q508.033 10173 526.158 10153 Q543.971 10132.7 543.971 10098 Q543.971 10050.2 510.221 10021.4 Q476.159 9992.37 419.909 9992.37 L407.096 9992.37 L407.096 10049.6 M383.347 9934.87 L583.033 9934.87 L583.033 9992.37 L529.908 9992.37 Q561.783 10012.1 577.095 10041.4 Q592.095 10070.8 592.095 10113.3 Q592.095 10167.1 562.096 10198.9 Q531.783 10230.5 481.158 10230.5 Q422.096 10230.5 392.096 10191.1 Q362.097 10151.4 362.097 10073 L362.097 9992.37 L356.472 9992.37 Q316.784 9992.37 295.222 10018.6 Q273.347 10044.6 273.347 10091.7 Q273.347 10121.7 280.535 10150.2 Q287.722 10178.6 302.097 10204.9 L248.972 10204.9 Q236.785 10173.3 230.847 10143.6 Q224.597 10113.9 224.597 10085.8 Q224.597 10009.9 263.972 9972.37 Q303.347 9934.87 383.347 9934.87 Z" fill="#000000" fill-rule="evenodd" fill-opacity="1" /><path clip-path="url(#clip620)" d="M 0 0 M152.41 9522.68 L218.972 9522.68 Q189.285 9554.56 174.598 9590.81 Q159.91 9626.74 159.91 9667.37 Q159.91 9747.37 208.972 9789.87 Q257.722 9832.37 350.222 9832.37 Q442.409 9832.37 491.471 9789.87 Q540.221 9747.37 540.221 9667.37 Q540.221 9626.74 525.533 9590.81 Q510.846 9554.56 481.158 9522.68 L547.096 9522.68 Q569.596 9555.81 580.845 9592.99 Q592.095 9629.87 592.095 9671.12 Q592.095 9777.06 527.408 9837.99 Q462.409 9898.93 350.222 9898.93 Q237.722 9898.93 173.035 9837.99 Q108.035 9777.06 108.035 9671.12 Q108.035 9629.24 119.285 9592.37 Q130.223 9555.18 152.41 9522.68 Z" fill="#000000" fill-rule="evenodd" fill-opacity="1" /><path clip-path="url(#clip620)" d="M 0 0 M96.7856 9462.37 L96.7856 9404.87 L583.033 9404.87 L583.033 9462.37 L96.7856 9462.37 Z" fill="#000000" fill-rule="evenodd" fill-opacity="1" /><path clip-path="url(#clip620)" d="M 0 0 M246.472 8889.25 L300.222 8889.25 Q286.785 8913.62 280.222 8938.31 Q273.347 8962.69 273.347 8987.69 Q273.347 9043.62 308.972 9074.56 Q344.284 9105.5 408.346 9105.5 Q472.409 9105.5 508.033 9074.56 Q543.346 9043.62 543.346 8987.69 Q543.346 8962.69 536.783 8938.31 Q529.908 8913.62 516.471 8889.25 L569.596 8889.25 Q580.845 8913.31 586.47 8939.25 Q592.095 8964.87 592.095 8993.94 Q592.095 9073 542.408 9119.56 Q492.721 9166.12 408.346 9166.12 Q322.722 9166.12 273.66 9119.25 Q224.597 9072.06 224.597 8990.19 Q224.597 8963.62 230.222 8938.31 Q235.535 8913 246.472 8889.25 Z" fill="#000000" fill-rule="evenodd" fill-opacity="1" /><path clip-path="url(#clip620)" d="M 0 0 M273.347 8693.31 Q273.347 8739.56 309.597 8766.44 Q345.534 8793.31 408.346 8793.31 Q471.159 8793.31 507.408 8766.75 Q543.346 8739.87 543.346 8693.31 Q543.346 8647.37 507.096 8620.5 Q470.846 8593.62 408.346 8593.62 Q346.159 8593.62 309.909 8620.5 Q273.347 8647.37 273.347 8693.31 M224.597 8693.31 Q224.597 8618.31 273.347 8575.5 Q322.097 8532.69 408.346 8532.69 Q494.283 8532.69 543.346 8575.5 Q592.095 8618.31 592.095 8693.31 Q592.095 8768.62 543.346 8811.44 Q494.283 8853.94 408.346 8853.94 Q322.097 8853.94 273.347 8811.44 Q224.597 8768.62 224.597 8693.31 Z" fill="#000000" fill-rule="evenodd" fill-opacity="1" /><path clip-path="url(#clip620)" d="M 0 0 M371.784 8181.44 L583.033 8181.44 L583.033 8238.94 L373.659 8238.94 Q323.972 8238.94 299.284 8258.31 Q274.597 8277.69 274.597 8316.44 Q274.597 8363 304.284 8389.88 Q333.972 8416.75 385.222 8416.75 L583.033 8416.75 L583.033 8474.56 L233.035 8474.56 L233.035 8416.75 L287.41 8416.75 Q255.847 8396.13 240.222 8368.31 Q224.597 8340.19 224.597 8303.63 Q224.597 8243.31 262.097 8212.38 Q299.284 8181.44 371.784 8181.44 Z" fill="#000000" fill-rule="evenodd" fill-opacity="1" /><path clip-path="url(#clip620)" d="M 0 0 M246.472 7869.25 L300.222 7869.25 Q286.785 7893.63 280.222 7918.32 Q273.347 7942.69 273.347 7967.69 Q273.347 8023.63 308.972 8054.57 Q344.284 8085.5 408.346 8085.5 Q472.409 8085.5 508.033 8054.57 Q543.346 8023.63 543.346 7967.69 Q543.346 7942.69 536.783 7918.32 Q529.908 7893.63 516.471 7869.25 L569.596 7869.25 Q580.845 7893.32 586.47 7919.25 Q592.095 7944.88 592.095 7973.94 Q592.095 8053 542.408 8099.57 Q492.721 8146.13 408.346 8146.13 Q322.722 8146.13 273.66 8099.25 Q224.597 8052.07 224.597 7970.19 Q224.597 7943.63 230.222 7918.32 Q235.535 7893 246.472 7869.25 Z" fill="#000000" fill-rule="evenodd" fill-opacity="1" /><path clip-path="url(#clip620)" d="M 0 0 M393.659 7509.57 L421.784 7509.57 L421.784 7773.94 Q481.158 7770.19 512.408 7738.32 Q543.346 7706.13 543.346 7648.94 Q543.346 7615.82 535.221 7584.88 Q527.096 7553.63 510.846 7523.01 L565.221 7523.01 Q578.345 7553.94 585.22 7586.44 Q592.095 7618.94 592.095 7652.38 Q592.095 7736.13 543.346 7785.19 Q494.596 7833.94 411.471 7833.94 Q325.534 7833.94 275.222 7787.69 Q224.597 7741.13 224.597 7662.38 Q224.597 7591.76 270.222 7550.82 Q315.534 7509.57 393.659 7509.57 M376.784 7567.07 Q329.597 7567.69 301.472 7593.63 Q273.347 7619.26 273.347 7661.75 Q273.347 7709.88 300.534 7738.94 Q327.722 7767.69 377.097 7772.07 L376.784 7567.07 Z" fill="#000000" fill-rule="evenodd" fill-opacity="1" /><path clip-path="url(#clip620)" d="M 0 0 M371.784 7158.32 L583.033 7158.32 L583.033 7215.82 L373.659 7215.82 Q323.972 7215.82 299.284 7235.19 Q274.597 7254.57 274.597 7293.32 Q274.597 7339.88 304.284 7366.76 Q333.972 7393.63 385.222 7393.63 L583.033 7393.63 L583.033 7451.44 L233.035 7451.44 L233.035 7393.63 L287.41 7393.63 Q255.847 7373.01 240.222 7345.19 Q224.597 7317.07 224.597 7280.51 Q224.597 7220.19 262.097 7189.26 Q299.284 7158.32 371.784 7158.32 Z" fill="#000000" fill-rule="evenodd" fill-opacity="1" /><path clip-path="url(#clip620)" d="M 0 0 M133.66 7041.13 L233.035 7041.13 L233.035 6922.7 L277.722 6922.7 L277.722 7041.13 L467.721 7041.13 Q510.533 7041.13 522.721 7029.57 Q534.908 7017.7 534.908 6981.76 L534.908 6922.7 L583.033 6922.7 L583.033 6981.76 Q583.033 7048.32 558.346 7073.63 Q533.346 7098.95 467.721 7098.95 L277.722 7098.95 L277.722 7141.13 L233.035 7141.13 L233.035 7098.95 L133.66 7098.95 L133.66 7041.13 Z" fill="#000000" fill-rule="evenodd" fill-opacity="1" /><path clip-path="url(#clip620)" d="M 0 0 M286.785 6659.57 Q281.16 6669.26 278.66 6680.82 Q275.847 6692.07 275.847 6705.82 Q275.847 6754.57 307.722 6780.82 Q339.284 6806.76 398.659 6806.76 L583.033 6806.76 L583.033 6864.57 L233.035 6864.57 L233.035 6806.76 L287.41 6806.76 Q255.535 6788.63 240.222 6759.57 Q224.597 6730.51 224.597 6688.95 Q224.597 6683.01 225.535 6675.82 Q226.16 6668.64 227.722 6659.89 L286.785 6659.57 Z" fill="#000000" fill-rule="evenodd" fill-opacity="1" /><path clip-path="url(#clip620)" d="M 0 0 M407.096 6440.2 Q407.096 6509.89 423.034 6536.76 Q438.971 6563.64 477.409 6563.64 Q508.033 6563.64 526.158 6543.64 Q543.971 6523.32 543.971 6488.64 Q543.971 6440.82 510.221 6412.07 Q476.159 6383.01 419.909 6383.01 L407.096 6383.01 L407.096 6440.2 M383.347 6325.51 L583.033 6325.51 L583.033 6383.01 L529.908 6383.01 Q561.783 6402.7 577.095 6432.07 Q592.095 6461.45 592.095 6503.95 Q592.095 6557.7 562.096 6589.57 Q531.783 6621.14 481.158 6621.14 Q422.096 6621.14 392.096 6581.76 Q362.097 6542.07 362.097 6463.64 L362.097 6383.01 L356.472 6383.01 Q316.784 6383.01 295.222 6409.26 Q273.347 6435.2 273.347 6482.39 Q273.347 6512.39 280.535 6540.82 Q287.722 6569.26 302.097 6595.51 L248.972 6595.51 Q236.785 6563.95 230.847 6534.26 Q224.597 6504.57 224.597 6476.45 Q224.597 6400.51 263.972 6363.01 Q303.347 6325.51 383.347 6325.51 Z" fill="#000000" fill-rule="evenodd" fill-opacity="1" /><path clip-path="url(#clip620)" d="M 0 0 M133.66 6208.33 L233.035 6208.33 L233.035 6089.89 L277.722 6089.89 L277.722 6208.33 L467.721 6208.33 Q510.533 6208.33 522.721 6196.76 Q534.908 6184.89 534.908 6148.95 L534.908 6089.89 L583.033 6089.89 L583.033 6148.95 Q583.033 6215.51 558.346 6240.83 Q533.346 6266.14 467.721 6266.14 L277.722 6266.14 L277.722 6308.32 L233.035 6308.32 L233.035 6266.14 L133.66 6266.14 L133.66 6208.33 Z" fill="#000000" fill-rule="evenodd" fill-opacity="1" /><path clip-path="url(#clip620)" d="M 0 0 M233.035 6029.58 L233.035 5972.08 L583.033 5972.08 L583.033 6029.58 L233.035 6029.58 M96.7856 6029.58 L96.7856 5972.08 L169.598 5972.08 L169.598 6029.58 L96.7856 6029.58 Z" fill="#000000" fill-rule="evenodd" fill-opacity="1" /><path clip-path="url(#clip620)" d="M 0 0 M273.347 5776.14 Q273.347 5822.39 309.597 5849.26 Q345.534 5876.14 408.346 5876.14 Q471.159 5876.14 507.408 5849.58 Q543.346 5822.7 543.346 5776.14 Q543.346 5730.2 507.096 5703.33 Q470.846 5676.45 408.346 5676.45 Q346.159 5676.45 309.909 5703.33 Q273.347 5730.2 273.347 5776.14 M224.597 5776.14 Q224.597 5701.14 273.347 5658.33 Q322.097 5615.52 408.346 5615.52 Q494.283 5615.52 543.346 5658.33 Q592.095 5701.14 592.095 5776.14 Q592.095 5851.45 543.346 5894.26 Q494.283 5936.76 408.346 5936.76 Q322.097 5936.76 273.347 5894.26 Q224.597 5851.45 224.597 5776.14 Z" fill="#000000" fill-rule="evenodd" fill-opacity="1" /><path clip-path="url(#clip620)" d="M 0 0 M371.784 5264.27 L583.033 5264.27 L583.033 5321.77 L373.659 5321.77 Q323.972 5321.77 299.284 5341.14 Q274.597 5360.52 274.597 5399.27 Q274.597 5445.83 304.284 5472.7 Q333.972 5499.58 385.222 5499.58 L583.033 5499.58 L583.033 5557.39 L233.035 5557.39 L233.035 5499.58 L287.41 5499.58 Q255.847 5478.95 240.222 5451.14 Q224.597 5423.02 224.597 5386.45 Q224.597 5326.14 262.097 5295.21 Q299.284 5264.27 371.784 5264.27 Z" fill="#000000" fill-rule="evenodd" fill-opacity="1" /><path clip-path="url(#clip620)" d="M 0 0 M97.4105 4862.39 Q169.285 4904.27 239.597 4924.58 Q309.909 4944.89 382.097 4944.89 Q454.284 4944.89 525.221 4924.58 Q595.845 4903.96 667.407 4862.39 L667.407 4912.39 Q593.97 4959.27 523.033 4982.71 Q452.096 5005.83 382.097 5005.83 Q312.409 5005.83 241.785 4982.71 Q171.16 4959.58 97.4105 4912.39 L97.4105 4862.39 Z" fill="#000000" fill-rule="evenodd" fill-opacity="1" /><path clip-path="url(#clip620)" d="M 0 0 M300.222 4529.58 Q261.472 4508.02 243.035 4478.02 Q224.597 4448.02 224.597 4407.4 Q224.597 4352.71 263.035 4323.02 Q301.159 4293.34 371.784 4293.34 L583.033 4293.34 L583.033 4351.15 L373.659 4351.15 Q323.347 4351.15 298.972 4368.96 Q274.597 4386.77 274.597 4423.33 Q274.597 4468.02 304.284 4493.96 Q333.972 4519.9 385.222 4519.9 L583.033 4519.9 L583.033 4577.71 L373.659 4577.71 Q323.034 4577.71 298.972 4595.52 Q274.597 4613.33 274.597 4650.52 Q274.597 4694.58 304.597 4720.52 Q334.284 4746.46 385.222 4746.46 L583.033 4746.46 L583.033 4804.27 L233.035 4804.27 L233.035 4746.46 L287.41 4746.46 Q255.222 4726.77 239.91 4699.27 Q224.597 4671.77 224.597 4633.96 Q224.597 4595.83 243.972 4569.27 Q263.347 4542.4 300.222 4529.58 Z" fill="#000000" fill-rule="evenodd" fill-opacity="1" /><path clip-path="url(#clip620)" d="M 0 0 M273.347 4097.4 Q273.347 4143.65 309.597 4170.52 Q345.534 4197.4 408.346 4197.4 Q471.159 4197.4 507.408 4170.84 Q543.346 4143.96 543.346 4097.4 Q543.346 4051.46 507.096 4024.59 Q470.846 3997.71 408.346 3997.71 Q346.159 3997.71 309.909 4024.59 Q273.347 4051.46 273.347 4097.4 M224.597 4097.4 Q224.597 4022.4 273.347 3979.59 Q322.097 3936.77 408.346 3936.77 Q494.283 3936.77 543.346 3979.59 Q592.095 4022.4 592.095 4097.4 Q592.095 4172.71 543.346 4215.52 Q494.283 4258.02 408.346 4258.02 Q322.097 4258.02 273.347 4215.52 Q224.597 4172.71 224.597 4097.4 Z" fill="#000000" fill-rule="evenodd" fill-opacity="1" /><path clip-path="url(#clip620)" d="M 0 0 M96.7856 3876.46 L96.7856 3818.96 L583.033 3818.96 L583.033 3876.46 L96.7856 3876.46 Z" fill="#000000" fill-rule="evenodd" fill-opacity="1" /><path clip-path="url(#clip620)" d="M 0 0 M116.473 3656.46 L116.473 3603.34 L642.408 3765.84 L642.408 3818.96 L116.473 3656.46 Z" fill="#000000" fill-rule="evenodd" fill-opacity="1" /><path clip-path="url(#clip620)" d="M 0 0 M300.222 3270.53 Q261.472 3248.97 243.035 3218.97 Q224.597 3188.97 224.597 3148.34 Q224.597 3093.65 263.035 3063.97 Q301.159 3034.28 371.784 3034.28 L583.033 3034.28 L583.033 3092.09 L373.659 3092.09 Q323.347 3092.09 298.972 3109.9 Q274.597 3127.72 274.597 3164.28 Q274.597 3208.97 304.284 3234.9 Q333.972 3260.84 385.222 3260.84 L583.033 3260.84 L583.033 3318.65 L373.659 3318.65 Q323.034 3318.65 298.972 3336.47 Q274.597 3354.28 274.597 3391.47 Q274.597 3435.53 304.597 3461.46 Q334.284 3487.4 385.222 3487.4 L583.033 3487.4 L583.033 3545.21 L233.035 3545.21 L233.035 3487.4 L287.41 3487.4 Q255.222 3467.71 239.91 3440.22 Q224.597 3412.72 224.597 3374.9 Q224.597 3336.78 243.972 3310.22 Q263.347 3283.34 300.222 3270.53 Z" fill="#000000" fill-rule="evenodd" fill-opacity="1" /><path clip-path="url(#clip620)" d="M 0 0 M233.035 2870.53 Q238.66 2841.78 255.847 2826.16 Q272.722 2810.22 298.347 2810.22 Q337.097 2810.22 358.034 2839.91 Q378.972 2869.59 378.972 2924.91 Q378.972 2942.72 375.847 2962.41 Q372.409 2981.78 366.159 3003.65 L328.347 3003.65 Q336.784 2987.41 340.847 2968.97 Q344.909 2950.22 344.909 2929.28 Q344.909 2895.22 332.722 2876.47 Q320.222 2857.72 298.347 2857.72 Q275.222 2857.72 263.347 2875.22 Q251.472 2892.41 251.472 2926.16 L251.472 2953.03 L217.722 2953.03 L217.722 2923.66 Q217.722 2894.28 208.035 2879.28 Q198.035 2863.97 179.285 2863.97 Q161.16 2863.97 151.785 2879.59 Q142.098 2895.22 142.098 2924.91 Q142.098 2937.41 144.91 2953.34 Q147.723 2969.28 154.91 2994.59 L118.973 2994.59 Q113.66 2971.78 110.848 2951.78 Q108.035 2931.78 108.035 2914.59 Q108.035 2869.59 126.473 2843.34 Q144.91 2816.78 175.848 2816.78 Q197.41 2816.78 212.41 2830.84 Q227.41 2844.91 233.035 2870.53 Z" fill="#000000" fill-rule="evenodd" fill-opacity="1" /><path clip-path="url(#clip620)" d="M 0 0 M97.4105 2758.97 L97.4105 2708.97 Q171.16 2662.09 241.785 2638.97 Q312.409 2615.53 382.097 2615.53 Q452.096 2615.53 523.033 2638.97 Q593.97 2662.09 667.407 2708.97 L667.407 2758.97 Q595.845 2717.41 525.221 2697.09 Q454.284 2676.47 382.097 2676.47 Q309.909 2676.47 239.597 2697.09 Q169.285 2717.41 97.4105 2758.97 Z" fill="#000000" fill-rule="evenodd" fill-opacity="1" /><path clip-path="url(#clip622)" d="
M8451.47 12866.5 L13697.9 12866.5 L13697.9 195.886 L8451.47 195.886 L8451.47 12866.5  Z
  " fill="#f9f8f2" fill-rule="evenodd" fill-opacity="1"/>
<polyline clip-path="url(#clip622)" style="stroke:#000000; stroke-width:48; stroke-opacity:1; fill:none" points="
  8451.47,12866.5 13697.9,12866.5 13697.9,195.886 8451.47,195.886 8451.47,12866.5 
  "/>
<polyline clip-path="url(#clip622)" style="stroke:#e26f46; stroke-width:48; stroke-opacity:1; fill:none" stroke-dasharray="24, 48" points="
  8451.47,25624.8 8451.47,-12387.2 
  "/>
<polyline clip-path="url(#clip622)" style="stroke:#e26f46; stroke-width:48; stroke-opacity:1; fill:none" stroke-dasharray="24, 48" points="
  13697.9,25624.8 13697.9,-12387.2 
  "/>
<polyline clip-path="url(#clip622)" style="stroke:#000000; stroke-width:48; stroke-opacity:1; fill:none" points="
  2455.52,5876.16 2516.08,5876.16 2576.65,5876.16 2637.21,5876.16 2697.78,5876.16 2758.34,5876.16 2818.91,5876.16 2879.47,5876.16 2940.04,5876.16 3000.6,5876.16 
  3061.17,5876.16 3121.73,5876.16 3182.3,5876.16 3242.86,5876.16 3303.43,5876.16 3363.99,5876.16 3424.56,5876.16 3485.12,5876.16 3545.69,5876.16 3606.25,5876.16 
  3666.82,5876.16 3727.38,5876.16 3787.95,5876.16 3848.51,5876.16 3909.08,5876.16 3969.64,5876.16 4030.21,5876.16 4090.77,5876.16 4151.34,5876.16 4211.91,5876.16 
  4272.47,5876.16 4333.04,5876.16 4393.6,5876.16 4454.17,5876.16 4514.73,5876.16 4575.3,5876.16 4635.86,5876.16 4696.43,5876.16 4756.99,5876.16 4817.56,5876.16 
  4878.12,5876.16 4938.69,5876.16 4999.25,5876.16 5059.82,5876.16 5120.38,5876.16 5180.95,5876.16 5241.51,5876.16 5302.08,5876.16 5362.64,5876.16 5423.21,5876.16 
  5483.77,5876.16 5544.34,5876.16 5604.9,5876.16 5665.47,5876.16 5726.03,5876.16 5786.6,5876.16 5847.16,5876.16 5907.73,5876.16 5968.29,5876.16 6028.86,5876.16 
  6089.42,5876.16 6149.99,5876.16 6210.56,5876.16 6271.12,5876.16 6331.69,5876.16 6392.25,5876.16 6452.82,5876.16 6513.38,5876.16 6573.95,5876.16 6634.51,5876.16 
  6695.08,5876.16 6755.64,5876.16 6816.21,5876.16 6876.77,5876.16 6937.34,5876.16 6997.9,5876.16 7058.47,5876.16 7119.03,5876.16 7179.6,5876.16 7240.16,5876.16 
  7300.73,5876.16 7361.29,5876.16 7421.86,5876.16 7482.42,5876.16 7542.99,5876.16 7603.55,5876.16 7664.12,5876.16 7724.68,5876.16 7785.25,5876.16 7845.81,5876.16 
  7906.38,5876.16 7966.94,5876.16 8027.51,5876.16 8088.07,5876.16 8148.64,5876.16 8209.21,5876.16 8269.77,5876.16 8330.34,5876.16 8390.9,5876.16 8451.47,5876.16 
  
  "/>
<polyline clip-path="url(#clip622)" style="stroke:#000000; stroke-width:48; stroke-opacity:1; fill:none" points="
  13697.9,5876.16 13758.5,5876.16 13819.1,5876.16 13879.6,5876.16 13940.2,5876.16 14000.7,5876.16 14061.3,5876.16 14121.9,5876.16 14182.4,5876.16 14243,5876.16 
  14303.6,5876.16 14364.1,5876.16 14424.7,5876.16 14485.3,5876.16 14545.8,5876.16 14606.4,5876.16 14667,5876.16 14727.5,5876.16 14788.1,5876.16 14848.7,5876.16 
  14909.2,5876.16 14969.8,5876.16 15030.4,5876.16 15090.9,5876.16 15151.5,5876.16 15212.1,5876.16 15272.6,5876.16 15333.2,5876.16 15393.7,5876.16 15454.3,5876.16 
  15514.9,5876.16 15575.4,5876.16 15636,5876.16 15696.6,5876.16 15757.1,5876.16 15817.7,5876.16 15878.3,5876.16 15938.8,5876.16 15999.4,5876.16 16060,5876.16 
  16120.5,5876.16 16181.1,5876.16 16241.7,5876.16 16302.2,5876.16 16362.8,5876.16 16423.4,5876.16 16483.9,5876.16 16544.5,5876.16 16605,5876.16 16665.6,5876.16 
  16726.2,5876.16 16786.7,5876.16 16847.3,5876.16 16907.9,5876.16 16968.4,5876.16 17029,5876.16 17089.6,5876.16 17150.1,5876.16 17210.7,5876.16 17271.3,5876.16 
  17331.8,5876.16 17392.4,5876.16 17453,5876.16 17513.5,5876.16 17574.1,5876.16 17634.7,5876.16 17695.2,5876.16 17755.8,5876.16 17816.4,5876.16 17876.9,5876.16 
  17937.5,5876.16 17998,5876.16 18058.6,5876.16 18119.2,5876.16 18179.7,5876.16 18240.3,5876.16 18300.9,5876.16 18361.4,5876.16 18422,5876.16 18482.6,5876.16 
  18543.1,5876.16 18603.7,5876.16 18664.3,5876.16 18724.8,5876.16 18785.4,5876.16 18846,5876.16 18906.5,5876.16 18967.1,5876.16 19027.7,5876.16 19088.2,5876.16 
  19148.8,5876.16 19209.4,5876.16 19269.9,5876.16 19330.5,5876.16 19391,5876.16 19451.6,5876.16 19512.2,5876.16 19572.7,5876.16 19633.3,5876.16 19693.9,5876.16 
  
  "/>
<polyline clip-path="url(#clip622)" style="stroke:#000000; stroke-width:48; stroke-opacity:1; fill:none" stroke-dasharray="192, 120" points="
  8451.47,5876.16 8585.99,5876.16 8720.51,5876.16 8855.04,5876.16 8989.56,5876.16 9124.09,5876.16 9258.61,5876.16 9393.14,5876.16 9527.66,5876.16 9662.19,5876.16 
  9796.71,5876.16 9931.24,5876.16 10065.8,5876.16 10200.3,5876.16 10334.8,5876.16 10469.3,5876.16 10603.9,5876.16 10738.4,5876.16 10872.9,5876.16 11007.4,5876.16 
  11142,5876.16 11276.5,5876.16 11411,5876.16 11545.5,5876.16 11680.1,5876.16 11814.6,5876.16 11949.1,5876.16 12083.6,5876.16 12218.2,5876.16 12352.7,5876.16 
  12487.2,5876.16 12621.7,5876.16 12756.3,5876.16 12890.8,5876.16 13025.3,5876.16 13159.8,5876.16 13294.3,5876.16 13428.9,5876.16 13563.4,5876.16 13697.9,5876.16 
  
  "/>
<polyline clip-path="url(#clip622)" style="stroke:#000000; stroke-width:48; stroke-opacity:1; fill:none" points="
  2455.52,5876.16 2516.08,5877.03 2576.65,5877.9 2637.21,5878.78 2697.78,5879.68 2758.34,5880.59 2818.91,5881.52 2879.47,5882.48 2940.04,5883.47 3000.6,5884.5 
  3061.17,5885.57 3121.73,5886.69 3182.3,5887.86 3242.86,5889.08 3303.43,5890.37 3363.99,5891.72 3424.56,5893.15 3485.12,5894.66 3545.69,5896.25 3606.25,5897.93 
  3666.82,5899.71 3727.38,5901.59 3787.95,5903.59 3848.51,5905.7 3909.08,5907.94 3969.64,5910.31 4030.21,5912.82 4090.77,5915.47 4151.34,5918.29 4211.91,5921.26 
  4272.47,5924.41 4333.04,5927.75 4393.6,5931.27 4454.17,5934.99 4514.73,5938.93 4575.3,5943.08 4635.86,5947.46 4696.43,5952.09 4756.99,5956.96 4817.56,5962.1 
  4878.12,5967.52 4938.69,5973.21 4999.25,5979.21 5059.82,5985.52 5120.38,5992.14 5180.95,5999.11 5241.51,6006.42 5302.08,6014.09 5362.64,6022.13 5423.21,6030.57 
  5483.77,6039.4 5544.34,6048.65 5604.9,6058.33 5665.47,6068.45 5726.03,6079.03 5786.6,6090.08 5847.16,6101.62 5907.73,6113.67 5968.29,6126.23 6028.86,6139.32 
  6089.42,6152.96 6149.99,6167.16 6210.56,6181.94 6271.12,6197.31 6331.69,6213.29 6392.25,6229.89 6452.82,6247.13 6513.38,6265.03 6573.95,6283.59 6634.51,6302.83 
  6695.08,6322.77 6755.64,6343.42 6816.21,6364.79 6876.77,6386.91 6937.34,6409.77 6997.9,6433.4 7058.47,6457.82 7119.03,6483.02 7179.6,6509.03 7240.16,6535.85 
  7300.73,6563.5 7361.29,6591.99 7421.86,6621.33 7482.42,6651.53 7542.99,6682.6 7603.55,6714.55 7664.12,6747.39 7724.68,6781.12 7785.25,6815.76 7845.81,6851.31 
  7906.38,6887.78 7966.94,6925.18 8027.51,6963.5 8088.07,7002.77 8148.64,7042.97 8209.21,7084.11 8269.77,7126.2 8330.34,7169.24 8390.9,7213.23 8451.47,7258.17 
  
  "/>
<polyline clip-path="url(#clip622)" style="stroke:#000000; stroke-width:48; stroke-opacity:1; fill:none" points="
  13697.9,4494.16 13758.5,4539.1 13819.1,4583.09 13879.6,4626.13 13940.2,4668.22 14000.7,4709.36 14061.3,4749.56 14121.9,4788.82 14182.4,4827.15 14243,4864.54 
  14303.6,4901.01 14364.1,4936.57 14424.7,4971.21 14485.3,5004.94 14545.8,5037.78 14606.4,5069.73 14667,5100.8 14727.5,5131 14788.1,5160.34 14848.7,5188.83 
  14909.2,5216.48 14969.8,5243.3 15030.4,5269.31 15090.9,5294.51 15151.5,5318.92 15212.1,5342.55 15272.6,5365.42 15333.2,5387.53 15393.7,5408.91 15454.3,5429.56 
  15514.9,5449.5 15575.4,5468.74 15636,5487.3 15696.6,5505.19 15757.1,5522.43 15817.7,5539.04 15878.3,5555.02 15938.8,5570.39 15999.4,5585.17 16060,5599.37 
  16120.5,5613.01 16181.1,5626.1 16241.7,5638.66 16302.2,5650.7 16362.8,5662.24 16423.4,5673.3 16483.9,5683.88 16544.5,5694 16605,5703.68 16665.6,5712.93 
  16726.2,5721.76 16786.7,5730.19 16847.3,5738.24 16907.9,5745.91 16968.4,5753.22 17029,5760.18 17089.6,5766.81 17150.1,5773.12 17210.7,5779.11 17271.3,5784.81 
  17331.8,5790.22 17392.4,5795.36 17453,5800.24 17513.5,5804.86 17574.1,5809.25 17634.7,5813.4 17695.2,5817.34 17755.8,5821.06 17816.4,5824.58 17876.9,5827.91 
  17937.5,5831.06 17998,5834.04 18058.6,5836.85 18119.2,5839.51 18179.7,5842.02 18240.3,5844.39 18300.9,5846.63 18361.4,5848.74 18422,5850.73 18482.6,5852.62 
  18543.1,5854.4 18603.7,5856.08 18664.3,5857.67 18724.8,5859.18 18785.4,5860.6 18846,5861.96 18906.5,5863.25 18967.1,5864.47 19027.7,5865.64 19088.2,5866.76 
  19148.8,5867.83 19209.4,5868.85 19269.9,5869.85 19330.5,5870.81 19391,5871.74 19451.6,5872.65 19512.2,5873.55 19572.7,5874.43 19633.3,5875.3 19693.9,5876.16 
  
  "/>
<polyline clip-path="url(#clip622)" style="stroke:#000000; stroke-width:48; stroke-opacity:1; fill:none" stroke-dasharray="192, 120" points="
  8451.47,7258.17 8585.99,7101.82 8720.51,6957.79 8855.04,6825.92 8989.56,6705.78 9124.09,6596.92 9258.61,6498.8 9393.14,6410.82 9527.66,6332.32 9662.19,6262.6 
  9796.71,6200.91 9931.24,6146.5 10065.8,6098.56 10200.3,6056.31 10334.8,6018.94 10469.3,5985.65 10603.9,5955.64 10738.4,5928.13 10872.9,5902.33 11007.4,5877.48 
  11142,5852.82 11276.5,5827.58 11411,5801.03 11545.5,5772.43 11680.1,5741.05 11814.6,5706.15 11949.1,5667.03 12083.6,5622.97 12218.2,5573.3 12352.7,5517.34 
  12487.2,5454.46 12621.7,5384.04 12756.3,5305.53 12890.8,5218.4 13025.3,5122.2 13159.8,5016.55 13294.3,4901.11 13428.9,4775.65 13563.4,4639.99 13697.9,4494.16 
  
  "/>
<polyline clip-path="url(#clip622)" style="stroke:#000000; stroke-width:48; stroke-opacity:1; fill:none" points="
  2455.52,5876.16 2516.08,5888.71 2576.65,5901.25 2637.21,5913.81 2697.78,5926.39 2758.34,5939 2818.91,5951.65 2879.47,5964.34 2940.04,5977.09 3000.6,5989.9 
  3061.17,6002.77 3121.73,6015.73 3182.3,6028.77 3242.86,6041.91 3303.43,6055.15 3363.99,6068.5 3424.56,6081.97 3485.12,6095.57 3545.69,6109.3 3606.25,6123.18 
  3666.82,6137.21 3727.38,6151.39 3787.95,6165.75 3848.51,6180.28 3909.08,6194.99 3969.64,6209.89 4030.21,6224.99 4090.77,6240.3 4151.34,6255.82 4211.91,6271.56 
  4272.47,6287.53 4333.04,6303.73 4393.6,6320.18 4454.17,6336.88 4514.73,6353.84 4575.3,6371.07 4635.86,6388.57 4696.43,6406.35 4756.99,6424.42 4817.56,6442.78 
  4878.12,6461.44 4938.69,6480.41 4999.25,6499.7 5059.82,6519.31 5120.38,6539.25 5180.95,6559.52 5241.51,6580.14 5302.08,6601.11 5362.64,6622.43 5423.21,6644.11 
  5483.77,6666.16 5544.34,6688.59 5604.9,6711.39 5665.47,6734.58 5726.03,6758.16 5786.6,6782.14 5847.16,6806.53 5907.73,6831.32 5968.29,6856.53 6028.86,6882.15 
  6089.42,6908.21 6149.99,6934.69 6210.56,6961.61 6271.12,6988.97 6331.69,7016.77 6392.25,7045.03 6452.82,7073.74 6513.38,7102.91 6573.95,7132.55 6634.51,7162.65 
  6695.08,7193.23 6755.64,7224.28 6816.21,7255.81 6876.77,7287.83 6937.34,7320.33 6997.9,7353.33 7058.47,7386.82 7119.03,7420.81 7179.6,7455.31 7240.16,7490.3 
  7300.73,7525.81 7361.29,7561.82 7421.86,7598.35 7482.42,7635.39 7542.99,7672.96 7603.55,7711.04 7664.12,7749.64 7724.68,7788.77 7785.25,7828.42 7845.81,7868.61 
  7906.38,7909.32 7966.94,7950.56 8027.51,7992.33 8088.07,8034.64 8148.64,8077.48 8209.21,8120.85 8269.77,8164.76 8330.34,8209.21 8390.9,8254.19 8451.47,8299.7 
  
  "/>
<polyline clip-path="url(#clip622)" style="stroke:#000000; stroke-width:48; stroke-opacity:1; fill:none" points="
  13697.9,3452.62 13758.5,3498.14 13819.1,3543.12 13879.6,3587.57 13940.2,3631.48 14000.7,3674.85 14061.3,3717.69 14121.9,3760 14182.4,3801.77 14243,3843.01 
  14303.6,3883.72 14364.1,3923.9 14424.7,3963.56 14485.3,4002.69 14545.8,4041.29 14606.4,4079.37 14667,4116.93 14727.5,4153.98 14788.1,4190.51 14848.7,4226.52 
  14909.2,4262.03 14969.8,4297.02 15030.4,4331.51 15090.9,4365.51 15151.5,4399 15212.1,4431.99 15272.6,4464.5 15333.2,4496.52 15393.7,4528.05 15454.3,4559.1 
  15514.9,4589.68 15575.4,4619.78 15636,4649.42 15696.6,4678.59 15757.1,4707.3 15817.7,4735.55 15878.3,4763.36 15938.8,4790.72 15999.4,4817.64 16060,4844.12 
  16120.5,4870.17 16181.1,4895.8 16241.7,4921.01 16302.2,4945.8 16362.8,4970.19 16423.4,4994.17 16483.9,5017.75 16544.5,5040.94 16605,5063.74 16665.6,5086.17 
  16726.2,5108.22 16786.7,5129.9 16847.3,5151.22 16907.9,5172.19 16968.4,5192.8 17029,5213.08 17089.6,5233.02 17150.1,5252.63 17210.7,5271.91 17271.3,5290.89 
  17331.8,5309.55 17392.4,5327.91 17453,5345.98 17513.5,5363.76 17574.1,5381.26 17634.7,5398.48 17695.2,5415.44 17755.8,5432.15 17816.4,5448.6 17876.9,5464.8 
  17937.5,5480.77 17998,5496.51 18058.6,5512.03 18119.2,5527.34 18179.7,5542.44 18240.3,5557.34 18300.9,5572.05 18361.4,5586.58 18422,5600.93 18482.6,5615.12 
  18543.1,5629.15 18603.7,5643.02 18664.3,5656.76 18724.8,5670.35 18785.4,5683.82 18846,5697.18 18906.5,5710.42 18967.1,5723.55 19027.7,5736.6 19088.2,5749.55 
  19148.8,5762.43 19209.4,5775.24 19269.9,5787.98 19330.5,5800.68 19391,5813.32 19451.6,5825.93 19512.2,5838.51 19572.7,5851.07 19633.3,5863.62 19693.9,5876.16 
  
  "/>
<polyline clip-path="url(#clip622)" style="stroke:#000000; stroke-width:48; stroke-opacity:1; fill:none" stroke-dasharray="192, 120" points="
  8451.47,8299.7 8585.99,8118.59 8720.51,7945.07 8855.04,7778.94 8989.56,7619.86 9124.09,7467.51 9258.61,7321.56 9393.14,7181.66 9527.66,7047.43 9662.19,6918.49 
  9796.71,6794.44 9931.24,6674.88 10065.8,6559.39 10200.3,6447.53 10334.8,6338.88 10469.3,6232.99 10603.9,6129.42 10738.4,6027.71 10872.9,5927.44 11007.4,5828.14 
  11142,5729.38 11276.5,5630.72 11411,5531.74 11545.5,5432.02 11680.1,5331.14 11814.6,5228.73 11949.1,5124.38 12083.6,5017.75 12218.2,4908.48 12352.7,4796.24 
  12487.2,4680.71 12621.7,4561.62 12756.3,4438.69 12890.8,4311.67 13025.3,4180.33 13159.8,4044.48 13294.3,3903.92 13428.9,3758.52 13563.4,3608.1 13697.9,3452.62 
  
  "/>
<polyline clip-path="url(#clip622)" style="stroke:#000000; stroke-width:48; stroke-opacity:1; fill:none" points="
  2455.52,5876.16 2516.08,5914.03 2576.65,5951.89 2637.21,5989.74 2697.78,6027.58 2758.34,6065.41 2818.91,6103.25 2879.47,6141.09 2940.04,6178.93 3000.6,6216.78 
  3061.17,6254.63 3121.73,6292.5 3182.3,6330.38 3242.86,6368.28 3303.43,6406.19 3363.99,6444.13 3424.56,6482.08 3485.12,6520.07 3545.69,6558.08 3606.25,6596.12 
  3666.82,6634.2 3727.38,6672.31 3787.95,6710.46 3848.51,6748.64 3909.08,6786.87 3969.64,6825.15 4030.21,6863.47 4090.77,6901.84 4151.34,6940.26 4211.91,6978.73 
  4272.47,7017.26 4333.04,7055.85 4393.6,7094.5 4454.17,7133.21 4514.73,7171.98 4575.3,7210.82 4635.86,7249.73 4696.43,7288.71 4756.99,7327.76 4817.56,7366.89 
  4878.12,7406.1 4938.69,7445.38 4999.25,7484.74 5059.82,7524.19 5120.38,7563.72 5180.95,7603.33 5241.51,7643.04 5302.08,7682.83 5362.64,7722.72 5423.21,7762.7 
  5483.77,7802.77 5544.34,7842.95 5604.9,7883.22 5665.47,7923.59 5726.03,7964.06 5786.6,8004.64 5847.16,8045.32 5907.73,8086.11 5968.29,8127.01 6028.86,8168.02 
  6089.42,8209.14 6149.99,8250.37 6210.56,8291.72 6271.12,8333.18 6331.69,8374.76 6392.25,8416.45 6452.82,8458.27 6513.38,8500.2 6573.95,8542.26 6634.51,8584.44 
  6695.08,8626.75 6755.64,8669.18 6816.21,8711.74 6876.77,8754.42 6937.34,8797.23 6997.9,8840.18 7058.47,8883.25 7119.03,8926.45 7179.6,8969.79 7240.16,9013.26 
  7300.73,9056.86 7361.29,9100.59 7421.86,9144.46 7482.42,9188.47 7542.99,9232.61 7603.55,9276.89 7664.12,9321.31 7724.68,9365.86 7785.25,9410.55 7845.81,9455.39 
  7906.38,9500.36 7966.94,9545.47 8027.51,9590.72 8088.07,9636.11 8148.64,9681.64 8209.21,9727.31 8269.77,9773.13 8330.34,9819.08 8390.9,9865.18 8451.47,9911.41 
  
  "/>
<polyline clip-path="url(#clip622)" style="stroke:#000000; stroke-width:48; stroke-opacity:1; fill:none" points="
  13697.9,1840.92 13758.5,1887.15 13819.1,1933.25 13879.6,1979.2 13940.2,2025.01 14000.7,2070.69 14061.3,2116.22 14121.9,2161.61 14182.4,2206.86 14243,2251.97 
  14303.6,2296.94 14364.1,2341.77 14424.7,2386.47 14485.3,2431.02 14545.8,2475.44 14606.4,2519.72 14667,2563.86 14727.5,2607.86 14788.1,2651.74 14848.7,2695.47 
  14909.2,2739.07 14969.8,2782.54 15030.4,2825.88 15090.9,2869.08 15151.5,2912.15 15212.1,2955.09 15272.6,2997.91 15333.2,3040.59 15393.7,3083.15 15454.3,3125.58 
  15514.9,3167.88 15575.4,3210.06 15636,3252.12 15696.6,3294.06 15757.1,3335.88 15817.7,3377.57 15878.3,3419.15 15938.8,3460.61 15999.4,3501.96 16060,3543.19 
  16120.5,3584.31 16181.1,3625.32 16241.7,3666.22 16302.2,3707.01 16362.8,3747.69 16423.4,3788.27 16483.9,3828.74 16544.5,3869.11 16605,3909.38 16665.6,3949.55 
  16726.2,3989.63 16786.7,4029.61 16847.3,4069.5 16907.9,4109.29 16968.4,4149 17029,4188.61 17089.6,4228.14 17150.1,4267.59 17210.7,4306.95 17271.3,4346.23 
  17331.8,4385.44 17392.4,4424.56 17453,4463.62 17513.5,4502.6 17574.1,4541.5 17634.7,4580.34 17695.2,4619.12 17755.8,4657.83 17816.4,4696.48 17876.9,4735.06 
  17937.5,4773.59 17998,4812.07 18058.6,4850.49 18119.2,4888.86 18179.7,4927.18 18240.3,4965.45 18300.9,5003.68 18361.4,5041.87 18422,5080.02 18482.6,5118.13 
  18543.1,5156.21 18603.7,5194.25 18664.3,5232.26 18724.8,5270.24 18785.4,5308.2 18846,5346.14 18906.5,5384.05 18967.1,5421.95 19027.7,5459.83 19088.2,5497.7 
  19148.8,5535.55 19209.4,5573.4 19269.9,5611.24 19330.5,5649.08 19391,5686.91 19451.6,5724.75 19512.2,5762.59 19572.7,5800.44 19633.3,5838.3 19693.9,5876.16 
  
  "/>
<polyline clip-path="url(#clip622)" style="stroke:#000000; stroke-width:48; stroke-opacity:1; fill:none" stroke-dasharray="192, 120" points="
  8451.47,9911.41 8585.99,9654.26 8720.51,9401.18 8855.04,9152.09 8989.56,8906.88 9124.09,8665.43 9258.61,8427.63 9393.14,8193.38 9527.66,7962.55 9662.19,7735.02 
  9796.71,7510.68 9931.24,7289.39 10065.8,7071.04 10200.3,6855.49 10334.8,6642.61 10469.3,6432.29 10603.9,6224.39 10738.4,6018.77 10872.9,5815.32 11007.4,5613.91 
  11142,5414.41 11276.5,5216.69 11411,5020.64 11545.5,4826.14 11680.1,4633.06 11814.6,4441.29 11949.1,4250.73 12083.6,4061.26 12218.2,3872.79 12352.7,3685.22 
  12487.2,3498.44 12621.7,3312.38 12756.3,3126.95 12890.8,2942.08 13025.3,2757.69 13159.8,2573.71 13294.3,2390.1 13428.9,2206.79 13563.4,2023.73 13697.9,1840.92 
  
  "/>
<path clip-path="url(#clip620)" d="M 0 0 M6422.94 5333.77 L6422.94 5422.1 L6528.21 5422.1 L6528.21 5461.82 L6422.94 5461.82 L6422.94 5630.71 Q6422.94 5668.76 6433.21 5679.6 Q6443.77 5690.43 6475.71 5690.43 L6528.21 5690.43 L6528.21 5733.21 L6475.71 5733.21 Q6416.55 5733.21 6394.05 5711.26 Q6371.55 5689.04 6371.55 5630.71 L6371.55 5461.82 L6334.05 5461.82 L6334.05 5422.1 L6371.55 5422.1 L6371.55 5333.77 L6422.94 5333.77 Z" fill="#000000" fill-rule="evenodd" fill-opacity="1" /><path clip-path="url(#clip620)" d="M 0 0 M6594.88 5662.65 L6653.49 5662.65 L6653.49 5733.21 L6594.88 5733.21 L6594.88 5662.65 M6594.88 5439.04 L6653.49 5439.04 L6653.49 5509.6 L6594.88 5509.6 L6594.88 5439.04 Z" fill="#000000" fill-rule="evenodd" fill-opacity="1" /><path clip-path="url(#clip620)" d="M 0 0 M7015.16 5355.43 Q6971.82 5355.43 6949.88 5398.21 Q6928.21 5440.71 6928.21 5526.27 Q6928.21 5611.54 6949.88 5654.32 Q6971.82 5696.82 7015.16 5696.82 Q7058.77 5696.82 7080.43 5654.32 Q7102.38 5611.54 7102.38 5526.27 Q7102.38 5440.71 7080.43 5398.21 Q7058.77 5355.43 7015.16 5355.43 M7015.16 5310.99 Q7084.88 5310.99 7121.54 5366.27 Q7158.49 5421.27 7158.49 5526.27 Q7158.49 5630.99 7121.54 5686.26 Q7084.88 5741.26 7015.16 5741.26 Q6945.43 5741.26 6908.49 5686.26 Q6871.82 5630.99 6871.82 5526.27 Q6871.82 5421.27 6908.49 5366.27 Q6945.43 5310.99 7015.16 5310.99 Z" fill="#000000" fill-rule="evenodd" fill-opacity="1" /><path clip-path="url(#clip620)" d="M 0 0 M7219.32 5662.65 L7277.93 5662.65 L7277.93 5733.21 L7219.32 5733.21 L7219.32 5662.65 Z" fill="#000000" fill-rule="evenodd" fill-opacity="1" /><path clip-path="url(#clip620)" d="M 0 0 M7458.76 5355.43 Q7415.43 5355.43 7393.49 5398.21 Q7371.82 5440.71 7371.82 5526.27 Q7371.82 5611.54 7393.49 5654.32 Q7415.43 5696.82 7458.76 5696.82 Q7502.37 5696.82 7524.04 5654.32 Q7545.99 5611.54 7545.99 5526.27 Q7545.99 5440.71 7524.04 5398.21 Q7502.37 5355.43 7458.76 5355.43 M7458.76 5310.99 Q7528.49 5310.99 7565.15 5366.27 Q7602.1 5421.27 7602.1 5526.27 Q7602.1 5630.99 7565.15 5686.26 Q7528.49 5741.26 7458.76 5741.26 Q7389.04 5741.26 7352.1 5686.26 Q7315.43 5630.99 7315.43 5526.27 Q7315.43 5421.27 7352.1 5366.27 Q7389.04 5310.99 7458.76 5310.99 Z" fill="#000000" fill-rule="evenodd" fill-opacity="1" /><path clip-path="url(#clip620)" d="M 0 0 M7854.04 5431.27 L7854.04 5479.6 Q7832.37 5468.49 7809.04 5462.93 Q7785.71 5457.38 7760.71 5457.38 Q7722.65 5457.38 7703.48 5469.04 Q7684.6 5480.71 7684.6 5504.04 Q7684.6 5521.82 7698.21 5532.1 Q7711.82 5542.1 7752.93 5551.27 L7770.43 5555.15 Q7824.87 5566.82 7847.65 5588.21 Q7870.71 5609.32 7870.71 5647.38 Q7870.71 5690.71 7836.26 5715.99 Q7802.1 5741.26 7742.1 5741.26 Q7717.1 5741.26 7689.87 5736.26 Q7662.93 5731.54 7632.93 5721.82 L7632.93 5669.04 Q7661.26 5683.76 7688.76 5691.26 Q7716.26 5698.49 7743.21 5698.49 Q7779.32 5698.49 7798.76 5686.26 Q7818.21 5673.76 7818.21 5651.26 Q7818.21 5630.43 7804.04 5619.32 Q7790.15 5608.21 7742.65 5597.93 L7724.87 5593.77 Q7677.37 5583.77 7656.26 5563.21 Q7635.15 5542.38 7635.15 5506.27 Q7635.15 5462.38 7666.26 5438.49 Q7697.37 5414.6 7754.6 5414.6 Q7782.93 5414.6 7807.93 5418.77 Q7832.93 5422.93 7854.04 5431.27 Z" fill="#000000" fill-rule="evenodd" fill-opacity="1" /><path clip-path="url(#clip620)" d="M 0 0 M4768.22 10870.5 L4805.55 10950.6 L4900.96 10906.1 L4917.75 10942.1 L4822.34 10986.6 L4893.71 11139.6 Q4909.79 11174.1 4923.69 11179.6 Q4937.83 11184.9 4966.78 11171.4 L5014.36 11149.3 L5032.44 11188 L4984.86 11210.2 Q4931.24 11235.2 4901.57 11224.8 Q4871.79 11214.2 4847.14 11161.3 L4775.76 11008.3 L4741.78 11024.1 L4724.99 10988.1 L4758.98 10972.3 L4721.64 10892.2 L4768.22 10870.5 Z" fill="#000000" fill-rule="evenodd" fill-opacity="1" /><path clip-path="url(#clip620)" d="M 0 0 M5063.05 11095.9 L5116.17 11071.1 L5145.98 11135.1 L5092.86 11159.9 L5063.05 11095.9 M4968.54 10893.2 L5021.66 10868.5 L5051.48 10932.4 L4998.36 10957.2 L4968.54 10893.2 Z" fill="#000000" fill-rule="evenodd" fill-opacity="1" /><path clip-path="url(#clip620)" d="M 0 0 M5388.85 10969.7 L5566.34 10887 L5586.3 10929.8 L5347.64 11041.1 L5327.68 10998.3 Q5342.66 10954.8 5369.03 10881.2 Q5395.53 10807.2 5401.56 10786.6 Q5413.18 10747.8 5413.95 10724.5 Q5414.84 10700.8 5406.27 10682.4 Q5392.3 10652.4 5362.35 10643.4 Q5332.65 10634.3 5298.92 10650 Q5275 10661.2 5252.19 10681.9 Q5229.63 10702.5 5207.29 10733.5 L5183.34 10682.1 Q5208.3 10655.5 5232.05 10636.7 Q5255.8 10618 5277.95 10607.7 Q5336.36 10580.4 5384.72 10593.4 Q5433.08 10606.4 5455.85 10655.3 Q5466.65 10678.4 5467.59 10703.5 Q5468.65 10728.1 5458.89 10767 Q5456 10777.2 5438.58 10827.9 Q5421.05 10878.4 5388.85 10969.7 Z" fill="#000000" fill-rule="evenodd" fill-opacity="1" /><path clip-path="url(#clip620)" d="M 0 0 M5590.53 10511 Q5551.26 10529.3 5549.45 10577.3 Q5547.77 10625 5583.93 10702.5 Q5619.97 10779.8 5657.68 10809.4 Q5695.53 10838.7 5734.81 10820.4 Q5774.33 10801.9 5776.01 10754.3 Q5777.82 10706.2 5741.78 10628.9 Q5705.62 10551.4 5667.77 10522.1 Q5630.05 10492.5 5590.53 10511 M5571.75 10470.7 Q5634.94 10441.2 5691.53 10475.8 Q5748.26 10510 5792.63 10605.2 Q5836.89 10700.1 5826.77 10765.8 Q5816.78 10831.2 5753.59 10860.6 Q5690.4 10890.1 5633.67 10855.9 Q5577.08 10821.3 5532.82 10726.4 Q5488.45 10631.2 5498.44 10565.9 Q5508.56 10500.1 5571.75 10470.7 Z" fill="#000000" fill-rule="evenodd" fill-opacity="1" /><path clip-path="url(#clip620)" d="M 0 0 M5905.4 10703.1 L5958.52 10678.3 L5988.34 10742.3 L5935.22 10767.1 L5905.4 10703.1 Z" fill="#000000" fill-rule="evenodd" fill-opacity="1" /><path clip-path="url(#clip620)" d="M 0 0 M5992.58 10323.5 Q5953.3 10341.8 5951.49 10389.8 Q5949.82 10437.5 5985.98 10515.1 Q6022.01 10592.3 6059.73 10622 Q6097.58 10651.2 6136.85 10632.9 Q6176.38 10614.5 6178.05 10566.8 Q6179.86 10518.7 6143.82 10441.4 Q6107.67 10363.9 6069.82 10334.7 Q6032.1 10305.1 5992.58 10323.5 M5973.79 10283.2 Q6036.98 10253.7 6093.58 10288.3 Q6150.3 10322.6 6194.68 10417.7 Q6238.93 10512.6 6228.81 10578.4 Q6218.82 10643.7 6155.64 10673.2 Q6092.45 10702.6 6035.72 10668.4 Q5979.13 10633.8 5934.87 10538.9 Q5890.49 10443.7 5900.48 10378.4 Q5910.6 10312.7 5973.79 10283.2 Z" fill="#000000" fill-rule="evenodd" fill-opacity="1" /><path clip-path="url(#clip620)" d="M 0 0 M6382.87 10225.2 L6403.29 10269 Q6378.96 10268.1 6355.47 10272.9 Q6331.97 10277.7 6309.31 10288.3 Q6274.82 10304.4 6262.38 10323 Q6250.19 10341.6 6260.06 10362.7 Q6267.57 10378.8 6284.25 10382.4 Q6300.81 10385.7 6341.94 10376.6 L6359.45 10372.8 Q6413.72 10360.3 6443.4 10370.1 Q6473.22 10379.5 6489.3 10414 Q6507.62 10453.3 6487.08 10490.7 Q6466.8 10528.1 6412.42 10553.4 Q6389.76 10564 6362.98 10571 Q6336.56 10578.1 6305.27 10581.9 L6282.96 10534.1 Q6314.86 10535.5 6342.95 10530.6 Q6370.93 10525.6 6395.35 10514.2 Q6428.08 10498.9 6440.53 10479.6 Q6452.87 10460.1 6443.37 10439.7 Q6434.56 10420.8 6417.03 10416.7 Q6399.74 10412.5 6352.35 10423.3 L6334.48 10427 Q6287.2 10438 6259.38 10428.3 Q6231.44 10418.4 6216.18 10385.6 Q6197.63 10345.9 6215.73 10311.1 Q6233.83 10276.3 6285.7 10252.1 Q6311.37 10240.1 6335.79 10233.3 Q6360.21 10226.5 6382.87 10225.2 Z" fill="#000000" fill-rule="evenodd" fill-opacity="1" /><path clip-path="url(#clip620)" d="M 0 0 M4923.95 12129.9 L4923.95 12218.2 L5029.23 12218.2 L5029.23 12257.9 L4923.95 12257.9 L4923.95 12426.8 Q4923.95 12464.9 4934.23 12475.7 Q4944.78 12486.5 4976.73 12486.5 L5029.23 12486.5 L5029.23 12529.3 L4976.73 12529.3 Q4917.56 12529.3 4895.06 12507.4 Q4872.56 12485.2 4872.56 12426.8 L4872.56 12257.9 L4835.06 12257.9 L4835.06 12218.2 L4872.56 12218.2 L4872.56 12129.9 L4923.95 12129.9 Z" fill="#000000" fill-rule="evenodd" fill-opacity="1" /><path clip-path="url(#clip620)" d="M 0 0 M5095.89 12458.8 L5154.5 12458.8 L5154.5 12529.3 L5095.89 12529.3 L5095.89 12458.8 M5095.89 12235.2 L5154.5 12235.2 L5154.5 12305.7 L5095.89 12305.7 L5095.89 12235.2 Z" fill="#000000" fill-rule="evenodd" fill-opacity="1" /><path clip-path="url(#clip620)" d="M 0 0 M5516.17 12151.5 Q5472.83 12151.5 5450.89 12194.3 Q5429.22 12236.8 5429.22 12322.4 Q5429.22 12407.7 5450.89 12450.4 Q5472.83 12492.9 5516.17 12492.9 Q5559.78 12492.9 5581.45 12450.4 Q5603.39 12407.7 5603.39 12322.4 Q5603.39 12236.8 5581.45 12194.3 Q5559.78 12151.5 5516.17 12151.5 M5516.17 12107.1 Q5585.89 12107.1 5622.56 12162.4 Q5659.5 12217.4 5659.5 12322.4 Q5659.5 12427.1 5622.56 12482.4 Q5585.89 12537.4 5516.17 12537.4 Q5446.45 12537.4 5409.5 12482.4 Q5372.84 12427.1 5372.84 12322.4 Q5372.84 12217.4 5409.5 12162.4 Q5446.45 12107.1 5516.17 12107.1 Z" fill="#000000" fill-rule="evenodd" fill-opacity="1" /><path clip-path="url(#clip620)" d="M 0 0 M5720.33 12458.8 L5778.94 12458.8 L5778.94 12529.3 L5720.33 12529.3 L5720.33 12458.8 Z" fill="#000000" fill-rule="evenodd" fill-opacity="1" /><path clip-path="url(#clip620)" d="M 0 0 M5959.78 12151.5 Q5916.44 12151.5 5894.5 12194.3 Q5872.83 12236.8 5872.83 12322.4 Q5872.83 12407.7 5894.5 12450.4 Q5916.44 12492.9 5959.78 12492.9 Q6003.39 12492.9 6025.05 12450.4 Q6047 12407.7 6047 12322.4 Q6047 12236.8 6025.05 12194.3 Q6003.39 12151.5 5959.78 12151.5 M5959.78 12107.1 Q6029.5 12107.1 6066.16 12162.4 Q6103.11 12217.4 6103.11 12322.4 Q6103.11 12427.1 6066.16 12482.4 Q6029.5 12537.4 5959.78 12537.4 Q5890.05 12537.4 5853.11 12482.4 Q5816.44 12427.1 5816.44 12322.4 Q5816.44 12217.4 5853.11 12162.4 Q5890.05 12107.1 5959.78 12107.1 Z" fill="#000000" fill-rule="evenodd" fill-opacity="1" /><path clip-path="url(#clip620)" d="M 0 0 M6355.05 12227.4 L6355.05 12275.7 Q6333.39 12264.6 6310.05 12259 Q6286.72 12253.5 6261.72 12253.5 Q6223.66 12253.5 6204.5 12265.2 Q6185.61 12276.8 6185.61 12300.2 Q6185.61 12317.9 6199.22 12328.2 Q6212.83 12338.2 6253.94 12347.4 L6271.44 12351.3 Q6325.89 12362.9 6348.66 12384.3 Q6371.72 12405.4 6371.72 12443.5 Q6371.72 12486.8 6337.27 12512.1 Q6303.11 12537.4 6243.11 12537.4 Q6218.11 12537.4 6190.89 12532.4 Q6163.94 12527.7 6133.94 12517.9 L6133.94 12465.2 Q6162.28 12479.9 6189.78 12487.4 Q6217.28 12494.6 6244.22 12494.6 Q6280.33 12494.6 6299.77 12482.4 Q6319.22 12469.9 6319.22 12447.4 Q6319.22 12426.5 6305.05 12415.4 Q6291.16 12404.3 6243.66 12394 L6225.89 12389.9 Q6178.39 12379.9 6157.28 12359.3 Q6136.16 12338.5 6136.16 12302.4 Q6136.16 12258.5 6167.28 12234.6 Q6198.39 12210.7 6255.61 12210.7 Q6283.94 12210.7 6308.94 12214.9 Q6333.94 12219 6355.05 12227.4 Z" fill="#000000" fill-rule="evenodd" fill-opacity="1" /><path clip-path="url(#clip620)" d="M 0 0 M6531.07 7869 L6480.4 7941.36 L6566.64 8001.74 L6543.85 8034.28 L6457.62 7973.9 L6360.75 8112.24 Q6338.92 8143.42 6341.12 8158.18 Q6343.56 8173.11 6369.72 8191.44 L6412.73 8221.55 L6388.19 8256.59 L6345.19 8226.48 Q6296.72 8192.54 6290.88 8161.66 Q6285.19 8130.55 6318.65 8082.77 L6415.52 7944.42 L6384.8 7922.91 L6407.59 7890.37 L6438.3 7911.88 L6488.97 7839.53 L6531.07 7869 Z" fill="#000000" fill-rule="evenodd" fill-opacity="1" /><path clip-path="url(#clip620)" d="M 0 0 M6483.27 8237.03 L6531.28 8270.65 L6490.81 8328.45 L6442.8 8294.83 L6483.27 8237.03 M6611.53 8053.86 L6659.54 8087.48 L6619.07 8145.27 L6571.06 8111.66 L6611.53 8053.86 Z" fill="#000000" fill-rule="evenodd" fill-opacity="1" /><path clip-path="url(#clip620)" d="M 0 0 M6755.45 8456.1 L6915.87 8568.42 L6888.78 8607.11 L6673.07 8456.07 L6700.16 8417.38 Q6745.29 8408.63 6822.21 8394.67 Q6899.51 8380.64 6920.36 8375.57 Q6959.79 8366.22 6980.39 8355.21 Q7001.37 8344.13 7013 8327.52 Q7031.96 8300.44 7024.8 8269.99 Q7017.86 8239.7 6987.37 8218.35 Q6965.76 8203.22 6936.38 8193.84 Q6907.23 8184.61 6869.25 8180.74 L6901.75 8134.32 Q6937.32 8142.61 6965.42 8153.81 Q6993.52 8165.01 7013.55 8179.03 Q7066.34 8216 7079.26 8264.38 Q7092.17 8312.76 7061.27 8356.9 Q7046.61 8377.84 7025.42 8391.15 Q7004.62 8404.39 6966.07 8415.37 Q6955.76 8417.99 6903.12 8428.27 Q6850.64 8438.32 6755.45 8456.1 Z" fill="#000000" fill-rule="evenodd" fill-opacity="1" /><path clip-path="url(#clip620)" d="M 0 0 M7253.6 8401.37 Q7218.1 8376.52 7175.59 8398.97 Q7133.46 8421.36 7084.39 8491.44 Q7035.48 8561.3 7028.69 8608.76 Q7022.29 8656.16 7057.78 8681.02 Q7093.51 8706.03 7135.63 8683.65 Q7178.15 8661.19 7227.06 8591.34 Q7276.13 8521.26 7282.53 8473.85 Q7289.32 8426.39 7253.6 8401.37 M7279.09 8364.97 Q7336.2 8404.96 7334.53 8471.27 Q7333.25 8537.51 7273.02 8623.52 Q7212.96 8709.3 7150.99 8733.39 Q7089.4 8757.42 7032.29 8717.43 Q6975.18 8677.44 6976.46 8611.19 Q6978.13 8544.88 7038.2 8459.1 Q7098.42 8373.09 7160.01 8349.06 Q7221.98 8324.97 7279.09 8364.97 Z" fill="#000000" fill-rule="evenodd" fill-opacity="1" /><path clip-path="url(#clip620)" d="M 0 0 M7244.62 8770.14 L7292.63 8803.75 L7252.17 8861.55 L7204.16 8827.93 L7244.62 8770.14 Z" fill="#000000" fill-rule="evenodd" fill-opacity="1" /><path clip-path="url(#clip620)" d="M 0 0 M7616.98 8655.82 Q7581.48 8630.96 7538.97 8653.41 Q7496.85 8675.8 7447.77 8745.88 Q7398.86 8815.74 7392.07 8863.21 Q7385.67 8910.61 7421.17 8935.46 Q7456.89 8960.48 7499.02 8938.09 Q7541.53 8915.64 7590.44 8845.78 Q7639.51 8775.7 7645.91 8728.3 Q7652.7 8680.83 7616.98 8655.82 M7642.47 8619.41 Q7699.58 8659.4 7697.91 8725.71 Q7696.63 8791.95 7636.4 8877.97 Q7576.34 8963.75 7514.37 8987.84 Q7452.79 9011.86 7395.67 8971.87 Q7338.56 8931.88 7339.85 8865.64 Q7341.52 8799.32 7401.58 8713.54 Q7461.81 8627.53 7523.39 8603.51 Q7585.36 8579.42 7642.47 8619.41 Z" fill="#000000" fill-rule="evenodd" fill-opacity="1" /><path clip-path="url(#clip620)" d="M 0 0 M7897.27 8944.65 L7869.55 8984.25 Q7858.18 8962.72 7842.25 8944.78 Q7826.32 8926.85 7805.84 8912.51 Q7774.67 8890.68 7752.28 8889.25 Q7730.11 8887.97 7716.73 8907.08 Q7706.53 8921.64 7711.79 8937.87 Q7717.2 8953.87 7745.62 8984.96 L7757.72 8998.18 Q7795.63 9038.97 7802.02 9069.55 Q7808.8 9100.07 7786.97 9131.24 Q7762.12 9166.74 7719.4 9167.69 Q7676.92 9168.8 7627.77 9134.38 Q7607.29 9120.04 7587.86 9100.33 Q7568.49 9081.01 7549.5 9055.84 L7579.77 9012.61 Q7594.53 9040.92 7612.76 9062.83 Q7631.14 9084.52 7653.21 9099.98 Q7682.79 9120.69 7705.73 9121.83 Q7728.83 9122.74 7741.73 9104.31 Q7753.68 9087.25 7748.45 9070.02 Q7743.45 9052.95 7710.43 9017.29 L7698.26 9003.68 Q7665.09 8968.24 7659.58 8939.3 Q7654.24 8910.12 7674.95 8880.54 Q7700.13 8844.59 7739.31 8842.87 Q7778.5 8841.14 7825.37 8873.96 Q7848.58 8890.21 7866.67 8907.97 Q7884.76 8925.72 7897.27 8944.65 Z" fill="#000000" fill-rule="evenodd" fill-opacity="1" /><path clip-path="url(#clip620)" d="
M1938.36 12954.1 L20211 12954.1 L20211 283.465 L1938.36 283.465  Z
  " fill="#000000" fill-rule="evenodd" fill-opacity="0"/>
<polyline clip-path="url(#clip620)" style="stroke:#000000; stroke-width:24; stroke-opacity:1; fill:none" points="
  1938.36,12954.1 20211,12954.1 
  "/>
<polyline clip-path="url(#clip620)" style="stroke:#000000; stroke-width:24; stroke-opacity:1; fill:none" points="
  20211,12954.1 20211,283.465 
  "/>
<polyline clip-path="url(#clip620)" style="stroke:#000000; stroke-width:24; stroke-opacity:1; fill:none" points="
  20211,10671.3 19991.8,10671.3 
  "/>
<polyline clip-path="url(#clip620)" style="stroke:#000000; stroke-width:24; stroke-opacity:1; fill:none" points="
  20211,8074.35 19991.8,8074.35 
  "/>
<polyline clip-path="url(#clip620)" style="stroke:#000000; stroke-width:24; stroke-opacity:1; fill:none" points="
  20211,5477.39 19991.8,5477.39 
  "/>
<polyline clip-path="url(#clip620)" style="stroke:#000000; stroke-width:24; stroke-opacity:1; fill:none" points="
  20211,2880.43 19991.8,2880.43 
  "/>
<polyline clip-path="url(#clip620)" style="stroke:#000000; stroke-width:24; stroke-opacity:1; fill:none" points="
  20211,283.465 19991.8,283.465 
  "/>
<path clip-path="url(#clip620)" d="M 0 0 M20698.8 10532.6 L20574.9 10726.4 L20698.8 10726.4 L20698.8 10532.6 M20686 10489.9 L20747.7 10489.9 L20747.7 10726.4 L20799.5 10726.4 L20799.5 10767.2 L20747.7 10767.2 L20747.7 10852.7 L20698.8 10852.7 L20698.8 10767.2 L20535 10767.2 L20535 10719.8 L20686 10489.9 Z" fill="#000000" fill-rule="evenodd" fill-opacity="1" /><path clip-path="url(#clip620)" d="M 0 0 M20550.3 7892.91 L20743.1 7892.91 L20743.1 7934.23 L20595.3 7934.23 L20595.3 8023.19 Q20606 8019.54 20616.7 8017.84 Q20627.4 8015.89 20638.1 8015.89 Q20698.8 8015.89 20734.3 8049.19 Q20769.8 8082.49 20769.8 8139.36 Q20769.8 8197.94 20733.4 8230.51 Q20696.9 8262.84 20630.5 8262.84 Q20607.7 8262.84 20583.9 8258.95 Q20560.3 8255.06 20535 8247.28 L20535 8197.94 Q20556.9 8209.85 20580.2 8215.68 Q20603.6 8221.52 20629.6 8221.52 Q20671.6 8221.52 20696.2 8199.4 Q20720.7 8177.28 20720.7 8139.36 Q20720.7 8101.45 20696.2 8079.33 Q20671.6 8057.21 20629.6 8057.21 Q20609.9 8057.21 20590.2 8061.59 Q20570.8 8065.96 20550.3 8075.2 L20550.3 7892.91 Z" fill="#000000" fill-rule="evenodd" fill-opacity="1" /><path clip-path="url(#clip620)" d="M 0 0 M20664.6 5457.82 Q20631.5 5457.82 20612.1 5480.42 Q20592.9 5503.03 20592.9 5542.4 Q20592.9 5581.54 20612.1 5604.38 Q20631.5 5626.99 20664.6 5626.99 Q20697.6 5626.99 20716.8 5604.38 Q20736.3 5581.54 20736.3 5542.4 Q20736.3 5503.03 20716.8 5480.42 Q20697.6 5457.82 20664.6 5457.82 M20762 5303.97 L20762 5348.69 Q20743.6 5339.94 20724.6 5335.32 Q20705.9 5330.7 20687.4 5330.7 Q20638.8 5330.7 20613 5363.52 Q20587.5 5396.33 20583.9 5462.68 Q20598.2 5441.54 20619.8 5430.36 Q20641.5 5418.93 20667.5 5418.93 Q20722.2 5418.93 20753.8 5452.23 Q20785.6 5485.29 20785.6 5542.4 Q20785.6 5598.31 20752.6 5632.09 Q20719.5 5665.88 20664.6 5665.88 Q20601.6 5665.88 20568.3 5617.75 Q20535 5569.38 20535 5477.75 Q20535 5391.71 20575.9 5340.67 Q20616.7 5289.38 20685.5 5289.38 Q20703.9 5289.38 20722.7 5293.03 Q20741.6 5296.68 20762 5303.97 Z" fill="#000000" fill-rule="evenodd" fill-opacity="1" /><path clip-path="url(#clip620)" d="M 0 0 M20535 2698.99 L20768.4 2698.99 L20768.4 2719.89 L20636.6 3061.87 L20585.3 3061.87 L20709.3 2740.3 L20535 2740.3 L20535 2698.99 Z" fill="#000000" fill-rule="evenodd" fill-opacity="1" /><path clip-path="url(#clip620)" d="M 0 0 M20659.5 292.579 Q20624.5 292.579 20604.3 311.294 Q20584.4 330.009 20584.4 362.822 Q20584.4 395.634 20604.3 414.349 Q20624.5 433.064 20659.5 433.064 Q20694.5 433.064 20714.6 414.349 Q20734.8 395.391 20734.8 362.822 Q20734.8 330.009 20714.6 311.294 Q20694.7 292.579 20659.5 292.579 M20610.4 271.676 Q20578.8 263.899 20561 242.267 Q20543.5 220.635 20543.5 189.524 Q20543.5 146.017 20574.4 120.74 Q20605.5 95.4621 20659.5 95.4621 Q20713.7 95.4621 20744.5 120.74 Q20775.4 146.017 20775.4 189.524 Q20775.4 220.635 20757.7 242.267 Q20740.2 263.899 20708.8 271.676 Q20744.3 279.94 20764 304.003 Q20783.9 328.065 20783.9 362.822 Q20783.9 415.565 20751.6 443.759 Q20719.5 471.953 20659.5 471.953 Q20599.4 471.953 20567.1 443.759 Q20535 415.565 20535 362.822 Q20535 328.065 20555 304.003 Q20574.9 279.94 20610.4 271.676 M20592.4 194.142 Q20592.4 222.336 20609.9 238.135 Q20627.6 253.933 20659.5 253.933 Q20691.1 253.933 20708.8 238.135 Q20726.8 222.336 20726.8 194.142 Q20726.8 165.948 20708.8 150.149 Q20691.1 134.351 20659.5 134.351 Q20627.6 134.351 20609.9 150.149 Q20592.4 165.948 20592.4 194.142 Z" fill="#000000" fill-rule="evenodd" fill-opacity="1" /><path clip-path="url(#clip620)" d="M 0 0 M21016.1 10290.2 L21077.7 10290.2 Q21060.5 10326.1 21052 10358 Q21043.6 10389.9 21043.6 10419.6 Q21043.6 10471.1 21063.6 10499.2 Q21083.6 10527.1 21120.5 10527.1 Q21151.4 10527.1 21167.3 10508.6 Q21183 10489.9 21192.7 10438 L21200.5 10399.9 Q21213.9 10329.2 21248 10295.8 Q21281.7 10262.1 21338.6 10262.1 Q21406.4 10262.1 21441.4 10307.7 Q21476.4 10353 21476.4 10440.8 Q21476.4 10473.9 21468.9 10511.4 Q21461.4 10548.6 21446.7 10588.6 L21381.7 10588.6 Q21403.3 10550.2 21414.2 10513.3 Q21425.2 10476.4 21425.2 10440.8 Q21425.2 10386.7 21403.9 10357.4 Q21382.7 10328 21343.3 10328 Q21308.9 10328 21289.5 10349.2 Q21270.2 10370.2 21260.5 10418.3 L21253 10456.7 Q21238.9 10527.4 21208.9 10558.9 Q21178.9 10590.5 21125.5 10590.5 Q21063.6 10590.5 21028 10547.1 Q20992.3 10503.3 20992.3 10426.7 Q20992.3 10393.9 20998.3 10359.9 Q21004.2 10325.8 21016.1 10290.2 Z" fill="#000000" fill-rule="evenodd" fill-opacity="1" /><path clip-path="url(#clip620)" d="M 0 0 M21052.7 10136.1 L21415.5 10136.1 L21415.5 10059.9 Q21415.5 9963.31 21371.7 9918.62 Q21328 9873.62 21233.6 9873.62 Q21139.8 9873.62 21096.4 9918.62 Q21052.7 9963.31 21052.7 10059.9 L21052.7 10136.1 M21000.8 10199.2 L21000.8 10069.6 Q21000.8 9933.93 21057.3 9870.49 Q21113.6 9807.06 21233.6 9807.06 Q21354.2 9807.06 21410.8 9870.81 Q21467.3 9934.56 21467.3 10069.6 L21467.3 10199.2 L21000.8 10199.2 Z" fill="#000000" fill-rule="evenodd" fill-opacity="1" /><path clip-path="url(#clip620)" d="M 0 0 M21016.1 9464.56 L21077.7 9464.56 Q21060.5 9500.5 21052 9532.37 Q21043.6 9564.24 21043.6 9593.93 Q21043.6 9645.49 21063.6 9673.62 Q21083.6 9701.43 21120.5 9701.43 Q21151.4 9701.43 21167.3 9682.99 Q21183 9664.24 21192.7 9612.37 L21200.5 9574.24 Q21213.9 9503.62 21248 9470.18 Q21281.7 9436.43 21338.6 9436.43 Q21406.4 9436.43 21441.4 9482.06 Q21476.4 9527.37 21476.4 9615.18 Q21476.4 9648.31 21468.9 9685.81 Q21461.4 9722.99 21446.7 9762.99 L21381.7 9762.99 Q21403.3 9724.56 21414.2 9687.68 Q21425.2 9650.81 21425.2 9615.18 Q21425.2 9561.12 21403.9 9531.74 Q21382.7 9502.37 21343.3 9502.37 Q21308.9 9502.37 21289.5 9523.62 Q21270.2 9544.56 21260.5 9592.68 L21253 9631.12 Q21238.9 9701.74 21208.9 9733.31 Q21178.9 9764.87 21125.5 9764.87 Q21063.6 9764.87 21028 9721.43 Q20992.3 9677.68 20992.3 9601.12 Q20992.3 9568.31 20998.3 9534.24 Q21004.2 9500.18 21016.1 9464.56 Z" fill="#000000" fill-rule="evenodd" fill-opacity="1" /><path clip-path="url(#clip620)" d="M 0 0 M21130.8 8920.81 L21184.5 8920.81 Q21171.1 8945.19 21164.5 8969.87 Q21157.7 8994.25 21157.7 9019.25 Q21157.7 9075.18 21193.3 9106.12 Q21228.6 9137.06 21292.7 9137.06 Q21356.7 9137.06 21392.3 9106.12 Q21427.7 9075.18 21427.7 9019.25 Q21427.7 8994.25 21421.1 8969.87 Q21414.2 8945.19 21400.8 8920.81 L21453.9 8920.81 Q21465.2 8944.87 21470.8 8970.81 Q21476.4 8996.44 21476.4 9025.5 Q21476.4 9104.56 21426.7 9151.12 Q21377 9197.68 21292.7 9197.68 Q21207 9197.68 21158 9150.81 Q21108.9 9103.62 21108.9 9021.75 Q21108.9 8995.19 21114.5 8969.87 Q21119.8 8944.56 21130.8 8920.81 Z" fill="#000000" fill-rule="evenodd" fill-opacity="1" /><path clip-path="url(#clip620)" d="M 0 0 M21157.7 8724.87 Q21157.7 8771.12 21193.9 8798 Q21229.8 8824.87 21292.7 8824.87 Q21355.5 8824.87 21391.7 8798.31 Q21427.7 8771.44 21427.7 8724.87 Q21427.7 8678.94 21391.4 8652.06 Q21355.2 8625.19 21292.7 8625.19 Q21230.5 8625.19 21194.2 8652.06 Q21157.7 8678.94 21157.7 8724.87 M21108.9 8724.87 Q21108.9 8649.87 21157.7 8607.06 Q21206.4 8564.25 21292.7 8564.25 Q21378.6 8564.25 21427.7 8607.06 Q21476.4 8649.87 21476.4 8724.87 Q21476.4 8800.19 21427.7 8843 Q21378.6 8885.5 21292.7 8885.5 Q21206.4 8885.5 21157.7 8843 Q21108.9 8800.19 21108.9 8724.87 Z" fill="#000000" fill-rule="evenodd" fill-opacity="1" /><path clip-path="url(#clip620)" d="M 0 0 M21256.1 8213 L21467.3 8213 L21467.3 8270.5 L21258 8270.5 Q21208.3 8270.5 21183.6 8289.88 Q21158.9 8309.25 21158.9 8348 Q21158.9 8394.56 21188.6 8421.44 Q21218.3 8448.31 21269.5 8448.31 L21467.3 8448.31 L21467.3 8506.13 L21117.3 8506.13 L21117.3 8448.31 L21171.7 8448.31 Q21140.2 8427.69 21124.5 8399.88 Q21108.9 8371.75 21108.9 8335.19 Q21108.9 8274.88 21146.4 8243.94 Q21183.6 8213 21256.1 8213 Z" fill="#000000" fill-rule="evenodd" fill-opacity="1" /><path clip-path="url(#clip620)" d="M 0 0 M21130.8 7900.82 L21184.5 7900.82 Q21171.1 7925.19 21164.5 7949.88 Q21157.7 7974.25 21157.7 7999.25 Q21157.7 8055.19 21193.3 8086.13 Q21228.6 8117.07 21292.7 8117.07 Q21356.7 8117.07 21392.3 8086.13 Q21427.7 8055.19 21427.7 7999.25 Q21427.7 7974.25 21421.1 7949.88 Q21414.2 7925.19 21400.8 7900.82 L21453.9 7900.82 Q21465.2 7924.88 21470.8 7950.82 Q21476.4 7976.44 21476.4 8005.5 Q21476.4 8084.57 21426.7 8131.13 Q21377 8177.69 21292.7 8177.69 Q21207 8177.69 21158 8130.81 Q21108.9 8083.63 21108.9 8001.75 Q21108.9 7975.19 21114.5 7949.88 Q21119.8 7924.57 21130.8 7900.82 Z" fill="#000000" fill-rule="evenodd" fill-opacity="1" /><path clip-path="url(#clip620)" d="M 0 0 M21278 7541.13 L21306.1 7541.13 L21306.1 7805.5 Q21365.5 7801.75 21396.7 7769.88 Q21427.7 7737.69 21427.7 7680.5 Q21427.7 7647.38 21419.5 7616.44 Q21411.4 7585.19 21395.2 7554.57 L21449.5 7554.57 Q21462.7 7585.51 21469.5 7618.01 Q21476.4 7650.51 21476.4 7683.94 Q21476.4 7767.69 21427.7 7816.75 Q21378.9 7865.5 21295.8 7865.5 Q21209.8 7865.5 21159.5 7819.25 Q21108.9 7772.69 21108.9 7693.94 Q21108.9 7623.32 21154.5 7582.38 Q21199.8 7541.13 21278 7541.13 M21261.1 7598.63 Q21213.9 7599.26 21185.8 7625.19 Q21157.7 7650.82 21157.7 7693.32 Q21157.7 7741.44 21184.8 7770.5 Q21212 7799.25 21261.4 7803.63 L21261.1 7598.63 Z" fill="#000000" fill-rule="evenodd" fill-opacity="1" /><path clip-path="url(#clip620)" d="M 0 0 M21256.1 7189.88 L21467.3 7189.88 L21467.3 7247.38 L21258 7247.38 Q21208.3 7247.38 21183.6 7266.76 Q21158.9 7286.13 21158.9 7324.88 Q21158.9 7371.44 21188.6 7398.32 Q21218.3 7425.19 21269.5 7425.19 L21467.3 7425.19 L21467.3 7483.01 L21117.3 7483.01 L21117.3 7425.19 L21171.7 7425.19 Q21140.2 7404.57 21124.5 7376.76 Q21108.9 7348.63 21108.9 7312.07 Q21108.9 7251.76 21146.4 7220.82 Q21183.6 7189.88 21256.1 7189.88 Z" fill="#000000" fill-rule="evenodd" fill-opacity="1" /><path clip-path="url(#clip620)" d="M 0 0 M21018 7072.7 L21117.3 7072.7 L21117.3 6954.26 L21162 6954.26 L21162 7072.7 L21352 7072.7 Q21394.8 7072.7 21407 7061.13 Q21419.2 7049.26 21419.2 7013.32 L21419.2 6954.26 L21467.3 6954.26 L21467.3 7013.32 Q21467.3 7079.88 21442.7 7105.2 Q21417.7 7130.51 21352 7130.51 L21162 7130.51 L21162 7172.7 L21117.3 7172.7 L21117.3 7130.51 L21018 7130.51 L21018 7072.7 Z" fill="#000000" fill-rule="evenodd" fill-opacity="1" /><path clip-path="url(#clip620)" d="M 0 0 M21171.1 6691.14 Q21165.5 6700.82 21163 6712.39 Q21160.2 6723.63 21160.2 6737.38 Q21160.2 6786.13 21192 6812.38 Q21223.6 6838.32 21283 6838.32 L21467.3 6838.32 L21467.3 6896.13 L21117.3 6896.13 L21117.3 6838.32 L21171.7 6838.32 Q21139.8 6820.2 21124.5 6791.13 Q21108.9 6762.07 21108.9 6720.51 Q21108.9 6714.57 21109.8 6707.39 Q21110.5 6700.2 21112 6691.45 L21171.1 6691.14 Z" fill="#000000" fill-rule="evenodd" fill-opacity="1" /><path clip-path="url(#clip620)" d="M 0 0 M21291.4 6471.76 Q21291.4 6541.45 21307.3 6568.32 Q21323.3 6595.2 21361.7 6595.2 Q21392.3 6595.2 21410.5 6575.2 Q21428.3 6554.89 21428.3 6520.2 Q21428.3 6472.39 21394.5 6443.64 Q21360.5 6414.57 21304.2 6414.57 L21291.4 6414.57 L21291.4 6471.76 M21267.7 6357.07 L21467.3 6357.07 L21467.3 6414.57 L21414.2 6414.57 Q21446.1 6434.26 21461.4 6463.64 Q21476.4 6493.01 21476.4 6535.51 Q21476.4 6589.26 21446.4 6621.14 Q21416.1 6652.7 21365.5 6652.7 Q21306.4 6652.7 21276.4 6613.32 Q21246.4 6573.64 21246.4 6495.2 L21246.4 6414.57 L21240.8 6414.57 Q21201.1 6414.57 21179.5 6440.82 Q21157.7 6466.76 21157.7 6513.95 Q21157.7 6543.95 21164.8 6572.39 Q21172 6600.82 21186.4 6627.07 L21133.3 6627.07 Q21121.1 6595.51 21115.2 6565.82 Q21108.9 6536.14 21108.9 6508.01 Q21108.9 6432.07 21148.3 6394.57 Q21187.7 6357.07 21267.7 6357.07 Z" fill="#000000" fill-rule="evenodd" fill-opacity="1" /><path clip-path="url(#clip620)" d="M 0 0 M21018 6239.89 L21117.3 6239.89 L21117.3 6121.45 L21162 6121.45 L21162 6239.89 L21352 6239.89 Q21394.8 6239.89 21407 6228.33 Q21419.2 6216.45 21419.2 6180.51 L21419.2 6121.45 L21467.3 6121.45 L21467.3 6180.51 Q21467.3 6247.08 21442.7 6272.39 Q21417.7 6297.7 21352 6297.7 L21162 6297.7 L21162 6339.89 L21117.3 6339.89 L21117.3 6297.7 L21018 6297.7 L21018 6239.89 Z" fill="#000000" fill-rule="evenodd" fill-opacity="1" /><path clip-path="url(#clip620)" d="M 0 0 M21117.3 6061.14 L21117.3 6003.64 L21467.3 6003.64 L21467.3 6061.14 L21117.3 6061.14 M20981.1 6061.14 L20981.1 6003.64 L21053.9 6003.64 L21053.9 6061.14 L20981.1 6061.14 Z" fill="#000000" fill-rule="evenodd" fill-opacity="1" /><path clip-path="url(#clip620)" d="M 0 0 M21157.7 5807.7 Q21157.7 5853.95 21193.9 5880.83 Q21229.8 5907.7 21292.7 5907.7 Q21355.5 5907.7 21391.7 5881.14 Q21427.7 5854.26 21427.7 5807.7 Q21427.7 5761.77 21391.4 5734.89 Q21355.2 5708.02 21292.7 5708.02 Q21230.5 5708.02 21194.2 5734.89 Q21157.7 5761.77 21157.7 5807.7 M21108.9 5807.7 Q21108.9 5732.7 21157.7 5689.89 Q21206.4 5647.08 21292.7 5647.08 Q21378.6 5647.08 21427.7 5689.89 Q21476.4 5732.7 21476.4 5807.7 Q21476.4 5883.01 21427.7 5925.83 Q21378.6 5968.33 21292.7 5968.33 Q21206.4 5968.33 21157.7 5925.83 Q21108.9 5883.01 21108.9 5807.7 Z" fill="#000000" fill-rule="evenodd" fill-opacity="1" /><path clip-path="url(#clip620)" d="M 0 0 M21256.1 5295.83 L21467.3 5295.83 L21467.3 5353.33 L21258 5353.33 Q21208.3 5353.33 21183.6 5372.7 Q21158.9 5392.08 21158.9 5430.83 Q21158.9 5477.39 21188.6 5504.27 Q21218.3 5531.14 21269.5 5531.14 L21467.3 5531.14 L21467.3 5588.95 L21117.3 5588.95 L21117.3 5531.14 L21171.7 5531.14 Q21140.2 5510.52 21124.5 5482.7 Q21108.9 5454.58 21108.9 5418.02 Q21108.9 5357.7 21146.4 5326.77 Q21183.6 5295.83 21256.1 5295.83 Z" fill="#000000" fill-rule="evenodd" fill-opacity="1" /><path clip-path="url(#clip620)" d="M 0 0 M20981.7 4893.96 Q21053.6 4935.83 21123.9 4956.14 Q21194.2 4976.46 21266.4 4976.46 Q21338.6 4976.46 21409.5 4956.14 Q21480.2 4935.52 21551.7 4893.96 L21551.7 4943.96 Q21478.3 4990.83 21407.3 5014.27 Q21336.4 5037.39 21266.4 5037.39 Q21196.7 5037.39 21126.1 5014.27 Q21055.5 4991.14 20981.7 4943.96 L20981.7 4893.96 Z" fill="#000000" fill-rule="evenodd" fill-opacity="1" /><path clip-path="url(#clip620)" d="M 0 0 M21184.5 4561.15 Q21145.8 4539.58 21127.3 4509.58 Q21108.9 4479.58 21108.9 4438.96 Q21108.9 4384.27 21147.3 4354.59 Q21185.5 4324.9 21256.1 4324.9 L21467.3 4324.9 L21467.3 4382.71 L21258 4382.71 Q21207.7 4382.71 21183.3 4400.52 Q21158.9 4418.33 21158.9 4454.9 Q21158.9 4499.58 21188.6 4525.52 Q21218.3 4551.46 21269.5 4551.46 L21467.3 4551.46 L21467.3 4609.27 L21258 4609.27 Q21207.3 4609.27 21183.3 4627.08 Q21158.9 4644.9 21158.9 4682.08 Q21158.9 4726.15 21188.9 4752.08 Q21218.6 4778.02 21269.5 4778.02 L21467.3 4778.02 L21467.3 4835.83 L21117.3 4835.83 L21117.3 4778.02 L21171.7 4778.02 Q21139.5 4758.33 21124.2 4730.83 Q21108.9 4703.33 21108.9 4665.52 Q21108.9 4627.4 21128.3 4600.83 Q21147.7 4573.96 21184.5 4561.15 Z" fill="#000000" fill-rule="evenodd" fill-opacity="1" /><path clip-path="url(#clip620)" d="M 0 0 M21157.7 4128.96 Q21157.7 4175.21 21193.9 4202.09 Q21229.8 4228.96 21292.7 4228.96 Q21355.5 4228.96 21391.7 4202.4 Q21427.7 4175.52 21427.7 4128.96 Q21427.7 4083.02 21391.4 4056.15 Q21355.2 4029.27 21292.7 4029.27 Q21230.5 4029.27 21194.2 4056.15 Q21157.7 4083.02 21157.7 4128.96 M21108.9 4128.96 Q21108.9 4053.96 21157.7 4011.15 Q21206.4 3968.34 21292.7 3968.34 Q21378.6 3968.34 21427.7 4011.15 Q21476.4 4053.96 21476.4 4128.96 Q21476.4 4204.27 21427.7 4247.09 Q21378.6 4289.59 21292.7 4289.59 Q21206.4 4289.59 21157.7 4247.09 Q21108.9 4204.27 21108.9 4128.96 Z" fill="#000000" fill-rule="evenodd" fill-opacity="1" /><path clip-path="url(#clip620)" d="M 0 0 M20981.1 3908.03 L20981.1 3850.53 L21467.3 3850.53 L21467.3 3908.03 L20981.1 3908.03 Z" fill="#000000" fill-rule="evenodd" fill-opacity="1" /><path clip-path="url(#clip620)" d="M 0 0 M21000.8 3688.03 L21000.8 3634.9 L21526.7 3797.4 L21526.7 3850.53 L21000.8 3688.03 Z" fill="#000000" fill-rule="evenodd" fill-opacity="1" /><path clip-path="url(#clip620)" d="M 0 0 M21184.5 3302.09 Q21145.8 3280.53 21127.3 3250.53 Q21108.9 3220.53 21108.9 3179.9 Q21108.9 3125.22 21147.3 3095.53 Q21185.5 3065.84 21256.1 3065.84 L21467.3 3065.84 L21467.3 3123.65 L21258 3123.65 Q21207.7 3123.65 21183.3 3141.47 Q21158.9 3159.28 21158.9 3195.84 Q21158.9 3240.53 21188.6 3266.47 Q21218.3 3292.4 21269.5 3292.4 L21467.3 3292.4 L21467.3 3350.22 L21258 3350.22 Q21207.3 3350.22 21183.3 3368.03 Q21158.9 3385.84 21158.9 3423.03 Q21158.9 3467.09 21188.9 3493.03 Q21218.6 3518.96 21269.5 3518.96 L21467.3 3518.96 L21467.3 3576.78 L21117.3 3576.78 L21117.3 3518.96 L21171.7 3518.96 Q21139.5 3499.28 21124.2 3471.78 Q21108.9 3444.28 21108.9 3406.47 Q21108.9 3368.34 21128.3 3341.78 Q21147.7 3314.9 21184.5 3302.09 Z" fill="#000000" fill-rule="evenodd" fill-opacity="1" /><path clip-path="url(#clip620)" d="M 0 0 M21117.3 2902.09 Q21123 2873.34 21140.2 2857.72 Q21157 2841.78 21182.7 2841.78 Q21221.4 2841.78 21242.3 2871.47 Q21263.3 2901.16 21263.3 2956.47 Q21263.3 2974.28 21260.2 2993.97 Q21256.7 3013.34 21250.5 3035.22 L21212.7 3035.22 Q21221.1 3018.97 21225.2 3000.53 Q21229.2 2981.78 21229.2 2960.84 Q21229.2 2926.78 21217 2908.03 Q21204.5 2889.28 21182.7 2889.28 Q21159.5 2889.28 21147.7 2906.78 Q21135.8 2923.97 21135.8 2957.72 L21135.8 2984.59 L21102 2984.59 L21102 2955.22 Q21102 2925.84 21092.3 2910.84 Q21082.3 2895.53 21063.6 2895.53 Q21045.5 2895.53 21036.1 2911.16 Q21026.4 2926.78 21026.4 2956.47 Q21026.4 2968.97 21029.2 2984.91 Q21032 3000.84 21039.2 3026.15 L21003.3 3026.15 Q20998 3003.34 20995.2 2983.34 Q20992.3 2963.34 20992.3 2946.16 Q20992.3 2901.16 21010.8 2874.91 Q21029.2 2848.34 21060.2 2848.34 Q21081.7 2848.34 21096.7 2862.41 Q21111.7 2876.47 21117.3 2902.09 Z" fill="#000000" fill-rule="evenodd" fill-opacity="1" /><path clip-path="url(#clip620)" d="M 0 0 M20981.7 2790.53 L20981.7 2740.53 Q21055.5 2693.66 21126.1 2670.53 Q21196.7 2647.09 21266.4 2647.09 Q21336.4 2647.09 21407.3 2670.53 Q21478.3 2693.66 21551.7 2740.53 L21551.7 2790.53 Q21480.2 2748.97 21409.5 2728.66 Q21338.6 2708.03 21266.4 2708.03 Q21194.2 2708.03 21123.9 2728.66 Q21053.6 2748.97 20981.7 2790.53 Z" fill="#000000" fill-rule="evenodd" fill-opacity="1" /><polyline clip-path="url(#clip622)" style="stroke:#008000; stroke-width:48; stroke-opacity:1; fill:none" points="
  2455.52,12053.6 2516.08,12053.6 2576.65,12053.6 2637.21,12053.6 2697.78,12053.6 2758.34,12053.6 2818.91,12053.6 2879.47,12053.6 2940.04,12053.6 3000.6,12053.6 
  3061.17,12053.6 3121.73,12053.6 3182.3,12053.6 3242.86,12053.6 3303.43,12053.6 3363.99,12053.6 3424.56,12053.6 3485.12,12053.6 3545.69,12053.6 3606.25,12053.6 
  3666.82,12053.6 3727.38,12053.6 3787.95,12053.6 3848.51,12053.6 3909.08,12053.6 3969.64,12053.6 4030.21,12053.6 4090.77,12053.6 4151.34,12053.6 4211.91,12053.6 
  4272.47,12053.6 4333.04,12053.6 4393.6,12053.6 4454.17,12053.6 4514.73,12053.6 4575.3,12053.6 4635.86,12053.6 4696.43,12053.6 4756.99,12053.6 4817.56,12053.6 
  4878.12,12053.6 4938.69,12053.6 4999.25,12053.6 5059.82,12053.6 5120.38,12053.6 5180.95,12053.6 5241.51,12053.6 5302.08,12053.6 5362.64,12053.6 5423.21,12053.6 
  5483.77,12053.6 5544.34,12053.6 5604.9,12053.6 5665.47,12053.6 5726.03,12053.6 5786.6,12053.6 5847.16,12053.6 5907.73,12053.6 5968.29,12053.6 6028.86,12053.6 
  6089.42,12053.6 6149.99,12053.6 6210.56,12053.6 6271.12,12053.6 6331.69,12053.6 6392.25,12053.6 6452.82,12053.6 6513.38,12053.6 6573.95,12053.6 6634.51,12053.6 
  6695.08,12053.6 6755.64,12053.6 6816.21,12053.6 6876.77,12053.6 6937.34,12053.6 6997.9,12053.6 7058.47,12053.6 7119.03,12053.6 7179.6,12053.6 7240.16,12053.6 
  7300.73,12053.6 7361.29,12053.6 7421.86,12053.6 7482.42,12053.6 7542.99,12053.6 7603.55,12053.6 7664.12,12053.6 7724.68,12053.6 7785.25,12053.6 7845.81,12053.6 
  7906.38,12053.6 7966.94,12053.6 8027.51,12053.6 8088.07,12053.6 8148.64,12053.6 8209.21,12053.6 8269.77,12053.6 8330.34,12053.6 8390.9,12053.6 8451.47,12053.6 
  
  "/>
<polyline clip-path="url(#clip622)" style="stroke:#008000; stroke-width:48; stroke-opacity:1; fill:none" points="
  2455.52,12053.6 2516.08,12053.5 2576.65,12053.5 2637.21,12053.5 2697.78,12053.5 2758.34,12053.5 2818.91,12053.4 2879.47,12053.4 2940.04,12053.4 3000.6,12053.4 
  3061.17,12053.3 3121.73,12053.3 3182.3,12053.2 3242.86,12053.2 3303.43,12053.1 3363.99,12053.1 3424.56,12053 3485.12,12052.9 3545.69,12052.9 3606.25,12052.8 
  3666.82,12052.7 3727.38,12052.5 3787.95,12052.4 3848.51,12052.3 3909.08,12052.1 3969.64,12051.9 4030.21,12051.7 4090.77,12051.5 4151.34,12051.2 4211.91,12051 
  4272.47,12050.7 4333.04,12050.3 4393.6,12050 4454.17,12049.5 4514.73,12049.1 4575.3,12048.6 4635.86,12048 4696.43,12047.4 4756.99,12046.8 4817.56,12046 
  4878.12,12045.3 4938.69,12044.4 4999.25,12043.4 5059.82,12042.4 5120.38,12041.3 5180.95,12040 5241.51,12038.7 5302.08,12037.2 5362.64,12035.7 5423.21,12034 
  5483.77,12032.1 5544.34,12030.1 5604.9,12027.9 5665.47,12025.6 5726.03,12023.1 5786.6,12020.4 5847.16,12017.5 5907.73,12014.3 5968.29,12011 6028.86,12007.3 
  6089.42,12003.5 6149.99,11999.4 6210.56,11994.9 6271.12,11990.2 6331.69,11985.2 6392.25,11979.8 6452.82,11974.1 6513.38,11968 6573.95,11961.6 6634.51,11954.8 
  6695.08,11947.5 6755.64,11939.8 6816.21,11931.7 6876.77,11923.1 6937.34,11914.1 6997.9,11904.5 7058.47,11894.4 7119.03,11883.8 7179.6,11872.7 7240.16,11861 
  7300.73,11848.7 7361.29,11835.8 7421.86,11822.2 7482.42,11808.1 7542.99,11793.3 7603.55,11777.8 7664.12,11761.7 7724.68,11744.9 7785.25,11727.3 7845.81,11709.1 
  7906.38,11690.1 7966.94,11670.4 8027.51,11649.9 8088.07,11628.6 8148.64,11606.6 8209.21,11583.7 8269.77,11560.1 8330.34,11535.7 8390.9,11510.4 8451.47,11484.3 
  
  "/>
<polyline clip-path="url(#clip622)" style="stroke:#008000; stroke-width:48; stroke-opacity:1; fill:none" points="
  2455.52,12053.6 2516.08,12051.4 2576.65,12049.3 2637.21,12047.1 2697.78,12045 2758.34,12042.8 2818.91,12040.6 2879.47,12038.4 2940.04,12036.1 3000.6,12033.8 
  3061.17,12031.4 3121.73,12029.1 3182.3,12026.6 3242.86,12024.1 3303.43,12021.6 3363.99,12018.9 3424.56,12016.2 3485.12,12013.5 3545.69,12010.6 3606.25,12007.7 
  3666.82,12004.6 3727.38,12001.5 3787.95,11998.3 3848.51,11994.9 3909.08,11991.5 3969.64,11987.9 4030.21,11984.2 4090.77,11980.4 4151.34,11976.5 4211.91,11972.4 
  4272.47,11968.1 4333.04,11963.7 4393.6,11959.2 4454.17,11954.5 4514.73,11949.6 4575.3,11944.5 4635.86,11939.3 4696.43,11933.9 4756.99,11928.2 4817.56,11922.4 
  4878.12,11916.4 4938.69,11910.2 4999.25,11903.7 5059.82,11897 5120.38,11890.1 5180.95,11883 5241.51,11875.6 5302.08,11867.9 5362.64,11860 5423.21,11851.9 
  5483.77,11843.4 5544.34,11834.7 5604.9,11825.7 5665.47,11816.4 5726.03,11806.8 5786.6,11796.9 5847.16,11786.7 5907.73,11776.2 5968.29,11765.4 6028.86,11754.2 
  6089.42,11742.6 6149.99,11730.8 6210.56,11718.6 6271.12,11706 6331.69,11693 6392.25,11679.7 6452.82,11666 6513.38,11651.9 6573.95,11637.4 6634.51,11622.5 
  6695.08,11607.2 6755.64,11591.5 6816.21,11575.4 6876.77,11558.8 6937.34,11541.8 6997.9,11524.4 7058.47,11506.5 7119.03,11488.2 7179.6,11469.4 7240.16,11450.1 
  7300.73,11430.4 7361.29,11410.2 7421.86,11389.5 7482.42,11368.3 7542.99,11346.7 7603.55,11324.5 7664.12,11301.8 7724.68,11278.6 7785.25,11254.9 7845.81,11230.7 
  7906.38,11205.9 7966.94,11180.7 8027.51,11154.8 8088.07,11128.5 8148.64,11101.6 8209.21,11074.1 8269.77,11046.1 8330.34,11017.5 8390.9,10988.4 8451.47,10958.7 
  
  "/>
<polyline clip-path="url(#clip622)" style="stroke:#008000; stroke-width:48; stroke-opacity:1; fill:none" points="
  2455.52,12053.6 2516.08,12036.6 2576.65,12019.6 2637.21,12002.6 2697.78,11985.6 2758.34,11968.6 2818.91,11951.5 2879.47,11934.5 2940.04,11917.4 3000.6,11900.3 
  3061.17,11883.1 3121.73,11865.9 3182.3,11848.7 3242.86,11831.4 3303.43,11814 3363.99,11796.6 3424.56,11779.1 3485.12,11761.6 3545.69,11743.9 3606.25,11726.2 
  3666.82,11708.4 3727.38,11690.5 3787.95,11672.5 3848.51,11654.5 3909.08,11636.3 3969.64,11618 4030.21,11599.5 4090.77,11581 4151.34,11562.3 4211.91,11543.5 
  4272.47,11524.6 4333.04,11505.5 4393.6,11486.3 4454.17,11467 4514.73,11447.5 4575.3,11427.8 4635.86,11408 4696.43,11388 4756.99,11367.9 4817.56,11347.5 
  4878.12,11327 4938.69,11306.3 4999.25,11285.4 5059.82,11264.4 5120.38,11243.1 5180.95,11221.6 5241.51,11200 5302.08,11178.1 5362.64,11156 5423.21,11133.7 
  5483.77,11111.2 5544.34,11088.4 5604.9,11065.4 5665.47,11042.2 5726.03,11018.8 5786.6,10995.1 5847.16,10971.1 5907.73,10946.9 5968.29,10922.5 6028.86,10897.8 
  6089.42,10872.9 6149.99,10847.6 6210.56,10822.1 6271.12,10796.4 6331.69,10770.3 6392.25,10744 6452.82,10717.4 6513.38,10690.5 6573.95,10663.4 6634.51,10635.9 
  6695.08,10608.1 6755.64,10580.1 6816.21,10551.7 6876.77,10523 6937.34,10494.1 6997.9,10464.8 7058.47,10435.2 7119.03,10405.2 7179.6,10375 7240.16,10344.4 
  7300.73,10313.5 7361.29,10282.2 7421.86,10250.7 7482.42,10218.8 7542.99,10186.5 7603.55,10153.9 7664.12,10121 7724.68,10087.7 7785.25,10054.1 7845.81,10020.1 
  7906.38,9985.73 7966.94,9951.03 8027.51,9915.97 8088.07,9880.54 8148.64,9844.75 8209.21,9808.59 8269.77,9772.06 8330.34,9735.15 8390.9,9697.88 8451.47,9660.22 
  
  "/>
</svg>
