<?xml version="1.0" encoding="utf-8"?>
<svg xmlns="http://www.w3.org/2000/svg" xmlns:xlink="http://www.w3.org/1999/xlink" width="600" height="400" viewBox="0 0 2400 1600">
<defs>
  <clipPath id="clip480">
    <rect x="0" y="0" width="2400" height="1600"/>
  </clipPath>
</defs>
<path clip-path="url(#clip480)" d="
M0 1600 L2400 1600 L2400 0 L0 0  Z
  " fill="#ffffff" fill-rule="evenodd" fill-opacity="1"/>
<defs>
  <clipPath id="clip481">
    <rect x="480" y="0" width="1681" height="1600"/>
  </clipPath>
</defs>
<path clip-path="url(#clip480)" d="
M224.866 1423.18 L2208.5 1423.18 L2208.5 47.2441 L224.866 47.2441  Z
  " fill="#ffffff" fill-rule="evenodd" fill-opacity="1"/>
<defs>
  <clipPath id="clip482">
    <rect x="224" y="47" width="1985" height="1377"/>
  </clipPath>
</defs>
<polyline clip-path="url(#clip480)" style="stroke:#000000; stroke-width:4; stroke-opacity:1; fill:none" points="
  224.866,1423.18 2208.5,1423.18 
  "/>
<polyline clip-path="url(#clip480)" style="stroke:#000000; stroke-width:4; stroke-opacity:1; fill:none" points="
  281.007,1423.18 281.007,1406.67 
  "/>
<polyline clip-path="url(#clip480)" style="stroke:#000000; stroke-width:4; stroke-opacity:1; fill:none" points="
  606.46,1423.18 606.46,1406.67 
  "/>
<polyline clip-path="url(#clip480)" style="stroke:#000000; stroke-width:4; stroke-opacity:1; fill:none" points="
  931.913,1423.18 931.913,1406.67 
  "/>
<polyline clip-path="url(#clip480)" style="stroke:#000000; stroke-width:4; stroke-opacity:1; fill:none" points="
  1257.37,1423.18 1257.37,1406.67 
  "/>
<polyline clip-path="url(#clip480)" style="stroke:#000000; stroke-width:4; stroke-opacity:1; fill:none" points="
  1582.82,1423.18 1582.82,1406.67 
  "/>
<polyline clip-path="url(#clip480)" style="stroke:#000000; stroke-width:4; stroke-opacity:1; fill:none" points="
  1908.27,1423.18 1908.27,1406.67 
  "/>
<path clip-path="url(#clip480)" d="M 0 0 M281.007 1452.37 Q277.396 1452.37 275.567 1455.94 Q273.762 1459.48 273.762 1466.61 Q273.762 1473.71 275.567 1477.28 Q277.396 1480.82 281.007 1480.82 Q284.641 1480.82 286.447 1477.28 Q288.275 1473.71 288.275 1466.61 Q288.275 1459.48 286.447 1455.94 Q284.641 1452.37 281.007 1452.37 M281.007 1448.67 Q286.817 1448.67 289.873 1453.27 Q292.951 1457.86 292.951 1466.61 Q292.951 1475.33 289.873 1479.94 Q286.817 1484.52 281.007 1484.52 Q275.197 1484.52 272.118 1479.94 Q269.063 1475.33 269.063 1466.61 Q269.063 1457.86 272.118 1453.27 Q275.197 1448.67 281.007 1448.67 Z" fill="#000000" fill-rule="evenodd" fill-opacity="1" /><path clip-path="url(#clip480)" d="M 0 0 M569.828 1479.92 L577.467 1479.92 L577.467 1453.55 L569.157 1455.22 L569.157 1450.96 L577.421 1449.29 L582.097 1449.29 L582.097 1479.92 L589.736 1479.92 L589.736 1483.85 L569.828 1483.85 L569.828 1479.92 Z" fill="#000000" fill-rule="evenodd" fill-opacity="1" /><path clip-path="url(#clip480)" d="M 0 0 M604.805 1452.37 Q601.194 1452.37 599.365 1455.94 Q597.56 1459.48 597.56 1466.61 Q597.56 1473.71 599.365 1477.28 Q601.194 1480.82 604.805 1480.82 Q608.439 1480.82 610.245 1477.28 Q612.074 1473.71 612.074 1466.61 Q612.074 1459.48 610.245 1455.94 Q608.439 1452.37 604.805 1452.37 M604.805 1448.67 Q610.615 1448.67 613.671 1453.27 Q616.749 1457.86 616.749 1466.61 Q616.749 1475.33 613.671 1479.94 Q610.615 1484.52 604.805 1484.52 Q598.995 1484.52 595.916 1479.94 Q592.861 1475.33 592.861 1466.61 Q592.861 1457.86 595.916 1453.27 Q598.995 1448.67 604.805 1448.67 Z" fill="#000000" fill-rule="evenodd" fill-opacity="1" /><path clip-path="url(#clip480)" d="M 0 0 M631.819 1452.37 Q628.208 1452.37 626.379 1455.94 Q624.574 1459.48 624.574 1466.61 Q624.574 1473.71 626.379 1477.28 Q628.208 1480.82 631.819 1480.82 Q635.453 1480.82 637.259 1477.28 Q639.087 1473.71 639.087 1466.61 Q639.087 1459.48 637.259 1455.94 Q635.453 1452.37 631.819 1452.37 M631.819 1448.67 Q637.629 1448.67 640.685 1453.27 Q643.763 1457.86 643.763 1466.61 Q643.763 1475.33 640.685 1479.94 Q637.629 1484.52 631.819 1484.52 Q626.009 1484.52 622.93 1479.94 Q619.874 1475.33 619.874 1466.61 Q619.874 1457.86 622.93 1453.27 Q626.009 1448.67 631.819 1448.67 Z" fill="#000000" fill-rule="evenodd" fill-opacity="1" /><path clip-path="url(#clip480)" d="M 0 0 M899.553 1479.92 L915.872 1479.92 L915.872 1483.85 L893.928 1483.85 L893.928 1479.92 Q896.59 1477.16 901.173 1472.53 Q905.779 1467.88 906.96 1466.54 Q909.205 1464.01 910.085 1462.28 Q910.988 1460.52 910.988 1458.83 Q910.988 1456.07 909.043 1454.34 Q907.122 1452.6 904.02 1452.6 Q901.821 1452.6 899.367 1453.37 Q896.937 1454.13 894.159 1455.68 L894.159 1450.96 Q896.983 1449.82 899.437 1449.25 Q901.89 1448.67 903.928 1448.67 Q909.298 1448.67 912.492 1451.35 Q915.687 1454.04 915.687 1458.53 Q915.687 1460.66 914.877 1462.58 Q914.089 1464.48 911.983 1467.07 Q911.404 1467.74 908.302 1470.96 Q905.201 1474.15 899.553 1479.92 Z" fill="#000000" fill-rule="evenodd" fill-opacity="1" /><path clip-path="url(#clip480)" d="M 0 0 M930.941 1452.37 Q927.33 1452.37 925.501 1455.94 Q923.696 1459.48 923.696 1466.61 Q923.696 1473.71 925.501 1477.28 Q927.33 1480.82 930.941 1480.82 Q934.575 1480.82 936.381 1477.28 Q938.21 1473.71 938.21 1466.61 Q938.21 1459.48 936.381 1455.94 Q934.575 1452.37 930.941 1452.37 M930.941 1448.67 Q936.751 1448.67 939.807 1453.27 Q942.886 1457.86 942.886 1466.61 Q942.886 1475.33 939.807 1479.94 Q936.751 1484.52 930.941 1484.52 Q925.131 1484.52 922.052 1479.94 Q918.997 1475.33 918.997 1466.61 Q918.997 1457.86 922.052 1453.27 Q925.131 1448.67 930.941 1448.67 Z" fill="#000000" fill-rule="evenodd" fill-opacity="1" /><path clip-path="url(#clip480)" d="M 0 0 M957.955 1452.37 Q954.344 1452.37 952.515 1455.94 Q950.71 1459.48 950.71 1466.61 Q950.71 1473.71 952.515 1477.28 Q954.344 1480.82 957.955 1480.82 Q961.589 1480.82 963.395 1477.28 Q965.223 1473.71 965.223 1466.61 Q965.223 1459.48 963.395 1455.94 Q961.589 1452.37 957.955 1452.37 M957.955 1448.67 Q963.765 1448.67 966.821 1453.27 Q969.899 1457.86 969.899 1466.61 Q969.899 1475.33 966.821 1479.94 Q963.765 1484.52 957.955 1484.52 Q952.145 1484.52 949.066 1479.94 Q946.011 1475.33 946.011 1466.61 Q946.011 1457.86 949.066 1453.27 Q952.145 1448.67 957.955 1448.67 Z" fill="#000000" fill-rule="evenodd" fill-opacity="1" /><path clip-path="url(#clip480)" d="M 0 0 M1234.6 1465.22 Q1237.96 1465.94 1239.83 1468.2 Q1241.73 1470.47 1241.73 1473.81 Q1241.73 1478.92 1238.21 1481.72 Q1234.69 1484.52 1228.21 1484.52 Q1226.04 1484.52 1223.72 1484.08 Q1221.43 1483.67 1218.98 1482.81 L1218.98 1478.3 Q1220.92 1479.43 1223.23 1480.01 Q1225.55 1480.59 1228.07 1480.59 Q1232.47 1480.59 1234.76 1478.85 Q1237.08 1477.12 1237.08 1473.81 Q1237.08 1470.75 1234.92 1469.04 Q1232.8 1467.3 1228.98 1467.3 L1224.95 1467.3 L1224.95 1463.46 L1229.16 1463.46 Q1232.61 1463.46 1234.44 1462.09 Q1236.27 1460.7 1236.27 1458.11 Q1236.27 1455.45 1234.37 1454.04 Q1232.49 1452.6 1228.98 1452.6 Q1227.05 1452.6 1224.86 1453.02 Q1222.66 1453.44 1220.02 1454.31 L1220.02 1450.15 Q1222.68 1449.41 1224.99 1449.04 Q1227.33 1448.67 1229.39 1448.67 Q1234.72 1448.67 1237.82 1451.1 Q1240.92 1453.5 1240.92 1457.63 Q1240.92 1460.5 1239.28 1462.49 Q1237.63 1464.45 1234.6 1465.22 Z" fill="#000000" fill-rule="evenodd" fill-opacity="1" /><path clip-path="url(#clip480)" d="M 0 0 M1256.8 1452.37 Q1253.19 1452.37 1251.36 1455.94 Q1249.55 1459.48 1249.55 1466.61 Q1249.55 1473.71 1251.36 1477.28 Q1253.19 1480.82 1256.8 1480.82 Q1260.43 1480.82 1262.24 1477.28 Q1264.07 1473.71 1264.07 1466.61 Q1264.07 1459.48 1262.24 1455.94 Q1260.43 1452.37 1256.8 1452.37 M1256.8 1448.67 Q1262.61 1448.67 1265.67 1453.27 Q1268.74 1457.86 1268.74 1466.61 Q1268.74 1475.33 1265.67 1479.94 Q1262.61 1484.52 1256.8 1484.52 Q1250.99 1484.52 1247.91 1479.94 Q1244.86 1475.33 1244.86 1466.61 Q1244.86 1457.86 1247.91 1453.27 Q1250.99 1448.67 1256.8 1448.67 Z" fill="#000000" fill-rule="evenodd" fill-opacity="1" /><path clip-path="url(#clip480)" d="M 0 0 M1283.81 1452.37 Q1280.2 1452.37 1278.37 1455.94 Q1276.57 1459.48 1276.57 1466.61 Q1276.57 1473.71 1278.37 1477.28 Q1280.2 1480.82 1283.81 1480.82 Q1287.45 1480.82 1289.25 1477.28 Q1291.08 1473.71 1291.08 1466.61 Q1291.08 1459.48 1289.25 1455.94 Q1287.45 1452.37 1283.81 1452.37 M1283.81 1448.67 Q1289.62 1448.67 1292.68 1453.27 Q1295.76 1457.86 1295.76 1466.61 Q1295.76 1475.33 1292.68 1479.94 Q1289.62 1484.52 1283.81 1484.52 Q1278 1484.52 1274.92 1479.94 Q1271.87 1475.33 1271.87 1466.61 Q1271.87 1457.86 1274.92 1453.27 Q1278 1448.67 1283.81 1448.67 Z" fill="#000000" fill-rule="evenodd" fill-opacity="1" /><path clip-path="url(#clip480)" d="M 0 0 M1558.82 1453.37 L1547.01 1471.81 L1558.82 1471.81 L1558.82 1453.37 M1557.59 1449.29 L1563.47 1449.29 L1563.47 1471.81 L1568.4 1471.81 L1568.4 1475.7 L1563.47 1475.7 L1563.47 1483.85 L1558.82 1483.85 L1558.82 1475.7 L1543.21 1475.7 L1543.21 1471.19 L1557.59 1449.29 Z" fill="#000000" fill-rule="evenodd" fill-opacity="1" /><path clip-path="url(#clip480)" d="M 0 0 M1583.47 1452.37 Q1579.86 1452.37 1578.03 1455.94 Q1576.22 1459.48 1576.22 1466.61 Q1576.22 1473.71 1578.03 1477.28 Q1579.86 1480.82 1583.47 1480.82 Q1587.1 1480.82 1588.91 1477.28 Q1590.74 1473.71 1590.74 1466.61 Q1590.74 1459.48 1588.91 1455.94 Q1587.1 1452.37 1583.47 1452.37 M1583.47 1448.67 Q1589.28 1448.67 1592.33 1453.27 Q1595.41 1457.86 1595.41 1466.61 Q1595.41 1475.33 1592.33 1479.94 Q1589.28 1484.52 1583.47 1484.52 Q1577.66 1484.52 1574.58 1479.94 Q1571.52 1475.33 1571.52 1466.61 Q1571.52 1457.86 1574.58 1453.27 Q1577.66 1448.67 1583.47 1448.67 Z" fill="#000000" fill-rule="evenodd" fill-opacity="1" /><path clip-path="url(#clip480)" d="M 0 0 M1610.48 1452.37 Q1606.87 1452.37 1605.04 1455.94 Q1603.24 1459.48 1603.24 1466.61 Q1603.24 1473.71 1605.04 1477.28 Q1606.87 1480.82 1610.48 1480.82 Q1614.12 1480.82 1615.92 1477.28 Q1617.75 1473.71 1617.75 1466.61 Q1617.75 1459.48 1615.92 1455.94 Q1614.12 1452.37 1610.48 1452.37 M1610.48 1448.67 Q1616.29 1448.67 1619.35 1453.27 Q1622.43 1457.86 1622.43 1466.61 Q1622.43 1475.33 1619.35 1479.94 Q1616.29 1484.52 1610.48 1484.52 Q1604.67 1484.52 1601.59 1479.94 Q1598.54 1475.33 1598.54 1466.61 Q1598.54 1457.86 1601.59 1453.27 Q1604.67 1448.67 1610.48 1448.67 Z" fill="#000000" fill-rule="evenodd" fill-opacity="1" /><path clip-path="url(#clip480)" d="M 0 0 M1871.54 1449.29 L1889.89 1449.29 L1889.89 1453.23 L1875.82 1453.23 L1875.82 1461.7 Q1876.84 1461.35 1877.86 1461.19 Q1878.88 1461 1879.89 1461 Q1885.68 1461 1889.06 1464.18 Q1892.44 1467.35 1892.44 1472.76 Q1892.44 1478.34 1888.97 1481.44 Q1885.5 1484.52 1879.18 1484.52 Q1877 1484.52 1874.73 1484.15 Q1872.49 1483.78 1870.08 1483.04 L1870.08 1478.34 Q1872.16 1479.48 1874.38 1480.03 Q1876.61 1480.59 1879.08 1480.59 Q1883.09 1480.59 1885.43 1478.48 Q1887.76 1476.38 1887.76 1472.76 Q1887.76 1469.15 1885.43 1467.05 Q1883.09 1464.94 1879.08 1464.94 Q1877.21 1464.94 1875.33 1465.36 Q1873.48 1465.77 1871.54 1466.65 L1871.54 1449.29 Z" fill="#000000" fill-rule="evenodd" fill-opacity="1" /><path clip-path="url(#clip480)" d="M 0 0 M1907.51 1452.37 Q1903.9 1452.37 1902.07 1455.94 Q1900.26 1459.48 1900.26 1466.61 Q1900.26 1473.71 1902.07 1477.28 Q1903.9 1480.82 1907.51 1480.82 Q1911.14 1480.82 1912.95 1477.28 Q1914.78 1473.71 1914.78 1466.61 Q1914.78 1459.48 1912.95 1455.94 Q1911.14 1452.37 1907.51 1452.37 M1907.51 1448.67 Q1913.32 1448.67 1916.38 1453.27 Q1919.45 1457.86 1919.45 1466.61 Q1919.45 1475.33 1916.38 1479.94 Q1913.32 1484.52 1907.51 1484.52 Q1901.7 1484.52 1898.62 1479.94 Q1895.57 1475.33 1895.57 1466.61 Q1895.57 1457.86 1898.62 1453.27 Q1901.7 1448.67 1907.51 1448.67 Z" fill="#000000" fill-rule="evenodd" fill-opacity="1" /><path clip-path="url(#clip480)" d="M 0 0 M1934.52 1452.37 Q1930.91 1452.37 1929.08 1455.94 Q1927.28 1459.48 1927.28 1466.61 Q1927.28 1473.71 1929.08 1477.28 Q1930.91 1480.82 1934.52 1480.82 Q1938.16 1480.82 1939.96 1477.28 Q1941.79 1473.71 1941.79 1466.61 Q1941.79 1459.48 1939.96 1455.94 Q1938.16 1452.37 1934.52 1452.37 M1934.52 1448.67 Q1940.33 1448.67 1943.39 1453.27 Q1946.47 1457.86 1946.47 1466.61 Q1946.47 1475.33 1943.39 1479.94 Q1940.33 1484.52 1934.52 1484.52 Q1928.71 1484.52 1925.63 1479.94 Q1922.58 1475.33 1922.58 1466.61 Q1922.58 1457.86 1925.63 1453.27 Q1928.71 1448.67 1934.52 1448.67 Z" fill="#000000" fill-rule="evenodd" fill-opacity="1" /><path clip-path="url(#clip480)" d="M 0 0 M1041.28 1513.81 L1041.28 1550.76 L1049.04 1550.76 Q1058.88 1550.76 1063.43 1546.3 Q1068.01 1541.85 1068.01 1532.24 Q1068.01 1522.69 1063.43 1518.26 Q1058.88 1513.81 1049.04 1513.81 L1041.28 1513.81 M1034.85 1508.52 L1048.06 1508.52 Q1061.87 1508.52 1068.33 1514.28 Q1074.79 1520.01 1074.79 1532.24 Q1074.79 1544.52 1068.3 1550.28 Q1061.81 1556.04 1048.06 1556.04 L1034.85 1556.04 L1034.85 1508.52 Z" fill="#000000" fill-rule="evenodd" fill-opacity="1" /><path clip-path="url(#clip480)" d="M 0 0 M1080.94 1520.4 L1086.79 1520.4 L1086.79 1556.04 L1080.94 1556.04 L1080.94 1520.4 M1080.94 1506.52 L1086.79 1506.52 L1086.79 1513.93 L1080.94 1513.93 L1080.94 1506.52 Z" fill="#000000" fill-rule="evenodd" fill-opacity="1" /><path clip-path="url(#clip480)" d="M 0 0 M1115.66 1521.45 L1115.66 1526.98 Q1113.18 1525.71 1110.51 1525.07 Q1107.83 1524.44 1104.97 1524.44 Q1100.61 1524.44 1098.41 1525.77 Q1096.25 1527.11 1096.25 1529.79 Q1096.25 1531.82 1097.81 1533 Q1099.37 1534.15 1104.08 1535.2 L1106.08 1535.64 Q1112.32 1536.98 1114.93 1539.43 Q1117.57 1541.85 1117.57 1546.21 Q1117.57 1551.17 1113.62 1554.07 Q1109.71 1556.97 1102.83 1556.97 Q1099.97 1556.97 1096.85 1556.39 Q1093.76 1555.85 1090.33 1554.74 L1090.33 1548.69 Q1093.57 1550.38 1096.72 1551.24 Q1099.87 1552.07 1102.96 1552.07 Q1107.1 1552.07 1109.33 1550.66 Q1111.56 1549.23 1111.56 1546.65 Q1111.56 1544.27 1109.93 1542.99 Q1108.34 1541.72 1102.9 1540.54 L1100.86 1540.07 Q1095.42 1538.92 1093 1536.56 Q1090.58 1534.18 1090.58 1530.04 Q1090.58 1525.01 1094.15 1522.27 Q1097.71 1519.54 1104.27 1519.54 Q1107.51 1519.54 1110.38 1520.01 Q1113.24 1520.49 1115.66 1521.45 Z" fill="#000000" fill-rule="evenodd" fill-opacity="1" /><path clip-path="url(#clip480)" d="M 0 0 M1129.51 1510.27 L1129.51 1520.4 L1141.57 1520.4 L1141.57 1524.95 L1129.51 1524.95 L1129.51 1544.3 Q1129.51 1548.66 1130.68 1549.9 Q1131.89 1551.14 1135.55 1551.14 L1141.57 1551.14 L1141.57 1556.04 L1135.55 1556.04 Q1128.77 1556.04 1126.2 1553.53 Q1123.62 1550.98 1123.62 1544.3 L1123.62 1524.95 L1119.32 1524.95 L1119.32 1520.4 L1123.62 1520.4 L1123.62 1510.27 L1129.51 1510.27 Z" fill="#000000" fill-rule="evenodd" fill-opacity="1" /><path clip-path="url(#clip480)" d="M 0 0 M1163.91 1538.12 Q1156.82 1538.12 1154.08 1539.75 Q1151.34 1541.37 1151.34 1545.29 Q1151.34 1548.4 1153.38 1550.25 Q1155.45 1552.07 1158.98 1552.07 Q1163.85 1552.07 1166.78 1548.63 Q1169.74 1545.16 1169.74 1539.43 L1169.74 1538.12 L1163.91 1538.12 M1175.59 1535.71 L1175.59 1556.04 L1169.74 1556.04 L1169.74 1550.63 Q1167.73 1553.88 1164.74 1555.44 Q1161.75 1556.97 1157.42 1556.97 Q1151.95 1556.97 1148.7 1553.91 Q1145.48 1550.82 1145.48 1545.67 Q1145.48 1539.65 1149.5 1536.6 Q1153.54 1533.54 1161.53 1533.54 L1169.74 1533.54 L1169.74 1532.97 Q1169.74 1528.93 1167.06 1526.73 Q1164.42 1524.5 1159.62 1524.5 Q1156.56 1524.5 1153.66 1525.23 Q1150.77 1525.97 1148.09 1527.43 L1148.09 1522.02 Q1151.31 1520.78 1154.33 1520.17 Q1157.36 1519.54 1160.22 1519.54 Q1167.96 1519.54 1171.78 1523.55 Q1175.59 1527.56 1175.59 1535.71 Z" fill="#000000" fill-rule="evenodd" fill-opacity="1" /><path clip-path="url(#clip480)" d="M 0 0 M1211.37 1534.53 L1211.37 1556.04 L1205.51 1556.04 L1205.51 1534.72 Q1205.51 1529.66 1203.54 1527.14 Q1201.57 1524.63 1197.62 1524.63 Q1192.88 1524.63 1190.14 1527.65 Q1187.4 1530.68 1187.4 1535.9 L1187.4 1556.04 L1181.51 1556.04 L1181.51 1520.4 L1187.4 1520.4 L1187.4 1525.93 Q1189.5 1522.72 1192.34 1521.13 Q1195.2 1519.54 1198.92 1519.54 Q1205.07 1519.54 1208.22 1523.36 Q1211.37 1527.14 1211.37 1534.53 Z" fill="#000000" fill-rule="evenodd" fill-opacity="1" /><path clip-path="url(#clip480)" d="M 0 0 M1243.17 1521.76 L1243.17 1527.24 Q1240.68 1525.87 1238.17 1525.2 Q1235.69 1524.5 1233.14 1524.5 Q1227.44 1524.5 1224.29 1528.13 Q1221.14 1531.73 1221.14 1538.25 Q1221.14 1544.78 1224.29 1548.4 Q1227.44 1552 1233.14 1552 Q1235.69 1552 1238.17 1551.33 Q1240.68 1550.63 1243.17 1549.26 L1243.17 1554.68 Q1240.72 1555.82 1238.07 1556.39 Q1235.46 1556.97 1232.5 1556.97 Q1224.45 1556.97 1219.71 1551.91 Q1214.97 1546.85 1214.97 1538.25 Q1214.97 1529.53 1219.74 1524.53 Q1224.55 1519.54 1232.89 1519.54 Q1235.59 1519.54 1238.17 1520.11 Q1240.75 1520.65 1243.17 1521.76 Z" fill="#000000" fill-rule="evenodd" fill-opacity="1" /><path clip-path="url(#clip480)" d="M 0 0 M1279.8 1536.76 L1279.8 1539.62 L1252.87 1539.62 Q1253.26 1545.67 1256.5 1548.85 Q1259.78 1552 1265.61 1552 Q1268.98 1552 1272.13 1551.17 Q1275.31 1550.35 1278.43 1548.69 L1278.43 1554.23 Q1275.28 1555.57 1271.97 1556.27 Q1268.66 1556.97 1265.26 1556.97 Q1256.73 1556.97 1251.73 1552 Q1246.76 1547.04 1246.76 1538.57 Q1246.76 1529.82 1251.47 1524.69 Q1256.22 1519.54 1264.24 1519.54 Q1271.43 1519.54 1275.6 1524.18 Q1279.8 1528.8 1279.8 1536.76 M1273.94 1535.04 Q1273.88 1530.23 1271.24 1527.37 Q1268.63 1524.5 1264.3 1524.5 Q1259.4 1524.5 1256.44 1527.27 Q1253.51 1530.04 1253.07 1535.07 L1273.94 1535.04 Z" fill="#000000" fill-rule="evenodd" fill-opacity="1" /><path clip-path="url(#clip480)" d="M 0 0 M1320.73 1506.58 Q1316.47 1513.9 1314.4 1521.06 Q1312.33 1528.23 1312.33 1535.58 Q1312.33 1542.93 1314.4 1550.16 Q1316.5 1557.35 1320.73 1564.64 L1315.64 1564.64 Q1310.87 1557.16 1308.48 1549.93 Q1306.12 1542.71 1306.12 1535.58 Q1306.12 1528.48 1308.48 1521.29 Q1310.83 1514.09 1315.64 1506.58 L1320.73 1506.58 Z" fill="#000000" fill-rule="evenodd" fill-opacity="1" /><path clip-path="url(#clip480)" d="M 0 0 M1354.63 1527.24 Q1356.83 1523.29 1359.88 1521.41 Q1362.94 1519.54 1367.07 1519.54 Q1372.64 1519.54 1375.67 1523.45 Q1378.69 1527.33 1378.69 1534.53 L1378.69 1556.04 L1372.8 1556.04 L1372.8 1534.72 Q1372.8 1529.59 1370.99 1527.11 Q1369.18 1524.63 1365.45 1524.63 Q1360.9 1524.63 1358.26 1527.65 Q1355.62 1530.68 1355.62 1535.9 L1355.62 1556.04 L1349.73 1556.04 L1349.73 1534.72 Q1349.73 1529.56 1347.91 1527.11 Q1346.1 1524.63 1342.31 1524.63 Q1337.82 1524.63 1335.18 1527.68 Q1332.54 1530.71 1332.54 1535.9 L1332.54 1556.04 L1326.65 1556.04 L1326.65 1520.4 L1332.54 1520.4 L1332.54 1525.93 Q1334.55 1522.66 1337.35 1521.1 Q1340.15 1519.54 1344 1519.54 Q1347.88 1519.54 1350.59 1521.51 Q1353.32 1523.48 1354.63 1527.24 Z" fill="#000000" fill-rule="evenodd" fill-opacity="1" /><path clip-path="url(#clip480)" d="M 0 0 M1383.91 1506.58 L1389 1506.58 Q1393.78 1514.09 1396.13 1521.29 Q1398.52 1528.48 1398.52 1535.58 Q1398.52 1542.71 1396.13 1549.93 Q1393.78 1557.16 1389 1564.64 L1383.91 1564.64 Q1388.15 1557.35 1390.21 1550.16 Q1392.31 1542.93 1392.31 1535.58 Q1392.31 1528.23 1390.21 1521.06 Q1388.15 1513.9 1383.91 1506.58 Z" fill="#000000" fill-rule="evenodd" fill-opacity="1" /><polyline clip-path="url(#clip480)" style="stroke:#000000; stroke-width:4; stroke-opacity:1; fill:none" points="
  224.866,1423.18 224.866,47.2441 
  "/>
<polyline clip-path="url(#clip480)" style="stroke:#000000; stroke-width:4; stroke-opacity:1; fill:none" points="
  224.866,1412.53 248.67,1412.53 
  "/>
<polyline clip-path="url(#clip480)" style="stroke:#000000; stroke-width:4; stroke-opacity:1; fill:none" points="
  224.866,1033.76 248.67,1033.76 
  "/>
<polyline clip-path="url(#clip480)" style="stroke:#000000; stroke-width:4; stroke-opacity:1; fill:none" points="
  224.866,654.989 248.67,654.989 
  "/>
<polyline clip-path="url(#clip480)" style="stroke:#000000; stroke-width:4; stroke-opacity:1; fill:none" points="
  224.866,276.217 248.67,276.217 
  "/>
<path clip-path="url(#clip480)" d="M 0 0 M150.325 1410.67 Q147.177 1410.67 145.325 1412.82 Q143.496 1414.97 143.496 1418.72 Q143.496 1422.45 145.325 1424.63 Q147.177 1426.78 150.325 1426.78 Q153.473 1426.78 155.302 1424.63 Q157.153 1422.45 157.153 1418.72 Q157.153 1414.97 155.302 1412.82 Q153.473 1410.67 150.325 1410.67 M159.607 1396.02 L159.607 1400.28 Q157.848 1399.44 156.042 1399 Q154.26 1398.56 152.501 1398.56 Q147.871 1398.56 145.417 1401.69 Q142.987 1404.81 142.64 1411.13 Q144.005 1409.12 146.066 1408.05 Q148.126 1406.97 150.603 1406.97 Q155.811 1406.97 158.82 1410.14 Q161.852 1413.28 161.852 1418.72 Q161.852 1424.05 158.704 1427.27 Q155.556 1430.48 150.325 1430.48 Q144.329 1430.48 141.158 1425.9 Q137.987 1421.29 137.987 1412.57 Q137.987 1404.37 141.876 1399.51 Q145.765 1394.63 152.316 1394.63 Q154.075 1394.63 155.857 1394.97 Q157.663 1395.32 159.607 1396.02 Z" fill="#000000" fill-rule="evenodd" fill-opacity="1" /><path clip-path="url(#clip480)" d="M 0 0 M176.922 1398.33 Q173.311 1398.33 171.482 1401.9 Q169.677 1405.44 169.677 1412.57 Q169.677 1419.67 171.482 1423.24 Q173.311 1426.78 176.922 1426.78 Q180.556 1426.78 182.362 1423.24 Q184.19 1419.67 184.19 1412.57 Q184.19 1405.44 182.362 1401.9 Q180.556 1398.33 176.922 1398.33 M176.922 1394.63 Q182.732 1394.63 185.788 1399.23 Q188.866 1403.82 188.866 1412.57 Q188.866 1421.29 185.788 1425.9 Q182.732 1430.48 176.922 1430.48 Q171.112 1430.48 168.033 1425.9 Q164.977 1421.29 164.977 1412.57 Q164.977 1403.82 168.033 1399.23 Q171.112 1394.63 176.922 1394.63 Z" fill="#000000" fill-rule="evenodd" fill-opacity="1" /><path clip-path="url(#clip480)" d="M 0 0 M150.001 1034.63 Q146.667 1034.63 144.746 1036.41 Q142.848 1038.19 142.848 1041.32 Q142.848 1044.44 144.746 1046.23 Q146.667 1048.01 150.001 1048.01 Q153.334 1048.01 155.255 1046.23 Q157.177 1044.42 157.177 1041.32 Q157.177 1038.19 155.255 1036.41 Q153.357 1034.63 150.001 1034.63 M145.325 1032.64 Q142.316 1031.9 140.626 1029.84 Q138.959 1027.78 138.959 1024.81 Q138.959 1020.67 141.899 1018.26 Q144.862 1015.86 150.001 1015.86 Q155.163 1015.86 158.103 1018.26 Q161.042 1020.67 161.042 1024.81 Q161.042 1027.78 159.353 1029.84 Q157.686 1031.9 154.7 1032.64 Q158.079 1033.43 159.954 1035.72 Q161.852 1038.01 161.852 1041.32 Q161.852 1046.34 158.774 1049.03 Q155.718 1051.71 150.001 1051.71 Q144.283 1051.71 141.204 1049.03 Q138.149 1046.34 138.149 1041.32 Q138.149 1038.01 140.047 1035.72 Q141.945 1033.43 145.325 1032.64 M143.612 1025.25 Q143.612 1027.94 145.279 1029.44 Q146.968 1030.95 150.001 1030.95 Q153.01 1030.95 154.7 1029.44 Q156.413 1027.94 156.413 1025.25 Q156.413 1022.57 154.7 1021.06 Q153.01 1019.56 150.001 1019.56 Q146.968 1019.56 145.279 1021.06 Q143.612 1022.57 143.612 1025.25 Z" fill="#000000" fill-rule="evenodd" fill-opacity="1" /><path clip-path="url(#clip480)" d="M 0 0 M176.922 1019.56 Q173.311 1019.56 171.482 1023.12 Q169.677 1026.67 169.677 1033.8 Q169.677 1040.9 171.482 1044.47 Q173.311 1048.01 176.922 1048.01 Q180.556 1048.01 182.362 1044.47 Q184.19 1040.9 184.19 1033.8 Q184.19 1026.67 182.362 1023.12 Q180.556 1019.56 176.922 1019.56 M176.922 1015.86 Q182.732 1015.86 185.788 1020.46 Q188.866 1025.05 188.866 1033.8 Q188.866 1042.52 185.788 1047.13 Q182.732 1051.71 176.922 1051.71 Q171.112 1051.71 168.033 1047.13 Q164.977 1042.52 164.977 1033.8 Q164.977 1025.05 168.033 1020.46 Q171.112 1015.86 176.922 1015.86 Z" fill="#000000" fill-rule="evenodd" fill-opacity="1" /><path clip-path="url(#clip480)" d="M 0 0 M114.931 668.334 L122.57 668.334 L122.57 641.968 L114.26 643.635 L114.26 639.376 L122.524 637.709 L127.2 637.709 L127.2 668.334 L134.839 668.334 L134.839 672.269 L114.931 672.269 L114.931 668.334 Z" fill="#000000" fill-rule="evenodd" fill-opacity="1" /><path clip-path="url(#clip480)" d="M 0 0 M149.908 640.788 Q146.297 640.788 144.468 644.353 Q142.663 647.894 142.663 655.024 Q142.663 662.13 144.468 665.695 Q146.297 669.237 149.908 669.237 Q153.542 669.237 155.348 665.695 Q157.177 662.13 157.177 655.024 Q157.177 647.894 155.348 644.353 Q153.542 640.788 149.908 640.788 M149.908 637.084 Q155.718 637.084 158.774 641.691 Q161.852 646.274 161.852 655.024 Q161.852 663.751 158.774 668.357 Q155.718 672.94 149.908 672.94 Q144.098 672.94 141.019 668.357 Q137.964 663.751 137.964 655.024 Q137.964 646.274 141.019 641.691 Q144.098 637.084 149.908 637.084 Z" fill="#000000" fill-rule="evenodd" fill-opacity="1" /><path clip-path="url(#clip480)" d="M 0 0 M176.922 640.788 Q173.311 640.788 171.482 644.353 Q169.677 647.894 169.677 655.024 Q169.677 662.13 171.482 665.695 Q173.311 669.237 176.922 669.237 Q180.556 669.237 182.362 665.695 Q184.19 662.13 184.19 655.024 Q184.19 647.894 182.362 644.353 Q180.556 640.788 176.922 640.788 M176.922 637.084 Q182.732 637.084 185.788 641.691 Q188.866 646.274 188.866 655.024 Q188.866 663.751 185.788 668.357 Q182.732 672.94 176.922 672.94 Q171.112 672.94 168.033 668.357 Q164.977 663.751 164.977 655.024 Q164.977 646.274 168.033 641.691 Q171.112 637.084 176.922 637.084 Z" fill="#000000" fill-rule="evenodd" fill-opacity="1" /><path clip-path="url(#clip480)" d="M 0 0 M116.529 289.562 L124.168 289.562 L124.168 263.197 L115.857 264.863 L115.857 260.604 L124.121 258.937 L128.797 258.937 L128.797 289.562 L136.436 289.562 L136.436 293.497 L116.529 293.497 L116.529 289.562 Z" fill="#000000" fill-rule="evenodd" fill-opacity="1" /><path clip-path="url(#clip480)" d="M 0 0 M145.533 289.562 L161.852 289.562 L161.852 293.497 L139.908 293.497 L139.908 289.562 Q142.57 286.808 147.153 282.178 Q151.76 277.525 152.941 276.183 Q155.186 273.66 156.065 271.923 Q156.968 270.164 156.968 268.474 Q156.968 265.72 155.024 263.984 Q153.103 262.248 150.001 262.248 Q147.802 262.248 145.348 263.011 Q142.917 263.775 140.14 265.326 L140.14 260.604 Q142.964 259.47 145.417 258.891 Q147.871 258.312 149.908 258.312 Q155.278 258.312 158.473 260.998 Q161.667 263.683 161.667 268.173 Q161.667 270.303 160.857 272.224 Q160.07 274.122 157.964 276.715 Q157.385 277.386 154.283 280.604 Q151.181 283.798 145.533 289.562 Z" fill="#000000" fill-rule="evenodd" fill-opacity="1" /><path clip-path="url(#clip480)" d="M 0 0 M176.922 262.016 Q173.311 262.016 171.482 265.581 Q169.677 269.123 169.677 276.252 Q169.677 283.359 171.482 286.923 Q173.311 290.465 176.922 290.465 Q180.556 290.465 182.362 286.923 Q184.19 283.359 184.19 276.252 Q184.19 269.123 182.362 265.581 Q180.556 262.016 176.922 262.016 M176.922 258.312 Q182.732 258.312 185.788 262.919 Q188.866 267.502 188.866 276.252 Q188.866 284.979 185.788 289.585 Q182.732 294.169 176.922 294.169 Q171.112 294.169 168.033 289.585 Q164.977 284.979 164.977 276.252 Q164.977 267.502 168.033 262.919 Q171.112 258.312 176.922 258.312 Z" fill="#000000" fill-rule="evenodd" fill-opacity="1" /><path clip-path="url(#clip480)" d="M 0 0 M42.0438 1102.12 L48.314 1102.12 Q46.5634 1105.78 45.704 1109.02 Q44.8447 1112.27 44.8447 1115.29 Q44.8447 1120.54 46.8817 1123.41 Q48.9187 1126.24 52.6745 1126.24 Q55.8255 1126.24 57.4488 1124.36 Q59.0402 1122.45 60.0269 1117.17 L60.8226 1113.29 Q62.1912 1106.09 65.6605 1102.69 Q69.098 1099.25 74.8908 1099.25 Q81.7976 1099.25 85.3624 1103.9 Q88.9272 1108.51 88.9272 1117.46 Q88.9272 1120.83 88.1633 1124.65 Q87.3994 1128.44 85.9035 1132.51 L79.2831 1132.51 Q81.4793 1128.6 82.5933 1124.84 Q83.7073 1121.09 83.7073 1117.46 Q83.7073 1111.95 81.543 1108.96 Q79.3786 1105.97 75.3682 1105.97 Q71.8671 1105.97 69.8937 1108.13 Q67.9204 1110.26 66.9337 1115.17 L66.1698 1119.08 Q64.7375 1126.27 61.682 1129.49 Q58.6264 1132.7 53.1837 1132.7 Q46.8817 1132.7 43.2532 1128.28 Q39.6248 1123.82 39.6248 1116.02 Q39.6248 1112.68 40.2295 1109.21 Q40.8343 1105.74 42.0438 1102.12 Z" fill="#000000" fill-rule="evenodd" fill-opacity="1" /><path clip-path="url(#clip480)" d="M 0 0 M70.0847 1076.91 Q70.0847 1084 71.7079 1086.74 Q73.3312 1089.48 77.2461 1089.48 Q80.3653 1089.48 82.2114 1087.44 Q84.0256 1085.37 84.0256 1081.84 Q84.0256 1076.97 80.5881 1074.04 Q77.1188 1071.08 71.3897 1071.08 L70.0847 1071.08 L70.0847 1076.91 M67.6657 1065.23 L88.0042 1065.23 L88.0042 1071.08 L82.5933 1071.08 Q85.8398 1073.09 87.3994 1076.08 Q88.9272 1079.07 88.9272 1083.4 Q88.9272 1088.87 85.8716 1092.12 Q82.7843 1095.34 77.6281 1095.34 Q71.6125 1095.34 68.5569 1091.33 Q65.5014 1087.28 65.5014 1079.29 L65.5014 1071.08 L64.9285 1071.08 Q60.8862 1071.08 58.6901 1073.76 Q56.4621 1076.4 56.4621 1081.2 Q56.4621 1084.26 57.1941 1087.16 Q57.9262 1090.05 59.3903 1092.73 L53.9795 1092.73 Q52.7381 1089.51 52.1334 1086.49 Q51.4968 1083.46 51.4968 1080.6 Q51.4968 1072.86 55.5072 1069.05 Q59.5176 1065.23 67.6657 1065.23 Z" fill="#000000" fill-rule="evenodd" fill-opacity="1" /><path clip-path="url(#clip480)" d="M 0 0 M38.479 1059.08 L38.479 1053.23 L88.0042 1053.23 L88.0042 1059.08 L38.479 1059.08 Z" fill="#000000" fill-rule="evenodd" fill-opacity="1" /><path clip-path="url(#clip480)" d="M 0 0 M42.2347 1041.29 L52.3562 1041.29 L52.3562 1029.23 L56.9077 1029.23 L56.9077 1041.29 L76.2594 1041.29 Q80.6199 1041.29 81.8613 1040.11 Q83.1026 1038.9 83.1026 1035.24 L83.1026 1029.23 L88.0042 1029.23 L88.0042 1035.24 Q88.0042 1042.02 85.4897 1044.6 Q82.9434 1047.18 76.2594 1047.18 L56.9077 1047.18 L56.9077 1051.48 L52.3562 1051.48 L52.3562 1047.18 L42.2347 1047.18 L42.2347 1041.29 Z" fill="#000000" fill-rule="evenodd" fill-opacity="1" /><path clip-path="url(#clip480)" d="M 0 0 M53.7248 976.711 L59.1993 976.711 Q57.8307 979.194 57.1623 981.708 Q56.4621 984.191 56.4621 986.737 Q56.4621 992.434 60.0905 995.585 Q63.6872 998.736 70.212 998.736 Q76.7369 998.736 80.3653 995.585 Q83.9619 992.434 83.9619 986.737 Q83.9619 984.191 83.2935 981.708 Q82.5933 979.194 81.2247 976.711 L86.6355 976.711 Q87.7814 979.162 88.3543 981.804 Q88.9272 984.413 88.9272 987.374 Q88.9272 995.426 83.8664 1000.17 Q78.8057 1004.91 70.212 1004.91 Q61.491 1004.91 56.4939 1000.14 Q51.4968 995.331 51.4968 986.992 Q51.4968 984.286 52.0697 981.708 Q52.6108 979.13 53.7248 976.711 Z" fill="#000000" fill-rule="evenodd" fill-opacity="1" /><path clip-path="url(#clip480)" d="M 0 0 M56.4621 956.754 Q56.4621 961.465 60.1542 964.202 Q63.8145 966.94 70.212 966.94 Q76.6095 966.94 80.3017 964.234 Q83.9619 961.497 83.9619 956.754 Q83.9619 952.076 80.2698 949.338 Q76.5777 946.601 70.212 946.601 Q63.8781 946.601 60.186 949.338 Q56.4621 952.076 56.4621 956.754 M51.4968 956.754 Q51.4968 949.116 56.4621 944.755 Q61.4273 940.395 70.212 940.395 Q78.9649 940.395 83.9619 944.755 Q88.9272 949.116 88.9272 956.754 Q88.9272 964.425 83.9619 968.786 Q78.9649 973.114 70.212 973.114 Q61.4273 973.114 56.4621 968.786 Q51.4968 964.425 51.4968 956.754 Z" fill="#000000" fill-rule="evenodd" fill-opacity="1" /><path clip-path="url(#clip480)" d="M 0 0 M66.4881 904.619 L88.0042 904.619 L88.0042 910.476 L66.679 910.476 Q61.6183 910.476 59.1038 912.449 Q56.5894 914.423 56.5894 918.369 Q56.5894 923.112 59.6131 925.849 Q62.6368 928.586 67.8567 928.586 L88.0042 928.586 L88.0042 934.475 L52.3562 934.475 L52.3562 928.586 L57.8944 928.586 Q54.6797 926.486 53.0883 923.653 Q51.4968 920.788 51.4968 917.064 Q51.4968 910.921 55.3163 907.77 Q59.1038 904.619 66.4881 904.619 Z" fill="#000000" fill-rule="evenodd" fill-opacity="1" /><path clip-path="url(#clip480)" d="M 0 0 M53.7248 872.823 L59.1993 872.823 Q57.8307 875.305 57.1623 877.82 Q56.4621 880.302 56.4621 882.849 Q56.4621 888.546 60.0905 891.697 Q63.6872 894.848 70.212 894.848 Q76.7369 894.848 80.3653 891.697 Q83.9619 888.546 83.9619 882.849 Q83.9619 880.302 83.2935 877.82 Q82.5933 875.305 81.2247 872.823 L86.6355 872.823 Q87.7814 875.273 88.3543 877.915 Q88.9272 880.525 88.9272 883.485 Q88.9272 891.538 83.8664 896.28 Q78.8057 901.023 70.212 901.023 Q61.491 901.023 56.4939 896.248 Q51.4968 891.442 51.4968 883.103 Q51.4968 880.398 52.0697 877.82 Q52.6108 875.242 53.7248 872.823 Z" fill="#000000" fill-rule="evenodd" fill-opacity="1" /><path clip-path="url(#clip480)" d="M 0 0 M68.7161 836.188 L71.5806 836.188 L71.5806 863.115 Q77.6281 862.733 80.8109 859.486 Q83.9619 856.208 83.9619 850.384 Q83.9619 847.01 83.1344 843.859 Q82.3069 840.676 80.6518 837.557 L86.1899 837.557 Q87.5267 840.708 88.227 844.018 Q88.9272 847.328 88.9272 850.734 Q88.9272 859.264 83.9619 864.261 Q78.9967 869.226 70.5303 869.226 Q61.7774 869.226 56.6531 864.515 Q51.4968 859.773 51.4968 851.752 Q51.4968 844.559 56.1438 840.389 Q60.7589 836.188 68.7161 836.188 M66.9973 842.044 Q62.1912 842.108 59.3266 844.75 Q56.4621 847.36 56.4621 851.688 Q56.4621 856.59 59.2312 859.55 Q62.0002 862.478 67.0292 862.924 L66.9973 842.044 Z" fill="#000000" fill-rule="evenodd" fill-opacity="1" /><path clip-path="url(#clip480)" d="M 0 0 M66.4881 800.413 L88.0042 800.413 L88.0042 806.269 L66.679 806.269 Q61.6183 806.269 59.1038 808.243 Q56.5894 810.216 56.5894 814.163 Q56.5894 818.905 59.6131 821.642 Q62.6368 824.38 67.8567 824.38 L88.0042 824.38 L88.0042 830.268 L52.3562 830.268 L52.3562 824.38 L57.8944 824.38 Q54.6797 822.279 53.0883 819.446 Q51.4968 816.582 51.4968 812.858 Q51.4968 806.715 55.3163 803.564 Q59.1038 800.413 66.4881 800.413 Z" fill="#000000" fill-rule="evenodd" fill-opacity="1" /><path clip-path="url(#clip480)" d="M 0 0 M42.2347 788.477 L52.3562 788.477 L52.3562 776.414 L56.9077 776.414 L56.9077 788.477 L76.2594 788.477 Q80.6199 788.477 81.8613 787.299 Q83.1026 786.09 83.1026 782.43 L83.1026 776.414 L88.0042 776.414 L88.0042 782.43 Q88.0042 789.209 85.4897 791.787 Q82.9434 794.365 76.2594 794.365 L56.9077 794.365 L56.9077 798.662 L52.3562 798.662 L52.3562 794.365 L42.2347 794.365 L42.2347 788.477 Z" fill="#000000" fill-rule="evenodd" fill-opacity="1" /><path clip-path="url(#clip480)" d="M 0 0 M57.8307 749.614 Q57.2578 750.601 57.0032 751.779 Q56.7167 752.925 56.7167 754.325 Q56.7167 759.29 59.9632 761.964 Q63.1779 764.606 69.2253 764.606 L88.0042 764.606 L88.0042 770.494 L52.3562 770.494 L52.3562 764.606 L57.8944 764.606 Q54.6479 762.76 53.0883 759.8 Q51.4968 756.839 51.4968 752.606 Q51.4968 752.002 51.5923 751.269 Q51.656 750.537 51.8151 749.646 L57.8307 749.614 Z" fill="#000000" fill-rule="evenodd" fill-opacity="1" /><path clip-path="url(#clip480)" d="M 0 0 M70.0847 727.271 Q70.0847 734.369 71.7079 737.106 Q73.3312 739.843 77.2461 739.843 Q80.3653 739.843 82.2114 737.806 Q84.0256 735.737 84.0256 732.204 Q84.0256 727.334 80.5881 724.406 Q77.1188 721.446 71.3897 721.446 L70.0847 721.446 L70.0847 727.271 M67.6657 715.59 L88.0042 715.59 L88.0042 721.446 L82.5933 721.446 Q85.8398 723.451 87.3994 726.443 Q88.9272 729.435 88.9272 733.764 Q88.9272 739.238 85.8716 742.485 Q82.7843 745.699 77.6281 745.699 Q71.6125 745.699 68.5569 741.689 Q65.5014 737.647 65.5014 729.658 L65.5014 721.446 L64.9285 721.446 Q60.8862 721.446 58.6901 724.12 Q56.4621 726.761 56.4621 731.568 Q56.4621 734.623 57.1941 737.52 Q57.9262 740.416 59.3903 743.09 L53.9795 743.09 Q52.7381 739.875 52.1334 736.851 Q51.4968 733.827 51.4968 730.963 Q51.4968 723.229 55.5072 719.409 Q59.5176 715.59 67.6657 715.59 Z" fill="#000000" fill-rule="evenodd" fill-opacity="1" /><path clip-path="url(#clip480)" d="M 0 0 M42.2347 703.654 L52.3562 703.654 L52.3562 691.591 L56.9077 691.591 L56.9077 703.654 L76.2594 703.654 Q80.6199 703.654 81.8613 702.476 Q83.1026 701.267 83.1026 697.607 L83.1026 691.591 L88.0042 691.591 L88.0042 697.607 Q88.0042 704.386 85.4897 706.964 Q82.9434 709.542 76.2594 709.542 L56.9077 709.542 L56.9077 713.839 L52.3562 713.839 L52.3562 709.542 L42.2347 709.542 L42.2347 703.654 Z" fill="#000000" fill-rule="evenodd" fill-opacity="1" /><path clip-path="url(#clip480)" d="M 0 0 M52.3562 685.448 L52.3562 679.592 L88.0042 679.592 L88.0042 685.448 L52.3562 685.448 M38.479 685.448 L38.479 679.592 L45.895 679.592 L45.895 685.448 L38.479 685.448 Z" fill="#000000" fill-rule="evenodd" fill-opacity="1" /><path clip-path="url(#clip480)" d="M 0 0 M56.4621 659.635 Q56.4621 664.346 60.1542 667.083 Q63.8145 669.82 70.212 669.82 Q76.6095 669.82 80.3017 667.115 Q83.9619 664.378 83.9619 659.635 Q83.9619 654.956 80.2698 652.219 Q76.5777 649.482 70.212 649.482 Q63.8781 649.482 60.186 652.219 Q56.4621 654.956 56.4621 659.635 M51.4968 659.635 Q51.4968 651.996 56.4621 647.636 Q61.4273 643.275 70.212 643.275 Q78.9649 643.275 83.9619 647.636 Q88.9272 651.996 88.9272 659.635 Q88.9272 667.306 83.9619 671.666 Q78.9649 675.995 70.212 675.995 Q61.4273 675.995 56.4621 671.666 Q51.4968 667.306 51.4968 659.635 Z" fill="#000000" fill-rule="evenodd" fill-opacity="1" /><path clip-path="url(#clip480)" d="M 0 0 M66.4881 607.5 L88.0042 607.5 L88.0042 613.356 L66.679 613.356 Q61.6183 613.356 59.1038 615.33 Q56.5894 617.303 56.5894 621.25 Q56.5894 625.992 59.6131 628.73 Q62.6368 631.467 67.8567 631.467 L88.0042 631.467 L88.0042 637.355 L52.3562 637.355 L52.3562 631.467 L57.8944 631.467 Q54.6797 629.366 53.0883 626.533 Q51.4968 623.669 51.4968 619.945 Q51.4968 613.802 55.3163 610.651 Q59.1038 607.5 66.4881 607.5 Z" fill="#000000" fill-rule="evenodd" fill-opacity="1" /><path clip-path="url(#clip480)" d="M 0 0 M38.5426 566.568 Q45.8632 570.834 53.0246 572.902 Q60.186 574.971 67.5384 574.971 Q74.8908 574.971 82.1159 572.902 Q89.3091 570.802 96.5979 566.568 L96.5979 571.661 Q89.1182 576.435 81.8931 578.822 Q74.668 581.178 67.5384 581.178 Q60.4406 581.178 53.2474 578.822 Q46.0542 576.467 38.5426 571.661 L38.5426 566.568 Z" fill="#000000" fill-rule="evenodd" fill-opacity="1" /><path clip-path="url(#clip480)" d="M 0 0 M59.1993 532.671 Q55.2526 530.475 53.3747 527.419 Q51.4968 524.364 51.4968 520.226 Q51.4968 514.656 55.4117 511.632 Q59.2948 508.609 66.4881 508.609 L88.0042 508.609 L88.0042 514.497 L66.679 514.497 Q61.5546 514.497 59.072 516.311 Q56.5894 518.125 56.5894 521.849 Q56.5894 526.401 59.6131 529.043 Q62.6368 531.684 67.8567 531.684 L88.0042 531.684 L88.0042 537.573 L66.679 537.573 Q61.5228 537.573 59.072 539.387 Q56.5894 541.201 56.5894 544.989 Q56.5894 549.477 59.6449 552.118 Q62.6686 554.76 67.8567 554.76 L88.0042 554.76 L88.0042 560.648 L52.3562 560.648 L52.3562 554.76 L57.8944 554.76 Q54.616 552.755 53.0564 549.954 Q51.4968 547.153 51.4968 543.302 Q51.4968 539.419 53.4702 536.713 Q55.4436 533.976 59.1993 532.671 Z" fill="#000000" fill-rule="evenodd" fill-opacity="1" /><path clip-path="url(#clip480)" d="M 0 0 M56.4621 488.652 Q56.4621 493.363 60.1542 496.1 Q63.8145 498.837 70.212 498.837 Q76.6095 498.837 80.3017 496.132 Q83.9619 493.395 83.9619 488.652 Q83.9619 483.973 80.2698 481.236 Q76.5777 478.499 70.212 478.499 Q63.8781 478.499 60.186 481.236 Q56.4621 483.973 56.4621 488.652 M51.4968 488.652 Q51.4968 481.013 56.4621 476.653 Q61.4273 472.292 70.212 472.292 Q78.9649 472.292 83.9619 476.653 Q88.9272 481.013 88.9272 488.652 Q88.9272 496.323 83.9619 500.683 Q78.9649 505.012 70.212 505.012 Q61.4273 505.012 56.4621 500.683 Q51.4968 496.323 51.4968 488.652 Z" fill="#000000" fill-rule="evenodd" fill-opacity="1" /><path clip-path="url(#clip480)" d="M 0 0 M38.479 466.149 L38.479 460.293 L88.0042 460.293 L88.0042 466.149 L38.479 466.149 Z" fill="#000000" fill-rule="evenodd" fill-opacity="1" /><path clip-path="url(#clip480)" d="M 0 0 M40.4842 443.742 L40.4842 438.331 L94.0516 454.882 L94.0516 460.293 L40.4842 443.742 Z" fill="#000000" fill-rule="evenodd" fill-opacity="1" /><path clip-path="url(#clip480)" d="M 0 0 M59.1993 404.434 Q55.2526 402.238 53.3747 399.182 Q51.4968 396.127 51.4968 391.989 Q51.4968 386.419 55.4117 383.395 Q59.2948 380.372 66.4881 380.372 L88.0042 380.372 L88.0042 386.26 L66.679 386.26 Q61.5546 386.26 59.072 388.074 Q56.5894 389.888 56.5894 393.612 Q56.5894 398.164 59.6131 400.805 Q62.6368 403.447 67.8567 403.447 L88.0042 403.447 L88.0042 409.336 L66.679 409.336 Q61.5228 409.336 59.072 411.15 Q56.5894 412.964 56.5894 416.752 Q56.5894 421.239 59.6449 423.881 Q62.6686 426.523 67.8567 426.523 L88.0042 426.523 L88.0042 432.411 L52.3562 432.411 L52.3562 426.523 L57.8944 426.523 Q54.616 424.518 53.0564 421.717 Q51.4968 418.916 51.4968 415.065 Q51.4968 411.182 53.4702 408.476 Q55.4436 405.739 59.1993 404.434 Z" fill="#000000" fill-rule="evenodd" fill-opacity="1" /><path clip-path="url(#clip480)" d="M 0 0 M52.3562 363.693 Q52.9291 360.765 54.6797 359.174 Q56.3984 357.551 59.0084 357.551 Q62.9551 357.551 65.0876 360.574 Q67.2201 363.598 67.2201 369.232 Q67.2201 371.046 66.9018 373.051 Q66.5517 375.024 65.9152 377.252 L62.0639 377.252 Q62.9233 375.597 63.337 373.719 Q63.7508 371.81 63.7508 369.677 Q63.7508 366.208 62.5095 364.298 Q61.2364 362.388 59.0084 362.388 Q56.6531 362.388 55.4436 364.171 Q54.2341 365.921 54.2341 369.359 L54.2341 372.096 L50.7966 372.096 L50.7966 369.104 Q50.7966 366.112 49.8099 364.585 Q48.7914 363.025 46.8817 363.025 Q45.0356 363.025 44.0808 364.616 Q43.0941 366.208 43.0941 369.232 Q43.0941 370.505 43.3806 372.128 Q43.667 373.751 44.3991 376.329 L40.7388 376.329 Q40.1977 374.006 39.9112 371.969 Q39.6248 369.932 39.6248 368.181 Q39.6248 363.598 41.5027 360.924 Q43.3806 358.219 46.5316 358.219 Q48.7277 358.219 50.2555 359.651 Q51.7833 361.083 52.3562 363.693 Z" fill="#000000" fill-rule="evenodd" fill-opacity="1" /><path clip-path="url(#clip480)" d="M 0 0 M38.5426 352.331 L38.5426 347.238 Q46.0542 342.464 53.2474 340.108 Q60.4406 337.721 67.5384 337.721 Q74.668 337.721 81.8931 340.108 Q89.1182 342.464 96.5979 347.238 L96.5979 352.331 Q89.3091 348.097 82.1159 346.029 Q74.8908 343.928 67.5384 343.928 Q60.186 343.928 53.0246 346.029 Q45.8632 348.097 38.5426 352.331 Z" fill="#000000" fill-rule="evenodd" fill-opacity="1" /><path clip-path="url(#clip482)" d="
M931.913 1413.71 L1501.46 1413.71 L1501.46 37.7748 L931.913 37.7748 L931.913 1413.71  Z
  " fill="#f9f8f2" fill-rule="evenodd" fill-opacity="1"/>
<polyline clip-path="url(#clip482)" style="stroke:#000000; stroke-width:0; stroke-opacity:1; fill:none" points="
  931.913,1413.71 1501.46,1413.71 1501.46,37.7748 931.913,37.7748 931.913,1413.71 
  "/>
<polyline clip-path="url(#clip482)" style="stroke:#e26f46; stroke-width:4.4; stroke-opacity:1; fill:none" stroke-dasharray="2, 4" points="
  931.913,2799.12 931.913,-1328.69 
  "/>
<polyline clip-path="url(#clip482)" style="stroke:#e26f46; stroke-width:4.4; stroke-opacity:1; fill:none" stroke-dasharray="2, 4" points="
  1501.46,2799.12 1501.46,-1328.69 
  "/>
<polyline clip-path="url(#clip482)" style="stroke:#000000; stroke-width:4; stroke-opacity:1; fill:none" points="
  281.007,654.989 287.582,654.989 294.157,654.989 300.731,654.989 307.306,654.989 313.881,654.989 320.456,654.989 327.031,654.989 333.605,654.989 340.18,654.989 
  346.755,654.989 353.33,654.989 359.905,654.989 366.48,654.989 373.054,654.989 379.629,654.989 386.204,654.989 392.779,654.989 399.354,654.989 405.928,654.989 
  412.503,654.989 419.078,654.989 425.653,654.989 432.228,654.989 438.802,654.989 445.377,654.989 451.952,654.989 458.527,654.989 465.102,654.989 471.677,654.989 
  478.251,654.989 484.826,654.989 491.401,654.989 497.976,654.989 504.551,654.989 511.125,654.989 517.7,654.989 524.275,654.989 530.85,654.989 537.425,654.989 
  543.999,654.989 550.574,654.989 557.149,654.989 563.724,654.989 570.299,654.989 576.874,654.989 583.448,654.989 590.023,654.989 596.598,654.989 603.173,654.989 
  609.748,654.989 616.322,654.989 622.897,654.989 629.472,654.989 636.047,654.989 642.622,654.989 649.196,654.989 655.771,654.989 662.346,654.989 668.921,654.989 
  675.496,654.989 682.071,654.989 688.645,654.989 695.22,654.989 701.795,654.989 708.37,654.989 714.945,654.989 721.519,654.989 728.094,654.989 734.669,654.989 
  741.244,654.989 747.819,654.989 754.394,654.989 760.968,654.989 767.543,654.989 774.118,654.989 780.693,654.989 787.268,654.989 793.842,654.989 800.417,654.989 
  806.992,654.989 813.567,654.989 820.142,654.989 826.716,654.989 833.291,654.989 839.866,654.989 846.441,654.989 853.016,654.989 859.591,654.989 866.165,654.989 
  872.74,654.989 879.315,654.989 885.89,654.989 892.465,654.989 899.039,654.989 905.614,654.989 912.189,654.989 918.764,654.989 925.339,654.989 931.913,654.989 
  
  "/>
<polyline clip-path="url(#clip482)" style="stroke:#000000; stroke-width:4; stroke-opacity:1; fill:none" points="
  1501.46,654.989 1508.03,654.989 1514.61,654.989 1521.18,654.989 1527.76,654.989 1534.33,654.989 1540.91,654.989 1547.48,654.989 1554.06,654.989 1560.63,654.989 
  1567.2,654.989 1573.78,654.989 1580.35,654.989 1586.93,654.989 1593.5,654.989 1600.08,654.989 1606.65,654.989 1613.23,654.989 1619.8,654.989 1626.38,654.989 
  1632.95,654.989 1639.53,654.989 1646.1,654.989 1652.68,654.989 1659.25,654.989 1665.83,654.989 1672.4,654.989 1678.98,654.989 1685.55,654.989 1692.13,654.989 
  1698.7,654.989 1705.28,654.989 1711.85,654.989 1718.43,654.989 1725,654.989 1731.58,654.989 1738.15,654.989 1744.72,654.989 1751.3,654.989 1757.87,654.989 
  1764.45,654.989 1771.02,654.989 1777.6,654.989 1784.17,654.989 1790.75,654.989 1797.32,654.989 1803.9,654.989 1810.47,654.989 1817.05,654.989 1823.62,654.989 
  1830.2,654.989 1836.77,654.989 1843.35,654.989 1849.92,654.989 1856.5,654.989 1863.07,654.989 1869.65,654.989 1876.22,654.989 1882.8,654.989 1889.37,654.989 
  1895.95,654.989 1902.52,654.989 1909.1,654.989 1915.67,654.989 1922.24,654.989 1928.82,654.989 1935.39,654.989 1941.97,654.989 1948.54,654.989 1955.12,654.989 
  1961.69,654.989 1968.27,654.989 1974.84,654.989 1981.42,654.989 1987.99,654.989 1994.57,654.989 2001.14,654.989 2007.72,654.989 2014.29,654.989 2020.87,654.989 
  2027.44,654.989 2034.02,654.989 2040.59,654.989 2047.17,654.989 2053.74,654.989 2060.32,654.989 2066.89,654.989 2073.47,654.989 2080.04,654.989 2086.62,654.989 
  2093.19,654.989 2099.76,654.989 2106.34,654.989 2112.91,654.989 2119.49,654.989 2126.06,654.989 2132.64,654.989 2139.21,654.989 2145.79,654.989 2152.36,654.989 
  
  "/>
<polyline clip-path="url(#clip482)" style="stroke:#000000; stroke-width:4; stroke-opacity:1; fill:none" stroke-dasharray="16, 10" points="
  931.913,654.989 946.517,654.989 961.121,654.989 975.724,654.989 990.328,654.989 1004.93,654.989 1019.54,654.989 1034.14,654.989 1048.74,654.989 1063.35,654.989 
  1077.95,654.989 1092.55,654.989 1107.16,654.989 1121.76,654.989 1136.36,654.989 1150.97,654.989 1165.57,654.989 1180.18,654.989 1194.78,654.989 1209.38,654.989 
  1223.99,654.989 1238.59,654.989 1253.19,654.989 1267.8,654.989 1282.4,654.989 1297.01,654.989 1311.61,654.989 1326.21,654.989 1340.82,654.989 1355.42,654.989 
  1370.02,654.989 1384.63,654.989 1399.23,654.989 1413.83,654.989 1428.44,654.989 1443.04,654.989 1457.65,654.989 1472.25,654.989 1486.85,654.989 1501.46,654.989 
  
  "/>
<polyline clip-path="url(#clip482)" style="stroke:#000000; stroke-width:4; stroke-opacity:1; fill:none" points="
  281.007,654.989 287.582,655.083 294.157,655.177 300.731,655.272 307.306,655.369 313.881,655.467 320.456,655.568 327.031,655.672 333.605,655.779 340.18,655.891 
  346.755,656.006 353.33,656.127 359.905,656.253 366.48,656.386 373.054,656.525 379.629,656.671 386.204,656.826 392.779,656.989 399.354,657.161 405.928,657.343 
  412.503,657.535 419.078,657.739 425.653,657.955 432.228,658.183 438.802,658.425 445.377,658.681 451.952,658.952 458.527,659.24 465.102,659.544 471.677,659.866 
  478.251,660.206 484.826,660.566 491.401,660.947 497.976,661.35 504.551,661.775 511.125,662.224 517.7,662.698 524.275,663.198 530.85,663.726 537.425,664.281 
  543.999,664.866 550.574,665.483 557.149,666.131 563.724,666.813 570.299,667.529 576.874,668.282 583.448,669.073 590.023,669.902 596.598,670.772 603.173,671.684 
  609.748,672.639 616.322,673.639 622.897,674.685 629.472,675.78 636.047,676.924 642.622,678.119 649.196,679.367 655.771,680.669 662.346,682.027 668.921,683.442 
  675.496,684.917 682.071,686.453 688.645,688.051 695.22,689.713 701.795,691.44 708.37,693.236 714.945,695.1 721.519,697.034 728.094,699.041 734.669,701.122 
  741.244,703.277 747.819,705.51 754.394,707.821 760.968,710.212 767.543,712.685 774.118,715.24 780.693,717.879 787.268,720.604 793.842,723.416 800.417,726.316 
  806.992,729.306 813.567,732.386 820.142,735.559 826.716,738.824 833.291,742.183 839.866,745.638 846.441,749.189 853.016,752.836 859.591,756.581 866.165,760.425 
  872.74,764.369 879.315,768.412 885.89,772.556 892.465,776.801 899.039,781.148 905.614,785.596 912.189,790.147 918.764,794.801 925.339,799.557 931.913,804.416 
  
  "/>
<polyline clip-path="url(#clip482)" style="stroke:#000000; stroke-width:4; stroke-opacity:1; fill:none" points="
  1501.46,505.562 1508.03,510.421 1514.61,515.178 1521.18,519.831 1527.76,524.382 1534.33,528.831 1540.91,533.177 1547.48,537.422 1554.06,541.566 1560.63,545.61 
  1567.2,549.553 1573.78,553.397 1580.35,557.142 1586.93,560.79 1593.5,564.34 1600.08,567.795 1606.65,571.154 1613.23,574.42 1619.8,577.592 1626.38,580.672 
  1632.95,583.662 1639.53,586.562 1646.1,589.374 1652.68,592.099 1659.25,594.738 1665.83,597.294 1672.4,599.766 1678.98,602.157 1685.55,604.468 1692.13,606.701 
  1698.7,608.857 1705.28,610.937 1711.85,612.944 1718.43,614.879 1725,616.743 1731.58,618.538 1738.15,620.266 1744.72,621.928 1751.3,623.526 1757.87,625.061 
  1764.45,626.536 1771.02,627.952 1777.6,629.31 1784.17,630.612 1790.75,631.86 1797.32,633.055 1803.9,634.199 1810.47,635.293 1817.05,636.339 1823.62,637.34 
  1830.2,638.295 1836.77,639.206 1843.35,640.076 1849.92,640.906 1856.5,641.696 1863.07,642.449 1869.65,643.166 1876.22,643.847 1882.8,644.496 1889.37,645.112 
  1895.95,645.697 1902.52,646.253 1909.1,646.78 1915.67,647.28 1922.24,647.754 1928.82,648.203 1935.39,648.628 1941.97,649.031 1948.54,649.412 1955.12,649.772 
  1961.69,650.113 1968.27,650.435 1974.84,650.739 1981.42,651.026 1987.99,651.297 1994.57,651.553 2001.14,651.795 2007.72,652.024 2014.29,652.239 2020.87,652.443 
  2027.44,652.636 2034.02,652.818 2040.59,652.99 2047.17,653.152 2053.74,653.307 2060.32,653.453 2066.89,653.592 2073.47,653.725 2080.04,653.851 2086.62,653.972 
  2093.19,654.088 2099.76,654.199 2106.34,654.306 2112.91,654.41 2119.49,654.511 2126.06,654.609 2132.64,654.706 2139.21,654.801 2145.79,654.895 2152.36,654.989 
  
  "/>
<polyline clip-path="url(#clip482)" style="stroke:#000000; stroke-width:4; stroke-opacity:1; fill:none" stroke-dasharray="16, 10" points="
  931.913,804.416 946.517,787.511 961.121,771.938 975.724,757.68 990.328,744.69 1004.93,732.92 1019.54,722.31 1034.14,712.798 1048.74,704.31 1063.35,696.771 
  1077.95,690.102 1092.55,684.218 1107.16,679.035 1121.76,674.467 1136.36,670.426 1150.97,666.827 1165.57,663.582 1180.18,660.607 1194.78,657.818 1209.38,655.132 
  1223.99,652.465 1238.59,649.736 1253.19,646.866 1267.8,643.773 1282.4,640.38 1297.01,636.607 1311.61,632.376 1326.21,627.613 1340.82,622.243 1355.42,616.192 
  1370.02,609.393 1384.63,601.779 1399.23,593.29 1413.83,583.87 1428.44,573.469 1443.04,562.044 1457.65,549.563 1472.25,535.998 1486.85,521.33 1501.46,505.562 
  
  "/>
<polyline clip-path="url(#clip482)" style="stroke:#000000; stroke-width:4; stroke-opacity:1; fill:none" points="
  281.007,654.989 287.582,656.345 294.157,657.702 300.731,659.06 307.306,660.42 313.881,661.784 320.456,663.151 327.031,664.523 333.605,665.901 340.18,667.286 
  346.755,668.679 353.33,670.08 359.905,671.49 366.48,672.91 373.054,674.342 379.629,675.786 386.204,677.242 392.779,678.712 399.354,680.197 405.928,681.697 
  412.503,683.214 419.078,684.748 425.653,686.3 432.228,687.871 438.802,689.461 445.377,691.073 451.952,692.705 458.527,694.36 465.102,696.038 471.677,697.74 
  478.251,699.467 484.826,701.219 491.401,702.998 497.976,704.804 504.551,706.637 511.125,708.5 517.7,710.392 524.275,712.314 530.85,714.268 537.425,716.253 
  543.999,718.271 550.574,720.323 557.149,722.408 563.724,724.528 570.299,726.684 576.874,728.876 583.448,731.105 590.023,733.372 596.598,735.678 603.173,738.022 
  609.748,740.406 616.322,742.831 622.897,745.296 629.472,747.804 636.047,750.354 642.622,752.946 649.196,755.583 655.771,758.264 662.346,760.989 668.921,763.76 
  675.496,766.577 682.071,769.44 688.645,772.351 695.22,775.309 701.795,778.316 708.37,781.371 714.945,784.475 721.519,787.629 728.094,790.833 734.669,794.088 
  741.244,797.394 747.819,800.751 754.394,804.161 760.968,807.623 767.543,811.137 774.118,814.705 780.693,818.326 787.268,822.002 793.842,825.731 800.417,829.515 
  806.992,833.354 813.567,837.248 820.142,841.197 826.716,845.203 833.291,849.264 839.866,853.382 846.441,857.555 853.016,861.786 859.591,866.074 866.165,870.418 
  872.74,874.82 879.315,879.279 885.89,883.796 892.465,888.37 899.039,893.002 905.614,897.692 912.189,902.439 918.764,907.245 925.339,912.109 931.913,917.03 
  
  "/>
<polyline clip-path="url(#clip482)" style="stroke:#000000; stroke-width:4; stroke-opacity:1; fill:none" points="
  1501.46,392.948 1508.03,397.87 1514.61,402.733 1521.18,407.539 1527.76,412.286 1534.33,416.976 1540.91,421.608 1547.48,426.182 1554.06,430.699 1560.63,435.158 
  1567.2,439.56 1573.78,443.905 1580.35,448.192 1586.93,452.423 1593.5,456.597 1600.08,460.714 1606.65,464.776 1613.23,468.781 1619.8,472.73 1626.38,476.624 
  1632.95,480.463 1639.53,484.247 1646.1,487.977 1652.68,491.652 1659.25,495.273 1665.83,498.841 1672.4,502.356 1678.98,505.817 1685.55,509.227 1692.13,512.584 
  1698.7,515.89 1705.28,519.145 1711.85,522.349 1718.43,525.503 1725,528.608 1731.58,531.663 1738.15,534.669 1744.72,537.627 1751.3,540.538 1757.87,543.401 
  1764.45,546.218 1771.02,548.989 1777.6,551.715 1784.17,554.395 1790.75,557.032 1797.32,559.625 1803.9,562.174 1810.47,564.682 1817.05,567.148 1823.62,569.572 
  1830.2,571.956 1836.77,574.301 1843.35,576.606 1849.92,578.873 1856.5,581.102 1863.07,583.294 1869.65,585.45 1876.22,587.57 1882.8,589.656 1889.37,591.707 
  1895.95,593.725 1902.52,595.71 1909.1,597.664 1915.67,599.586 1922.24,601.478 1928.82,603.341 1935.39,605.175 1941.97,606.98 1948.54,608.759 1955.12,610.511 
  1961.69,612.238 1968.27,613.94 1974.84,615.618 1981.42,617.273 1987.99,618.906 1994.57,620.517 2001.14,622.107 2007.72,623.678 2014.29,625.23 2020.87,626.764 
  2027.44,628.281 2034.02,629.781 2040.59,631.266 2047.17,632.736 2053.74,634.193 2060.32,635.636 2066.89,637.068 2073.47,638.488 2080.04,639.899 2086.62,641.3 
  2093.19,642.692 2099.76,644.077 2106.34,645.455 2112.91,646.827 2119.49,648.195 2126.06,649.558 2132.64,650.918 2139.21,652.276 2145.79,653.633 2152.36,654.989 
  
  "/>
<polyline clip-path="url(#clip482)" style="stroke:#000000; stroke-width:4; stroke-opacity:1; fill:none" stroke-dasharray="16, 10" points="
  931.913,917.03 946.517,897.447 961.121,878.686 975.724,860.723 990.328,843.523 1004.93,827.051 1019.54,811.27 1034.14,796.143 1048.74,781.63 1063.35,767.688 
  1077.95,754.276 1092.55,741.349 1107.16,728.862 1121.76,716.767 1136.36,705.02 1150.97,693.57 1165.57,682.372 1180.18,671.375 1194.78,660.533 1209.38,649.796 
  1223.99,639.118 1238.59,628.451 1253.19,617.749 1267.8,606.967 1282.4,596.06 1297.01,584.986 1311.61,573.704 1326.21,562.175 1340.82,550.36 1355.42,538.224 
  1370.02,525.733 1384.63,512.857 1399.23,499.565 1413.83,485.831 1428.44,471.63 1443.04,456.941 1457.65,441.744 1472.25,426.023 1486.85,409.759 1501.46,392.948 
  
  "/>
<polyline clip-path="url(#clip482)" style="stroke:#000000; stroke-width:4; stroke-opacity:1; fill:none" points="
  281.007,654.989 287.582,659.084 294.157,663.177 300.731,667.269 307.306,671.36 313.881,675.452 320.456,679.543 327.031,683.634 333.605,687.725 340.18,691.817 
  346.755,695.91 353.33,700.005 359.905,704.1 366.48,708.198 373.054,712.297 379.629,716.399 386.204,720.503 392.779,724.61 399.354,728.72 405.928,732.833 
  412.503,736.95 419.078,741.071 425.653,745.195 432.228,749.324 438.802,753.458 445.377,757.596 451.952,761.74 458.527,765.888 465.102,770.042 471.677,774.202 
  478.251,778.368 484.826,782.541 491.401,786.719 497.976,790.905 504.551,795.097 511.125,799.297 517.7,803.504 524.275,807.718 530.85,811.941 537.425,816.171 
  543.999,820.41 550.574,824.658 557.149,828.914 563.724,833.179 570.299,837.453 576.874,841.736 583.448,846.029 590.023,850.332 596.598,854.644 603.173,858.967 
  609.748,863.3 616.322,867.644 622.897,871.998 629.472,876.363 636.047,880.739 642.622,885.127 649.196,889.525 655.771,893.936 662.346,898.358 668.921,902.792 
  675.496,907.238 682.071,911.696 688.645,916.166 695.22,920.649 701.795,925.145 708.37,929.653 714.945,934.174 721.519,938.709 728.094,943.256 734.669,947.817 
  741.244,952.391 747.819,956.979 754.394,961.58 760.968,966.196 767.543,970.825 774.118,975.468 780.693,980.125 787.268,984.796 793.842,989.482 800.417,994.181 
  806.992,998.896 813.567,1003.62 820.142,1008.37 826.716,1013.13 833.291,1017.9 839.866,1022.69 846.441,1027.49 853.016,1032.31 859.591,1037.14 866.165,1041.99 
  872.74,1046.85 879.315,1051.73 885.89,1056.62 892.465,1061.53 899.039,1066.45 905.614,1071.39 912.189,1076.34 918.764,1081.31 925.339,1086.29 931.913,1091.29 
  
  "/>
<polyline clip-path="url(#clip482)" style="stroke:#000000; stroke-width:4; stroke-opacity:1; fill:none" points="
  1501.46,218.685 1508.03,223.685 1514.61,228.668 1521.18,233.637 1527.76,238.591 1534.33,243.529 1540.91,248.452 1547.48,253.36 1554.06,258.252 1560.63,263.13 
  1567.2,267.992 1573.78,272.84 1580.35,277.672 1586.93,282.489 1593.5,287.292 1600.08,292.079 1606.65,296.852 1613.23,301.61 1619.8,306.354 1626.38,311.083 
  1632.95,315.797 1639.53,320.497 1646.1,325.182 1652.68,329.854 1659.25,334.511 1665.83,339.154 1672.4,343.783 1678.98,348.398 1685.55,352.999 1692.13,357.587 
  1698.7,362.161 1705.28,366.722 1711.85,371.269 1718.43,375.804 1725,380.325 1731.58,384.833 1738.15,389.329 1744.72,393.812 1751.3,398.282 1757.87,402.741 
  1764.45,407.187 1771.02,411.62 1777.6,416.043 1784.17,420.453 1790.75,424.852 1797.32,429.239 1803.9,433.615 1810.47,437.98 1817.05,442.334 1823.62,446.678 
  1830.2,451.011 1836.77,455.334 1843.35,459.647 1849.92,463.949 1856.5,468.242 1863.07,472.526 1869.65,476.8 1876.22,481.065 1882.8,485.321 1889.37,489.568 
  1895.95,493.807 1902.52,498.037 1909.1,502.26 1915.67,506.475 1922.24,510.682 1928.82,514.881 1935.39,519.073 1941.97,523.259 1948.54,527.438 1955.12,531.61 
  1961.69,535.776 1968.27,539.936 1974.84,544.09 1981.42,548.239 1987.99,552.382 1994.57,556.52 2001.14,560.654 2007.72,564.783 2014.29,568.907 2020.87,573.028 
  2027.44,577.145 2034.02,581.258 2040.59,585.368 2047.17,589.475 2053.74,593.579 2060.32,597.681 2066.89,601.78 2073.47,605.878 2080.04,609.974 2086.62,614.068 
  2093.19,618.161 2099.76,622.253 2106.34,626.345 2112.91,630.436 2119.49,634.527 2126.06,638.618 2132.64,642.709 2139.21,646.802 2145.79,650.895 2152.36,654.989 
  
  "/>
<polyline clip-path="url(#clip482)" style="stroke:#000000; stroke-width:4; stroke-opacity:1; fill:none" stroke-dasharray="16, 10" points="
  931.913,1091.29 946.517,1063.49 961.121,1036.13 975.724,1009.19 990.328,982.679 1004.93,956.573 1019.54,930.862 1034.14,905.534 1048.74,880.576 1063.35,855.975 
  1077.95,831.718 1092.55,807.792 1107.16,784.183 1121.76,760.877 1136.36,737.86 1150.97,715.119 1165.57,692.64 1180.18,670.409 1194.78,648.411 1209.38,626.634 
  1223.99,605.063 1238.59,583.685 1253.19,562.487 1267.8,541.457 1282.4,520.58 1297.01,499.846 1311.61,479.242 1326.21,458.756 1340.82,438.378 1355.42,418.097 
  1370.02,397.902 1384.63,377.785 1399.23,357.736 1413.83,337.746 1428.44,317.809 1443.04,297.917 1457.65,278.064 1472.25,258.245 1486.85,238.452 1501.46,218.685 
  
  "/>
<path clip-path="url(#clip480)" d="M 0 0 M714.684 597.103 L714.684 606.305 L725.651 606.305 L725.651 610.442 L714.684 610.442 L714.684 628.035 Q714.684 631.999 715.755 633.128 Q716.855 634.256 720.182 634.256 L725.651 634.256 L725.651 638.712 L720.182 638.712 Q714.019 638.712 711.675 636.426 Q709.331 634.111 709.331 628.035 L709.331 610.442 L705.425 610.442 L705.425 606.305 L709.331 606.305 L709.331 597.103 L714.684 597.103 Z" fill="#000000" fill-rule="evenodd" fill-opacity="1" /><path clip-path="url(#clip480)" d="M 0 0 M732.595 631.362 L738.7 631.362 L738.7 638.712 L732.595 638.712 L732.595 631.362 M732.595 608.07 L738.7 608.07 L738.7 615.419 L732.595 615.419 L732.595 608.07 Z" fill="#000000" fill-rule="evenodd" fill-opacity="1" /><path clip-path="url(#clip480)" d="M 0 0 M776.374 599.36 Q771.86 599.36 769.574 603.816 Q767.317 608.243 767.317 617.155 Q767.317 626.038 769.574 630.494 Q771.86 634.921 776.374 634.921 Q780.917 634.921 783.174 630.494 Q785.46 626.038 785.46 617.155 Q785.46 608.243 783.174 603.816 Q780.917 599.36 776.374 599.36 M776.374 594.731 Q783.637 594.731 787.456 600.489 Q791.304 606.218 791.304 617.155 Q791.304 628.064 787.456 633.822 Q783.637 639.551 776.374 639.551 Q769.111 639.551 765.263 633.822 Q761.443 628.064 761.443 617.155 Q761.443 606.218 765.263 600.489 Q769.111 594.731 776.374 594.731 Z" fill="#000000" fill-rule="evenodd" fill-opacity="1" /><path clip-path="url(#clip480)" d="M 0 0 M797.641 631.362 L803.746 631.362 L803.746 638.712 L797.641 638.712 L797.641 631.362 Z" fill="#000000" fill-rule="evenodd" fill-opacity="1" /><path clip-path="url(#clip480)" d="M 0 0 M822.583 599.36 Q818.069 599.36 815.783 603.816 Q813.526 608.243 813.526 617.155 Q813.526 626.038 815.783 630.494 Q818.069 634.921 822.583 634.921 Q827.126 634.921 829.383 630.494 Q831.669 626.038 831.669 617.155 Q831.669 608.243 829.383 603.816 Q827.126 599.36 822.583 599.36 M822.583 594.731 Q829.846 594.731 833.665 600.489 Q837.514 606.218 837.514 617.155 Q837.514 628.064 833.665 633.822 Q829.846 639.551 822.583 639.551 Q815.32 639.551 811.472 633.822 Q807.653 628.064 807.653 617.155 Q807.653 606.218 811.472 600.489 Q815.32 594.731 822.583 594.731 Z" fill="#000000" fill-rule="evenodd" fill-opacity="1" /><path clip-path="url(#clip480)" d="M 0 0 M863.758 607.26 L863.758 612.294 Q861.501 611.137 859.07 610.558 Q856.64 609.979 854.036 609.979 Q850.071 609.979 848.075 611.195 Q846.107 612.41 846.107 614.841 Q846.107 616.692 847.525 617.763 Q848.943 618.805 853.225 619.76 L855.048 620.165 Q860.72 621.38 863.092 623.608 Q865.494 625.807 865.494 629.771 Q865.494 634.285 861.906 636.918 Q858.347 639.551 852.097 639.551 Q849.493 639.551 846.657 639.03 Q843.85 638.538 840.725 637.526 L840.725 632.028 Q843.677 633.562 846.541 634.343 Q849.406 635.095 852.213 635.095 Q855.974 635.095 858 633.822 Q860.025 632.52 860.025 630.176 Q860.025 628.006 858.549 626.849 Q857.103 625.691 852.155 624.621 L850.303 624.187 Q845.355 623.145 843.156 621.004 Q840.957 618.834 840.957 615.072 Q840.957 610.5 844.198 608.012 Q847.438 605.523 853.399 605.523 Q856.35 605.523 858.954 605.958 Q861.559 606.392 863.758 607.26 Z" fill="#000000" fill-rule="evenodd" fill-opacity="1" /><path clip-path="url(#clip480)" d="M 0 0 M725.948 872.972 L720.67 880.509 L729.653 886.799 L727.28 890.188 L718.297 883.898 L708.206 898.309 Q705.933 901.556 706.162 903.095 Q706.416 904.65 709.141 906.558 L713.621 909.695 L711.065 913.345 L706.586 910.209 Q701.537 906.674 700.928 903.457 Q700.336 900.216 703.821 895.239 L713.912 880.828 L710.712 878.587 L713.086 875.198 L716.285 877.438 L721.563 869.901 L725.948 872.972 Z" fill="#000000" fill-rule="evenodd" fill-opacity="1" /><path clip-path="url(#clip480)" d="M 0 0 M720.969 911.308 L725.971 914.81 L721.755 920.83 L716.754 917.328 L720.969 911.308 M734.329 892.228 L739.331 895.73 L735.115 901.75 L730.114 898.248 L734.329 892.228 Z" fill="#000000" fill-rule="evenodd" fill-opacity="1" /><path clip-path="url(#clip480)" d="M 0 0 M749.321 934.128 L766.032 945.828 L763.21 949.858 L740.74 934.124 L743.562 930.095 Q748.263 929.183 756.275 927.728 Q764.328 926.267 766.499 925.739 Q770.607 924.765 772.752 923.618 Q774.938 922.464 776.15 920.734 Q778.125 917.913 777.378 914.741 Q776.656 911.586 773.48 909.362 Q771.228 907.786 768.168 906.808 Q765.132 905.848 761.175 905.444 L764.561 900.609 Q768.266 901.473 771.193 902.639 Q774.121 903.806 776.206 905.266 Q781.705 909.117 783.051 914.157 Q784.397 919.196 781.177 923.795 Q779.65 925.975 777.443 927.362 Q775.276 928.741 771.261 929.885 Q770.187 930.158 764.704 931.228 Q759.237 932.275 749.321 934.128 Z" fill="#000000" fill-rule="evenodd" fill-opacity="1" /><path clip-path="url(#clip480)" d="M 0 0 M801.211 928.427 Q797.514 925.838 793.086 928.177 Q788.698 930.509 783.586 937.809 Q778.491 945.086 777.784 950.03 Q777.117 954.968 780.814 957.557 Q784.536 960.162 788.924 957.831 Q793.352 955.492 798.447 948.215 Q803.559 940.915 804.226 935.977 Q804.933 931.032 801.211 928.427 M803.867 924.634 Q809.816 928.8 809.642 935.708 Q809.508 942.608 803.235 951.567 Q796.978 960.503 790.523 963.013 Q784.108 965.515 778.159 961.349 Q772.21 957.183 772.343 950.283 Q772.517 943.376 778.774 934.44 Q785.048 925.48 791.463 922.978 Q797.918 920.469 803.867 924.634 Z" fill="#000000" fill-rule="evenodd" fill-opacity="1" /><path clip-path="url(#clip480)" d="M 0 0 M800.277 966.84 L805.278 970.342 L801.063 976.362 L796.061 972.86 L800.277 966.84 Z" fill="#000000" fill-rule="evenodd" fill-opacity="1" /><path clip-path="url(#clip480)" d="M 0 0 M839.064 954.931 Q835.366 952.342 830.938 954.681 Q826.55 957.013 821.438 964.314 Q816.343 971.59 815.636 976.535 Q814.969 981.472 818.667 984.061 Q822.388 986.667 826.776 984.335 Q831.204 981.996 836.3 974.72 Q841.411 967.419 842.078 962.482 Q842.785 957.537 839.064 954.931 M841.719 951.139 Q847.669 955.305 847.495 962.212 Q847.361 969.113 841.087 978.072 Q834.83 987.008 828.375 989.517 Q821.961 992.019 816.011 987.854 Q810.062 983.688 810.196 976.788 Q810.37 969.88 816.627 960.944 Q822.9 951.985 829.315 949.483 Q835.77 946.973 841.719 951.139 Z" fill="#000000" fill-rule="evenodd" fill-opacity="1" /><path clip-path="url(#clip480)" d="M 0 0 M868.261 985.019 L865.373 989.143 Q864.189 986.9 862.529 985.032 Q860.87 983.164 858.737 981.67 Q855.49 979.397 853.158 979.247 Q850.849 979.114 849.455 981.105 Q848.392 982.622 848.94 984.312 Q849.504 985.979 852.464 989.217 L853.725 990.594 Q857.673 994.843 858.339 998.029 Q859.045 1001.21 856.771 1004.45 Q854.182 1008.15 849.733 1008.25 Q845.307 1008.37 840.188 1004.78 Q838.054 1003.29 836.03 1001.24 Q834.013 999.223 832.034 996.601 L835.188 992.097 Q836.726 995.046 838.624 997.329 Q840.539 999.588 842.838 1001.2 Q845.92 1003.36 848.309 1003.47 Q850.715 1003.57 852.059 1001.65 Q853.304 999.872 852.759 998.078 Q852.238 996.3 848.799 992.585 L847.531 991.167 Q844.075 987.476 843.502 984.461 Q842.945 981.422 845.103 978.34 Q847.725 974.595 851.807 974.416 Q855.889 974.236 860.772 977.655 Q863.189 979.348 865.073 981.197 Q866.958 983.046 868.261 985.019 Z" fill="#000000" fill-rule="evenodd" fill-opacity="1" /><path clip-path="url(#clip480)" d="
M224.866 1423.18 L2208.5 1423.18 L2208.5 47.2441 L224.866 47.2441  Z
  " fill="#000000" fill-rule="evenodd" fill-opacity="0"/>
<polyline clip-path="url(#clip480)" style="stroke:#000000; stroke-width:4; stroke-opacity:1; fill:none" points="
  224.866,1423.18 2208.5,1423.18 
  "/>
<polyline clip-path="url(#clip480)" style="stroke:#000000; stroke-width:4; stroke-opacity:1; fill:none" points="
  2208.5,1423.18 2208.5,47.2441 
  "/>
<polyline clip-path="url(#clip480)" style="stroke:#000000; stroke-width:4; stroke-opacity:1; fill:none" points="
  2208.5,1216.85 2184.7,1216.85 
  "/>
<polyline clip-path="url(#clip480)" style="stroke:#000000; stroke-width:4; stroke-opacity:1; fill:none" points="
  2208.5,924.448 2184.7,924.448 
  "/>
<polyline clip-path="url(#clip480)" style="stroke:#000000; stroke-width:4; stroke-opacity:1; fill:none" points="
  2208.5,632.046 2184.7,632.046 
  "/>
<polyline clip-path="url(#clip480)" style="stroke:#000000; stroke-width:4; stroke-opacity:1; fill:none" points="
  2208.5,339.645 2184.7,339.645 
  "/>
<polyline clip-path="url(#clip480)" style="stroke:#000000; stroke-width:4; stroke-opacity:1; fill:none" points="
  2208.5,47.2441 2184.7,47.2441 
  "/>
<path clip-path="url(#clip480)" d="M 0 0 M2260.11 1203.64 L2248.3 1222.09 L2260.11 1222.09 L2260.11 1203.64 M2258.88 1199.57 L2264.76 1199.57 L2264.76 1222.09 L2269.69 1222.09 L2269.69 1225.98 L2264.76 1225.98 L2264.76 1234.13 L2260.11 1234.13 L2260.11 1225.98 L2244.5 1225.98 L2244.5 1221.47 L2258.88 1199.57 Z" fill="#000000" fill-rule="evenodd" fill-opacity="1" /><path clip-path="url(#clip480)" d="M 0 0 M2245.96 907.168 L2264.32 907.168 L2264.32 911.103 L2250.24 911.103 L2250.24 919.575 Q2251.26 919.228 2252.28 919.066 Q2253.3 918.88 2254.32 918.88 Q2260.11 918.88 2263.49 922.052 Q2266.86 925.223 2266.86 930.64 Q2266.86 936.218 2263.39 939.32 Q2259.92 942.399 2253.6 942.399 Q2251.43 942.399 2249.16 942.028 Q2246.91 941.658 2244.5 940.917 L2244.5 936.218 Q2246.59 937.353 2248.81 937.908 Q2251.03 938.464 2253.51 938.464 Q2257.51 938.464 2259.85 936.357 Q2262.19 934.251 2262.19 930.64 Q2262.19 927.029 2259.85 924.922 Q2257.51 922.816 2253.51 922.816 Q2251.63 922.816 2249.76 923.232 Q2247.91 923.649 2245.96 924.529 L2245.96 907.168 Z" fill="#000000" fill-rule="evenodd" fill-opacity="1" /><path clip-path="url(#clip480)" d="M 0 0 M2256.84 630.183 Q2253.69 630.183 2251.84 632.336 Q2250.01 634.489 2250.01 638.238 Q2250.01 641.965 2251.84 644.141 Q2253.69 646.294 2256.84 646.294 Q2259.99 646.294 2261.82 644.141 Q2263.67 641.965 2263.67 638.238 Q2263.67 634.489 2261.82 632.336 Q2259.99 630.183 2256.84 630.183 M2266.12 615.53 L2266.12 619.79 Q2264.36 618.956 2262.56 618.516 Q2260.78 618.077 2259.02 618.077 Q2254.39 618.077 2251.93 621.202 Q2249.5 624.327 2249.16 630.646 Q2250.52 628.632 2252.58 627.567 Q2254.64 626.479 2257.12 626.479 Q2262.33 626.479 2265.34 629.651 Q2268.37 632.799 2268.37 638.238 Q2268.37 643.563 2265.22 646.78 Q2262.07 649.998 2256.84 649.998 Q2250.85 649.998 2247.68 645.414 Q2244.5 640.808 2244.5 632.081 Q2244.5 623.887 2248.39 619.026 Q2252.28 614.141 2258.83 614.141 Q2260.59 614.141 2262.37 614.489 Q2264.18 614.836 2266.12 615.53 Z" fill="#000000" fill-rule="evenodd" fill-opacity="1" /><path clip-path="url(#clip480)" d="M 0 0 M2244.5 322.365 L2266.73 322.365 L2266.73 324.356 L2254.18 356.925 L2249.3 356.925 L2261.1 326.3 L2244.5 326.3 L2244.5 322.365 Z" fill="#000000" fill-rule="evenodd" fill-opacity="1" /><path clip-path="url(#clip480)" d="M 0 0 M2256.36 48.1121 Q2253.02 48.1121 2251.1 49.8945 Q2249.2 51.6769 2249.2 54.8019 Q2249.2 57.9269 2251.1 59.7093 Q2253.02 61.4917 2256.36 61.4917 Q2259.69 61.4917 2261.61 59.7093 Q2263.53 57.9038 2263.53 54.8019 Q2263.53 51.6769 2261.61 49.8945 Q2259.71 48.1121 2256.36 48.1121 M2251.68 46.1214 Q2248.67 45.3807 2246.98 43.3205 Q2245.31 41.2603 2245.31 38.2974 Q2245.31 34.1539 2248.25 31.7465 Q2251.22 29.3391 2256.36 29.3391 Q2261.52 29.3391 2264.46 31.7465 Q2267.4 34.1539 2267.4 38.2974 Q2267.4 41.2603 2265.71 43.3205 Q2264.04 45.3807 2261.05 46.1214 Q2264.43 46.9084 2266.31 49.2001 Q2268.21 51.4918 2268.21 54.8019 Q2268.21 59.825 2265.13 62.5102 Q2262.07 65.1954 2256.36 65.1954 Q2250.64 65.1954 2247.56 62.5102 Q2244.5 59.825 2244.5 54.8019 Q2244.5 51.4918 2246.4 49.2001 Q2248.3 46.9084 2251.68 46.1214 M2249.97 38.7372 Q2249.97 41.4224 2251.63 42.927 Q2253.32 44.4316 2256.36 44.4316 Q2259.36 44.4316 2261.05 42.927 Q2262.77 41.4224 2262.77 38.7372 Q2262.77 36.052 2261.05 34.5474 Q2259.36 33.0428 2256.36 33.0428 Q2253.32 33.0428 2251.63 34.5474 Q2249.97 36.052 2249.97 38.7372 Z" fill="#000000" fill-rule="evenodd" fill-opacity="1" /><path clip-path="url(#clip480)" d="M 0 0 M2292.75 1109.15 L2299.02 1109.15 Q2297.27 1112.81 2296.41 1116.06 Q2295.55 1119.3 2295.55 1122.33 Q2295.55 1127.58 2297.59 1130.44 Q2299.63 1133.28 2303.38 1133.28 Q2306.53 1133.28 2308.16 1131.4 Q2309.75 1129.49 2310.74 1124.2 L2311.53 1120.32 Q2312.9 1113.13 2316.37 1109.72 Q2319.81 1106.28 2325.6 1106.28 Q2332.51 1106.28 2336.07 1110.93 Q2339.64 1115.55 2339.64 1124.49 Q2339.64 1127.86 2338.87 1131.68 Q2338.11 1135.47 2336.61 1139.55 L2329.99 1139.55 Q2332.19 1135.63 2333.3 1131.88 Q2334.42 1128.12 2334.42 1124.49 Q2334.42 1118.98 2332.25 1115.99 Q2330.09 1113 2326.08 1113 Q2322.58 1113 2320.6 1115.17 Q2318.63 1117.3 2317.64 1122.2 L2316.88 1126.11 Q2315.45 1133.31 2312.39 1136.52 Q2309.34 1139.74 2303.89 1139.74 Q2297.59 1139.74 2293.96 1135.31 Q2290.33 1130.86 2290.33 1123.06 Q2290.33 1119.72 2290.94 1116.25 Q2291.54 1112.78 2292.75 1109.15 Z" fill="#000000" fill-rule="evenodd" fill-opacity="1" /><path clip-path="url(#clip480)" d="M 0 0 M2296.48 1093.46 L2333.43 1093.46 L2333.43 1085.69 Q2333.43 1075.86 2328.97 1071.31 Q2324.52 1066.72 2314.91 1066.72 Q2305.36 1066.72 2300.93 1071.31 Q2296.48 1075.86 2296.48 1085.69 L2296.48 1093.46 M2291.19 1099.89 L2291.19 1086.68 Q2291.19 1072.86 2296.95 1066.4 Q2302.68 1059.94 2314.91 1059.94 Q2327.19 1059.94 2332.95 1066.44 Q2338.71 1072.93 2338.71 1086.68 L2338.71 1099.89 L2291.19 1099.89 Z" fill="#000000" fill-rule="evenodd" fill-opacity="1" /><path clip-path="url(#clip480)" d="M 0 0 M2292.75 1025.06 L2299.02 1025.06 Q2297.27 1028.72 2296.41 1031.97 Q2295.55 1035.21 2295.55 1038.24 Q2295.55 1043.49 2297.59 1046.35 Q2299.63 1049.18 2303.38 1049.18 Q2306.53 1049.18 2308.16 1047.31 Q2309.75 1045.4 2310.74 1040.11 L2311.53 1036.23 Q2312.9 1029.04 2316.37 1025.63 Q2319.81 1022.19 2325.6 1022.19 Q2332.51 1022.19 2336.07 1026.84 Q2339.64 1031.46 2339.64 1040.4 Q2339.64 1043.77 2338.87 1047.59 Q2338.11 1051.38 2336.61 1055.45 L2329.99 1055.45 Q2332.19 1051.54 2333.3 1047.78 Q2334.42 1044.03 2334.42 1040.4 Q2334.42 1034.89 2332.25 1031.9 Q2330.09 1028.91 2326.08 1028.91 Q2322.58 1028.91 2320.6 1031.07 Q2318.63 1033.21 2317.64 1038.11 L2316.88 1042.02 Q2315.45 1049.22 2312.39 1052.43 Q2309.34 1055.65 2303.89 1055.65 Q2297.59 1055.65 2293.96 1051.22 Q2290.33 1046.77 2290.33 1038.97 Q2290.33 1035.63 2290.94 1032.16 Q2291.54 1028.69 2292.75 1025.06 Z" fill="#000000" fill-rule="evenodd" fill-opacity="1" /><path clip-path="url(#clip480)" d="M 0 0 M2304.43 969.677 L2309.91 969.677 Q2308.54 972.159 2307.87 974.674 Q2307.17 977.157 2307.17 979.703 Q2307.17 985.4 2310.8 988.551 Q2314.4 991.702 2320.92 991.702 Q2327.45 991.702 2331.07 988.551 Q2334.67 985.4 2334.67 979.703 Q2334.67 977.157 2334 974.674 Q2333.3 972.159 2331.93 969.677 L2337.34 969.677 Q2338.49 972.128 2339.06 974.769 Q2339.64 977.379 2339.64 980.339 Q2339.64 988.392 2334.58 993.134 Q2329.51 997.877 2320.92 997.877 Q2312.2 997.877 2307.2 993.103 Q2302.21 988.297 2302.21 979.957 Q2302.21 977.252 2302.78 974.674 Q2303.32 972.096 2304.43 969.677 Z" fill="#000000" fill-rule="evenodd" fill-opacity="1" /><path clip-path="url(#clip480)" d="M 0 0 M2307.17 949.72 Q2307.17 954.431 2310.86 957.168 Q2314.52 959.905 2320.92 959.905 Q2327.32 959.905 2331.01 957.2 Q2334.67 954.463 2334.67 949.72 Q2334.67 945.042 2330.98 942.304 Q2327.29 939.567 2320.92 939.567 Q2314.59 939.567 2310.89 942.304 Q2307.17 945.042 2307.17 949.72 M2302.21 949.72 Q2302.21 942.082 2307.17 937.721 Q2312.14 933.361 2320.92 933.361 Q2329.67 933.361 2334.67 937.721 Q2339.64 942.082 2339.64 949.72 Q2339.64 957.391 2334.67 961.752 Q2329.67 966.08 2320.92 966.08 Q2312.14 966.08 2307.17 961.752 Q2302.21 957.391 2302.21 949.72 Z" fill="#000000" fill-rule="evenodd" fill-opacity="1" /><path clip-path="url(#clip480)" d="M 0 0 M2317.2 897.585 L2338.71 897.585 L2338.71 903.442 L2317.39 903.442 Q2312.33 903.442 2309.81 905.415 Q2307.3 907.388 2307.3 911.335 Q2307.3 916.078 2310.32 918.815 Q2313.35 921.552 2318.57 921.552 L2338.71 921.552 L2338.71 927.44 L2303.07 927.44 L2303.07 921.552 L2308.6 921.552 Q2305.39 919.451 2303.8 916.619 Q2302.21 913.754 2302.21 910.03 Q2302.21 903.887 2306.03 900.736 Q2309.81 897.585 2317.2 897.585 Z" fill="#000000" fill-rule="evenodd" fill-opacity="1" /><path clip-path="url(#clip480)" d="M 0 0 M2304.43 865.789 L2309.91 865.789 Q2308.54 868.271 2307.87 870.786 Q2307.17 873.268 2307.17 875.815 Q2307.17 881.512 2310.8 884.663 Q2314.4 887.814 2320.92 887.814 Q2327.45 887.814 2331.07 884.663 Q2334.67 881.512 2334.67 875.815 Q2334.67 873.268 2334 870.786 Q2333.3 868.271 2331.93 865.789 L2337.34 865.789 Q2338.49 868.239 2339.06 870.881 Q2339.64 873.491 2339.64 876.451 Q2339.64 884.504 2334.58 889.246 Q2329.51 893.989 2320.92 893.989 Q2312.2 893.989 2307.2 889.214 Q2302.21 884.408 2302.21 876.069 Q2302.21 873.364 2302.78 870.786 Q2303.32 868.207 2304.43 865.789 Z" fill="#000000" fill-rule="evenodd" fill-opacity="1" /><path clip-path="url(#clip480)" d="M 0 0 M2319.42 829.154 L2322.29 829.154 L2322.29 856.081 Q2328.34 855.699 2331.52 852.452 Q2334.67 849.174 2334.67 843.349 Q2334.67 839.976 2333.84 836.825 Q2333.02 833.642 2331.36 830.523 L2336.9 830.523 Q2338.24 833.674 2338.94 836.984 Q2339.64 840.294 2339.64 843.7 Q2339.64 852.23 2334.67 857.227 Q2329.71 862.192 2321.24 862.192 Q2312.49 862.192 2307.36 857.481 Q2302.21 852.739 2302.21 844.718 Q2302.21 837.525 2306.85 833.355 Q2311.47 829.154 2319.42 829.154 M2317.71 835.01 Q2312.9 835.074 2310.04 837.716 Q2307.17 840.326 2307.17 844.654 Q2307.17 849.556 2309.94 852.516 Q2312.71 855.444 2317.74 855.89 L2317.71 835.01 Z" fill="#000000" fill-rule="evenodd" fill-opacity="1" /><path clip-path="url(#clip480)" d="M 0 0 M2317.2 793.379 L2338.71 793.379 L2338.71 799.235 L2317.39 799.235 Q2312.33 799.235 2309.81 801.208 Q2307.3 803.182 2307.3 807.129 Q2307.3 811.871 2310.32 814.608 Q2313.35 817.345 2318.57 817.345 L2338.71 817.345 L2338.71 823.234 L2303.07 823.234 L2303.07 817.345 L2308.6 817.345 Q2305.39 815.245 2303.8 812.412 Q2302.21 809.548 2302.21 805.824 Q2302.21 799.681 2306.03 796.53 Q2309.81 793.379 2317.2 793.379 Z" fill="#000000" fill-rule="evenodd" fill-opacity="1" /><path clip-path="url(#clip480)" d="M 0 0 M2292.94 781.443 L2303.07 781.443 L2303.07 769.38 L2307.62 769.38 L2307.62 781.443 L2326.97 781.443 Q2331.33 781.443 2332.57 780.265 Q2333.81 779.056 2333.81 775.395 L2333.81 769.38 L2338.71 769.38 L2338.71 775.395 Q2338.71 782.175 2336.2 784.753 Q2333.65 787.331 2326.97 787.331 L2307.62 787.331 L2307.62 791.628 L2303.07 791.628 L2303.07 787.331 L2292.94 787.331 L2292.94 781.443 Z" fill="#000000" fill-rule="evenodd" fill-opacity="1" /><path clip-path="url(#clip480)" d="M 0 0 M2308.54 742.58 Q2307.97 743.567 2307.71 744.745 Q2307.43 745.89 2307.43 747.291 Q2307.43 752.256 2310.67 754.93 Q2313.89 757.572 2319.93 757.572 L2338.71 757.572 L2338.71 763.46 L2303.07 763.46 L2303.07 757.572 L2308.6 757.572 Q2305.36 755.725 2303.8 752.765 Q2302.21 749.805 2302.21 745.572 Q2302.21 744.967 2302.3 744.235 Q2302.36 743.503 2302.52 742.612 L2308.54 742.58 Z" fill="#000000" fill-rule="evenodd" fill-opacity="1" /><path clip-path="url(#clip480)" d="M 0 0 M2320.79 720.237 Q2320.79 727.334 2322.42 730.072 Q2324.04 732.809 2327.95 732.809 Q2331.07 732.809 2332.92 730.772 Q2334.73 728.703 2334.73 725.17 Q2334.73 720.3 2331.3 717.372 Q2327.83 714.412 2322.1 714.412 L2320.79 714.412 L2320.79 720.237 M2318.37 708.556 L2338.71 708.556 L2338.71 714.412 L2333.3 714.412 Q2336.55 716.417 2338.11 719.409 Q2339.64 722.401 2339.64 726.73 Q2339.64 732.204 2336.58 735.451 Q2333.49 738.665 2328.34 738.665 Q2322.32 738.665 2319.27 734.655 Q2316.21 730.613 2316.21 722.624 L2316.21 714.412 L2315.64 714.412 Q2311.6 714.412 2309.4 717.086 Q2307.17 719.727 2307.17 724.533 Q2307.17 727.589 2307.9 730.485 Q2308.64 733.382 2310.1 736.055 L2304.69 736.055 Q2303.45 732.841 2302.84 729.817 Q2302.21 726.793 2302.21 723.929 Q2302.21 716.194 2306.22 712.375 Q2310.23 708.556 2318.37 708.556 Z" fill="#000000" fill-rule="evenodd" fill-opacity="1" /><path clip-path="url(#clip480)" d="M 0 0 M2292.94 696.62 L2303.07 696.62 L2303.07 684.557 L2307.62 684.557 L2307.62 696.62 L2326.97 696.62 Q2331.33 696.62 2332.57 695.442 Q2333.81 694.233 2333.81 690.572 L2333.81 684.557 L2338.71 684.557 L2338.71 690.572 Q2338.71 697.352 2336.2 699.93 Q2333.65 702.508 2326.97 702.508 L2307.62 702.508 L2307.62 706.805 L2303.07 706.805 L2303.07 702.508 L2292.94 702.508 L2292.94 696.62 Z" fill="#000000" fill-rule="evenodd" fill-opacity="1" /><path clip-path="url(#clip480)" d="M 0 0 M2303.07 678.414 L2303.07 672.558 L2338.71 672.558 L2338.71 678.414 L2303.07 678.414 M2289.19 678.414 L2289.19 672.558 L2296.6 672.558 L2296.6 678.414 L2289.19 678.414 Z" fill="#000000" fill-rule="evenodd" fill-opacity="1" /><path clip-path="url(#clip480)" d="M 0 0 M2307.17 652.601 Q2307.17 657.312 2310.86 660.049 Q2314.52 662.786 2320.92 662.786 Q2327.32 662.786 2331.01 660.081 Q2334.67 657.343 2334.67 652.601 Q2334.67 647.922 2330.98 645.185 Q2327.29 642.448 2320.92 642.448 Q2314.59 642.448 2310.89 645.185 Q2307.17 647.922 2307.17 652.601 M2302.21 652.601 Q2302.21 644.962 2307.17 640.602 Q2312.14 636.241 2320.92 636.241 Q2329.67 636.241 2334.67 640.602 Q2339.64 644.962 2339.64 652.601 Q2339.64 660.272 2334.67 664.632 Q2329.67 668.961 2320.92 668.961 Q2312.14 668.961 2307.17 664.632 Q2302.21 660.272 2302.21 652.601 Z" fill="#000000" fill-rule="evenodd" fill-opacity="1" /><path clip-path="url(#clip480)" d="M 0 0 M2317.2 600.466 L2338.71 600.466 L2338.71 606.322 L2317.39 606.322 Q2312.33 606.322 2309.81 608.296 Q2307.3 610.269 2307.3 614.216 Q2307.3 618.958 2310.32 621.696 Q2313.35 624.433 2318.57 624.433 L2338.71 624.433 L2338.71 630.321 L2303.07 630.321 L2303.07 624.433 L2308.6 624.433 Q2305.39 622.332 2303.8 619.499 Q2302.21 616.635 2302.21 612.911 Q2302.21 606.768 2306.03 603.617 Q2309.81 600.466 2317.2 600.466 Z" fill="#000000" fill-rule="evenodd" fill-opacity="1" /><path clip-path="url(#clip480)" d="M 0 0 M2289.25 559.534 Q2296.57 563.799 2303.73 565.868 Q2310.89 567.937 2318.25 567.937 Q2325.6 567.937 2332.82 565.868 Q2340.02 563.768 2347.31 559.534 L2347.31 564.627 Q2339.83 569.401 2332.6 571.788 Q2325.38 574.144 2318.25 574.144 Q2311.15 574.144 2303.96 571.788 Q2296.76 569.433 2289.25 564.627 L2289.25 559.534 Z" fill="#000000" fill-rule="evenodd" fill-opacity="1" /><path clip-path="url(#clip480)" d="M 0 0 M2309.91 525.637 Q2305.96 523.441 2304.08 520.385 Q2302.21 517.33 2302.21 513.192 Q2302.21 507.622 2306.12 504.598 Q2310 501.575 2317.2 501.575 L2338.71 501.575 L2338.71 507.463 L2317.39 507.463 Q2312.26 507.463 2309.78 509.277 Q2307.3 511.091 2307.3 514.815 Q2307.3 519.367 2310.32 522.009 Q2313.35 524.65 2318.57 524.65 L2338.71 524.65 L2338.71 530.539 L2317.39 530.539 Q2312.23 530.539 2309.78 532.353 Q2307.3 534.167 2307.3 537.955 Q2307.3 542.442 2310.35 545.084 Q2313.38 547.726 2318.57 547.726 L2338.71 547.726 L2338.71 553.614 L2303.07 553.614 L2303.07 547.726 L2308.6 547.726 Q2305.32 545.721 2303.77 542.92 Q2302.21 540.119 2302.21 536.268 Q2302.21 532.385 2304.18 529.679 Q2306.15 526.942 2309.91 525.637 Z" fill="#000000" fill-rule="evenodd" fill-opacity="1" /><path clip-path="url(#clip480)" d="M 0 0 M2307.17 481.618 Q2307.17 486.329 2310.86 489.066 Q2314.52 491.803 2320.92 491.803 Q2327.32 491.803 2331.01 489.098 Q2334.67 486.361 2334.67 481.618 Q2334.67 476.939 2330.98 474.202 Q2327.29 471.465 2320.92 471.465 Q2314.59 471.465 2310.89 474.202 Q2307.17 476.939 2307.17 481.618 M2302.21 481.618 Q2302.21 473.979 2307.17 469.619 Q2312.14 465.258 2320.92 465.258 Q2329.67 465.258 2334.67 469.619 Q2339.64 473.979 2339.64 481.618 Q2339.64 489.289 2334.67 493.649 Q2329.67 497.978 2320.92 497.978 Q2312.14 497.978 2307.17 493.649 Q2302.21 489.289 2302.21 481.618 Z" fill="#000000" fill-rule="evenodd" fill-opacity="1" /><path clip-path="url(#clip480)" d="M 0 0 M2289.19 459.115 L2289.19 453.259 L2338.71 453.259 L2338.71 459.115 L2289.19 459.115 Z" fill="#000000" fill-rule="evenodd" fill-opacity="1" /><path clip-path="url(#clip480)" d="M 0 0 M2291.19 436.708 L2291.19 431.297 L2344.76 447.848 L2344.76 453.259 L2291.19 436.708 Z" fill="#000000" fill-rule="evenodd" fill-opacity="1" /><path clip-path="url(#clip480)" d="M 0 0 M2309.91 397.4 Q2305.96 395.204 2304.08 392.148 Q2302.21 389.093 2302.21 384.955 Q2302.21 379.385 2306.12 376.361 Q2310 373.337 2317.2 373.337 L2338.71 373.337 L2338.71 379.226 L2317.39 379.226 Q2312.26 379.226 2309.78 381.04 Q2307.3 382.854 2307.3 386.578 Q2307.3 391.13 2310.32 393.771 Q2313.35 396.413 2318.57 396.413 L2338.71 396.413 L2338.71 402.301 L2317.39 402.301 Q2312.23 402.301 2309.78 404.116 Q2307.3 405.93 2307.3 409.717 Q2307.3 414.205 2310.35 416.847 Q2313.38 419.489 2318.57 419.489 L2338.71 419.489 L2338.71 425.377 L2303.07 425.377 L2303.07 419.489 L2308.6 419.489 Q2305.32 417.484 2303.77 414.683 Q2302.21 411.882 2302.21 408.031 Q2302.21 404.147 2304.18 401.442 Q2306.15 398.705 2309.91 397.4 Z" fill="#000000" fill-rule="evenodd" fill-opacity="1" /><path clip-path="url(#clip480)" d="M 0 0 M2303.07 356.659 Q2303.64 353.731 2305.39 352.14 Q2307.11 350.516 2309.72 350.516 Q2313.66 350.516 2315.8 353.54 Q2317.93 356.564 2317.93 362.197 Q2317.93 364.012 2317.61 366.017 Q2317.26 367.99 2316.62 370.218 L2312.77 370.218 Q2313.63 368.563 2314.05 366.685 Q2314.46 364.776 2314.46 362.643 Q2314.46 359.174 2313.22 357.264 Q2311.95 355.354 2309.72 355.354 Q2307.36 355.354 2306.15 357.137 Q2304.94 358.887 2304.94 362.325 L2304.94 365.062 L2301.51 365.062 L2301.51 362.07 Q2301.51 359.078 2300.52 357.551 Q2299.5 355.991 2297.59 355.991 Q2295.74 355.991 2294.79 357.582 Q2293.8 359.174 2293.8 362.197 Q2293.8 363.471 2294.09 365.094 Q2294.38 366.717 2295.11 369.295 L2291.45 369.295 Q2290.91 366.972 2290.62 364.935 Q2290.33 362.898 2290.33 361.147 Q2290.33 356.564 2292.21 353.89 Q2294.09 351.185 2297.24 351.185 Q2299.44 351.185 2300.96 352.617 Q2302.49 354.049 2303.07 356.659 Z" fill="#000000" fill-rule="evenodd" fill-opacity="1" /><path clip-path="url(#clip480)" d="M 0 0 M2289.25 345.297 L2289.25 340.204 Q2296.76 335.43 2303.96 333.074 Q2311.15 330.687 2318.25 330.687 Q2325.38 330.687 2332.6 333.074 Q2339.83 335.43 2347.31 340.204 L2347.31 345.297 Q2340.02 341.063 2332.82 338.994 Q2325.6 336.894 2318.25 336.894 Q2310.89 336.894 2303.73 338.994 Q2296.57 341.063 2289.25 345.297 Z" fill="#000000" fill-rule="evenodd" fill-opacity="1" /><polyline clip-path="url(#clip482)" style="stroke:#008000; stroke-width:4; stroke-opacity:1; fill:none" points="
  281.007,1372.48 287.582,1372.48 294.157,1372.48 300.731,1372.48 307.306,1372.48 313.881,1372.48 320.456,1372.48 327.031,1372.48 333.605,1372.48 340.18,1372.48 
  346.755,1372.48 353.33,1372.48 359.905,1372.48 366.48,1372.48 373.054,1372.48 379.629,1372.48 386.204,1372.48 392.779,1372.48 399.354,1372.48 405.928,1372.48 
  412.503,1372.48 419.078,1372.48 425.653,1372.48 432.228,1372.48 438.802,1372.48 445.377,1372.48 451.952,1372.48 458.527,1372.48 465.102,1372.48 471.677,1372.48 
  478.251,1372.48 484.826,1372.48 491.401,1372.48 497.976,1372.48 504.551,1372.48 511.125,1372.48 517.7,1372.48 524.275,1372.48 530.85,1372.48 537.425,1372.48 
  543.999,1372.48 550.574,1372.48 557.149,1372.48 563.724,1372.48 570.299,1372.48 576.874,1372.48 583.448,1372.48 590.023,1372.48 596.598,1372.48 603.173,1372.48 
  609.748,1372.48 616.322,1372.48 622.897,1372.48 629.472,1372.48 636.047,1372.48 642.622,1372.48 649.196,1372.48 655.771,1372.48 662.346,1372.48 668.921,1372.48 
  675.496,1372.48 682.071,1372.48 688.645,1372.48 695.22,1372.48 701.795,1372.48 708.37,1372.48 714.945,1372.48 721.519,1372.48 728.094,1372.48 734.669,1372.48 
  741.244,1372.48 747.819,1372.48 754.394,1372.48 760.968,1372.48 767.543,1372.48 774.118,1372.48 780.693,1372.48 787.268,1372.48 793.842,1372.48 800.417,1372.48 
  806.992,1372.48 813.567,1372.48 820.142,1372.48 826.716,1372.48 833.291,1372.48 839.866,1372.48 846.441,1372.48 853.016,1372.48 859.591,1372.48 866.165,1372.48 
  872.74,1372.48 879.315,1372.48 885.89,1372.48 892.465,1372.48 899.039,1372.48 905.614,1372.48 912.189,1372.48 918.764,1372.48 925.339,1372.48 931.913,1372.48 
  
  "/>
<polyline clip-path="url(#clip482)" style="stroke:#008000; stroke-width:4; stroke-opacity:1; fill:none" points="
  281.007,1372.48 287.582,1372.48 294.157,1372.48 300.731,1372.47 307.306,1372.47 313.881,1372.47 320.456,1372.47 327.031,1372.46 333.605,1372.46 340.18,1372.46 
  346.755,1372.45 353.33,1372.45 359.905,1372.45 366.48,1372.44 373.054,1372.43 379.629,1372.43 386.204,1372.42 392.779,1372.41 399.354,1372.4 405.928,1372.39 
  412.503,1372.38 419.078,1372.37 425.653,1372.35 432.228,1372.34 438.802,1372.32 445.377,1372.3 451.952,1372.27 458.527,1372.25 465.102,1372.22 471.677,1372.19 
  478.251,1372.16 484.826,1372.12 491.401,1372.08 497.976,1372.03 504.551,1371.98 511.125,1371.92 517.7,1371.86 524.275,1371.79 530.85,1371.72 537.425,1371.64 
  543.999,1371.55 550.574,1371.45 557.149,1371.34 563.724,1371.22 570.299,1371.1 576.874,1370.96 583.448,1370.81 590.023,1370.64 596.598,1370.47 603.173,1370.27 
  609.748,1370.07 616.322,1369.84 622.897,1369.6 629.472,1369.33 636.047,1369.05 642.622,1368.74 649.196,1368.42 655.771,1368.06 662.346,1367.68 668.921,1367.28 
  675.496,1366.84 682.071,1366.38 688.645,1365.88 695.22,1365.35 701.795,1364.78 708.37,1364.18 714.945,1363.54 721.519,1362.85 728.094,1362.13 734.669,1361.36 
  741.244,1360.54 747.819,1359.68 754.394,1358.76 760.968,1357.8 767.543,1356.77 774.118,1355.7 780.693,1354.56 787.268,1353.37 793.842,1352.11 800.417,1350.8 
  806.992,1349.41 813.567,1347.96 820.142,1346.44 826.716,1344.84 833.291,1343.18 839.866,1341.44 846.441,1339.62 853.016,1337.73 859.591,1335.75 866.165,1333.7 
  872.74,1331.56 879.315,1329.34 885.89,1327.03 892.465,1324.63 899.039,1322.15 905.614,1319.58 912.189,1316.92 918.764,1314.17 925.339,1311.33 931.913,1308.39 
  
  "/>
<polyline clip-path="url(#clip482)" style="stroke:#008000; stroke-width:4; stroke-opacity:1; fill:none" points="
  281.007,1372.48 287.582,1372.24 294.157,1372 300.731,1371.76 307.306,1371.51 313.881,1371.27 320.456,1371.02 327.031,1370.77 333.605,1370.51 340.18,1370.25 
  346.755,1369.99 353.33,1369.72 359.905,1369.45 366.48,1369.17 373.054,1368.88 379.629,1368.58 386.204,1368.28 392.779,1367.97 399.354,1367.65 405.928,1367.31 
  412.503,1366.97 419.078,1366.62 425.653,1366.26 432.228,1365.88 438.802,1365.49 445.377,1365.09 451.952,1364.68 458.527,1364.24 465.102,1363.8 471.677,1363.34 
  478.251,1362.86 484.826,1362.37 491.401,1361.85 497.976,1361.32 504.551,1360.77 511.125,1360.2 517.7,1359.61 524.275,1359 530.85,1358.37 537.425,1357.72 
  543.999,1357.04 550.574,1356.34 557.149,1355.61 563.724,1354.86 570.299,1354.08 576.874,1353.27 583.448,1352.44 590.023,1351.58 596.598,1350.69 603.173,1349.77 
  609.748,1348.82 616.322,1347.84 622.897,1346.83 629.472,1345.78 636.047,1344.7 642.622,1343.59 649.196,1342.44 655.771,1341.25 662.346,1340.03 668.921,1338.77 
  675.496,1337.47 682.071,1336.14 688.645,1334.76 695.22,1333.34 701.795,1331.89 708.37,1330.39 714.945,1328.84 721.519,1327.26 728.094,1325.63 734.669,1323.95 
  741.244,1322.23 747.819,1320.46 754.394,1318.64 760.968,1316.78 767.543,1314.86 774.118,1312.9 780.693,1310.89 787.268,1308.82 793.842,1306.71 800.417,1304.54 
  806.992,1302.32 813.567,1300.04 820.142,1297.71 826.716,1295.33 833.291,1292.89 839.866,1290.39 846.441,1287.84 853.016,1285.23 859.591,1282.56 866.165,1279.83 
  872.74,1277.05 879.315,1274.2 885.89,1271.29 892.465,1268.32 899.039,1265.29 905.614,1262.2 912.189,1259.05 918.764,1255.83 925.339,1252.55 931.913,1249.21 
  
  "/>
<polyline clip-path="url(#clip482)" style="stroke:#008000; stroke-width:4; stroke-opacity:1; fill:none" points="
  281.007,1372.48 287.582,1370.57 294.157,1368.66 300.731,1366.74 307.306,1364.83 313.881,1362.91 320.456,1361 327.031,1359.07 333.605,1357.15 340.18,1355.22 
  346.755,1353.29 353.33,1351.36 359.905,1349.41 366.48,1347.47 373.054,1345.51 379.629,1343.55 386.204,1341.58 392.779,1339.61 399.354,1337.62 405.928,1335.63 
  412.503,1333.62 419.078,1331.61 425.653,1329.58 432.228,1327.54 438.802,1325.5 445.377,1323.43 451.952,1321.36 458.527,1319.27 465.102,1317.17 471.677,1315.06 
  478.251,1312.93 484.826,1310.78 491.401,1308.62 497.976,1306.44 504.551,1304.24 511.125,1302.03 517.7,1299.8 524.275,1297.55 530.85,1295.28 537.425,1292.99 
  543.999,1290.68 550.574,1288.35 557.149,1286 563.724,1283.62 570.299,1281.23 576.874,1278.81 583.448,1276.37 590.023,1273.91 596.598,1271.42 603.173,1268.91 
  609.748,1266.37 616.322,1263.81 622.897,1261.22 629.472,1258.61 636.047,1255.97 642.622,1253.3 649.196,1250.61 655.771,1247.88 662.346,1245.13 668.921,1242.35 
  675.496,1239.54 682.071,1236.7 688.645,1233.83 695.22,1230.93 701.795,1228 708.37,1225.04 714.945,1222.04 721.519,1219.01 728.094,1215.96 734.669,1212.86 
  741.244,1209.74 747.819,1206.58 754.394,1203.38 760.968,1200.15 767.543,1196.89 774.118,1193.59 780.693,1190.26 787.268,1186.89 793.842,1183.48 800.417,1180.04 
  806.992,1176.56 813.567,1173.04 820.142,1169.49 826.716,1165.9 833.291,1162.26 839.866,1158.59 846.441,1154.89 853.016,1151.14 859.591,1147.35 866.165,1143.52 
  872.74,1139.66 879.315,1135.75 885.89,1131.8 892.465,1127.81 899.039,1123.78 905.614,1119.71 912.189,1115.6 918.764,1111.44 925.339,1107.25 931.913,1103.01 
  
  "/>
</svg>
