<?xml version="1.0" encoding="UTF-8" standalone="no"?>
<svg
   xmlns:dc="http://purl.org/dc/elements/1.1/"
   xmlns:cc="http://creativecommons.org/ns#"
   xmlns:rdf="http://www.w3.org/1999/02/22-rdf-syntax-ns#"
   xmlns:svg="http://www.w3.org/2000/svg"
   xmlns="http://www.w3.org/2000/svg"
   xmlns:sodipodi="http://sodipodi.sourceforge.net/DTD/sodipodi-0.dtd"
   xmlns:inkscape="http://www.inkscape.org/namespaces/inkscape"
   width="5400"
   height="3600"
   viewBox="0 0 21600 14400"
   id="svg2"
   version="1.1"
   inkscape:version="0.91 r13725"
   sodipodi:docname="desal_eff_model1.svg">
  <metadata
     id="metadata301">
    <rdf:RDF>
      <cc:Work
         rdf:about="">
        <dc:format>image/svg+xml</dc:format>
        <dc:type
           rdf:resource="http://purl.org/dc/dcmitype/StillImage" />
      </cc:Work>
    </rdf:RDF>
  </metadata>
  <sodipodi:namedview
     pagecolor="#ffffff"
     bordercolor="#666666"
     borderopacity="1"
     objecttolerance="10"
     gridtolerance="10"
     guidetolerance="10"
     inkscape:pageopacity="0"
     inkscape:pageshadow="2"
     inkscape:window-width="2560"
     inkscape:window-height="1386"
     id="namedview299"
     showgrid="false"
     inkscape:zoom="0.2608438"
     inkscape:cx="1750.581"
     inkscape:cy="1677.505"
     inkscape:window-x="0"
     inkscape:window-y="0"
     inkscape:window-maximized="1"
     inkscape:current-layer="svg2" />
  <defs
     id="defs4">
    <clipPath
       id="clip330">
      <rect
         x="0"
         y="0"
         width="21600"
         height="14400"
         id="rect7" />
    </clipPath>
  </defs>
  <path
     clip-path="url(#clip330)"
     d=" M0 14400 L21600 14400 L21600 0 L0 0  Z   "
     fill="#ffffff"
     fill-rule="evenodd"
     fill-opacity="1"
     id="path9" />
  <defs
     id="defs11">
    <clipPath
       id="clip331">
      <rect
         x="4320"
         y="0"
         width="15121"
         height="14400"
         id="rect14" />
    </clipPath>
  </defs>
  <path
     clip-path="url(#clip330)"
     d=" M1799.09 12954.1 L21316.5 12954.1 L21316.5 283.465 L1799.09 283.465  Z   "
     fill="#ffffff"
     fill-rule="evenodd"
     fill-opacity="1"
     id="path16" />
  <defs
     id="defs18">
    <clipPath
       id="clip332">
      <rect
         x="1799"
         y="283"
         width="19518"
         height="12672"
         id="rect21" />
    </clipPath>
  </defs>
  <polyline
     clip-path="url(#clip332)"
     style="stroke:#000000; stroke-width:12; stroke-opacity:0.1; fill:none"
     points="   2351.48,12954.1 2351.48,283.465    "
     id="polyline23" />
  <polyline
     clip-path="url(#clip332)"
     style="stroke:#000000; stroke-width:12; stroke-opacity:0.1; fill:none"
     points="   6034.01,12954.1 6034.01,283.465    "
     id="polyline25" />
  <polyline
     clip-path="url(#clip332)"
     style="stroke:#000000; stroke-width:12; stroke-opacity:0.1; fill:none"
     points="   9716.55,12954.1 9716.55,283.465    "
     id="polyline27" />
  <polyline
     clip-path="url(#clip332)"
     style="stroke:#000000; stroke-width:12; stroke-opacity:0.1; fill:none"
     points="   13399.1,12954.1 13399.1,283.465    "
     id="polyline29" />
  <polyline
     clip-path="url(#clip332)"
     style="stroke:#000000; stroke-width:12; stroke-opacity:0.1; fill:none"
     points="   17081.6,12954.1 17081.6,283.465    "
     id="polyline31" />
  <polyline
     clip-path="url(#clip332)"
     style="stroke:#000000; stroke-width:12; stroke-opacity:0.1; fill:none"
     points="   20764.2,12954.1 20764.2,283.465    "
     id="polyline33" />
  <polyline
     clip-path="url(#clip330)"
     style="stroke:#000000; stroke-width:24; stroke-opacity:1; fill:none"
     points="   1799.09,12954.1 21316.5,12954.1    "
     id="polyline35" />
  <polyline
     clip-path="url(#clip330)"
     style="stroke:#000000; stroke-width:24; stroke-opacity:1; fill:none"
     points="   2351.48,12954.1 2351.48,12802.1    "
     id="polyline37" />
  <polyline
     clip-path="url(#clip330)"
     style="stroke:#000000; stroke-width:24; stroke-opacity:1; fill:none"
     points="   6034.01,12954.1 6034.01,12802.1    "
     id="polyline39" />
  <polyline
     clip-path="url(#clip330)"
     style="stroke:#000000; stroke-width:24; stroke-opacity:1; fill:none"
     points="   9716.55,12954.1 9716.55,12802.1    "
     id="polyline41" />
  <polyline
     clip-path="url(#clip330)"
     style="stroke:#000000; stroke-width:24; stroke-opacity:1; fill:none"
     points="   13399.1,12954.1 13399.1,12802.1    "
     id="polyline43" />
  <polyline
     clip-path="url(#clip330)"
     style="stroke:#000000; stroke-width:24; stroke-opacity:1; fill:none"
     points="   17081.6,12954.1 17081.6,12802.1    "
     id="polyline45" />
  <polyline
     clip-path="url(#clip330)"
     style="stroke:#000000; stroke-width:24; stroke-opacity:1; fill:none"
     points="   20764.2,12954.1 20764.2,12802.1    "
     id="polyline47" />
  <path
     clip-path="url(#clip330)"
     d="M 0 0 M1878.98 13231.8 Q1841.06 13231.8 1821.86 13269.3 Q1802.9 13306.4 1802.9 13381.3 Q1802.9 13455.9 1821.86 13493.3 Q1841.06 13530.5 1878.98 13530.5 Q1917.14 13530.5 1936.1 13493.3 Q1955.3 13455.9 1955.3 13381.3 Q1955.3 13306.4 1936.1 13269.3 Q1917.14 13231.8 1878.98 13231.8 M1878.98 13192.9 Q1939.98 13192.9 1972.07 13241.3 Q2004.39 13289.4 2004.39 13381.3 Q2004.39 13472.9 1972.07 13521.3 Q1939.98 13569.4 1878.98 13569.4 Q1817.97 13569.4 1785.64 13521.3 Q1753.56 13472.9 1753.56 13381.3 Q1753.56 13289.4 1785.64 13241.3 Q1817.97 13192.9 1878.98 13192.9 Z"
     fill="#000000"
     fill-rule="evenodd"
     fill-opacity="1"
     id="path49" />
  <path
     clip-path="url(#clip330)"
     d="M 0 0 M2057.62 13500.6 L2108.91 13500.6 L2108.91 13562.4 L2057.62 13562.4 L2057.62 13500.6 Z"
     fill="#000000"
     fill-rule="evenodd"
     fill-opacity="1"
     id="path51" />
  <path
     clip-path="url(#clip330)"
     d="M 0 0 M2267.14 13231.8 Q2229.22 13231.8 2210.02 13269.3 Q2191.06 13306.4 2191.06 13381.3 Q2191.06 13455.9 2210.02 13493.3 Q2229.22 13530.5 2267.14 13530.5 Q2305.29 13530.5 2324.25 13493.3 Q2343.45 13455.9 2343.45 13381.3 Q2343.45 13306.4 2324.25 13269.3 Q2305.29 13231.8 2267.14 13231.8 M2267.14 13192.9 Q2328.14 13192.9 2360.23 13241.3 Q2392.55 13289.4 2392.55 13381.3 Q2392.55 13472.9 2360.23 13521.3 Q2328.14 13569.4 2267.14 13569.4 Q2206.13 13569.4 2173.8 13521.3 Q2141.72 13472.9 2141.72 13381.3 Q2141.72 13289.4 2173.8 13241.3 Q2206.13 13192.9 2267.14 13192.9 Z"
     fill="#000000"
     fill-rule="evenodd"
     fill-opacity="1"
     id="path53" />
  <path
     clip-path="url(#clip330)"
     d="M 0 0 M2550.78 13231.8 Q2512.86 13231.8 2493.66 13269.3 Q2474.7 13306.4 2474.7 13381.3 Q2474.7 13455.9 2493.66 13493.3 Q2512.86 13530.5 2550.78 13530.5 Q2588.94 13530.5 2607.9 13493.3 Q2627.1 13455.9 2627.1 13381.3 Q2627.1 13306.4 2607.9 13269.3 Q2588.94 13231.8 2550.78 13231.8 M2550.78 13192.9 Q2611.79 13192.9 2643.87 13241.3 Q2676.2 13289.4 2676.2 13381.3 Q2676.2 13472.9 2643.87 13521.3 Q2611.79 13569.4 2550.78 13569.4 Q2489.77 13569.4 2457.45 13521.3 Q2425.36 13472.9 2425.36 13381.3 Q2425.36 13289.4 2457.45 13241.3 Q2489.77 13192.9 2550.78 13192.9 Z"
     fill="#000000"
     fill-rule="evenodd"
     fill-opacity="1"
     id="path55" />
  <path
     clip-path="url(#clip330)"
     d="M 0 0 M2729.91 13199.5 L2922.65 13199.5 L2922.65 13240.8 L2774.88 13240.8 L2774.88 13329.8 Q2785.57 13326.1 2796.26 13324.4 Q2806.96 13322.5 2817.65 13322.5 Q2878.42 13322.5 2913.9 13355.8 Q2949.39 13389.1 2949.39 13446 Q2949.39 13504.5 2912.93 13537.1 Q2876.47 13569.4 2810.12 13569.4 Q2787.27 13569.4 2763.45 13565.5 Q2739.88 13561.6 2714.6 13553.9 L2714.6 13504.5 Q2736.47 13516.4 2759.81 13522.3 Q2783.14 13528.1 2809.15 13528.1 Q2851.19 13528.1 2875.74 13506 Q2900.29 13483.9 2900.29 13446 Q2900.29 13408 2875.74 13385.9 Q2851.19 13363.8 2809.15 13363.8 Q2789.46 13363.8 2769.77 13368.2 Q2750.33 13372.5 2729.91 13381.8 L2729.91 13199.5 Z"
     fill="#000000"
     fill-rule="evenodd"
     fill-opacity="1"
     id="path57" />
  <path
     clip-path="url(#clip330)"
     d="M 0 0 M5703.34 13231.8 Q5665.42 13231.8 5646.22 13269.3 Q5627.26 13306.4 5627.26 13381.3 Q5627.26 13455.9 5646.22 13493.3 Q5665.42 13530.5 5703.34 13530.5 Q5741.5 13530.5 5760.45 13493.3 Q5779.65 13455.9 5779.65 13381.3 Q5779.65 13306.4 5760.45 13269.3 Q5741.5 13231.8 5703.34 13231.8 M5703.34 13192.9 Q5764.34 13192.9 5796.43 13241.3 Q5828.75 13289.4 5828.75 13381.3 Q5828.75 13472.9 5796.43 13521.3 Q5764.34 13569.4 5703.34 13569.4 Q5642.33 13569.4 5610 13521.3 Q5577.92 13472.9 5577.92 13381.3 Q5577.92 13289.4 5610 13241.3 Q5642.33 13192.9 5703.34 13192.9 Z"
     fill="#000000"
     fill-rule="evenodd"
     fill-opacity="1"
     id="path59" />
  <path
     clip-path="url(#clip330)"
     d="M 0 0 M5881.98 13500.6 L5933.27 13500.6 L5933.27 13562.4 L5881.98 13562.4 L5881.98 13500.6 Z"
     fill="#000000"
     fill-rule="evenodd"
     fill-opacity="1"
     id="path61" />
  <path
     clip-path="url(#clip330)"
     d="M 0 0 M6091.49 13231.8 Q6053.58 13231.8 6034.38 13269.3 Q6015.42 13306.4 6015.42 13381.3 Q6015.42 13455.9 6034.38 13493.3 Q6053.58 13530.5 6091.49 13530.5 Q6129.65 13530.5 6148.61 13493.3 Q6167.81 13455.9 6167.81 13381.3 Q6167.81 13306.4 6148.61 13269.3 Q6129.65 13231.8 6091.49 13231.8 M6091.49 13192.9 Q6152.5 13192.9 6184.58 13241.3 Q6216.91 13289.4 6216.91 13381.3 Q6216.91 13472.9 6184.58 13521.3 Q6152.5 13569.4 6091.49 13569.4 Q6030.49 13569.4 5998.16 13521.3 Q5966.08 13472.9 5966.08 13381.3 Q5966.08 13289.4 5998.16 13241.3 Q6030.49 13192.9 6091.49 13192.9 Z"
     fill="#000000"
     fill-rule="evenodd"
     fill-opacity="1"
     id="path63" />
  <path
     clip-path="url(#clip330)"
     d="M 0 0 M6270.62 13199.5 L6463.37 13199.5 L6463.37 13240.8 L6315.59 13240.8 L6315.59 13329.8 Q6326.28 13326.1 6336.98 13324.4 Q6347.67 13322.5 6358.37 13322.5 Q6419.13 13322.5 6454.62 13355.8 Q6490.1 13389.1 6490.1 13446 Q6490.1 13504.5 6453.64 13537.1 Q6417.19 13569.4 6350.83 13569.4 Q6327.99 13569.4 6304.17 13565.5 Q6280.59 13561.6 6255.31 13553.9 L6255.31 13504.5 Q6277.19 13516.4 6300.52 13522.3 Q6323.85 13528.1 6349.86 13528.1 Q6391.91 13528.1 6416.46 13506 Q6441.01 13483.9 6441.01 13446 Q6441.01 13408 6416.46 13385.9 Q6391.91 13363.8 6349.86 13363.8 Q6330.17 13363.8 6310.49 13368.2 Q6291.04 13372.5 6270.62 13381.8 L6270.62 13199.5 Z"
     fill="#000000"
     fill-rule="evenodd"
     fill-opacity="1"
     id="path65" />
  <path
     clip-path="url(#clip330)"
     d="M 0 0 M9527.69 13231.8 Q9489.78 13231.8 9470.58 13269.3 Q9451.62 13306.4 9451.62 13381.3 Q9451.62 13455.9 9470.58 13493.3 Q9489.78 13530.5 9527.69 13530.5 Q9565.85 13530.5 9584.81 13493.3 Q9604.01 13455.9 9604.01 13381.3 Q9604.01 13306.4 9584.81 13269.3 Q9565.85 13231.8 9527.69 13231.8 M9527.69 13192.9 Q9588.7 13192.9 9620.78 13241.3 Q9653.11 13289.4 9653.11 13381.3 Q9653.11 13472.9 9620.78 13521.3 Q9588.7 13569.4 9527.69 13569.4 Q9466.69 13569.4 9434.36 13521.3 Q9402.28 13472.9 9402.28 13381.3 Q9402.28 13289.4 9434.36 13241.3 Q9466.69 13192.9 9527.69 13192.9 Z"
     fill="#000000"
     fill-rule="evenodd"
     fill-opacity="1"
     id="path67" />
  <path
     clip-path="url(#clip330)"
     d="M 0 0 M9706.34 13500.6 L9757.62 13500.6 L9757.62 13562.4 L9706.34 13562.4 L9706.34 13500.6 Z"
     fill="#000000"
     fill-rule="evenodd"
     fill-opacity="1"
     id="path69" />
  <path
     clip-path="url(#clip330)"
     d="M 0 0 M9811.34 13199.5 L10004.1 13199.5 L10004.1 13240.8 L9856.3 13240.8 L9856.3 13329.8 Q9867 13326.1 9877.69 13324.4 Q9888.39 13322.5 9899.08 13322.5 Q9959.84 13322.5 9995.33 13355.8 Q10030.8 13389.1 10030.8 13446 Q10030.8 13504.5 9994.36 13537.1 Q9957.9 13569.4 9891.55 13569.4 Q9868.7 13569.4 9844.88 13565.5 Q9821.3 13561.6 9796.03 13553.9 L9796.03 13504.5 Q9817.9 13516.4 9841.23 13522.3 Q9864.57 13528.1 9890.57 13528.1 Q9932.62 13528.1 9957.17 13506 Q9981.72 13483.9 9981.72 13446 Q9981.72 13408 9957.17 13385.9 Q9932.62 13363.8 9890.57 13363.8 Q9870.89 13363.8 9851.2 13368.2 Q9831.75 13372.5 9811.34 13381.8 L9811.34 13199.5 Z"
     fill="#000000"
     fill-rule="evenodd"
     fill-opacity="1"
     id="path71" />
  <path
     clip-path="url(#clip330)"
     d="M 0 0 M13102.9 13199.5 L13295.7 13199.5 L13295.7 13240.8 L13147.9 13240.8 L13147.9 13329.8 Q13158.6 13326.1 13169.3 13324.4 Q13180 13322.5 13190.7 13322.5 Q13251.4 13322.5 13286.9 13355.8 Q13322.4 13389.1 13322.4 13446 Q13322.4 13504.5 13285.9 13537.1 Q13249.5 13569.4 13183.1 13569.4 Q13160.3 13569.4 13136.5 13565.5 Q13112.9 13561.6 13087.6 13553.9 L13087.6 13504.5 Q13109.5 13516.4 13132.8 13522.3 Q13156.2 13528.1 13182.2 13528.1 Q13224.2 13528.1 13248.8 13506 Q13273.3 13483.9 13273.3 13446 Q13273.3 13408 13248.8 13385.9 Q13224.2 13363.8 13182.2 13363.8 Q13162.5 13363.8 13142.8 13368.2 Q13123.3 13372.5 13102.9 13381.8 L13102.9 13199.5 Z"
     fill="#000000"
     fill-rule="evenodd"
     fill-opacity="1"
     id="path73" />
  <path
     clip-path="url(#clip330)"
     d="M 0 0 M13375.6 13500.6 L13426.9 13500.6 L13426.9 13562.4 L13375.6 13562.4 L13375.6 13500.6 Z"
     fill="#000000"
     fill-rule="evenodd"
     fill-opacity="1"
     id="path75" />
  <path
     clip-path="url(#clip330)"
     d="M 0 0 M13585.1 13231.8 Q13547.2 13231.8 13528 13269.3 Q13509.1 13306.4 13509.1 13381.3 Q13509.1 13455.9 13528 13493.3 Q13547.2 13530.5 13585.1 13530.5 Q13623.3 13530.5 13642.3 13493.3 Q13661.5 13455.9 13661.5 13381.3 Q13661.5 13306.4 13642.3 13269.3 Q13623.3 13231.8 13585.1 13231.8 M13585.1 13192.9 Q13646.1 13192.9 13678.2 13241.3 Q13710.6 13289.4 13710.6 13381.3 Q13710.6 13472.9 13678.2 13521.3 Q13646.1 13569.4 13585.1 13569.4 Q13524.1 13569.4 13491.8 13521.3 Q13459.7 13472.9 13459.7 13381.3 Q13459.7 13289.4 13491.8 13241.3 Q13524.1 13192.9 13585.1 13192.9 Z"
     fill="#000000"
     fill-rule="evenodd"
     fill-opacity="1"
     id="path77" />
  <path
     clip-path="url(#clip330)"
     d="M 0 0 M16643.6 13199.5 L16836.4 13199.5 L16836.4 13240.8 L16688.6 13240.8 L16688.6 13329.8 Q16699.3 13326.1 16710 13324.4 Q16720.7 13322.5 16731.4 13322.5 Q16792.1 13322.5 16827.6 13355.8 Q16863.1 13389.1 16863.1 13446 Q16863.1 13504.5 16826.7 13537.1 Q16790.2 13569.4 16723.8 13569.4 Q16701 13569.4 16677.2 13565.5 Q16653.6 13561.6 16628.3 13553.9 L16628.3 13504.5 Q16650.2 13516.4 16673.5 13522.3 Q16696.9 13528.1 16722.9 13528.1 Q16764.9 13528.1 16789.5 13506 Q16814 13483.9 16814 13446 Q16814 13408 16789.5 13385.9 Q16764.9 13363.8 16722.9 13363.8 Q16703.2 13363.8 16683.5 13368.2 Q16664.1 13372.5 16643.6 13381.8 L16643.6 13199.5 Z"
     fill="#000000"
     fill-rule="evenodd"
     fill-opacity="1"
     id="path79" />
  <path
     clip-path="url(#clip330)"
     d="M 0 0 M17021.3 13231.8 Q16983.4 13231.8 16964.2 13269.3 Q16945.3 13306.4 16945.3 13381.3 Q16945.3 13455.9 16964.2 13493.3 Q16983.4 13530.5 17021.3 13530.5 Q17059.5 13530.5 17078.5 13493.3 Q17097.7 13455.9 17097.7 13381.3 Q17097.7 13306.4 17078.5 13269.3 Q17059.5 13231.8 17021.3 13231.8 M17021.3 13192.9 Q17082.3 13192.9 17114.4 13241.3 Q17146.8 13289.4 17146.8 13381.3 Q17146.8 13472.9 17114.4 13521.3 Q17082.3 13569.4 17021.3 13569.4 Q16960.3 13569.4 16928 13521.3 Q16895.9 13472.9 16895.9 13381.3 Q16895.9 13289.4 16928 13241.3 Q16960.3 13192.9 17021.3 13192.9 Z"
     fill="#000000"
     fill-rule="evenodd"
     fill-opacity="1"
     id="path81" />
  <path
     clip-path="url(#clip330)"
     d="M 0 0 M17200 13500.6 L17251.3 13500.6 L17251.3 13562.4 L17200 13562.4 L17200 13500.6 Z"
     fill="#000000"
     fill-rule="evenodd"
     fill-opacity="1"
     id="path83" />
  <path
     clip-path="url(#clip330)"
     d="M 0 0 M17409.5 13231.8 Q17371.6 13231.8 17352.4 13269.3 Q17333.4 13306.4 17333.4 13381.3 Q17333.4 13455.9 17352.4 13493.3 Q17371.6 13530.5 17409.5 13530.5 Q17447.7 13530.5 17466.6 13493.3 Q17485.8 13455.9 17485.8 13381.3 Q17485.8 13306.4 17466.6 13269.3 Q17447.7 13231.8 17409.5 13231.8 M17409.5 13192.9 Q17470.5 13192.9 17502.6 13241.3 Q17534.9 13289.4 17534.9 13381.3 Q17534.9 13472.9 17502.6 13521.3 Q17470.5 13569.4 17409.5 13569.4 Q17348.5 13569.4 17316.2 13521.3 Q17284.1 13472.9 17284.1 13381.3 Q17284.1 13289.4 17316.2 13241.3 Q17348.5 13192.9 17409.5 13192.9 Z"
     fill="#000000"
     fill-rule="evenodd"
     fill-opacity="1"
     id="path85" />
  <path
     clip-path="url(#clip330)"
     d="M 0 0 M20184.3 13199.5 L20377.1 13199.5 L20377.1 13240.8 L20229.3 13240.8 L20229.3 13329.8 Q20240 13326.1 20250.7 13324.4 Q20261.4 13322.5 20272.1 13322.5 Q20332.9 13322.5 20368.3 13355.8 Q20403.8 13389.1 20403.8 13446 Q20403.8 13504.5 20367.4 13537.1 Q20330.9 13569.4 20264.6 13569.4 Q20241.7 13569.4 20217.9 13565.5 Q20194.3 13561.6 20169 13553.9 L20169 13504.5 Q20190.9 13516.4 20214.2 13522.3 Q20237.6 13528.1 20263.6 13528.1 Q20305.6 13528.1 20330.2 13506 Q20354.7 13483.9 20354.7 13446 Q20354.7 13408 20330.2 13385.9 Q20305.6 13363.8 20263.6 13363.8 Q20243.9 13363.8 20224.2 13368.2 Q20204.8 13372.5 20184.3 13381.8 L20184.3 13199.5 Z"
     fill="#000000"
     fill-rule="evenodd"
     fill-opacity="1"
     id="path87" />
  <path
     clip-path="url(#clip330)"
     d="M 0 0 M20562.1 13231.8 Q20524.1 13231.8 20504.9 13269.3 Q20486 13306.4 20486 13381.3 Q20486 13455.9 20504.9 13493.3 Q20524.1 13530.5 20562.1 13530.5 Q20600.2 13530.5 20619.2 13493.3 Q20638.4 13455.9 20638.4 13381.3 Q20638.4 13306.4 20619.2 13269.3 Q20600.2 13231.8 20562.1 13231.8 M20562.1 13192.9 Q20623.1 13192.9 20655.1 13241.3 Q20687.5 13289.4 20687.5 13381.3 Q20687.5 13472.9 20655.1 13521.3 Q20623.1 13569.4 20562.1 13569.4 Q20501 13569.4 20468.7 13521.3 Q20436.6 13472.9 20436.6 13381.3 Q20436.6 13289.4 20468.7 13241.3 Q20501 13192.9 20562.1 13192.9 Z"
     fill="#000000"
     fill-rule="evenodd"
     fill-opacity="1"
     id="path89" />
  <path
     clip-path="url(#clip330)"
     d="M 0 0 M20845.7 13231.8 Q20807.8 13231.8 20788.6 13269.3 Q20769.6 13306.4 20769.6 13381.3 Q20769.6 13455.9 20788.6 13493.3 Q20807.8 13530.5 20845.7 13530.5 Q20883.9 13530.5 20902.8 13493.3 Q20922 13455.9 20922 13381.3 Q20922 13306.4 20902.8 13269.3 Q20883.9 13231.8 20845.7 13231.8 M20845.7 13192.9 Q20906.7 13192.9 20938.8 13241.3 Q20971.1 13289.4 20971.1 13381.3 Q20971.1 13472.9 20938.8 13521.3 Q20906.7 13569.4 20845.7 13569.4 Q20784.7 13569.4 20752.4 13521.3 Q20720.3 13472.9 20720.3 13381.3 Q20720.3 13289.4 20752.4 13241.3 Q20784.7 13192.9 20845.7 13192.9 Z"
     fill="#000000"
     fill-rule="evenodd"
     fill-opacity="1"
     id="path91" />
  <path
     clip-path="url(#clip330)"
     d="M 0 0 M21024.3 13500.6 L21075.6 13500.6 L21075.6 13562.4 L21024.3 13562.4 L21024.3 13500.6 Z"
     fill="#000000"
     fill-rule="evenodd"
     fill-opacity="1"
     id="path93" />
  <path
     clip-path="url(#clip330)"
     d="M 0 0 M21233.9 13231.8 Q21195.9 13231.8 21176.7 13269.3 Q21157.8 13306.4 21157.8 13381.3 Q21157.8 13455.9 21176.7 13493.3 Q21195.9 13530.5 21233.9 13530.5 Q21272 13530.5 21291 13493.3 Q21310.2 13455.9 21310.2 13381.3 Q21310.2 13306.4 21291 13269.3 Q21272 13231.8 21233.9 13231.8 M21233.9 13192.9 Q21294.9 13192.9 21326.9 13241.3 Q21359.3 13289.4 21359.3 13381.3 Q21359.3 13472.9 21326.9 13521.3 Q21294.9 13569.4 21233.9 13569.4 Q21172.9 13569.4 21140.5 13521.3 Q21108.4 13472.9 21108.4 13381.3 Q21108.4 13289.4 21140.5 13241.3 Q21172.9 13192.9 21233.9 13192.9 Z"
     fill="#000000"
     fill-rule="evenodd"
     fill-opacity="1"
     id="path95" />
  <path
     clip-path="url(#clip330)"
     d="M 0 0 M9441.73 13807.8 L9709.86 13807.8 L9709.86 13860.9 L9504.86 13860.9 L9504.86 13998.4 L9689.86 13998.4 L9689.86 14051.5 L9504.86 14051.5 L9504.86 14274.3 L9441.73 14274.3 L9441.73 13807.8 Z"
     fill="#000000"
     fill-rule="evenodd"
     fill-opacity="1"
     id="path97" />
  <path
     clip-path="url(#clip330)"
     d="M 0 0 M9926.42 13978.1 Q9916.73 13972.4 9905.17 13969.9 Q9893.92 13967.1 9880.17 13967.1 Q9831.42 13967.1 9805.17 13999 Q9779.23 14030.6 9779.23 14089.9 L9779.23 14274.3 L9721.42 14274.3 L9721.42 13924.3 L9779.23 13924.3 L9779.23 13978.7 Q9797.36 13946.8 9826.42 13931.5 Q9855.48 13915.9 9897.04 13915.9 Q9902.98 13915.9 9910.17 13916.8 Q9917.36 13917.4 9926.11 13919 L9926.42 13978.1 Z"
     fill="#000000"
     fill-rule="evenodd"
     fill-opacity="1"
     id="path99" />
  <path
     clip-path="url(#clip330)"
     d="M 0 0 M10272 14084.9 L10272 14113.1 L10007.7 14113.1 Q10011.4 14172.4 10043.3 14203.7 Q10075.5 14234.6 10132.7 14234.6 Q10165.8 14234.6 10196.7 14226.5 Q10228 14218.4 10258.6 14202.1 L10258.6 14256.5 Q10227.7 14269.6 10195.2 14276.5 Q10162.7 14283.4 10129.2 14283.4 Q10045.5 14283.4 9996.42 14234.6 Q9947.67 14185.9 9947.67 14102.7 Q9947.67 14016.8 9993.92 13966.5 Q10040.5 13915.9 10119.2 13915.9 Q10189.9 13915.9 10230.8 13961.5 Q10272 14006.8 10272 14084.9 M10214.5 14068.1 Q10213.9 14020.9 10188 13992.8 Q10162.4 13964.6 10119.9 13964.6 Q10071.7 13964.6 10042.7 13991.8 Q10013.9 14019 10009.5 14068.4 L10214.5 14068.1 Z"
     fill="#000000"
     fill-rule="evenodd"
     fill-opacity="1"
     id="path101" />
  <path
     clip-path="url(#clip330)"
     d="M 0 0 M10366.7 14099.6 Q10366.7 14163.1 10392.7 14199.3 Q10418.9 14235.2 10464.5 14235.2 Q10510.2 14235.2 10536.4 14199.3 Q10562.7 14163.1 10562.7 14099.6 Q10562.7 14036.2 10536.4 14000.3 Q10510.2 13964 10464.5 13964 Q10418.9 13964 10392.7 14000.3 Q10366.7 14036.2 10366.7 14099.6 M10562.7 14221.8 Q10544.5 14253.1 10516.7 14268.4 Q10489.2 14283.4 10450.5 14283.4 Q10387 14283.4 10347 14232.7 Q10307.4 14182.1 10307.4 14099.6 Q10307.4 14017.1 10347 13966.5 Q10387 13915.9 10450.5 13915.9 Q10489.2 13915.9 10516.7 13931.2 Q10544.5 13946.2 10562.7 13977.4 L10562.7 13924.3 L10620.2 13924.3 L10620.2 14407.4 L10562.7 14407.4 L10562.7 14221.8 Z"
     fill="#000000"
     fill-rule="evenodd"
     fill-opacity="1"
     id="path103" />
  <path
     clip-path="url(#clip330)"
     d="M 0 0 M10674.5 14136.2 L10674.5 13924.3 L10732 13924.3 L10732 14134 Q10732 14183.7 10751.4 14208.7 Q10770.8 14233.4 10809.5 14233.4 Q10856.1 14233.4 10883 14203.7 Q10910.2 14174 10910.2 14122.7 L10910.2 13924.3 L10967.7 13924.3 L10967.7 14274.3 L10910.2 14274.3 L10910.2 14220.6 Q10889.2 14252.4 10861.4 14268.1 Q10833.9 14283.4 10797.4 14283.4 Q10737 14283.4 10705.8 14245.9 Q10674.5 14208.4 10674.5 14136.2 M10819.2 13915.9 L10819.2 13915.9 Z"
     fill="#000000"
     fill-rule="evenodd"
     fill-opacity="1"
     id="path105" />
  <path
     clip-path="url(#clip330)"
     d="M 0 0 M11327.3 14084.9 L11327.3 14113.1 L11063 14113.1 Q11066.7 14172.4 11098.6 14203.7 Q11130.8 14234.6 11188 14234.6 Q11221.1 14234.6 11252 14226.5 Q11283.3 14218.4 11313.9 14202.1 L11313.9 14256.5 Q11283 14269.6 11250.5 14276.5 Q11218 14283.4 11184.5 14283.4 Q11100.8 14283.4 11051.7 14234.6 Q11003 14185.9 11003 14102.7 Q11003 14016.8 11049.2 13966.5 Q11095.8 13915.9 11174.5 13915.9 Q11245.2 13915.9 11286.1 13961.5 Q11327.3 14006.8 11327.3 14084.9 M11269.8 14068.1 Q11269.2 14020.9 11243.3 13992.8 Q11217.7 13964.6 11175.2 13964.6 Q11127 13964.6 11098 13991.8 Q11069.2 14019 11064.8 14068.4 L11269.8 14068.1 Z"
     fill="#000000"
     fill-rule="evenodd"
     fill-opacity="1"
     id="path107" />
  <path
     clip-path="url(#clip330)"
     d="M 0 0 M11678.6 14063.1 L11678.6 14274.3 L11621.1 14274.3 L11621.1 14064.9 Q11621.1 14015.2 11601.7 13990.6 Q11582.3 13965.9 11543.6 13965.9 Q11497 13965.9 11470.2 13995.6 Q11443.3 14025.2 11443.3 14076.5 L11443.3 14274.3 L11385.5 14274.3 L11385.5 13924.3 L11443.3 13924.3 L11443.3 13978.7 Q11463.9 13947.1 11491.7 13931.5 Q11519.8 13915.9 11556.4 13915.9 Q11616.7 13915.9 11647.7 13953.4 Q11678.6 13990.6 11678.6 14063.1 Z"
     fill="#000000"
     fill-rule="evenodd"
     fill-opacity="1"
     id="path109" />
  <path
     clip-path="url(#clip330)"
     d="M 0 0 M11990.8 13937.8 L11990.8 13991.5 Q11966.4 13978.1 11941.7 13971.5 Q11917.3 13964.6 11892.3 13964.6 Q11836.4 13964.6 11805.5 14000.3 Q11774.5 14035.6 11774.5 14099.6 Q11774.5 14163.7 11805.5 14199.3 Q11836.4 14234.6 11892.3 14234.6 Q11917.3 14234.6 11941.7 14228.1 Q11966.4 14221.2 11990.8 14207.7 L11990.8 14260.9 Q11966.7 14272.1 11940.8 14277.7 Q11915.2 14283.4 11886.1 14283.4 Q11807 14283.4 11760.5 14233.7 Q11713.9 14184 11713.9 14099.6 Q11713.9 14014 11760.8 13964.9 Q11808 13915.9 11889.8 13915.9 Q11916.4 13915.9 11941.7 13921.5 Q11967 13926.8 11990.8 13937.8 Z"
     fill="#000000"
     fill-rule="evenodd"
     fill-opacity="1"
     id="path111" />
  <path
     clip-path="url(#clip330)"
     d="M 0 0 M12196.7 14306.8 Q12172.3 14369.3 12149.2 14388.4 Q12126.1 14407.4 12087.3 14407.4 L12041.4 14407.4 L12041.4 14359.3 L12075.2 14359.3 Q12098.9 14359.3 12112 14348.1 Q12125.2 14336.8 12141.1 14294.9 L12151.4 14268.7 L12009.8 13924.3 L12070.8 13924.3 L12180.2 14198.1 L12289.5 13924.3 L12350.5 13924.3 L12196.7 14306.8 Z"
     fill="#000000"
     fill-rule="evenodd"
     fill-opacity="1"
     id="path113" />
  <path
     clip-path="url(#clip330)"
     d="M 0 0 M12752.3 13788.7 Q12710.5 13860.6 12690.2 13930.9 Q12669.8 14001.2 12669.8 14073.4 Q12669.8 14145.6 12690.2 14216.5 Q12710.8 14287.1 12752.3 14358.7 L12702.3 14358.7 Q12655.5 14285.2 12632 14214.3 Q12608.9 14143.4 12608.9 14073.4 Q12608.9 14003.7 12632 13933.1 Q12655.2 13862.4 12702.3 13788.7 L12752.3 13788.7 Z"
     fill="#000000"
     fill-rule="evenodd"
     fill-opacity="1"
     id="path115" />
  <path
     clip-path="url(#clip330)"
     d="M 0 0 M12815.2 13807.8 L12878.3 13807.8 L12878.3 13999 L13107.7 13999 L13107.7 13807.8 L13170.8 13807.8 L13170.8 14274.3 L13107.7 14274.3 L13107.7 14052.1 L12878.3 14052.1 L12878.3 14274.3 L12815.2 14274.3 L12815.2 13807.8 Z"
     fill="#000000"
     fill-rule="evenodd"
     fill-opacity="1"
     id="path117" />
  <path
     clip-path="url(#clip330)"
     d="M 0 0 M13206.1 13924.3 L13479.2 13924.3 L13479.2 13976.8 L13263 14228.4 L13479.2 14228.4 L13479.2 14274.3 L13198.3 14274.3 L13198.3 14221.8 L13414.5 13970.3 L13206.1 13970.3 L13206.1 13924.3 Z"
     fill="#000000"
     fill-rule="evenodd"
     fill-opacity="1"
     id="path119" />
  <path
     clip-path="url(#clip330)"
     d="M 0 0 M13530.5 13788.7 L13580.5 13788.7 Q13627.3 13862.4 13650.5 13933.1 Q13673.9 14003.7 13673.9 14073.4 Q13673.9 14143.4 13650.5 14214.3 Q13627.3 14285.2 13580.5 14358.7 L13530.5 14358.7 Q13572 14287.1 13592.3 14216.5 Q13613 14145.6 13613 14073.4 Q13613 14001.2 13592.3 13930.9 Q13572 13860.6 13530.5 13788.7 Z"
     fill="#000000"
     fill-rule="evenodd"
     fill-opacity="1"
     id="path121" />
  <polyline
     clip-path="url(#clip332)"
     style="stroke:#000000; stroke-width:12; stroke-opacity:0.1; fill:none"
     points="   1799.09,12839.7 21316.5,12839.7    "
     id="polyline123" />
  <polyline
     clip-path="url(#clip332)"
     style="stroke:#000000; stroke-width:12; stroke-opacity:0.1; fill:none"
     points="   1799.09,9874.63 21316.5,9874.63    "
     id="polyline125" />
  <polyline
     clip-path="url(#clip332)"
     style="stroke:#000000; stroke-width:12; stroke-opacity:0.1; fill:none"
     points="   1799.09,6909.59 21316.5,6909.59    "
     id="polyline127" />
  <polyline
     clip-path="url(#clip332)"
     style="stroke:#000000; stroke-width:12; stroke-opacity:0.1; fill:none"
     points="   1799.09,3944.54 21316.5,3944.54    "
     id="polyline129" />
  <polyline
     clip-path="url(#clip332)"
     style="stroke:#000000; stroke-width:12; stroke-opacity:0.1; fill:none"
     points="   1799.09,979.499 21316.5,979.499    "
     id="polyline131" />
  <polyline
     clip-path="url(#clip330)"
     style="stroke:#000000; stroke-width:24; stroke-opacity:1; fill:none"
     points="   1799.09,12954.1 1799.09,283.465    "
     id="polyline133" />
  <polyline
     clip-path="url(#clip330)"
     style="stroke:#000000; stroke-width:24; stroke-opacity:1; fill:none"
     points="   1799.09,12839.7 2033.3,12839.7    "
     id="polyline135" />
  <polyline
     clip-path="url(#clip330)"
     style="stroke:#000000; stroke-width:24; stroke-opacity:1; fill:none"
     points="   1799.09,9874.63 2033.3,9874.63    "
     id="polyline137" />
  <polyline
     clip-path="url(#clip330)"
     style="stroke:#000000; stroke-width:24; stroke-opacity:1; fill:none"
     points="   1799.09,6909.59 2033.3,6909.59    "
     id="polyline139" />
  <polyline
     clip-path="url(#clip330)"
     style="stroke:#000000; stroke-width:24; stroke-opacity:1; fill:none"
     points="   1799.09,3944.54 2033.3,3944.54    "
     id="polyline141" />
  <polyline
     clip-path="url(#clip330)"
     style="stroke:#000000; stroke-width:24; stroke-opacity:1; fill:none"
     points="   1799.09,979.499 2033.3,979.499    "
     id="polyline143" />
  <path
     clip-path="url(#clip330)"
     d="M 0 0 M978.292 12690.6 Q940.375 12690.6 921.174 12728 Q902.216 12765.2 902.216 12840 Q902.216 12914.7 921.174 12952.1 Q940.375 12989.3 978.292 12989.3 Q1016.45 12989.3 1035.41 12952.1 Q1054.61 12914.7 1054.61 12840 Q1054.61 12765.2 1035.41 12728 Q1016.45 12690.6 978.292 12690.6 M978.292 12651.7 Q1039.3 12651.7 1071.38 12700 Q1103.71 12748.2 1103.71 12840 Q1103.71 12931.7 1071.38 12980 Q1039.3 13028.2 978.292 13028.2 Q917.285 13028.2 884.959 12980 Q852.876 12931.7 852.876 12840 Q852.876 12748.2 884.959 12700 Q917.285 12651.7 978.292 12651.7 Z"
     fill="#000000"
     fill-rule="evenodd"
     fill-opacity="1"
     id="path145" />
  <path
     clip-path="url(#clip330)"
     d="M 0 0 M1156.94 12959.4 L1208.22 12959.4 L1208.22 13021.1 L1156.94 13021.1 L1156.94 12959.4 Z"
     fill="#000000"
     fill-rule="evenodd"
     fill-opacity="1"
     id="path147" />
  <path
     clip-path="url(#clip330)"
     d="M 0 0 M1303.74 12979.8 L1475.09 12979.8 L1475.09 13021.1 L1244.68 13021.1 L1244.68 12979.8 Q1272.63 12950.9 1320.76 12902.3 Q1369.12 12853.4 1381.52 12839.3 Q1405.1 12812.8 1414.33 12794.6 Q1423.81 12776.1 1423.81 12758.4 Q1423.81 12729.4 1403.39 12711.2 Q1383.22 12693 1350.65 12693 Q1327.56 12693 1301.8 12701 Q1276.28 12709 1247.11 12725.3 L1247.11 12675.7 Q1276.76 12663.8 1302.53 12657.7 Q1328.29 12651.7 1349.68 12651.7 Q1406.07 12651.7 1439.61 12679.9 Q1473.15 12708.1 1473.15 12755.2 Q1473.15 12777.6 1464.64 12797.7 Q1456.38 12817.7 1434.26 12844.9 Q1428.19 12851.9 1395.62 12885.7 Q1363.05 12919.3 1303.74 12979.8 Z"
     fill="#000000"
     fill-rule="evenodd"
     fill-opacity="1"
     id="path149" />
  <path
     clip-path="url(#clip330)"
     d="M 0 0 M956.417 9725.51 Q918.5 9725.51 899.299 9762.94 Q880.341 9800.13 880.341 9874.99 Q880.341 9949.61 899.299 9987.04 Q918.5 10024.2 956.417 10024.2 Q994.576 10024.2 1013.53 9987.04 Q1032.74 9949.61 1032.74 9874.99 Q1032.74 9800.13 1013.53 9762.94 Q994.576 9725.51 956.417 9725.51 M956.417 9686.63 Q1017.42 9686.63 1049.51 9734.99 Q1081.83 9783.12 1081.83 9874.99 Q1081.83 9966.62 1049.51 10015 Q1017.42 10063.1 956.417 10063.1 Q895.41 10063.1 863.084 10015 Q831.001 9966.62 831.001 9874.99 Q831.001 9783.12 863.084 9734.99 Q895.41 9686.63 956.417 9686.63 Z"
     fill="#000000"
     fill-rule="evenodd"
     fill-opacity="1"
     id="path151" />
  <path
     clip-path="url(#clip330)"
     d="M 0 0 M1135.06 9994.33 L1186.35 9994.33 L1186.35 10056.1 L1135.06 10056.1 L1135.06 9994.33 Z"
     fill="#000000"
     fill-rule="evenodd"
     fill-opacity="1"
     id="path153" />
  <path
     clip-path="url(#clip330)"
     d="M 0 0 M1374.47 9735.97 L1250.51 9929.68 L1374.47 9929.68 L1374.47 9735.97 M1361.59 9693.19 L1423.32 9693.19 L1423.32 9929.68 L1475.09 9929.68 L1475.09 9970.51 L1423.32 9970.51 L1423.32 10056.1 L1374.47 10056.1 L1374.47 9970.51 L1210.65 9970.51 L1210.65 9923.12 L1361.59 9693.19 Z"
     fill="#000000"
     fill-rule="evenodd"
     fill-opacity="1"
     id="path155" />
  <path
     clip-path="url(#clip330)"
     d="M 0 0 M959.82 6760.47 Q921.903 6760.47 902.702 6797.9 Q883.744 6835.09 883.744 6909.95 Q883.744 6984.57 902.702 7022 Q921.903 7059.19 959.82 7059.19 Q997.979 7059.19 1016.94 7022 Q1036.14 6984.57 1036.14 6909.95 Q1036.14 6835.09 1016.94 6797.9 Q997.979 6760.47 959.82 6760.47 M959.82 6721.58 Q1020.83 6721.58 1052.91 6769.95 Q1085.24 6818.08 1085.24 6909.95 Q1085.24 7001.58 1052.91 7049.95 Q1020.83 7098.07 959.82 7098.07 Q898.813 7098.07 866.487 7049.95 Q834.404 7001.58 834.404 6909.95 Q834.404 6818.08 866.487 6769.95 Q898.813 6721.58 959.82 6721.58 Z"
     fill="#000000"
     fill-rule="evenodd"
     fill-opacity="1"
     id="path157" />
  <path
     clip-path="url(#clip330)"
     d="M 0 0 M1138.46 7029.29 L1189.75 7029.29 L1189.75 7091.03 L1138.46 7091.03 L1138.46 7029.29 Z"
     fill="#000000"
     fill-rule="evenodd"
     fill-opacity="1"
     id="path159" />
  <path
     clip-path="url(#clip330)"
     d="M 0 0 M1354.05 6890.02 Q1321 6890.02 1301.55 6912.62 Q1282.35 6935.23 1282.35 6974.6 Q1282.35 7013.73 1301.55 7036.58 Q1321 7059.19 1354.05 7059.19 Q1387.11 7059.19 1406.31 7036.58 Q1425.75 7013.73 1425.75 6974.6 Q1425.75 6935.23 1406.31 6912.62 Q1387.11 6890.02 1354.05 6890.02 M1451.52 6736.17 L1451.52 6780.89 Q1433.05 6772.14 1414.09 6767.52 Q1395.37 6762.9 1376.9 6762.9 Q1328.29 6762.9 1302.53 6795.71 Q1277.01 6828.53 1273.36 6894.88 Q1287.7 6873.73 1309.33 6862.55 Q1330.96 6851.13 1356.97 6851.13 Q1411.66 6851.13 1443.25 6884.43 Q1475.09 6917.48 1475.09 6974.6 Q1475.09 7030.5 1442.04 7064.29 Q1408.98 7098.07 1354.05 7098.07 Q1291.1 7098.07 1257.8 7049.95 Q1224.51 7001.58 1224.51 6909.95 Q1224.51 6823.91 1265.34 6772.87 Q1306.17 6721.58 1374.96 6721.58 Q1393.43 6721.58 1412.14 6725.23 Q1431.1 6728.87 1451.52 6736.17 Z"
     fill="#000000"
     fill-rule="evenodd"
     fill-opacity="1"
     id="path161" />
  <path
     clip-path="url(#clip330)"
     d="M 0 0 M962.493 3795.43 Q924.577 3795.43 905.376 3832.86 Q886.417 3870.05 886.417 3944.91 Q886.417 4019.52 905.376 4056.95 Q924.577 4094.14 962.493 4094.14 Q1000.65 4094.14 1019.61 4056.95 Q1038.81 4019.52 1038.81 3944.91 Q1038.81 3870.05 1019.61 3832.86 Q1000.65 3795.43 962.493 3795.43 M962.493 3756.54 Q1023.5 3756.54 1055.58 3804.91 Q1087.91 3853.03 1087.91 3944.91 Q1087.91 4036.54 1055.58 4084.91 Q1023.5 4133.03 962.493 4133.03 Q901.487 4133.03 869.16 4084.91 Q837.077 4036.54 837.077 3944.91 Q837.077 3853.03 869.16 3804.91 Q901.487 3756.54 962.493 3756.54 Z"
     fill="#000000"
     fill-rule="evenodd"
     fill-opacity="1"
     id="path163" />
  <path
     clip-path="url(#clip330)"
     d="M 0 0 M1141.14 4064.25 L1192.42 4064.25 L1192.42 4125.98 L1141.14 4125.98 L1141.14 4064.25 Z"
     fill="#000000"
     fill-rule="evenodd"
     fill-opacity="1"
     id="path165" />
  <path
     clip-path="url(#clip330)"
     d="M 0 0 M1350.65 3953.66 Q1315.65 3953.66 1295.48 3972.37 Q1275.55 3991.09 1275.55 4023.9 Q1275.55 4056.71 1295.48 4075.43 Q1315.65 4094.14 1350.65 4094.14 Q1385.65 4094.14 1405.82 4075.43 Q1426 4056.47 1426 4023.9 Q1426 3991.09 1405.82 3972.37 Q1385.89 3953.66 1350.65 3953.66 M1301.55 3932.75 Q1269.96 3924.98 1252.21 3903.34 Q1234.71 3881.71 1234.71 3850.6 Q1234.71 3807.1 1265.58 3781.82 Q1296.69 3756.54 1350.65 3756.54 Q1404.85 3756.54 1435.72 3781.82 Q1466.59 3807.1 1466.59 3850.6 Q1466.59 3881.71 1448.84 3903.34 Q1431.34 3924.98 1399.99 3932.75 Q1435.48 3941.02 1455.16 3965.08 Q1475.09 3989.14 1475.09 4023.9 Q1475.09 4076.64 1442.77 4104.84 Q1410.69 4133.03 1350.65 4133.03 Q1290.62 4133.03 1258.29 4104.84 Q1226.21 4076.64 1226.21 4023.9 Q1226.21 3989.14 1246.14 3965.08 Q1266.07 3941.02 1301.55 3932.75 M1283.57 3855.22 Q1283.57 3883.41 1301.07 3899.21 Q1318.81 3915.01 1350.65 3915.01 Q1382.25 3915.01 1399.99 3899.21 Q1417.98 3883.41 1417.98 3855.22 Q1417.98 3827.03 1399.99 3811.23 Q1382.25 3795.43 1350.65 3795.43 Q1318.81 3795.43 1301.07 3811.23 Q1283.57 3827.03 1283.57 3855.22 Z"
     fill="#000000"
     fill-rule="evenodd"
     fill-opacity="1"
     id="path167" />
  <path
     clip-path="url(#clip330)"
     d="M 0 0 M877.91 1119.62 L958.118 1119.62 L958.118 842.781 L870.862 860.281 L870.862 815.559 L957.632 798.059 L1006.73 798.059 L1006.73 1119.62 L1086.94 1119.62 L1086.94 1160.94 L877.91 1160.94 L877.91 1119.62 Z"
     fill="#000000"
     fill-rule="evenodd"
     fill-opacity="1"
     id="path169" />
  <path
     clip-path="url(#clip330)"
     d="M 0 0 M1140.17 1099.2 L1191.45 1099.2 L1191.45 1160.94 L1140.17 1160.94 L1140.17 1099.2 Z"
     fill="#000000"
     fill-rule="evenodd"
     fill-opacity="1"
     id="path171" />
  <path
     clip-path="url(#clip330)"
     d="M 0 0 M1349.68 830.385 Q1311.76 830.385 1292.56 867.816 Q1273.6 905.003 1273.6 979.864 Q1273.6 1054.48 1292.56 1091.91 Q1311.76 1129.1 1349.68 1129.1 Q1387.84 1129.1 1406.8 1091.91 Q1426 1054.48 1426 979.864 Q1426 905.003 1406.8 867.816 Q1387.84 830.385 1349.68 830.385 M1349.68 791.497 Q1410.69 791.497 1442.77 839.865 Q1475.09 887.989 1475.09 979.864 Q1475.09 1071.5 1442.77 1119.86 Q1410.69 1167.99 1349.68 1167.99 Q1288.67 1167.99 1256.35 1119.86 Q1224.26 1071.5 1224.26 979.864 Q1224.26 887.989 1256.35 839.865 Q1288.67 791.497 1349.68 791.497 Z"
     fill="#000000"
     fill-rule="evenodd"
     fill-opacity="1"
     id="path173" />
  <path
     clip-path="url(#clip330)"
     d="M 0 0 M152.41 9210.65 L218.972 9210.65 Q189.285 9242.53 174.598 9278.78 Q159.91 9314.71 159.91 9355.34 Q159.91 9435.34 208.972 9477.84 Q257.722 9520.34 350.222 9520.34 Q442.409 9520.34 491.471 9477.84 Q540.221 9435.34 540.221 9355.34 Q540.221 9314.71 525.533 9278.78 Q510.846 9242.53 481.158 9210.65 L547.096 9210.65 Q569.596 9243.78 580.845 9280.97 Q592.095 9317.84 592.095 9359.09 Q592.095 9465.03 527.408 9525.96 Q462.409 9586.9 350.222 9586.9 Q237.722 9586.9 173.035 9525.96 Q108.035 9465.03 108.035 9359.09 Q108.035 9317.21 119.285 9280.34 Q130.223 9243.15 152.41 9210.65 Z"
     fill="#000000"
     fill-rule="evenodd"
     fill-opacity="1"
     id="path175" />
  <path
     clip-path="url(#clip330)"
     d="M 0 0 M444.909 9156.28 L233.035 9156.28 L233.035 9098.78 L442.721 9098.78 Q492.408 9098.78 517.408 9079.4 Q542.096 9060.03 542.096 9021.28 Q542.096 8974.72 512.408 8947.84 Q482.721 8920.65 431.471 8920.65 L233.035 8920.65 L233.035 8863.15 L583.033 8863.15 L583.033 8920.65 L529.283 8920.65 Q561.158 8941.59 576.783 8969.4 Q592.095 8996.9 592.095 9033.47 Q592.095 9093.78 554.596 9125.03 Q517.096 9156.28 444.909 9156.28 M224.597 9011.59 L224.597 9011.59 Z"
     fill="#000000"
     fill-rule="evenodd"
     fill-opacity="1"
     id="path177" />
  <path
     clip-path="url(#clip330)"
     d="M 0 0 M286.785 8600.03 Q281.16 8609.72 278.66 8621.28 Q275.847 8632.53 275.847 8646.28 Q275.847 8695.03 307.722 8721.28 Q339.284 8747.22 398.659 8747.22 L583.033 8747.22 L583.033 8805.03 L233.035 8805.03 L233.035 8747.22 L287.41 8747.22 Q255.535 8729.09 240.222 8700.03 Q224.597 8670.97 224.597 8629.41 Q224.597 8623.47 225.535 8616.28 Q226.16 8609.09 227.722 8600.34 L286.785 8600.03 Z"
     fill="#000000"
     fill-rule="evenodd"
     fill-opacity="1"
     id="path179" />
  <path
     clip-path="url(#clip330)"
     d="M 0 0 M286.785 8348.16 Q281.16 8357.84 278.66 8369.41 Q275.847 8380.66 275.847 8394.41 Q275.847 8443.16 307.722 8469.41 Q339.284 8495.34 398.659 8495.34 L583.033 8495.34 L583.033 8553.16 L233.035 8553.16 L233.035 8495.34 L287.41 8495.34 Q255.535 8477.22 240.222 8448.16 Q224.597 8419.09 224.597 8377.53 Q224.597 8371.59 225.535 8364.41 Q226.16 8357.22 227.722 8348.47 L286.785 8348.16 Z"
     fill="#000000"
     fill-rule="evenodd"
     fill-opacity="1"
     id="path181" />
  <path
     clip-path="url(#clip330)"
     d="M 0 0 M393.659 8002.53 L421.784 8002.53 L421.784 8266.91 Q481.158 8263.16 512.408 8231.28 Q543.346 8199.1 543.346 8141.91 Q543.346 8108.78 535.221 8077.85 Q527.096 8046.6 510.846 8015.97 L565.221 8015.97 Q578.345 8046.91 585.22 8079.41 Q592.095 8111.91 592.095 8145.35 Q592.095 8229.1 543.346 8278.16 Q494.596 8326.91 411.471 8326.91 Q325.534 8326.91 275.222 8280.66 Q224.597 8234.1 224.597 8155.35 Q224.597 8084.72 270.222 8043.78 Q315.534 8002.53 393.659 8002.53 M376.784 8060.03 Q329.597 8060.66 301.472 8086.6 Q273.347 8112.22 273.347 8154.72 Q273.347 8202.85 300.534 8231.91 Q327.722 8260.66 377.097 8265.03 L376.784 8060.03 Z"
     fill="#000000"
     fill-rule="evenodd"
     fill-opacity="1"
     id="path183" />
  <path
     clip-path="url(#clip330)"
     d="M 0 0 M371.784 7651.29 L583.033 7651.29 L583.033 7708.79 L373.659 7708.79 Q323.972 7708.79 299.284 7728.16 Q274.597 7747.54 274.597 7786.29 Q274.597 7832.85 304.284 7859.72 Q333.972 7886.6 385.222 7886.6 L583.033 7886.6 L583.033 7944.41 L233.035 7944.41 L233.035 7886.6 L287.41 7886.6 Q255.847 7865.97 240.222 7838.16 Q224.597 7810.04 224.597 7773.47 Q224.597 7713.16 262.097 7682.22 Q299.284 7651.29 371.784 7651.29 Z"
     fill="#000000"
     fill-rule="evenodd"
     fill-opacity="1"
     id="path185" />
  <path
     clip-path="url(#clip330)"
     d="M 0 0 M133.66 7534.1 L233.035 7534.1 L233.035 7415.66 L277.722 7415.66 L277.722 7534.1 L467.721 7534.1 Q510.533 7534.1 522.721 7522.54 Q534.908 7510.66 534.908 7474.72 L534.908 7415.66 L583.033 7415.66 L583.033 7474.72 Q583.033 7541.29 558.346 7566.6 Q533.346 7591.91 467.721 7591.91 L277.722 7591.91 L277.722 7634.1 L233.035 7634.1 L233.035 7591.91 L133.66 7591.91 L133.66 7534.1 Z"
     fill="#000000"
     fill-rule="evenodd"
     fill-opacity="1"
     id="path187" />
  <path
     clip-path="url(#clip330)"
     d="M 0 0 M393.659 6852.54 L421.784 6852.54 L421.784 7116.91 Q481.158 7113.16 512.408 7081.29 Q543.346 7049.1 543.346 6991.91 Q543.346 6958.79 535.221 6927.85 Q527.096 6896.6 510.846 6865.98 L565.221 6865.98 Q578.345 6896.92 585.22 6929.42 Q592.095 6961.91 592.095 6995.35 Q592.095 7079.1 543.346 7128.16 Q494.596 7176.91 411.471 7176.91 Q325.534 7176.91 275.222 7130.66 Q224.597 7084.1 224.597 7005.35 Q224.597 6934.73 270.222 6893.79 Q315.534 6852.54 393.659 6852.54 M376.784 6910.04 Q329.597 6910.67 301.472 6936.6 Q273.347 6962.23 273.347 7004.73 Q273.347 7052.85 300.534 7081.91 Q327.722 7110.66 377.097 7115.04 L376.784 6910.04 Z"
     fill="#000000"
     fill-rule="evenodd"
     fill-opacity="1"
     id="path189" />
  <path
     clip-path="url(#clip330)"
     d="M 0 0 M96.7856 6615.04 L144.598 6615.04 L144.598 6670.04 Q144.598 6700.98 157.098 6713.17 Q169.598 6725.04 202.097 6725.04 L233.035 6725.04 L233.035 6630.35 L277.722 6630.35 L277.722 6725.04 L583.033 6725.04 L583.033 6782.85 L277.722 6782.85 L277.722 6837.85 L233.035 6837.85 L233.035 6782.85 L208.66 6782.85 Q150.223 6782.85 123.66 6755.67 Q96.7856 6728.48 96.7856 6669.42 L96.7856 6615.04 Z"
     fill="#000000"
     fill-rule="evenodd"
     fill-opacity="1"
     id="path191" />
  <path
     clip-path="url(#clip330)"
     d="M 0 0 M96.7856 6377.54 L144.598 6377.54 L144.598 6432.54 Q144.598 6463.48 157.098 6475.67 Q169.598 6487.54 202.097 6487.54 L233.035 6487.54 L233.035 6392.86 L277.722 6392.86 L277.722 6487.54 L583.033 6487.54 L583.033 6545.35 L277.722 6545.35 L277.722 6600.35 L233.035 6600.35 L233.035 6545.35 L208.66 6545.35 Q150.223 6545.35 123.66 6518.17 Q96.7856 6490.98 96.7856 6431.92 L96.7856 6377.54 Z"
     fill="#000000"
     fill-rule="evenodd"
     fill-opacity="1"
     id="path193" />
  <path
     clip-path="url(#clip330)"
     d="M 0 0 M233.035 6317.23 L233.035 6259.73 L583.033 6259.73 L583.033 6317.23 L233.035 6317.23 M96.7856 6317.23 L96.7856 6259.73 L169.598 6259.73 L169.598 6317.23 L96.7856 6317.23 Z"
     fill="#000000"
     fill-rule="evenodd"
     fill-opacity="1"
     id="path195" />
  <path
     clip-path="url(#clip330)"
     d="M 0 0 M246.472 5947.55 L300.222 5947.55 Q286.785 5971.92 280.222 5996.61 Q273.347 6020.98 273.347 6045.98 Q273.347 6101.92 308.972 6132.86 Q344.284 6163.79 408.346 6163.79 Q472.409 6163.79 508.033 6132.86 Q543.346 6101.92 543.346 6045.98 Q543.346 6020.98 536.783 5996.61 Q529.908 5971.92 516.471 5947.55 L569.596 5947.55 Q580.845 5971.61 586.47 5997.55 Q592.095 6023.17 592.095 6052.23 Q592.095 6131.29 542.408 6177.86 Q492.721 6224.42 408.346 6224.42 Q322.722 6224.42 273.66 6177.54 Q224.597 6130.36 224.597 6048.48 Q224.597 6021.92 230.222 5996.61 Q235.535 5971.3 246.472 5947.55 Z"
     fill="#000000"
     fill-rule="evenodd"
     fill-opacity="1"
     id="path197" />
  <path
     clip-path="url(#clip330)"
     d="M 0 0 M233.035 5887.23 L233.035 5829.73 L583.033 5829.73 L583.033 5887.23 L233.035 5887.23 M96.7856 5887.23 L96.7856 5829.73 L169.598 5829.73 L169.598 5887.23 L96.7856 5887.23 Z"
     fill="#000000"
     fill-rule="evenodd"
     fill-opacity="1"
     id="path199" />
  <path
     clip-path="url(#clip330)"
     d="M 0 0 M393.659 5470.05 L421.784 5470.05 L421.784 5734.42 Q481.158 5730.67 512.408 5698.8 Q543.346 5666.61 543.346 5609.42 Q543.346 5576.3 535.221 5545.36 Q527.096 5514.11 510.846 5483.49 L565.221 5483.49 Q578.345 5514.42 585.22 5546.92 Q592.095 5579.42 592.095 5612.86 Q592.095 5696.61 543.346 5745.67 Q494.596 5794.42 411.471 5794.42 Q325.534 5794.42 275.222 5748.17 Q224.597 5701.61 224.597 5622.86 Q224.597 5552.24 270.222 5511.3 Q315.534 5470.05 393.659 5470.05 M376.784 5527.55 Q329.597 5528.17 301.472 5554.11 Q273.347 5579.73 273.347 5622.23 Q273.347 5670.36 300.534 5699.42 Q327.722 5728.17 377.097 5732.55 L376.784 5527.55 Z"
     fill="#000000"
     fill-rule="evenodd"
     fill-opacity="1"
     id="path201" />
  <path
     clip-path="url(#clip330)"
     d="M 0 0 M371.784 5118.8 L583.033 5118.8 L583.033 5176.3 L373.659 5176.3 Q323.972 5176.3 299.284 5195.67 Q274.597 5215.05 274.597 5253.8 Q274.597 5300.36 304.284 5327.24 Q333.972 5354.11 385.222 5354.11 L583.033 5354.11 L583.033 5411.92 L233.035 5411.92 L233.035 5354.11 L287.41 5354.11 Q255.847 5333.49 240.222 5305.67 Q224.597 5277.55 224.597 5240.99 Q224.597 5180.67 262.097 5149.74 Q299.284 5118.8 371.784 5118.8 Z"
     fill="#000000"
     fill-rule="evenodd"
     fill-opacity="1"
     id="path203" />
  <path
     clip-path="url(#clip330)"
     d="M 0 0 M246.472 4806.61 L300.222 4806.61 Q286.785 4830.99 280.222 4855.68 Q273.347 4880.05 273.347 4905.05 Q273.347 4960.99 308.972 4991.93 Q344.284 5022.86 408.346 5022.86 Q472.409 5022.86 508.033 4991.93 Q543.346 4960.99 543.346 4905.05 Q543.346 4880.05 536.783 4855.68 Q529.908 4830.99 516.471 4806.61 L569.596 4806.61 Q580.845 4830.68 586.47 4856.61 Q592.095 4882.24 592.095 4911.3 Q592.095 4990.36 542.408 5036.93 Q492.721 5083.49 408.346 5083.49 Q322.722 5083.49 273.66 5036.61 Q224.597 4989.43 224.597 4907.55 Q224.597 4880.99 230.222 4855.68 Q235.535 4830.36 246.472 4806.61 Z"
     fill="#000000"
     fill-rule="evenodd"
     fill-opacity="1"
     id="path205" />
  <path
     clip-path="url(#clip330)"
     d="M 0 0 M615.533 4600.68 Q678.032 4625.05 697.095 4648.18 Q716.157 4671.3 716.157 4710.05 L716.157 4755.99 L668.032 4755.99 L668.032 4722.24 Q668.032 4698.49 656.783 4685.36 Q645.533 4672.24 603.658 4656.3 L577.408 4645.99 L233.035 4787.55 L233.035 4726.61 L506.783 4617.24 L233.035 4507.87 L233.035 4446.93 L615.533 4600.68 Z"
     fill="#000000"
     fill-rule="evenodd"
     fill-opacity="1"
     id="path207" />
  <path
     clip-path="url(#clip330)"
     d="M 0 0 M97.4105 4045.06 Q169.285 4086.93 239.597 4107.24 Q309.909 4127.56 382.097 4127.56 Q454.284 4127.56 525.221 4107.24 Q595.845 4086.62 667.407 4045.06 L667.407 4095.06 Q593.97 4141.93 523.033 4165.37 Q452.096 4188.49 382.097 4188.49 Q312.409 4188.49 241.785 4165.37 Q171.16 4142.24 97.4105 4095.06 L97.4105 4045.06 Z"
     fill="#000000"
     fill-rule="evenodd"
     fill-opacity="1"
     id="path209" />
  <path
     clip-path="url(#clip330)"
     d="M 0 0 M382.097 4013.81 L382.097 3845.37 L433.346 3845.37 L433.346 4013.81 L382.097 4013.81 Z"
     fill="#000000"
     fill-rule="evenodd"
     fill-opacity="1"
     id="path211" />
  <path
     clip-path="url(#clip330)"
     d="M 0 0 M97.4105 3794.12 L97.4105 3744.12 Q171.16 3697.24 241.785 3674.12 Q312.409 3650.68 382.097 3650.68 Q452.096 3650.68 523.033 3674.12 Q593.97 3697.24 667.407 3744.12 L667.407 3794.12 Q595.845 3752.56 525.221 3732.24 Q454.284 3711.62 382.097 3711.62 Q309.909 3711.62 239.597 3732.24 Q169.285 3752.56 97.4105 3794.12 Z"
     fill="#000000"
     fill-rule="evenodd"
     fill-opacity="1"
     id="path213" />
  <polyline
     clip-path="url(#clip332)"
     style="stroke:#000000; stroke-width:48; stroke-opacity:1; fill:none"
     points="   2351.48,2072.14 2351.48,893.47    "
     id="polyline217" />
  <polyline
     clip-path="url(#clip332)"
     style="stroke:#000000; stroke-width:48; stroke-opacity:1; fill:none"
     points="   13399.1,1832.54 13399.1,642.068    "
     id="polyline219" />
  <polyline
     clip-path="url(#clip332)"
     style="stroke:#000000; stroke-width:48; stroke-opacity:1; fill:none"
     points="   17081.6,2917.54 17081.6,2410.13    "
     id="polyline221" />
  <polyline
     clip-path="url(#clip332)"
     style="stroke:#000000; stroke-width:48; stroke-opacity:1; fill:none"
     points="   20764.2,10064.6 20764.2,9287.97    "
     id="polyline223" />
  <line
     clip-path="url(#clip332)"
     x1="2447.48"
     y1="2072.14"
     x2="2255.48"
     y2="2072.14"
     style="stroke:#000000; stroke-width:28.8; stroke-opacity:1"
     id="line225" />
  <line
     clip-path="url(#clip332)"
     x1="2447.48"
     y1="893.47"
     x2="2255.48"
     y2="893.47"
     style="stroke:#000000; stroke-width:28.8; stroke-opacity:1"
     id="line227" />
  <line
     clip-path="url(#clip332)"
     x1="13495.1"
     y1="1832.54"
     x2="13303.1"
     y2="1832.54"
     style="stroke:#000000; stroke-width:28.8; stroke-opacity:1"
     id="line229" />
  <line
     clip-path="url(#clip332)"
     x1="13495.1"
     y1="642.068"
     x2="13303.1"
     y2="642.068"
     style="stroke:#000000; stroke-width:28.8; stroke-opacity:1"
     id="line231" />
  <line
     clip-path="url(#clip332)"
     x1="17177.6"
     y1="2917.54"
     x2="16985.6"
     y2="2917.54"
     style="stroke:#000000; stroke-width:28.8; stroke-opacity:1"
     id="line233" />
  <line
     clip-path="url(#clip332)"
     x1="17177.6"
     y1="2410.13"
     x2="16985.6"
     y2="2410.13"
     style="stroke:#000000; stroke-width:28.8; stroke-opacity:1"
     id="line235" />
  <line
     clip-path="url(#clip332)"
     x1="20860.2"
     y1="10064.6"
     x2="20668.2"
     y2="10064.6"
     style="stroke:#000000; stroke-width:28.8; stroke-opacity:1"
     id="line237" />
  <line
     clip-path="url(#clip332)"
     x1="20860.2"
     y1="9287.97"
     x2="20668.2"
     y2="9287.97"
     style="stroke:#000000; stroke-width:28.8; stroke-opacity:1"
     id="line239" />
  <circle
     clip-path="url(#clip332)"
     cx="2351.48"
     cy="1482.8"
     r="86"
     fill="#808080"
     fill-rule="evenodd"
     fill-opacity="1"
     stroke="#000000"
     stroke-opacity="1"
     stroke-width="28.8"
     id="circle241" />
  <circle
     clip-path="url(#clip332)"
     cx="13399.1"
     cy="1237.3"
     r="86"
     fill="#808080"
     fill-rule="evenodd"
     fill-opacity="1"
     stroke="#000000"
     stroke-opacity="1"
     stroke-width="28.8"
     id="circle243" />
  <circle
     clip-path="url(#clip332)"
     cx="17081.6"
     cy="2663.84"
     r="86"
     fill="#808080"
     fill-rule="evenodd"
     fill-opacity="1"
     stroke="#000000"
     stroke-opacity="1"
     stroke-width="28.8"
     id="circle245" />
  <circle
     clip-path="url(#clip332)"
     cx="20764.2"
     cy="9676.29"
     r="86"
     fill="#808080"
     fill-rule="evenodd"
     fill-opacity="1"
     stroke="#000000"
     stroke-opacity="1"
     stroke-width="28.8"
     id="circle247" />
  <path
     clip-path="url(#clip330)"
     d="M 2449.68,12531.8 7409.03,12531.8 7409.03,10626.6 2449.68,10626.6 Z"
     id="path249"
     inkscape:connector-curvature="0"
     transform="matrix(1,0,0,0.6377976,0,4539.048)"
     style="fill:#ffffff;fill-opacity:1;fill-rule:evenodd" />
  <polyline
     clip-path="url(#clip330)"
     style="fill:none;stroke:#000000;stroke-width:24;stroke-opacity:1"
     points="   2449.68,12531.8 7409.03,12531.8 7409.03,10626.6 2449.68,10626.6 2449.68,12531.8    "
     id="polyline251"
     transform="matrix(1.000965,0,0,0.6403097,-4.757143,4509.96)" />
  <circle
     clip-path="url(#clip330)"
     cx="3317.12"
     cy="11896.7"
     r="241"
     fill="#808080"
     fill-rule="evenodd"
     fill-opacity="1"
     stroke="#000000"
     stroke-opacity="1"
     stroke-width="80.64"
     id="circle275" />
  <path
     clip-path="url(#clip330)"
     d="M 0 0 M4184.56 11715.3 L4414 11715.3 L4414 11756.6 L4233.66 11756.6 L4233.66 11864 L4406.47 11864 L4406.47 11905.4 L4233.66 11905.4 L4233.66 12036.8 L4418.38 12036.8 L4418.38 12078.2 L4184.56 12078.2 L4184.56 11715.3 Z"
     fill="#000000"
     fill-rule="evenodd"
     fill-opacity="1"
     id="path277" />
  <path
     clip-path="url(#clip330)"
     d="M 0 0 M4691.57 11805.9 L4593.13 11938.4 L4696.68 12078.2 L4643.93 12078.2 L4564.7 11971.2 L4485.46 12078.2 L4432.72 12078.2 L4538.45 11935.7 L4441.71 11805.9 L4494.45 11805.9 L4566.64 11902.9 L4638.83 11805.9 L4691.57 11805.9 Z"
     fill="#000000"
     fill-rule="evenodd"
     fill-opacity="1"
     id="path279" />
  <path
     clip-path="url(#clip330)"
     d="M 0 0 M4786.85 12037.3 L4786.85 12181.7 L4741.88 12181.7 L4741.88 11805.9 L4786.85 11805.9 L4786.85 11847.3 Q4800.95 11823 4822.33 11811.3 Q4843.97 11799.4 4873.86 11799.4 Q4923.44 11799.4 4954.31 11838.8 Q4985.42 11878.1 4985.42 11942.3 Q4985.42 12006.5 4954.31 12045.8 Q4923.44 12085.2 4873.86 12085.2 Q4843.97 12085.2 4822.33 12073.5 Q4800.95 12061.6 4786.85 12037.3 M4939 11942.3 Q4939 11893 4918.58 11865 Q4898.41 11836.8 4862.92 11836.8 Q4827.44 11836.8 4807.02 11865 Q4786.85 11893 4786.85 11942.3 Q4786.85 11991.6 4807.02 12019.8 Q4827.44 12047.8 4862.92 12047.8 Q4898.41 12047.8 4918.58 12019.8 Q4939 11991.6 4939 11942.3 Z"
     fill="#000000"
     fill-rule="evenodd"
     fill-opacity="1"
     id="path281" />
  <path
     clip-path="url(#clip330)"
     d="M 0 0 M5265.18 11930.9 L5265.18 11952.7 L5059.56 11952.7 Q5062.47 11998.9 5087.26 12023.2 Q5112.3 12047.3 5156.78 12047.3 Q5182.54 12047.3 5206.6 12041 Q5230.91 12034.7 5254.73 12022 L5254.73 12064.3 Q5230.67 12074.5 5205.39 12079.9 Q5180.11 12085.2 5154.1 12085.2 Q5088.96 12085.2 5050.81 12047.3 Q5012.89 12009.4 5012.89 11944.7 Q5012.89 11877.9 5048.86 11838.8 Q5085.08 11799.4 5146.33 11799.4 Q5201.26 11799.4 5233.1 11834.9 Q5265.18 11870.1 5265.18 11930.9 M5220.46 11917.7 Q5219.97 11881 5199.8 11859.2 Q5179.87 11837.3 5146.81 11837.3 Q5109.38 11837.3 5086.78 11858.4 Q5064.42 11879.6 5061.01 11918 L5220.46 11917.7 Z"
     fill="#000000"
     fill-rule="evenodd"
     fill-opacity="1"
     id="path283" />
  <path
     clip-path="url(#clip330)"
     d="M 0 0 M5469.83 11847.7 Q5462.3 11843.4 5453.3 11841.4 Q5444.55 11839.2 5433.86 11839.2 Q5395.94 11839.2 5375.53 11864 Q5355.35 11888.6 5355.35 11934.8 L5355.35 12078.2 L5310.39 12078.2 L5310.39 11805.9 L5355.35 11805.9 L5355.35 11848.2 Q5369.45 11823.4 5392.05 11811.5 Q5414.66 11799.4 5446.98 11799.4 Q5451.6 11799.4 5457.19 11800.1 Q5462.78 11800.6 5469.59 11801.8 L5469.83 11847.7 Z"
     fill="#000000"
     fill-rule="evenodd"
     fill-opacity="1"
     id="path285" />
  <path
     clip-path="url(#clip330)"
     d="M 0 0 M5516.74 11805.9 L5561.46 11805.9 L5561.46 12078.2 L5516.74 12078.2 L5516.74 11805.9 M5516.74 11700 L5561.46 11700 L5561.46 11756.6 L5516.74 11756.6 L5516.74 11700 Z"
     fill="#000000"
     fill-rule="evenodd"
     fill-opacity="1"
     id="path287" />
  <path
     clip-path="url(#clip330)"
     d="M 0 0 M5820.31 11858.2 Q5837.09 11828.1 5860.42 11813.7 Q5883.75 11799.4 5915.35 11799.4 Q5957.88 11799.4 5980.97 11829.3 Q6004.06 11858.9 6004.06 11913.9 L6004.06 12078.2 L5959.1 12078.2 L5959.1 11915.3 Q5959.1 11876.2 5945.24 11857.2 Q5931.39 11838.3 5902.95 11838.3 Q5868.2 11838.3 5848.02 11861.4 Q5827.85 11884.4 5827.85 11924.3 L5827.85 12078.2 L5782.88 12078.2 L5782.88 11915.3 Q5782.88 11875.9 5769.03 11857.2 Q5755.18 11838.3 5726.25 11838.3 Q5691.98 11838.3 5671.81 11861.6 Q5651.64 11884.7 5651.64 11924.3 L5651.64 12078.2 L5606.67 12078.2 L5606.67 11805.9 L5651.64 11805.9 L5651.64 11848.2 Q5666.95 11823.2 5688.34 11811.3 Q5709.73 11799.4 5739.13 11799.4 Q5768.79 11799.4 5789.45 11814.5 Q5810.35 11829.5 5820.31 11858.2 Z"
     fill="#000000"
     fill-rule="evenodd"
     fill-opacity="1"
     id="path289" />
  <path
     clip-path="url(#clip330)"
     d="M 0 0 M6283.82 11930.9 L6283.82 11952.7 L6078.2 11952.7 Q6081.11 11998.9 6105.9 12023.2 Q6130.94 12047.3 6175.42 12047.3 Q6201.18 12047.3 6225.24 12041 Q6249.55 12034.7 6273.37 12022 L6273.37 12064.3 Q6249.31 12074.5 6224.03 12079.9 Q6198.75 12085.2 6172.74 12085.2 Q6107.6 12085.2 6069.45 12047.3 Q6031.53 12009.4 6031.53 11944.7 Q6031.53 11877.9 6067.5 11838.8 Q6103.72 11799.4 6164.97 11799.4 Q6219.9 11799.4 6251.74 11834.9 Q6283.82 11870.1 6283.82 11930.9 M6239.1 11917.7 Q6238.61 11881 6218.44 11859.2 Q6198.51 11837.3 6165.45 11837.3 Q6128.02 11837.3 6105.42 11858.4 Q6083.06 11879.6 6079.65 11918 L6239.1 11917.7 Z"
     fill="#000000"
     fill-rule="evenodd"
     fill-opacity="1"
     id="path291" />
  <path
     clip-path="url(#clip330)"
     d="M 0 0 M6557.01 11913.9 L6557.01 12078.2 L6512.29 12078.2 L6512.29 11915.3 Q6512.29 11876.7 6497.22 11857.5 Q6482.15 11838.3 6452.01 11838.3 Q6415.8 11838.3 6394.9 11861.4 Q6373.99 11884.4 6373.99 11924.3 L6373.99 12078.2 L6329.03 12078.2 L6329.03 11805.9 L6373.99 11805.9 L6373.99 11848.2 Q6390.03 11823.7 6411.67 11811.5 Q6433.54 11799.4 6461.98 11799.4 Q6508.89 11799.4 6532.95 11828.5 Q6557.01 11857.5 6557.01 11913.9 Z"
     fill="#000000"
     fill-rule="evenodd"
     fill-opacity="1"
     id="path293" />
  <path
     clip-path="url(#clip330)"
     d="M 0 0 M6648.16 11728.7 L6648.16 11805.9 L6740.28 11805.9 L6740.28 11840.7 L6648.16 11840.7 L6648.16 11988.5 Q6648.16 12021.8 6657.15 12031.3 Q6666.39 12040.7 6694.34 12040.7 L6740.28 12040.7 L6740.28 12078.2 L6694.34 12078.2 Q6642.57 12078.2 6622.88 12059 Q6603.19 12039.5 6603.19 11988.5 L6603.19 11840.7 L6570.38 11840.7 L6570.38 11805.9 L6603.19 11805.9 L6603.19 11728.7 L6648.16 11728.7 Z"
     fill="#000000"
     fill-rule="evenodd"
     fill-opacity="1"
     id="path295" />
  <path
     clip-path="url(#clip330)"
     d="M 0 0 M6960.73 11814 L6960.73 11856.3 Q6941.77 11846.5 6921.35 11841.7 Q6900.93 11836.8 6879.06 11836.8 Q6845.76 11836.8 6828.99 11847 Q6812.46 11857.2 6812.46 11877.6 Q6812.46 11893.2 6824.37 11902.2 Q6836.28 11910.9 6872.25 11919 L6887.57 11922.4 Q6935.2 11932.6 6955.14 11951.3 Q6975.31 11969.8 6975.31 12003.1 Q6975.31 12041 6945.17 12063.1 Q6915.27 12085.2 6862.77 12085.2 Q6840.9 12085.2 6817.08 12080.8 Q6793.5 12076.7 6767.25 12068.2 L6767.25 12022 Q6792.05 12034.9 6816.11 12041.5 Q6840.17 12047.8 6863.75 12047.8 Q6895.34 12047.8 6912.36 12037.1 Q6929.37 12026.2 6929.37 12006.5 Q6929.37 11988.2 6916.98 11978.5 Q6904.82 11968.8 6863.26 11959.8 L6847.71 11956.2 Q6806.14 11947.4 6787.67 11929.4 Q6769.2 11911.2 6769.2 11879.6 Q6769.2 11841.2 6796.42 11820.3 Q6823.64 11799.4 6873.71 11799.4 Q6898.5 11799.4 6920.38 11803 Q6942.25 11806.7 6960.73 11814 Z"
     fill="#000000"
     fill-rule="evenodd"
     fill-opacity="1"
     id="path297" />
</svg>
