<?xml version="1.0" encoding="UTF-8" standalone="no"?>
<svg
   xmlns:dc="http://purl.org/dc/elements/1.1/"
   xmlns:cc="http://creativecommons.org/ns#"
   xmlns:rdf="http://www.w3.org/1999/02/22-rdf-syntax-ns#"
   xmlns:svg="http://www.w3.org/2000/svg"
   xmlns="http://www.w3.org/2000/svg"
   xmlns:sodipodi="http://sodipodi.sourceforge.net/DTD/sodipodi-0.dtd"
   xmlns:inkscape="http://www.inkscape.org/namespaces/inkscape"
   width="5400"
   height="3600"
   viewBox="0 0 21600 14400"
   id="svg2"
   version="1.1"
   inkscape:version="0.91 r13725"
   sodipodi:docname="Energy_vs_alpha.svg">
  <metadata
     id="metadata357">
    <rdf:RDF>
      <cc:Work
         rdf:about="">
        <dc:format>image/svg+xml</dc:format>
        <dc:type
           rdf:resource="http://purl.org/dc/dcmitype/StillImage" />
      </cc:Work>
    </rdf:RDF>
  </metadata>
  <sodipodi:namedview
     pagecolor="#ffffff"
     bordercolor="#666666"
     borderopacity="1"
     objecttolerance="10"
     gridtolerance="10"
     guidetolerance="10"
     inkscape:pageopacity="0"
     inkscape:pageshadow="2"
     inkscape:window-width="2560"
     inkscape:window-height="1386"
     id="namedview355"
     showgrid="false"
     inkscape:zoom="0.2608438"
     inkscape:cx="1629.895"
     inkscape:cy="1506.004"
     inkscape:window-x="0"
     inkscape:window-y="0"
     inkscape:window-maximized="1"
     inkscape:current-layer="svg2" />
  <defs
     id="defs4">
    <clipPath
       id="clip670">
      <rect
         x="0"
         y="0"
         width="21600"
         height="14400"
         id="rect7" />
    </clipPath>
    <clipPath
       id="clip670-3">
      <rect
         x="0"
         y="0"
         width="21600"
         height="14400"
         id="rect7-6" />
    </clipPath>
  </defs>
  <path
     clip-path="url(#clip670)"
     d=" M0 14400 L21600 14400 L21600 0 L0 0  Z   "
     fill="#ffffff"
     fill-rule="evenodd"
     fill-opacity="1"
     id="path9" />
  <defs
     id="defs11">
    <clipPath
       id="clip671">
      <rect
         x="4320"
         y="0"
         width="15121"
         height="14400"
         id="rect14" />
    </clipPath>
  </defs>
  <path
     clip-path="url(#clip670)"
     d=" M1986.73 12954.1 L21316.5 12954.1 L21316.5 283.465 L1986.73 283.465  Z   "
     fill="#ffffff"
     fill-rule="evenodd"
     fill-opacity="1"
     id="path16" />
  <defs
     id="defs18">
    <clipPath
       id="clip672">
      <rect
         x="1986"
         y="283"
         width="19331"
         height="12672"
         id="rect21" />
    </clipPath>
  </defs>
  <polyline
     clip-path="url(#clip670)"
     style="stroke:#000000; stroke-width:24; stroke-opacity:1; fill:none"
     points="   1986.73,12954.1 21316.5,12954.1    "
     id="polyline23" />
  <polyline
     clip-path="url(#clip670)"
     style="stroke:#000000; stroke-width:24; stroke-opacity:1; fill:none"
     points="   4789.78,12954.1 4789.78,12802.1    "
     id="polyline25" />
  <polyline
     clip-path="url(#clip670)"
     style="stroke:#000000; stroke-width:24; stroke-opacity:1; fill:none"
     points="   9348.7,12954.1 9348.7,12802.1    "
     id="polyline27" />
  <polyline
     clip-path="url(#clip670)"
     style="stroke:#000000; stroke-width:24; stroke-opacity:1; fill:none"
     points="   13907.6,12954.1 13907.6,12802.1    "
     id="polyline29" />
  <polyline
     clip-path="url(#clip670)"
     style="stroke:#000000; stroke-width:24; stroke-opacity:1; fill:none"
     points="   18466.5,12954.1 18466.5,12802.1    "
     id="polyline31" />
  <polyline
     clip-path="url(#clip670)"
     style="stroke:#000000; stroke-width:24; stroke-opacity:1; fill:none"
     points="   2269.42,12954.1 2269.42,12878.1    "
     id="polyline33" />
  <polyline
     clip-path="url(#clip670)"
     style="stroke:#000000; stroke-width:24; stroke-opacity:1; fill:none"
     points="   3252.32,12954.1 3252.32,12878.1    "
     id="polyline35" />
  <polyline
     clip-path="url(#clip670)"
     style="stroke:#000000; stroke-width:24; stroke-opacity:1; fill:none"
     points="   3906.17,12954.1 3906.17,12878.1    "
     id="polyline37" />
  <polyline
     clip-path="url(#clip670)"
     style="stroke:#000000; stroke-width:24; stroke-opacity:1; fill:none"
     points="   4396.87,12954.1 4396.87,12878.1    "
     id="polyline39" />
  <polyline
     clip-path="url(#clip670)"
     style="stroke:#000000; stroke-width:24; stroke-opacity:1; fill:none"
     points="   6828.34,12954.1 6828.34,12878.1    "
     id="polyline41" />
  <polyline
     clip-path="url(#clip670)"
     style="stroke:#000000; stroke-width:24; stroke-opacity:1; fill:none"
     points="   7811.24,12954.1 7811.24,12878.1    "
     id="polyline43" />
  <polyline
     clip-path="url(#clip670)"
     style="stroke:#000000; stroke-width:24; stroke-opacity:1; fill:none"
     points="   8465.09,12954.1 8465.09,12878.1    "
     id="polyline45" />
  <polyline
     clip-path="url(#clip670)"
     style="stroke:#000000; stroke-width:24; stroke-opacity:1; fill:none"
     points="   8955.78,12954.1 8955.78,12878.1    "
     id="polyline47" />
  <polyline
     clip-path="url(#clip670)"
     style="stroke:#000000; stroke-width:24; stroke-opacity:1; fill:none"
     points="   11387.3,12954.1 11387.3,12878.1    "
     id="polyline49" />
  <polyline
     clip-path="url(#clip670)"
     style="stroke:#000000; stroke-width:24; stroke-opacity:1; fill:none"
     points="   12370.2,12954.1 12370.2,12878.1    "
     id="polyline51" />
  <polyline
     clip-path="url(#clip670)"
     style="stroke:#000000; stroke-width:24; stroke-opacity:1; fill:none"
     points="   13024,12954.1 13024,12878.1    "
     id="polyline53" />
  <polyline
     clip-path="url(#clip670)"
     style="stroke:#000000; stroke-width:24; stroke-opacity:1; fill:none"
     points="   13514.7,12954.1 13514.7,12878.1    "
     id="polyline55" />
  <polyline
     clip-path="url(#clip670)"
     style="stroke:#000000; stroke-width:24; stroke-opacity:1; fill:none"
     points="   15946.2,12954.1 15946.2,12878.1    "
     id="polyline57" />
  <polyline
     clip-path="url(#clip670)"
     style="stroke:#000000; stroke-width:24; stroke-opacity:1; fill:none"
     points="   16929.1,12954.1 16929.1,12878.1    "
     id="polyline59" />
  <polyline
     clip-path="url(#clip670)"
     style="stroke:#000000; stroke-width:24; stroke-opacity:1; fill:none"
     points="   17582.9,12954.1 17582.9,12878.1    "
     id="polyline61" />
  <polyline
     clip-path="url(#clip670)"
     style="stroke:#000000; stroke-width:24; stroke-opacity:1; fill:none"
     points="   18073.6,12954.1 18073.6,12878.1    "
     id="polyline63" />
  <polyline
     clip-path="url(#clip670)"
     style="stroke:#000000; stroke-width:24; stroke-opacity:1; fill:none"
     points="   20505.1,12954.1 20505.1,12878.1    "
     id="polyline65" />
  <path
     clip-path="url(#clip670)"
     d="M 0 0 M4460.32 13231.8 Q4422.41 13231.8 4403.2 13269.3 Q4384.25 13306.4 4384.25 13381.3 Q4384.25 13455.9 4403.2 13493.3 Q4422.41 13530.5 4460.32 13530.5 Q4498.48 13530.5 4517.44 13493.3 Q4536.64 13455.9 4536.64 13381.3 Q4536.64 13306.4 4517.44 13269.3 Q4498.48 13231.8 4460.32 13231.8 M4460.32 13192.9 Q4521.33 13192.9 4553.41 13241.3 Q4585.74 13289.4 4585.74 13381.3 Q4585.74 13472.9 4553.41 13521.3 Q4521.33 13569.4 4460.32 13569.4 Q4399.32 13569.4 4366.99 13521.3 Q4334.91 13472.9 4334.91 13381.3 Q4334.91 13289.4 4366.99 13241.3 Q4399.32 13192.9 4460.32 13192.9 Z"
     fill="#000000"
     fill-rule="evenodd"
     fill-opacity="1"
     id="path67" />
  <path
     clip-path="url(#clip670)"
     d="M 0 0 M4638.97 13500.6 L4690.25 13500.6 L4690.25 13562.4 L4638.97 13562.4 L4638.97 13500.6 Z"
     fill="#000000"
     fill-rule="evenodd"
     fill-opacity="1"
     id="path69" />
  <path
     clip-path="url(#clip670)"
     d="M 0 0 M4848.48 13231.8 Q4810.56 13231.8 4791.36 13269.3 Q4772.4 13306.4 4772.4 13381.3 Q4772.4 13455.9 4791.36 13493.3 Q4810.56 13530.5 4848.48 13530.5 Q4886.64 13530.5 4905.6 13493.3 Q4924.8 13455.9 4924.8 13381.3 Q4924.8 13306.4 4905.6 13269.3 Q4886.64 13231.8 4848.48 13231.8 M4848.48 13192.9 Q4909.49 13192.9 4941.57 13241.3 Q4973.9 13289.4 4973.9 13381.3 Q4973.9 13472.9 4941.57 13521.3 Q4909.49 13569.4 4848.48 13569.4 Q4787.47 13569.4 4755.15 13521.3 Q4723.06 13472.9 4723.06 13381.3 Q4723.06 13289.4 4755.15 13241.3 Q4787.47 13192.9 4848.48 13192.9 Z"
     fill="#000000"
     fill-rule="evenodd"
     fill-opacity="1"
     id="path71" />
  <path
     clip-path="url(#clip670)"
     d="M 0 0 M5035.63 13521.1 L5115.84 13521.1 L5115.84 13244.2 L5028.58 13261.7 L5028.58 13217 L5115.35 13199.5 L5164.45 13199.5 L5164.45 13521.1 L5244.66 13521.1 L5244.66 13562.4 L5035.63 13562.4 L5035.63 13521.1 Z"
     fill="#000000"
     fill-rule="evenodd"
     fill-opacity="1"
     id="path73" />
  <path
     clip-path="url(#clip670)"
     d="M 0 0 M9161.06 13231.8 Q9123.14 13231.8 9103.94 13269.3 Q9084.98 13306.4 9084.98 13381.3 Q9084.98 13455.9 9103.94 13493.3 Q9123.14 13530.5 9161.06 13530.5 Q9199.22 13530.5 9218.18 13493.3 Q9237.38 13455.9 9237.38 13381.3 Q9237.38 13306.4 9218.18 13269.3 Q9199.22 13231.8 9161.06 13231.8 M9161.06 13192.9 Q9222.07 13192.9 9254.15 13241.3 Q9286.48 13289.4 9286.48 13381.3 Q9286.48 13472.9 9254.15 13521.3 Q9222.07 13569.4 9161.06 13569.4 Q9100.05 13569.4 9067.73 13521.3 Q9035.64 13472.9 9035.64 13381.3 Q9035.64 13289.4 9067.73 13241.3 Q9100.05 13192.9 9161.06 13192.9 Z"
     fill="#000000"
     fill-rule="evenodd"
     fill-opacity="1"
     id="path75" />
  <path
     clip-path="url(#clip670)"
     d="M 0 0 M9339.7 13500.6 L9390.99 13500.6 L9390.99 13562.4 L9339.7 13562.4 L9339.7 13500.6 Z"
     fill="#000000"
     fill-rule="evenodd"
     fill-opacity="1"
     id="path77" />
  <path
     clip-path="url(#clip670)"
     d="M 0 0 M9452.73 13521.1 L9532.93 13521.1 L9532.93 13244.2 L9445.68 13261.7 L9445.68 13217 L9532.45 13199.5 L9581.54 13199.5 L9581.54 13521.1 L9661.75 13521.1 L9661.75 13562.4 L9452.73 13562.4 L9452.73 13521.1 Z"
     fill="#000000"
     fill-rule="evenodd"
     fill-opacity="1"
     id="path79" />
  <path
     clip-path="url(#clip670)"
     d="M 0 0 M13612.5 13521.1 L13692.8 13521.1 L13692.8 13244.2 L13605.5 13261.7 L13605.5 13217 L13692.3 13199.5 L13741.4 13199.5 L13741.4 13521.1 L13821.6 13521.1 L13821.6 13562.4 L13612.5 13562.4 L13612.5 13521.1 Z"
     fill="#000000"
     fill-rule="evenodd"
     fill-opacity="1"
     id="path81" />
  <path
     clip-path="url(#clip670)"
     d="M 0 0 M13874.8 13500.6 L13926.1 13500.6 L13926.1 13562.4 L13874.8 13562.4 L13874.8 13500.6 Z"
     fill="#000000"
     fill-rule="evenodd"
     fill-opacity="1"
     id="path83" />
  <path
     clip-path="url(#clip670)"
     d="M 0 0 M14084.3 13231.8 Q14046.4 13231.8 14027.2 13269.3 Q14008.2 13306.4 14008.2 13381.3 Q14008.2 13455.9 14027.2 13493.3 Q14046.4 13530.5 14084.3 13530.5 Q14122.5 13530.5 14141.4 13493.3 Q14160.6 13455.9 14160.6 13381.3 Q14160.6 13306.4 14141.4 13269.3 Q14122.5 13231.8 14084.3 13231.8 M14084.3 13192.9 Q14145.3 13192.9 14177.4 13241.3 Q14209.7 13289.4 14209.7 13381.3 Q14209.7 13472.9 14177.4 13521.3 Q14145.3 13569.4 14084.3 13569.4 Q14023.3 13569.4 13991 13521.3 Q13958.9 13472.9 13958.9 13381.3 Q13958.9 13289.4 13991 13241.3 Q14023.3 13192.9 14084.3 13192.9 Z"
     fill="#000000"
     fill-rule="evenodd"
     fill-opacity="1"
     id="path85" />
  <path
     clip-path="url(#clip670)"
     d="M 0 0 M18029.6 13521.1 L18109.8 13521.1 L18109.8 13244.2 L18022.6 13261.7 L18022.6 13217 L18109.4 13199.5 L18158.5 13199.5 L18158.5 13521.1 L18238.7 13521.1 L18238.7 13562.4 L18029.6 13562.4 L18029.6 13521.1 Z"
     fill="#000000"
     fill-rule="evenodd"
     fill-opacity="1"
     id="path87" />
  <path
     clip-path="url(#clip670)"
     d="M 0 0 M18396.9 13231.8 Q18359 13231.8 18339.8 13269.3 Q18320.8 13306.4 18320.8 13381.3 Q18320.8 13455.9 18339.8 13493.3 Q18359 13530.5 18396.9 13530.5 Q18435.1 13530.5 18454 13493.3 Q18473.2 13455.9 18473.2 13381.3 Q18473.2 13306.4 18454 13269.3 Q18435.1 13231.8 18396.9 13231.8 M18396.9 13192.9 Q18457.9 13192.9 18490 13241.3 Q18522.3 13289.4 18522.3 13381.3 Q18522.3 13472.9 18490 13521.3 Q18457.9 13569.4 18396.9 13569.4 Q18335.9 13569.4 18303.6 13521.3 Q18271.5 13472.9 18271.5 13381.3 Q18271.5 13289.4 18303.6 13241.3 Q18335.9 13192.9 18396.9 13192.9 Z"
     fill="#000000"
     fill-rule="evenodd"
     fill-opacity="1"
     id="path89" />
  <path
     clip-path="url(#clip670)"
     d="M 0 0 M18575.5 13500.6 L18626.8 13500.6 L18626.8 13562.4 L18575.5 13562.4 L18575.5 13500.6 Z"
     fill="#000000"
     fill-rule="evenodd"
     fill-opacity="1"
     id="path91" />
  <path
     clip-path="url(#clip670)"
     d="M 0 0 M18785.1 13231.8 Q18747.1 13231.8 18727.9 13269.3 Q18709 13306.4 18709 13381.3 Q18709 13455.9 18727.9 13493.3 Q18747.1 13530.5 18785.1 13530.5 Q18823.2 13530.5 18842.2 13493.3 Q18861.4 13455.9 18861.4 13381.3 Q18861.4 13306.4 18842.2 13269.3 Q18823.2 13231.8 18785.1 13231.8 M18785.1 13192.9 Q18846.1 13192.9 18878.1 13241.3 Q18910.5 13289.4 18910.5 13381.3 Q18910.5 13472.9 18878.1 13521.3 Q18846.1 13569.4 18785.1 13569.4 Q18724 13569.4 18691.7 13521.3 Q18659.6 13472.9 18659.6 13381.3 Q18659.6 13289.4 18691.7 13241.3 Q18724 13192.9 18785.1 13192.9 Z"
     fill="#000000"
     fill-rule="evenodd"
     fill-opacity="1"
     id="path93" />
  <path
     clip-path="url(#clip670)"
     d="M 0 0 M9535.55 13807.8 L9803.68 13807.8 L9803.68 13860.9 L9598.68 13860.9 L9598.68 13998.4 L9783.68 13998.4 L9783.68 14051.5 L9598.68 14051.5 L9598.68 14274.3 L9535.55 14274.3 L9535.55 13807.8 Z"
     fill="#000000"
     fill-rule="evenodd"
     fill-opacity="1"
     id="path95" />
  <path
     clip-path="url(#clip670)"
     d="M 0 0 M10020.2 13978.1 Q10010.5 13972.4 9998.99 13969.9 Q9987.74 13967.1 9973.99 13967.1 Q9925.24 13967.1 9898.99 13999 Q9873.05 14030.6 9873.05 14089.9 L9873.05 14274.3 L9815.24 14274.3 L9815.24 13924.3 L9873.05 13924.3 L9873.05 13978.7 Q9891.17 13946.8 9920.24 13931.5 Q9949.3 13915.9 9990.86 13915.9 Q9996.8 13915.9 10004 13916.8 Q10011.2 13917.4 10019.9 13919 L10020.2 13978.1 Z"
     fill="#000000"
     fill-rule="evenodd"
     fill-opacity="1"
     id="path97" />
  <path
     clip-path="url(#clip670)"
     d="M 0 0 M10365.9 14084.9 L10365.9 14113.1 L10101.5 14113.1 Q10105.2 14172.4 10137.1 14203.7 Q10169.3 14234.6 10226.5 14234.6 Q10259.6 14234.6 10290.5 14226.5 Q10321.8 14218.4 10352.4 14202.1 L10352.4 14256.5 Q10321.5 14269.6 10289 14276.5 Q10256.5 14283.4 10223 14283.4 Q10139.3 14283.4 10090.2 14234.6 Q10041.5 14185.9 10041.5 14102.7 Q10041.5 14016.8 10087.7 13966.5 Q10134.3 13915.9 10213 13915.9 Q10283.7 13915.9 10324.6 13961.5 Q10365.9 14006.8 10365.9 14084.9 M10308.4 14068.1 Q10307.7 14020.9 10281.8 13992.8 Q10256.2 13964.6 10213.7 13964.6 Q10165.5 13964.6 10136.5 13991.8 Q10107.7 14019 10103.4 14068.4 L10308.4 14068.1 Z"
     fill="#000000"
     fill-rule="evenodd"
     fill-opacity="1"
     id="path99" />
  <path
     clip-path="url(#clip670)"
     d="M 0 0 M10460.5 14099.6 Q10460.5 14163.1 10486.5 14199.3 Q10512.7 14235.2 10558.4 14235.2 Q10604 14235.2 10630.2 14199.3 Q10656.5 14163.1 10656.5 14099.6 Q10656.5 14036.2 10630.2 14000.3 Q10604 13964 10558.4 13964 Q10512.7 13964 10486.5 14000.3 Q10460.5 14036.2 10460.5 14099.6 M10656.5 14221.8 Q10638.4 14253.1 10610.5 14268.4 Q10583 14283.4 10544.3 14283.4 Q10480.9 14283.4 10440.9 14232.7 Q10401.2 14182.1 10401.2 14099.6 Q10401.2 14017.1 10440.9 13966.5 Q10480.9 13915.9 10544.3 13915.9 Q10583 13915.9 10610.5 13931.2 Q10638.4 13946.2 10656.5 13977.4 L10656.5 13924.3 L10714 13924.3 L10714 14407.4 L10656.5 14407.4 L10656.5 14221.8 Z"
     fill="#000000"
     fill-rule="evenodd"
     fill-opacity="1"
     id="path101" />
  <path
     clip-path="url(#clip670)"
     d="M 0 0 M10768.4 14136.2 L10768.4 13924.3 L10825.9 13924.3 L10825.9 14134 Q10825.9 14183.7 10845.2 14208.7 Q10864.6 14233.4 10903.4 14233.4 Q10949.9 14233.4 10976.8 14203.7 Q11004 14174 11004 14122.7 L11004 13924.3 L11061.5 13924.3 L11061.5 14274.3 L11004 14274.3 L11004 14220.6 Q10983 14252.4 10955.2 14268.1 Q10927.7 14283.4 10891.2 14283.4 Q10830.9 14283.4 10799.6 14245.9 Q10768.4 14208.4 10768.4 14136.2 M10913 13915.9 L10913 13915.9 Z"
     fill="#000000"
     fill-rule="evenodd"
     fill-opacity="1"
     id="path103" />
  <path
     clip-path="url(#clip670)"
     d="M 0 0 M11421.2 14084.9 L11421.2 14113.1 L11156.8 14113.1 Q11160.5 14172.4 11192.4 14203.7 Q11224.6 14234.6 11281.8 14234.6 Q11314.9 14234.6 11345.9 14226.5 Q11377.1 14218.4 11407.7 14202.1 L11407.7 14256.5 Q11376.8 14269.6 11344.3 14276.5 Q11311.8 14283.4 11278.4 14283.4 Q11194.6 14283.4 11145.5 14234.6 Q11096.8 14185.9 11096.8 14102.7 Q11096.8 14016.8 11143 13966.5 Q11189.6 13915.9 11268.4 13915.9 Q11339 13915.9 11379.9 13961.5 Q11421.2 14006.8 11421.2 14084.9 M11363.7 14068.1 Q11363 14020.9 11337.1 13992.8 Q11311.5 13964.6 11269 13964.6 Q11220.9 13964.6 11191.8 13991.8 Q11163 14019 11158.7 14068.4 L11363.7 14068.1 Z"
     fill="#000000"
     fill-rule="evenodd"
     fill-opacity="1"
     id="path105" />
  <path
     clip-path="url(#clip670)"
     d="M 0 0 M11772.4 14063.1 L11772.4 14274.3 L11714.9 14274.3 L11714.9 14064.9 Q11714.9 14015.2 11695.5 13990.6 Q11676.2 13965.9 11637.4 13965.9 Q11590.9 13965.9 11564 13995.6 Q11537.1 14025.2 11537.1 14076.5 L11537.1 14274.3 L11479.3 14274.3 L11479.3 13924.3 L11537.1 13924.3 L11537.1 13978.7 Q11557.7 13947.1 11585.5 13931.5 Q11613.7 13915.9 11650.2 13915.9 Q11710.5 13915.9 11741.5 13953.4 Q11772.4 13990.6 11772.4 14063.1 Z"
     fill="#000000"
     fill-rule="evenodd"
     fill-opacity="1"
     id="path107" />
  <path
     clip-path="url(#clip670)"
     d="M 0 0 M12084.6 13937.8 L12084.6 13991.5 Q12060.2 13978.1 12035.5 13971.5 Q12011.2 13964.6 11986.2 13964.6 Q11930.2 13964.6 11899.3 14000.3 Q11868.4 14035.6 11868.4 14099.6 Q11868.4 14163.7 11899.3 14199.3 Q11930.2 14234.6 11986.2 14234.6 Q12011.2 14234.6 12035.5 14228.1 Q12060.2 14221.2 12084.6 14207.7 L12084.6 14260.9 Q12060.5 14272.1 12034.6 14277.7 Q12009 14283.4 11979.9 14283.4 Q11900.9 14283.4 11854.3 14233.7 Q11807.7 14184 11807.7 14099.6 Q11807.7 14014 11854.6 13964.9 Q11901.8 13915.9 11983.7 13915.9 Q12010.2 13915.9 12035.5 13921.5 Q12060.9 13926.8 12084.6 13937.8 Z"
     fill="#000000"
     fill-rule="evenodd"
     fill-opacity="1"
     id="path109" />
  <path
     clip-path="url(#clip670)"
     d="M 0 0 M12290.5 14306.8 Q12266.2 14369.3 12243 14388.4 Q12219.9 14407.4 12181.2 14407.4 L12135.2 14407.4 L12135.2 14359.3 L12169 14359.3 Q12192.7 14359.3 12205.8 14348.1 Q12219 14336.8 12234.9 14294.9 L12245.2 14268.7 L12103.7 13924.3 L12164.6 13924.3 L12274 14198.1 L12383.3 13924.3 L12444.3 13924.3 L12290.5 14306.8 Z"
     fill="#000000"
     fill-rule="evenodd"
     fill-opacity="1"
     id="path111" />
  <path
     clip-path="url(#clip670)"
     d="M 0 0 M12846.2 13788.7 Q12804.3 13860.6 12784 13930.9 Q12763.7 14001.2 12763.7 14073.4 Q12763.7 14145.6 12784 14216.5 Q12804.6 14287.1 12846.2 14358.7 L12796.2 14358.7 Q12749.3 14285.2 12725.8 14214.3 Q12702.7 14143.4 12702.7 14073.4 Q12702.7 14003.7 12725.8 13933.1 Q12749 13862.4 12796.2 13788.7 L12846.2 13788.7 Z"
     fill="#000000"
     fill-rule="evenodd"
     fill-opacity="1"
     id="path113" />
  <path
     clip-path="url(#clip670)"
     d="M 0 0 M12909 13807.8 L12972.1 13807.8 L12972.1 13999 L13201.5 13999 L13201.5 13807.8 L13264.6 13807.8 L13264.6 14274.3 L13201.5 14274.3 L13201.5 14052.1 L12972.1 14052.1 L12972.1 14274.3 L12909 14274.3 L12909 13807.8 Z"
     fill="#000000"
     fill-rule="evenodd"
     fill-opacity="1"
     id="path115" />
  <path
     clip-path="url(#clip670)"
     d="M 0 0 M13299.9 13924.3 L13573 13924.3 L13573 13976.8 L13356.8 14228.4 L13573 14228.4 L13573 14274.3 L13292.1 14274.3 L13292.1 14221.8 L13508.3 13970.3 L13299.9 13970.3 L13299.9 13924.3 Z"
     fill="#000000"
     fill-rule="evenodd"
     fill-opacity="1"
     id="path117" />
  <path
     clip-path="url(#clip670)"
     d="M 0 0 M13624.3 13788.7 L13674.3 13788.7 Q13721.2 13862.4 13744.3 13933.1 Q13767.7 14003.7 13767.7 14073.4 Q13767.7 14143.4 13744.3 14214.3 Q13721.2 14285.2 13674.3 14358.7 L13624.3 14358.7 Q13665.8 14287.1 13686.2 14216.5 Q13706.8 14145.6 13706.8 14073.4 Q13706.8 14001.2 13686.2 13930.9 Q13665.8 13860.6 13624.3 13788.7 Z"
     fill="#000000"
     fill-rule="evenodd"
     fill-opacity="1"
     id="path119" />
  <polyline
     clip-path="url(#clip670)"
     style="stroke:#000000; stroke-width:24; stroke-opacity:1; fill:none"
     points="   1986.73,12954.1 1986.73,283.465    "
     id="polyline121" />
  <polyline
     clip-path="url(#clip670)"
     style="stroke:#000000; stroke-width:24; stroke-opacity:1; fill:none"
     points="   1986.73,12954.1 2218.69,12954.1    "
     id="polyline123" />
  <polyline
     clip-path="url(#clip670)"
     style="stroke:#000000; stroke-width:24; stroke-opacity:1; fill:none"
     points="   1986.73,10074.4 2218.69,10074.4    "
     id="polyline125" />
  <polyline
     clip-path="url(#clip670)"
     style="stroke:#000000; stroke-width:24; stroke-opacity:1; fill:none"
     points="   1986.73,7194.73 2218.69,7194.73    "
     id="polyline127" />
  <polyline
     clip-path="url(#clip670)"
     style="stroke:#000000; stroke-width:24; stroke-opacity:1; fill:none"
     points="   1986.73,4315.04 2218.69,4315.04    "
     id="polyline129" />
  <polyline
     clip-path="url(#clip670)"
     style="stroke:#000000; stroke-width:24; stroke-opacity:1; fill:none"
     points="   1986.73,1435.34 2218.69,1435.34    "
     id="polyline131" />
  <polyline
     clip-path="url(#clip670)"
     style="stroke:#000000; stroke-width:24; stroke-opacity:1; fill:none"
     points="   1986.73,12378.2 2102.71,12378.2    "
     id="polyline133" />
  <polyline
     clip-path="url(#clip670)"
     style="stroke:#000000; stroke-width:24; stroke-opacity:1; fill:none"
     points="   1986.73,11802.2 2102.71,11802.2    "
     id="polyline135" />
  <polyline
     clip-path="url(#clip670)"
     style="stroke:#000000; stroke-width:24; stroke-opacity:1; fill:none"
     points="   1986.73,11226.3 2102.71,11226.3    "
     id="polyline137" />
  <polyline
     clip-path="url(#clip670)"
     style="stroke:#000000; stroke-width:24; stroke-opacity:1; fill:none"
     points="   1986.73,10650.4 2102.71,10650.4    "
     id="polyline139" />
  <polyline
     clip-path="url(#clip670)"
     style="stroke:#000000; stroke-width:24; stroke-opacity:1; fill:none"
     points="   1986.73,9498.49 2102.71,9498.49    "
     id="polyline141" />
  <polyline
     clip-path="url(#clip670)"
     style="stroke:#000000; stroke-width:24; stroke-opacity:1; fill:none"
     points="   1986.73,8922.55 2102.71,8922.55    "
     id="polyline143" />
  <polyline
     clip-path="url(#clip670)"
     style="stroke:#000000; stroke-width:24; stroke-opacity:1; fill:none"
     points="   1986.73,8346.61 2102.71,8346.61    "
     id="polyline145" />
  <polyline
     clip-path="url(#clip670)"
     style="stroke:#000000; stroke-width:24; stroke-opacity:1; fill:none"
     points="   1986.73,7770.67 2102.71,7770.67    "
     id="polyline147" />
  <polyline
     clip-path="url(#clip670)"
     style="stroke:#000000; stroke-width:24; stroke-opacity:1; fill:none"
     points="   1986.73,6618.79 2102.71,6618.79    "
     id="polyline149" />
  <polyline
     clip-path="url(#clip670)"
     style="stroke:#000000; stroke-width:24; stroke-opacity:1; fill:none"
     points="   1986.73,6042.85 2102.71,6042.85    "
     id="polyline151" />
  <polyline
     clip-path="url(#clip670)"
     style="stroke:#000000; stroke-width:24; stroke-opacity:1; fill:none"
     points="   1986.73,5466.91 2102.71,5466.91    "
     id="polyline153" />
  <polyline
     clip-path="url(#clip670)"
     style="stroke:#000000; stroke-width:24; stroke-opacity:1; fill:none"
     points="   1986.73,4890.98 2102.71,4890.98    "
     id="polyline155" />
  <polyline
     clip-path="url(#clip670)"
     style="stroke:#000000; stroke-width:24; stroke-opacity:1; fill:none"
     points="   1986.73,3739.1 2102.71,3739.1    "
     id="polyline157" />
  <polyline
     clip-path="url(#clip670)"
     style="stroke:#000000; stroke-width:24; stroke-opacity:1; fill:none"
     points="   1986.73,3163.16 2102.71,3163.16    "
     id="polyline159" />
  <polyline
     clip-path="url(#clip670)"
     style="stroke:#000000; stroke-width:24; stroke-opacity:1; fill:none"
     points="   1986.73,2587.22 2102.71,2587.22    "
     id="polyline161" />
  <polyline
     clip-path="url(#clip670)"
     style="stroke:#000000; stroke-width:24; stroke-opacity:1; fill:none"
     points="   1986.73,2011.28 2102.71,2011.28    "
     id="polyline163" />
  <polyline
     clip-path="url(#clip670)"
     style="stroke:#000000; stroke-width:24; stroke-opacity:1; fill:none"
     points="   1986.73,859.403 2102.71,859.403    "
     id="polyline165" />
  <polyline
     clip-path="url(#clip670)"
     style="stroke:#000000; stroke-width:24; stroke-opacity:1; fill:none"
     points="   1986.73,283.465 2102.71,283.465    "
     id="polyline167" />
  <path
     clip-path="url(#clip670)"
     d="M 0 0 M1020.58 12939.9 Q1055.83 12947.4 1075.51 12971.3 Q1095.44 12995.1 1095.44 13030.1 Q1095.44 13083.8 1058.5 13113.2 Q1021.56 13142.6 953.5 13142.6 Q930.653 13142.6 906.348 13138 Q882.285 13133.6 856.522 13124.6 L856.522 13077.2 Q876.938 13089.1 901.244 13095.2 Q925.549 13101.3 952.042 13101.3 Q998.222 13101.3 1022.28 13083.1 Q1046.59 13064.8 1046.59 13030.1 Q1046.59 12998 1023.99 12980 Q1001.63 12961.8 961.521 12961.8 L919.23 12961.8 L919.23 12921.4 L963.466 12921.4 Q999.681 12921.4 1018.88 12907.1 Q1038.08 12892.5 1038.08 12865.3 Q1038.08 12837.3 1018.15 12822.5 Q998.465 12807.4 961.521 12807.4 Q941.348 12807.4 918.257 12811.8 Q895.167 12816.2 867.459 12825.4 L867.459 12781.7 Q895.41 12773.9 919.716 12770 Q944.264 12766.1 965.896 12766.1 Q1021.8 12766.1 1054.37 12791.6 Q1086.94 12816.9 1086.94 12860.2 Q1086.94 12890.3 1069.68 12911.2 Q1052.42 12931.9 1020.58 12939.9 Z"
     fill="#000000"
     fill-rule="evenodd"
     fill-opacity="1"
     id="path169" />
  <path
     clip-path="url(#clip670)"
     d="M 0 0 M1253.67 12805 Q1215.76 12805 1196.55 12842.4 Q1177.6 12879.6 1177.6 12954.5 Q1177.6 13029.1 1196.55 13066.5 Q1215.76 13103.7 1253.67 13103.7 Q1291.83 13103.7 1310.79 13066.5 Q1329.99 13029.1 1329.99 12954.5 Q1329.99 12879.6 1310.79 12842.4 Q1291.83 12805 1253.67 12805 M1253.67 12766.1 Q1314.68 12766.1 1346.76 12814.5 Q1379.09 12862.6 1379.09 12954.5 Q1379.09 13046.1 1346.76 13094.5 Q1314.68 13142.6 1253.67 13142.6 Q1192.67 13142.6 1160.34 13094.5 Q1128.26 13046.1 1128.26 12954.5 Q1128.26 12862.6 1160.34 12814.5 Q1192.67 12766.1 1253.67 12766.1 Z"
     fill="#000000"
     fill-rule="evenodd"
     fill-opacity="1"
     id="path171" />
  <path
     clip-path="url(#clip670)"
     d="M 0 0 M1537.32 12805 Q1499.4 12805 1480.2 12842.4 Q1461.24 12879.6 1461.24 12954.5 Q1461.24 13029.1 1480.2 13066.5 Q1499.4 13103.7 1537.32 13103.7 Q1575.48 13103.7 1594.43 13066.5 Q1613.64 13029.1 1613.64 12954.5 Q1613.64 12879.6 1594.43 12842.4 Q1575.48 12805 1537.32 12805 M1537.32 12766.1 Q1598.32 12766.1 1630.41 12814.5 Q1662.73 12862.6 1662.73 12954.5 Q1662.73 13046.1 1630.41 13094.5 Q1598.32 13142.6 1537.32 13142.6 Q1476.31 13142.6 1443.98 13094.5 Q1411.9 13046.1 1411.9 12954.5 Q1411.9 12862.6 1443.98 12814.5 Q1476.31 12766.1 1537.32 12766.1 Z"
     fill="#000000"
     fill-rule="evenodd"
     fill-opacity="1"
     id="path173" />
  <path
     clip-path="url(#clip670)"
     d="M 0 0 M1047.81 10060.2 Q1083.05 10067.7 1102.74 10091.6 Q1122.67 10115.4 1122.67 10150.4 Q1122.67 10204.1 1085.72 10233.5 Q1048.78 10262.9 980.722 10262.9 Q957.875 10262.9 933.57 10258.3 Q909.507 10253.9 883.744 10244.9 L883.744 10197.5 Q904.16 10209.4 928.466 10215.5 Q952.771 10221.6 979.264 10221.6 Q1025.44 10221.6 1049.51 10203.4 Q1073.81 10185.1 1073.81 10150.4 Q1073.81 10118.3 1051.21 10100.3 Q1028.85 10082.1 988.743 10082.1 L946.452 10082.1 L946.452 10041.7 L990.688 10041.7 Q1026.9 10041.7 1046.1 10027.4 Q1065.31 10012.8 1065.31 9985.59 Q1065.31 9957.64 1045.37 9942.81 Q1025.69 9927.74 988.743 9927.74 Q968.57 9927.74 945.479 9932.12 Q922.389 9936.49 894.681 9945.73 L894.681 9901.98 Q922.632 9894.2 946.938 9890.31 Q971.486 9886.42 993.118 9886.42 Q1049.02 9886.42 1081.59 9911.94 Q1114.16 9937.22 1114.16 9980.48 Q1114.16 10010.6 1096.9 10031.5 Q1079.65 10052.2 1047.81 10060.2 Z"
     fill="#000000"
     fill-rule="evenodd"
     fill-opacity="1"
     id="path175" />
  <path
     clip-path="url(#clip670)"
     d="M 0 0 M1218.19 10214.5 L1389.54 10214.5 L1389.54 10255.9 L1159.12 10255.9 L1159.12 10214.5 Q1187.08 10185.6 1235.2 10137 Q1283.57 10088.2 1295.96 10074.1 Q1319.54 10047.6 1328.78 10029.3 Q1338.26 10010.9 1338.26 9993.12 Q1338.26 9964.2 1317.84 9945.97 Q1297.67 9927.74 1265.1 9927.74 Q1242.01 9927.74 1216.24 9935.76 Q1190.72 9943.78 1161.55 9960.07 L1161.55 9910.48 Q1191.21 9898.58 1216.97 9892.5 Q1242.73 9886.42 1264.12 9886.42 Q1320.51 9886.42 1354.05 9914.62 Q1387.6 9942.81 1387.6 9989.96 Q1387.6 10012.3 1379.09 10032.5 Q1370.82 10052.4 1348.71 10079.7 Q1342.63 10086.7 1310.06 10120.5 Q1277.49 10154 1218.19 10214.5 Z"
     fill="#000000"
     fill-rule="evenodd"
     fill-opacity="1"
     id="path177" />
  <path
     clip-path="url(#clip670)"
     d="M 0 0 M1443.25 9892.98 L1636 9892.98 L1636 9934.3 L1488.22 9934.3 L1488.22 10023.3 Q1498.91 10019.6 1509.61 10017.9 Q1520.3 10016 1531 10016 Q1591.76 10016 1627.25 10049.3 Q1662.73 10082.6 1662.73 10139.4 Q1662.73 10198 1626.27 10230.6 Q1589.82 10262.9 1523.46 10262.9 Q1500.62 10262.9 1476.8 10259 Q1453.22 10255.1 1427.94 10247.4 L1427.94 10198 Q1449.82 10209.9 1473.15 10215.8 Q1496.48 10221.6 1522.49 10221.6 Q1564.54 10221.6 1589.09 10199.5 Q1613.64 10177.4 1613.64 10139.4 Q1613.64 10101.5 1589.09 10079.4 Q1564.54 10057.3 1522.49 10057.3 Q1502.8 10057.3 1483.12 10061.7 Q1463.67 10066 1443.25 10075.3 L1443.25 9892.98 Z"
     fill="#000000"
     fill-rule="evenodd"
     fill-opacity="1"
     id="path179" />
  <path
     clip-path="url(#clip670)"
     d="M 0 0 M1031.03 7180.51 Q1066.28 7188.05 1085.96 7211.87 Q1105.9 7235.69 1105.9 7270.69 Q1105.9 7324.4 1068.95 7353.81 Q1032.01 7383.22 963.952 7383.22 Q941.105 7383.22 916.799 7378.6 Q892.737 7374.23 866.973 7365.23 L866.973 7317.84 Q887.39 7329.75 911.695 7335.82 Q936 7341.9 962.493 7341.9 Q1008.67 7341.9 1032.74 7323.67 Q1057.04 7305.44 1057.04 7270.69 Q1057.04 7238.6 1034.44 7220.62 Q1012.08 7202.39 971.972 7202.39 L929.681 7202.39 L929.681 7162.04 L973.917 7162.04 Q1010.13 7162.04 1029.33 7147.7 Q1048.53 7133.12 1048.53 7105.89 Q1048.53 7077.94 1028.6 7063.12 Q1008.92 7048.05 971.972 7048.05 Q951.799 7048.05 928.709 7052.42 Q905.619 7056.8 877.91 7066.03 L877.91 7022.28 Q905.862 7014.51 930.167 7010.62 Q954.716 7006.73 976.347 7006.73 Q1032.25 7006.73 1064.82 7032.25 Q1097.39 7057.53 1097.39 7100.79 Q1097.39 7130.93 1080.13 7151.83 Q1062.87 7172.49 1031.03 7180.51 Z"
     fill="#000000"
     fill-rule="evenodd"
     fill-opacity="1"
     id="path181" />
  <path
     clip-path="url(#clip670)"
     d="M 0 0 M1159.61 7013.29 L1352.35 7013.29 L1352.35 7054.61 L1204.58 7054.61 L1204.58 7143.57 Q1215.27 7139.92 1225.96 7138.22 Q1236.66 7136.28 1247.35 7136.28 Q1308.12 7136.28 1343.6 7169.57 Q1379.09 7202.87 1379.09 7259.75 Q1379.09 7318.32 1342.63 7350.89 Q1306.17 7383.22 1239.82 7383.22 Q1216.97 7383.22 1193.15 7379.33 Q1169.58 7375.44 1144.3 7367.66 L1144.3 7318.32 Q1166.17 7330.23 1189.51 7336.07 Q1212.84 7341.9 1238.85 7341.9 Q1280.89 7341.9 1305.44 7319.78 Q1329.99 7297.66 1329.99 7259.75 Q1329.99 7221.83 1305.44 7199.71 Q1280.89 7177.6 1238.85 7177.6 Q1219.16 7177.6 1199.47 7181.97 Q1180.03 7186.35 1159.61 7195.58 L1159.61 7013.29 Z"
     fill="#000000"
     fill-rule="evenodd"
     fill-opacity="1"
     id="path183" />
  <path
     clip-path="url(#clip670)"
     d="M 0 0 M1537.32 7045.62 Q1499.4 7045.62 1480.2 7083.05 Q1461.24 7120.23 1461.24 7195.1 Q1461.24 7269.71 1480.2 7307.14 Q1499.4 7344.33 1537.32 7344.33 Q1575.48 7344.33 1594.43 7307.14 Q1613.64 7269.71 1613.64 7195.1 Q1613.64 7120.23 1594.43 7083.05 Q1575.48 7045.62 1537.32 7045.62 M1537.32 7006.73 Q1598.32 7006.73 1630.41 7055.1 Q1662.73 7103.22 1662.73 7195.1 Q1662.73 7286.73 1630.41 7335.09 Q1598.32 7383.22 1537.32 7383.22 Q1476.31 7383.22 1443.98 7335.09 Q1411.9 7286.73 1411.9 7195.1 Q1411.9 7103.22 1443.98 7055.1 Q1476.31 7006.73 1537.32 7006.73 Z"
     fill="#000000"
     fill-rule="evenodd"
     fill-opacity="1"
     id="path185" />
  <path
     clip-path="url(#clip670)"
     d="M 0 0 M1040.51 4300.82 Q1075.76 4308.35 1095.44 4332.17 Q1115.37 4355.99 1115.37 4390.99 Q1115.37 4444.71 1078.43 4474.12 Q1041.49 4503.53 973.431 4503.53 Q950.584 4503.53 926.278 4498.91 Q902.216 4494.53 876.452 4485.54 L876.452 4438.14 Q896.869 4450.05 921.174 4456.13 Q945.479 4462.21 971.972 4462.21 Q1018.15 4462.21 1042.22 4443.98 Q1066.52 4425.75 1066.52 4390.99 Q1066.52 4358.91 1043.92 4340.92 Q1021.56 4322.69 981.452 4322.69 L939.16 4322.69 L939.16 4282.35 L983.396 4282.35 Q1019.61 4282.35 1038.81 4268.01 Q1058.01 4253.42 1058.01 4226.2 Q1058.01 4198.25 1038.08 4183.42 Q1018.4 4168.35 981.452 4168.35 Q961.278 4168.35 938.188 4172.73 Q915.098 4177.1 887.39 4186.34 L887.39 4142.59 Q915.341 4134.81 939.646 4130.92 Q964.195 4127.03 985.827 4127.03 Q1041.73 4127.03 1074.3 4152.55 Q1106.87 4177.83 1106.87 4221.1 Q1106.87 4251.23 1089.61 4272.14 Q1072.35 4292.8 1040.51 4300.82 Z"
     fill="#000000"
     fill-rule="evenodd"
     fill-opacity="1"
     id="path187" />
  <path
     clip-path="url(#clip670)"
     d="M 0 0 M1156.21 4133.6 L1389.54 4133.6 L1389.54 4154.5 L1257.8 4496.48 L1206.52 4496.48 L1330.48 4174.92 L1156.21 4174.92 L1156.21 4133.6 Z"
     fill="#000000"
     fill-rule="evenodd"
     fill-opacity="1"
     id="path189" />
  <path
     clip-path="url(#clip670)"
     d="M 0 0 M1443.25 4133.6 L1636 4133.6 L1636 4174.92 L1488.22 4174.92 L1488.22 4263.87 Q1498.91 4260.23 1509.61 4258.53 Q1520.3 4256.58 1531 4256.58 Q1591.76 4256.58 1627.25 4289.88 Q1662.73 4323.18 1662.73 4380.05 Q1662.73 4438.63 1626.27 4471.2 Q1589.82 4503.53 1523.46 4503.53 Q1500.62 4503.53 1476.8 4499.64 Q1453.22 4495.75 1427.94 4487.97 L1427.94 4438.63 Q1449.82 4450.54 1473.15 4456.37 Q1496.48 4462.21 1522.49 4462.21 Q1564.54 4462.21 1589.09 4440.09 Q1613.64 4417.97 1613.64 4380.05 Q1613.64 4342.14 1589.09 4320.02 Q1564.54 4297.9 1522.49 4297.9 Q1502.8 4297.9 1483.12 4302.28 Q1463.67 4306.65 1443.25 4315.89 L1443.25 4133.6 Z"
     fill="#000000"
     fill-rule="evenodd"
     fill-opacity="1"
     id="path191" />
  <path
     clip-path="url(#clip670)"
     d="M 0 0 M994.82 1296.68 L870.862 1490.39 L994.82 1490.39 L994.82 1296.68 M981.938 1253.9 L1043.67 1253.9 L1043.67 1490.39 L1095.44 1490.39 L1095.44 1531.23 L1043.67 1531.23 L1043.67 1616.78 L994.82 1616.78 L994.82 1531.23 L831.001 1531.23 L831.001 1483.83 L981.938 1253.9 Z"
     fill="#000000"
     fill-rule="evenodd"
     fill-opacity="1"
     id="path193" />
  <path
     clip-path="url(#clip670)"
     d="M 0 0 M1253.67 1286.23 Q1215.76 1286.23 1196.55 1323.66 Q1177.6 1360.85 1177.6 1435.71 Q1177.6 1510.32 1196.55 1547.75 Q1215.76 1584.94 1253.67 1584.94 Q1291.83 1584.94 1310.79 1547.75 Q1329.99 1510.32 1329.99 1435.71 Q1329.99 1360.85 1310.79 1323.66 Q1291.83 1286.23 1253.67 1286.23 M1253.67 1247.34 Q1314.68 1247.34 1346.76 1295.71 Q1379.09 1343.83 1379.09 1435.71 Q1379.09 1527.34 1346.76 1575.71 Q1314.68 1623.83 1253.67 1623.83 Q1192.67 1623.83 1160.34 1575.71 Q1128.26 1527.34 1128.26 1435.71 Q1128.26 1343.83 1160.34 1295.71 Q1192.67 1247.34 1253.67 1247.34 Z"
     fill="#000000"
     fill-rule="evenodd"
     fill-opacity="1"
     id="path195" />
  <path
     clip-path="url(#clip670)"
     d="M 0 0 M1537.32 1286.23 Q1499.4 1286.23 1480.2 1323.66 Q1461.24 1360.85 1461.24 1435.71 Q1461.24 1510.32 1480.2 1547.75 Q1499.4 1584.94 1537.32 1584.94 Q1575.48 1584.94 1594.43 1547.75 Q1613.64 1510.32 1613.64 1435.71 Q1613.64 1360.85 1594.43 1323.66 Q1575.48 1286.23 1537.32 1286.23 M1537.32 1247.34 Q1598.32 1247.34 1630.41 1295.71 Q1662.73 1343.83 1662.73 1435.71 Q1662.73 1527.34 1630.41 1575.71 Q1598.32 1623.83 1537.32 1623.83 Q1476.31 1623.83 1443.98 1575.71 Q1411.9 1527.34 1411.9 1435.71 Q1411.9 1343.83 1443.98 1295.71 Q1476.31 1247.34 1537.32 1247.34 Z"
     fill="#000000"
     fill-rule="evenodd"
     fill-opacity="1"
     id="path197" />
  <path
     clip-path="url(#clip670)"
     d="M 0 0 M116.473 10501.4 L116.473 10206.4 L169.598 10206.4 L169.598 10438.3 L307.722 10438.3 L307.722 10216.1 L360.847 10216.1 L360.847 10438.3 L529.908 10438.3 L529.908 10200.8 L583.033 10200.8 L583.033 10501.4 L116.473 10501.4 Z"
     fill="#000000"
     fill-rule="evenodd"
     fill-opacity="1"
     id="path199" />
  <path
     clip-path="url(#clip670)"
     d="M 0 0 M371.784 9849.56 L583.033 9849.56 L583.033 9907.06 L373.659 9907.06 Q323.972 9907.06 299.284 9926.43 Q274.597 9945.81 274.597 9984.56 Q274.597 10031.1 304.284 10058 Q333.972 10084.9 385.222 10084.9 L583.033 10084.9 L583.033 10142.7 L233.035 10142.7 L233.035 10084.9 L287.41 10084.9 Q255.847 10064.2 240.222 10036.4 Q224.597 10008.3 224.597 9971.74 Q224.597 9911.43 262.097 9880.49 Q299.284 9849.56 371.784 9849.56 Z"
     fill="#000000"
     fill-rule="evenodd"
     fill-opacity="1"
     id="path201" />
  <path
     clip-path="url(#clip670)"
     d="M 0 0 M393.659 9489.87 L421.784 9489.87 L421.784 9754.24 Q481.158 9750.49 512.408 9718.62 Q543.346 9686.43 543.346 9629.24 Q543.346 9596.12 535.221 9565.18 Q527.096 9533.93 510.846 9503.31 L565.221 9503.31 Q578.345 9534.24 585.22 9566.74 Q592.095 9599.24 592.095 9632.68 Q592.095 9716.43 543.346 9765.49 Q494.596 9814.24 411.471 9814.24 Q325.534 9814.24 275.222 9767.99 Q224.597 9721.43 224.597 9642.68 Q224.597 9572.06 270.222 9531.12 Q315.534 9489.87 393.659 9489.87 M376.784 9547.37 Q329.597 9547.99 301.472 9573.93 Q273.347 9599.56 273.347 9642.06 Q273.347 9690.18 300.534 9719.24 Q327.722 9747.99 377.097 9752.37 L376.784 9547.37 Z"
     fill="#000000"
     fill-rule="evenodd"
     fill-opacity="1"
     id="path203" />
  <path
     clip-path="url(#clip670)"
     d="M 0 0 M286.785 9226.75 Q281.16 9236.43 278.66 9248 Q275.847 9259.25 275.847 9273 Q275.847 9321.75 307.722 9348 Q339.284 9373.93 398.659 9373.93 L583.033 9373.93 L583.033 9431.75 L233.035 9431.75 L233.035 9373.93 L287.41 9373.93 Q255.535 9355.81 240.222 9326.75 Q224.597 9297.68 224.597 9256.12 Q224.597 9250.18 225.535 9243 Q226.16 9235.81 227.722 9227.06 L286.785 9226.75 Z"
     fill="#000000"
     fill-rule="evenodd"
     fill-opacity="1"
     id="path205" />
  <path
     clip-path="url(#clip670)"
     d="M 0 0 M403.971 8947.37 Q341.472 8947.37 307.097 8973.31 Q272.722 8998.94 272.722 9045.5 Q272.722 9091.75 307.097 9117.68 Q341.472 9143.31 403.971 9143.31 Q466.159 9143.31 500.533 9117.68 Q534.908 9091.75 534.908 9045.5 Q534.908 8998.94 500.533 8973.31 Q466.159 8947.37 403.971 8947.37 M539.596 8889.87 Q628.97 8889.87 672.407 8929.56 Q716.157 8969.25 716.157 9051.12 Q716.157 9081.43 711.47 9108.31 Q707.095 9135.18 697.72 9160.5 L641.783 9160.5 Q655.533 9135.18 662.095 9110.5 Q668.657 9085.81 668.657 9060.18 Q668.657 9003.62 638.97 8975.5 Q609.595 8947.37 549.908 8947.37 L521.471 8947.37 Q552.408 8965.19 567.721 8993 Q583.033 9020.81 583.033 9059.56 Q583.033 9123.93 533.971 9163.31 Q484.908 9202.68 403.971 9202.68 Q322.722 9202.68 273.66 9163.31 Q224.597 9123.93 224.597 9059.56 Q224.597 9020.81 239.91 8993 Q255.222 8965.19 286.16 8947.37 L233.035 8947.37 L233.035 8889.87 L539.596 8889.87 Z"
     fill="#000000"
     fill-rule="evenodd"
     fill-opacity="1"
     id="path207" />
  <path
     clip-path="url(#clip670)"
     d="M 0 0 M615.533 8683.94 Q678.032 8708.31 697.095 8731.44 Q716.157 8754.56 716.157 8793.31 L716.157 8839.25 L668.032 8839.25 L668.032 8805.5 Q668.032 8781.75 656.783 8768.62 Q645.533 8755.5 603.658 8739.56 L577.408 8729.25 L233.035 8870.81 L233.035 8809.87 L506.783 8700.5 L233.035 8591.12 L233.035 8530.19 L615.533 8683.94 Z"
     fill="#000000"
     fill-rule="evenodd"
     fill-opacity="1"
     id="path209" />
  <path
     clip-path="url(#clip670)"
     d="M 0 0 M246.472 8014.57 L300.222 8014.57 Q286.785 8038.94 280.222 8063.63 Q273.347 8088 273.347 8113 Q273.347 8168.94 308.972 8199.88 Q344.284 8230.81 408.346 8230.81 Q472.409 8230.81 508.033 8199.88 Q543.346 8168.94 543.346 8113 Q543.346 8088 536.783 8063.63 Q529.908 8038.94 516.471 8014.57 L569.596 8014.57 Q580.845 8038.63 586.47 8064.57 Q592.095 8090.19 592.095 8119.25 Q592.095 8198.31 542.408 8244.88 Q492.721 8291.44 408.346 8291.44 Q322.722 8291.44 273.66 8244.56 Q224.597 8197.38 224.597 8115.5 Q224.597 8088.94 230.222 8063.63 Q235.535 8038.32 246.472 8014.57 Z"
     fill="#000000"
     fill-rule="evenodd"
     fill-opacity="1"
     id="path211" />
  <path
     clip-path="url(#clip670)"
     d="M 0 0 M273.347 7818.63 Q273.347 7864.88 309.597 7891.75 Q345.534 7918.63 408.346 7918.63 Q471.159 7918.63 507.408 7892.07 Q543.346 7865.19 543.346 7818.63 Q543.346 7772.69 507.096 7745.82 Q470.846 7718.94 408.346 7718.94 Q346.159 7718.94 309.909 7745.82 Q273.347 7772.69 273.347 7818.63 M224.597 7818.63 Q224.597 7743.63 273.347 7700.82 Q322.097 7658 408.346 7658 Q494.283 7658 543.346 7700.82 Q592.095 7743.63 592.095 7818.63 Q592.095 7893.94 543.346 7936.75 Q494.283 7979.25 408.346 7979.25 Q322.097 7979.25 273.347 7936.75 Q224.597 7893.94 224.597 7818.63 Z"
     fill="#000000"
     fill-rule="evenodd"
     fill-opacity="1"
     id="path213" />
  <path
     clip-path="url(#clip670)"
     d="M 0 0 M371.784 7306.76 L583.033 7306.76 L583.033 7364.26 L373.659 7364.26 Q323.972 7364.26 299.284 7383.63 Q274.597 7403.01 274.597 7441.76 Q274.597 7488.32 304.284 7515.19 Q333.972 7542.07 385.222 7542.07 L583.033 7542.07 L583.033 7599.88 L233.035 7599.88 L233.035 7542.07 L287.41 7542.07 Q255.847 7521.44 240.222 7493.63 Q224.597 7465.51 224.597 7428.94 Q224.597 7368.63 262.097 7337.69 Q299.284 7306.76 371.784 7306.76 Z"
     fill="#000000"
     fill-rule="evenodd"
     fill-opacity="1"
     id="path215" />
  <path
     clip-path="url(#clip670)"
     d="M 0 0 M243.347 7023.32 L297.722 7023.32 Q285.222 7047.7 278.972 7073.95 Q272.722 7100.2 272.722 7128.32 Q272.722 7171.13 285.847 7192.69 Q298.972 7213.94 325.222 7213.94 Q345.222 7213.94 356.784 7198.63 Q368.034 7183.32 378.347 7137.07 L382.722 7117.38 Q395.846 7056.13 419.909 7030.51 Q443.659 7004.57 486.471 7004.57 Q535.221 7004.57 563.658 7043.32 Q592.095 7081.76 592.095 7149.26 Q592.095 7177.38 586.47 7208.01 Q581.158 7238.32 570.221 7272.07 L510.846 7272.07 Q527.408 7240.19 535.846 7209.26 Q543.971 7178.32 543.971 7148.01 Q543.971 7107.38 530.221 7085.51 Q516.158 7063.63 490.846 7063.63 Q467.409 7063.63 454.909 7079.57 Q442.409 7095.2 430.846 7148.63 L426.159 7168.63 Q414.909 7222.07 391.784 7245.82 Q368.347 7269.57 327.722 7269.57 Q278.347 7269.57 251.472 7234.57 Q224.597 7199.57 224.597 7135.2 Q224.597 7103.32 229.285 7075.2 Q233.972 7047.07 243.347 7023.32 Z"
     fill="#000000"
     fill-rule="evenodd"
     fill-opacity="1"
     id="path217" />
  <path
     clip-path="url(#clip670)"
     d="M 0 0 M444.909 6950.2 L233.035 6950.2 L233.035 6892.7 L442.721 6892.7 Q492.408 6892.7 517.408 6873.32 Q542.096 6853.95 542.096 6815.2 Q542.096 6768.63 512.408 6741.76 Q482.721 6714.57 431.471 6714.57 L233.035 6714.57 L233.035 6657.07 L583.033 6657.07 L583.033 6714.57 L529.283 6714.57 Q561.158 6735.51 576.783 6763.32 Q592.095 6790.82 592.095 6827.38 Q592.095 6887.7 554.596 6918.95 Q517.096 6950.2 444.909 6950.2 M224.597 6805.51 L224.597 6805.51 Z"
     fill="#000000"
     fill-rule="evenodd"
     fill-opacity="1"
     id="path219" />
  <path
     clip-path="url(#clip670)"
     d="M 0 0 M300.222 6324.26 Q261.472 6302.7 243.035 6272.7 Q224.597 6242.7 224.597 6202.08 Q224.597 6147.39 263.035 6117.7 Q301.159 6088.01 371.784 6088.01 L583.033 6088.01 L583.033 6145.83 L373.659 6145.83 Q323.347 6145.83 298.972 6163.64 Q274.597 6181.45 274.597 6218.01 Q274.597 6262.7 304.284 6288.64 Q333.972 6314.57 385.222 6314.57 L583.033 6314.57 L583.033 6372.39 L373.659 6372.39 Q323.034 6372.39 298.972 6390.2 Q274.597 6408.01 274.597 6445.2 Q274.597 6489.26 304.597 6515.2 Q334.284 6541.14 385.222 6541.14 L583.033 6541.14 L583.033 6598.95 L233.035 6598.95 L233.035 6541.14 L287.41 6541.14 Q255.222 6521.45 239.91 6493.95 Q224.597 6466.45 224.597 6428.64 Q224.597 6390.51 243.972 6363.95 Q263.347 6337.07 300.222 6324.26 Z"
     fill="#000000"
     fill-rule="evenodd"
     fill-opacity="1"
     id="path221" />
  <path
     clip-path="url(#clip670)"
     d="M 0 0 M530.533 5972.08 L716.157 5972.08 L716.157 6029.89 L233.035 6029.89 L233.035 5972.08 L286.16 5972.08 Q254.91 5953.95 239.91 5926.45 Q224.597 5898.64 224.597 5860.2 Q224.597 5796.45 275.222 5756.77 Q325.847 5716.77 408.346 5716.77 Q490.846 5716.77 541.471 5756.77 Q592.095 5796.45 592.095 5860.2 Q592.095 5898.64 577.095 5926.45 Q561.783 5953.95 530.533 5972.08 M408.346 5776.45 Q344.909 5776.45 308.972 5802.7 Q272.722 5828.64 272.722 5874.26 Q272.722 5919.89 308.972 5946.14 Q344.909 5972.08 408.346 5972.08 Q471.784 5972.08 508.033 5946.14 Q543.971 5919.89 543.971 5874.26 Q543.971 5828.64 508.033 5802.7 Q471.784 5776.45 408.346 5776.45 Z"
     fill="#000000"
     fill-rule="evenodd"
     fill-opacity="1"
     id="path223" />
  <path
     clip-path="url(#clip670)"
     d="M 0 0 M133.66 5599.58 L233.035 5599.58 L233.035 5481.14 L277.722 5481.14 L277.722 5599.58 L467.721 5599.58 Q510.533 5599.58 522.721 5588.02 Q534.908 5576.14 534.908 5540.2 L534.908 5481.14 L583.033 5481.14 L583.033 5540.2 Q583.033 5606.77 558.346 5632.08 Q533.346 5657.39 467.721 5657.39 L277.722 5657.39 L277.722 5699.58 L233.035 5699.58 L233.035 5657.39 L133.66 5657.39 L133.66 5599.58 Z"
     fill="#000000"
     fill-rule="evenodd"
     fill-opacity="1"
     id="path225" />
  <path
     clip-path="url(#clip670)"
     d="M 0 0 M233.035 5420.83 L233.035 5363.33 L583.033 5363.33 L583.033 5420.83 L233.035 5420.83 M96.7856 5420.83 L96.7856 5363.33 L169.598 5363.33 L169.598 5420.83 L96.7856 5420.83 Z"
     fill="#000000"
     fill-rule="evenodd"
     fill-opacity="1"
     id="path227" />
  <path
     clip-path="url(#clip670)"
     d="M 0 0 M273.347 5167.39 Q273.347 5213.64 309.597 5240.52 Q345.534 5267.39 408.346 5267.39 Q471.159 5267.39 507.408 5240.83 Q543.346 5213.96 543.346 5167.39 Q543.346 5121.46 507.096 5094.58 Q470.846 5067.71 408.346 5067.71 Q346.159 5067.71 309.909 5094.58 Q273.347 5121.46 273.347 5167.39 M224.597 5167.39 Q224.597 5092.39 273.347 5049.58 Q322.097 5006.77 408.346 5006.77 Q494.283 5006.77 543.346 5049.58 Q592.095 5092.39 592.095 5167.39 Q592.095 5242.71 543.346 5285.52 Q494.283 5328.02 408.346 5328.02 Q322.097 5328.02 273.347 5285.52 Q224.597 5242.71 224.597 5167.39 Z"
     fill="#000000"
     fill-rule="evenodd"
     fill-opacity="1"
     id="path229" />
  <path
     clip-path="url(#clip670)"
     d="M 0 0 M371.784 4655.52 L583.033 4655.52 L583.033 4713.02 L373.659 4713.02 Q323.972 4713.02 299.284 4732.4 Q274.597 4751.77 274.597 4790.52 Q274.597 4837.08 304.284 4863.96 Q333.972 4890.83 385.222 4890.83 L583.033 4890.83 L583.033 4948.64 L233.035 4948.64 L233.035 4890.83 L287.41 4890.83 Q255.847 4870.21 240.222 4842.4 Q224.597 4814.27 224.597 4777.71 Q224.597 4717.4 262.097 4686.46 Q299.284 4655.52 371.784 4655.52 Z"
     fill="#000000"
     fill-rule="evenodd"
     fill-opacity="1"
     id="path231" />
  <path
     clip-path="url(#clip670)"
     d="M 0 0 M97.4105 4253.65 Q169.285 4295.52 239.597 4315.84 Q309.909 4336.15 382.097 4336.15 Q454.284 4336.15 525.221 4315.84 Q595.845 4295.21 667.407 4253.65 L667.407 4303.65 Q593.97 4350.52 523.033 4373.96 Q452.096 4397.08 382.097 4397.08 Q312.409 4397.08 241.785 4373.96 Q171.16 4350.84 97.4105 4303.65 L97.4105 4253.65 Z"
     fill="#000000"
     fill-rule="evenodd"
     fill-opacity="1"
     id="path233" />
  <path
     clip-path="url(#clip670)"
     d="M 0 0 M300.222 3920.84 Q261.472 3899.28 243.035 3869.28 Q224.597 3839.28 224.597 3798.65 Q224.597 3743.96 263.035 3714.28 Q301.159 3684.59 371.784 3684.59 L583.033 3684.59 L583.033 3742.4 L373.659 3742.4 Q323.347 3742.4 298.972 3760.21 Q274.597 3778.03 274.597 3814.59 Q274.597 3859.28 304.284 3885.21 Q333.972 3911.15 385.222 3911.15 L583.033 3911.15 L583.033 3968.96 L373.659 3968.96 Q323.034 3968.96 298.972 3986.77 Q274.597 4004.59 274.597 4041.77 Q274.597 4085.84 304.597 4111.77 Q334.284 4137.71 385.222 4137.71 L583.033 4137.71 L583.033 4195.52 L233.035 4195.52 L233.035 4137.71 L287.41 4137.71 Q255.222 4118.02 239.91 4090.52 Q224.597 4063.02 224.597 4025.21 Q224.597 3987.09 243.972 3960.52 Q263.347 3933.65 300.222 3920.84 Z"
     fill="#000000"
     fill-rule="evenodd"
     fill-opacity="1"
     id="path235" />
  <path
     clip-path="url(#clip670)"
     d="M 0 0 M116.473 3621.78 L116.473 3558.65 L550.533 3558.65 Q634.908 3558.65 673.032 3590.84 Q711.157 3622.71 711.157 3693.65 L711.157 3717.71 L658.033 3717.71 L658.033 3698.03 Q658.033 3656.15 634.595 3638.96 Q611.158 3621.78 550.533 3621.78 L116.473 3621.78 Z"
     fill="#000000"
     fill-rule="evenodd"
     fill-opacity="1"
     id="path237" />
  <path
     clip-path="url(#clip670)"
     d="M 0 0 M116.473 3396.15 L116.473 3343.03 L642.408 3505.53 L642.408 3558.65 L116.473 3396.15 Z"
     fill="#000000"
     fill-rule="evenodd"
     fill-opacity="1"
     id="path239" />
  <path
     clip-path="url(#clip670)"
     d="M 0 0 M152.41 2930.84 L218.972 2930.84 Q189.285 2962.72 174.598 2998.97 Q159.91 3034.9 159.91 3075.53 Q159.91 3155.53 208.972 3198.03 Q257.722 3240.53 350.222 3240.53 Q442.409 3240.53 491.471 3198.03 Q540.221 3155.53 540.221 3075.53 Q540.221 3034.9 525.533 2998.97 Q510.846 2962.72 481.158 2930.84 L547.096 2930.84 Q569.596 2963.97 580.845 3001.15 Q592.095 3038.03 592.095 3079.28 Q592.095 3185.22 527.408 3246.15 Q462.409 3307.09 350.222 3307.09 Q237.722 3307.09 173.035 3246.15 Q108.035 3185.22 108.035 3079.28 Q108.035 3037.4 119.285 3000.53 Q130.223 2963.34 152.41 2930.84 Z"
     fill="#000000"
     fill-rule="evenodd"
     fill-opacity="1"
     id="path241" />
  <path
     clip-path="url(#clip670)"
     d="M 0 0 M97.4105 2879.59 L97.4105 2829.59 Q171.16 2782.72 241.785 2759.59 Q312.409 2736.16 382.097 2736.16 Q452.096 2736.16 523.033 2759.59 Q593.97 2782.72 667.407 2829.59 L667.407 2879.59 Q595.845 2838.03 525.221 2817.72 Q454.284 2797.09 382.097 2797.09 Q309.909 2797.09 239.597 2817.72 Q169.285 2838.03 97.4105 2879.59 Z"
     fill="#000000"
     fill-rule="evenodd"
     fill-opacity="1"
     id="path243" />
  <polyline
     clip-path="url(#clip672)"
     style="stroke:#5cc862; stroke-width:48; stroke-opacity:1; fill:none"
     points="   4789.78,628.807 7092.72,2168.52 9348.7,2607.81 11651.6,2775.58 13907.6,2832.08 16210.5,2729.74 18466.5,2263.1 20769.5,603.503    "
     id="polyline245" />
  <circle
     clip-path="url(#clip672)"
     cx="4789.78"
     cy="628.807"
     r="108"
     fill="#5cc862"
     fill-rule="evenodd"
     fill-opacity="1"
     stroke="#000000"
     stroke-opacity="1"
     stroke-width="28.8"
     id="circle247" />
  <circle
     clip-path="url(#clip672)"
     cx="7092.72"
     cy="2168.52"
     r="108"
     fill="#5cc862"
     fill-rule="evenodd"
     fill-opacity="1"
     stroke="#000000"
     stroke-opacity="1"
     stroke-width="28.8"
     id="circle249" />
  <circle
     clip-path="url(#clip672)"
     cx="9348.7"
     cy="2607.81"
     r="108"
     fill="#5cc862"
     fill-rule="evenodd"
     fill-opacity="1"
     stroke="#000000"
     stroke-opacity="1"
     stroke-width="28.8"
     id="circle251" />
  <circle
     clip-path="url(#clip672)"
     cx="11651.6"
     cy="2775.58"
     r="108"
     fill="#5cc862"
     fill-rule="evenodd"
     fill-opacity="1"
     stroke="#000000"
     stroke-opacity="1"
     stroke-width="28.8"
     id="circle253" />
  <circle
     clip-path="url(#clip672)"
     cx="13907.6"
     cy="2832.08"
     r="108"
     fill="#5cc862"
     fill-rule="evenodd"
     fill-opacity="1"
     stroke="#000000"
     stroke-opacity="1"
     stroke-width="28.8"
     id="circle255" />
  <circle
     clip-path="url(#clip672)"
     cx="16210.5"
     cy="2729.74"
     r="108"
     fill="#5cc862"
     fill-rule="evenodd"
     fill-opacity="1"
     stroke="#000000"
     stroke-opacity="1"
     stroke-width="28.8"
     id="circle257" />
  <circle
     clip-path="url(#clip672)"
     cx="18466.5"
     cy="2263.1"
     r="108"
     fill="#5cc862"
     fill-rule="evenodd"
     fill-opacity="1"
     stroke="#000000"
     stroke-opacity="1"
     stroke-width="28.8"
     id="circle259" />
  <circle
     clip-path="url(#clip672)"
     cx="20769.5"
     cy="603.503"
     r="108"
     fill="#5cc862"
     fill-rule="evenodd"
     fill-opacity="1"
     stroke="#000000"
     stroke-opacity="1"
     stroke-width="28.8"
     id="circle261" />
  <polyline
     clip-path="url(#clip672)"
     style="stroke:#5cc862; stroke-width:48; stroke-opacity:1; fill:none"
     stroke-dasharray="192, 120"
     points="   4789.78,629.557 7092.72,2170.85 9348.7,2615 11651.6,2798.48 13907.6,2903.57 16210.5,2959.02 18466.5,2987.06 20769.5,3005.14    "
     id="polyline263" />
  <polyline
     clip-path="url(#clip672)"
     style="stroke:#20908c; stroke-width:48; stroke-opacity:1; fill:none"
     points="   2533.8,3891.38 4789.78,5048.08 7092.72,6166.13 9348.7,6509.5 11651.6,6642.26 13907.6,6682.71 16210.5,6583.46 18466.5,6154.03 20769.5,4635.25    "
     id="polyline265" />
  <circle
     clip-path="url(#clip672)"
     cx="2533.8"
     cy="3891.38"
     r="108"
     fill="#20908c"
     fill-rule="evenodd"
     fill-opacity="1"
     stroke="#000000"
     stroke-opacity="1"
     stroke-width="28.8"
     id="circle267" />
  <circle
     clip-path="url(#clip672)"
     cx="4789.78"
     cy="5048.08"
     r="108"
     fill="#20908c"
     fill-rule="evenodd"
     fill-opacity="1"
     stroke="#000000"
     stroke-opacity="1"
     stroke-width="28.8"
     id="circle269" />
  <circle
     clip-path="url(#clip672)"
     cx="7092.72"
     cy="6166.13"
     r="108"
     fill="#20908c"
     fill-rule="evenodd"
     fill-opacity="1"
     stroke="#000000"
     stroke-opacity="1"
     stroke-width="28.8"
     id="circle271" />
  <circle
     clip-path="url(#clip672)"
     cx="9348.7"
     cy="6509.5"
     r="108"
     fill="#20908c"
     fill-rule="evenodd"
     fill-opacity="1"
     stroke="#000000"
     stroke-opacity="1"
     stroke-width="28.8"
     id="circle273" />
  <circle
     clip-path="url(#clip672)"
     cx="11651.6"
     cy="6642.26"
     r="108"
     fill="#20908c"
     fill-rule="evenodd"
     fill-opacity="1"
     stroke="#000000"
     stroke-opacity="1"
     stroke-width="28.8"
     id="circle275" />
  <circle
     clip-path="url(#clip672)"
     cx="13907.6"
     cy="6682.71"
     r="108"
     fill="#20908c"
     fill-rule="evenodd"
     fill-opacity="1"
     stroke="#000000"
     stroke-opacity="1"
     stroke-width="28.8"
     id="circle277" />
  <circle
     clip-path="url(#clip672)"
     cx="16210.5"
     cy="6583.46"
     r="108"
     fill="#20908c"
     fill-rule="evenodd"
     fill-opacity="1"
     stroke="#000000"
     stroke-opacity="1"
     stroke-width="28.8"
     id="circle279" />
  <circle
     clip-path="url(#clip672)"
     cx="18466.5"
     cy="6154.03"
     r="108"
     fill="#20908c"
     fill-rule="evenodd"
     fill-opacity="1"
     stroke="#000000"
     stroke-opacity="1"
     stroke-width="28.8"
     id="circle281" />
  <circle
     clip-path="url(#clip672)"
     cx="20769.5"
     cy="4635.25"
     r="108"
     fill="#20908c"
     fill-rule="evenodd"
     fill-opacity="1"
     stroke="#000000"
     stroke-opacity="1"
     stroke-width="28.8"
     id="circle283" />
  <polyline
     clip-path="url(#clip672)"
     style="stroke:#20908c; stroke-width:48; stroke-opacity:1; fill:none"
     stroke-dasharray="192, 120"
     points="   2533.8,3891.6 4789.78,5048.76 7092.72,6168.24 9348.7,6516.06 11651.6,6663.18 13907.6,6748.03 16210.5,6793 18466.5,6815.73 20769.5,6830.46    "
     id="polyline285" />
  <polyline
     clip-path="url(#clip672)"
     style="stroke:#3a518b; stroke-width:48; stroke-opacity:1; fill:none"
     points="   2533.8,7962.99 4789.78,8665.13 7092.72,9496.17 9348.7,9761.76 11651.6,9865.25 13907.6,9892.08 16210.5,9795.19 18466.5,9396.64 20769.5,7995.13    "
     id="polyline287" />
  <circle
     clip-path="url(#clip672)"
     cx="2533.8"
     cy="7962.99"
     r="108"
     fill="#3a518b"
     fill-rule="evenodd"
     fill-opacity="1"
     stroke="#000000"
     stroke-opacity="1"
     stroke-width="28.8"
     id="circle289" />
  <circle
     clip-path="url(#clip672)"
     cx="4789.78"
     cy="8665.13"
     r="108"
     fill="#3a518b"
     fill-rule="evenodd"
     fill-opacity="1"
     stroke="#000000"
     stroke-opacity="1"
     stroke-width="28.8"
     id="circle291" />
  <circle
     clip-path="url(#clip672)"
     cx="7092.72"
     cy="9496.17"
     r="108"
     fill="#3a518b"
     fill-rule="evenodd"
     fill-opacity="1"
     stroke="#000000"
     stroke-opacity="1"
     stroke-width="28.8"
     id="circle293" />
  <circle
     clip-path="url(#clip672)"
     cx="9348.7"
     cy="9761.76"
     r="108"
     fill="#3a518b"
     fill-rule="evenodd"
     fill-opacity="1"
     stroke="#000000"
     stroke-opacity="1"
     stroke-width="28.8"
     id="circle295" />
  <circle
     clip-path="url(#clip672)"
     cx="11651.6"
     cy="9865.25"
     r="108"
     fill="#3a518b"
     fill-rule="evenodd"
     fill-opacity="1"
     stroke="#000000"
     stroke-opacity="1"
     stroke-width="28.8"
     id="circle297" />
  <circle
     clip-path="url(#clip672)"
     cx="13907.6"
     cy="9892.08"
     r="108"
     fill="#3a518b"
     fill-rule="evenodd"
     fill-opacity="1"
     stroke="#000000"
     stroke-opacity="1"
     stroke-width="28.8"
     id="circle299" />
  <circle
     clip-path="url(#clip672)"
     cx="16210.5"
     cy="9795.19"
     r="108"
     fill="#3a518b"
     fill-rule="evenodd"
     fill-opacity="1"
     stroke="#000000"
     stroke-opacity="1"
     stroke-width="28.8"
     id="circle301" />
  <circle
     clip-path="url(#clip672)"
     cx="18466.5"
     cy="9396.64"
     r="108"
     fill="#3a518b"
     fill-rule="evenodd"
     fill-opacity="1"
     stroke="#000000"
     stroke-opacity="1"
     stroke-width="28.8"
     id="circle303" />
  <circle
     clip-path="url(#clip672)"
     cx="20769.5"
     cy="7995.13"
     r="108"
     fill="#3a518b"
     fill-rule="evenodd"
     fill-opacity="1"
     stroke="#000000"
     stroke-opacity="1"
     stroke-width="28.8"
     id="circle305" />
  <polyline
     clip-path="url(#clip672)"
     style="stroke:#3a518b; stroke-width:48; stroke-opacity:1; fill:none"
     stroke-dasharray="192, 120"
     points="   2533.8,7963.2 4789.78,8665.76 7092.72,9498.12 9348.7,9767.8 11651.6,9884.53 13907.6,9952.27 16210.5,9988.29 18466.5,10006.5 20769.5,10018.3    "
     id="polyline307" />
  <path
     clip-path="url(#clip670)"
     d=" M2631.06 12531.8 L6258.04 12531.8 L6258.04 9991.6 L2631.06 9991.6  Z   "
     fill="#ffffff"
     fill-rule="evenodd"
     fill-opacity="1"
     id="path309" />
  <polyline
     clip-path="url(#clip670)"
     style="stroke:#000000; stroke-width:24; stroke-opacity:1; fill:none"
     points="   2631.06,12531.8 6258.04,12531.8 6258.04,9991.6 2631.06,9991.6 2631.06,12531.8    "
     id="polyline311" />
  <polyline
     clip-path="url(#clip670)"
     style="stroke:#5cc862; stroke-width:42; stroke-opacity:1; fill:none"
     points="   2845.83,10626.6 4134.49,10626.6    "
     id="polyline313" />
  <path
     clip-path="url(#clip670)"
     d="M 0 0 M4527.42 10681.5 L4516.73 10625.3 Q4505.79 10567.7 4462.53 10567.7 Q4429.96 10567.7 4415.13 10594.4 Q4396.42 10628 4396.42 10672.2 Q4396.42 10725.7 4414.65 10751.2 Q4433.12 10777.2 4462.53 10777.2 Q4495.1 10777.2 4512.6 10725.4 L4527.42 10681.5 M4552.46 10607.1 L4576.52 10535.9 L4616.38 10535.9 L4566.55 10683.4 L4576.28 10736.6 Q4578.46 10748.5 4586.97 10758.5 Q4596.94 10770.2 4604.71 10770.2 L4626.1 10770.2 L4626.1 10808.1 L4599.37 10808.1 Q4576.52 10808.1 4556.1 10787.7 Q4546.14 10777.5 4542.01 10756.1 Q4530.83 10783 4507.98 10804.2 Q4497.28 10814.2 4462.53 10814.2 Q4405.41 10814.2 4377.7 10777.2 Q4349.26 10739.1 4349.26 10672.2 Q4349.26 10600.8 4380.13 10567.2 Q4414.4 10529.8 4462.53 10529.8 Q4538.12 10529.8 4552.46 10607.1 Z"
     fill="#000000"
     fill-rule="evenodd"
     fill-opacity="1"
     id="path315" />
  <path
     clip-path="url(#clip670)"
     d="M 0 0 M4684.44 10746.3 L4735.72 10746.3 L4735.72 10808.1 L4684.44 10808.1 L4684.44 10746.3 M4684.44 10550.7 L4735.72 10550.7 L4735.72 10612.4 L4684.44 10612.4 L4684.44 10550.7 Z"
     fill="#000000"
     fill-rule="evenodd"
     fill-opacity="1"
     id="path317" />
  <path
     clip-path="url(#clip670)"
     d="M 0 0 M5052.18 10477.5 Q5014.26 10477.5 4995.06 10515 Q4976.1 10552.1 4976.1 10627 Q4976.1 10701.6 4995.06 10739.1 Q5014.26 10776.2 5052.18 10776.2 Q5090.34 10776.2 5109.29 10739.1 Q5128.5 10701.6 5128.5 10627 Q5128.5 10552.1 5109.29 10515 Q5090.34 10477.5 5052.18 10477.5 M5052.18 10438.6 Q5113.18 10438.6 5145.27 10487 Q5177.59 10535.1 5177.59 10627 Q5177.59 10718.6 5145.27 10767 Q5113.18 10815.1 5052.18 10815.1 Q4991.17 10815.1 4958.84 10767 Q4926.76 10718.6 4926.76 10627 Q4926.76 10535.1 4958.84 10487 Q4991.17 10438.6 5052.18 10438.6 Z"
     fill="#000000"
     fill-rule="evenodd"
     fill-opacity="1"
     id="path319" />
  <path
     clip-path="url(#clip670)"
     d="M 0 0 M5230.82 10746.3 L5282.11 10746.3 L5282.11 10808.1 L5230.82 10808.1 L5230.82 10746.3 Z"
     fill="#000000"
     fill-rule="evenodd"
     fill-opacity="1"
     id="path321" />
  <path
     clip-path="url(#clip670)"
     d="M 0 0 M5335.82 10445.2 L5528.56 10445.2 L5528.56 10486.5 L5380.79 10486.5 L5380.79 10575.5 Q5391.48 10571.8 5402.18 10570.1 Q5412.87 10568.2 5423.56 10568.2 Q5484.33 10568.2 5519.81 10601.5 Q5555.3 10634.8 5555.3 10691.7 Q5555.3 10750.2 5518.84 10782.8 Q5482.38 10815.1 5416.03 10815.1 Q5393.18 10815.1 5369.36 10811.2 Q5345.79 10807.4 5320.51 10799.6 L5320.51 10750.2 Q5342.38 10762.1 5365.72 10768 Q5389.05 10773.8 5415.06 10773.8 Q5457.11 10773.8 5481.65 10751.7 Q5506.2 10729.6 5506.2 10691.7 Q5506.2 10653.7 5481.65 10631.6 Q5457.11 10609.5 5415.06 10609.5 Q5395.37 10609.5 5375.68 10613.9 Q5356.24 10618.3 5335.82 10627.5 L5335.82 10445.2 Z"
     fill="#000000"
     fill-rule="evenodd"
     fill-opacity="1"
     id="path323" />
  <polyline
     clip-path="url(#clip670)"
     style="stroke:#20908c; stroke-width:42; stroke-opacity:1; fill:none"
     points="   2845.83,11261.7 4134.49,11261.7    "
     id="polyline325" />
  <circle
     clip-path="url(#clip670)"
     cx="3490.16"
     cy="11261.7"
     r="241"
     fill="#20908c"
     fill-rule="evenodd"
     fill-opacity="1"
     stroke="#000000"
     stroke-opacity="1"
     stroke-width="64.512"
     id="circle327" />
  <path
     clip-path="url(#clip670)"
     d="M 0 0 M4527.42 11316.5 L4516.73 11260.3 Q4505.79 11202.7 4462.53 11202.7 Q4429.96 11202.7 4415.13 11229.5 Q4396.42 11263 4396.42 11307.3 Q4396.42 11360.7 4414.65 11386.2 Q4433.12 11412.3 4462.53 11412.3 Q4495.1 11412.3 4512.6 11360.5 L4527.42 11316.5 M4552.46 11242.1 L4576.52 11170.9 L4616.38 11170.9 L4566.55 11318.4 L4576.28 11371.7 Q4578.46 11383.6 4586.97 11393.5 Q4596.94 11405.2 4604.71 11405.2 L4626.1 11405.2 L4626.1 11443.1 L4599.37 11443.1 Q4576.52 11443.1 4556.1 11422.7 Q4546.14 11412.5 4542.01 11391.1 Q4530.83 11418.1 4507.98 11439.2 Q4497.28 11449.2 4462.53 11449.2 Q4405.41 11449.2 4377.7 11412.3 Q4349.26 11374.1 4349.26 11307.3 Q4349.26 11235.8 4380.13 11202.3 Q4414.4 11164.8 4462.53 11164.8 Q4538.12 11164.8 4552.46 11242.1 Z"
     fill="#000000"
     fill-rule="evenodd"
     fill-opacity="1"
     id="path329" />
  <path
     clip-path="url(#clip670)"
     d="M 0 0 M4684.44 11381.4 L4735.72 11381.4 L4735.72 11443.1 L4684.44 11443.1 L4684.44 11381.4 M4684.44 11185.7 L4735.72 11185.7 L4735.72 11247.5 L4684.44 11247.5 L4684.44 11185.7 Z"
     fill="#000000"
     fill-rule="evenodd"
     fill-opacity="1"
     id="path331" />
  <path
     clip-path="url(#clip670)"
     d="M 0 0 M5052.18 11112.6 Q5014.26 11112.6 4995.06 11150 Q4976.1 11187.2 4976.1 11262 Q4976.1 11336.7 4995.06 11374.1 Q5014.26 11411.3 5052.18 11411.3 Q5090.34 11411.3 5109.29 11374.1 Q5128.5 11336.7 5128.5 11262 Q5128.5 11187.2 5109.29 11150 Q5090.34 11112.6 5052.18 11112.6 M5052.18 11073.7 Q5113.18 11073.7 5145.27 11122 Q5177.59 11170.2 5177.59 11262 Q5177.59 11353.7 5145.27 11402 Q5113.18 11450.2 5052.18 11450.2 Q4991.17 11450.2 4958.84 11402 Q4926.76 11353.7 4926.76 11262 Q4926.76 11170.2 4958.84 11122 Q4991.17 11073.7 5052.18 11073.7 Z"
     fill="#000000"
     fill-rule="evenodd"
     fill-opacity="1"
     id="path333" />
  <path
     clip-path="url(#clip670)"
     d="M 0 0 M5230.82 11381.4 L5282.11 11381.4 L5282.11 11443.1 L5230.82 11443.1 L5230.82 11381.4 Z"
     fill="#000000"
     fill-rule="evenodd"
     fill-opacity="1"
     id="path335" />
  <path
     clip-path="url(#clip670)"
     d="M 0 0 M5335.82 11080.2 L5528.56 11080.2 L5528.56 11121.6 L5380.79 11121.6 L5380.79 11210.5 Q5391.48 11206.9 5402.18 11205.2 Q5412.87 11203.2 5423.56 11203.2 Q5484.33 11203.2 5519.81 11236.5 Q5555.3 11269.8 5555.3 11326.7 Q5555.3 11385.3 5518.84 11417.8 Q5482.38 11450.2 5416.03 11450.2 Q5393.18 11450.2 5369.36 11446.3 Q5345.79 11442.4 5320.51 11434.6 L5320.51 11385.3 Q5342.38 11397.2 5365.72 11403 Q5389.05 11408.9 5415.06 11408.9 Q5457.11 11408.9 5481.65 11386.7 Q5506.2 11364.6 5506.2 11326.7 Q5506.2 11288.8 5481.65 11266.7 Q5457.11 11244.5 5415.06 11244.5 Q5395.37 11244.5 5375.68 11248.9 Q5356.24 11253.3 5335.82 11262.5 L5335.82 11080.2 Z"
     fill="#000000"
     fill-rule="evenodd"
     fill-opacity="1"
     id="path337" />
  <path
     clip-path="url(#clip670)"
     d="M 0 0 M5609.01 11080.2 L5801.76 11080.2 L5801.76 11121.6 L5653.98 11121.6 L5653.98 11210.5 Q5664.67 11206.9 5675.37 11205.2 Q5686.06 11203.2 5696.76 11203.2 Q5757.52 11203.2 5793.01 11236.5 Q5828.49 11269.8 5828.49 11326.7 Q5828.49 11385.3 5792.03 11417.8 Q5755.58 11450.2 5689.22 11450.2 Q5666.38 11450.2 5642.56 11446.3 Q5618.98 11442.4 5593.7 11434.6 L5593.7 11385.3 Q5615.58 11397.2 5638.91 11403 Q5662.24 11408.9 5688.25 11408.9 Q5730.3 11408.9 5754.85 11386.7 Q5779.4 11364.6 5779.4 11326.7 Q5779.4 11288.8 5754.85 11266.7 Q5730.3 11244.5 5688.25 11244.5 Q5668.56 11244.5 5648.88 11248.9 Q5629.43 11253.3 5609.01 11262.5 L5609.01 11080.2 Z"
     fill="#000000"
     fill-rule="evenodd"
     fill-opacity="1"
     id="path339" />
  <polyline
     clip-path="url(#clip670)"
     style="stroke:#3a518b; stroke-width:42; stroke-opacity:1; fill:none"
     points="   2845.83,11896.7 4134.49,11896.7    "
     id="polyline341" />
  <circle
     clip-path="url(#clip670)"
     cx="3490.16"
     cy="11896.7"
     r="241"
     fill="#3a518b"
     fill-rule="evenodd"
     fill-opacity="1"
     stroke="#000000"
     stroke-opacity="1"
     stroke-width="64.512"
     id="circle343" />
  <path
     clip-path="url(#clip670)"
     d="M 0 0 M4527.42 11951.5 L4516.73 11895.4 Q4505.79 11837.8 4462.53 11837.8 Q4429.96 11837.8 4415.13 11864.5 Q4396.42 11898.1 4396.42 11942.3 Q4396.42 11995.8 4414.65 12021.3 Q4433.12 12047.3 4462.53 12047.3 Q4495.1 12047.3 4512.6 11995.5 L4527.42 11951.5 M4552.46 11877.2 L4576.52 11805.9 L4616.38 11805.9 L4566.55 11953.5 L4576.28 12006.7 Q4578.46 12018.6 4586.97 12028.6 Q4596.94 12040.2 4604.71 12040.2 L4626.1 12040.2 L4626.1 12078.2 L4599.37 12078.2 Q4576.52 12078.2 4556.1 12057.7 Q4546.14 12047.5 4542.01 12026.2 Q4530.83 12053.1 4507.98 12074.3 Q4497.28 12084.2 4462.53 12084.2 Q4405.41 12084.2 4377.7 12047.3 Q4349.26 12009.1 4349.26 11942.3 Q4349.26 11870.8 4380.13 11837.3 Q4414.4 11799.9 4462.53 11799.9 Q4538.12 11799.9 4552.46 11877.2 Z"
     fill="#000000"
     fill-rule="evenodd"
     fill-opacity="1"
     id="path345" />
  <path
     clip-path="url(#clip670)"
     d="M 0 0 M4684.44 12016.4 L4735.72 12016.4 L4735.72 12078.2 L4684.44 12078.2 L4684.44 12016.4 M4684.44 11820.8 L4735.72 11820.8 L4735.72 11882.5 L4684.44 11882.5 L4684.44 11820.8 Z"
     fill="#000000"
     fill-rule="evenodd"
     fill-opacity="1"
     id="path347" />
  <path
     clip-path="url(#clip670)"
     d="M 0 0 M5052.18 11747.6 Q5014.26 11747.6 4995.06 11785 Q4976.1 11822.2 4976.1 11897.1 Q4976.1 11971.7 4995.06 12009.1 Q5014.26 12046.3 5052.18 12046.3 Q5090.34 12046.3 5109.29 12009.1 Q5128.5 11971.7 5128.5 11897.1 Q5128.5 11822.2 5109.29 11785 Q5090.34 11747.6 5052.18 11747.6 M5052.18 11708.7 Q5113.18 11708.7 5145.27 11757.1 Q5177.59 11805.2 5177.59 11897.1 Q5177.59 11988.7 5145.27 12037.1 Q5113.18 12085.2 5052.18 12085.2 Q4991.17 12085.2 4958.84 12037.1 Q4926.76 11988.7 4926.76 11897.1 Q4926.76 11805.2 4958.84 11757.1 Q4991.17 11708.7 5052.18 11708.7 Z"
     fill="#000000"
     fill-rule="evenodd"
     fill-opacity="1"
     id="path349" />
  <path
     clip-path="url(#clip670)"
     d="M 0 0 M5230.82 12016.4 L5282.11 12016.4 L5282.11 12078.2 L5230.82 12078.2 L5230.82 12016.4 Z"
     fill="#000000"
     fill-rule="evenodd"
     fill-opacity="1"
     id="path351" />
  <path
     clip-path="url(#clip670)"
     d="M 0 0 M5446.41 11877.2 Q5413.36 11877.2 5393.91 11899.8 Q5374.71 11922.4 5374.71 11961.7 Q5374.71 12000.9 5393.91 12023.7 Q5413.36 12046.3 5446.41 12046.3 Q5479.47 12046.3 5498.67 12023.7 Q5518.11 12000.9 5518.11 11961.7 Q5518.11 11922.4 5498.67 11899.8 Q5479.47 11877.2 5446.41 11877.2 M5543.88 11723.3 L5543.88 11768 Q5525.4 11759.3 5506.45 11754.7 Q5487.73 11750 5469.26 11750 Q5420.65 11750 5394.88 11782.9 Q5369.36 11815.7 5365.72 11882 Q5380.06 11860.9 5401.69 11849.7 Q5423.32 11838.3 5449.33 11838.3 Q5504.01 11838.3 5535.61 11871.6 Q5567.45 11904.6 5567.45 11961.7 Q5567.45 12017.6 5534.4 12051.4 Q5501.34 12085.2 5446.41 12085.2 Q5383.46 12085.2 5350.16 12037.1 Q5316.86 11988.7 5316.86 11897.1 Q5316.86 11811 5357.7 11760 Q5398.53 11708.7 5467.31 11708.7 Q5485.79 11708.7 5504.5 11712.4 Q5523.46 11716 5543.88 11723.3 Z"
     fill="#000000"
     fill-rule="evenodd"
     fill-opacity="1"
     id="path353" />
  <circle
     transform="translate(0,-635.1002)"
     style="fill:#5cc862;fill-opacity:1;fill-rule:evenodd;stroke:#000000;stroke-width:64.512001;stroke-opacity:1"
     clip-path="url(#clip670-3)"
     cx="3490.16"
     cy="11261.7"
     r="241"
     id="circle327-7" />
</svg>
