<?xml version="1.0" encoding="utf-8" standalone="no"?>
<!DOCTYPE svg PUBLIC "-//W3C//DTD SVG 1.1//EN"
  "http://www.w3.org/Graphics/SVG/1.1/DTD/svg11.dtd">
<!-- Created with matplotlib (http://matplotlib.org/) -->
<svg height="487.975312pt" version="1.1" viewBox="0 0 728.953125 487.975312" width="728.953125pt" xmlns="http://www.w3.org/2000/svg" xmlns:xlink="http://www.w3.org/1999/xlink">
 <defs>
  <style type="text/css">
*{stroke-linecap:butt;stroke-linejoin:round;}
  </style>
 </defs>
 <g id="figure_1">
  <g id="patch_1">
   <path d="M 0 487.975312 
L 728.953125 487.975312 
L 728.953125 0 
L 0 0 
z
" style="fill:#ffffff;"/>
  </g>
  <g id="axes_1">
   <g id="patch_2">
    <path d="M 48.653125 445.58 
L 718.253125 445.58 
L 718.253125 10.7 
L 48.653125 10.7 
z
" style="fill:#ffffff;"/>
   </g>
   <g id="PathCollection_1">
    <path clip-path="url(#p270685f82c)" d="M 462.760555 178.372194 
C 467.118286 178.372194 471.298123 176.640849 474.379505 173.559467 
C 477.460886 170.478086 479.192231 166.298249 479.192231 161.940517 
C 479.192231 157.582786 477.460886 153.402949 474.379505 150.321567 
C 471.298123 147.240186 467.118286 145.50884 462.760555 145.50884 
C 458.402823 145.50884 454.222986 147.240186 451.141604 150.321567 
C 448.060223 153.402949 446.328878 157.582786 446.328878 161.940517 
C 446.328878 166.298249 448.060223 170.478086 451.141604 173.559467 
C 454.222986 176.640849 458.402823 178.372194 462.760555 178.372194 
z
" style="fill:#1f77b4;fill-opacity:0.5;stroke:#1f77b4;stroke-opacity:0.5;"/>
    <path clip-path="url(#p270685f82c)" d="M 578.427345 309.122621 
C 582.785077 309.122621 586.964914 307.391276 590.046295 304.309894 
C 593.127677 301.228513 594.859022 297.048676 594.859022 292.690944 
C 594.859022 288.333212 593.127677 284.153376 590.046295 281.071994 
C 586.964914 277.990612 582.785077 276.259267 578.427345 276.259267 
C 574.069614 276.259267 569.889777 277.990612 566.808395 281.071994 
C 563.727014 284.153376 561.995669 288.333212 561.995669 292.690944 
C 561.995669 297.048676 563.727014 301.228513 566.808395 304.309894 
C 569.889777 307.391276 574.069614 309.122621 578.427345 309.122621 
z
" style="fill:#1f77b4;fill-opacity:0.5;stroke:#1f77b4;stroke-opacity:0.5;"/>
    <path clip-path="url(#p270685f82c)" d="M 511.696504 178.372194 
C 516.054236 178.372194 520.234073 176.640849 523.315455 173.559467 
C 526.396836 170.478086 528.128181 166.298249 528.128181 161.940517 
C 528.128181 157.582786 526.396836 153.402949 523.315455 150.321567 
C 520.234073 147.240186 516.054236 145.50884 511.696504 145.50884 
C 507.338773 145.50884 503.158936 147.240186 500.077554 150.321567 
C 496.996173 153.402949 495.264828 157.582786 495.264828 161.940517 
C 495.264828 166.298249 496.996173 170.478086 500.077554 173.559467 
C 503.158936 176.640849 507.338773 178.372194 511.696504 178.372194 
z
" style="fill:#1f77b4;fill-opacity:0.5;stroke:#1f77b4;stroke-opacity:0.5;"/>
    <path clip-path="url(#p270685f82c)" d="M 462.760555 309.122621 
C 467.118286 309.122621 471.298123 307.391276 474.379505 304.309894 
C 477.460886 301.228513 479.192231 297.048676 479.192231 292.690944 
C 479.192231 288.333212 477.460886 284.153376 474.379505 281.071994 
C 471.298123 277.990612 467.118286 276.259267 462.760555 276.259267 
C 458.402823 276.259267 454.222986 277.990612 451.141604 281.071994 
C 448.060223 284.153376 446.328878 288.333212 446.328878 292.690944 
C 446.328878 297.048676 448.060223 301.228513 451.141604 304.309894 
C 454.222986 307.391276 458.402823 309.122621 462.760555 309.122621 
z
" style="fill:#1f77b4;fill-opacity:0.5;stroke:#1f77b4;stroke-opacity:0.5;"/>
    <path clip-path="url(#p270685f82c)" d="M 462.760555 439.873048 
C 467.118286 439.873048 471.298123 438.141703 474.379505 435.060321 
C 477.460886 431.97894 479.192231 427.799103 479.192231 423.441371 
C 479.192231 419.083639 477.460886 414.903803 474.379505 411.822421 
C 471.298123 408.741039 467.118286 407.009694 462.760555 407.009694 
C 458.402823 407.009694 454.222986 408.741039 451.141604 411.822421 
C 448.060223 414.903803 446.328878 419.083639 446.328878 423.441371 
C 446.328878 427.799103 448.060223 431.97894 451.141604 435.060321 
C 454.222986 438.141703 458.402823 439.873048 462.760555 439.873048 
z
" style="fill:#1f77b4;fill-opacity:0.5;stroke:#1f77b4;stroke-opacity:0.5;"/>
    <path clip-path="url(#p270685f82c)" d="M 622.914573 309.122621 
C 627.272304 309.122621 631.452141 307.391276 634.533523 304.309894 
C 637.614904 301.228513 639.346249 297.048676 639.346249 292.690944 
C 639.346249 288.333212 637.614904 284.153376 634.533523 281.071994 
C 631.452141 277.990612 627.272304 276.259267 622.914573 276.259267 
C 618.556841 276.259267 614.377004 277.990612 611.295622 281.071994 
C 608.214241 284.153376 606.482896 288.333212 606.482896 292.690944 
C 606.482896 297.048676 608.214241 301.228513 611.295622 304.309894 
C 614.377004 307.391276 618.556841 309.122621 622.914573 309.122621 
z
" style="fill:#1f77b4;fill-opacity:0.5;stroke:#1f77b4;stroke-opacity:0.5;"/>
    <path clip-path="url(#p270685f82c)" d="M 685.196691 309.122621 
C 689.554422 309.122621 693.734259 307.391276 696.815641 304.309894 
C 699.897022 301.228513 701.628367 297.048676 701.628367 292.690944 
C 701.628367 288.333212 699.897022 284.153376 696.815641 281.071994 
C 693.734259 277.990612 689.554422 276.259267 685.196691 276.259267 
C 680.838959 276.259267 676.659122 277.990612 673.577741 281.071994 
C 670.496359 284.153376 668.765014 288.333212 668.765014 292.690944 
C 668.765014 297.048676 670.496359 301.228513 673.577741 304.309894 
C 676.659122 307.391276 680.838959 309.122621 685.196691 309.122621 
z
" style="fill:#1f77b4;fill-opacity:0.5;stroke:#1f77b4;stroke-opacity:0.5;"/>
    <path clip-path="url(#p270685f82c)" d="M 511.696504 309.122621 
C 516.054236 309.122621 520.234073 307.391276 523.315455 304.309894 
C 526.396836 301.228513 528.128181 297.048676 528.128181 292.690944 
C 528.128181 288.333212 526.396836 284.153376 523.315455 281.071994 
C 520.234073 277.990612 516.054236 276.259267 511.696504 276.259267 
C 507.338773 276.259267 503.158936 277.990612 500.077554 281.071994 
C 496.996173 284.153376 495.264828 288.333212 495.264828 292.690944 
C 495.264828 297.048676 496.996173 301.228513 500.077554 304.309894 
C 503.158936 307.391276 507.338773 309.122621 511.696504 309.122621 
z
" style="fill:#1f77b4;fill-opacity:0.5;stroke:#1f77b4;stroke-opacity:0.5;"/>
    <path clip-path="url(#p270685f82c)" d="M 462.760555 309.122621 
C 467.118286 309.122621 471.298123 307.391276 474.379505 304.309894 
C 477.460886 301.228513 479.192231 297.048676 479.192231 292.690944 
C 479.192231 288.333212 477.460886 284.153376 474.379505 281.071994 
C 471.298123 277.990612 467.118286 276.259267 462.760555 276.259267 
C 458.402823 276.259267 454.222986 277.990612 451.141604 281.071994 
C 448.060223 284.153376 446.328878 288.333212 446.328878 292.690944 
C 446.328878 297.048676 448.060223 301.228513 451.141604 304.309894 
C 454.222986 307.391276 458.402823 309.122621 462.760555 309.122621 
z
" style="fill:#1f77b4;fill-opacity:0.5;stroke:#1f77b4;stroke-opacity:0.5;"/>
    <path clip-path="url(#p270685f82c)" d="M 685.196691 178.372194 
C 689.554422 178.372194 693.734259 176.640849 696.815641 173.559467 
C 699.897022 170.478086 701.628367 166.298249 701.628367 161.940517 
C 701.628367 157.582786 699.897022 153.402949 696.815641 150.321567 
C 693.734259 147.240186 689.554422 145.50884 685.196691 145.50884 
C 680.838959 145.50884 676.659122 147.240186 673.577741 150.321567 
C 670.496359 153.402949 668.765014 157.582786 668.765014 161.940517 
C 668.765014 166.298249 670.496359 170.478086 673.577741 173.559467 
C 676.659122 176.640849 680.838959 178.372194 685.196691 178.372194 
z
" style="fill:#1f77b4;fill-opacity:0.5;stroke:#1f77b4;stroke-opacity:0.5;"/>
    <path clip-path="url(#p270685f82c)" d="M 622.914573 178.372194 
C 627.272304 178.372194 631.452141 176.640849 634.533523 173.559467 
C 637.614904 170.478086 639.346249 166.298249 639.346249 161.940517 
C 639.346249 157.582786 637.614904 153.402949 634.533523 150.321567 
C 631.452141 147.240186 627.272304 145.50884 622.914573 145.50884 
C 618.556841 145.50884 614.377004 147.240186 611.295622 150.321567 
C 608.214241 153.402949 606.482896 157.582786 606.482896 161.940517 
C 606.482896 166.298249 608.214241 170.478086 611.295622 173.559467 
C 614.377004 176.640849 618.556841 178.372194 622.914573 178.372194 
z
" style="fill:#1f77b4;fill-opacity:0.5;stroke:#1f77b4;stroke-opacity:0.5;"/>
    <path clip-path="url(#p270685f82c)" d="M 578.427345 178.372194 
C 582.785077 178.372194 586.964914 176.640849 590.046295 173.559467 
C 593.127677 170.478086 594.859022 166.298249 594.859022 161.940517 
C 594.859022 157.582786 593.127677 153.402949 590.046295 150.321567 
C 586.964914 147.240186 582.785077 145.50884 578.427345 145.50884 
C 574.069614 145.50884 569.889777 147.240186 566.808395 150.321567 
C 563.727014 153.402949 561.995669 157.582786 561.995669 161.940517 
C 561.995669 166.298249 563.727014 170.478086 566.808395 173.559467 
C 569.889777 176.640849 574.069614 178.372194 578.427345 178.372194 
z
" style="fill:#1f77b4;fill-opacity:0.5;stroke:#1f77b4;stroke-opacity:0.5;"/>
   </g>
   <g id="PathCollection_2">
    <path clip-path="url(#p270685f82c)" d="M 462.760555 176.345377 
C 466.580768 176.345377 470.24503 174.82759 472.946329 172.126292 
C 475.647628 169.424993 477.165415 165.760731 477.165415 161.940517 
C 477.165415 158.120304 475.647628 154.456042 472.946329 151.754743 
C 470.24503 149.053444 466.580768 147.535657 462.760555 147.535657 
C 458.940341 147.535657 455.276079 149.053444 452.57478 151.754743 
C 449.873481 154.456042 448.355694 158.120304 448.355694 161.940517 
C 448.355694 165.760731 449.873481 169.424993 452.57478 172.126292 
C 455.276079 174.82759 458.940341 176.345377 462.760555 176.345377 
z
" style="fill:#ff7f0e;fill-opacity:0.5;stroke:#ff7f0e;stroke-opacity:0.5;"/>
    <path clip-path="url(#p270685f82c)" d="M 462.760555 307.095804 
C 466.580768 307.095804 470.24503 305.578017 472.946329 302.876718 
C 475.647628 300.17542 477.165415 296.511158 477.165415 292.690944 
C 477.165415 288.87073 475.647628 285.206469 472.946329 282.50517 
C 470.24503 279.803871 466.580768 278.286084 462.760555 278.286084 
C 458.940341 278.286084 455.276079 279.803871 452.57478 282.50517 
C 449.873481 285.206469 448.355694 288.87073 448.355694 292.690944 
C 448.355694 296.511158 449.873481 300.17542 452.57478 302.876718 
C 455.276079 305.578017 458.940341 307.095804 462.760555 307.095804 
z
" style="fill:#ff7f0e;fill-opacity:0.5;stroke:#ff7f0e;stroke-opacity:0.5;"/>
    <path clip-path="url(#p270685f82c)" d="M 462.760555 437.846231 
C 466.580768 437.846231 470.24503 436.328444 472.946329 433.627145 
C 475.647628 430.925846 477.165415 427.261585 477.165415 423.441371 
C 477.165415 419.621157 475.647628 415.956896 472.946329 413.255597 
C 470.24503 410.554298 466.580768 409.036511 462.760555 409.036511 
C 458.940341 409.036511 455.276079 410.554298 452.57478 413.255597 
C 449.873481 415.956896 448.355694 419.621157 448.355694 423.441371 
C 448.355694 427.261585 449.873481 430.925846 452.57478 433.627145 
C 455.276079 436.328444 458.940341 437.846231 462.760555 437.846231 
z
" style="fill:#ff7f0e;fill-opacity:0.5;stroke:#ff7f0e;stroke-opacity:0.5;"/>
    <path clip-path="url(#p270685f82c)" d="M 462.760555 176.345377 
C 466.580768 176.345377 470.24503 174.82759 472.946329 172.126292 
C 475.647628 169.424993 477.165415 165.760731 477.165415 161.940517 
C 477.165415 158.120304 475.647628 154.456042 472.946329 151.754743 
C 470.24503 149.053444 466.580768 147.535657 462.760555 147.535657 
C 458.940341 147.535657 455.276079 149.053444 452.57478 151.754743 
C 449.873481 154.456042 448.355694 158.120304 448.355694 161.940517 
C 448.355694 165.760731 449.873481 169.424993 452.57478 172.126292 
C 455.276079 174.82759 458.940341 176.345377 462.760555 176.345377 
z
" style="fill:#ff7f0e;fill-opacity:0.5;stroke:#ff7f0e;stroke-opacity:0.5;"/>
    <path clip-path="url(#p270685f82c)" d="M 618.46585 176.345377 
C 622.286063 176.345377 625.950325 174.82759 628.651624 172.126292 
C 631.352923 169.424993 632.87071 165.760731 632.87071 161.940517 
C 632.87071 158.120304 631.352923 154.456042 628.651624 151.754743 
C 625.950325 149.053444 622.286063 147.535657 618.46585 147.535657 
C 614.645636 147.535657 610.981374 149.053444 608.280075 151.754743 
C 605.578776 154.456042 604.06099 158.120304 604.06099 161.940517 
C 604.06099 165.760731 605.578776 169.424993 608.280075 172.126292 
C 610.981374 174.82759 614.645636 176.345377 618.46585 176.345377 
z
" style="fill:#ff7f0e;fill-opacity:0.5;stroke:#ff7f0e;stroke-opacity:0.5;"/>
    <path clip-path="url(#p270685f82c)" d="M 569.5299 176.345377 
C 573.350113 176.345377 577.014375 174.82759 579.715674 172.126292 
C 582.416973 169.424993 583.93476 165.760731 583.93476 161.940517 
C 583.93476 158.120304 582.416973 154.456042 579.715674 151.754743 
C 577.014375 149.053444 573.350113 147.535657 569.5299 147.535657 
C 565.709686 147.535657 562.045424 149.053444 559.344125 151.754743 
C 556.642827 154.456042 555.12504 158.120304 555.12504 161.940517 
C 555.12504 165.760731 556.642827 169.424993 559.344125 172.126292 
C 562.045424 174.82759 565.709686 176.345377 569.5299 176.345377 
z
" style="fill:#ff7f0e;fill-opacity:0.5;stroke:#ff7f0e;stroke-opacity:0.5;"/>
    <path clip-path="url(#p270685f82c)" d="M 511.696504 176.345377 
C 515.516718 176.345377 519.18098 174.82759 521.882279 172.126292 
C 524.583578 169.424993 526.101365 165.760731 526.101365 161.940517 
C 526.101365 158.120304 524.583578 154.456042 521.882279 151.754743 
C 519.18098 149.053444 515.516718 147.535657 511.696504 147.535657 
C 507.876291 147.535657 504.212029 149.053444 501.51073 151.754743 
C 498.809431 154.456042 497.291644 158.120304 497.291644 161.940517 
C 497.291644 165.760731 498.809431 169.424993 501.51073 172.126292 
C 504.212029 174.82759 507.876291 176.345377 511.696504 176.345377 
z
" style="fill:#ff7f0e;fill-opacity:0.5;stroke:#ff7f0e;stroke-opacity:0.5;"/>
    <path clip-path="url(#p270685f82c)" d="M 462.760555 239.105582 
C 466.580768 239.105582 470.24503 237.587795 472.946329 234.886496 
C 475.647628 232.185198 477.165415 228.520936 477.165415 224.700722 
C 477.165415 220.880508 475.647628 217.216247 472.946329 214.514948 
C 470.24503 211.813649 466.580768 210.295862 462.760555 210.295862 
C 458.940341 210.295862 455.276079 211.813649 452.57478 214.514948 
C 449.873481 217.216247 448.355694 220.880508 448.355694 224.700722 
C 448.355694 228.520936 449.873481 232.185198 452.57478 234.886496 
C 455.276079 237.587795 458.940341 239.105582 462.760555 239.105582 
z
" style="fill:#ff7f0e;fill-opacity:0.5;stroke:#ff7f0e;stroke-opacity:0.5;"/>
    <path clip-path="url(#p270685f82c)" d="M 680.747968 176.345377 
C 684.568182 176.345377 688.232443 174.82759 690.933742 172.126292 
C 693.635041 169.424993 695.152828 165.760731 695.152828 161.940517 
C 695.152828 158.120304 693.635041 154.456042 690.933742 151.754743 
C 688.232443 149.053444 684.568182 147.535657 680.747968 147.535657 
C 676.927754 147.535657 673.263492 149.053444 670.562194 151.754743 
C 667.860895 154.456042 666.343108 158.120304 666.343108 161.940517 
C 666.343108 165.760731 667.860895 169.424993 670.562194 172.126292 
C 673.263492 174.82759 676.927754 176.345377 680.747968 176.345377 
z
" style="fill:#ff7f0e;fill-opacity:0.5;stroke:#ff7f0e;stroke-opacity:0.5;"/>
   </g>
   <g id="PathCollection_3">
    <path clip-path="url(#p270685f82c)" d="M 80.1704 250.07886 
C 83.363869 250.07886 86.426971 248.810082 88.685094 246.551959 
C 90.943217 244.293836 92.211995 241.230734 92.211995 238.037266 
C 92.211995 234.843797 90.943217 231.780695 88.685094 229.522572 
C 86.426971 227.264449 83.363869 225.995671 80.1704 225.995671 
C 76.976932 225.995671 73.91383 227.264449 71.655707 229.522572 
C 69.397584 231.780695 68.128806 234.843797 68.128806 238.037266 
C 68.128806 241.230734 69.397584 244.293836 71.655707 246.551959 
C 73.91383 248.810082 76.976932 250.07886 80.1704 250.07886 
z
" style="fill:#2ca02c;fill-opacity:0.5;stroke:#2ca02c;stroke-opacity:0.5;"/>
    <path clip-path="url(#p270685f82c)" d="M 80.1704 313.100566 
C 83.363869 313.100566 86.426971 311.831788 88.685094 309.573665 
C 90.943217 307.315542 92.211995 304.25244 92.211995 301.058971 
C 92.211995 297.865503 90.943217 294.802401 88.685094 292.544278 
C 86.426971 290.286155 83.363869 289.017377 80.1704 289.017377 
C 76.976932 289.017377 73.91383 290.286155 71.655707 292.544278 
C 69.397584 294.802401 68.128806 297.865503 68.128806 301.058971 
C 68.128806 304.25244 69.397584 307.315542 71.655707 309.573665 
C 73.91383 311.831788 76.976932 313.100566 80.1704 313.100566 
z
" style="fill:#2ca02c;fill-opacity:0.5;stroke:#2ca02c;stroke-opacity:0.5;"/>
    <path clip-path="url(#p270685f82c)" d="M 120.208905 173.982112 
C 123.402373 173.982112 126.465475 172.713333 128.723598 170.45521 
C 130.981721 168.197087 132.2505 165.133985 132.2505 161.940517 
C 132.2505 158.747049 130.981721 155.683947 128.723598 153.425824 
C 126.465475 151.167701 123.402373 149.898923 120.208905 149.898923 
C 117.015437 149.898923 113.952335 151.167701 111.694212 153.425824 
C 109.436089 155.683947 108.16731 158.747049 108.16731 161.940517 
C 108.16731 165.133985 109.436089 168.197087 111.694212 170.45521 
C 113.952335 172.713333 117.015437 173.982112 120.208905 173.982112 
z
" style="fill:#2ca02c;fill-opacity:0.5;stroke:#2ca02c;stroke-opacity:0.5;"/>
    <path clip-path="url(#p270685f82c)" d="M 80.1704 173.982112 
C 83.363869 173.982112 86.426971 172.713333 88.685094 170.45521 
C 90.943217 168.197087 92.211995 165.133985 92.211995 161.940517 
C 92.211995 158.747049 90.943217 155.683947 88.685094 153.425824 
C 86.426971 151.167701 83.363869 149.898923 80.1704 149.898923 
C 76.976932 149.898923 73.91383 151.167701 71.655707 153.425824 
C 69.397584 155.683947 68.128806 158.747049 68.128806 161.940517 
C 68.128806 165.133985 69.397584 168.197087 71.655707 170.45521 
C 73.91383 172.713333 76.976932 173.982112 80.1704 173.982112 
z
" style="fill:#2ca02c;fill-opacity:0.5;stroke:#2ca02c;stroke-opacity:0.5;"/>
    <path clip-path="url(#p270685f82c)" d="M 195.837191 173.982112 
C 199.030659 173.982112 202.093761 172.713333 204.351884 170.45521 
C 206.610007 168.197087 207.878786 165.133985 207.878786 161.940517 
C 207.878786 158.747049 206.610007 155.683947 204.351884 153.425824 
C 202.093761 151.167701 199.030659 149.898923 195.837191 149.898923 
C 192.643723 149.898923 189.580621 151.167701 187.322498 153.425824 
C 185.064375 155.683947 183.795597 158.747049 183.795597 161.940517 
C 183.795597 165.133985 185.064375 168.197087 187.322498 170.45521 
C 189.580621 172.713333 192.643723 173.982112 195.837191 173.982112 
z
" style="fill:#2ca02c;fill-opacity:0.5;stroke:#2ca02c;stroke-opacity:0.5;"/>
    <path clip-path="url(#p270685f82c)" d="M 240.324418 173.982112 
C 243.517887 173.982112 246.580989 172.713333 248.839112 170.45521 
C 251.097235 168.197087 252.366013 165.133985 252.366013 161.940517 
C 252.366013 158.747049 251.097235 155.683947 248.839112 153.425824 
C 246.580989 151.167701 243.517887 149.898923 240.324418 149.898923 
C 237.13095 149.898923 234.067848 151.167701 231.809725 153.425824 
C 229.551602 155.683947 228.282824 158.747049 228.282824 161.940517 
C 228.282824 165.133985 229.551602 168.197087 231.809725 170.45521 
C 234.067848 172.713333 237.13095 173.982112 240.324418 173.982112 
z
" style="fill:#2ca02c;fill-opacity:0.5;stroke:#2ca02c;stroke-opacity:0.5;"/>
    <path clip-path="url(#p270685f82c)" d="M 578.427345 173.982112 
C 581.620814 173.982112 584.683915 172.713333 586.942038 170.45521 
C 589.200162 168.197087 590.46894 165.133985 590.46894 161.940517 
C 590.46894 158.747049 589.200162 155.683947 586.942038 153.425824 
C 584.683915 151.167701 581.620814 149.898923 578.427345 149.898923 
C 575.233877 149.898923 572.170775 151.167701 569.912652 153.425824 
C 567.654529 155.683947 566.385751 158.747049 566.385751 161.940517 
C 566.385751 165.133985 567.654529 168.197087 569.912652 170.45521 
C 572.170775 172.713333 575.233877 173.982112 578.427345 173.982112 
z
" style="fill:#2ca02c;fill-opacity:0.5;stroke:#2ca02c;stroke-opacity:0.5;"/>
    <path clip-path="url(#p270685f82c)" d="M 462.760555 173.982112 
C 465.954023 173.982112 469.017125 172.713333 471.275248 170.45521 
C 473.533371 168.197087 474.802149 165.133985 474.802149 161.940517 
C 474.802149 158.747049 473.533371 155.683947 471.275248 153.425824 
C 469.017125 151.167701 465.954023 149.898923 462.760555 149.898923 
C 459.567086 149.898923 456.503984 151.167701 454.245861 153.425824 
C 451.987738 155.683947 450.71896 158.747049 450.71896 161.940517 
C 450.71896 165.133985 451.987738 168.197087 454.245861 170.45521 
C 456.503984 172.713333 459.567086 173.982112 462.760555 173.982112 
z
" style="fill:#2ca02c;fill-opacity:0.5;stroke:#2ca02c;stroke-opacity:0.5;"/>
    <path clip-path="url(#p270685f82c)" d="M 511.696504 173.982112 
C 514.889973 173.982112 517.953075 172.713333 520.211198 170.45521 
C 522.469321 168.197087 523.738099 165.133985 523.738099 161.940517 
C 523.738099 158.747049 522.469321 155.683947 520.211198 153.425824 
C 517.953075 151.167701 514.889973 149.898923 511.696504 149.898923 
C 508.503036 149.898923 505.439934 151.167701 503.181811 153.425824 
C 500.923688 155.683947 499.65491 158.747049 499.65491 161.940517 
C 499.65491 165.133985 500.923688 168.197087 503.181811 170.45521 
C 505.439934 172.713333 508.503036 173.982112 511.696504 173.982112 
z
" style="fill:#2ca02c;fill-opacity:0.5;stroke:#2ca02c;stroke-opacity:0.5;"/>
    <path clip-path="url(#p270685f82c)" d="M 115.760182 173.982112 
C 118.95365 173.982112 122.016752 172.713333 124.274875 170.45521 
C 126.532998 168.197087 127.801777 165.133985 127.801777 161.940517 
C 127.801777 158.747049 126.532998 155.683947 124.274875 153.425824 
C 122.016752 151.167701 118.95365 149.898923 115.760182 149.898923 
C 112.566714 149.898923 109.503612 151.167701 107.245489 153.425824 
C 104.987366 155.683947 103.718588 158.747049 103.718588 161.940517 
C 103.718588 165.133985 104.987366 168.197087 107.245489 170.45521 
C 109.503612 172.713333 112.566714 173.982112 115.760182 173.982112 
z
" style="fill:#2ca02c;fill-opacity:0.5;stroke:#2ca02c;stroke-opacity:0.5;"/>
    <path clip-path="url(#p270685f82c)" d="M 622.914573 173.982112 
C 626.108041 173.982112 629.171143 172.713333 631.429266 170.45521 
C 633.687389 168.197087 634.956167 165.133985 634.956167 161.940517 
C 634.956167 158.747049 633.687389 155.683947 631.429266 153.425824 
C 629.171143 151.167701 626.108041 149.898923 622.914573 149.898923 
C 619.721104 149.898923 616.658002 151.167701 614.399879 153.425824 
C 612.141756 155.683947 610.872978 158.747049 610.872978 161.940517 
C 610.872978 165.133985 612.141756 168.197087 614.399879 170.45521 
C 616.658002 172.713333 619.721104 173.982112 622.914573 173.982112 
z
" style="fill:#2ca02c;fill-opacity:0.5;stroke:#2ca02c;stroke-opacity:0.5;"/>
    <path clip-path="url(#p270685f82c)" d="M 685.196691 173.982112 
C 688.390159 173.982112 691.453261 172.713333 693.711384 170.45521 
C 695.969507 168.197087 697.238285 165.133985 697.238285 161.940517 
C 697.238285 158.747049 695.969507 155.683947 693.711384 153.425824 
C 691.453261 151.167701 688.390159 149.898923 685.196691 149.898923 
C 682.003222 149.898923 678.94012 151.167701 676.681997 153.425824 
C 674.423874 155.683947 673.155096 158.747049 673.155096 161.940517 
C 673.155096 165.133985 674.423874 168.197087 676.681997 170.45521 
C 678.94012 172.713333 682.003222 173.982112 685.196691 173.982112 
z
" style="fill:#2ca02c;fill-opacity:0.5;stroke:#2ca02c;stroke-opacity:0.5;"/>
    <path clip-path="url(#p270685f82c)" d="M 462.760555 173.982112 
C 465.954023 173.982112 469.017125 172.713333 471.275248 170.45521 
C 473.533371 168.197087 474.802149 165.133985 474.802149 161.940517 
C 474.802149 158.747049 473.533371 155.683947 471.275248 153.425824 
C 469.017125 151.167701 465.954023 149.898923 462.760555 149.898923 
C 459.567086 149.898923 456.503984 151.167701 454.245861 153.425824 
C 451.987738 155.683947 450.71896 158.747049 450.71896 161.940517 
C 450.71896 165.133985 451.987738 168.197087 454.245861 170.45521 
C 456.503984 172.713333 459.567086 173.982112 462.760555 173.982112 
z
" style="fill:#2ca02c;fill-opacity:0.5;stroke:#2ca02c;stroke-opacity:0.5;"/>
    <path clip-path="url(#p270685f82c)" d="M 462.760555 234.127308 
C 465.954023 234.127308 469.017125 232.85853 471.275248 230.600407 
C 473.533371 228.342284 474.802149 225.279182 474.802149 222.085714 
C 474.802149 218.892245 473.533371 215.829143 471.275248 213.57102 
C 469.017125 211.312897 465.954023 210.044119 462.760555 210.044119 
C 459.567086 210.044119 456.503984 211.312897 454.245861 213.57102 
C 451.987738 215.829143 450.71896 218.892245 450.71896 222.085714 
C 450.71896 225.279182 451.987738 228.342284 454.245861 230.600407 
C 456.503984 232.85853 459.567086 234.127308 462.760555 234.127308 
z
" style="fill:#2ca02c;fill-opacity:0.5;stroke:#2ca02c;stroke-opacity:0.5;"/>
    <path clip-path="url(#p270685f82c)" d="M 462.760555 304.732539 
C 465.954023 304.732539 469.017125 303.46376 471.275248 301.205637 
C 473.533371 298.947514 474.802149 295.884412 474.802149 292.690944 
C 474.802149 289.497476 473.533371 286.434374 471.275248 284.176251 
C 469.017125 281.918128 465.954023 280.649349 462.760555 280.649349 
C 459.567086 280.649349 456.503984 281.918128 454.245861 284.176251 
C 451.987738 286.434374 450.71896 289.497476 450.71896 292.690944 
C 450.71896 295.884412 451.987738 298.947514 454.245861 301.205637 
C 456.503984 303.46376 459.567086 304.732539 462.760555 304.732539 
z
" style="fill:#2ca02c;fill-opacity:0.5;stroke:#2ca02c;stroke-opacity:0.5;"/>
    <path clip-path="url(#p270685f82c)" d="M 462.760555 435.482966 
C 465.954023 435.482966 469.017125 434.214187 471.275248 431.956064 
C 473.533371 429.697941 474.802149 426.634839 474.802149 423.441371 
C 474.802149 420.247903 473.533371 417.184801 471.275248 414.926678 
C 469.017125 412.668555 465.954023 411.399776 462.760555 411.399776 
C 459.567086 411.399776 456.503984 412.668555 454.245861 414.926678 
C 451.987738 417.184801 450.71896 420.247903 450.71896 423.441371 
C 450.71896 426.634839 451.987738 429.697941 454.245861 431.956064 
C 456.503984 434.214187 459.567086 435.482966 462.760555 435.482966 
z
" style="fill:#2ca02c;fill-opacity:0.5;stroke:#2ca02c;stroke-opacity:0.5;"/>
    <path clip-path="url(#p270685f82c)" d="M 462.760555 173.982112 
C 465.954023 173.982112 469.017125 172.713333 471.275248 170.45521 
C 473.533371 168.197087 474.802149 165.133985 474.802149 161.940517 
C 474.802149 158.747049 473.533371 155.683947 471.275248 153.425824 
C 469.017125 151.167701 465.954023 149.898923 462.760555 149.898923 
C 459.567086 149.898923 456.503984 151.167701 454.245861 153.425824 
C 451.987738 155.683947 450.71896 158.747049 450.71896 161.940517 
C 450.71896 165.133985 451.987738 168.197087 454.245861 170.45521 
C 456.503984 172.713333 459.567086 173.982112 462.760555 173.982112 
z
" style="fill:#2ca02c;fill-opacity:0.5;stroke:#2ca02c;stroke-opacity:0.5;"/>
    <path clip-path="url(#p270685f82c)" d="M 462.760555 173.982112 
C 465.954023 173.982112 469.017125 172.713333 471.275248 170.45521 
C 473.533371 168.197087 474.802149 165.133985 474.802149 161.940517 
C 474.802149 158.747049 473.533371 155.683947 471.275248 153.425824 
C 469.017125 151.167701 465.954023 149.898923 462.760555 149.898923 
C 459.567086 149.898923 456.503984 151.167701 454.245861 153.425824 
C 451.987738 155.683947 450.71896 158.747049 450.71896 161.940517 
C 450.71896 165.133985 451.987738 168.197087 454.245861 170.45521 
C 456.503984 172.713333 459.567086 173.982112 462.760555 173.982112 
z
" style="fill:#2ca02c;fill-opacity:0.5;stroke:#2ca02c;stroke-opacity:0.5;"/>
    <path clip-path="url(#p270685f82c)" d="M 155.798687 173.982112 
C 158.992155 173.982112 162.055257 172.713333 164.31338 170.45521 
C 166.571503 168.197087 167.840281 165.133985 167.840281 161.940517 
C 167.840281 158.747049 166.571503 155.683947 164.31338 153.425824 
C 162.055257 151.167701 158.992155 149.898923 155.798687 149.898923 
C 152.605219 149.898923 149.542117 151.167701 147.283994 153.425824 
C 145.025871 155.683947 143.757092 158.747049 143.757092 161.940517 
C 143.757092 165.133985 145.025871 168.197087 147.283994 170.45521 
C 149.542117 172.713333 152.605219 173.982112 155.798687 173.982112 
z
" style="fill:#2ca02c;fill-opacity:0.5;stroke:#2ca02c;stroke-opacity:0.5;"/>
    <path clip-path="url(#p270685f82c)" d="M 511.696504 173.982112 
C 514.889973 173.982112 517.953075 172.713333 520.211198 170.45521 
C 522.469321 168.197087 523.738099 165.133985 523.738099 161.940517 
C 523.738099 158.747049 522.469321 155.683947 520.211198 153.425824 
C 517.953075 151.167701 514.889973 149.898923 511.696504 149.898923 
C 508.503036 149.898923 505.439934 151.167701 503.181811 153.425824 
C 500.923688 155.683947 499.65491 158.747049 499.65491 161.940517 
C 499.65491 165.133985 500.923688 168.197087 503.181811 170.45521 
C 505.439934 172.713333 508.503036 173.982112 511.696504 173.982112 
z
" style="fill:#2ca02c;fill-opacity:0.5;stroke:#2ca02c;stroke-opacity:0.5;"/>
    <path clip-path="url(#p270685f82c)" d="M 89.067846 173.982112 
C 92.261314 173.982112 95.324416 172.713333 97.582539 170.45521 
C 99.840662 168.197087 101.10944 165.133985 101.10944 161.940517 
C 101.10944 158.747049 99.840662 155.683947 97.582539 153.425824 
C 95.324416 151.167701 92.261314 149.898923 89.067846 149.898923 
C 85.874378 149.898923 82.811276 151.167701 80.553153 153.425824 
C 78.29503 155.683947 77.026251 158.747049 77.026251 161.940517 
C 77.026251 165.133985 78.29503 168.197087 80.553153 170.45521 
C 82.811276 172.713333 85.874378 173.982112 89.067846 173.982112 
z
" style="fill:#2ca02c;fill-opacity:0.5;stroke:#2ca02c;stroke-opacity:0.5;"/>
    <path clip-path="url(#p270685f82c)" d="M 97.965291 173.982112 
C 101.15876 173.982112 104.221861 172.713333 106.479985 170.45521 
C 108.738108 168.197087 110.006886 165.133985 110.006886 161.940517 
C 110.006886 158.747049 108.738108 155.683947 106.479985 153.425824 
C 104.221861 151.167701 101.15876 149.898923 97.965291 149.898923 
C 94.771823 149.898923 91.708721 151.167701 89.450598 153.425824 
C 87.192475 155.683947 85.923697 158.747049 85.923697 161.940517 
C 85.923697 165.133985 87.192475 168.197087 89.450598 170.45521 
C 91.708721 172.713333 94.771823 173.982112 97.965291 173.982112 
z
" style="fill:#2ca02c;fill-opacity:0.5;stroke:#2ca02c;stroke-opacity:0.5;"/>
    <path clip-path="url(#p270685f82c)" d="M 89.067846 173.982112 
C 92.261314 173.982112 95.324416 172.713333 97.582539 170.45521 
C 99.840662 168.197087 101.10944 165.133985 101.10944 161.940517 
C 101.10944 158.747049 99.840662 155.683947 97.582539 153.425824 
C 95.324416 151.167701 92.261314 149.898923 89.067846 149.898923 
C 85.874378 149.898923 82.811276 151.167701 80.553153 153.425824 
C 78.29503 155.683947 77.026251 158.747049 77.026251 161.940517 
C 77.026251 165.133985 78.29503 168.197087 80.553153 170.45521 
C 82.811276 172.713333 85.874378 173.982112 89.067846 173.982112 
z
" style="fill:#2ca02c;fill-opacity:0.5;stroke:#2ca02c;stroke-opacity:0.5;"/>
    <path clip-path="url(#p270685f82c)" d="M 115.760182 173.982112 
C 118.95365 173.982112 122.016752 172.713333 124.274875 170.45521 
C 126.532998 168.197087 127.801777 165.133985 127.801777 161.940517 
C 127.801777 158.747049 126.532998 155.683947 124.274875 153.425824 
C 122.016752 151.167701 118.95365 149.898923 115.760182 149.898923 
C 112.566714 149.898923 109.503612 151.167701 107.245489 153.425824 
C 104.987366 155.683947 103.718588 158.747049 103.718588 161.940517 
C 103.718588 165.133985 104.987366 168.197087 107.245489 170.45521 
C 109.503612 172.713333 112.566714 173.982112 115.760182 173.982112 
z
" style="fill:#2ca02c;fill-opacity:0.5;stroke:#2ca02c;stroke-opacity:0.5;"/>
    <path clip-path="url(#p270685f82c)" d="M 155.798687 173.982112 
C 158.992155 173.982112 162.055257 172.713333 164.31338 170.45521 
C 166.571503 168.197087 167.840281 165.133985 167.840281 161.940517 
C 167.840281 158.747049 166.571503 155.683947 164.31338 153.425824 
C 162.055257 151.167701 158.992155 149.898923 155.798687 149.898923 
C 152.605219 149.898923 149.542117 151.167701 147.283994 153.425824 
C 145.025871 155.683947 143.757092 158.747049 143.757092 161.940517 
C 143.757092 165.133985 145.025871 168.197087 147.283994 170.45521 
C 149.542117 172.713333 152.605219 173.982112 155.798687 173.982112 
z
" style="fill:#2ca02c;fill-opacity:0.5;stroke:#2ca02c;stroke-opacity:0.5;"/>
    <path clip-path="url(#p270685f82c)" d="M 195.837191 173.982112 
C 199.030659 173.982112 202.093761 172.713333 204.351884 170.45521 
C 206.610007 168.197087 207.878786 165.133985 207.878786 161.940517 
C 207.878786 158.747049 206.610007 155.683947 204.351884 153.425824 
C 202.093761 151.167701 199.030659 149.898923 195.837191 149.898923 
C 192.643723 149.898923 189.580621 151.167701 187.322498 153.425824 
C 185.064375 155.683947 183.795597 158.747049 183.795597 161.940517 
C 183.795597 165.133985 185.064375 168.197087 187.322498 170.45521 
C 189.580621 172.713333 192.643723 173.982112 195.837191 173.982112 
z
" style="fill:#2ca02c;fill-opacity:0.5;stroke:#2ca02c;stroke-opacity:0.5;"/>
    <path clip-path="url(#p270685f82c)" d="M 240.324418 173.982112 
C 243.517887 173.982112 246.580989 172.713333 248.839112 170.45521 
C 251.097235 168.197087 252.366013 165.133985 252.366013 161.940517 
C 252.366013 158.747049 251.097235 155.683947 248.839112 153.425824 
C 246.580989 151.167701 243.517887 149.898923 240.324418 149.898923 
C 237.13095 149.898923 234.067848 151.167701 231.809725 153.425824 
C 229.551602 155.683947 228.282824 158.747049 228.282824 161.940517 
C 228.282824 165.133985 229.551602 168.197087 231.809725 170.45521 
C 234.067848 172.713333 237.13095 173.982112 240.324418 173.982112 
z
" style="fill:#2ca02c;fill-opacity:0.5;stroke:#2ca02c;stroke-opacity:0.5;"/>
    <path clip-path="url(#p270685f82c)" d="M 120.208905 173.982112 
C 123.402373 173.982112 126.465475 172.713333 128.723598 170.45521 
C 130.981721 168.197087 132.2505 165.133985 132.2505 161.940517 
C 132.2505 158.747049 130.981721 155.683947 128.723598 153.425824 
C 126.465475 151.167701 123.402373 149.898923 120.208905 149.898923 
C 117.015437 149.898923 113.952335 151.167701 111.694212 153.425824 
C 109.436089 155.683947 108.16731 158.747049 108.16731 161.940517 
C 108.16731 165.133985 109.436089 168.197087 111.694212 170.45521 
C 113.952335 172.713333 117.015437 173.982112 120.208905 173.982112 
z
" style="fill:#2ca02c;fill-opacity:0.5;stroke:#2ca02c;stroke-opacity:0.5;"/>
    <path clip-path="url(#p270685f82c)" d="M 89.067846 239.357325 
C 92.261314 239.357325 95.324416 238.088547 97.582539 235.830424 
C 99.840662 233.572301 101.10944 230.509199 101.10944 227.315731 
C 101.10944 224.122262 99.840662 221.05916 97.582539 218.801037 
C 95.324416 216.542914 92.261314 215.274136 89.067846 215.274136 
C 85.874378 215.274136 82.811276 216.542914 80.553153 218.801037 
C 78.29503 221.05916 77.026251 224.122262 77.026251 227.315731 
C 77.026251 230.509199 78.29503 233.572301 80.553153 235.830424 
C 82.811276 238.088547 85.874378 239.357325 89.067846 239.357325 
z
" style="fill:#2ca02c;fill-opacity:0.5;stroke:#2ca02c;stroke-opacity:0.5;"/>
    <path clip-path="url(#p270685f82c)" d="M 80.1704 304.732539 
C 83.363869 304.732539 86.426971 303.46376 88.685094 301.205637 
C 90.943217 298.947514 92.211995 295.884412 92.211995 292.690944 
C 92.211995 289.497476 90.943217 286.434374 88.685094 284.176251 
C 86.426971 281.918128 83.363869 280.649349 80.1704 280.649349 
C 76.976932 280.649349 73.91383 281.918128 71.655707 284.176251 
C 69.397584 286.434374 68.128806 289.497476 68.128806 292.690944 
C 68.128806 295.884412 69.397584 298.947514 71.655707 301.205637 
C 73.91383 303.46376 76.976932 304.732539 80.1704 304.732539 
z
" style="fill:#2ca02c;fill-opacity:0.5;stroke:#2ca02c;stroke-opacity:0.5;"/>
    <path clip-path="url(#p270685f82c)" d="M 106.862737 173.982112 
C 110.056205 173.982112 113.119307 172.713333 115.37743 170.45521 
C 117.635553 168.197087 118.904331 165.133985 118.904331 161.940517 
C 118.904331 158.747049 117.635553 155.683947 115.37743 153.425824 
C 113.119307 151.167701 110.056205 149.898923 106.862737 149.898923 
C 103.669269 149.898923 100.606167 151.167701 98.348044 153.425824 
C 96.089921 155.683947 94.821142 158.747049 94.821142 161.940517 
C 94.821142 165.133985 96.089921 168.197087 98.348044 170.45521 
C 100.606167 172.713333 103.669269 173.982112 106.862737 173.982112 
z
" style="fill:#2ca02c;fill-opacity:0.5;stroke:#2ca02c;stroke-opacity:0.5;"/>
   </g>
   <g id="PathCollection_4">
    <path clip-path="url(#p270685f82c)" d="M 622.914573 35.662226 
C 624.100597 35.662226 625.238204 35.191014 626.07685 34.352368 
C 626.915496 33.513722 627.386708 32.376114 627.386708 31.19009 
C 627.386708 30.004066 626.915496 28.866458 626.07685 28.027812 
C 625.238204 27.189167 624.100597 26.717954 622.914573 26.717954 
C 621.728548 26.717954 620.590941 27.189167 619.752295 28.027812 
C 618.913649 28.866458 618.442437 30.004066 618.442437 31.19009 
C 618.442437 32.376114 618.913649 33.513722 619.752295 34.352368 
C 620.590941 35.191014 621.728548 35.662226 622.914573 35.662226 
z
" style="fill:#d62728;fill-opacity:0.5;stroke:#d62728;stroke-opacity:0.5;"/>
    <path clip-path="url(#p270685f82c)" d="M 462.760555 35.662226 
C 463.946579 35.662226 465.084186 35.191014 465.922832 34.352368 
C 466.761478 33.513722 467.23269 32.376114 467.23269 31.19009 
C 467.23269 30.004066 466.761478 28.866458 465.922832 28.027812 
C 465.084186 27.189167 463.946579 26.717954 462.760555 26.717954 
C 461.57453 26.717954 460.436923 27.189167 459.598277 28.027812 
C 458.759631 28.866458 458.288419 30.004066 458.288419 31.19009 
C 458.288419 32.376114 458.759631 33.513722 459.598277 34.352368 
C 460.436923 35.191014 461.57453 35.662226 462.760555 35.662226 
z
" style="fill:#d62728;fill-opacity:0.5;stroke:#d62728;stroke-opacity:0.5;"/>
    <path clip-path="url(#p270685f82c)" d="M 511.696504 35.662226 
C 512.882529 35.662226 514.020136 35.191014 514.858782 34.352368 
C 515.697428 33.513722 516.16864 32.376114 516.16864 31.19009 
C 516.16864 30.004066 515.697428 28.866458 514.858782 28.027812 
C 514.020136 27.189167 512.882529 26.717954 511.696504 26.717954 
C 510.51048 26.717954 509.372873 27.189167 508.534227 28.027812 
C 507.695581 28.866458 507.224369 30.004066 507.224369 31.19009 
C 507.224369 32.376114 507.695581 33.513722 508.534227 34.352368 
C 509.372873 35.191014 510.51048 35.662226 511.696504 35.662226 
z
" style="fill:#d62728;fill-opacity:0.5;stroke:#d62728;stroke-opacity:0.5;"/>
    <path clip-path="url(#p270685f82c)" d="M 573.978623 35.662226 
C 575.164647 35.662226 576.302254 35.191014 577.1409 34.352368 
C 577.979546 33.513722 578.450759 32.376114 578.450759 31.19009 
C 578.450759 30.004066 577.979546 28.866458 577.1409 28.027812 
C 576.302254 27.189167 575.164647 26.717954 573.978623 26.717954 
C 572.792598 26.717954 571.654991 27.189167 570.816345 28.027812 
C 569.977699 28.866458 569.506487 30.004066 569.506487 31.19009 
C 569.506487 32.376114 569.977699 33.513722 570.816345 34.352368 
C 571.654991 35.191014 572.792598 35.662226 573.978623 35.662226 
z
" style="fill:#d62728;fill-opacity:0.5;stroke:#d62728;stroke-opacity:0.5;"/>
    <path clip-path="url(#p270685f82c)" d="M 462.760555 166.412653 
C 463.946579 166.412653 465.084186 165.941441 465.922832 165.102795 
C 466.761478 164.264149 467.23269 163.126541 467.23269 161.940517 
C 467.23269 160.754493 466.761478 159.616885 465.922832 158.778239 
C 465.084186 157.939594 463.946579 157.468381 462.760555 157.468381 
C 461.57453 157.468381 460.436923 157.939594 459.598277 158.778239 
C 458.759631 159.616885 458.288419 160.754493 458.288419 161.940517 
C 458.288419 163.126541 458.759631 164.264149 459.598277 165.102795 
C 460.436923 165.941441 461.57453 166.412653 462.760555 166.412653 
z
" style="fill:#d62728;fill-opacity:0.5;stroke:#d62728;stroke-opacity:0.5;"/>
    <path clip-path="url(#p270685f82c)" d="M 685.196691 35.662226 
C 686.382715 35.662226 687.520322 35.191014 688.358968 34.352368 
C 689.197614 33.513722 689.668827 32.376114 689.668827 31.19009 
C 689.668827 30.004066 689.197614 28.866458 688.358968 28.027812 
C 687.520322 27.189167 686.382715 26.717954 685.196691 26.717954 
C 684.010666 26.717954 682.873059 27.189167 682.034413 28.027812 
C 681.195767 28.866458 680.724555 30.004066 680.724555 31.19009 
C 680.724555 32.376114 681.195767 33.513722 682.034413 34.352368 
C 682.873059 35.191014 684.010666 35.662226 685.196691 35.662226 
z
" style="fill:#d62728;fill-opacity:0.5;stroke:#d62728;stroke-opacity:0.5;"/>
    <path clip-path="url(#p270685f82c)" d="M 511.696504 166.412653 
C 512.882529 166.412653 514.020136 165.941441 514.858782 165.102795 
C 515.697428 164.264149 516.16864 163.126541 516.16864 161.940517 
C 516.16864 160.754493 515.697428 159.616885 514.858782 158.778239 
C 514.020136 157.939594 512.882529 157.468381 511.696504 157.468381 
C 510.51048 157.468381 509.372873 157.939594 508.534227 158.778239 
C 507.695581 159.616885 507.224369 160.754493 507.224369 161.940517 
C 507.224369 163.126541 507.695581 164.264149 508.534227 165.102795 
C 509.372873 165.941441 510.51048 166.412653 511.696504 166.412653 
z
" style="fill:#d62728;fill-opacity:0.5;stroke:#d62728;stroke-opacity:0.5;"/>
    <path clip-path="url(#p270685f82c)" d="M 578.427345 166.412653 
C 579.61337 166.412653 580.750977 165.941441 581.589623 165.102795 
C 582.428269 164.264149 582.899481 163.126541 582.899481 161.940517 
C 582.899481 160.754493 582.428269 159.616885 581.589623 158.778239 
C 580.750977 157.939594 579.61337 157.468381 578.427345 157.468381 
C 577.241321 157.468381 576.103713 157.939594 575.265068 158.778239 
C 574.426422 159.616885 573.955209 160.754493 573.955209 161.940517 
C 573.955209 163.126541 574.426422 164.264149 575.265068 165.102795 
C 576.103713 165.941441 577.241321 166.412653 578.427345 166.412653 
z
" style="fill:#d62728;fill-opacity:0.5;stroke:#d62728;stroke-opacity:0.5;"/>
    <path clip-path="url(#p270685f82c)" d="M 622.914573 166.412653 
C 624.100597 166.412653 625.238204 165.941441 626.07685 165.102795 
C 626.915496 164.264149 627.386708 163.126541 627.386708 161.940517 
C 627.386708 160.754493 626.915496 159.616885 626.07685 158.778239 
C 625.238204 157.939594 624.100597 157.468381 622.914573 157.468381 
C 621.728548 157.468381 620.590941 157.939594 619.752295 158.778239 
C 618.913649 159.616885 618.442437 160.754493 618.442437 161.940517 
C 618.442437 163.126541 618.913649 164.264149 619.752295 165.102795 
C 620.590941 165.941441 621.728548 166.412653 622.914573 166.412653 
z
" style="fill:#d62728;fill-opacity:0.5;stroke:#d62728;stroke-opacity:0.5;"/>
    <path clip-path="url(#p270685f82c)" d="M 685.196691 166.412653 
C 686.382715 166.412653 687.520322 165.941441 688.358968 165.102795 
C 689.197614 164.264149 689.668827 163.126541 689.668827 161.940517 
C 689.668827 160.754493 689.197614 159.616885 688.358968 158.778239 
C 687.520322 157.939594 686.382715 157.468381 685.196691 157.468381 
C 684.010666 157.468381 682.873059 157.939594 682.034413 158.778239 
C 681.195767 159.616885 680.724555 160.754493 680.724555 161.940517 
C 680.724555 163.126541 681.195767 164.264149 682.034413 165.102795 
C 682.873059 165.941441 684.010666 166.412653 685.196691 166.412653 
z
" style="fill:#d62728;fill-opacity:0.5;stroke:#d62728;stroke-opacity:0.5;"/>
    <path clip-path="url(#p270685f82c)" d="M 462.760555 297.16308 
C 463.946579 297.16308 465.084186 296.691868 465.922832 295.853222 
C 466.761478 295.014576 467.23269 293.876968 467.23269 292.690944 
C 467.23269 291.50492 466.761478 290.367312 465.922832 289.528666 
C 465.084186 288.690021 463.946579 288.218808 462.760555 288.218808 
C 461.57453 288.218808 460.436923 288.690021 459.598277 289.528666 
C 458.759631 290.367312 458.288419 291.50492 458.288419 292.690944 
C 458.288419 293.876968 458.759631 295.014576 459.598277 295.853222 
C 460.436923 296.691868 461.57453 297.16308 462.760555 297.16308 
z
" style="fill:#d62728;fill-opacity:0.5;stroke:#d62728;stroke-opacity:0.5;"/>
    <path clip-path="url(#p270685f82c)" d="M 462.760555 35.662226 
C 463.946579 35.662226 465.084186 35.191014 465.922832 34.352368 
C 466.761478 33.513722 467.23269 32.376114 467.23269 31.19009 
C 467.23269 30.004066 466.761478 28.866458 465.922832 28.027812 
C 465.084186 27.189167 463.946579 26.717954 462.760555 26.717954 
C 461.57453 26.717954 460.436923 27.189167 459.598277 28.027812 
C 458.759631 28.866458 458.288419 30.004066 458.288419 31.19009 
C 458.288419 32.376114 458.759631 33.513722 459.598277 34.352368 
C 460.436923 35.191014 461.57453 35.662226 462.760555 35.662226 
z
" style="fill:#d62728;fill-opacity:0.5;stroke:#d62728;stroke-opacity:0.5;"/>
    <path clip-path="url(#p270685f82c)" d="M 511.696504 35.662226 
C 512.882529 35.662226 514.020136 35.191014 514.858782 34.352368 
C 515.697428 33.513722 516.16864 32.376114 516.16864 31.19009 
C 516.16864 30.004066 515.697428 28.866458 514.858782 28.027812 
C 514.020136 27.189167 512.882529 26.717954 511.696504 26.717954 
C 510.51048 26.717954 509.372873 27.189167 508.534227 28.027812 
C 507.695581 28.866458 507.224369 30.004066 507.224369 31.19009 
C 507.224369 32.376114 507.695581 33.513722 508.534227 34.352368 
C 509.372873 35.191014 510.51048 35.662226 511.696504 35.662226 
z
" style="fill:#d62728;fill-opacity:0.5;stroke:#d62728;stroke-opacity:0.5;"/>
    <path clip-path="url(#p270685f82c)" d="M 578.427345 35.662226 
C 579.61337 35.662226 580.750977 35.191014 581.589623 34.352368 
C 582.428269 33.513722 582.899481 32.376114 582.899481 31.19009 
C 582.899481 30.004066 582.428269 28.866458 581.589623 28.027812 
C 580.750977 27.189167 579.61337 26.717954 578.427345 26.717954 
C 577.241321 26.717954 576.103713 27.189167 575.265068 28.027812 
C 574.426422 28.866458 573.955209 30.004066 573.955209 31.19009 
C 573.955209 32.376114 574.426422 33.513722 575.265068 34.352368 
C 576.103713 35.191014 577.241321 35.662226 578.427345 35.662226 
z
" style="fill:#d62728;fill-opacity:0.5;stroke:#d62728;stroke-opacity:0.5;"/>
    <path clip-path="url(#p270685f82c)" d="M 467.209277 35.662226 
C 468.395302 35.662226 469.532909 35.191014 470.371555 34.352368 
C 471.210201 33.513722 471.681413 32.376114 471.681413 31.19009 
C 471.681413 30.004066 471.210201 28.866458 470.371555 28.027812 
C 469.532909 27.189167 468.395302 26.717954 467.209277 26.717954 
C 466.023253 26.717954 464.885645 27.189167 464.047 28.027812 
C 463.208354 28.866458 462.737141 30.004066 462.737141 31.19009 
C 462.737141 32.376114 463.208354 33.513722 464.047 34.352368 
C 464.885645 35.191014 466.023253 35.662226 467.209277 35.662226 
z
" style="fill:#d62728;fill-opacity:0.5;stroke:#d62728;stroke-opacity:0.5;"/>
    <path clip-path="url(#p270685f82c)" d="M 578.427345 35.662226 
C 579.61337 35.662226 580.750977 35.191014 581.589623 34.352368 
C 582.428269 33.513722 582.899481 32.376114 582.899481 31.19009 
C 582.899481 30.004066 582.428269 28.866458 581.589623 28.027812 
C 580.750977 27.189167 579.61337 26.717954 578.427345 26.717954 
C 577.241321 26.717954 576.103713 27.189167 575.265068 28.027812 
C 574.426422 28.866458 573.955209 30.004066 573.955209 31.19009 
C 573.955209 32.376114 574.426422 33.513722 575.265068 34.352368 
C 576.103713 35.191014 577.241321 35.662226 578.427345 35.662226 
z
" style="fill:#d62728;fill-opacity:0.5;stroke:#d62728;stroke-opacity:0.5;"/>
    <path clip-path="url(#p270685f82c)" d="M 622.914573 35.662226 
C 624.100597 35.662226 625.238204 35.191014 626.07685 34.352368 
C 626.915496 33.513722 627.386708 32.376114 627.386708 31.19009 
C 627.386708 30.004066 626.915496 28.866458 626.07685 28.027812 
C 625.238204 27.189167 624.100597 26.717954 622.914573 26.717954 
C 621.728548 26.717954 620.590941 27.189167 619.752295 28.027812 
C 618.913649 28.866458 618.442437 30.004066 618.442437 31.19009 
C 618.442437 32.376114 618.913649 33.513722 619.752295 34.352368 
C 620.590941 35.191014 621.728548 35.662226 622.914573 35.662226 
z
" style="fill:#d62728;fill-opacity:0.5;stroke:#d62728;stroke-opacity:0.5;"/>
    <path clip-path="url(#p270685f82c)" d="M 511.696504 35.662226 
C 512.882529 35.662226 514.020136 35.191014 514.858782 34.352368 
C 515.697428 33.513722 516.16864 32.376114 516.16864 31.19009 
C 516.16864 30.004066 515.697428 28.866458 514.858782 28.027812 
C 514.020136 27.189167 512.882529 26.717954 511.696504 26.717954 
C 510.51048 26.717954 509.372873 27.189167 508.534227 28.027812 
C 507.695581 28.866458 507.224369 30.004066 507.224369 31.19009 
C 507.224369 32.376114 507.695581 33.513722 508.534227 34.352368 
C 509.372873 35.191014 510.51048 35.662226 511.696504 35.662226 
z
" style="fill:#d62728;fill-opacity:0.5;stroke:#d62728;stroke-opacity:0.5;"/>
   </g>
   <g id="matplotlib.axis_1">
    <g id="xtick_1">
     <g id="line2d_1">
      <defs>
       <path d="M 0 0 
L 0 3.5 
" id="m3180134d13" style="stroke:#000000;stroke-width:0.8;"/>
      </defs>
      <g>
       <use style="stroke:#000000;stroke-width:0.8;" x="102.414014" xlink:href="#m3180134d13" y="445.58"/>
      </g>
     </g>
     <g id="text_1">
      <!-- 0.6 -->
      <defs>
       <path d="M 31.78125 66.40625 
Q 24.171875 66.40625 20.328125 58.90625 
Q 16.5 51.421875 16.5 36.375 
Q 16.5 21.390625 20.328125 13.890625 
Q 24.171875 6.390625 31.78125 6.390625 
Q 39.453125 6.390625 43.28125 13.890625 
Q 47.125 21.390625 47.125 36.375 
Q 47.125 51.421875 43.28125 58.90625 
Q 39.453125 66.40625 31.78125 66.40625 
z
M 31.78125 74.21875 
Q 44.046875 74.21875 50.515625 64.515625 
Q 56.984375 54.828125 56.984375 36.375 
Q 56.984375 17.96875 50.515625 8.265625 
Q 44.046875 -1.421875 31.78125 -1.421875 
Q 19.53125 -1.421875 13.0625 8.265625 
Q 6.59375 17.96875 6.59375 36.375 
Q 6.59375 54.828125 13.0625 64.515625 
Q 19.53125 74.21875 31.78125 74.21875 
z
" id="DejaVuSans-30"/>
       <path d="M 10.6875 12.40625 
L 21 12.40625 
L 21 0 
L 10.6875 0 
z
" id="DejaVuSans-2e"/>
       <path d="M 33.015625 40.375 
Q 26.375 40.375 22.484375 35.828125 
Q 18.609375 31.296875 18.609375 23.390625 
Q 18.609375 15.53125 22.484375 10.953125 
Q 26.375 6.390625 33.015625 6.390625 
Q 39.65625 6.390625 43.53125 10.953125 
Q 47.40625 15.53125 47.40625 23.390625 
Q 47.40625 31.296875 43.53125 35.828125 
Q 39.65625 40.375 33.015625 40.375 
z
M 52.59375 71.296875 
L 52.59375 62.3125 
Q 48.875 64.0625 45.09375 64.984375 
Q 41.3125 65.921875 37.59375 65.921875 
Q 27.828125 65.921875 22.671875 59.328125 
Q 17.53125 52.734375 16.796875 39.40625 
Q 19.671875 43.65625 24.015625 45.921875 
Q 28.375 48.1875 33.59375 48.1875 
Q 44.578125 48.1875 50.953125 41.515625 
Q 57.328125 34.859375 57.328125 23.390625 
Q 57.328125 12.15625 50.6875 5.359375 
Q 44.046875 -1.421875 33.015625 -1.421875 
Q 20.359375 -1.421875 13.671875 8.265625 
Q 6.984375 17.96875 6.984375 36.375 
Q 6.984375 53.65625 15.1875 63.9375 
Q 23.390625 74.21875 37.203125 74.21875 
Q 40.921875 74.21875 44.703125 73.484375 
Q 48.484375 72.75 52.59375 71.296875 
z
" id="DejaVuSans-36"/>
      </defs>
      <g transform="translate(94.462452 460.178437)scale(0.1 -0.1)">
       <use xlink:href="#DejaVuSans-30"/>
       <use x="63.623047" xlink:href="#DejaVuSans-2e"/>
       <use x="95.410156" xlink:href="#DejaVuSans-36"/>
      </g>
     </g>
    </g>
    <g id="xtick_2">
     <g id="line2d_2">
      <g>
       <use style="stroke:#000000;stroke-width:0.8;" x="191.388469" xlink:href="#m3180134d13" y="445.58"/>
      </g>
     </g>
     <g id="text_2">
      <!-- 0.8 -->
      <defs>
       <path d="M 31.78125 34.625 
Q 24.75 34.625 20.71875 30.859375 
Q 16.703125 27.09375 16.703125 20.515625 
Q 16.703125 13.921875 20.71875 10.15625 
Q 24.75 6.390625 31.78125 6.390625 
Q 38.8125 6.390625 42.859375 10.171875 
Q 46.921875 13.96875 46.921875 20.515625 
Q 46.921875 27.09375 42.890625 30.859375 
Q 38.875 34.625 31.78125 34.625 
z
M 21.921875 38.8125 
Q 15.578125 40.375 12.03125 44.71875 
Q 8.5 49.078125 8.5 55.328125 
Q 8.5 64.0625 14.71875 69.140625 
Q 20.953125 74.21875 31.78125 74.21875 
Q 42.671875 74.21875 48.875 69.140625 
Q 55.078125 64.0625 55.078125 55.328125 
Q 55.078125 49.078125 51.53125 44.71875 
Q 48 40.375 41.703125 38.8125 
Q 48.828125 37.15625 52.796875 32.3125 
Q 56.78125 27.484375 56.78125 20.515625 
Q 56.78125 9.90625 50.3125 4.234375 
Q 43.84375 -1.421875 31.78125 -1.421875 
Q 19.734375 -1.421875 13.25 4.234375 
Q 6.78125 9.90625 6.78125 20.515625 
Q 6.78125 27.484375 10.78125 32.3125 
Q 14.796875 37.15625 21.921875 38.8125 
z
M 18.3125 54.390625 
Q 18.3125 48.734375 21.84375 45.5625 
Q 25.390625 42.390625 31.78125 42.390625 
Q 38.140625 42.390625 41.71875 45.5625 
Q 45.3125 48.734375 45.3125 54.390625 
Q 45.3125 60.0625 41.71875 63.234375 
Q 38.140625 66.40625 31.78125 66.40625 
Q 25.390625 66.40625 21.84375 63.234375 
Q 18.3125 60.0625 18.3125 54.390625 
z
" id="DejaVuSans-38"/>
      </defs>
      <g transform="translate(183.436906 460.178437)scale(0.1 -0.1)">
       <use xlink:href="#DejaVuSans-30"/>
       <use x="63.623047" xlink:href="#DejaVuSans-2e"/>
       <use x="95.410156" xlink:href="#DejaVuSans-38"/>
      </g>
     </g>
    </g>
    <g id="xtick_3">
     <g id="line2d_3">
      <g>
       <use style="stroke:#000000;stroke-width:0.8;" x="280.362923" xlink:href="#m3180134d13" y="445.58"/>
      </g>
     </g>
     <g id="text_3">
      <!-- 1.0 -->
      <defs>
       <path d="M 12.40625 8.296875 
L 28.515625 8.296875 
L 28.515625 63.921875 
L 10.984375 60.40625 
L 10.984375 69.390625 
L 28.421875 72.90625 
L 38.28125 72.90625 
L 38.28125 8.296875 
L 54.390625 8.296875 
L 54.390625 0 
L 12.40625 0 
z
" id="DejaVuSans-31"/>
      </defs>
      <g transform="translate(272.41136 460.178437)scale(0.1 -0.1)">
       <use xlink:href="#DejaVuSans-31"/>
       <use x="63.623047" xlink:href="#DejaVuSans-2e"/>
       <use x="95.410156" xlink:href="#DejaVuSans-30"/>
      </g>
     </g>
    </g>
    <g id="xtick_4">
     <g id="line2d_4">
      <g>
       <use style="stroke:#000000;stroke-width:0.8;" x="369.337377" xlink:href="#m3180134d13" y="445.58"/>
      </g>
     </g>
     <g id="text_4">
      <!-- 1.2 -->
      <defs>
       <path d="M 19.1875 8.296875 
L 53.609375 8.296875 
L 53.609375 0 
L 7.328125 0 
L 7.328125 8.296875 
Q 12.9375 14.109375 22.625 23.890625 
Q 32.328125 33.6875 34.8125 36.53125 
Q 39.546875 41.84375 41.421875 45.53125 
Q 43.3125 49.21875 43.3125 52.78125 
Q 43.3125 58.59375 39.234375 62.25 
Q 35.15625 65.921875 28.609375 65.921875 
Q 23.96875 65.921875 18.8125 64.3125 
Q 13.671875 62.703125 7.8125 59.421875 
L 7.8125 69.390625 
Q 13.765625 71.78125 18.9375 73 
Q 24.125 74.21875 28.421875 74.21875 
Q 39.75 74.21875 46.484375 68.546875 
Q 53.21875 62.890625 53.21875 53.421875 
Q 53.21875 48.921875 51.53125 44.890625 
Q 49.859375 40.875 45.40625 35.40625 
Q 44.1875 33.984375 37.640625 27.21875 
Q 31.109375 20.453125 19.1875 8.296875 
z
" id="DejaVuSans-32"/>
      </defs>
      <g transform="translate(361.385815 460.178437)scale(0.1 -0.1)">
       <use xlink:href="#DejaVuSans-31"/>
       <use x="63.623047" xlink:href="#DejaVuSans-2e"/>
       <use x="95.410156" xlink:href="#DejaVuSans-32"/>
      </g>
     </g>
    </g>
    <g id="xtick_5">
     <g id="line2d_5">
      <g>
       <use style="stroke:#000000;stroke-width:0.8;" x="458.311832" xlink:href="#m3180134d13" y="445.58"/>
      </g>
     </g>
     <g id="text_5">
      <!-- 1.4 -->
      <defs>
       <path d="M 37.796875 64.3125 
L 12.890625 25.390625 
L 37.796875 25.390625 
z
M 35.203125 72.90625 
L 47.609375 72.90625 
L 47.609375 25.390625 
L 58.015625 25.390625 
L 58.015625 17.1875 
L 47.609375 17.1875 
L 47.609375 0 
L 37.796875 0 
L 37.796875 17.1875 
L 4.890625 17.1875 
L 4.890625 26.703125 
z
" id="DejaVuSans-34"/>
      </defs>
      <g transform="translate(450.360269 460.178437)scale(0.1 -0.1)">
       <use xlink:href="#DejaVuSans-31"/>
       <use x="63.623047" xlink:href="#DejaVuSans-2e"/>
       <use x="95.410156" xlink:href="#DejaVuSans-34"/>
      </g>
     </g>
    </g>
    <g id="xtick_6">
     <g id="line2d_6">
      <g>
       <use style="stroke:#000000;stroke-width:0.8;" x="547.286286" xlink:href="#m3180134d13" y="445.58"/>
      </g>
     </g>
     <g id="text_6">
      <!-- 1.6 -->
      <g transform="translate(539.334724 460.178437)scale(0.1 -0.1)">
       <use xlink:href="#DejaVuSans-31"/>
       <use x="63.623047" xlink:href="#DejaVuSans-2e"/>
       <use x="95.410156" xlink:href="#DejaVuSans-36"/>
      </g>
     </g>
    </g>
    <g id="xtick_7">
     <g id="line2d_7">
      <g>
       <use style="stroke:#000000;stroke-width:0.8;" x="636.260741" xlink:href="#m3180134d13" y="445.58"/>
      </g>
     </g>
     <g id="text_7">
      <!-- 1.8 -->
      <g transform="translate(628.309178 460.178437)scale(0.1 -0.1)">
       <use xlink:href="#DejaVuSans-31"/>
       <use x="63.623047" xlink:href="#DejaVuSans-2e"/>
       <use x="95.410156" xlink:href="#DejaVuSans-38"/>
      </g>
     </g>
    </g>
    <g id="text_8">
     <!-- current ($A$) -->
     <defs>
      <path d="M 48.78125 52.59375 
L 48.78125 44.1875 
Q 44.96875 46.296875 41.140625 47.34375 
Q 37.3125 48.390625 33.40625 48.390625 
Q 24.65625 48.390625 19.8125 42.84375 
Q 14.984375 37.3125 14.984375 27.296875 
Q 14.984375 17.28125 19.8125 11.734375 
Q 24.65625 6.203125 33.40625 6.203125 
Q 37.3125 6.203125 41.140625 7.25 
Q 44.96875 8.296875 48.78125 10.40625 
L 48.78125 2.09375 
Q 45.015625 0.34375 40.984375 -0.53125 
Q 36.96875 -1.421875 32.421875 -1.421875 
Q 20.0625 -1.421875 12.78125 6.34375 
Q 5.515625 14.109375 5.515625 27.296875 
Q 5.515625 40.671875 12.859375 48.328125 
Q 20.21875 56 33.015625 56 
Q 37.15625 56 41.109375 55.140625 
Q 45.0625 54.296875 48.78125 52.59375 
z
" id="DejaVuSans-63"/>
      <path d="M 8.5 21.578125 
L 8.5 54.6875 
L 17.484375 54.6875 
L 17.484375 21.921875 
Q 17.484375 14.15625 20.5 10.265625 
Q 23.53125 6.390625 29.59375 6.390625 
Q 36.859375 6.390625 41.078125 11.03125 
Q 45.3125 15.671875 45.3125 23.6875 
L 45.3125 54.6875 
L 54.296875 54.6875 
L 54.296875 0 
L 45.3125 0 
L 45.3125 8.40625 
Q 42.046875 3.421875 37.71875 1 
Q 33.40625 -1.421875 27.6875 -1.421875 
Q 18.265625 -1.421875 13.375 4.4375 
Q 8.5 10.296875 8.5 21.578125 
z
M 31.109375 56 
z
" id="DejaVuSans-75"/>
      <path d="M 41.109375 46.296875 
Q 39.59375 47.171875 37.8125 47.578125 
Q 36.03125 48 33.890625 48 
Q 26.265625 48 22.1875 43.046875 
Q 18.109375 38.09375 18.109375 28.8125 
L 18.109375 0 
L 9.078125 0 
L 9.078125 54.6875 
L 18.109375 54.6875 
L 18.109375 46.1875 
Q 20.953125 51.171875 25.484375 53.578125 
Q 30.03125 56 36.53125 56 
Q 37.453125 56 38.578125 55.875 
Q 39.703125 55.765625 41.0625 55.515625 
z
" id="DejaVuSans-72"/>
      <path d="M 56.203125 29.59375 
L 56.203125 25.203125 
L 14.890625 25.203125 
Q 15.484375 15.921875 20.484375 11.0625 
Q 25.484375 6.203125 34.421875 6.203125 
Q 39.59375 6.203125 44.453125 7.46875 
Q 49.3125 8.734375 54.109375 11.28125 
L 54.109375 2.78125 
Q 49.265625 0.734375 44.1875 -0.34375 
Q 39.109375 -1.421875 33.890625 -1.421875 
Q 20.796875 -1.421875 13.15625 6.1875 
Q 5.515625 13.8125 5.515625 26.8125 
Q 5.515625 40.234375 12.765625 48.109375 
Q 20.015625 56 32.328125 56 
Q 43.359375 56 49.78125 48.890625 
Q 56.203125 41.796875 56.203125 29.59375 
z
M 47.21875 32.234375 
Q 47.125 39.59375 43.09375 43.984375 
Q 39.0625 48.390625 32.421875 48.390625 
Q 24.90625 48.390625 20.390625 44.140625 
Q 15.875 39.890625 15.1875 32.171875 
z
" id="DejaVuSans-65"/>
      <path d="M 54.890625 33.015625 
L 54.890625 0 
L 45.90625 0 
L 45.90625 32.71875 
Q 45.90625 40.484375 42.875 44.328125 
Q 39.84375 48.1875 33.796875 48.1875 
Q 26.515625 48.1875 22.3125 43.546875 
Q 18.109375 38.921875 18.109375 30.90625 
L 18.109375 0 
L 9.078125 0 
L 9.078125 54.6875 
L 18.109375 54.6875 
L 18.109375 46.1875 
Q 21.34375 51.125 25.703125 53.5625 
Q 30.078125 56 35.796875 56 
Q 45.21875 56 50.046875 50.171875 
Q 54.890625 44.34375 54.890625 33.015625 
z
" id="DejaVuSans-6e"/>
      <path d="M 18.3125 70.21875 
L 18.3125 54.6875 
L 36.8125 54.6875 
L 36.8125 47.703125 
L 18.3125 47.703125 
L 18.3125 18.015625 
Q 18.3125 11.328125 20.140625 9.421875 
Q 21.96875 7.515625 27.59375 7.515625 
L 36.8125 7.515625 
L 36.8125 0 
L 27.59375 0 
Q 17.1875 0 13.234375 3.875 
Q 9.28125 7.765625 9.28125 18.015625 
L 9.28125 47.703125 
L 2.6875 47.703125 
L 2.6875 54.6875 
L 9.28125 54.6875 
L 9.28125 70.21875 
z
" id="DejaVuSans-74"/>
      <path id="DejaVuSans-20"/>
      <path d="M 31 75.875 
Q 24.46875 64.65625 21.28125 53.65625 
Q 18.109375 42.671875 18.109375 31.390625 
Q 18.109375 20.125 21.3125 9.0625 
Q 24.515625 -2 31 -13.1875 
L 23.1875 -13.1875 
Q 15.875 -1.703125 12.234375 9.375 
Q 8.59375 20.453125 8.59375 31.390625 
Q 8.59375 42.28125 12.203125 53.3125 
Q 15.828125 64.359375 23.1875 75.875 
z
" id="DejaVuSans-28"/>
      <path d="M 36.8125 72.90625 
L 48 72.90625 
L 61.53125 0 
L 51.21875 0 
L 48.1875 18.703125 
L 15.375 18.703125 
L 5.078125 0 
L -5.328125 0 
z
M 40.375 63.1875 
L 19.921875 26.90625 
L 46.6875 26.90625 
z
" id="DejaVuSans-Oblique-41"/>
      <path d="M 8.015625 75.875 
L 15.828125 75.875 
Q 23.140625 64.359375 26.78125 53.3125 
Q 30.421875 42.28125 30.421875 31.390625 
Q 30.421875 20.453125 26.78125 9.375 
Q 23.140625 -1.703125 15.828125 -13.1875 
L 8.015625 -13.1875 
Q 14.5 -2 17.703125 9.0625 
Q 20.90625 20.125 20.90625 31.390625 
Q 20.90625 42.671875 17.703125 53.65625 
Q 14.5 64.65625 8.015625 75.875 
z
" id="DejaVuSans-29"/>
     </defs>
     <g transform="translate(342.728125 477.655781)scale(0.15 -0.15)">
      <use transform="translate(0 0.125)" xlink:href="#DejaVuSans-63"/>
      <use transform="translate(54.980469 0.125)" xlink:href="#DejaVuSans-75"/>
      <use transform="translate(118.359375 0.125)" xlink:href="#DejaVuSans-72"/>
      <use transform="translate(159.472656 0.125)" xlink:href="#DejaVuSans-72"/>
      <use transform="translate(200.585938 0.125)" xlink:href="#DejaVuSans-65"/>
      <use transform="translate(262.109375 0.125)" xlink:href="#DejaVuSans-6e"/>
      <use transform="translate(325.488281 0.125)" xlink:href="#DejaVuSans-74"/>
      <use transform="translate(364.697266 0.125)" xlink:href="#DejaVuSans-20"/>
      <use transform="translate(396.484375 0.125)" xlink:href="#DejaVuSans-28"/>
      <use transform="translate(435.498047 0.125)" xlink:href="#DejaVuSans-Oblique-41"/>
      <use transform="translate(503.90625 0.125)" xlink:href="#DejaVuSans-29"/>
     </g>
    </g>
   </g>
   <g id="matplotlib.axis_2">
    <g id="ytick_1">
     <g id="line2d_8">
      <defs>
       <path d="M 0 0 
L -3.5 0 
" id="m1d29c6c3f6" style="stroke:#000000;stroke-width:0.8;"/>
      </defs>
      <g>
       <use style="stroke:#000000;stroke-width:0.8;" x="48.653125" xlink:href="#m1d29c6c3f6" y="423.441371"/>
      </g>
     </g>
     <g id="text_9">
      <!-- 2.0 -->
      <g transform="translate(25.75 427.24059)scale(0.1 -0.1)">
       <use xlink:href="#DejaVuSans-32"/>
       <use x="63.623047" xlink:href="#DejaVuSans-2e"/>
       <use x="95.410156" xlink:href="#DejaVuSans-30"/>
      </g>
     </g>
    </g>
    <g id="ytick_2">
     <g id="line2d_9">
      <g>
       <use style="stroke:#000000;stroke-width:0.8;" x="48.653125" xlink:href="#m1d29c6c3f6" y="371.1412"/>
      </g>
     </g>
     <g id="text_10">
      <!-- 2.2 -->
      <g transform="translate(25.75 374.940419)scale(0.1 -0.1)">
       <use xlink:href="#DejaVuSans-32"/>
       <use x="63.623047" xlink:href="#DejaVuSans-2e"/>
       <use x="95.410156" xlink:href="#DejaVuSans-32"/>
      </g>
     </g>
    </g>
    <g id="ytick_3">
     <g id="line2d_10">
      <g>
       <use style="stroke:#000000;stroke-width:0.8;" x="48.653125" xlink:href="#m1d29c6c3f6" y="318.841029"/>
      </g>
     </g>
     <g id="text_11">
      <!-- 2.4 -->
      <g transform="translate(25.75 322.640248)scale(0.1 -0.1)">
       <use xlink:href="#DejaVuSans-32"/>
       <use x="63.623047" xlink:href="#DejaVuSans-2e"/>
       <use x="95.410156" xlink:href="#DejaVuSans-34"/>
      </g>
     </g>
    </g>
    <g id="ytick_4">
     <g id="line2d_11">
      <g>
       <use style="stroke:#000000;stroke-width:0.8;" x="48.653125" xlink:href="#m1d29c6c3f6" y="266.540859"/>
      </g>
     </g>
     <g id="text_12">
      <!-- 2.6 -->
      <g transform="translate(25.75 270.340077)scale(0.1 -0.1)">
       <use xlink:href="#DejaVuSans-32"/>
       <use x="63.623047" xlink:href="#DejaVuSans-2e"/>
       <use x="95.410156" xlink:href="#DejaVuSans-36"/>
      </g>
     </g>
    </g>
    <g id="ytick_5">
     <g id="line2d_12">
      <g>
       <use style="stroke:#000000;stroke-width:0.8;" x="48.653125" xlink:href="#m1d29c6c3f6" y="214.240688"/>
      </g>
     </g>
     <g id="text_13">
      <!-- 2.8 -->
      <g transform="translate(25.75 218.039907)scale(0.1 -0.1)">
       <use xlink:href="#DejaVuSans-32"/>
       <use x="63.623047" xlink:href="#DejaVuSans-2e"/>
       <use x="95.410156" xlink:href="#DejaVuSans-38"/>
      </g>
     </g>
    </g>
    <g id="ytick_6">
     <g id="line2d_13">
      <g>
       <use style="stroke:#000000;stroke-width:0.8;" x="48.653125" xlink:href="#m1d29c6c3f6" y="161.940517"/>
      </g>
     </g>
     <g id="text_14">
      <!-- 3.0 -->
      <defs>
       <path d="M 40.578125 39.3125 
Q 47.65625 37.796875 51.625 33 
Q 55.609375 28.21875 55.609375 21.1875 
Q 55.609375 10.40625 48.1875 4.484375 
Q 40.765625 -1.421875 27.09375 -1.421875 
Q 22.515625 -1.421875 17.65625 -0.515625 
Q 12.796875 0.390625 7.625 2.203125 
L 7.625 11.71875 
Q 11.71875 9.328125 16.59375 8.109375 
Q 21.484375 6.890625 26.8125 6.890625 
Q 36.078125 6.890625 40.9375 10.546875 
Q 45.796875 14.203125 45.796875 21.1875 
Q 45.796875 27.640625 41.28125 31.265625 
Q 36.765625 34.90625 28.71875 34.90625 
L 20.21875 34.90625 
L 20.21875 43.015625 
L 29.109375 43.015625 
Q 36.375 43.015625 40.234375 45.921875 
Q 44.09375 48.828125 44.09375 54.296875 
Q 44.09375 59.90625 40.109375 62.90625 
Q 36.140625 65.921875 28.71875 65.921875 
Q 24.65625 65.921875 20.015625 65.03125 
Q 15.375 64.15625 9.8125 62.3125 
L 9.8125 71.09375 
Q 15.4375 72.65625 20.34375 73.4375 
Q 25.25 74.21875 29.59375 74.21875 
Q 40.828125 74.21875 47.359375 69.109375 
Q 53.90625 64.015625 53.90625 55.328125 
Q 53.90625 49.265625 50.4375 45.09375 
Q 46.96875 40.921875 40.578125 39.3125 
z
" id="DejaVuSans-33"/>
      </defs>
      <g transform="translate(25.75 165.739736)scale(0.1 -0.1)">
       <use xlink:href="#DejaVuSans-33"/>
       <use x="63.623047" xlink:href="#DejaVuSans-2e"/>
       <use x="95.410156" xlink:href="#DejaVuSans-30"/>
      </g>
     </g>
    </g>
    <g id="ytick_7">
     <g id="line2d_14">
      <g>
       <use style="stroke:#000000;stroke-width:0.8;" x="48.653125" xlink:href="#m1d29c6c3f6" y="109.640346"/>
      </g>
     </g>
     <g id="text_15">
      <!-- 3.2 -->
      <g transform="translate(25.75 113.439565)scale(0.1 -0.1)">
       <use xlink:href="#DejaVuSans-33"/>
       <use x="63.623047" xlink:href="#DejaVuSans-2e"/>
       <use x="95.410156" xlink:href="#DejaVuSans-32"/>
      </g>
     </g>
    </g>
    <g id="ytick_8">
     <g id="line2d_15">
      <g>
       <use style="stroke:#000000;stroke-width:0.8;" x="48.653125" xlink:href="#m1d29c6c3f6" y="57.340176"/>
      </g>
     </g>
     <g id="text_16">
      <!-- 3.4 -->
      <g transform="translate(25.75 61.139394)scale(0.1 -0.1)">
       <use xlink:href="#DejaVuSans-33"/>
       <use x="63.623047" xlink:href="#DejaVuSans-2e"/>
       <use x="95.410156" xlink:href="#DejaVuSans-34"/>
      </g>
     </g>
    </g>
    <g id="text_17">
     <!-- Flow velocity ($cm/s$) -->
     <defs>
      <path d="M 9.8125 72.90625 
L 51.703125 72.90625 
L 51.703125 64.59375 
L 19.671875 64.59375 
L 19.671875 43.109375 
L 48.578125 43.109375 
L 48.578125 34.8125 
L 19.671875 34.8125 
L 19.671875 0 
L 9.8125 0 
z
" id="DejaVuSans-46"/>
      <path d="M 9.421875 75.984375 
L 18.40625 75.984375 
L 18.40625 0 
L 9.421875 0 
z
" id="DejaVuSans-6c"/>
      <path d="M 30.609375 48.390625 
Q 23.390625 48.390625 19.1875 42.75 
Q 14.984375 37.109375 14.984375 27.296875 
Q 14.984375 17.484375 19.15625 11.84375 
Q 23.34375 6.203125 30.609375 6.203125 
Q 37.796875 6.203125 41.984375 11.859375 
Q 46.1875 17.53125 46.1875 27.296875 
Q 46.1875 37.015625 41.984375 42.703125 
Q 37.796875 48.390625 30.609375 48.390625 
z
M 30.609375 56 
Q 42.328125 56 49.015625 48.375 
Q 55.71875 40.765625 55.71875 27.296875 
Q 55.71875 13.875 49.015625 6.21875 
Q 42.328125 -1.421875 30.609375 -1.421875 
Q 18.84375 -1.421875 12.171875 6.21875 
Q 5.515625 13.875 5.515625 27.296875 
Q 5.515625 40.765625 12.171875 48.375 
Q 18.84375 56 30.609375 56 
z
" id="DejaVuSans-6f"/>
      <path d="M 4.203125 54.6875 
L 13.1875 54.6875 
L 24.421875 12.015625 
L 35.59375 54.6875 
L 46.1875 54.6875 
L 57.421875 12.015625 
L 68.609375 54.6875 
L 77.59375 54.6875 
L 63.28125 0 
L 52.6875 0 
L 40.921875 44.828125 
L 29.109375 0 
L 18.5 0 
z
" id="DejaVuSans-77"/>
      <path d="M 2.984375 54.6875 
L 12.5 54.6875 
L 29.59375 8.796875 
L 46.6875 54.6875 
L 56.203125 54.6875 
L 35.6875 0 
L 23.484375 0 
z
" id="DejaVuSans-76"/>
      <path d="M 9.421875 54.6875 
L 18.40625 54.6875 
L 18.40625 0 
L 9.421875 0 
z
M 9.421875 75.984375 
L 18.40625 75.984375 
L 18.40625 64.59375 
L 9.421875 64.59375 
z
" id="DejaVuSans-69"/>
      <path d="M 32.171875 -5.078125 
Q 28.375 -14.84375 24.75 -17.8125 
Q 21.140625 -20.796875 15.09375 -20.796875 
L 7.90625 -20.796875 
L 7.90625 -13.28125 
L 13.1875 -13.28125 
Q 16.890625 -13.28125 18.9375 -11.515625 
Q 21 -9.765625 23.484375 -3.21875 
L 25.09375 0.875 
L 2.984375 54.6875 
L 12.5 54.6875 
L 29.59375 11.921875 
L 46.6875 54.6875 
L 56.203125 54.6875 
z
" id="DejaVuSans-79"/>
      <path d="M 53.609375 52.59375 
L 51.8125 43.703125 
Q 48.578125 46.046875 44.9375 47.21875 
Q 41.3125 48.390625 37.40625 48.390625 
Q 33.109375 48.390625 29.21875 46.875 
Q 25.34375 45.359375 22.703125 42.578125 
Q 18.5 38.328125 16.203125 32.609375 
Q 13.921875 26.90625 13.921875 20.796875 
Q 13.921875 13.421875 17.609375 9.8125 
Q 21.296875 6.203125 28.8125 6.203125 
Q 32.515625 6.203125 36.6875 7.328125 
Q 40.875 8.453125 45.40625 10.6875 
L 43.703125 1.8125 
Q 39.796875 0.203125 35.671875 -0.609375 
Q 31.546875 -1.421875 27.203125 -1.421875 
Q 16.3125 -1.421875 10.453125 4.015625 
Q 4.59375 9.46875 4.59375 19.578125 
Q 4.59375 28.078125 7.640625 35.234375 
Q 10.6875 42.390625 16.703125 48.09375 
Q 20.796875 52 26.3125 54 
Q 31.84375 56 38.375 56 
Q 42.1875 56 45.9375 55.140625 
Q 49.703125 54.296875 53.609375 52.59375 
z
" id="DejaVuSans-Oblique-63"/>
      <path d="M 89.796875 33.015625 
L 83.40625 0 
L 74.421875 0 
L 80.71875 32.71875 
Q 81.109375 34.8125 81.296875 36.328125 
Q 81.5 37.84375 81.5 38.921875 
Q 81.5 43.3125 79.046875 45.75 
Q 76.609375 48.1875 72.21875 48.1875 
Q 65.671875 48.1875 60.546875 43.28125 
Q 55.421875 38.375 53.90625 30.515625 
L 47.90625 0 
L 38.921875 0 
L 45.3125 32.71875 
Q 45.703125 34.515625 45.890625 36.046875 
Q 46.09375 37.59375 46.09375 38.8125 
Q 46.09375 43.265625 43.65625 45.71875 
Q 41.21875 48.1875 36.921875 48.1875 
Q 30.28125 48.1875 25.140625 43.28125 
Q 20.015625 38.375 18.5 30.515625 
L 12.5 0 
L 3.515625 0 
L 14.203125 54.6875 
L 23.1875 54.6875 
L 21.484375 46.1875 
Q 25.140625 50.984375 30.046875 53.484375 
Q 34.96875 56 40.578125 56 
Q 46.53125 56 50.359375 52.875 
Q 54.203125 49.75 54.984375 44.1875 
Q 59.078125 49.953125 64.46875 52.96875 
Q 69.875 56 75.875 56 
Q 82.90625 56 86.734375 51.953125 
Q 90.578125 47.90625 90.578125 40.484375 
Q 90.578125 38.875 90.375 36.9375 
Q 90.1875 35.015625 89.796875 33.015625 
z
" id="DejaVuSans-Oblique-6d"/>
      <path d="M 25.390625 72.90625 
L 33.6875 72.90625 
L 8.296875 -9.28125 
L 0 -9.28125 
z
" id="DejaVuSans-2f"/>
      <path d="M 50 53.078125 
L 48.296875 44.578125 
Q 44.734375 46.53125 40.765625 47.5 
Q 36.8125 48.484375 32.625 48.484375 
Q 25.53125 48.484375 21.453125 46.0625 
Q 17.390625 43.65625 17.390625 39.5 
Q 17.390625 34.671875 26.859375 32.078125 
Q 27.59375 31.890625 27.9375 31.78125 
L 30.8125 30.90625 
Q 39.796875 28.421875 42.796875 25.6875 
Q 45.796875 22.953125 45.796875 18.21875 
Q 45.796875 9.515625 38.890625 4.046875 
Q 31.984375 -1.421875 20.796875 -1.421875 
Q 16.453125 -1.421875 11.671875 -0.578125 
Q 6.890625 0.25 1.125 2 
L 2.875 11.28125 
Q 7.8125 8.734375 12.59375 7.421875 
Q 17.390625 6.109375 21.78125 6.109375 
Q 28.375 6.109375 32.5 8.9375 
Q 36.625 11.765625 36.625 16.109375 
Q 36.625 20.796875 25.78125 23.6875 
L 24.859375 23.921875 
L 21.78125 24.703125 
Q 14.9375 26.515625 11.765625 29.46875 
Q 8.59375 32.421875 8.59375 37.015625 
Q 8.59375 45.75 15.15625 50.875 
Q 21.734375 56 33.015625 56 
Q 37.453125 56 41.671875 55.265625 
Q 45.90625 54.546875 50 53.078125 
z
" id="DejaVuSans-Oblique-73"/>
     </defs>
     <g transform="translate(18.6 303.065)rotate(-90)scale(0.15 -0.15)">
      <use transform="translate(0 0.015625)" xlink:href="#DejaVuSans-46"/>
      <use transform="translate(57.519531 0.015625)" xlink:href="#DejaVuSans-6c"/>
      <use transform="translate(85.302734 0.015625)" xlink:href="#DejaVuSans-6f"/>
      <use transform="translate(146.484375 0.015625)" xlink:href="#DejaVuSans-77"/>
      <use transform="translate(228.271484 0.015625)" xlink:href="#DejaVuSans-20"/>
      <use transform="translate(260.058594 0.015625)" xlink:href="#DejaVuSans-76"/>
      <use transform="translate(319.238281 0.015625)" xlink:href="#DejaVuSans-65"/>
      <use transform="translate(380.761719 0.015625)" xlink:href="#DejaVuSans-6c"/>
      <use transform="translate(408.544922 0.015625)" xlink:href="#DejaVuSans-6f"/>
      <use transform="translate(469.726562 0.015625)" xlink:href="#DejaVuSans-63"/>
      <use transform="translate(524.707031 0.015625)" xlink:href="#DejaVuSans-69"/>
      <use transform="translate(552.490234 0.015625)" xlink:href="#DejaVuSans-74"/>
      <use transform="translate(591.699219 0.015625)" xlink:href="#DejaVuSans-79"/>
      <use transform="translate(650.878906 0.015625)" xlink:href="#DejaVuSans-20"/>
      <use transform="translate(682.666016 0.015625)" xlink:href="#DejaVuSans-28"/>
      <use transform="translate(721.679688 0.015625)" xlink:href="#DejaVuSans-Oblique-63"/>
      <use transform="translate(776.660156 0.015625)" xlink:href="#DejaVuSans-Oblique-6d"/>
      <use transform="translate(874.072266 0.015625)" xlink:href="#DejaVuSans-2f"/>
      <use transform="translate(907.763672 0.015625)" xlink:href="#DejaVuSans-Oblique-73"/>
      <use transform="translate(959.863281 0.015625)" xlink:href="#DejaVuSans-29"/>
     </g>
    </g>
   </g>
   <g id="patch_3">
    <path d="M 48.653125 445.58 
L 48.653125 10.7 
" style="fill:none;stroke:#000000;stroke-linecap:square;stroke-linejoin:miter;stroke-width:0.8;"/>
   </g>
   <g id="patch_4">
    <path d="M 718.253125 445.58 
L 718.253125 10.7 
" style="fill:none;stroke:#000000;stroke-linecap:square;stroke-linejoin:miter;stroke-width:0.8;"/>
   </g>
   <g id="patch_5">
    <path d="M 48.653125 445.58 
L 718.253125 445.58 
" style="fill:none;stroke:#000000;stroke-linecap:square;stroke-linejoin:miter;stroke-width:0.8;"/>
   </g>
   <g id="patch_6">
    <path d="M 48.653125 10.7 
L 718.253125 10.7 
" style="fill:none;stroke:#000000;stroke-linecap:square;stroke-linejoin:miter;stroke-width:0.8;"/>
   </g>
   <g id="legend_1">
    <g id="patch_7">
     <path d="M 55.653125 77.4125 
L 151.457812 77.4125 
Q 153.457812 77.4125 153.457812 75.4125 
L 153.457812 17.7 
Q 153.457812 15.7 151.457812 15.7 
L 55.653125 15.7 
Q 53.653125 15.7 53.653125 17.7 
L 53.653125 75.4125 
Q 53.653125 77.4125 55.653125 77.4125 
z
" style="fill:#ffffff;opacity:0.8;stroke:#cccccc;stroke-linejoin:miter;"/>
    </g>
    <g id="PathCollection_5">
     <defs>
      <path d="M 0 16.431677 
C 4.357732 16.431677 8.537568 14.700332 11.61895 11.61895 
C 14.700332 8.537568 16.431677 4.357732 16.431677 0 
C 16.431677 -4.357732 14.700332 -8.537568 11.61895 -11.61895 
C 8.537568 -14.700332 4.357732 -16.431677 0 -16.431677 
C -4.357732 -16.431677 -8.537568 -14.700332 -11.61895 -11.61895 
C -14.700332 -8.537568 -16.431677 -4.357732 -16.431677 0 
C -16.431677 4.357732 -14.700332 8.537568 -11.61895 11.61895 
C -8.537568 14.700332 -4.357732 16.431677 0 16.431677 
z
" id="mb97f23d058" style="stroke:#1f77b4;stroke-opacity:0.5;"/>
     </defs>
     <g>
      <use style="fill:#1f77b4;fill-opacity:0.5;stroke:#1f77b4;stroke-opacity:0.5;" x="67.653125" xlink:href="#mb97f23d058" y="24.673437"/>
     </g>
    </g>
    <g id="text_18">
     <!-- 0.2M NaCl -->
     <defs>
      <path d="M 9.8125 72.90625 
L 24.515625 72.90625 
L 43.109375 23.296875 
L 61.8125 72.90625 
L 76.515625 72.90625 
L 76.515625 0 
L 66.890625 0 
L 66.890625 64.015625 
L 48.09375 14.015625 
L 38.1875 14.015625 
L 19.390625 64.015625 
L 19.390625 0 
L 9.8125 0 
z
" id="DejaVuSans-4d"/>
      <path d="M 9.8125 72.90625 
L 23.09375 72.90625 
L 55.421875 11.921875 
L 55.421875 72.90625 
L 64.984375 72.90625 
L 64.984375 0 
L 51.703125 0 
L 19.390625 60.984375 
L 19.390625 0 
L 9.8125 0 
z
" id="DejaVuSans-4e"/>
      <path d="M 34.28125 27.484375 
Q 23.390625 27.484375 19.1875 25 
Q 14.984375 22.515625 14.984375 16.5 
Q 14.984375 11.71875 18.140625 8.90625 
Q 21.296875 6.109375 26.703125 6.109375 
Q 34.1875 6.109375 38.703125 11.40625 
Q 43.21875 16.703125 43.21875 25.484375 
L 43.21875 27.484375 
z
M 52.203125 31.203125 
L 52.203125 0 
L 43.21875 0 
L 43.21875 8.296875 
Q 40.140625 3.328125 35.546875 0.953125 
Q 30.953125 -1.421875 24.3125 -1.421875 
Q 15.921875 -1.421875 10.953125 3.296875 
Q 6 8.015625 6 15.921875 
Q 6 25.140625 12.171875 29.828125 
Q 18.359375 34.515625 30.609375 34.515625 
L 43.21875 34.515625 
L 43.21875 35.40625 
Q 43.21875 41.609375 39.140625 45 
Q 35.0625 48.390625 27.6875 48.390625 
Q 23 48.390625 18.546875 47.265625 
Q 14.109375 46.140625 10.015625 43.890625 
L 10.015625 52.203125 
Q 14.9375 54.109375 19.578125 55.046875 
Q 24.21875 56 28.609375 56 
Q 40.484375 56 46.34375 49.84375 
Q 52.203125 43.703125 52.203125 31.203125 
z
" id="DejaVuSans-61"/>
      <path d="M 64.40625 67.28125 
L 64.40625 56.890625 
Q 59.421875 61.53125 53.78125 63.8125 
Q 48.140625 66.109375 41.796875 66.109375 
Q 29.296875 66.109375 22.65625 58.46875 
Q 16.015625 50.828125 16.015625 36.375 
Q 16.015625 21.96875 22.65625 14.328125 
Q 29.296875 6.6875 41.796875 6.6875 
Q 48.140625 6.6875 53.78125 8.984375 
Q 59.421875 11.28125 64.40625 15.921875 
L 64.40625 5.609375 
Q 59.234375 2.09375 53.4375 0.328125 
Q 47.65625 -1.421875 41.21875 -1.421875 
Q 24.65625 -1.421875 15.125 8.703125 
Q 5.609375 18.84375 5.609375 36.375 
Q 5.609375 53.953125 15.125 64.078125 
Q 24.65625 74.21875 41.21875 74.21875 
Q 47.75 74.21875 53.53125 72.484375 
Q 59.328125 70.75 64.40625 67.28125 
z
" id="DejaVuSans-43"/>
     </defs>
     <g transform="translate(85.653125 27.298437)scale(0.1 -0.1)">
      <use xlink:href="#DejaVuSans-30"/>
      <use x="63.623047" xlink:href="#DejaVuSans-2e"/>
      <use x="95.410156" xlink:href="#DejaVuSans-32"/>
      <use x="159.033203" xlink:href="#DejaVuSans-4d"/>
      <use x="245.3125" xlink:href="#DejaVuSans-20"/>
      <use x="277.099609" xlink:href="#DejaVuSans-4e"/>
      <use x="351.904297" xlink:href="#DejaVuSans-61"/>
      <use x="413.183594" xlink:href="#DejaVuSans-43"/>
      <use x="483.007812" xlink:href="#DejaVuSans-6c"/>
     </g>
    </g>
    <g id="PathCollection_6">
     <defs>
      <path d="M 0 14.40486 
C 3.820214 14.40486 7.484475 12.887073 10.185774 10.185774 
C 12.887073 7.484475 14.40486 3.820214 14.40486 0 
C 14.40486 -3.820214 12.887073 -7.484475 10.185774 -10.185774 
C 7.484475 -12.887073 3.820214 -14.40486 0 -14.40486 
C -3.820214 -14.40486 -7.484475 -12.887073 -10.185774 -10.185774 
C -12.887073 -7.484475 -14.40486 -3.820214 -14.40486 0 
C -14.40486 3.820214 -12.887073 7.484475 -10.185774 10.185774 
C -7.484475 12.887073 -3.820214 14.40486 0 14.40486 
z
" id="me6ae78b025" style="stroke:#ff7f0e;stroke-opacity:0.5;"/>
     </defs>
     <g>
      <use style="fill:#ff7f0e;fill-opacity:0.5;stroke:#ff7f0e;stroke-opacity:0.5;" x="67.653125" xlink:href="#me6ae78b025" y="39.351562"/>
     </g>
    </g>
    <g id="text_19">
     <!-- 0.175M NaCl -->
     <defs>
      <path d="M 8.203125 72.90625 
L 55.078125 72.90625 
L 55.078125 68.703125 
L 28.609375 0 
L 18.3125 0 
L 43.21875 64.59375 
L 8.203125 64.59375 
z
" id="DejaVuSans-37"/>
      <path d="M 10.796875 72.90625 
L 49.515625 72.90625 
L 49.515625 64.59375 
L 19.828125 64.59375 
L 19.828125 46.734375 
Q 21.96875 47.46875 24.109375 47.828125 
Q 26.265625 48.1875 28.421875 48.1875 
Q 40.625 48.1875 47.75 41.5 
Q 54.890625 34.8125 54.890625 23.390625 
Q 54.890625 11.625 47.5625 5.09375 
Q 40.234375 -1.421875 26.90625 -1.421875 
Q 22.3125 -1.421875 17.546875 -0.640625 
Q 12.796875 0.140625 7.71875 1.703125 
L 7.71875 11.625 
Q 12.109375 9.234375 16.796875 8.0625 
Q 21.484375 6.890625 26.703125 6.890625 
Q 35.15625 6.890625 40.078125 11.328125 
Q 45.015625 15.765625 45.015625 23.390625 
Q 45.015625 31 40.078125 35.4375 
Q 35.15625 39.890625 26.703125 39.890625 
Q 22.75 39.890625 18.8125 39.015625 
Q 14.890625 38.140625 10.796875 36.28125 
z
" id="DejaVuSans-35"/>
     </defs>
     <g transform="translate(85.653125 41.976562)scale(0.1 -0.1)">
      <use xlink:href="#DejaVuSans-30"/>
      <use x="63.623047" xlink:href="#DejaVuSans-2e"/>
      <use x="95.410156" xlink:href="#DejaVuSans-31"/>
      <use x="159.033203" xlink:href="#DejaVuSans-37"/>
      <use x="222.65625" xlink:href="#DejaVuSans-35"/>
      <use x="286.279297" xlink:href="#DejaVuSans-4d"/>
      <use x="372.558594" xlink:href="#DejaVuSans-20"/>
      <use x="404.345703" xlink:href="#DejaVuSans-4e"/>
      <use x="479.150391" xlink:href="#DejaVuSans-61"/>
      <use x="540.429688" xlink:href="#DejaVuSans-43"/>
      <use x="610.253906" xlink:href="#DejaVuSans-6c"/>
     </g>
    </g>
    <g id="PathCollection_7">
     <defs>
      <path d="M 0 12.041595 
C 3.193468 12.041595 6.25657 10.772816 8.514693 8.514693 
C 10.772816 6.25657 12.041595 3.193468 12.041595 0 
C 12.041595 -3.193468 10.772816 -6.25657 8.514693 -8.514693 
C 6.25657 -10.772816 3.193468 -12.041595 0 -12.041595 
C -3.193468 -12.041595 -6.25657 -10.772816 -8.514693 -8.514693 
C -10.772816 -6.25657 -12.041595 -3.193468 -12.041595 0 
C -12.041595 3.193468 -10.772816 6.25657 -8.514693 8.514693 
C -6.25657 10.772816 -3.193468 12.041595 0 12.041595 
z
" id="m06a3e4fa58" style="stroke:#2ca02c;stroke-opacity:0.5;"/>
     </defs>
     <g>
      <use style="fill:#2ca02c;fill-opacity:0.5;stroke:#2ca02c;stroke-opacity:0.5;" x="67.653125" xlink:href="#m06a3e4fa58" y="54.029687"/>
     </g>
    </g>
    <g id="text_20">
     <!-- 0.15M NaCl -->
     <g transform="translate(85.653125 56.654687)scale(0.1 -0.1)">
      <use xlink:href="#DejaVuSans-30"/>
      <use x="63.623047" xlink:href="#DejaVuSans-2e"/>
      <use x="95.410156" xlink:href="#DejaVuSans-31"/>
      <use x="159.033203" xlink:href="#DejaVuSans-35"/>
      <use x="222.65625" xlink:href="#DejaVuSans-4d"/>
      <use x="308.935547" xlink:href="#DejaVuSans-20"/>
      <use x="340.722656" xlink:href="#DejaVuSans-4e"/>
      <use x="415.527344" xlink:href="#DejaVuSans-61"/>
      <use x="476.806641" xlink:href="#DejaVuSans-43"/>
      <use x="546.630859" xlink:href="#DejaVuSans-6c"/>
     </g>
    </g>
    <g id="PathCollection_8">
     <defs>
      <path d="M 0 4.472136 
C 1.186024 4.472136 2.323632 4.000923 3.162278 3.162278 
C 4.000923 2.323632 4.472136 1.186024 4.472136 0 
C 4.472136 -1.186024 4.000923 -2.323632 3.162278 -3.162278 
C 2.323632 -4.000923 1.186024 -4.472136 0 -4.472136 
C -1.186024 -4.472136 -2.323632 -4.000923 -3.162278 -3.162278 
C -4.000923 -2.323632 -4.472136 -1.186024 -4.472136 0 
C -4.472136 1.186024 -4.000923 2.323632 -3.162278 3.162278 
C -2.323632 4.000923 -1.186024 4.472136 0 4.472136 
z
" id="m8f461a8dfd" style="stroke:#d62728;stroke-opacity:0.5;"/>
     </defs>
     <g>
      <use style="fill:#d62728;fill-opacity:0.5;stroke:#d62728;stroke-opacity:0.5;" x="67.653125" xlink:href="#m8f461a8dfd" y="68.707812"/>
     </g>
    </g>
    <g id="text_21">
     <!-- 0.1M NaCl -->
     <g transform="translate(85.653125 71.332812)scale(0.1 -0.1)">
      <use xlink:href="#DejaVuSans-30"/>
      <use x="63.623047" xlink:href="#DejaVuSans-2e"/>
      <use x="95.410156" xlink:href="#DejaVuSans-31"/>
      <use x="159.033203" xlink:href="#DejaVuSans-4d"/>
      <use x="245.3125" xlink:href="#DejaVuSans-20"/>
      <use x="277.099609" xlink:href="#DejaVuSans-4e"/>
      <use x="351.904297" xlink:href="#DejaVuSans-61"/>
      <use x="413.183594" xlink:href="#DejaVuSans-43"/>
      <use x="483.007812" xlink:href="#DejaVuSans-6c"/>
     </g>
    </g>
   </g>
  </g>
 </g>
 <defs>
  <clipPath id="p270685f82c">
   <rect height="434.88" width="669.6" x="48.653125" y="10.7"/>
  </clipPath>
 </defs>
</svg>
